G75*
G70*
%OFA0B0*%
%FSLAX24Y24*%
%IPPOS*%
%LPD*%
%AMOC8*
5,1,8,0,0,1.08239X$1,22.5*
%
%ADD10C,0.0160*%
%ADD11C,0.0140*%
%ADD12C,0.0120*%
%ADD13C,0.0050*%
%ADD14C,0.0020*%
%ADD15C,0.0060*%
%ADD16C,0.0030*%
%ADD17C,0.0080*%
%ADD18C,0.0010*%
%ADD19R,0.0600X0.0600*%
%ADD20C,0.0040*%
%ADD21C,0.0000*%
D10*
X001360Y000576D02*
X030640Y000576D01*
X030702Y000578D01*
X030764Y000584D01*
X030825Y000594D01*
X030886Y000607D01*
X030945Y000624D01*
X031004Y000645D01*
X031061Y000670D01*
X031116Y000698D01*
X031169Y000730D01*
X031221Y000765D01*
X031270Y000803D01*
X031316Y000844D01*
X031360Y000888D01*
X031401Y000934D01*
X031439Y000983D01*
X031474Y001035D01*
X031506Y001088D01*
X031534Y001143D01*
X031559Y001200D01*
X031580Y001259D01*
X031597Y001318D01*
X031610Y001379D01*
X031620Y001440D01*
X031626Y001502D01*
X031628Y001564D01*
X031628Y019294D01*
X031627Y019294D02*
X031625Y019351D01*
X031619Y019408D01*
X031610Y019465D01*
X031597Y019521D01*
X031580Y019576D01*
X031560Y019630D01*
X031537Y019682D01*
X031510Y019733D01*
X031479Y019781D01*
X031446Y019828D01*
X031409Y019872D01*
X031370Y019914D01*
X031328Y019953D01*
X031284Y019990D01*
X031237Y020023D01*
X031189Y020054D01*
X031138Y020081D01*
X031086Y020104D01*
X031032Y020124D01*
X030977Y020141D01*
X030921Y020154D01*
X030864Y020163D01*
X030807Y020169D01*
X030750Y020171D01*
X030730Y020164D02*
X001603Y020164D01*
X000321Y020723D02*
X000321Y026588D01*
X002610Y026588D01*
X002610Y031941D01*
X000329Y031941D01*
X000329Y043018D01*
X000346Y043023D02*
X071579Y043023D01*
X071579Y020723D01*
X000321Y020723D01*
X000206Y018767D02*
X000206Y001731D01*
X000205Y001731D02*
X000207Y001664D01*
X000213Y001597D01*
X000223Y001530D01*
X000236Y001465D01*
X000254Y001400D01*
X000275Y001336D01*
X000299Y001274D01*
X000328Y001213D01*
X000360Y001154D01*
X000395Y001096D01*
X000434Y001041D01*
X000475Y000989D01*
X000520Y000938D01*
X000567Y000891D01*
X000618Y000846D01*
X000670Y000805D01*
X000725Y000766D01*
X000782Y000731D01*
X000842Y000699D01*
X000903Y000670D01*
X000965Y000646D01*
X001029Y000625D01*
X001094Y000607D01*
X001159Y000594D01*
X001226Y000584D01*
X001293Y000578D01*
X001360Y000576D01*
X000206Y018767D02*
X000208Y018840D01*
X000214Y018913D01*
X000223Y018986D01*
X000237Y019057D01*
X000254Y019129D01*
X000274Y019199D01*
X000299Y019268D01*
X000327Y019335D01*
X000358Y019401D01*
X000393Y019466D01*
X000431Y019528D01*
X000473Y019588D01*
X000517Y019646D01*
X000565Y019702D01*
X000615Y019755D01*
X000668Y019805D01*
X000724Y019853D01*
X000782Y019897D01*
X000842Y019939D01*
X000904Y019977D01*
X000969Y020012D01*
X001035Y020043D01*
X001102Y020071D01*
X001171Y020096D01*
X001241Y020116D01*
X001313Y020133D01*
X001384Y020147D01*
X001457Y020156D01*
X001530Y020162D01*
X001603Y020164D01*
X001769Y026497D02*
X001285Y026493D01*
X000891Y026491D02*
X000408Y026488D01*
X000408Y026921D01*
X000408Y027315D02*
X000408Y027748D01*
X000408Y028142D02*
X000408Y028575D01*
X000408Y028969D02*
X000408Y029402D01*
X000408Y029796D02*
X000408Y030229D01*
X000408Y030623D02*
X000408Y031056D01*
X000408Y031450D02*
X000408Y031883D01*
X000881Y031883D01*
X001275Y031883D02*
X001748Y031883D01*
X002142Y031883D02*
X002616Y031883D01*
X002646Y031822D02*
X002646Y031399D01*
X002646Y031006D02*
X002646Y030583D01*
X002646Y030190D02*
X002646Y029767D01*
X002646Y029373D02*
X002646Y028951D01*
X002646Y028557D02*
X002646Y028135D01*
X002646Y027741D02*
X002646Y027319D01*
X002646Y026925D02*
X002646Y026502D01*
X002163Y026499D01*
X040083Y018778D02*
X040083Y001741D01*
X040082Y001741D02*
X040084Y001674D01*
X040090Y001607D01*
X040100Y001540D01*
X040113Y001475D01*
X040131Y001410D01*
X040152Y001346D01*
X040176Y001284D01*
X040205Y001223D01*
X040237Y001164D01*
X040272Y001106D01*
X040311Y001051D01*
X040352Y000999D01*
X040397Y000948D01*
X040444Y000901D01*
X040495Y000856D01*
X040547Y000815D01*
X040602Y000776D01*
X040660Y000741D01*
X040719Y000709D01*
X040780Y000680D01*
X040842Y000656D01*
X040906Y000635D01*
X040971Y000617D01*
X041036Y000604D01*
X041103Y000594D01*
X041170Y000588D01*
X041237Y000586D01*
X041237Y000587D02*
X070517Y000587D01*
X070579Y000589D01*
X070641Y000595D01*
X070702Y000605D01*
X070763Y000618D01*
X070822Y000635D01*
X070881Y000656D01*
X070938Y000681D01*
X070993Y000709D01*
X071046Y000741D01*
X071098Y000776D01*
X071147Y000814D01*
X071193Y000855D01*
X071237Y000899D01*
X071278Y000945D01*
X071316Y000994D01*
X071351Y001046D01*
X071383Y001099D01*
X071411Y001154D01*
X071436Y001211D01*
X071457Y001270D01*
X071474Y001329D01*
X071487Y001390D01*
X071497Y001451D01*
X071503Y001513D01*
X071505Y001575D01*
X071505Y019305D01*
X071503Y019362D01*
X071497Y019419D01*
X071488Y019476D01*
X071475Y019532D01*
X071458Y019587D01*
X071438Y019641D01*
X071415Y019693D01*
X071388Y019744D01*
X071357Y019792D01*
X071324Y019839D01*
X071287Y019883D01*
X071248Y019925D01*
X071206Y019964D01*
X071162Y020001D01*
X071115Y020034D01*
X071067Y020065D01*
X071016Y020092D01*
X070964Y020115D01*
X070910Y020135D01*
X070855Y020152D01*
X070799Y020165D01*
X070742Y020174D01*
X070685Y020180D01*
X070628Y020182D01*
X070607Y020175D02*
X041480Y020175D01*
X041407Y020173D01*
X041334Y020167D01*
X041261Y020158D01*
X041190Y020144D01*
X041118Y020127D01*
X041048Y020107D01*
X040979Y020082D01*
X040912Y020054D01*
X040846Y020023D01*
X040782Y019988D01*
X040719Y019950D01*
X040659Y019908D01*
X040601Y019864D01*
X040545Y019816D01*
X040492Y019766D01*
X040442Y019713D01*
X040394Y019657D01*
X040350Y019599D01*
X040308Y019539D01*
X040270Y019477D01*
X040235Y019412D01*
X040204Y019346D01*
X040176Y019279D01*
X040151Y019210D01*
X040131Y019140D01*
X040114Y019068D01*
X040100Y018997D01*
X040091Y018924D01*
X040085Y018851D01*
X040083Y018778D01*
D11*
X017453Y029338D02*
X017453Y029525D01*
X017359Y029619D01*
X017266Y029619D01*
X017173Y029525D01*
X017079Y029619D01*
X016986Y029619D01*
X016892Y029525D01*
X016892Y029338D01*
X016986Y029245D01*
X017173Y029432D02*
X017173Y029525D01*
X017359Y029245D02*
X017453Y029338D01*
X016986Y029890D02*
X016986Y029983D01*
X016892Y029983D01*
X016892Y029890D01*
X016986Y029890D01*
X016986Y030212D02*
X016892Y030305D01*
X016892Y030492D01*
X016986Y030585D01*
X017079Y030585D01*
X017173Y030492D01*
X017173Y030399D01*
X017173Y030492D02*
X017266Y030585D01*
X017359Y030585D01*
X017453Y030492D01*
X017453Y030305D01*
X017359Y030212D01*
X017453Y030856D02*
X017079Y030856D01*
X016892Y031043D01*
X017079Y031230D01*
X017453Y031230D01*
X017453Y032145D02*
X016892Y032145D01*
X016892Y032426D01*
X016986Y032519D01*
X017079Y032519D01*
X017173Y032426D01*
X017173Y032145D01*
X017453Y032145D02*
X017453Y032426D01*
X017359Y032519D01*
X017266Y032519D01*
X017173Y032426D01*
X016986Y032790D02*
X017079Y032883D01*
X017079Y033164D01*
X017173Y033164D02*
X016892Y033164D01*
X016892Y032883D01*
X016986Y032790D01*
X017266Y032883D02*
X017266Y033070D01*
X017173Y033164D01*
X017266Y033435D02*
X017266Y033621D01*
X017359Y033528D02*
X016986Y033528D01*
X016892Y033621D01*
X016986Y033958D02*
X016892Y034051D01*
X016986Y033958D02*
X017359Y033958D01*
X017266Y034051D02*
X017266Y033864D01*
X017173Y034294D02*
X017266Y034387D01*
X017266Y034574D01*
X017173Y034668D01*
X017079Y034668D01*
X017079Y034294D01*
X016986Y034294D02*
X017173Y034294D01*
X016986Y034294D02*
X016892Y034387D01*
X016892Y034574D01*
X016892Y034939D02*
X017266Y034939D01*
X017266Y035125D02*
X017266Y035219D01*
X017266Y035125D02*
X017079Y034939D01*
X016986Y035476D02*
X016892Y035569D01*
X016892Y035849D01*
X016799Y035849D02*
X016706Y035756D01*
X016706Y035662D01*
X016799Y035849D02*
X017266Y035849D01*
X017266Y035476D02*
X016986Y035476D01*
D12*
X032611Y020163D02*
X039111Y020163D01*
X039171Y020161D01*
X039232Y020156D01*
X039291Y020147D01*
X039350Y020134D01*
X039409Y020118D01*
X039466Y020098D01*
X039521Y020075D01*
X039576Y020048D01*
X039628Y020019D01*
X039679Y019986D01*
X039728Y019950D01*
X039774Y019912D01*
X039818Y019870D01*
X039860Y019826D01*
X039898Y019780D01*
X039934Y019731D01*
X039967Y019680D01*
X039996Y019628D01*
X040023Y019573D01*
X040046Y019518D01*
X040066Y019461D01*
X040082Y019402D01*
X040095Y019343D01*
X040104Y019284D01*
X040109Y019223D01*
X040111Y019163D01*
X040111Y001663D01*
X040109Y001603D01*
X040104Y001542D01*
X040095Y001483D01*
X040082Y001424D01*
X040066Y001365D01*
X040046Y001308D01*
X040023Y001253D01*
X039996Y001198D01*
X039967Y001146D01*
X039934Y001095D01*
X039898Y001046D01*
X039860Y001000D01*
X039818Y000956D01*
X039774Y000914D01*
X039728Y000876D01*
X039679Y000840D01*
X039628Y000807D01*
X039576Y000778D01*
X039521Y000751D01*
X039466Y000728D01*
X039409Y000708D01*
X039350Y000692D01*
X039291Y000679D01*
X039232Y000670D01*
X039171Y000665D01*
X039111Y000663D01*
X032611Y000663D01*
X032551Y000665D01*
X032490Y000670D01*
X032431Y000679D01*
X032372Y000692D01*
X032313Y000708D01*
X032256Y000728D01*
X032201Y000751D01*
X032146Y000778D01*
X032094Y000807D01*
X032043Y000840D01*
X031994Y000876D01*
X031948Y000914D01*
X031904Y000956D01*
X031862Y001000D01*
X031824Y001046D01*
X031788Y001095D01*
X031755Y001146D01*
X031726Y001198D01*
X031699Y001253D01*
X031676Y001308D01*
X031656Y001365D01*
X031640Y001424D01*
X031627Y001483D01*
X031618Y001542D01*
X031613Y001603D01*
X031611Y001663D01*
X031611Y019163D01*
X031613Y019223D01*
X031618Y019284D01*
X031627Y019343D01*
X031640Y019402D01*
X031656Y019461D01*
X031676Y019518D01*
X031699Y019573D01*
X031726Y019628D01*
X031755Y019680D01*
X031788Y019731D01*
X031824Y019780D01*
X031862Y019826D01*
X031904Y019870D01*
X031948Y019912D01*
X031994Y019950D01*
X032043Y019986D01*
X032094Y020019D01*
X032146Y020048D01*
X032201Y020075D01*
X032256Y020098D01*
X032313Y020118D01*
X032372Y020134D01*
X032431Y020147D01*
X032490Y020156D01*
X032551Y020161D01*
X032611Y020163D01*
X000234Y019152D02*
X000234Y001652D01*
D13*
X014791Y008307D02*
X014972Y008127D01*
X014972Y008081D01*
X015086Y008127D02*
X015131Y008081D01*
X015221Y008081D01*
X015266Y008127D01*
X015381Y008081D02*
X015471Y008172D01*
X015426Y008172D02*
X015561Y008172D01*
X015561Y008081D02*
X015561Y008352D01*
X015426Y008352D01*
X015381Y008307D01*
X015381Y008217D01*
X015426Y008172D01*
X015266Y008307D02*
X015221Y008352D01*
X015131Y008352D01*
X015086Y008307D01*
X015086Y008262D01*
X015131Y008217D01*
X015086Y008172D01*
X015086Y008127D01*
X015131Y008217D02*
X015176Y008217D01*
X014972Y008352D02*
X014791Y008352D01*
X014791Y008307D01*
X018817Y007014D02*
X018997Y007014D01*
X018997Y006879D01*
X018907Y006924D01*
X018862Y006924D01*
X018817Y006879D01*
X018817Y006789D01*
X018862Y006744D01*
X018952Y006744D01*
X018997Y006789D01*
X019111Y006744D02*
X019291Y006744D01*
X019111Y006924D01*
X019111Y006969D01*
X019156Y007014D01*
X019246Y007014D01*
X019291Y006969D01*
X019406Y006969D02*
X019406Y006879D01*
X019451Y006834D01*
X019586Y006834D01*
X019586Y006744D02*
X019586Y007014D01*
X019451Y007014D01*
X019406Y006969D01*
X019496Y006834D02*
X019406Y006744D01*
X019450Y006102D02*
X019405Y006057D01*
X019405Y005967D01*
X019450Y005922D01*
X019585Y005922D01*
X019495Y005922D02*
X019405Y005832D01*
X019290Y005832D02*
X019110Y006012D01*
X019110Y006057D01*
X019155Y006102D01*
X019245Y006102D01*
X019290Y006057D01*
X019450Y006102D02*
X019585Y006102D01*
X019585Y005832D01*
X019290Y005832D02*
X019110Y005832D01*
X018996Y005877D02*
X018951Y005832D01*
X018861Y005832D01*
X018816Y005877D01*
X018816Y005922D01*
X018861Y005967D01*
X018996Y005967D01*
X018996Y005877D01*
X018996Y005967D02*
X018906Y006057D01*
X018816Y006102D01*
X018793Y005163D02*
X018973Y005163D01*
X018973Y005027D01*
X018883Y005072D01*
X018838Y005072D01*
X018793Y005027D01*
X018793Y004937D01*
X018838Y004892D01*
X018928Y004892D01*
X018973Y004937D01*
X019088Y004937D02*
X019133Y004892D01*
X019223Y004892D01*
X019268Y004937D01*
X019383Y004892D02*
X019473Y004982D01*
X019428Y004982D02*
X019563Y004982D01*
X019563Y004892D02*
X019563Y005163D01*
X019428Y005163D01*
X019383Y005117D01*
X019383Y005027D01*
X019428Y004982D01*
X019268Y005117D02*
X019223Y005163D01*
X019133Y005163D01*
X019088Y005117D01*
X019088Y005072D01*
X019133Y005027D01*
X019088Y004982D01*
X019088Y004937D01*
X019133Y005027D02*
X019178Y005027D01*
X019147Y004238D02*
X019102Y004193D01*
X019102Y004148D01*
X019147Y004103D01*
X019102Y004058D01*
X019102Y004013D01*
X019147Y003968D01*
X019237Y003968D01*
X019282Y004013D01*
X019397Y003968D02*
X019487Y004058D01*
X019442Y004058D02*
X019577Y004058D01*
X019577Y003968D02*
X019577Y004238D01*
X019442Y004238D01*
X019397Y004193D01*
X019397Y004103D01*
X019442Y004058D01*
X019282Y004193D02*
X019237Y004238D01*
X019147Y004238D01*
X019147Y004103D02*
X019192Y004103D01*
X018987Y004103D02*
X018852Y004103D01*
X018807Y004058D01*
X018807Y004013D01*
X018852Y003968D01*
X018942Y003968D01*
X018987Y004013D01*
X018987Y004103D01*
X018897Y004193D01*
X018807Y004238D01*
X022426Y023898D02*
X022426Y024085D01*
X022330Y024085D01*
X022426Y024085D02*
X022426Y024273D01*
X022676Y024085D01*
X022772Y024085D01*
X022676Y024085D02*
X022676Y024273D01*
X022676Y024085D02*
X022676Y023898D01*
X022676Y024085D02*
X022426Y023898D01*
X022443Y025490D02*
X022443Y025677D01*
X022347Y025677D01*
X022443Y025677D02*
X022443Y025865D01*
X022693Y025677D01*
X022789Y025677D01*
X022693Y025677D02*
X022693Y025865D01*
X022693Y025677D02*
X022693Y025490D01*
X022693Y025677D02*
X022443Y025490D01*
X044278Y025535D02*
X044323Y025535D01*
X044503Y025716D01*
X044548Y025716D01*
X044548Y025535D01*
X044503Y025421D02*
X044413Y025421D01*
X044368Y025376D01*
X044368Y025241D01*
X044368Y025331D02*
X044278Y025421D01*
X044278Y025241D02*
X044548Y025241D01*
X044548Y025376D01*
X044503Y025421D01*
X045249Y025423D02*
X045339Y025333D01*
X045339Y025378D02*
X045339Y025243D01*
X045249Y025243D02*
X045519Y025243D01*
X045519Y025378D01*
X045474Y025423D01*
X045384Y025423D01*
X045339Y025378D01*
X045339Y025537D02*
X045384Y025582D01*
X045384Y025672D01*
X045339Y025717D01*
X045294Y025717D01*
X045249Y025672D01*
X045249Y025582D01*
X045294Y025537D01*
X045339Y025537D01*
X045384Y025582D02*
X045429Y025537D01*
X045474Y025537D01*
X045519Y025582D01*
X045519Y025672D01*
X045474Y025717D01*
X045429Y025717D01*
X045384Y025672D01*
X046362Y026373D02*
X046407Y026328D01*
X046587Y026328D01*
X046632Y026373D01*
X046632Y026463D01*
X046587Y026508D01*
X046587Y026622D02*
X046542Y026622D01*
X046497Y026667D01*
X046497Y026758D01*
X046452Y026803D01*
X046407Y026803D01*
X046362Y026758D01*
X046362Y026667D01*
X046407Y026622D01*
X046452Y026622D01*
X046497Y026667D01*
X046497Y026758D02*
X046542Y026803D01*
X046587Y026803D01*
X046632Y026758D01*
X046632Y026667D01*
X046587Y026622D01*
X046407Y026508D02*
X046362Y026463D01*
X046362Y026373D01*
X052634Y026716D02*
X052634Y026806D01*
X052679Y026851D01*
X052679Y026966D02*
X052634Y027011D01*
X052634Y027101D01*
X052679Y027146D01*
X052859Y027146D01*
X052904Y027101D01*
X052904Y027011D01*
X052859Y026966D01*
X052814Y026966D01*
X052769Y027011D01*
X052769Y027146D01*
X052859Y026851D02*
X052904Y026806D01*
X052904Y026716D01*
X052859Y026671D01*
X052679Y026671D01*
X052634Y026716D01*
X047841Y035804D02*
X047841Y035939D01*
X047796Y035984D01*
X047706Y035984D01*
X047661Y035939D01*
X047661Y035804D01*
X047661Y035894D02*
X047571Y035984D01*
X047571Y036098D02*
X047571Y036278D01*
X047571Y036188D02*
X047841Y036188D01*
X047751Y036098D01*
X047706Y036393D02*
X047706Y036528D01*
X047661Y036573D01*
X047616Y036573D01*
X047571Y036528D01*
X047571Y036438D01*
X047616Y036393D01*
X047706Y036393D01*
X047796Y036483D01*
X047841Y036573D01*
X047841Y035804D02*
X047571Y035804D01*
X049414Y038701D02*
X049504Y038701D01*
X049549Y038746D01*
X049549Y038791D01*
X049504Y038836D01*
X049414Y038836D01*
X049369Y038791D01*
X049369Y038746D01*
X049414Y038701D01*
X049414Y038836D02*
X049369Y038882D01*
X049369Y038927D01*
X049414Y038972D01*
X049504Y038972D01*
X049549Y038927D01*
X049549Y038882D01*
X049504Y038836D01*
X049663Y038791D02*
X049708Y038836D01*
X049798Y038836D01*
X049843Y038882D01*
X049843Y038927D01*
X049798Y038972D01*
X049708Y038972D01*
X049663Y038927D01*
X049753Y039017D02*
X049753Y038656D01*
X049708Y038701D02*
X049663Y038746D01*
X049663Y038791D01*
X049708Y038701D02*
X049798Y038701D01*
X049843Y038746D01*
X049958Y038746D02*
X049958Y038972D01*
X050138Y038972D02*
X050138Y038746D01*
X050093Y038701D01*
X050003Y038701D01*
X049958Y038746D01*
X049827Y041084D02*
X049827Y041444D01*
X049782Y041399D02*
X049737Y041354D01*
X049782Y041399D02*
X049872Y041399D01*
X049917Y041354D01*
X049917Y041309D01*
X049872Y041264D01*
X049782Y041264D01*
X049737Y041219D01*
X049737Y041174D01*
X049782Y041129D01*
X049872Y041129D01*
X049917Y041174D01*
X050032Y041174D02*
X050032Y041399D01*
X050212Y041399D02*
X050212Y041174D01*
X050167Y041129D01*
X050077Y041129D01*
X050032Y041174D01*
X049623Y041174D02*
X049623Y041129D01*
X049623Y041174D02*
X049443Y041354D01*
X049443Y041399D01*
X049623Y041399D01*
X054769Y036913D02*
X054769Y036613D01*
X054769Y036763D02*
X055219Y036763D01*
X055069Y036613D01*
X055144Y036453D02*
X055219Y036378D01*
X055219Y036228D01*
X055144Y036153D01*
X055069Y036153D01*
X054994Y036228D01*
X054994Y036378D01*
X054919Y036453D01*
X054844Y036453D01*
X054769Y036378D01*
X054769Y036228D01*
X054844Y036153D01*
X061474Y038318D02*
X061654Y038318D01*
X061519Y038453D01*
X061519Y038183D01*
X061576Y038169D02*
X061621Y038124D01*
X061711Y038124D01*
X061756Y038169D01*
X061813Y038183D02*
X061768Y038228D01*
X061768Y038273D01*
X061813Y038318D01*
X061903Y038318D01*
X061948Y038363D01*
X061948Y038408D01*
X061903Y038453D01*
X061813Y038453D01*
X061768Y038408D01*
X061756Y038394D02*
X061756Y038259D01*
X061666Y038304D01*
X061621Y038304D01*
X061576Y038259D01*
X061576Y038169D01*
X061576Y038394D02*
X061756Y038394D01*
X061871Y038349D02*
X061916Y038394D01*
X062006Y038394D01*
X062051Y038349D01*
X062051Y038304D01*
X062006Y038259D01*
X061916Y038259D01*
X061871Y038214D01*
X061871Y038169D01*
X061916Y038124D01*
X062006Y038124D01*
X062051Y038169D01*
X062108Y038183D02*
X062063Y038228D01*
X062063Y038453D01*
X061961Y038439D02*
X061961Y038079D01*
X061858Y038138D02*
X061858Y038498D01*
X061948Y038228D02*
X061903Y038183D01*
X061813Y038183D01*
X062108Y038183D02*
X062198Y038183D01*
X062243Y038228D01*
X062243Y038453D01*
X062166Y038394D02*
X062166Y038169D01*
X062211Y038124D01*
X062301Y038124D01*
X062346Y038169D01*
X062346Y038394D01*
X061985Y040583D02*
X061985Y040943D01*
X061941Y040908D02*
X061896Y040953D01*
X061806Y040953D01*
X061761Y040908D01*
X061736Y040898D02*
X061781Y040853D01*
X061781Y040808D01*
X061736Y040763D01*
X061601Y040763D01*
X061646Y040728D02*
X061601Y040683D01*
X061511Y040683D01*
X061466Y040728D01*
X061466Y040773D01*
X061511Y040818D01*
X061646Y040818D01*
X061646Y040728D01*
X061601Y040673D02*
X061601Y040853D01*
X061646Y040898D01*
X061736Y040898D01*
X061806Y040818D02*
X061896Y040818D01*
X061941Y040863D01*
X061941Y040908D01*
X061940Y040898D02*
X061895Y040853D01*
X061940Y040898D02*
X062030Y040898D01*
X062075Y040853D01*
X062075Y040808D01*
X062030Y040763D01*
X061940Y040763D01*
X061895Y040718D01*
X061895Y040673D01*
X061940Y040628D01*
X062030Y040628D01*
X062075Y040673D01*
X062100Y040683D02*
X062055Y040728D01*
X062055Y040953D01*
X062190Y040898D02*
X062190Y040673D01*
X062235Y040628D01*
X062325Y040628D01*
X062370Y040673D01*
X062370Y040898D01*
X062235Y040953D02*
X062235Y040728D01*
X062190Y040683D01*
X062100Y040683D01*
X061941Y040728D02*
X061896Y040683D01*
X061806Y040683D01*
X061761Y040728D01*
X061761Y040773D01*
X061806Y040818D01*
X061781Y040673D02*
X061736Y040628D01*
X061646Y040628D01*
X061601Y040673D01*
X061646Y040818D02*
X061556Y040908D01*
X061466Y040953D01*
X061851Y040998D02*
X061851Y040638D01*
X055438Y008363D02*
X055303Y008363D01*
X055258Y008318D01*
X055258Y008227D01*
X055303Y008182D01*
X055438Y008182D01*
X055438Y008092D02*
X055438Y008363D01*
X055348Y008182D02*
X055258Y008092D01*
X055143Y008092D02*
X054963Y008273D01*
X054963Y008318D01*
X055008Y008363D01*
X055098Y008363D01*
X055143Y008318D01*
X055143Y008092D02*
X054963Y008092D01*
X054849Y008227D02*
X054669Y008227D01*
X054714Y008092D02*
X054714Y008363D01*
X054849Y008227D01*
X058694Y006980D02*
X058694Y006800D01*
X058739Y006755D01*
X058829Y006755D01*
X058874Y006800D01*
X058829Y006890D02*
X058874Y006935D01*
X058874Y006980D01*
X058829Y007025D01*
X058739Y007025D01*
X058694Y006980D01*
X058694Y006890D02*
X058829Y006890D01*
X058988Y006890D02*
X058988Y006980D01*
X059033Y007025D01*
X059168Y007025D01*
X059168Y006755D01*
X059168Y006845D02*
X059033Y006845D01*
X058988Y006890D01*
X059078Y006845D02*
X058988Y006755D01*
X059032Y006113D02*
X059122Y006113D01*
X059167Y006068D01*
X059282Y006068D02*
X059282Y005978D01*
X059327Y005933D01*
X059462Y005933D01*
X059372Y005933D02*
X059282Y005843D01*
X059167Y005843D02*
X058987Y006023D01*
X058987Y006068D01*
X059032Y006113D01*
X058873Y006023D02*
X058783Y006113D01*
X058783Y005843D01*
X058873Y005843D02*
X058693Y005843D01*
X058987Y005843D02*
X059167Y005843D01*
X059282Y006068D02*
X059327Y006113D01*
X059462Y006113D01*
X059462Y005843D01*
X059440Y005173D02*
X059305Y005173D01*
X059260Y005128D01*
X059260Y005038D01*
X059305Y004993D01*
X059440Y004993D01*
X059440Y004903D02*
X059440Y005173D01*
X059350Y004993D02*
X059260Y004903D01*
X059145Y004903D02*
X058965Y005083D01*
X058965Y005128D01*
X059010Y005173D01*
X059100Y005173D01*
X059145Y005128D01*
X059145Y004903D02*
X058965Y004903D01*
X058850Y004903D02*
X058670Y005083D01*
X058670Y005128D01*
X058715Y005173D01*
X058805Y005173D01*
X058850Y005128D01*
X058850Y004903D02*
X058670Y004903D01*
X058729Y004249D02*
X058684Y004204D01*
X058684Y004159D01*
X058729Y004114D01*
X058684Y004068D01*
X058684Y004023D01*
X058729Y003978D01*
X058820Y003978D01*
X058865Y004023D01*
X058979Y003978D02*
X059159Y003978D01*
X058979Y004159D01*
X058979Y004204D01*
X059024Y004249D01*
X059114Y004249D01*
X059159Y004204D01*
X059274Y004204D02*
X059274Y004114D01*
X059319Y004068D01*
X059454Y004068D01*
X059454Y003978D02*
X059454Y004249D01*
X059319Y004249D01*
X059274Y004204D01*
X059364Y004068D02*
X059274Y003978D01*
X058865Y004204D02*
X058820Y004249D01*
X058729Y004249D01*
X058729Y004114D02*
X058774Y004114D01*
D14*
X060372Y000978D02*
X060445Y000978D01*
X060482Y000942D01*
X060556Y000942D02*
X060593Y000978D01*
X060666Y000978D01*
X060703Y000942D01*
X060703Y000905D01*
X060666Y000868D01*
X060593Y000868D01*
X060556Y000832D01*
X060556Y000795D01*
X060593Y000758D01*
X060666Y000758D01*
X060703Y000795D01*
X060482Y000758D02*
X060335Y000905D01*
X060335Y000942D01*
X060372Y000978D01*
X060335Y000758D02*
X060482Y000758D01*
X020826Y000784D02*
X020789Y000747D01*
X020716Y000747D01*
X020679Y000784D01*
X020679Y000821D01*
X020716Y000857D01*
X020789Y000857D01*
X020826Y000894D01*
X020826Y000931D01*
X020789Y000968D01*
X020716Y000968D01*
X020679Y000931D01*
X020605Y000857D02*
X020495Y000968D01*
X020495Y000747D01*
X020458Y000857D02*
X020605Y000857D01*
X048216Y025835D02*
X050916Y025835D01*
X050916Y026135D02*
X048216Y026135D01*
X048178Y026136D01*
X048141Y026141D01*
X048104Y026148D01*
X048068Y026157D01*
X048032Y026170D01*
X047998Y026185D01*
X047555Y027085D02*
X047587Y027130D01*
X047623Y027172D01*
X047662Y027212D01*
X047704Y027249D01*
X047747Y027283D01*
X047794Y027314D01*
X047842Y027342D01*
X047892Y027366D01*
X047943Y027387D01*
X047996Y027404D01*
X048050Y027418D01*
X048105Y027427D01*
X048160Y027433D01*
X048216Y027435D01*
X050916Y027435D01*
X050916Y027135D02*
X048216Y027135D01*
X047555Y026185D02*
X047587Y026140D01*
X047623Y026098D01*
X047662Y026058D01*
X047703Y026021D01*
X047747Y025987D01*
X047794Y025956D01*
X047842Y025928D01*
X047892Y025904D01*
X047943Y025883D01*
X047996Y025866D01*
X048050Y025852D01*
X048105Y025843D01*
X048160Y025837D01*
X048216Y025835D01*
X047998Y027085D02*
X048032Y027100D01*
X048068Y027113D01*
X048104Y027122D01*
X048141Y027129D01*
X048178Y027134D01*
X048216Y027135D01*
X049166Y026635D02*
X049316Y026635D01*
X049816Y026635D02*
X049966Y026635D01*
X050916Y027435D02*
X050972Y027433D01*
X051027Y027427D01*
X051082Y027418D01*
X051136Y027404D01*
X051189Y027387D01*
X051240Y027366D01*
X051290Y027342D01*
X051338Y027314D01*
X051385Y027283D01*
X051429Y027249D01*
X051470Y027212D01*
X051509Y027172D01*
X051545Y027130D01*
X051577Y027085D01*
X051577Y026185D02*
X051545Y026140D01*
X051509Y026098D01*
X051470Y026058D01*
X051428Y026021D01*
X051385Y025987D01*
X051338Y025956D01*
X051290Y025928D01*
X051240Y025904D01*
X051189Y025883D01*
X051136Y025866D01*
X051082Y025852D01*
X051027Y025843D01*
X050972Y025837D01*
X050916Y025835D01*
X050916Y026135D02*
X050954Y026136D01*
X050991Y026141D01*
X051028Y026148D01*
X051064Y026157D01*
X051100Y026170D01*
X051134Y026185D01*
X051134Y027085D02*
X051100Y027100D01*
X051064Y027113D01*
X051028Y027122D01*
X050991Y027129D01*
X050954Y027134D01*
X050916Y027135D01*
D15*
X049816Y026885D02*
X049816Y026635D01*
X049816Y026385D01*
X049666Y026385D02*
X049466Y026385D01*
X049466Y026885D01*
X049666Y026885D01*
X049666Y026385D01*
X049316Y026385D02*
X049316Y026635D01*
X049316Y026885D01*
X047416Y027585D02*
X047399Y027583D01*
X047382Y027579D01*
X047366Y027572D01*
X047352Y027562D01*
X047339Y027549D01*
X047329Y027535D01*
X047322Y027519D01*
X047318Y027502D01*
X047316Y027485D01*
X047316Y027085D01*
X047416Y027585D02*
X051716Y027585D01*
X051733Y027583D01*
X051750Y027579D01*
X051766Y027572D01*
X051780Y027562D01*
X051793Y027549D01*
X051803Y027535D01*
X051810Y027519D01*
X051814Y027502D01*
X051816Y027485D01*
X051816Y027085D01*
X051816Y026185D02*
X051816Y025785D01*
X051814Y025768D01*
X051810Y025751D01*
X051803Y025735D01*
X051793Y025721D01*
X051780Y025708D01*
X051766Y025698D01*
X051750Y025691D01*
X051733Y025687D01*
X051716Y025685D01*
X047416Y025685D01*
X047399Y025687D01*
X047382Y025691D01*
X047366Y025698D01*
X047352Y025708D01*
X047339Y025721D01*
X047329Y025735D01*
X047322Y025751D01*
X047318Y025768D01*
X047316Y025785D01*
X047316Y026185D01*
X041646Y026357D02*
X040227Y026357D01*
X040227Y024497D02*
X041646Y024497D01*
X034768Y023853D02*
X034594Y023853D01*
X034681Y023853D02*
X034681Y023592D01*
X034594Y023679D01*
X034473Y023636D02*
X034473Y023592D01*
X034473Y023636D02*
X034386Y023723D01*
X034386Y023853D01*
X034386Y023723D02*
X034300Y023636D01*
X034300Y023592D01*
X023221Y024565D02*
X023091Y024565D01*
X023047Y024609D01*
X023047Y024782D01*
X023091Y024825D01*
X023221Y024825D01*
X023221Y024565D01*
X022926Y024565D02*
X022753Y024739D01*
X022753Y024782D01*
X022796Y024825D01*
X022883Y024825D01*
X022926Y024782D01*
X022926Y024565D02*
X022753Y024565D01*
X022813Y026157D02*
X022900Y026157D01*
X022944Y026200D01*
X023065Y026200D02*
X023065Y026374D01*
X023108Y026417D01*
X023238Y026417D01*
X023238Y026157D01*
X023108Y026157D01*
X023065Y026200D01*
X022944Y026374D02*
X022900Y026417D01*
X022813Y026417D01*
X022770Y026374D01*
X022770Y026331D01*
X022813Y026287D01*
X022770Y026244D01*
X022770Y026200D01*
X022813Y026157D01*
X022813Y026287D02*
X022857Y026287D01*
X022936Y032807D02*
X023109Y032807D01*
X023023Y032807D02*
X023023Y033067D01*
X022936Y032980D01*
X022815Y032980D02*
X022771Y032937D01*
X022641Y032937D01*
X022641Y032807D02*
X022641Y033067D01*
X022771Y033067D01*
X022815Y033024D01*
X022815Y032980D01*
X022771Y032937D02*
X022815Y032894D01*
X022815Y032850D01*
X022771Y032807D01*
X022641Y032807D01*
X056234Y028798D02*
X056234Y037298D01*
X058754Y037298D01*
X058754Y028798D01*
X056234Y028798D01*
X056694Y029248D02*
X058294Y029248D01*
X058294Y029848D01*
X056694Y029848D01*
X056694Y029248D01*
X056694Y030248D02*
X058294Y030248D01*
X058294Y030848D01*
X056694Y030848D01*
X056694Y030248D01*
X056694Y031248D02*
X058294Y031248D01*
X058294Y031848D01*
X056694Y031848D01*
X056694Y031248D01*
X056694Y032248D02*
X058294Y032248D01*
X058294Y032848D01*
X056694Y032848D01*
X056694Y032248D01*
X056694Y033248D02*
X058294Y033248D01*
X058294Y033848D01*
X056694Y033848D01*
X056694Y033248D01*
X056694Y034248D02*
X058294Y034248D01*
X058294Y034848D01*
X056694Y034848D01*
X056694Y034248D01*
X056694Y035248D02*
X058294Y035248D01*
X058294Y035848D01*
X056694Y035848D01*
X056694Y035248D01*
X056694Y036248D02*
X058294Y036248D01*
X058294Y036848D01*
X056694Y036848D01*
X056694Y036248D01*
D16*
X057609Y036245D02*
X057609Y036492D01*
X057609Y036369D02*
X057979Y036369D01*
X057856Y036245D01*
X050253Y027333D02*
X050156Y027333D01*
X050108Y027285D01*
X050108Y027091D01*
X050156Y027043D01*
X050253Y027043D01*
X050301Y027091D01*
X050301Y027285D01*
X050253Y027333D01*
X050205Y027140D02*
X050108Y027043D01*
X050007Y027043D02*
X049813Y027043D01*
X049910Y027043D02*
X049910Y027333D01*
X050007Y027237D01*
D17*
X041429Y031933D02*
X041114Y031933D01*
X041114Y032169D01*
X041114Y032799D02*
X041114Y033035D01*
X041429Y033035D01*
X034365Y033141D02*
X034050Y033141D01*
X034050Y032904D01*
X034050Y032274D02*
X034050Y032038D01*
X034365Y032038D01*
X028293Y032011D02*
X027978Y032011D01*
X027978Y032248D01*
X027978Y032877D02*
X027978Y033114D01*
X028293Y033114D01*
X029548Y026552D02*
X029863Y026552D01*
X029548Y026552D02*
X029548Y026315D01*
X029548Y025685D02*
X029548Y025449D01*
X029863Y025449D01*
X034014Y026064D02*
X034014Y024095D01*
X038541Y024095D01*
X038541Y026064D01*
X034014Y026064D01*
X040490Y024717D02*
X040492Y024732D01*
X040498Y024745D01*
X040507Y024757D01*
X040518Y024766D01*
X040532Y024772D01*
X040547Y024774D01*
X040562Y024772D01*
X040575Y024766D01*
X040587Y024757D01*
X040596Y024746D01*
X040602Y024732D01*
X040604Y024717D01*
X040602Y024702D01*
X040596Y024689D01*
X040587Y024677D01*
X040576Y024668D01*
X040562Y024662D01*
X040547Y024660D01*
X040532Y024662D01*
X040519Y024668D01*
X040507Y024677D01*
X040498Y024688D01*
X040492Y024702D01*
X040490Y024717D01*
X026963Y018921D02*
X026744Y018921D01*
X026963Y018921D02*
X026963Y016381D01*
X026744Y016381D01*
X026518Y016864D02*
X026518Y018438D01*
X025927Y018438D02*
X025927Y016864D01*
X025518Y016864D02*
X025518Y018438D01*
X025691Y018921D02*
X025744Y018921D01*
X024927Y018438D02*
X024927Y016864D01*
X024518Y016864D02*
X024518Y018438D01*
X024691Y018921D02*
X024744Y018921D01*
X023927Y018438D02*
X023927Y016864D01*
X023518Y016864D02*
X023518Y018438D01*
X023691Y018921D02*
X023744Y018921D01*
X022927Y018438D02*
X022927Y016864D01*
X022518Y016864D02*
X022518Y018438D01*
X022691Y018921D02*
X022744Y018921D01*
X021927Y018438D02*
X021927Y016864D01*
X021518Y016864D02*
X021518Y018438D01*
X021691Y018921D02*
X021744Y018921D01*
X020927Y018438D02*
X020927Y016864D01*
X020518Y016864D02*
X020518Y018438D01*
X020691Y018921D02*
X020744Y018921D01*
X019927Y018438D02*
X019927Y016864D01*
X019518Y016864D02*
X019518Y018438D01*
X019691Y018921D02*
X019744Y018921D01*
X018965Y018921D02*
X018482Y018438D01*
X018927Y018438D02*
X018927Y016864D01*
X018691Y016381D02*
X018472Y016381D01*
X018472Y018921D01*
X018965Y018921D01*
X018691Y018921D01*
X019701Y016381D02*
X019754Y016381D01*
X020701Y016381D02*
X020754Y016381D01*
X021701Y016381D02*
X021754Y016381D01*
X022701Y016381D02*
X022754Y016381D01*
X023701Y016381D02*
X023754Y016381D01*
X024701Y016381D02*
X024754Y016381D01*
X025701Y016381D02*
X025754Y016381D01*
X041504Y012889D02*
X041602Y012741D01*
X041693Y012588D01*
X041777Y012431D01*
X041853Y012270D01*
X041920Y012106D01*
X041980Y011938D01*
X042031Y011768D01*
X042074Y011596D01*
X042109Y011421D01*
X042135Y011245D01*
X042152Y011068D01*
X042161Y010891D01*
X042161Y010713D01*
X042152Y010536D01*
X042135Y010359D01*
X042109Y010183D01*
X042074Y010008D01*
X042031Y009836D01*
X041980Y009666D01*
X041920Y009498D01*
X041853Y009334D01*
X041777Y009173D01*
X041693Y009016D01*
X041602Y008863D01*
X041504Y008715D01*
X041503Y008716D02*
X041455Y008669D01*
X041409Y008620D01*
X041367Y008568D01*
X041327Y008513D01*
X041291Y008457D01*
X041258Y008399D01*
X041228Y008338D01*
X041202Y008277D01*
X041179Y008213D01*
X041160Y008149D01*
X041145Y008084D01*
X041133Y008018D01*
X041126Y007951D01*
X041122Y007884D01*
X041121Y007817D01*
X041125Y007750D01*
X041132Y007683D01*
X041144Y007617D01*
X041159Y007552D01*
X041177Y007487D01*
X041200Y007424D01*
X041225Y007362D01*
X041255Y007301D01*
X041288Y007243D01*
X041324Y007186D01*
X041363Y007132D01*
X041405Y007080D01*
X041450Y007030D01*
X041498Y006983D01*
X041548Y006939D01*
X041601Y006897D01*
X041656Y006859D01*
X041714Y006824D01*
X041773Y006792D01*
X041834Y006764D01*
X041896Y006739D01*
X041960Y006718D01*
X042025Y006701D01*
X042090Y006687D01*
X042157Y006677D01*
X042223Y006670D01*
X042290Y006668D01*
X042291Y006669D02*
X043433Y006669D01*
X046110Y006669D02*
X046543Y006669D01*
X048933Y009346D01*
X048933Y012259D01*
X046543Y014936D01*
X046110Y014936D01*
X043433Y014936D02*
X042291Y014936D01*
X042224Y014935D01*
X042156Y014930D01*
X042089Y014921D01*
X042022Y014909D01*
X041957Y014892D01*
X041892Y014872D01*
X041829Y014848D01*
X041767Y014820D01*
X041707Y014789D01*
X041648Y014754D01*
X041592Y014716D01*
X041538Y014675D01*
X041487Y014631D01*
X041438Y014584D01*
X041392Y014534D01*
X041349Y014482D01*
X041310Y014427D01*
X041273Y014370D01*
X041240Y014311D01*
X041210Y014250D01*
X041184Y014187D01*
X041161Y014123D01*
X041143Y014058D01*
X041128Y013992D01*
X041117Y013925D01*
X041109Y013858D01*
X041106Y013790D01*
X041107Y013722D01*
X041111Y013655D01*
X041120Y013588D01*
X041132Y013521D01*
X041149Y013455D01*
X041169Y013390D01*
X041192Y013327D01*
X041220Y013265D01*
X041251Y013205D01*
X041285Y013146D01*
X041323Y013090D01*
X041364Y013036D01*
X041408Y012984D01*
X041455Y012936D01*
X041504Y012889D01*
X058349Y016392D02*
X058349Y018932D01*
X058842Y018932D01*
X058359Y018449D01*
X058804Y018449D02*
X058804Y016874D01*
X059395Y016874D02*
X059395Y018449D01*
X059804Y018449D02*
X059804Y016874D01*
X060395Y016874D02*
X060395Y018449D01*
X060804Y018449D02*
X060804Y016874D01*
X061395Y016874D02*
X061395Y018449D01*
X061804Y018449D02*
X061804Y016874D01*
X062395Y016874D02*
X062395Y018449D01*
X062804Y018449D02*
X062804Y016874D01*
X063395Y016874D02*
X063395Y018449D01*
X063804Y018449D02*
X063804Y016874D01*
X064395Y016874D02*
X064395Y018449D01*
X064804Y018449D02*
X064804Y016874D01*
X065395Y016874D02*
X065395Y018449D01*
X065804Y018449D02*
X065804Y016874D01*
X066395Y016874D02*
X066395Y018449D01*
X066621Y018932D02*
X066840Y018932D01*
X066840Y016392D01*
X066621Y016392D01*
X065631Y016392D02*
X065578Y016392D01*
X064631Y016392D02*
X064578Y016392D01*
X063631Y016392D02*
X063578Y016392D01*
X062631Y016392D02*
X062578Y016392D01*
X061631Y016392D02*
X061578Y016392D01*
X060631Y016392D02*
X060578Y016392D01*
X059631Y016392D02*
X059578Y016392D01*
X058568Y016392D02*
X058349Y016392D01*
X058568Y018932D02*
X058842Y018932D01*
X059568Y018932D02*
X059621Y018932D01*
X060568Y018932D02*
X060621Y018932D01*
X061568Y018932D02*
X061621Y018932D01*
X062568Y018932D02*
X062621Y018932D01*
X063568Y018932D02*
X063621Y018932D01*
X064568Y018932D02*
X064621Y018932D01*
X065568Y018932D02*
X065621Y018932D01*
X061362Y001750D02*
X060771Y001750D01*
X062090Y001356D02*
X062090Y001120D01*
X061834Y000726D02*
X059708Y000726D01*
X059452Y001120D02*
X059452Y001356D01*
X022213Y001109D02*
X022213Y001345D01*
X021484Y001739D02*
X020894Y001739D01*
X019575Y001345D02*
X019575Y001109D01*
X019831Y000716D02*
X021957Y000716D01*
X009056Y009335D02*
X006666Y006658D01*
X006233Y006658D01*
X003556Y006658D02*
X002414Y006658D01*
X002413Y006657D02*
X002346Y006659D01*
X002280Y006666D01*
X002213Y006676D01*
X002148Y006690D01*
X002083Y006707D01*
X002019Y006728D01*
X001957Y006753D01*
X001896Y006781D01*
X001837Y006813D01*
X001779Y006848D01*
X001724Y006886D01*
X001671Y006928D01*
X001621Y006972D01*
X001573Y007019D01*
X001528Y007069D01*
X001486Y007121D01*
X001447Y007175D01*
X001411Y007232D01*
X001378Y007290D01*
X001348Y007351D01*
X001323Y007413D01*
X001300Y007476D01*
X001282Y007541D01*
X001267Y007606D01*
X001255Y007672D01*
X001248Y007739D01*
X001244Y007806D01*
X001245Y007873D01*
X001249Y007940D01*
X001256Y008007D01*
X001268Y008073D01*
X001283Y008138D01*
X001302Y008202D01*
X001325Y008266D01*
X001351Y008327D01*
X001381Y008388D01*
X001414Y008446D01*
X001450Y008502D01*
X001490Y008557D01*
X001532Y008609D01*
X001578Y008658D01*
X001626Y008705D01*
X001724Y008853D01*
X001815Y009006D01*
X001899Y009163D01*
X001975Y009324D01*
X002042Y009488D01*
X002102Y009656D01*
X002153Y009826D01*
X002196Y009998D01*
X002231Y010173D01*
X002257Y010349D01*
X002274Y010526D01*
X002283Y010703D01*
X002283Y010881D01*
X002274Y011058D01*
X002257Y011235D01*
X002231Y011411D01*
X002196Y011586D01*
X002153Y011758D01*
X002102Y011928D01*
X002042Y012096D01*
X001975Y012260D01*
X001899Y012421D01*
X001815Y012578D01*
X001724Y012731D01*
X001626Y012879D01*
X001626Y012878D02*
X001577Y012925D01*
X001530Y012973D01*
X001486Y013025D01*
X001445Y013079D01*
X001407Y013135D01*
X001373Y013194D01*
X001342Y013254D01*
X001314Y013316D01*
X001291Y013379D01*
X001271Y013444D01*
X001254Y013510D01*
X001242Y013577D01*
X001233Y013644D01*
X001229Y013711D01*
X001228Y013779D01*
X001231Y013847D01*
X001239Y013914D01*
X001250Y013981D01*
X001265Y014047D01*
X001283Y014112D01*
X001306Y014176D01*
X001332Y014239D01*
X001362Y014300D01*
X001395Y014359D01*
X001432Y014416D01*
X001471Y014471D01*
X001514Y014523D01*
X001560Y014573D01*
X001609Y014620D01*
X001660Y014664D01*
X001714Y014705D01*
X001770Y014743D01*
X001829Y014778D01*
X001889Y014809D01*
X001951Y014837D01*
X002014Y014861D01*
X002079Y014881D01*
X002144Y014898D01*
X002211Y014910D01*
X002278Y014919D01*
X002346Y014924D01*
X002413Y014925D01*
X002414Y014925D02*
X003556Y014925D01*
X006233Y014925D02*
X006666Y014925D01*
X009056Y012248D01*
X009056Y009335D01*
X011907Y032727D02*
X011913Y032954D01*
X011929Y033180D01*
X011957Y033406D01*
X011996Y033629D01*
X012046Y033851D01*
X012106Y034070D01*
X012177Y034285D01*
X012259Y034497D01*
X012351Y034705D01*
X012453Y034908D01*
X012565Y035105D01*
X012687Y035297D01*
X012817Y035483D01*
X012957Y035662D01*
X013105Y035834D01*
X013262Y035998D01*
X013426Y036155D01*
X013598Y036303D01*
X013777Y036443D01*
X013963Y036573D01*
X014155Y036695D01*
X014352Y036807D01*
X014555Y036909D01*
X014763Y037001D01*
X014975Y037083D01*
X015190Y037154D01*
X015409Y037214D01*
X015631Y037264D01*
X015854Y037303D01*
X016080Y037331D01*
X016306Y037347D01*
X016533Y037353D01*
X016760Y037347D01*
X016986Y037331D01*
X017212Y037303D01*
X017435Y037264D01*
X017657Y037214D01*
X017876Y037154D01*
X018091Y037083D01*
X018303Y037001D01*
X018511Y036909D01*
X018714Y036807D01*
X018911Y036695D01*
X019103Y036573D01*
X019289Y036443D01*
X019468Y036303D01*
X019640Y036155D01*
X019804Y035998D01*
X019961Y035834D01*
X020109Y035662D01*
X020249Y035483D01*
X020379Y035297D01*
X020501Y035105D01*
X020613Y034908D01*
X020715Y034705D01*
X020807Y034497D01*
X020889Y034285D01*
X020960Y034070D01*
X021020Y033851D01*
X021070Y033629D01*
X021109Y033406D01*
X021137Y033180D01*
X021153Y032954D01*
X021159Y032727D01*
X021153Y032500D01*
X021137Y032274D01*
X021109Y032048D01*
X021070Y031825D01*
X021020Y031603D01*
X020960Y031384D01*
X020889Y031169D01*
X020807Y030957D01*
X020715Y030749D01*
X020613Y030546D01*
X020501Y030349D01*
X020379Y030157D01*
X020249Y029971D01*
X020109Y029792D01*
X019961Y029620D01*
X019804Y029456D01*
X019640Y029299D01*
X019468Y029151D01*
X019289Y029011D01*
X019103Y028881D01*
X018911Y028759D01*
X018714Y028647D01*
X018511Y028545D01*
X018303Y028453D01*
X018091Y028371D01*
X017876Y028300D01*
X017657Y028240D01*
X017435Y028190D01*
X017212Y028151D01*
X016986Y028123D01*
X016760Y028107D01*
X016533Y028101D01*
X016306Y028107D01*
X016080Y028123D01*
X015854Y028151D01*
X015631Y028190D01*
X015409Y028240D01*
X015190Y028300D01*
X014975Y028371D01*
X014763Y028453D01*
X014555Y028545D01*
X014352Y028647D01*
X014155Y028759D01*
X013963Y028881D01*
X013777Y029011D01*
X013598Y029151D01*
X013426Y029299D01*
X013262Y029456D01*
X013105Y029620D01*
X012957Y029792D01*
X012817Y029971D01*
X012687Y030157D01*
X012565Y030349D01*
X012453Y030546D01*
X012351Y030749D01*
X012259Y030957D01*
X012177Y031169D01*
X012106Y031384D01*
X012046Y031603D01*
X011996Y031825D01*
X011957Y032048D01*
X011929Y032274D01*
X011913Y032500D01*
X011907Y032727D01*
X012498Y032727D02*
X012503Y032925D01*
X012517Y033122D01*
X012542Y033319D01*
X012576Y033514D01*
X012619Y033707D01*
X012672Y033898D01*
X012734Y034086D01*
X012805Y034271D01*
X012885Y034452D01*
X012974Y034629D01*
X013072Y034801D01*
X013178Y034969D01*
X013292Y035131D01*
X013414Y035287D01*
X013543Y035437D01*
X013680Y035580D01*
X013823Y035717D01*
X013973Y035846D01*
X014129Y035968D01*
X014291Y036082D01*
X014459Y036188D01*
X014631Y036286D01*
X014808Y036375D01*
X014989Y036455D01*
X015174Y036526D01*
X015362Y036588D01*
X015553Y036641D01*
X015746Y036684D01*
X015941Y036718D01*
X016138Y036743D01*
X016335Y036757D01*
X016533Y036762D01*
X016731Y036757D01*
X016928Y036743D01*
X017125Y036718D01*
X017320Y036684D01*
X017513Y036641D01*
X017704Y036588D01*
X017892Y036526D01*
X018077Y036455D01*
X018258Y036375D01*
X018435Y036286D01*
X018607Y036188D01*
X018775Y036082D01*
X018937Y035968D01*
X019093Y035846D01*
X019243Y035717D01*
X019386Y035580D01*
X019523Y035437D01*
X019652Y035287D01*
X019774Y035131D01*
X019888Y034969D01*
X019994Y034801D01*
X020092Y034629D01*
X020181Y034452D01*
X020261Y034271D01*
X020332Y034086D01*
X020394Y033898D01*
X020447Y033707D01*
X020490Y033514D01*
X020524Y033319D01*
X020549Y033122D01*
X020563Y032925D01*
X020568Y032727D01*
X020563Y032529D01*
X020549Y032332D01*
X020524Y032135D01*
X020490Y031940D01*
X020447Y031747D01*
X020394Y031556D01*
X020332Y031368D01*
X020261Y031183D01*
X020181Y031002D01*
X020092Y030825D01*
X019994Y030653D01*
X019888Y030485D01*
X019774Y030323D01*
X019652Y030167D01*
X019523Y030017D01*
X019386Y029874D01*
X019243Y029737D01*
X019093Y029608D01*
X018937Y029486D01*
X018775Y029372D01*
X018607Y029266D01*
X018435Y029168D01*
X018258Y029079D01*
X018077Y028999D01*
X017892Y028928D01*
X017704Y028866D01*
X017513Y028813D01*
X017320Y028770D01*
X017125Y028736D01*
X016928Y028711D01*
X016731Y028697D01*
X016533Y028692D01*
X016335Y028697D01*
X016138Y028711D01*
X015941Y028736D01*
X015746Y028770D01*
X015553Y028813D01*
X015362Y028866D01*
X015174Y028928D01*
X014989Y028999D01*
X014808Y029079D01*
X014631Y029168D01*
X014459Y029266D01*
X014291Y029372D01*
X014129Y029486D01*
X013973Y029608D01*
X013823Y029737D01*
X013680Y029874D01*
X013543Y030017D01*
X013414Y030167D01*
X013292Y030323D01*
X013178Y030485D01*
X013072Y030653D01*
X012974Y030825D01*
X012885Y031002D01*
X012805Y031183D01*
X012734Y031368D01*
X012672Y031556D01*
X012619Y031747D01*
X012576Y031940D01*
X012542Y032135D01*
X012517Y032332D01*
X012503Y032529D01*
X012498Y032727D01*
X012005Y032727D02*
X012010Y032949D01*
X012027Y033171D01*
X012054Y033391D01*
X012092Y033610D01*
X012141Y033827D01*
X012200Y034041D01*
X012270Y034252D01*
X012350Y034460D01*
X012440Y034663D01*
X012540Y034861D01*
X012649Y035055D01*
X012768Y035243D01*
X012896Y035424D01*
X013033Y035600D01*
X013178Y035768D01*
X013331Y035929D01*
X013492Y036082D01*
X013660Y036227D01*
X013836Y036364D01*
X014017Y036492D01*
X014205Y036611D01*
X014399Y036720D01*
X014597Y036820D01*
X014800Y036910D01*
X015008Y036990D01*
X015219Y037060D01*
X015433Y037119D01*
X015650Y037168D01*
X015869Y037206D01*
X016089Y037233D01*
X016311Y037250D01*
X016533Y037255D01*
X016755Y037250D01*
X016977Y037233D01*
X017197Y037206D01*
X017416Y037168D01*
X017633Y037119D01*
X017847Y037060D01*
X018058Y036990D01*
X018266Y036910D01*
X018469Y036820D01*
X018667Y036720D01*
X018861Y036611D01*
X019049Y036492D01*
X019230Y036364D01*
X019406Y036227D01*
X019574Y036082D01*
X019735Y035929D01*
X019888Y035768D01*
X020033Y035600D01*
X020170Y035424D01*
X020298Y035243D01*
X020417Y035055D01*
X020526Y034861D01*
X020626Y034663D01*
X020716Y034460D01*
X020796Y034252D01*
X020866Y034041D01*
X020925Y033827D01*
X020974Y033610D01*
X021012Y033391D01*
X021039Y033171D01*
X021056Y032949D01*
X021061Y032727D01*
X021056Y032505D01*
X021039Y032283D01*
X021012Y032063D01*
X020974Y031844D01*
X020925Y031627D01*
X020866Y031413D01*
X020796Y031202D01*
X020716Y030994D01*
X020626Y030791D01*
X020526Y030593D01*
X020417Y030399D01*
X020298Y030211D01*
X020170Y030030D01*
X020033Y029854D01*
X019888Y029686D01*
X019735Y029525D01*
X019574Y029372D01*
X019406Y029227D01*
X019230Y029090D01*
X019049Y028962D01*
X018861Y028843D01*
X018667Y028734D01*
X018469Y028634D01*
X018266Y028544D01*
X018058Y028464D01*
X017847Y028394D01*
X017633Y028335D01*
X017416Y028286D01*
X017197Y028248D01*
X016977Y028221D01*
X016755Y028204D01*
X016533Y028199D01*
X016311Y028204D01*
X016089Y028221D01*
X015869Y028248D01*
X015650Y028286D01*
X015433Y028335D01*
X015219Y028394D01*
X015008Y028464D01*
X014800Y028544D01*
X014597Y028634D01*
X014399Y028734D01*
X014205Y028843D01*
X014017Y028962D01*
X013836Y029090D01*
X013660Y029227D01*
X013492Y029372D01*
X013331Y029525D01*
X013178Y029686D01*
X013033Y029854D01*
X012896Y030030D01*
X012768Y030211D01*
X012649Y030399D01*
X012540Y030593D01*
X012440Y030791D01*
X012350Y030994D01*
X012270Y031202D01*
X012200Y031413D01*
X012141Y031627D01*
X012092Y031844D01*
X012054Y032063D01*
X012027Y032283D01*
X012010Y032505D01*
X012005Y032727D01*
D18*
X027398Y032698D02*
X027448Y032648D01*
X027398Y032673D02*
X027398Y032623D01*
X027423Y032598D01*
X027523Y032598D01*
X027548Y032623D01*
X027548Y032673D01*
X027523Y032698D01*
X027423Y032698D01*
X027398Y032673D01*
X027423Y032745D02*
X027398Y032770D01*
X027398Y032820D01*
X027423Y032845D01*
X027448Y032845D01*
X027473Y032820D01*
X027473Y032795D01*
X027473Y032820D02*
X027498Y032845D01*
X027523Y032845D01*
X027548Y032820D01*
X027548Y032770D01*
X027523Y032745D01*
X033471Y032725D02*
X033521Y032675D01*
X033496Y032725D02*
X033471Y032700D01*
X033471Y032650D01*
X033496Y032625D01*
X033596Y032625D01*
X033621Y032650D01*
X033621Y032700D01*
X033596Y032725D01*
X033496Y032725D01*
X033546Y032772D02*
X033546Y032872D01*
X033471Y032847D02*
X033621Y032847D01*
X033546Y032772D01*
X040535Y032742D02*
X040535Y032692D01*
X040560Y032667D01*
X040560Y032620D02*
X040535Y032595D01*
X040535Y032545D01*
X040560Y032519D01*
X040660Y032519D01*
X040685Y032545D01*
X040685Y032595D01*
X040660Y032620D01*
X040560Y032620D01*
X040535Y032620D02*
X040585Y032570D01*
X040610Y032667D02*
X040635Y032717D01*
X040635Y032742D01*
X040610Y032767D01*
X040560Y032767D01*
X040535Y032742D01*
X040610Y032667D02*
X040685Y032667D01*
X040685Y032767D01*
X029118Y026283D02*
X029093Y026233D01*
X029043Y026183D01*
X029043Y026258D01*
X029018Y026283D01*
X028993Y026283D01*
X028968Y026258D01*
X028968Y026208D01*
X028993Y026183D01*
X029043Y026183D01*
X028993Y026136D02*
X028968Y026111D01*
X028968Y026061D01*
X028993Y026036D01*
X029093Y026036D01*
X029118Y026061D01*
X029118Y026111D01*
X029093Y026136D01*
X028993Y026136D01*
X028968Y026136D02*
X029018Y026086D01*
X040917Y025130D02*
X041117Y025130D01*
X041092Y025155D02*
X041067Y025180D01*
X041092Y025155D02*
X041092Y025105D01*
X041067Y025080D01*
X041042Y025080D01*
X041017Y025105D01*
X041017Y025155D01*
X040992Y025180D01*
X040967Y025180D01*
X040942Y025155D01*
X040942Y025105D01*
X040967Y025080D01*
X040967Y025032D02*
X041092Y025032D01*
X041092Y024932D02*
X040967Y024932D01*
X040942Y024957D01*
X040942Y025007D01*
X040967Y025032D01*
X040942Y025227D02*
X040942Y025327D01*
X040942Y025277D02*
X041092Y025277D01*
X041042Y025227D01*
X044516Y013510D02*
X044516Y013410D01*
X044516Y013460D02*
X044366Y013460D01*
X044366Y013363D02*
X044466Y013363D01*
X044516Y013313D01*
X044466Y013263D01*
X044366Y013263D01*
X044391Y013216D02*
X044366Y013191D01*
X044366Y013115D01*
X044516Y013115D01*
X044516Y013191D01*
X044491Y013216D01*
X044466Y013216D01*
X044441Y013191D01*
X044441Y013115D01*
X044416Y013068D02*
X044516Y013068D01*
X044416Y013068D02*
X044366Y013018D01*
X044416Y012968D01*
X044516Y012968D01*
X044441Y013191D02*
X044416Y013216D01*
X044391Y013216D01*
X044441Y013263D02*
X044441Y013363D01*
X004639Y013252D02*
X004639Y013352D01*
X004639Y013302D02*
X004489Y013302D01*
X004489Y013399D02*
X004489Y013499D01*
X004489Y013449D02*
X004639Y013449D01*
X004589Y013399D01*
X004589Y013205D02*
X004489Y013205D01*
X004564Y013205D02*
X004564Y013105D01*
X004589Y013105D02*
X004639Y013155D01*
X004589Y013205D01*
X004589Y013105D02*
X004489Y013105D01*
X004514Y013057D02*
X004489Y013032D01*
X004489Y012957D01*
X004639Y012957D01*
X004639Y013032D01*
X004614Y013057D01*
X004589Y013057D01*
X004564Y013032D01*
X004564Y012957D01*
X004539Y012910D02*
X004639Y012910D01*
X004539Y012910D02*
X004489Y012860D01*
X004539Y012810D01*
X004639Y012810D01*
X004564Y013032D02*
X004539Y013057D01*
X004514Y013057D01*
D19*
X056994Y029548D03*
X056994Y030548D03*
X056994Y031548D03*
X056994Y032548D03*
X056994Y033548D03*
X056994Y034548D03*
X056994Y035548D03*
X056994Y036548D03*
D20*
X052641Y037576D02*
X052488Y037576D01*
X052565Y037576D02*
X052565Y038037D01*
X052641Y038037D02*
X052488Y038037D01*
X052334Y037960D02*
X052334Y037653D01*
X052258Y037576D01*
X052104Y037576D01*
X052027Y037653D01*
X051874Y037576D02*
X051567Y037576D01*
X051874Y037576D02*
X051567Y037883D01*
X051567Y037960D01*
X051644Y038037D01*
X051797Y038037D01*
X051874Y037960D01*
X052027Y037960D02*
X052104Y038037D01*
X052258Y038037D01*
X052334Y037960D01*
X041759Y035668D02*
X041759Y035207D01*
X041529Y035207D01*
X041452Y035284D01*
X041452Y035591D01*
X041529Y035668D01*
X041759Y035668D01*
X041298Y035591D02*
X041298Y035514D01*
X041222Y035437D01*
X041068Y035437D01*
X040992Y035361D01*
X040992Y035284D01*
X041068Y035207D01*
X041222Y035207D01*
X041298Y035284D01*
X041298Y035361D01*
X041222Y035437D01*
X041068Y035437D02*
X040992Y035514D01*
X040992Y035591D01*
X041068Y035668D01*
X041222Y035668D01*
X041298Y035591D01*
X041236Y034627D02*
X041313Y034550D01*
X041313Y034473D01*
X041236Y034397D01*
X041006Y034397D01*
X041006Y034550D02*
X041082Y034627D01*
X041236Y034627D01*
X041466Y034550D02*
X041543Y034627D01*
X041773Y034627D01*
X041773Y034166D01*
X041543Y034166D01*
X041466Y034243D01*
X041466Y034550D01*
X041313Y034243D02*
X041236Y034166D01*
X041082Y034166D01*
X041006Y034243D01*
X041006Y034550D01*
X034817Y034610D02*
X034817Y034150D01*
X034587Y034150D01*
X034511Y034226D01*
X034511Y034533D01*
X034587Y034610D01*
X034817Y034610D01*
X034357Y034610D02*
X034050Y034610D01*
X034050Y034533D01*
X034357Y034226D01*
X034357Y034150D01*
X034261Y035178D02*
X034108Y035178D01*
X034031Y035254D01*
X034031Y035331D01*
X034108Y035408D01*
X034338Y035408D01*
X034338Y035254D01*
X034261Y035178D01*
X034338Y035408D02*
X034185Y035561D01*
X034031Y035638D01*
X034492Y035561D02*
X034492Y035254D01*
X034568Y035178D01*
X034799Y035178D01*
X034799Y035638D01*
X034568Y035638D01*
X034492Y035561D01*
X028709Y033393D02*
X028709Y032932D01*
X028479Y032932D01*
X028402Y033009D01*
X028402Y033316D01*
X028479Y033393D01*
X028709Y033393D01*
X028248Y033162D02*
X027942Y033162D01*
X028018Y032932D02*
X028018Y033393D01*
X028248Y033162D01*
X028120Y035169D02*
X027966Y035169D01*
X027889Y035246D01*
X027889Y035399D01*
X027966Y035476D01*
X028043Y035476D01*
X028196Y035399D01*
X028196Y035629D01*
X027889Y035629D01*
X028350Y035553D02*
X028350Y035246D01*
X028426Y035169D01*
X028657Y035169D01*
X028657Y035629D01*
X028426Y035629D01*
X028350Y035553D01*
X028196Y035246D02*
X028120Y035169D01*
X028216Y026696D02*
X028216Y026235D01*
X028369Y026235D02*
X028062Y026235D01*
X027909Y026312D02*
X027602Y026619D01*
X027602Y026312D01*
X027679Y026235D01*
X027832Y026235D01*
X027909Y026312D01*
X027909Y026619D01*
X027832Y026696D01*
X027679Y026696D01*
X027602Y026619D01*
X028216Y026696D02*
X028369Y026542D01*
X028523Y026619D02*
X028599Y026696D01*
X028830Y026696D01*
X028830Y026235D01*
X028599Y026235D01*
X028523Y026312D01*
X028523Y026619D01*
X028601Y025881D02*
X028831Y025881D01*
X028831Y025421D01*
X028601Y025421D01*
X028525Y025498D01*
X028525Y025805D01*
X028601Y025881D01*
X028371Y025728D02*
X028218Y025881D01*
X028218Y025421D01*
X028371Y025421D02*
X028064Y025421D01*
X027911Y025421D02*
X027604Y025421D01*
X027757Y025421D02*
X027757Y025881D01*
X027911Y025728D01*
X028962Y018316D02*
X028962Y018009D01*
X029192Y018239D01*
X028732Y018239D01*
X028962Y017856D02*
X028962Y017549D01*
X029192Y017779D01*
X028732Y017779D01*
X028809Y017395D02*
X029116Y017395D01*
X029192Y017319D01*
X029192Y017088D01*
X028732Y017088D01*
X028732Y017319D01*
X028809Y017395D01*
X029792Y017303D02*
X029792Y017073D01*
X030252Y017073D01*
X030252Y017303D01*
X030175Y017380D01*
X029868Y017380D01*
X029792Y017303D01*
X029868Y017533D02*
X029792Y017610D01*
X029792Y017764D01*
X029868Y017840D01*
X029945Y017840D01*
X030022Y017764D01*
X030022Y017533D01*
X029868Y017533D01*
X030022Y017533D02*
X030175Y017687D01*
X030252Y017840D01*
X030175Y017994D02*
X030099Y017994D01*
X030022Y018070D01*
X030022Y018224D01*
X029945Y018301D01*
X029868Y018301D01*
X029792Y018224D01*
X029792Y018070D01*
X029868Y017994D01*
X029945Y017994D01*
X030022Y018070D01*
X030022Y018224D02*
X030099Y018301D01*
X030175Y018301D01*
X030252Y018224D01*
X030252Y018070D01*
X030175Y017994D01*
X030718Y018071D02*
X030718Y018224D01*
X030795Y018301D01*
X031101Y018301D01*
X031178Y018224D01*
X031178Y018071D01*
X031101Y017994D01*
X031025Y017994D01*
X030948Y018071D01*
X030948Y018301D01*
X030718Y018071D02*
X030795Y017994D01*
X030795Y017840D02*
X030871Y017840D01*
X030948Y017764D01*
X030948Y017533D01*
X030795Y017533D01*
X030718Y017610D01*
X030718Y017764D01*
X030795Y017840D01*
X031101Y017687D02*
X030948Y017533D01*
X030795Y017380D02*
X031101Y017380D01*
X031178Y017303D01*
X031178Y017073D01*
X030718Y017073D01*
X030718Y017303D01*
X030795Y017380D01*
X031101Y017687D02*
X031178Y017840D01*
X027411Y011687D02*
X027488Y011611D01*
X027488Y011457D01*
X027411Y011381D01*
X027411Y011227D02*
X027104Y010920D01*
X027028Y010920D01*
X027104Y010767D02*
X027411Y010767D01*
X027488Y010690D01*
X027488Y010460D01*
X027028Y010460D01*
X027028Y010690D01*
X027104Y010767D01*
X027453Y010638D02*
X027530Y010714D01*
X027606Y010714D01*
X027683Y010638D01*
X027683Y010408D01*
X027530Y010408D01*
X027453Y010484D01*
X027453Y010638D01*
X027530Y010868D02*
X027453Y010945D01*
X027453Y011098D01*
X027530Y011175D01*
X027606Y011175D01*
X027683Y011098D01*
X027683Y011021D01*
X027683Y011098D02*
X027760Y011175D01*
X027837Y011175D01*
X027913Y011098D01*
X027913Y010945D01*
X027837Y010868D01*
X027913Y010714D02*
X027837Y010561D01*
X027683Y010408D01*
X027530Y010254D02*
X027837Y010254D01*
X027913Y010177D01*
X027913Y009947D01*
X027453Y009947D01*
X027453Y010177D01*
X027530Y010254D01*
X026653Y010468D02*
X026653Y010698D01*
X026576Y010775D01*
X026269Y010775D01*
X026193Y010698D01*
X026193Y010468D01*
X026653Y010468D01*
X026653Y010928D02*
X026653Y011235D01*
X026576Y011235D01*
X026269Y010928D01*
X026193Y010928D01*
X026193Y011389D02*
X026193Y011696D01*
X026193Y011542D02*
X026653Y011542D01*
X026500Y011389D01*
X027028Y011381D02*
X027028Y011687D01*
X027028Y011381D02*
X027334Y011687D01*
X027411Y011687D01*
X027411Y011227D02*
X027488Y011227D01*
X027488Y010920D01*
X028699Y010968D02*
X029159Y010968D01*
X029006Y010815D01*
X029159Y010661D02*
X029083Y010508D01*
X028929Y010354D01*
X028929Y010584D01*
X028852Y010661D01*
X028776Y010661D01*
X028699Y010584D01*
X028699Y010431D01*
X028776Y010354D01*
X028929Y010354D01*
X028776Y010201D02*
X029083Y010201D01*
X029159Y010124D01*
X029159Y009894D01*
X028699Y009894D01*
X028699Y010124D01*
X028776Y010201D01*
X028699Y010815D02*
X028699Y011122D01*
X030962Y011069D02*
X031039Y011145D01*
X031116Y011145D01*
X031192Y011069D01*
X031192Y010839D01*
X031039Y010839D01*
X030962Y010915D01*
X030962Y011069D01*
X030962Y011299D02*
X031269Y011606D01*
X031346Y011606D01*
X031423Y011529D01*
X031423Y011376D01*
X031346Y011299D01*
X031423Y011145D02*
X031346Y010992D01*
X031192Y010839D01*
X031039Y010685D02*
X031346Y010685D01*
X031423Y010608D01*
X031423Y010378D01*
X030962Y010378D01*
X030962Y010608D01*
X031039Y010685D01*
X030962Y011299D02*
X030962Y011606D01*
X024498Y011084D02*
X024421Y011161D01*
X024114Y010854D01*
X024037Y010930D01*
X024037Y011084D01*
X024114Y011161D01*
X024421Y011161D01*
X024498Y011084D02*
X024498Y010930D01*
X024421Y010854D01*
X024114Y010854D01*
X024421Y010700D02*
X024114Y010393D01*
X024037Y010393D01*
X024114Y010240D02*
X024421Y010240D01*
X024498Y010163D01*
X024498Y009933D01*
X024037Y009933D01*
X024037Y010163D01*
X024114Y010240D01*
X024498Y010393D02*
X024498Y010700D01*
X024421Y010700D01*
X023095Y010577D02*
X023095Y010346D01*
X022635Y010346D01*
X022635Y010577D01*
X022712Y010653D01*
X023019Y010653D01*
X023095Y010577D01*
X022865Y010807D02*
X022865Y011114D01*
X022865Y011267D02*
X022942Y011421D01*
X022942Y011497D01*
X022865Y011574D01*
X022712Y011574D01*
X022635Y011497D01*
X022635Y011344D01*
X022712Y011267D01*
X022865Y011267D02*
X023095Y011267D01*
X023095Y011574D01*
X023095Y011037D02*
X022865Y010807D01*
X022635Y011037D02*
X023095Y011037D01*
X013705Y010929D02*
X013705Y010775D01*
X013705Y010852D02*
X013245Y010852D01*
X013267Y010799D02*
X013344Y010952D01*
X013344Y011029D01*
X013267Y011106D01*
X013113Y011106D01*
X013037Y011029D01*
X013037Y010876D01*
X013113Y010799D01*
X013245Y010775D02*
X013245Y010929D01*
X013267Y010799D02*
X013497Y010799D01*
X013497Y011106D01*
X013628Y011082D02*
X013322Y011082D01*
X013245Y011159D01*
X013245Y011312D01*
X013322Y011389D01*
X013420Y011413D02*
X013267Y011259D01*
X013267Y011490D01*
X013190Y011566D01*
X013113Y011566D01*
X013037Y011490D01*
X013037Y011336D01*
X013113Y011259D01*
X013267Y011259D01*
X013420Y011413D02*
X013497Y011566D01*
X013475Y011542D02*
X013475Y011849D01*
X013245Y011773D02*
X013705Y011773D01*
X013475Y011542D01*
X013628Y011389D02*
X013705Y011312D01*
X013705Y011159D01*
X013628Y011082D01*
X013420Y010645D02*
X013497Y010569D01*
X013497Y010339D01*
X013037Y010339D01*
X013037Y010569D01*
X013113Y010645D01*
X013420Y010645D01*
X012168Y007885D02*
X012092Y007731D01*
X011938Y007578D01*
X011938Y007808D01*
X011862Y007885D01*
X011785Y007885D01*
X011708Y007808D01*
X011708Y007654D01*
X011785Y007578D01*
X011938Y007578D01*
X011862Y007424D02*
X011938Y007347D01*
X011938Y007117D01*
X011785Y007117D01*
X011708Y007194D01*
X011708Y007347D01*
X011785Y007424D01*
X011862Y007424D01*
X012092Y007271D02*
X012168Y007424D01*
X012092Y007271D02*
X011938Y007117D01*
X011785Y006964D02*
X012092Y006964D01*
X012168Y006887D01*
X012168Y006657D01*
X011708Y006657D01*
X011708Y006887D01*
X011785Y006964D01*
X011275Y006851D02*
X011275Y006620D01*
X010814Y006620D01*
X010814Y006851D01*
X010891Y006927D01*
X011198Y006927D01*
X011275Y006851D01*
X011045Y007081D02*
X011045Y007311D01*
X010968Y007388D01*
X010891Y007388D01*
X010814Y007311D01*
X010814Y007157D01*
X010891Y007081D01*
X011045Y007081D01*
X011198Y007234D01*
X011275Y007388D01*
X011275Y007541D02*
X011045Y007541D01*
X011121Y007695D01*
X011121Y007771D01*
X011045Y007848D01*
X010891Y007848D01*
X010814Y007771D01*
X010814Y007618D01*
X010891Y007541D01*
X011275Y007541D02*
X011275Y007848D01*
X010396Y007777D02*
X010166Y007547D01*
X010166Y007854D01*
X009936Y007777D02*
X010396Y007777D01*
X010396Y007394D02*
X010319Y007240D01*
X010166Y007087D01*
X010166Y007317D01*
X010089Y007394D01*
X010012Y007394D01*
X009936Y007317D01*
X009936Y007164D01*
X010012Y007087D01*
X010166Y007087D01*
X010319Y006933D02*
X010396Y006857D01*
X010396Y006626D01*
X009936Y006626D01*
X009936Y006857D01*
X010012Y006933D01*
X010319Y006933D01*
X009523Y006826D02*
X009523Y006596D01*
X009062Y006596D01*
X009062Y006826D01*
X009139Y006903D01*
X009446Y006903D01*
X009523Y006826D01*
X009292Y007056D02*
X009292Y007287D01*
X009216Y007363D01*
X009139Y007363D01*
X009062Y007287D01*
X009062Y007133D01*
X009139Y007056D01*
X009292Y007056D01*
X009446Y007210D01*
X009523Y007363D01*
X009523Y007517D02*
X009523Y007824D01*
X009446Y007824D01*
X009139Y007517D01*
X009062Y007517D01*
X011950Y004231D02*
X011873Y004154D01*
X011873Y004001D01*
X011950Y003924D01*
X012027Y003924D01*
X012104Y004001D01*
X012104Y004154D01*
X012027Y004231D01*
X011950Y004231D01*
X012104Y004154D02*
X012180Y004231D01*
X012257Y004231D01*
X012334Y004154D01*
X012334Y004001D01*
X012257Y003924D01*
X012180Y003924D01*
X012104Y004001D01*
X012104Y003770D02*
X011950Y003770D01*
X011873Y003694D01*
X011873Y003540D01*
X011950Y003463D01*
X011950Y003310D02*
X012257Y003310D01*
X012334Y003233D01*
X012334Y003003D01*
X011873Y003003D01*
X011873Y003233D01*
X011950Y003310D01*
X012104Y003463D02*
X012180Y003617D01*
X012180Y003694D01*
X012104Y003770D01*
X012334Y003770D02*
X012334Y003463D01*
X012104Y003463D01*
X012794Y003534D02*
X012871Y003458D01*
X012794Y003534D02*
X012794Y003688D01*
X012871Y003764D01*
X013025Y003764D01*
X013101Y003688D01*
X013101Y003611D01*
X013025Y003458D01*
X013255Y003458D01*
X013255Y003764D01*
X013255Y003918D02*
X013255Y004225D01*
X013178Y004225D01*
X012871Y003918D01*
X012794Y003918D01*
X012871Y003304D02*
X013178Y003304D01*
X013255Y003227D01*
X013255Y002997D01*
X012794Y002997D01*
X012794Y003227D01*
X012871Y003304D01*
X014434Y003247D02*
X014434Y003017D01*
X014895Y003017D01*
X014895Y003247D01*
X014818Y003324D01*
X014511Y003324D01*
X014434Y003247D01*
X014511Y003478D02*
X014434Y003554D01*
X014434Y003708D01*
X014511Y003785D01*
X014664Y003785D01*
X014741Y003708D01*
X014741Y003631D01*
X014664Y003478D01*
X014895Y003478D01*
X014895Y003785D01*
X014818Y003938D02*
X014895Y004015D01*
X014895Y004168D01*
X014818Y004245D01*
X014741Y004245D01*
X014434Y003938D01*
X014434Y004245D01*
X015216Y004255D02*
X015216Y003948D01*
X015216Y004101D02*
X015676Y004101D01*
X015523Y003948D01*
X015446Y003794D02*
X015293Y003794D01*
X015216Y003718D01*
X015216Y003564D01*
X015293Y003487D01*
X015293Y003334D02*
X015600Y003334D01*
X015676Y003257D01*
X015676Y003027D01*
X015216Y003027D01*
X015216Y003257D01*
X015293Y003334D01*
X015446Y003487D02*
X015523Y003641D01*
X015523Y003718D01*
X015446Y003794D01*
X015676Y003794D02*
X015676Y003487D01*
X015446Y003487D01*
X021378Y003294D02*
X021454Y003371D01*
X021761Y003371D01*
X021838Y003294D01*
X021838Y003064D01*
X021378Y003064D01*
X021378Y003294D01*
X021608Y003524D02*
X021608Y003831D01*
X021608Y003985D02*
X021454Y003985D01*
X021378Y004061D01*
X021378Y004215D01*
X021454Y004291D01*
X021531Y004291D01*
X021608Y004215D01*
X021608Y003985D01*
X021761Y004138D01*
X021838Y004291D01*
X021838Y003754D02*
X021378Y003754D01*
X021608Y003524D02*
X021838Y003754D01*
X022614Y003719D02*
X023074Y003719D01*
X022844Y003488D01*
X022844Y003795D01*
X022690Y003949D02*
X022614Y003949D01*
X022690Y003949D02*
X022997Y004256D01*
X023074Y004256D01*
X023074Y003949D01*
X022997Y003335D02*
X022690Y003335D01*
X022614Y003258D01*
X022614Y003028D01*
X023074Y003028D01*
X023074Y003258D01*
X022997Y003335D01*
X026104Y003254D02*
X026104Y003024D01*
X026564Y003024D01*
X026564Y003254D01*
X026487Y003331D01*
X026180Y003331D01*
X026104Y003254D01*
X026104Y003484D02*
X026180Y003484D01*
X026487Y003791D01*
X026564Y003791D01*
X026564Y003484D01*
X026487Y003945D02*
X026564Y004021D01*
X026564Y004175D01*
X026487Y004252D01*
X026411Y004252D01*
X026334Y004175D01*
X026257Y004252D01*
X026180Y004252D01*
X026104Y004175D01*
X026104Y004021D01*
X026180Y003945D01*
X026334Y004098D02*
X026334Y004175D01*
X027079Y004211D02*
X027539Y004211D01*
X027309Y003980D01*
X027309Y004287D01*
X027462Y003827D02*
X027156Y003520D01*
X027079Y003520D01*
X027156Y003367D02*
X027462Y003367D01*
X027539Y003290D01*
X027539Y003060D01*
X027079Y003060D01*
X027079Y003290D01*
X027156Y003367D01*
X027539Y003520D02*
X027539Y003827D01*
X027462Y003827D01*
X027959Y004058D02*
X028036Y003981D01*
X027959Y004058D02*
X027959Y004211D01*
X028036Y004288D01*
X028190Y004288D01*
X028266Y004211D01*
X028266Y004134D01*
X028190Y003981D01*
X028420Y003981D01*
X028420Y004288D01*
X028420Y003827D02*
X028343Y003827D01*
X028036Y003521D01*
X027959Y003521D01*
X028036Y003367D02*
X027959Y003290D01*
X027959Y003060D01*
X028420Y003060D01*
X028420Y003290D01*
X028343Y003367D01*
X028036Y003367D01*
X028420Y003521D02*
X028420Y003827D01*
X048939Y006607D02*
X048939Y006837D01*
X049016Y006914D01*
X049323Y006914D01*
X049400Y006837D01*
X049400Y006607D01*
X048939Y006607D01*
X049016Y007067D02*
X048939Y007144D01*
X048939Y007298D01*
X049016Y007374D01*
X049093Y007374D01*
X049169Y007298D01*
X049169Y007221D01*
X049169Y007298D02*
X049246Y007374D01*
X049323Y007374D01*
X049400Y007298D01*
X049400Y007144D01*
X049323Y007067D01*
X049400Y007528D02*
X049169Y007528D01*
X049246Y007681D01*
X049246Y007758D01*
X049169Y007835D01*
X049016Y007835D01*
X048939Y007758D01*
X048939Y007604D01*
X049016Y007528D01*
X049400Y007528D02*
X049400Y007835D01*
X049813Y007865D02*
X049813Y007558D01*
X050120Y007865D01*
X050196Y007865D01*
X050273Y007788D01*
X050273Y007635D01*
X050196Y007558D01*
X050196Y007405D02*
X050120Y007405D01*
X050043Y007328D01*
X049966Y007405D01*
X049889Y007405D01*
X049813Y007328D01*
X049813Y007174D01*
X049889Y007098D01*
X049889Y006944D02*
X050196Y006944D01*
X050273Y006868D01*
X050273Y006637D01*
X049813Y006637D01*
X049813Y006868D01*
X049889Y006944D01*
X050043Y007251D02*
X050043Y007328D01*
X050196Y007405D02*
X050273Y007328D01*
X050273Y007174D01*
X050196Y007098D01*
X050691Y007168D02*
X050768Y007092D01*
X050691Y007168D02*
X050691Y007322D01*
X050768Y007399D01*
X050845Y007399D01*
X050922Y007322D01*
X050922Y007245D01*
X050922Y007322D02*
X050998Y007399D01*
X051075Y007399D01*
X051152Y007322D01*
X051152Y007168D01*
X051075Y007092D01*
X051075Y006938D02*
X051152Y006861D01*
X051152Y006631D01*
X050691Y006631D01*
X050691Y006861D01*
X050768Y006938D01*
X051075Y006938D01*
X051585Y006898D02*
X051662Y006975D01*
X051969Y006975D01*
X052046Y006898D01*
X052046Y006668D01*
X051585Y006668D01*
X051585Y006898D01*
X051662Y007128D02*
X051585Y007205D01*
X051585Y007358D01*
X051662Y007435D01*
X051739Y007435D01*
X051815Y007358D01*
X051815Y007282D01*
X051815Y007358D02*
X051892Y007435D01*
X051969Y007435D01*
X052046Y007358D01*
X052046Y007205D01*
X051969Y007128D01*
X051815Y007589D02*
X051815Y007895D01*
X051585Y007819D02*
X052046Y007819D01*
X051815Y007589D01*
X051152Y007629D02*
X051152Y007782D01*
X051075Y007859D01*
X050998Y007859D01*
X050922Y007782D01*
X050845Y007859D01*
X050768Y007859D01*
X050691Y007782D01*
X050691Y007629D01*
X050768Y007552D01*
X050922Y007705D02*
X050922Y007782D01*
X051075Y007552D02*
X051152Y007629D01*
X052914Y010349D02*
X052914Y010580D01*
X052990Y010656D01*
X053297Y010656D01*
X053374Y010580D01*
X053374Y010349D01*
X052914Y010349D01*
X053122Y010786D02*
X053122Y010939D01*
X053122Y010863D02*
X053582Y010863D01*
X053582Y010939D02*
X053582Y010786D01*
X053374Y010887D02*
X053297Y010810D01*
X053374Y010887D02*
X053374Y011040D01*
X053297Y011117D01*
X053221Y011117D01*
X052914Y010810D01*
X052914Y011117D01*
X053122Y011170D02*
X053122Y011323D01*
X053199Y011400D01*
X053144Y011270D02*
X053144Y011577D01*
X053122Y011630D02*
X053199Y011553D01*
X053122Y011630D02*
X053122Y011783D01*
X053199Y011860D01*
X053275Y011860D01*
X053352Y011783D01*
X053352Y011707D01*
X053352Y011783D02*
X053429Y011860D01*
X053506Y011860D01*
X053582Y011783D01*
X053582Y011630D01*
X053506Y011553D01*
X053374Y011500D02*
X053144Y011270D01*
X053122Y011170D02*
X053199Y011093D01*
X053506Y011093D01*
X053582Y011170D01*
X053582Y011323D01*
X053506Y011400D01*
X053374Y011500D02*
X052914Y011500D01*
X053104Y017243D02*
X052643Y017243D01*
X052643Y017473D01*
X052720Y017549D01*
X053027Y017549D01*
X053104Y017473D01*
X053104Y017243D01*
X053027Y017703D02*
X053104Y017780D01*
X053104Y017933D01*
X053027Y018010D01*
X052950Y018010D01*
X052643Y017703D01*
X052643Y018010D01*
X052720Y018163D02*
X052643Y018240D01*
X052643Y018394D01*
X052720Y018470D01*
X052797Y018470D01*
X052873Y018394D01*
X052873Y018317D01*
X052873Y018394D02*
X052950Y018470D01*
X053027Y018470D01*
X053104Y018394D01*
X053104Y018240D01*
X053027Y018163D01*
X053627Y018125D02*
X053934Y018432D01*
X054010Y018432D01*
X054087Y018355D01*
X054087Y018202D01*
X054010Y018125D01*
X054010Y017972D02*
X054087Y017895D01*
X054087Y017742D01*
X054010Y017665D01*
X054010Y017511D02*
X054087Y017435D01*
X054087Y017204D01*
X053627Y017204D01*
X053627Y017435D01*
X053703Y017511D01*
X054010Y017511D01*
X053627Y017665D02*
X053627Y017972D01*
X053627Y018125D02*
X053627Y018432D01*
X053934Y017972D02*
X054010Y017972D01*
X053934Y017972D02*
X053627Y017665D01*
X054591Y017679D02*
X054898Y017986D01*
X054974Y017986D01*
X055051Y017909D01*
X055051Y017756D01*
X054974Y017679D01*
X054974Y017526D02*
X055051Y017449D01*
X055051Y017219D01*
X054591Y017219D01*
X054591Y017449D01*
X054667Y017526D01*
X054974Y017526D01*
X054591Y017679D02*
X054591Y017986D01*
X054591Y018140D02*
X054591Y018446D01*
X054591Y018293D02*
X055051Y018293D01*
X054898Y018140D01*
X055510Y018032D02*
X055510Y017725D01*
X055510Y017878D02*
X055970Y017878D01*
X055817Y017725D01*
X055894Y017571D02*
X055970Y017494D01*
X055970Y017264D01*
X055510Y017264D01*
X055510Y017494D01*
X055587Y017571D01*
X055894Y017571D01*
X056286Y017484D02*
X056286Y017254D01*
X056746Y017254D01*
X056746Y017484D01*
X056669Y017561D01*
X056362Y017561D01*
X056286Y017484D01*
X056286Y017715D02*
X056286Y018021D01*
X056286Y017868D02*
X056746Y017868D01*
X056592Y017715D01*
X056746Y018175D02*
X056746Y018482D01*
X056669Y018482D01*
X056362Y018175D01*
X056286Y018175D01*
X055970Y018262D02*
X055970Y018415D01*
X055894Y018492D01*
X055817Y018492D01*
X055740Y018415D01*
X055740Y018262D01*
X055817Y018185D01*
X055894Y018185D01*
X055970Y018262D01*
X055740Y018262D02*
X055663Y018185D01*
X055587Y018185D01*
X055510Y018262D01*
X055510Y018415D01*
X055587Y018492D01*
X055663Y018492D01*
X055740Y018415D01*
X057529Y018436D02*
X057529Y018282D01*
X057606Y018206D01*
X057746Y018237D02*
X057746Y018390D01*
X057823Y018467D01*
X057900Y018467D01*
X057977Y018390D01*
X057977Y018160D01*
X057823Y018160D01*
X057746Y018237D01*
X057759Y018359D02*
X057759Y018436D01*
X057682Y018513D01*
X057606Y018513D01*
X057529Y018436D01*
X057759Y018436D02*
X057836Y018513D01*
X057913Y018513D01*
X057989Y018436D01*
X057989Y018282D01*
X057913Y018206D01*
X057977Y018160D02*
X058130Y018313D01*
X058207Y018467D01*
X057913Y018052D02*
X057989Y017976D01*
X057989Y017822D01*
X057913Y017745D01*
X057836Y017745D01*
X057759Y017822D01*
X057759Y017976D01*
X057682Y018052D01*
X057606Y018052D01*
X057529Y017976D01*
X057529Y017822D01*
X057606Y017745D01*
X057746Y017699D02*
X057746Y018006D01*
X057746Y017853D02*
X058207Y017853D01*
X058053Y017699D01*
X058130Y017546D02*
X057823Y017546D01*
X057746Y017469D01*
X057746Y017239D01*
X058207Y017239D01*
X058207Y017469D01*
X058130Y017546D01*
X049818Y017477D02*
X049818Y017247D01*
X049358Y017247D01*
X049358Y017477D01*
X049435Y017554D01*
X049742Y017554D01*
X049818Y017477D01*
X049742Y017707D02*
X049818Y017784D01*
X049818Y017938D01*
X049742Y018014D01*
X049665Y018014D01*
X049358Y017707D01*
X049358Y018014D01*
X049358Y018168D02*
X049435Y018168D01*
X049742Y018475D01*
X049818Y018475D01*
X049818Y018168D01*
X048815Y018177D02*
X048815Y018331D01*
X048738Y018408D01*
X048662Y018408D01*
X048585Y018331D01*
X048585Y018177D01*
X048662Y018101D01*
X048738Y018101D01*
X048815Y018177D01*
X048585Y018177D02*
X048508Y018101D01*
X048431Y018101D01*
X048355Y018177D01*
X048355Y018331D01*
X048431Y018408D01*
X048508Y018408D01*
X048585Y018331D01*
X048662Y017947D02*
X048738Y017947D01*
X048815Y017870D01*
X048815Y017717D01*
X048738Y017640D01*
X048738Y017487D02*
X048815Y017410D01*
X048815Y017180D01*
X048355Y017180D01*
X048355Y017410D01*
X048431Y017487D01*
X048738Y017487D01*
X048355Y017640D02*
X048662Y017947D01*
X048355Y017947D02*
X048355Y017640D01*
X062512Y011508D02*
X062512Y011355D01*
X062589Y011278D01*
X062512Y011125D02*
X062512Y010818D01*
X062512Y010971D02*
X062973Y010971D01*
X062819Y010818D01*
X062896Y010664D02*
X062973Y010587D01*
X062973Y010357D01*
X062512Y010357D01*
X062512Y010587D01*
X062589Y010664D01*
X062896Y010664D01*
X062896Y011278D02*
X062973Y011355D01*
X062973Y011508D01*
X062896Y011585D01*
X062819Y011585D01*
X062742Y011508D01*
X062666Y011585D01*
X062589Y011585D01*
X062512Y011508D01*
X062742Y011508D02*
X062742Y011432D01*
X063914Y011095D02*
X063914Y010941D01*
X063991Y010865D01*
X064068Y010865D01*
X064144Y010941D01*
X064144Y011095D01*
X064068Y011171D01*
X063991Y011171D01*
X063914Y011095D01*
X064144Y011095D02*
X064221Y011171D01*
X064298Y011171D01*
X064375Y011095D01*
X064375Y010941D01*
X064298Y010865D01*
X064221Y010865D01*
X064144Y010941D01*
X064068Y010711D02*
X063991Y010711D01*
X063914Y010634D01*
X063914Y010481D01*
X063991Y010404D01*
X063991Y010251D02*
X064298Y010251D01*
X064375Y010174D01*
X064375Y009944D01*
X063914Y009944D01*
X063914Y010174D01*
X063991Y010251D01*
X064144Y010558D02*
X064144Y010634D01*
X064068Y010711D01*
X064144Y010634D02*
X064221Y010711D01*
X064298Y010711D01*
X064375Y010634D01*
X064375Y010481D01*
X064298Y010404D01*
X066070Y010479D02*
X066070Y010709D01*
X066147Y010786D01*
X066453Y010786D01*
X066530Y010709D01*
X066530Y010479D01*
X066070Y010479D01*
X066147Y010939D02*
X066070Y011016D01*
X066070Y011169D01*
X066147Y011246D01*
X066223Y011246D01*
X066300Y011169D01*
X066300Y011093D01*
X066300Y011169D02*
X066377Y011246D01*
X066453Y011246D01*
X066530Y011169D01*
X066530Y011016D01*
X066453Y010939D01*
X066453Y011399D02*
X066377Y011399D01*
X066300Y011476D01*
X066300Y011706D01*
X066453Y011706D02*
X066530Y011630D01*
X066530Y011476D01*
X066453Y011399D01*
X066147Y011399D02*
X066070Y011476D01*
X066070Y011630D01*
X066147Y011706D01*
X066453Y011706D01*
X066905Y011622D02*
X066905Y011468D01*
X066981Y011391D01*
X067288Y011698D01*
X066981Y011698D01*
X066905Y011622D01*
X066981Y011391D02*
X067288Y011391D01*
X067365Y011468D01*
X067365Y011622D01*
X067288Y011698D01*
X067135Y011238D02*
X067135Y010931D01*
X067365Y011161D01*
X066905Y011161D01*
X066981Y010778D02*
X067288Y010778D01*
X067365Y010701D01*
X067365Y010471D01*
X066905Y010471D01*
X066905Y010701D01*
X066981Y010778D01*
X067330Y010879D02*
X067330Y011186D01*
X067330Y011032D02*
X067790Y011032D01*
X067637Y010879D01*
X067637Y010725D02*
X067560Y010649D01*
X067484Y010725D01*
X067407Y010725D01*
X067330Y010649D01*
X067330Y010495D01*
X067407Y010418D01*
X067407Y010265D02*
X067714Y010265D01*
X067790Y010188D01*
X067790Y009958D01*
X067330Y009958D01*
X067330Y010188D01*
X067407Y010265D01*
X067714Y010418D02*
X067790Y010495D01*
X067790Y010649D01*
X067714Y010725D01*
X067637Y010725D01*
X067560Y010649D02*
X067560Y010572D01*
X068576Y010672D02*
X068576Y010365D01*
X068883Y010672D01*
X068960Y010672D01*
X069036Y010595D01*
X069036Y010442D01*
X068960Y010365D01*
X068960Y010212D02*
X069036Y010135D01*
X069036Y009905D01*
X068576Y009905D01*
X068576Y010135D01*
X068653Y010212D01*
X068960Y010212D01*
X068960Y010826D02*
X068883Y010826D01*
X068806Y010902D01*
X068806Y011132D01*
X068653Y011132D02*
X068960Y011132D01*
X069036Y011056D01*
X069036Y010902D01*
X068960Y010826D01*
X068653Y010826D02*
X068576Y010902D01*
X068576Y011056D01*
X068653Y011132D01*
X070839Y011080D02*
X070839Y010926D01*
X070916Y010849D01*
X070916Y010696D02*
X071223Y010696D01*
X071300Y010619D01*
X071300Y010389D01*
X070839Y010389D01*
X070839Y010619D01*
X070916Y010696D01*
X071070Y011003D02*
X071070Y011080D01*
X070993Y011156D01*
X070916Y011156D01*
X070839Y011080D01*
X071070Y011080D02*
X071146Y011156D01*
X071223Y011156D01*
X071300Y011080D01*
X071300Y010926D01*
X071223Y010849D01*
X071223Y011310D02*
X070916Y011310D01*
X071223Y011617D01*
X070916Y011617D01*
X070839Y011540D01*
X070839Y011387D01*
X070916Y011310D01*
X071223Y011310D02*
X071300Y011387D01*
X071300Y011540D01*
X071223Y011617D01*
X071055Y017084D02*
X070595Y017084D01*
X070595Y017314D01*
X070672Y017391D01*
X070979Y017391D01*
X071055Y017314D01*
X071055Y017084D01*
X070979Y017544D02*
X071055Y017621D01*
X071055Y017775D01*
X070979Y017851D01*
X070902Y017851D01*
X070825Y017775D01*
X070748Y017851D01*
X070672Y017851D01*
X070595Y017775D01*
X070595Y017621D01*
X070672Y017544D01*
X070825Y017698D02*
X070825Y017775D01*
X070672Y018005D02*
X070595Y018005D01*
X070672Y018005D02*
X070979Y018312D01*
X071055Y018312D01*
X071055Y018005D01*
X070129Y017774D02*
X070129Y017621D01*
X070052Y017544D01*
X070052Y017391D02*
X070129Y017314D01*
X070129Y017084D01*
X069669Y017084D01*
X069669Y017314D01*
X069746Y017391D01*
X070052Y017391D01*
X069746Y017544D02*
X069669Y017621D01*
X069669Y017774D01*
X069746Y017851D01*
X069822Y017851D01*
X069899Y017774D01*
X069899Y017698D01*
X069899Y017774D02*
X069976Y017851D01*
X070052Y017851D01*
X070129Y017774D01*
X069899Y018005D02*
X069899Y018235D01*
X069822Y018312D01*
X069746Y018312D01*
X069669Y018235D01*
X069669Y018081D01*
X069746Y018005D01*
X069899Y018005D01*
X070052Y018158D01*
X070129Y018312D01*
X069070Y018250D02*
X069070Y018097D01*
X068993Y018020D01*
X069070Y018250D02*
X068993Y018327D01*
X068916Y018327D01*
X068609Y018020D01*
X068609Y018327D01*
X068609Y017867D02*
X068609Y017560D01*
X068609Y017713D02*
X069070Y017713D01*
X068916Y017560D01*
X068993Y017406D02*
X069070Y017330D01*
X069070Y017099D01*
X068609Y017099D01*
X068609Y017330D01*
X068686Y017406D01*
X068993Y017406D01*
X068220Y004299D02*
X068143Y004299D01*
X068067Y004222D01*
X067990Y004299D01*
X067913Y004299D01*
X067837Y004222D01*
X067837Y004069D01*
X067913Y003992D01*
X068067Y004145D02*
X068067Y004222D01*
X068220Y004299D02*
X068297Y004222D01*
X068297Y004069D01*
X068220Y003992D01*
X068067Y003838D02*
X068067Y003531D01*
X068297Y003762D01*
X067837Y003762D01*
X067913Y003378D02*
X068220Y003378D01*
X068297Y003301D01*
X068297Y003071D01*
X067837Y003071D01*
X067837Y003301D01*
X067913Y003378D01*
X067416Y003301D02*
X067416Y003070D01*
X066956Y003070D01*
X066956Y003301D01*
X067033Y003377D01*
X067340Y003377D01*
X067416Y003301D01*
X067186Y003531D02*
X067186Y003838D01*
X067340Y003991D02*
X067416Y004068D01*
X067416Y004221D01*
X067340Y004298D01*
X067263Y004298D01*
X066956Y003991D01*
X066956Y004298D01*
X066956Y003761D02*
X067416Y003761D01*
X067186Y003531D01*
X066441Y003725D02*
X066211Y003495D01*
X066211Y003802D01*
X066288Y003956D02*
X066441Y004109D01*
X065981Y004109D01*
X065981Y003956D02*
X065981Y004263D01*
X065981Y003725D02*
X066441Y003725D01*
X066364Y003342D02*
X066441Y003265D01*
X066441Y003035D01*
X065981Y003035D01*
X065981Y003265D01*
X066057Y003342D01*
X066364Y003342D01*
X062951Y003269D02*
X062951Y003039D01*
X062491Y003039D01*
X062491Y003269D01*
X062567Y003346D01*
X062874Y003346D01*
X062951Y003269D01*
X062798Y003499D02*
X062951Y003653D01*
X062491Y003653D01*
X062491Y003806D02*
X062491Y003499D01*
X062567Y003960D02*
X062491Y004036D01*
X062491Y004190D01*
X062567Y004267D01*
X062721Y004267D01*
X062798Y004190D01*
X062798Y004113D01*
X062721Y003960D01*
X062951Y003960D01*
X062951Y004267D01*
X061715Y004226D02*
X061485Y003995D01*
X061485Y004302D01*
X061255Y004226D02*
X061715Y004226D01*
X061715Y003688D02*
X061255Y003688D01*
X061255Y003535D02*
X061255Y003842D01*
X061562Y003535D02*
X061715Y003688D01*
X061638Y003382D02*
X061715Y003305D01*
X061715Y003075D01*
X061255Y003075D01*
X061255Y003305D01*
X061331Y003382D01*
X061638Y003382D01*
X055553Y003268D02*
X055553Y003038D01*
X055093Y003038D01*
X055093Y003268D01*
X055170Y003345D01*
X055477Y003345D01*
X055553Y003268D01*
X055400Y003498D02*
X055553Y003652D01*
X055093Y003652D01*
X055093Y003805D02*
X055093Y003498D01*
X054772Y003565D02*
X054695Y003488D01*
X054772Y003565D02*
X054772Y003719D01*
X054695Y003795D01*
X054618Y003795D01*
X054311Y003488D01*
X054311Y003795D01*
X054388Y003949D02*
X054695Y004256D01*
X054388Y004256D01*
X054311Y004179D01*
X054311Y004026D01*
X054388Y003949D01*
X054695Y003949D01*
X054772Y004026D01*
X054772Y004179D01*
X054695Y004256D01*
X055093Y004189D02*
X055170Y004266D01*
X055477Y004266D01*
X055553Y004189D01*
X055553Y004035D01*
X055477Y003959D01*
X055400Y003959D01*
X055323Y004035D01*
X055323Y004266D01*
X055093Y004189D02*
X055093Y004035D01*
X055170Y003959D01*
X054695Y003335D02*
X054388Y003335D01*
X054311Y003258D01*
X054311Y003028D01*
X054772Y003028D01*
X054772Y003258D01*
X054695Y003335D01*
X053132Y003238D02*
X053132Y003008D01*
X052671Y003008D01*
X052671Y003238D01*
X052748Y003315D01*
X053055Y003315D01*
X053132Y003238D01*
X053055Y003468D02*
X053132Y003545D01*
X053132Y003699D01*
X053055Y003775D01*
X052978Y003775D01*
X052671Y003468D01*
X052671Y003775D01*
X052748Y003929D02*
X052671Y004006D01*
X052671Y004159D01*
X052748Y004236D01*
X052902Y004236D01*
X052978Y004159D01*
X052978Y004082D01*
X052902Y003929D01*
X053132Y003929D01*
X053132Y004236D01*
X052211Y004242D02*
X052134Y004088D01*
X051981Y003935D01*
X051981Y004165D01*
X051904Y004242D01*
X051827Y004242D01*
X051750Y004165D01*
X051750Y004012D01*
X051827Y003935D01*
X051981Y003935D01*
X052057Y003781D02*
X052134Y003781D01*
X052211Y003705D01*
X052211Y003551D01*
X052134Y003474D01*
X052134Y003321D02*
X052211Y003244D01*
X052211Y003014D01*
X051750Y003014D01*
X051750Y003244D01*
X051827Y003321D01*
X052134Y003321D01*
X051750Y003474D02*
X052057Y003781D01*
X051750Y003781D02*
X051750Y003474D01*
X018330Y017228D02*
X018330Y017458D01*
X018253Y017535D01*
X017946Y017535D01*
X017869Y017458D01*
X017869Y017228D01*
X018330Y017228D01*
X018100Y017689D02*
X018100Y017996D01*
X018112Y017965D02*
X018112Y017811D01*
X018036Y017734D01*
X017959Y017734D01*
X017882Y017811D01*
X017882Y017965D01*
X017805Y018041D01*
X017729Y018041D01*
X017652Y017965D01*
X017652Y017811D01*
X017729Y017734D01*
X017869Y017919D02*
X018330Y017919D01*
X018100Y017689D01*
X018112Y017965D02*
X018036Y018041D01*
X018023Y018149D02*
X018100Y018226D01*
X018100Y018379D01*
X018023Y018456D01*
X017946Y018456D01*
X017869Y018379D01*
X017869Y018226D01*
X017946Y018149D01*
X018023Y018149D01*
X018112Y018195D02*
X017882Y018195D01*
X017959Y018348D01*
X017959Y018425D01*
X017882Y018502D01*
X017729Y018502D01*
X017652Y018425D01*
X017652Y018272D01*
X017729Y018195D01*
X018100Y018226D02*
X018176Y018149D01*
X018253Y018149D01*
X018330Y018226D01*
X018330Y018379D01*
X018253Y018456D01*
X018176Y018456D01*
X018100Y018379D01*
X018112Y018502D02*
X018112Y018195D01*
X016869Y018241D02*
X016792Y018164D01*
X016715Y018164D01*
X016639Y018241D01*
X016639Y018471D01*
X016792Y018471D02*
X016869Y018394D01*
X016869Y018241D01*
X016792Y018471D02*
X016485Y018471D01*
X016409Y018394D01*
X016409Y018241D01*
X016485Y018164D01*
X016639Y018011D02*
X016639Y017704D01*
X016869Y017934D01*
X016409Y017934D01*
X016093Y018021D02*
X016093Y017714D01*
X015863Y017714D01*
X015940Y017867D01*
X015940Y017944D01*
X015863Y018021D01*
X015710Y018021D01*
X015633Y017944D01*
X015633Y017791D01*
X015710Y017714D01*
X015710Y017560D02*
X016017Y017560D01*
X016093Y017484D01*
X016093Y017253D01*
X015633Y017253D01*
X015633Y017484D01*
X015710Y017560D01*
X015174Y017668D02*
X014944Y017668D01*
X015021Y017822D01*
X015021Y017898D01*
X014944Y017975D01*
X014790Y017975D01*
X014714Y017898D01*
X014714Y017745D01*
X014790Y017668D01*
X014790Y017515D02*
X015097Y017515D01*
X015174Y017438D01*
X015174Y017208D01*
X014714Y017208D01*
X014714Y017438D01*
X014790Y017515D01*
X015174Y017668D02*
X015174Y017975D01*
X015097Y018129D02*
X015174Y018205D01*
X015174Y018359D01*
X015097Y018436D01*
X015021Y018436D01*
X014944Y018359D01*
X014867Y018436D01*
X014790Y018436D01*
X014714Y018359D01*
X014714Y018205D01*
X014790Y018129D01*
X014944Y018282D02*
X014944Y018359D01*
X015633Y018404D02*
X015633Y018251D01*
X015710Y018174D01*
X016017Y018481D01*
X015710Y018481D01*
X015633Y018404D01*
X015710Y018174D02*
X016017Y018174D01*
X016093Y018251D01*
X016093Y018404D01*
X016017Y018481D01*
X016485Y017550D02*
X016792Y017550D01*
X016869Y017473D01*
X016869Y017243D01*
X016409Y017243D01*
X016409Y017473D01*
X016485Y017550D01*
X014210Y017654D02*
X013980Y017654D01*
X014056Y017807D01*
X014056Y017884D01*
X013980Y017961D01*
X013826Y017961D01*
X013750Y017884D01*
X013750Y017731D01*
X013826Y017654D01*
X013826Y017500D02*
X014133Y017500D01*
X014210Y017424D01*
X014210Y017193D01*
X013750Y017193D01*
X013750Y017424D01*
X013826Y017500D01*
X014210Y017654D02*
X014210Y017961D01*
X013980Y018114D02*
X013980Y018421D01*
X014210Y018344D02*
X013980Y018114D01*
X013750Y018344D02*
X014210Y018344D01*
X013227Y018459D02*
X013227Y018152D01*
X012996Y018152D01*
X013073Y018306D01*
X013073Y018383D01*
X012996Y018459D01*
X012843Y018459D01*
X012766Y018383D01*
X012766Y018229D01*
X012843Y018152D01*
X012843Y017999D02*
X012766Y017922D01*
X012766Y017769D01*
X012843Y017692D01*
X012996Y017692D02*
X013073Y017846D01*
X013073Y017922D01*
X012996Y017999D01*
X012843Y017999D01*
X012996Y017692D02*
X013227Y017692D01*
X013227Y017999D01*
X013150Y017539D02*
X012843Y017539D01*
X012766Y017462D01*
X012766Y017232D01*
X013227Y017232D01*
X013227Y017462D01*
X013150Y017539D01*
X009941Y017466D02*
X009941Y017236D01*
X009481Y017236D01*
X009481Y017466D01*
X009558Y017543D01*
X009865Y017543D01*
X009941Y017466D01*
X009941Y017697D02*
X009711Y017697D01*
X009788Y017850D01*
X009788Y017927D01*
X009711Y018003D01*
X009558Y018003D01*
X009481Y017927D01*
X009481Y017773D01*
X009558Y017697D01*
X009941Y017697D02*
X009941Y018003D01*
X009865Y018157D02*
X009788Y018157D01*
X009711Y018234D01*
X009711Y018464D01*
X009558Y018464D02*
X009865Y018464D01*
X009941Y018387D01*
X009941Y018234D01*
X009865Y018157D01*
X009558Y018157D02*
X009481Y018234D01*
X009481Y018387D01*
X009558Y018464D01*
X008938Y018320D02*
X008861Y018397D01*
X008554Y018090D01*
X008478Y018166D01*
X008478Y018320D01*
X008554Y018397D01*
X008861Y018397D01*
X008938Y018320D02*
X008938Y018166D01*
X008861Y018090D01*
X008554Y018090D01*
X008554Y017936D02*
X008631Y017936D01*
X008708Y017860D01*
X008708Y017629D01*
X008554Y017629D01*
X008478Y017706D01*
X008478Y017860D01*
X008554Y017936D01*
X008861Y017783D02*
X008708Y017629D01*
X008861Y017476D02*
X008938Y017399D01*
X008938Y017169D01*
X008478Y017169D01*
X008478Y017399D01*
X008554Y017476D01*
X008861Y017476D01*
X008861Y017783D02*
X008938Y017936D01*
D21*
X001285Y022311D02*
X001287Y022358D01*
X001293Y022404D01*
X001303Y022450D01*
X001316Y022495D01*
X001334Y022538D01*
X001355Y022580D01*
X001379Y022620D01*
X001407Y022657D01*
X001438Y022692D01*
X001472Y022725D01*
X001508Y022754D01*
X001547Y022780D01*
X001588Y022803D01*
X001631Y022822D01*
X001675Y022838D01*
X001720Y022850D01*
X001766Y022858D01*
X001813Y022862D01*
X001859Y022862D01*
X001906Y022858D01*
X001952Y022850D01*
X001997Y022838D01*
X002041Y022822D01*
X002084Y022803D01*
X002125Y022780D01*
X002164Y022754D01*
X002200Y022725D01*
X002234Y022692D01*
X002265Y022657D01*
X002293Y022620D01*
X002317Y022580D01*
X002338Y022538D01*
X002356Y022495D01*
X002369Y022450D01*
X002379Y022404D01*
X002385Y022358D01*
X002387Y022311D01*
X002385Y022264D01*
X002379Y022218D01*
X002369Y022172D01*
X002356Y022127D01*
X002338Y022084D01*
X002317Y022042D01*
X002293Y022002D01*
X002265Y021965D01*
X002234Y021930D01*
X002200Y021897D01*
X002164Y021868D01*
X002125Y021842D01*
X002084Y021819D01*
X002041Y021800D01*
X001997Y021784D01*
X001952Y021772D01*
X001906Y021764D01*
X001859Y021760D01*
X001813Y021760D01*
X001766Y021764D01*
X001720Y021772D01*
X001675Y021784D01*
X001631Y021800D01*
X001588Y021819D01*
X001547Y021842D01*
X001508Y021868D01*
X001472Y021897D01*
X001438Y021930D01*
X001407Y021965D01*
X001379Y022002D01*
X001355Y022042D01*
X001334Y022084D01*
X001316Y022127D01*
X001303Y022172D01*
X001293Y022218D01*
X001287Y022264D01*
X001285Y022311D01*
X001303Y041503D02*
X001305Y041550D01*
X001311Y041596D01*
X001321Y041642D01*
X001334Y041687D01*
X001352Y041730D01*
X001373Y041772D01*
X001397Y041812D01*
X001425Y041849D01*
X001456Y041884D01*
X001490Y041917D01*
X001526Y041946D01*
X001565Y041972D01*
X001606Y041995D01*
X001649Y042014D01*
X001693Y042030D01*
X001738Y042042D01*
X001784Y042050D01*
X001831Y042054D01*
X001877Y042054D01*
X001924Y042050D01*
X001970Y042042D01*
X002015Y042030D01*
X002059Y042014D01*
X002102Y041995D01*
X002143Y041972D01*
X002182Y041946D01*
X002218Y041917D01*
X002252Y041884D01*
X002283Y041849D01*
X002311Y041812D01*
X002335Y041772D01*
X002356Y041730D01*
X002374Y041687D01*
X002387Y041642D01*
X002397Y041596D01*
X002403Y041550D01*
X002405Y041503D01*
X002403Y041456D01*
X002397Y041410D01*
X002387Y041364D01*
X002374Y041319D01*
X002356Y041276D01*
X002335Y041234D01*
X002311Y041194D01*
X002283Y041157D01*
X002252Y041122D01*
X002218Y041089D01*
X002182Y041060D01*
X002143Y041034D01*
X002102Y041011D01*
X002059Y040992D01*
X002015Y040976D01*
X001970Y040964D01*
X001924Y040956D01*
X001877Y040952D01*
X001831Y040952D01*
X001784Y040956D01*
X001738Y040964D01*
X001693Y040976D01*
X001649Y040992D01*
X001606Y041011D01*
X001565Y041034D01*
X001526Y041060D01*
X001490Y041089D01*
X001456Y041122D01*
X001425Y041157D01*
X001397Y041194D01*
X001373Y041234D01*
X001352Y041276D01*
X001334Y041319D01*
X001321Y041364D01*
X001311Y041410D01*
X001305Y041456D01*
X001303Y041503D01*
X038060Y018663D02*
X038062Y018710D01*
X038068Y018756D01*
X038078Y018802D01*
X038091Y018847D01*
X038109Y018890D01*
X038130Y018932D01*
X038154Y018972D01*
X038182Y019009D01*
X038213Y019044D01*
X038247Y019077D01*
X038283Y019106D01*
X038322Y019132D01*
X038363Y019155D01*
X038406Y019174D01*
X038450Y019190D01*
X038495Y019202D01*
X038541Y019210D01*
X038588Y019214D01*
X038634Y019214D01*
X038681Y019210D01*
X038727Y019202D01*
X038772Y019190D01*
X038816Y019174D01*
X038859Y019155D01*
X038900Y019132D01*
X038939Y019106D01*
X038975Y019077D01*
X039009Y019044D01*
X039040Y019009D01*
X039068Y018972D01*
X039092Y018932D01*
X039113Y018890D01*
X039131Y018847D01*
X039144Y018802D01*
X039154Y018756D01*
X039160Y018710D01*
X039162Y018663D01*
X039160Y018616D01*
X039154Y018570D01*
X039144Y018524D01*
X039131Y018479D01*
X039113Y018436D01*
X039092Y018394D01*
X039068Y018354D01*
X039040Y018317D01*
X039009Y018282D01*
X038975Y018249D01*
X038939Y018220D01*
X038900Y018194D01*
X038859Y018171D01*
X038816Y018152D01*
X038772Y018136D01*
X038727Y018124D01*
X038681Y018116D01*
X038634Y018112D01*
X038588Y018112D01*
X038541Y018116D01*
X038495Y018124D01*
X038450Y018136D01*
X038406Y018152D01*
X038363Y018171D01*
X038322Y018194D01*
X038283Y018220D01*
X038247Y018249D01*
X038213Y018282D01*
X038182Y018317D01*
X038154Y018354D01*
X038130Y018394D01*
X038109Y018436D01*
X038091Y018479D01*
X038078Y018524D01*
X038068Y018570D01*
X038062Y018616D01*
X038060Y018663D01*
X021307Y001227D02*
X021309Y001253D01*
X021315Y001279D01*
X021325Y001304D01*
X021338Y001327D01*
X021354Y001347D01*
X021374Y001365D01*
X021396Y001380D01*
X021419Y001392D01*
X021445Y001400D01*
X021471Y001404D01*
X021497Y001404D01*
X021523Y001400D01*
X021549Y001392D01*
X021573Y001380D01*
X021594Y001365D01*
X021614Y001347D01*
X021630Y001327D01*
X021643Y001304D01*
X021653Y001279D01*
X021659Y001253D01*
X021661Y001227D01*
X021659Y001201D01*
X021653Y001175D01*
X021643Y001150D01*
X021630Y001127D01*
X021614Y001107D01*
X021594Y001089D01*
X021572Y001074D01*
X021549Y001062D01*
X021523Y001054D01*
X021497Y001050D01*
X021471Y001050D01*
X021445Y001054D01*
X021419Y001062D01*
X021395Y001074D01*
X021374Y001089D01*
X021354Y001107D01*
X021338Y001127D01*
X021325Y001150D01*
X021315Y001175D01*
X021309Y001201D01*
X021307Y001227D01*
X020126Y001227D02*
X020128Y001253D01*
X020134Y001279D01*
X020144Y001304D01*
X020157Y001327D01*
X020173Y001347D01*
X020193Y001365D01*
X020215Y001380D01*
X020238Y001392D01*
X020264Y001400D01*
X020290Y001404D01*
X020316Y001404D01*
X020342Y001400D01*
X020368Y001392D01*
X020392Y001380D01*
X020413Y001365D01*
X020433Y001347D01*
X020449Y001327D01*
X020462Y001304D01*
X020472Y001279D01*
X020478Y001253D01*
X020480Y001227D01*
X020478Y001201D01*
X020472Y001175D01*
X020462Y001150D01*
X020449Y001127D01*
X020433Y001107D01*
X020413Y001089D01*
X020391Y001074D01*
X020368Y001062D01*
X020342Y001054D01*
X020316Y001050D01*
X020290Y001050D01*
X020264Y001054D01*
X020238Y001062D01*
X020214Y001074D01*
X020193Y001089D01*
X020173Y001107D01*
X020157Y001127D01*
X020144Y001150D01*
X020134Y001175D01*
X020128Y001201D01*
X020126Y001227D01*
X060003Y001238D02*
X060005Y001264D01*
X060011Y001290D01*
X060021Y001315D01*
X060034Y001338D01*
X060050Y001358D01*
X060070Y001376D01*
X060092Y001391D01*
X060115Y001403D01*
X060141Y001411D01*
X060167Y001415D01*
X060193Y001415D01*
X060219Y001411D01*
X060245Y001403D01*
X060269Y001391D01*
X060290Y001376D01*
X060310Y001358D01*
X060326Y001338D01*
X060339Y001315D01*
X060349Y001290D01*
X060355Y001264D01*
X060357Y001238D01*
X060355Y001212D01*
X060349Y001186D01*
X060339Y001161D01*
X060326Y001138D01*
X060310Y001118D01*
X060290Y001100D01*
X060268Y001085D01*
X060245Y001073D01*
X060219Y001065D01*
X060193Y001061D01*
X060167Y001061D01*
X060141Y001065D01*
X060115Y001073D01*
X060091Y001085D01*
X060070Y001100D01*
X060050Y001118D01*
X060034Y001138D01*
X060021Y001161D01*
X060011Y001186D01*
X060005Y001212D01*
X060003Y001238D01*
X061185Y001238D02*
X061187Y001264D01*
X061193Y001290D01*
X061203Y001315D01*
X061216Y001338D01*
X061232Y001358D01*
X061252Y001376D01*
X061274Y001391D01*
X061297Y001403D01*
X061323Y001411D01*
X061349Y001415D01*
X061375Y001415D01*
X061401Y001411D01*
X061427Y001403D01*
X061451Y001391D01*
X061472Y001376D01*
X061492Y001358D01*
X061508Y001338D01*
X061521Y001315D01*
X061531Y001290D01*
X061537Y001264D01*
X061539Y001238D01*
X061537Y001212D01*
X061531Y001186D01*
X061521Y001161D01*
X061508Y001138D01*
X061492Y001118D01*
X061472Y001100D01*
X061450Y001085D01*
X061427Y001073D01*
X061401Y001065D01*
X061375Y001061D01*
X061349Y001061D01*
X061323Y001065D01*
X061297Y001073D01*
X061273Y001085D01*
X061252Y001100D01*
X061232Y001118D01*
X061216Y001138D01*
X061203Y001161D01*
X061193Y001186D01*
X061187Y001212D01*
X061185Y001238D01*
X069462Y022300D02*
X069464Y022347D01*
X069470Y022393D01*
X069480Y022439D01*
X069493Y022484D01*
X069511Y022527D01*
X069532Y022569D01*
X069556Y022609D01*
X069584Y022646D01*
X069615Y022681D01*
X069649Y022714D01*
X069685Y022743D01*
X069724Y022769D01*
X069765Y022792D01*
X069808Y022811D01*
X069852Y022827D01*
X069897Y022839D01*
X069943Y022847D01*
X069990Y022851D01*
X070036Y022851D01*
X070083Y022847D01*
X070129Y022839D01*
X070174Y022827D01*
X070218Y022811D01*
X070261Y022792D01*
X070302Y022769D01*
X070341Y022743D01*
X070377Y022714D01*
X070411Y022681D01*
X070442Y022646D01*
X070470Y022609D01*
X070494Y022569D01*
X070515Y022527D01*
X070533Y022484D01*
X070546Y022439D01*
X070556Y022393D01*
X070562Y022347D01*
X070564Y022300D01*
X070562Y022253D01*
X070556Y022207D01*
X070546Y022161D01*
X070533Y022116D01*
X070515Y022073D01*
X070494Y022031D01*
X070470Y021991D01*
X070442Y021954D01*
X070411Y021919D01*
X070377Y021886D01*
X070341Y021857D01*
X070302Y021831D01*
X070261Y021808D01*
X070218Y021789D01*
X070174Y021773D01*
X070129Y021761D01*
X070083Y021753D01*
X070036Y021749D01*
X069990Y021749D01*
X069943Y021753D01*
X069897Y021761D01*
X069852Y021773D01*
X069808Y021789D01*
X069765Y021808D01*
X069724Y021831D01*
X069685Y021857D01*
X069649Y021886D01*
X069615Y021919D01*
X069584Y021954D01*
X069556Y021991D01*
X069532Y022031D01*
X069511Y022073D01*
X069493Y022116D01*
X069480Y022161D01*
X069470Y022207D01*
X069464Y022253D01*
X069462Y022300D01*
X069456Y041498D02*
X069458Y041545D01*
X069464Y041591D01*
X069474Y041637D01*
X069487Y041682D01*
X069505Y041725D01*
X069526Y041767D01*
X069550Y041807D01*
X069578Y041844D01*
X069609Y041879D01*
X069643Y041912D01*
X069679Y041941D01*
X069718Y041967D01*
X069759Y041990D01*
X069802Y042009D01*
X069846Y042025D01*
X069891Y042037D01*
X069937Y042045D01*
X069984Y042049D01*
X070030Y042049D01*
X070077Y042045D01*
X070123Y042037D01*
X070168Y042025D01*
X070212Y042009D01*
X070255Y041990D01*
X070296Y041967D01*
X070335Y041941D01*
X070371Y041912D01*
X070405Y041879D01*
X070436Y041844D01*
X070464Y041807D01*
X070488Y041767D01*
X070509Y041725D01*
X070527Y041682D01*
X070540Y041637D01*
X070550Y041591D01*
X070556Y041545D01*
X070558Y041498D01*
X070556Y041451D01*
X070550Y041405D01*
X070540Y041359D01*
X070527Y041314D01*
X070509Y041271D01*
X070488Y041229D01*
X070464Y041189D01*
X070436Y041152D01*
X070405Y041117D01*
X070371Y041084D01*
X070335Y041055D01*
X070296Y041029D01*
X070255Y041006D01*
X070212Y040987D01*
X070168Y040971D01*
X070123Y040959D01*
X070077Y040951D01*
X070030Y040947D01*
X069984Y040947D01*
X069937Y040951D01*
X069891Y040959D01*
X069846Y040971D01*
X069802Y040987D01*
X069759Y041006D01*
X069718Y041029D01*
X069679Y041055D01*
X069643Y041084D01*
X069609Y041117D01*
X069578Y041152D01*
X069550Y041189D01*
X069526Y041229D01*
X069505Y041271D01*
X069487Y041314D01*
X069474Y041359D01*
X069464Y041405D01*
X069458Y041451D01*
X069456Y041498D01*
M02*
