%
M48
M72
T01C0.0236
T02C0.0276
T03C0.0315
T04C0.0320
T05C0.0360
T06C0.0400
T07C0.0433
T08C0.0440
T09C0.0470
T10C0.0520
T11C0.0551
T12C0.0866
T13C0.1102
T14C0.1300
%
T01
X7059Y6619
X3665Y7517
X23997Y6888
X38373Y5454
T02
X4077Y4920
X9943Y4895
X11428Y5548
X11398Y7225
X17182Y6190
X19454Y6181
X22543Y7418
X27701Y7455
X27611Y6304
X31049Y5543
X32042Y7602
X35641Y7610
X40150Y8020
X41617Y6715
X40384Y6377
X41109Y5855
X41567Y5046
X45461Y6458
X48288Y6605
X50976Y6938
X52907Y6595
X54156Y6130
X54487Y6921
X57347Y7614
X57430Y6919
X59289Y6474
X62795Y8174
X61234Y8812
X59291Y8917
X57979Y8493
X57510Y8942
X56296Y10052
X53258Y9813
X51247Y10403
X51094Y8584
X52064Y8172
X53488Y8401
X60526Y11130
X60977Y11641
X61667Y10957
X59995Y12208
X57896Y13641
X57226Y13850
X56490Y14305
X58320Y14339
X59262Y14762
X58340Y15101
X56260Y16739
X61932Y17879
X63933Y16812
X65527Y16762
X67497Y17016
X72408Y18549
X74319Y18755
X75590Y20227
X81724Y21170
X77579Y23581
X72639Y25006
X62508Y25451
X60890Y25184
X59087Y25070
X62749Y22448
X60696Y22224
X60770Y20117
X62763Y19779
X54323Y19252
X52803Y19478
X53816Y21058
X47728Y22162
X44415Y22279
X46496Y25267
X31803Y21119
X22040Y17542
X13367Y15946
X9035Y14814
X4400Y13299
X3516Y12285
X5642Y11333
X10754Y12510
X25592Y9544
X37784Y9487
X38290Y11568
X43962Y12440
X48016Y15293
X46716Y15929
X46952Y16991
X32002Y17092
X11920Y18177
X8337Y18412
X1944Y18413
X21749Y4921
X23188Y4957
X63963Y14552
X64932Y15156
X67988Y13879
X68275Y13337
X68284Y12460
X72647Y13933
X77599Y12190
X80313Y12889
X75456Y9994
X70318Y9716
X66580Y9335
X64400Y10041
X66215Y10655
X72292Y7241
X74254Y7440
X75948Y7266
X78101Y7222
X81723Y9808
X68310Y7150
X81650Y17933
T03
X81813Y16768
X80813Y16768
X79813Y16768
X78592Y16755
X77592Y16755
X76592Y16755
X75592Y16755
X74592Y16755
X55025Y17210
X54120Y16381
X55025Y16210
X55025Y15210
X55024Y14144
X55024Y13144
X55024Y12144
X55018Y11072
X55018Y10072
X55018Y9072
X52018Y9072
X52018Y10072
X52018Y11072
X52024Y12144
X52024Y13144
X52024Y14144
X52025Y15210
X52025Y16210
X52025Y17210
X52020Y18269
X52020Y19269
X52020Y20269
X55020Y20269
X55020Y19269
X55020Y18269
X48635Y16835
X48635Y15835
X48635Y14835
X48630Y13768
X48630Y12768
X48630Y11768
X48626Y10704
X48626Y9704
X48626Y8704
X45626Y8704
X43997Y8771
X40997Y8771
X39171Y8508
X40997Y9771
X39176Y10586
X40997Y10771
X43997Y10771
X45626Y10704
X45626Y9704
X43997Y9771
X45630Y11768
X45630Y12768
X45630Y13768
X45635Y14835
X44306Y14998
X43606Y14998
X45635Y15835
X44074Y16508
X43074Y16508
X42023Y16564
X41023Y16564
X40065Y16583
X39065Y16583
X37918Y16592
X36918Y16592
X36086Y16565
X35086Y16565
X34085Y16579
X33085Y16579
X33340Y17849
X35340Y17849
X36800Y17851
X38800Y17851
X40222Y17845
X42222Y17845
X45635Y16835
X39946Y15212
X39246Y15212
X35945Y15189
X35245Y15189
X33176Y10586
X33171Y8508
X33159Y6439
X39159Y6439
X42999Y5212
X43999Y5212
X44999Y5212
X45999Y5212
X46999Y5212
X48280Y5245
X49280Y5245
X50280Y5245
X51564Y5277
X52564Y5277
X53564Y5277
X54564Y5277
X55564Y5277
X56564Y5277
X57564Y5277
X58564Y5277
X59981Y5306
X60981Y5306
X61981Y5306
X62981Y5306
X63981Y5306
X64981Y5306
X65981Y5306
X66981Y5306
X74627Y5136
X75627Y5136
X76627Y5136
X77627Y5136
X78627Y5136
X79838Y5113
X80838Y5113
X81838Y5113
X47280Y20219
X46280Y20219
X45280Y20219
X42222Y20845
X40222Y20845
X38800Y20851
X36800Y20851
X35340Y20849
X33340Y20849
X49731Y23179
X51602Y23175
X53426Y23168
X55256Y23149
X55256Y24149
X53426Y24168
X51602Y24175
X49731Y24179
X49731Y25179
X51602Y25175
X53426Y25168
X55256Y25149
X5654Y19792
X3654Y20292
X12440Y5037
X13440Y5037
X14440Y5037
T04
X59972Y7279
X60972Y7279
X61972Y7279
X62972Y7279
X63972Y7279
X64972Y7279
X65972Y7279
X66972Y7279
X51984Y21422
X50984Y21422
T05
X49440Y21236
X49440Y19736
X47905Y18447
X46405Y18447
X43766Y18800
X43766Y20300
X50293Y16719
X50293Y15219
X50324Y13645
X50324Y12145
X50353Y10791
X50353Y9291
X41110Y12393
X42738Y12825
X41110Y13893
X42738Y14325
X38634Y14220
X37007Y13845
X34939Y14045
X33491Y14042
X33491Y12542
X34939Y12545
X37007Y12345
X38634Y12720
X8409Y8093
X7475Y8093
X6587Y8093
X5653Y8093
X1605Y20064
X1605Y22064
T06
X7651Y19360
X9651Y19360
X79854Y13754
X80854Y13754
X81854Y13754
X82025Y25023
X81025Y25023
X80025Y25023
T07
X47402Y23876
X45432Y23876
X43472Y23876
X41502Y23876
X39522Y23876
X37552Y23876
X35592Y23876
X33622Y23876
X7917Y7109
X6145Y7109
T08
X27145Y9540
X28145Y9540
X29145Y9540
X29141Y15486
X28141Y15486
X27141Y15486
X27193Y21474
X28193Y21474
X29193Y21474
T09
X56853Y21918
X56887Y24810
X67687Y24810
X67653Y21918
X70003Y21964
X67589Y19023
X56789Y19023
X70003Y11164
T10
X6646Y23852
X4676Y23852
T11
X12673Y24398
X19957Y24398
X18382Y9831
X15429Y9831
T12
X9314Y7148
X4747Y7148
T13
X1807Y5187
X1970Y24621
X70146Y24962
X81031Y19462
X72944Y16922
X81187Y7997
X72944Y5454
X70026Y5161
T14
X28074Y11770
X28069Y17677
X28079Y23663
M30
