%
M48
M72
T01C0.0315
T02C0.0320
T03C0.0354
T04C0.0394
T05C0.0470
T06C0.0520
T07C0.1102
%
T01
X3388Y3738
X1813Y4900
X1913Y5900
X1813Y6900
X3318Y6913
X1913Y7900
X5701Y7772
X9701Y7772
X14295Y10035
X16031Y10202
X17852Y9951
X19285Y10404
X20626Y11225
X21921Y12065
X25547Y11979
X26547Y11979
X26547Y12979
X25547Y12979
X25547Y13979
X26547Y13979
X28230Y13762
X26547Y14979
X25547Y14979
X25547Y15979
X26547Y15979
X28206Y16080
X26547Y16979
X25547Y16979
X25547Y17979
X26547Y17979
X26547Y18979
X25547Y18979
X23722Y19354
X25547Y19979
X26547Y19979
X26547Y20979
X25547Y20979
X25547Y21979
X26547Y21979
X28464Y22195
X29392Y20974
X29392Y19974
X29392Y18974
X29392Y17974
X31113Y16353
X21921Y16065
X20626Y15225
X19285Y14404
X17852Y13951
X16031Y16722
X14308Y16676
X15526Y19282
X16526Y19282
X23722Y23036
X28431Y25005
X29431Y25005
X30431Y25005
X31431Y25005
X31502Y22166
X43120Y20263
X44620Y20263
X54997Y16699
X55747Y16199
X57044Y16307
X55747Y17199
X57044Y17307
X58439Y17433
X61662Y18909
X63439Y18996
X64939Y18996
X59662Y19409
X57061Y14852
X56061Y14852
X55083Y13873
X53553Y13905
X55765Y12952
X56998Y13107
X58473Y13138
X56998Y12107
X55765Y11952
X55015Y12452
X56055Y10648
X57055Y10648
X58473Y10138
X55432Y9464
X55775Y8530
X57044Y8718
X58471Y8855
X57044Y7718
X55775Y7530
X55025Y8030
X51982Y9442
X47929Y8250
X46429Y8250
X51520Y6663
X54809Y6508
X56008Y6211
X57008Y6211
X58471Y5855
X58470Y4606
X57051Y4450
X55750Y4217
X55000Y3717
X55750Y3217
X57051Y3450
X53962Y3228
X52318Y2300
X51318Y2300
X50318Y2300
X49318Y2300
X47448Y2242
X46448Y2242
X45448Y2242
X43515Y2440
X42515Y2440
X37464Y1403
X35372Y2968
X35372Y3968
X37460Y4145
X35377Y5295
X35377Y6295
X32377Y6295
X32377Y5295
X32372Y3968
X32372Y2968
X26547Y2979
X25547Y2979
X25547Y3979
X26547Y3979
X26547Y4979
X25547Y4979
X25547Y5979
X26547Y5979
X27975Y6510
X26547Y6979
X25547Y6979
X25547Y7979
X26547Y7979
X27869Y8718
X26547Y8979
X25547Y8979
X25547Y9979
X26547Y9979
X26547Y10979
X25547Y10979
X31201Y11943
X32376Y10875
X32376Y9875
X35376Y9875
X35376Y10875
X35382Y8621
X35382Y7621
X32382Y7621
X32382Y8621
X46171Y11542
X47671Y11542
X47075Y13952
X45575Y13952
X58439Y14433
X62439Y14433
X65439Y14433
X65473Y10138
X62473Y10138
X62471Y5855
X65471Y5855
X57015Y1884
X56015Y1884
X58470Y1606
X62470Y1606
X65470Y1606
X54157Y4745
X19596Y2364
X18596Y2364
X17596Y2364
X16596Y2364
X15596Y2364
X14596Y2364
X13596Y2364
X12596Y2364
X11198Y1950
X11184Y5521
X4038Y10694
X3038Y10694
X2973Y12741
X2981Y15573
X1813Y17900
X1913Y18900
X1813Y19900
X1913Y20900
T02
X12579Y5254
X13579Y5254
X14579Y5254
X15579Y5254
X16579Y5254
X17579Y5254
X18579Y5254
X19579Y5254
T03
X40583Y12916
X40583Y13916
X40583Y14916
X43583Y14916
X43583Y13916
X43583Y12916
X44524Y11574
X44524Y10574
X44524Y9574
X44497Y8260
X44497Y7260
X44497Y6260
X41497Y6260
X41497Y7260
X41497Y8260
X41524Y9574
X41524Y10574
X41524Y11574
X40601Y16380
X40601Y17380
X40601Y18380
X43601Y18380
X43601Y17380
X43601Y16380
T04
X45864Y16798
X45864Y17798
X48040Y17826
X50085Y17887
X52179Y17911
X52179Y16911
X50085Y16887
X48040Y16826
X48040Y15826
X50085Y15887
X52179Y15911
X45864Y15798
X61554Y22850
X55717Y22993
X67429Y18166
X70429Y18166
T05
X70033Y21450
X70006Y24652
X59206Y24652
X57584Y24635
X57637Y21525
X59233Y21450
X46837Y21525
X46784Y24635
T06
X44398Y23744
X42428Y23744
X40135Y23731
X38165Y23731
X68780Y15286
X68780Y13316
X68780Y11346
X68780Y9366
X68780Y7396
X68780Y5426
X1946Y22700
T07
X1857Y2514
X5330Y2893
X34331Y23649
X21959Y24448
X1801Y24787
X69854Y2473
M30
