%
M48
M72
T01C0.0315
T02C0.0320
T03C0.0354
T04C0.0394
T05C0.0470
T06C0.0520
T07C0.1102
%
T01
X11611Y2365
X12611Y2365
X13611Y2365
X14611Y2365
X15611Y2365
X16611Y2365
X17611Y2365
X18611Y2365
X20080Y2086
X25500Y2979
X26500Y2979
X26500Y3979
X25500Y3979
X25500Y4979
X26500Y4979
X26500Y5979
X25500Y5979
X25500Y6979
X26500Y6979
X27929Y6510
X26500Y7979
X25500Y7979
X27822Y8718
X26500Y8979
X25500Y8979
X25500Y9979
X26500Y9979
X26500Y10979
X25500Y10979
X25500Y11979
X26500Y11979
X26500Y12979
X25500Y12979
X25500Y13979
X26500Y13979
X28184Y13762
X26500Y14979
X25500Y14979
X25500Y15979
X26500Y15979
X28159Y16080
X26500Y16979
X25500Y16979
X25500Y17979
X26500Y17979
X26500Y18979
X25500Y18979
X23676Y19354
X25500Y19979
X26500Y19979
X26500Y20979
X25500Y20979
X25500Y21979
X26500Y21979
X28418Y22195
X29346Y20974
X29346Y19974
X29346Y18974
X29346Y17974
X31067Y16353
X21486Y17979
X19449Y17993
X16479Y19282
X15479Y19282
X23676Y23036
X28594Y25296
X29594Y25296
X30594Y25296
X31594Y25296
X31455Y22166
X42726Y20103
X44226Y20103
X54951Y16699
X55701Y16199
X56997Y16307
X56997Y17307
X55701Y17199
X58392Y17433
X61615Y18909
X63393Y18996
X64893Y18996
X59615Y19409
X57014Y14852
X56014Y14852
X55036Y13873
X53507Y13905
X55718Y12952
X54968Y12452
X55718Y11952
X56952Y12107
X56952Y13107
X58427Y13138
X58392Y14433
X62392Y14433
X65392Y14433
X57009Y10648
X56009Y10648
X58427Y10138
X55386Y9464
X56998Y8718
X55729Y8530
X54979Y8030
X55729Y7530
X56998Y7718
X54762Y6508
X55961Y6211
X56961Y6211
X58424Y5855
X58424Y4606
X57005Y4450
X55704Y4217
X54954Y3717
X55704Y3217
X57005Y3450
X53916Y3228
X52272Y2300
X51272Y2300
X50272Y2300
X49272Y2300
X47402Y2242
X46402Y2242
X45402Y2242
X43469Y2440
X42469Y2440
X37418Y1403
X35325Y2968
X35325Y3968
X37413Y4145
X35331Y5295
X35331Y6295
X32331Y6295
X32331Y5295
X32325Y3968
X32325Y2968
X32335Y7621
X32335Y8621
X35335Y8621
X35335Y7621
X35329Y9875
X35329Y10875
X32329Y10875
X32329Y9875
X31076Y12126
X45528Y13952
X47028Y13952
X47624Y11542
X46124Y11542
X51936Y9442
X47883Y8250
X46383Y8250
X51474Y6663
X54111Y4745
X55969Y1884
X56969Y1884
X58424Y1606
X62424Y1606
X65424Y1606
X65424Y5855
X62424Y5855
X58424Y8855
X62427Y10138
X65427Y10138
X20080Y5140
X8522Y5127
X8503Y7249
X1867Y7900
X1767Y6900
X1867Y5900
X1767Y4900
X1882Y9921
X1882Y10921
X12291Y10511
X12314Y11774
X1767Y17900
X1867Y18900
X1767Y19900
X1867Y20900
T02
X11626Y5328
X12626Y5328
X13626Y5328
X14626Y5328
X15626Y5328
X16626Y5328
X17626Y5328
X18626Y5328
T03
X40536Y12916
X40536Y13916
X40536Y14916
X43536Y14916
X43536Y13916
X43536Y12916
X44478Y11574
X44478Y10574
X44478Y9574
X41478Y9574
X41478Y10574
X41478Y11574
X41450Y8260
X41450Y7260
X41450Y6260
X44450Y6260
X44450Y7260
X44450Y8260
X43555Y16380
X43555Y17380
X43555Y18380
X40555Y18380
X40555Y17380
X40555Y16380
T04
X45817Y16798
X45817Y15798
X47994Y15826
X50039Y15887
X52132Y15911
X52132Y16911
X50039Y16887
X47994Y16826
X47994Y17826
X50039Y17887
X52132Y17911
X45817Y17798
X55671Y22993
X61508Y22850
X67383Y18166
X70383Y18166
T05
X69987Y21450
X69960Y24652
X59160Y24652
X57537Y24635
X57590Y21525
X59187Y21450
X46790Y21525
X46737Y24635
T06
X44352Y23744
X42382Y23744
X40089Y23731
X38119Y23731
X68733Y15286
X68733Y13316
X68733Y11346
X68733Y9366
X68733Y7396
X68733Y5426
X1899Y22700
T07
X1810Y2514
X5284Y2893
X34284Y23649
X21913Y24448
X1754Y24787
X69807Y2473
M30
