G75*
G70*
%OFA0B0*%
%FSLAX24Y24*%
%IPPOS*%
%LPD*%
%AMOC8*
5,1,8,0,0,1.08239X$1,22.5*
%
%ADD10OC8,0.0787*%
%ADD11C,0.1024*%
%ADD12C,0.1181*%
%ADD13R,0.0630X0.0709*%
%ADD14OC8,0.1102*%
%ADD15OC8,0.1000*%
%ADD16C,0.0689*%
%ADD17OC8,0.1240*%
%ADD18C,0.0660*%
%ADD19C,0.1500*%
%ADD20C,0.0700*%
%ADD21OC8,0.0760*%
%ADD22C,0.1260*%
%ADD23R,0.0787X0.0787*%
%ADD24C,0.0787*%
%ADD25R,0.0790X0.0430*%
%ADD26R,0.0709X0.0236*%
%ADD27R,0.0354X0.0315*%
%ADD28OC8,0.0860*%
%ADD29R,0.0709X0.0630*%
%ADD30R,0.0870X0.0240*%
%ADD31C,0.0700*%
%ADD32R,0.2390X0.2390*%
%ADD33C,0.0760*%
%ADD34C,0.0240*%
%ADD35C,0.0160*%
%ADD36C,0.0320*%
%ADD37C,0.0760*%
%ADD38C,0.0860*%
%ADD39C,0.0120*%
%ADD40C,0.1378*%
%ADD41C,0.0500*%
%ADD42C,0.0400*%
%ADD43C,0.0560*%
D10*
X025500Y002979D03*
X026500Y002979D03*
X026500Y003979D03*
X025500Y003979D03*
X025500Y004979D03*
X026500Y004979D03*
X026500Y005979D03*
X025500Y005979D03*
X025500Y006979D03*
X026500Y006979D03*
X026500Y007979D03*
X025500Y007979D03*
X025500Y008979D03*
X026500Y008979D03*
X026500Y009979D03*
X025500Y009979D03*
X025500Y010979D03*
X026500Y010979D03*
X026500Y011979D03*
X025500Y011979D03*
X025500Y012979D03*
X026500Y012979D03*
X026500Y013979D03*
X025500Y013979D03*
X025500Y014979D03*
X026500Y014979D03*
X026500Y015979D03*
X025500Y015979D03*
X025500Y016979D03*
X026500Y016979D03*
X026500Y017979D03*
X025500Y017979D03*
X025500Y018979D03*
X026500Y018979D03*
X026500Y019979D03*
X025500Y019979D03*
X025500Y020979D03*
X026500Y020979D03*
X026500Y021979D03*
X025500Y021979D03*
X056014Y014852D03*
X057014Y014852D03*
X057009Y010648D03*
X056009Y010648D03*
X055961Y006211D03*
X056961Y006211D03*
X056969Y001884D03*
X055969Y001884D03*
D11*
X058424Y001606D03*
X062424Y001606D03*
X065424Y001606D03*
X058424Y004606D03*
X058424Y005855D03*
X062424Y005855D03*
X065424Y005855D03*
X058424Y008855D03*
X058427Y010138D03*
X062427Y010138D03*
X065427Y010138D03*
X058427Y013138D03*
X058392Y014433D03*
X062392Y014433D03*
X065392Y014433D03*
X058392Y017433D03*
D12*
X068143Y015286D02*
X069324Y015286D01*
X069324Y013316D02*
X068143Y013316D01*
X068143Y011346D02*
X069324Y011346D01*
X069324Y009366D02*
X068143Y009366D01*
X068143Y007396D02*
X069324Y007396D01*
X069324Y005426D02*
X068143Y005426D01*
D13*
X059309Y007301D03*
X058206Y007301D03*
X058188Y011634D03*
X059290Y011634D03*
X059264Y015941D03*
X058162Y015941D03*
X053096Y021551D03*
X051994Y021551D03*
X052148Y024596D03*
X053251Y024596D03*
X064907Y023836D03*
X066010Y023836D03*
X066042Y022537D03*
X064940Y022537D03*
X064935Y021350D03*
X066037Y021350D03*
X066036Y025223D03*
X064934Y025223D03*
X036313Y019563D03*
X035210Y019563D03*
X035126Y016903D03*
X036228Y016903D03*
X036151Y015023D03*
X035048Y015023D03*
X035079Y013174D03*
X036182Y013174D03*
X037345Y009821D03*
X038447Y009821D03*
X038457Y007643D03*
X037355Y007643D03*
X037400Y005299D03*
X038503Y005299D03*
X038508Y002984D03*
X037405Y002984D03*
X030321Y003912D03*
X029218Y003912D03*
X029199Y005303D03*
X030302Y005303D03*
X030262Y007319D03*
X029160Y007319D03*
X029174Y009179D03*
X030277Y009179D03*
X045423Y003017D03*
X046526Y003017D03*
X049170Y003044D03*
X050273Y003044D03*
X051251Y003045D03*
X052354Y003045D03*
X058181Y002957D03*
X059284Y002957D03*
X007877Y008439D03*
X006774Y008439D03*
X003026Y012362D03*
X001924Y012362D03*
X028418Y023440D03*
X029520Y023440D03*
X026632Y024648D03*
X025530Y024648D03*
D14*
X042726Y020103D03*
X045528Y013952D03*
X047624Y011542D03*
X046383Y008250D03*
X064893Y018996D03*
D15*
X063393Y018996D03*
X070383Y018166D03*
X047028Y013952D03*
X046124Y011542D03*
X047883Y008250D03*
X044226Y020103D03*
X001899Y022700D03*
D16*
X045473Y017798D02*
X046162Y017798D01*
X047649Y017826D02*
X048338Y017826D01*
X049694Y017887D02*
X050383Y017887D01*
X051788Y017911D02*
X052477Y017911D01*
X052477Y016911D02*
X051788Y016911D01*
X050383Y016887D02*
X049694Y016887D01*
X048338Y016826D02*
X047649Y016826D01*
X046162Y016798D02*
X045473Y016798D01*
X045473Y015798D02*
X046162Y015798D01*
X047649Y015826D02*
X048338Y015826D01*
X049694Y015887D02*
X050383Y015887D01*
X051788Y015911D02*
X052477Y015911D01*
D17*
X057590Y021525D03*
X059187Y021450D03*
X059160Y024652D03*
X057537Y024635D03*
X046737Y024635D03*
X046790Y021525D03*
X069987Y021450D03*
X069960Y024652D03*
D18*
X064940Y022537D02*
X064627Y022850D01*
X061508Y022850D01*
X059193Y023050D02*
X058111Y023050D01*
X057537Y023624D01*
X057590Y021525D02*
X057139Y021525D01*
X057156Y021525D02*
X057590Y021525D01*
X059760Y019554D02*
X060513Y020307D01*
X061095Y020307D01*
X059760Y019554D02*
X059615Y019409D01*
X060783Y021460D02*
X064825Y021460D01*
X051056Y020160D02*
X050039Y019142D01*
X050039Y017887D01*
X047994Y017826D02*
X047994Y020322D01*
X046790Y021525D01*
X044189Y021092D02*
X044189Y020141D01*
X044226Y020103D02*
X044687Y019642D01*
X043885Y018380D02*
X043225Y018380D01*
X043225Y017380D02*
X043885Y017380D01*
X043885Y016380D02*
X043225Y016380D01*
X040885Y016380D02*
X040225Y016380D01*
X040225Y017380D02*
X040885Y017380D01*
X040885Y018380D02*
X040225Y018380D01*
X044189Y021092D02*
X042382Y022899D01*
X042382Y023744D01*
X050039Y015887D02*
X050039Y012089D01*
X047523Y009574D01*
X044478Y009574D01*
X044148Y009574D02*
X044808Y009574D01*
X044808Y010574D02*
X044148Y010574D01*
X041808Y010574D02*
X041148Y010574D01*
X041148Y011574D02*
X041808Y011574D01*
X044148Y011574D02*
X044808Y011574D01*
X044478Y011574D02*
X046093Y011574D01*
X046124Y011542D01*
X043866Y012916D02*
X043206Y012916D01*
X040866Y012916D02*
X040206Y012916D01*
X040206Y013916D02*
X040866Y013916D01*
X040866Y014916D02*
X040206Y014916D01*
X043206Y014916D02*
X043866Y014916D01*
X043536Y014916D02*
X044564Y014916D01*
X045528Y013952D01*
X043866Y013916D02*
X043206Y013916D01*
X035989Y010875D02*
X035329Y010875D01*
X035329Y009875D02*
X035989Y009875D01*
X035995Y008621D02*
X035335Y008621D01*
X035335Y007621D02*
X035995Y007621D01*
X035991Y006295D02*
X035331Y006295D01*
X035331Y005295D02*
X035991Y005295D01*
X035985Y003968D02*
X035325Y003968D01*
X035325Y002968D02*
X035985Y002968D01*
X032325Y002968D02*
X031665Y002968D01*
X031665Y003968D02*
X032325Y003968D01*
X032331Y005295D02*
X031671Y005295D01*
X031671Y006295D02*
X032331Y006295D01*
X032335Y007621D02*
X031675Y007621D01*
X031675Y008621D02*
X032335Y008621D01*
X032329Y009875D02*
X031669Y009875D01*
X031669Y010875D02*
X032329Y010875D01*
X041148Y009574D02*
X041808Y009574D01*
X041780Y008260D02*
X041120Y008260D01*
X041120Y007260D02*
X041780Y007260D01*
X044120Y007260D02*
X044780Y007260D01*
X044780Y008260D02*
X044120Y008260D01*
X044450Y008260D02*
X046383Y008250D01*
X048095Y006260D02*
X050215Y008380D01*
X050215Y009573D01*
X052167Y011526D01*
X052167Y015876D01*
X052132Y015911D01*
X048095Y006260D02*
X044450Y006260D01*
X044120Y006260D02*
X044780Y006260D01*
X041780Y006260D02*
X041120Y006260D01*
X045402Y002572D02*
X045402Y001912D01*
X046402Y001912D02*
X046402Y002572D01*
X047402Y002572D02*
X047402Y001912D01*
X018611Y002035D02*
X018611Y002695D01*
X017611Y002695D02*
X017611Y002035D01*
X016611Y002035D02*
X016611Y002695D01*
X015611Y002695D02*
X015611Y002035D01*
X014611Y002035D02*
X014611Y002695D01*
X013611Y002695D02*
X013611Y002035D01*
X012611Y002035D02*
X012611Y002695D01*
X011611Y002695D02*
X011611Y002035D01*
D19*
X067383Y018166D03*
D20*
X065843Y020307D02*
X066235Y020699D01*
X066235Y021350D01*
X066037Y021350D01*
X066042Y021355D01*
X066042Y022537D01*
X066010Y022570D01*
X066010Y023836D01*
X066235Y021350D02*
X067198Y021350D01*
X067651Y020898D01*
X065843Y020307D02*
X061095Y020307D01*
X059615Y019759D02*
X059615Y019059D01*
X061615Y019259D02*
X061615Y018559D01*
X059187Y021178D02*
X058168Y020160D01*
X051056Y020160D01*
X051968Y021525D02*
X046790Y021525D01*
X053123Y021525D02*
X056153Y021525D01*
X057590Y021525D01*
X059187Y021450D02*
X059187Y021178D01*
X057537Y023624D02*
X057537Y024635D01*
X053289Y024635D01*
X052109Y024635D02*
X046737Y024635D01*
X018626Y005678D02*
X018626Y004978D01*
X017626Y004978D02*
X017626Y005678D01*
X016626Y005678D02*
X016626Y004978D01*
X015626Y004978D02*
X015626Y005678D01*
X014626Y005678D02*
X014626Y004978D01*
X013626Y004978D02*
X013626Y005678D01*
X012626Y005678D02*
X012626Y004978D01*
X011626Y004978D02*
X011626Y005678D01*
X049272Y002650D02*
X049272Y001950D01*
X050272Y001950D02*
X050272Y002650D01*
X051272Y002650D02*
X051272Y001950D01*
X052272Y001950D02*
X052272Y002650D01*
D21*
X054954Y003717D03*
X055704Y003217D03*
X057005Y003450D03*
X055704Y004217D03*
X057005Y004450D03*
X056998Y007718D03*
X055729Y007530D03*
X054979Y008030D03*
X055729Y008530D03*
X056998Y008718D03*
X055718Y011952D03*
X054968Y012452D03*
X055718Y012952D03*
X056952Y013107D03*
X056952Y012107D03*
X055701Y016199D03*
X054951Y016699D03*
X055701Y017199D03*
X056997Y017307D03*
X056997Y016307D03*
D22*
X044352Y023114D02*
X044352Y024374D01*
X042382Y024374D02*
X042382Y023114D01*
X040089Y023101D02*
X040089Y024361D01*
X038119Y024361D02*
X038119Y023101D01*
D23*
X001767Y004900D03*
D24*
X001867Y005900D03*
X001767Y006900D03*
X001867Y007900D03*
X001767Y017900D03*
X001867Y018900D03*
X001767Y019900D03*
X001867Y020900D03*
D25*
X004498Y017102D03*
X004498Y016102D03*
X004498Y015102D03*
X004498Y014102D03*
X004498Y013102D03*
X004498Y012102D03*
X004498Y011102D03*
X004498Y010102D03*
X008038Y010102D03*
X008038Y011102D03*
X008038Y012102D03*
X008038Y013102D03*
X008038Y014102D03*
X008038Y015102D03*
X008038Y016102D03*
X008038Y017102D03*
D26*
X017481Y016451D03*
X017481Y015951D03*
X017481Y015451D03*
X017481Y014951D03*
X017481Y014451D03*
X017481Y013951D03*
X017481Y013451D03*
X017481Y012951D03*
X017481Y012451D03*
X021014Y012451D03*
X021014Y012951D03*
X021014Y013451D03*
X021014Y013951D03*
X021014Y014451D03*
X021014Y014951D03*
X021014Y015451D03*
X021014Y015951D03*
X021005Y016451D03*
D27*
X005592Y008439D03*
X004765Y008065D03*
X005592Y007691D03*
D28*
X001882Y009921D03*
X001882Y010921D03*
X029346Y017974D03*
X029346Y018974D03*
X029346Y019974D03*
X029346Y020974D03*
X029594Y025296D03*
X028594Y025296D03*
X030594Y025296D03*
X031594Y025296D03*
D29*
X022142Y022490D03*
X020526Y022562D03*
X020526Y021460D03*
X022142Y021388D03*
X022404Y013671D03*
X022404Y012569D03*
X003067Y006484D03*
X003067Y005382D03*
D30*
X019184Y019078D03*
X019184Y019578D03*
X019184Y020078D03*
X019184Y020578D03*
X021244Y020578D03*
X021244Y020078D03*
X021244Y019578D03*
X021244Y019078D03*
D31*
X016479Y019282D03*
X015479Y019282D03*
D32*
X015409Y021655D03*
X010487Y021655D03*
X005566Y021655D03*
D33*
X038094Y023756D02*
X038119Y023731D01*
X038094Y023756D02*
X038094Y025142D01*
X038583Y025631D01*
X043860Y025631D01*
X044352Y025139D01*
X044352Y023744D01*
X042382Y023744D02*
X042369Y023731D01*
X040089Y023731D01*
X055671Y022993D02*
X055671Y022007D01*
X056153Y021525D01*
X061615Y018909D02*
X061615Y015210D01*
X062392Y014433D01*
X068733Y013316D02*
X070358Y013316D01*
X070655Y013614D01*
X070655Y017894D01*
X070383Y018166D01*
X067651Y020898D01*
X069960Y021477D02*
X069960Y024652D01*
X069389Y025223D01*
X066036Y025223D01*
X064934Y025223D02*
X059730Y025223D01*
X059160Y024652D01*
X059187Y024625D01*
X069960Y021477D02*
X069987Y021450D01*
X067383Y018166D02*
X066553Y018996D01*
X064893Y018996D01*
X063306Y018909D02*
X061615Y018909D01*
X043469Y002820D02*
X043469Y002060D01*
X042469Y002060D02*
X042469Y002820D01*
D34*
X006832Y001899D02*
X006537Y001559D01*
X010782Y001559D01*
X010782Y005290D01*
X010522Y005549D01*
X010116Y005549D01*
X009992Y005425D01*
X009786Y005340D01*
X009564Y005340D01*
X009467Y005380D01*
X009120Y005380D01*
X009138Y005336D01*
X009161Y005254D01*
X009172Y005169D01*
X009172Y005127D01*
X008522Y005127D01*
X008522Y005127D01*
X009172Y005127D01*
X009172Y005084D01*
X009161Y005000D01*
X009138Y004917D01*
X009106Y004838D01*
X009063Y004765D01*
X009011Y004697D01*
X008951Y004637D01*
X008884Y004585D01*
X008810Y004542D01*
X008731Y004510D01*
X008649Y004488D01*
X008564Y004477D01*
X008522Y004477D01*
X008522Y005127D01*
X008522Y005127D01*
X007872Y005127D01*
X007872Y005169D01*
X007883Y005254D01*
X007905Y005336D01*
X007923Y005380D01*
X003861Y005380D01*
X003861Y004979D01*
X003794Y004818D01*
X003671Y004694D01*
X003651Y004686D01*
X003651Y003702D01*
X003736Y003888D01*
X003736Y003888D01*
X004079Y004284D01*
X004079Y004284D01*
X004519Y004567D01*
X004519Y004567D01*
X005022Y004715D01*
X005546Y004715D01*
X006048Y004567D01*
X006048Y004567D01*
X006489Y004284D01*
X006489Y004284D01*
X006832Y003888D01*
X006832Y003888D01*
X007049Y003412D01*
X007049Y003412D01*
X007124Y002893D01*
X007049Y002375D01*
X007049Y002375D01*
X006832Y001899D01*
X006832Y001899D01*
X006838Y001913D02*
X010782Y001913D01*
X010782Y001675D02*
X006638Y001675D01*
X006947Y002152D02*
X010782Y002152D01*
X010782Y002390D02*
X007051Y002390D01*
X007086Y002629D02*
X010782Y002629D01*
X010782Y002867D02*
X007120Y002867D01*
X007093Y003106D02*
X010782Y003106D01*
X010782Y003344D02*
X007059Y003344D01*
X006971Y003583D02*
X010782Y003583D01*
X010782Y003821D02*
X006862Y003821D01*
X006683Y004060D02*
X010782Y004060D01*
X010782Y004298D02*
X006467Y004298D01*
X006095Y004537D02*
X008247Y004537D01*
X008234Y004542D02*
X008312Y004510D01*
X008395Y004488D01*
X008479Y004477D01*
X008522Y004477D01*
X008522Y005127D01*
X008522Y005127D01*
X007872Y005127D01*
X007872Y005084D01*
X007883Y005000D01*
X007905Y004917D01*
X007937Y004838D01*
X007980Y004765D01*
X008032Y004697D01*
X008092Y004637D01*
X008160Y004585D01*
X008234Y004542D01*
X008522Y004537D02*
X008522Y004537D01*
X008522Y004775D02*
X008522Y004775D01*
X008522Y005014D02*
X008522Y005014D01*
X008796Y004537D02*
X010782Y004537D01*
X010782Y004775D02*
X009069Y004775D01*
X009162Y005014D02*
X010782Y005014D01*
X010782Y005252D02*
X009161Y005252D01*
X007883Y005252D02*
X003861Y005252D01*
X003861Y005014D02*
X007881Y005014D01*
X007974Y004775D02*
X003752Y004775D01*
X003651Y004537D02*
X004472Y004537D01*
X004101Y004298D02*
X003651Y004298D01*
X003651Y004060D02*
X003884Y004060D01*
X004079Y004284D02*
X004079Y004284D01*
X003705Y003821D02*
X003651Y003821D01*
X001767Y004900D02*
X001306Y004900D01*
X000757Y005449D01*
X000757Y013689D01*
X001171Y014102D01*
X004498Y014102D01*
X004498Y014102D01*
X004498Y013102D01*
X004498Y012102D01*
X004498Y011102D01*
X004498Y010102D01*
X001882Y009921D02*
X001882Y007916D01*
X001867Y007900D01*
X003026Y008755D02*
X003711Y008070D01*
X004760Y008070D01*
X004765Y008065D01*
X005592Y008439D02*
X006774Y008439D01*
X006774Y008439D01*
X008264Y006484D02*
X009110Y007330D01*
X012291Y010511D01*
X013100Y009840D02*
X022367Y009840D01*
X023162Y010635D01*
X023162Y014117D01*
X022834Y014445D01*
X021021Y014445D01*
X021014Y014451D01*
X021014Y013951D02*
X022029Y013951D01*
X022404Y013671D01*
X021427Y013451D02*
X022404Y012569D01*
X021014Y012451D02*
X020110Y012406D01*
X019500Y011808D01*
X012314Y011774D01*
X010961Y012447D02*
X017477Y012447D01*
X017481Y012451D01*
X017476Y012947D02*
X017481Y012951D01*
X017476Y012947D02*
X010618Y012947D01*
X008774Y011102D01*
X008038Y011102D01*
X008038Y010102D02*
X008616Y010102D01*
X010961Y012447D01*
X010108Y013445D02*
X008765Y012102D01*
X008038Y012102D01*
X008038Y013102D02*
X008762Y013102D01*
X009591Y013931D01*
X017461Y013931D01*
X017481Y013951D01*
X017481Y013451D02*
X017475Y013445D01*
X010108Y013445D01*
X008387Y014451D02*
X008038Y014102D01*
X008387Y014451D02*
X017481Y014451D01*
X017474Y014944D02*
X017481Y014951D01*
X017474Y014944D02*
X015613Y014944D01*
X015455Y015102D01*
X008038Y015102D01*
X008038Y016102D02*
X015211Y016102D01*
X015856Y015458D01*
X017474Y015458D01*
X017481Y015451D01*
X017481Y015951D02*
X017460Y015972D01*
X016255Y015972D01*
X015382Y016845D01*
X008295Y016845D01*
X008038Y017102D01*
X010487Y018855D02*
X011166Y018177D01*
X015006Y018177D01*
X015062Y018121D01*
X016732Y016451D01*
X017481Y016451D01*
X019910Y016682D02*
X019910Y012583D01*
X020110Y012406D01*
X021014Y013451D02*
X021427Y013451D01*
X023406Y014952D02*
X024081Y014278D01*
X024081Y013243D01*
X024366Y012958D01*
X025478Y012958D01*
X025500Y012979D01*
X025500Y011979D02*
X025454Y011933D01*
X023904Y011933D01*
X023662Y011691D01*
X023662Y009764D01*
X023141Y009244D01*
X013614Y009244D01*
X011626Y007256D01*
X011626Y005328D01*
X012626Y005328D02*
X012626Y007392D01*
X013799Y008565D01*
X023643Y008565D01*
X024198Y009120D01*
X024198Y010703D01*
X024474Y010979D01*
X025500Y010979D01*
X026500Y009979D02*
X027436Y009979D01*
X027442Y009973D01*
X027767Y009973D01*
X030940Y013146D01*
X035051Y013146D01*
X035079Y013174D01*
X033610Y011306D02*
X032789Y012126D01*
X031076Y012126D01*
X029215Y010265D01*
X028922Y010265D01*
X027822Y009165D01*
X027822Y008718D02*
X027084Y007979D01*
X026500Y007979D01*
X025500Y007979D02*
X014784Y007979D01*
X013615Y006810D01*
X013615Y005339D01*
X013626Y005328D01*
X014614Y005340D02*
X014626Y005328D01*
X014614Y005340D02*
X014614Y006724D01*
X015340Y007451D01*
X021417Y007451D01*
X021888Y006979D01*
X025500Y006979D01*
X026500Y006979D02*
X027256Y006979D01*
X028822Y008545D01*
X028822Y008826D01*
X029174Y009179D01*
X030277Y009179D02*
X030281Y009183D01*
X030281Y010559D01*
X030597Y010875D01*
X032329Y010875D01*
X033610Y011306D02*
X033610Y009232D01*
X032335Y008621D02*
X031038Y008621D01*
X030397Y007980D01*
X030397Y007454D01*
X030262Y007319D01*
X029160Y007319D02*
X028945Y007104D01*
X028945Y006407D01*
X027518Y004979D01*
X026500Y004979D01*
X025500Y004979D02*
X022090Y004979D01*
X020560Y006510D01*
X016812Y006510D01*
X016637Y006334D01*
X016637Y005339D01*
X016626Y005328D01*
X015626Y005328D02*
X015626Y005328D01*
X015626Y006524D01*
X016038Y006937D01*
X021023Y006937D01*
X021981Y005979D01*
X025500Y005979D01*
X027876Y003979D02*
X029199Y005303D01*
X030302Y005303D02*
X031294Y006295D01*
X032331Y006295D01*
X038503Y005299D02*
X039201Y004483D01*
X053027Y004483D01*
X053630Y005420D01*
X053630Y007517D01*
X054428Y008051D01*
X054957Y008051D01*
X054979Y008030D01*
X055729Y008530D02*
X055729Y009121D01*
X055386Y009464D01*
X054942Y010498D02*
X053123Y008730D01*
X053123Y005811D01*
X052496Y005132D01*
X052393Y005132D01*
X052210Y004950D01*
X039657Y004950D01*
X039366Y005241D01*
X039366Y006735D01*
X038457Y007643D01*
X039914Y008355D02*
X039914Y005840D01*
X039396Y003980D02*
X038508Y003091D01*
X038508Y002984D01*
X039396Y003980D02*
X054692Y003980D01*
X054954Y003717D01*
X053916Y003228D02*
X052988Y002300D01*
X052272Y002300D01*
X055969Y001884D02*
X055969Y001370D01*
X056189Y001149D01*
X057967Y001149D01*
X058424Y001606D01*
X055704Y004217D02*
X054762Y005159D01*
X054762Y006508D01*
X052631Y006519D02*
X052631Y008988D01*
X054200Y010558D01*
X054200Y015948D01*
X054951Y016699D01*
X053507Y013905D02*
X053538Y013510D01*
X053560Y010920D01*
X052290Y009756D01*
X051936Y009442D01*
X051947Y006865D01*
X051474Y006663D01*
X051688Y005696D02*
X051691Y005696D01*
X055323Y005431D02*
X055885Y004869D01*
X056585Y004869D01*
X057005Y004450D01*
X041450Y008260D02*
X040768Y008260D01*
X040439Y008589D01*
X040439Y010123D01*
X039856Y010707D01*
X038649Y010707D01*
X038499Y010857D01*
X038447Y009821D02*
X039914Y008355D01*
X042791Y011740D02*
X042069Y012462D01*
X042069Y014182D01*
X031067Y016258D02*
X028720Y013911D01*
X028333Y013911D01*
X028184Y013762D01*
X025500Y014979D02*
X025497Y014982D01*
X024383Y014982D01*
X023913Y015452D01*
X021014Y015451D01*
X021014Y014951D02*
X023406Y014952D01*
X025473Y015952D02*
X021014Y015951D01*
X021005Y016451D02*
X024050Y016452D01*
X024591Y016994D01*
X025486Y016994D01*
X025500Y016979D01*
X025500Y015979D02*
X025473Y015952D01*
X020373Y017145D02*
X019910Y016682D01*
X019184Y019078D02*
X016683Y019078D01*
X016479Y019282D01*
X017140Y020082D02*
X017644Y019578D01*
X019184Y019578D01*
X019184Y020078D02*
X018185Y020078D01*
X017088Y021175D01*
X015889Y021175D01*
X015409Y021655D01*
X018078Y021118D02*
X018078Y023383D01*
X017621Y023839D01*
X012672Y023839D01*
X010487Y021655D01*
X008299Y023843D01*
X004448Y023843D01*
X003647Y023043D01*
X003647Y017261D01*
X003806Y017102D01*
X004498Y017102D01*
X004498Y016102D01*
X004498Y015102D01*
X004498Y014102D01*
X003026Y012362D02*
X003026Y008755D01*
X003067Y006484D02*
X008264Y006484D01*
X009675Y005900D02*
X010840Y007065D01*
X010840Y007579D01*
X013100Y009840D01*
X010581Y005491D02*
X010058Y005491D01*
X017626Y004331D02*
X017977Y003979D01*
X025500Y003979D01*
X026500Y003979D02*
X027876Y003979D01*
X028286Y002979D02*
X029218Y003912D01*
X030321Y003912D02*
X030377Y003968D01*
X032325Y003968D01*
X028286Y002979D02*
X026500Y002979D01*
X025500Y002979D02*
X019225Y002979D01*
X018611Y002365D01*
X001882Y010921D02*
X001882Y012320D01*
X001924Y012362D01*
X010487Y018855D02*
X010487Y021655D01*
X015499Y019811D02*
X015499Y019301D01*
X015479Y019282D01*
X015499Y019811D02*
X015770Y020082D01*
X017140Y020082D01*
X018078Y021118D02*
X018618Y020578D01*
X019184Y020578D01*
X020329Y021263D02*
X020526Y021460D01*
X022142Y021388D02*
X022142Y020984D01*
X022548Y020578D01*
X023936Y020578D01*
X024378Y021020D01*
X024378Y022397D01*
X024593Y022612D01*
X024593Y024352D01*
X024308Y024637D01*
X024308Y025033D01*
X024730Y025455D01*
X028435Y025455D01*
X022142Y022490D02*
X020598Y022490D01*
X020526Y022562D01*
X024378Y021020D02*
X025459Y021020D01*
X025500Y020979D01*
X026500Y020979D02*
X026500Y021979D01*
X022548Y020578D02*
X021244Y020578D01*
X021244Y020078D02*
X023976Y020078D01*
X023676Y019779D01*
X023676Y019354D01*
X025401Y020078D02*
X025500Y019979D01*
X025401Y020078D02*
X023976Y020078D01*
X026500Y019979D02*
X028148Y019979D01*
X029341Y019979D02*
X029346Y019974D01*
X029341Y018979D02*
X029346Y018974D01*
X029341Y018979D02*
X026500Y018979D01*
X026500Y017979D02*
X029341Y017979D01*
X029346Y017974D01*
X031067Y016353D02*
X031067Y016258D01*
X054968Y012452D02*
X054968Y011303D01*
X054962Y011267D01*
X054942Y010498D01*
X001899Y020932D02*
X001867Y020900D01*
X001899Y020932D02*
X001899Y022700D01*
D35*
X002979Y022674D02*
X003791Y022674D01*
X003791Y022832D02*
X002979Y022832D01*
X002979Y022991D02*
X003802Y022991D01*
X003791Y022965D02*
X003880Y023178D01*
X004043Y023342D01*
X004256Y023430D01*
X006876Y023430D01*
X007090Y023342D01*
X007253Y023178D01*
X007341Y022965D01*
X007341Y020345D01*
X007253Y020132D01*
X007090Y019968D01*
X006876Y019880D01*
X004256Y019880D01*
X004043Y019968D01*
X003880Y020132D01*
X003791Y020345D01*
X003791Y022965D01*
X003867Y023149D02*
X002977Y023149D01*
X002979Y023147D02*
X002919Y023208D01*
X003106Y023340D01*
X003446Y023758D01*
X003661Y024252D01*
X003661Y024252D01*
X003734Y024787D01*
X003661Y025321D01*
X003471Y025758D01*
X019474Y025758D01*
X019345Y025630D01*
X019245Y025387D01*
X019245Y022849D01*
X019111Y022715D01*
X019010Y022472D01*
X019010Y020879D01*
X019011Y020878D01*
X018725Y020878D01*
X018679Y020866D01*
X018638Y020842D01*
X018605Y020809D01*
X018587Y020778D01*
X018475Y020778D01*
X017682Y021571D01*
X017485Y021768D01*
X017228Y021875D01*
X017184Y021875D01*
X017184Y022965D01*
X017095Y023178D01*
X016932Y023342D01*
X016719Y023430D01*
X014098Y023430D01*
X013885Y023342D01*
X013722Y023178D01*
X013634Y022965D01*
X013634Y020345D01*
X013722Y020132D01*
X013885Y019968D01*
X014098Y019880D01*
X014763Y019880D01*
X014691Y019809D01*
X014549Y019467D01*
X014549Y019097D01*
X014691Y018755D01*
X014953Y018493D01*
X015295Y018352D01*
X015664Y018352D01*
X015979Y018482D01*
X016295Y018352D01*
X016664Y018352D01*
X016728Y018378D01*
X018975Y018378D01*
X018927Y018313D01*
X018883Y018227D01*
X018854Y018136D01*
X018839Y018041D01*
X018839Y017993D01*
X018839Y017945D01*
X018854Y017850D01*
X018883Y017759D01*
X018927Y017673D01*
X018983Y017596D01*
X019051Y017528D01*
X019129Y017471D01*
X019215Y017428D01*
X019306Y017398D01*
X019401Y017383D01*
X019449Y017383D01*
X019497Y017383D01*
X019592Y017398D01*
X019657Y017419D01*
X019514Y017276D01*
X019317Y017079D01*
X019210Y016822D01*
X019210Y012701D01*
X019203Y012680D01*
X019210Y012562D01*
X019210Y012507D01*
X018415Y012503D01*
X018415Y012685D01*
X018408Y012701D01*
X018415Y012718D01*
X018415Y013185D01*
X018408Y013201D01*
X018415Y013218D01*
X018415Y013685D01*
X018408Y013701D01*
X018415Y013718D01*
X018415Y014185D01*
X018408Y014201D01*
X018415Y014218D01*
X018415Y014685D01*
X018408Y014701D01*
X018415Y014718D01*
X018415Y015185D01*
X018408Y015201D01*
X018415Y015218D01*
X018415Y015685D01*
X018408Y015701D01*
X018415Y015718D01*
X018415Y016185D01*
X018327Y016398D01*
X018164Y016561D01*
X018006Y016626D01*
X018003Y016639D01*
X017979Y016680D01*
X017946Y016714D01*
X017905Y016737D01*
X017859Y016749D01*
X017481Y016749D01*
X017481Y016672D01*
X017481Y016672D01*
X017481Y016749D01*
X017103Y016749D01*
X017057Y016737D01*
X017016Y016714D01*
X016983Y016680D01*
X016978Y016672D01*
X016545Y016672D01*
X015976Y017241D01*
X015976Y017241D01*
X015779Y017438D01*
X015522Y017545D01*
X008966Y017545D01*
X008924Y017646D01*
X008761Y017809D01*
X008548Y017897D01*
X007527Y017897D01*
X007314Y017809D01*
X007151Y017646D01*
X007063Y017433D01*
X007063Y016772D01*
X007133Y016602D01*
X007063Y016433D01*
X007063Y015772D01*
X007133Y015602D01*
X007063Y015433D01*
X007063Y014772D01*
X007133Y014602D01*
X007063Y014433D01*
X007063Y013772D01*
X007133Y013602D01*
X007063Y013433D01*
X007063Y012772D01*
X007133Y012602D01*
X007063Y012433D01*
X007063Y011772D01*
X007133Y011602D01*
X007063Y011433D01*
X007063Y010772D01*
X007133Y010602D01*
X007063Y010433D01*
X007063Y009772D01*
X007151Y009559D01*
X007314Y009396D01*
X007407Y009357D01*
X007326Y009323D01*
X007205Y009373D01*
X006344Y009373D01*
X006131Y009285D01*
X005985Y009139D01*
X005975Y009139D01*
X005885Y009176D01*
X005300Y009176D01*
X005086Y009088D01*
X004923Y008925D01*
X004872Y008802D01*
X004473Y008802D01*
X004396Y008770D01*
X004001Y008770D01*
X003726Y009045D01*
X003726Y011572D01*
X003833Y011679D01*
X003921Y011892D01*
X003921Y012831D01*
X003833Y013044D01*
X003670Y013208D01*
X003457Y013296D01*
X002596Y013296D01*
X002475Y013246D01*
X002354Y013296D01*
X001494Y013296D01*
X001280Y013208D01*
X001117Y013044D01*
X001029Y012831D01*
X001029Y011892D01*
X001117Y011679D01*
X001165Y011631D01*
X000872Y011339D01*
X000872Y010503D01*
X000954Y010421D01*
X000872Y010339D01*
X000872Y009503D01*
X001182Y009193D01*
X001182Y008593D01*
X001041Y008452D01*
X000893Y008094D01*
X000893Y007706D01*
X000982Y007492D01*
X000941Y007452D01*
X000866Y007270D01*
X000852Y017564D01*
X000941Y017348D01*
X001215Y017074D01*
X001573Y016926D01*
X001960Y016926D01*
X002318Y017074D01*
X002592Y017348D01*
X002740Y017706D01*
X002740Y018094D01*
X002652Y018308D01*
X002692Y018348D01*
X002840Y018706D01*
X002840Y019094D01*
X002692Y019452D01*
X002652Y019492D01*
X002740Y019706D01*
X002740Y020094D01*
X002652Y020308D01*
X002692Y020348D01*
X002840Y020706D01*
X002840Y021094D01*
X002692Y021452D01*
X002599Y021545D01*
X002599Y021873D01*
X002979Y022253D01*
X002979Y023147D01*
X003060Y023308D02*
X004009Y023308D01*
X003338Y023625D02*
X019245Y023625D01*
X019245Y023783D02*
X003457Y023783D01*
X003446Y023758D02*
X003446Y023758D01*
X003526Y023942D02*
X019245Y023942D01*
X019245Y024100D02*
X003595Y024100D01*
X003662Y024259D02*
X019245Y024259D01*
X019245Y024417D02*
X003683Y024417D01*
X003705Y024576D02*
X019245Y024576D01*
X019245Y024734D02*
X003727Y024734D01*
X003720Y024893D02*
X019245Y024893D01*
X019245Y025051D02*
X003698Y025051D01*
X003676Y025210D02*
X019245Y025210D01*
X019245Y025368D02*
X003640Y025368D01*
X003571Y025527D02*
X019303Y025527D01*
X019401Y025685D02*
X003502Y025685D01*
X003209Y023466D02*
X019245Y023466D01*
X019245Y023308D02*
X016966Y023308D01*
X017107Y023149D02*
X019245Y023149D01*
X019245Y022991D02*
X017173Y022991D01*
X017184Y022832D02*
X019228Y022832D01*
X019094Y022674D02*
X017184Y022674D01*
X017184Y022515D02*
X019028Y022515D01*
X019010Y022357D02*
X017184Y022357D01*
X017184Y022198D02*
X019010Y022198D01*
X019010Y022040D02*
X017184Y022040D01*
X017184Y021881D02*
X019010Y021881D01*
X019010Y021723D02*
X017531Y021723D01*
X017689Y021564D02*
X019010Y021564D01*
X019010Y021406D02*
X017848Y021406D01*
X018006Y021247D02*
X019010Y021247D01*
X019010Y021089D02*
X018165Y021089D01*
X018323Y020930D02*
X019010Y020930D01*
X019670Y021011D02*
X019994Y020687D01*
X019994Y019323D01*
X020238Y019078D01*
X020373Y018944D01*
X020373Y017145D01*
X021073Y017151D02*
X021073Y017284D01*
X021033Y017381D01*
X021033Y017571D01*
X021089Y017514D01*
X021167Y017458D01*
X021252Y017414D01*
X021344Y017384D01*
X021438Y017369D01*
X021486Y017369D01*
X021486Y017979D01*
X021486Y017979D01*
X021486Y017369D01*
X021534Y017369D01*
X021629Y017384D01*
X021721Y017414D01*
X021806Y017458D01*
X021884Y017514D01*
X021952Y017582D01*
X022008Y017660D01*
X022052Y017745D01*
X022081Y017837D01*
X022096Y017931D01*
X022096Y017979D01*
X021486Y017979D01*
X021486Y017979D01*
X022096Y017979D01*
X022096Y018027D01*
X022081Y018122D01*
X022052Y018214D01*
X022008Y018299D01*
X021952Y018377D01*
X021904Y018424D01*
X022007Y018467D01*
X022171Y018630D01*
X022259Y018843D01*
X022259Y019314D01*
X022253Y019328D01*
X022259Y019343D01*
X022259Y019378D01*
X022666Y019378D01*
X022666Y019221D01*
X022735Y018964D01*
X022868Y018734D01*
X023056Y018546D01*
X023286Y018413D01*
X023543Y018344D01*
X023809Y018344D01*
X024066Y018413D01*
X024296Y018546D01*
X024484Y018734D01*
X024526Y018807D01*
X024526Y018576D01*
X024926Y018176D01*
X024926Y017979D01*
X024926Y017783D01*
X024837Y017694D01*
X024452Y017694D01*
X024195Y017587D01*
X023998Y017390D01*
X023760Y017152D01*
X021073Y017151D01*
X021072Y017285D02*
X023892Y017285D01*
X024051Y017443D02*
X021777Y017443D01*
X021966Y017602D02*
X024230Y017602D01*
X024904Y017760D02*
X022057Y017760D01*
X022094Y017919D02*
X024926Y017919D01*
X024926Y017979D02*
X025500Y017979D01*
X025500Y017979D01*
X024926Y017979D01*
X024926Y018077D02*
X022088Y018077D01*
X022040Y018236D02*
X024867Y018236D01*
X024708Y018394D02*
X023996Y018394D01*
X024303Y018553D02*
X024550Y018553D01*
X024526Y018711D02*
X024461Y018711D01*
X023356Y018394D02*
X021934Y018394D01*
X022093Y018553D02*
X023049Y018553D01*
X022891Y018711D02*
X022204Y018711D01*
X022259Y018870D02*
X022789Y018870D01*
X022718Y019028D02*
X022259Y019028D01*
X022259Y019187D02*
X022675Y019187D01*
X022666Y019345D02*
X022259Y019345D01*
X021244Y019078D02*
X020238Y019078D01*
X018888Y018236D02*
X002682Y018236D01*
X002711Y018394D02*
X015192Y018394D01*
X014893Y018553D02*
X002777Y018553D01*
X002840Y018711D02*
X014735Y018711D01*
X014644Y018870D02*
X002840Y018870D01*
X002840Y019028D02*
X014578Y019028D01*
X014549Y019187D02*
X002802Y019187D01*
X002736Y019345D02*
X014549Y019345D01*
X014565Y019504D02*
X002656Y019504D01*
X002722Y019662D02*
X014630Y019662D01*
X014703Y019821D02*
X002740Y019821D01*
X002740Y019979D02*
X004032Y019979D01*
X003877Y020138D02*
X002722Y020138D01*
X002657Y020296D02*
X003811Y020296D01*
X003791Y020455D02*
X002736Y020455D01*
X002802Y020613D02*
X003791Y020613D01*
X003791Y020772D02*
X002840Y020772D01*
X002840Y020930D02*
X003791Y020930D01*
X003791Y021089D02*
X002840Y021089D01*
X002777Y021247D02*
X003791Y021247D01*
X003791Y021406D02*
X002711Y021406D01*
X002599Y021564D02*
X003791Y021564D01*
X003791Y021723D02*
X002599Y021723D01*
X002608Y021881D02*
X003791Y021881D01*
X003791Y022040D02*
X002766Y022040D01*
X002925Y022198D02*
X003791Y022198D01*
X003791Y022357D02*
X002979Y022357D01*
X002979Y022515D02*
X003791Y022515D01*
X003106Y023340D02*
X003106Y023340D01*
X003106Y023340D01*
X007123Y023308D02*
X013851Y023308D01*
X013710Y023149D02*
X007265Y023149D01*
X007330Y022991D02*
X009179Y022991D01*
X009182Y022994D02*
X009148Y022960D01*
X009125Y022919D01*
X009113Y022874D01*
X009113Y021735D01*
X010407Y021735D01*
X010407Y021575D01*
X009113Y021575D01*
X009113Y020436D01*
X009125Y020391D01*
X009148Y020350D01*
X009182Y020316D01*
X009223Y020292D01*
X009269Y020280D01*
X010407Y020280D01*
X010407Y021575D01*
X010567Y021575D01*
X010567Y020280D01*
X011706Y020280D01*
X011752Y020292D01*
X011793Y020316D01*
X011826Y020350D01*
X011850Y020391D01*
X011862Y020436D01*
X011862Y021575D01*
X010567Y021575D01*
X010567Y021735D01*
X010407Y021735D01*
X010407Y023030D01*
X009269Y023030D01*
X009223Y023018D01*
X009182Y022994D01*
X009113Y022832D02*
X007341Y022832D01*
X007341Y022674D02*
X009113Y022674D01*
X009113Y022515D02*
X007341Y022515D01*
X007341Y022357D02*
X009113Y022357D01*
X009113Y022198D02*
X007341Y022198D01*
X007341Y022040D02*
X009113Y022040D01*
X009113Y021881D02*
X007341Y021881D01*
X007341Y021723D02*
X010407Y021723D01*
X010407Y021881D02*
X010567Y021881D01*
X010567Y021735D02*
X010567Y023030D01*
X011706Y023030D01*
X011752Y023018D01*
X011793Y022994D01*
X011826Y022960D01*
X011850Y022919D01*
X011862Y022874D01*
X011862Y021735D01*
X010567Y021735D01*
X010567Y021723D02*
X013634Y021723D01*
X013634Y021881D02*
X011862Y021881D01*
X011862Y022040D02*
X013634Y022040D01*
X013634Y022198D02*
X011862Y022198D01*
X011862Y022357D02*
X013634Y022357D01*
X013634Y022515D02*
X011862Y022515D01*
X011862Y022674D02*
X013634Y022674D01*
X013634Y022832D02*
X011862Y022832D01*
X011796Y022991D02*
X013644Y022991D01*
X010567Y022991D02*
X010407Y022991D01*
X010407Y022832D02*
X010567Y022832D01*
X010567Y022674D02*
X010407Y022674D01*
X010407Y022515D02*
X010567Y022515D01*
X010567Y022357D02*
X010407Y022357D01*
X010407Y022198D02*
X010567Y022198D01*
X010567Y022040D02*
X010407Y022040D01*
X010407Y021564D02*
X010567Y021564D01*
X010567Y021406D02*
X010407Y021406D01*
X010407Y021247D02*
X010567Y021247D01*
X010567Y021089D02*
X010407Y021089D01*
X010407Y020930D02*
X010567Y020930D01*
X010567Y020772D02*
X010407Y020772D01*
X010407Y020613D02*
X010567Y020613D01*
X010567Y020455D02*
X010407Y020455D01*
X010407Y020296D02*
X010567Y020296D01*
X011758Y020296D02*
X013654Y020296D01*
X013634Y020455D02*
X011862Y020455D01*
X011862Y020613D02*
X013634Y020613D01*
X013634Y020772D02*
X011862Y020772D01*
X011862Y020930D02*
X013634Y020930D01*
X013634Y021089D02*
X011862Y021089D01*
X011862Y021247D02*
X013634Y021247D01*
X013634Y021406D02*
X011862Y021406D01*
X011862Y021564D02*
X013634Y021564D01*
X013720Y020138D02*
X007255Y020138D01*
X007321Y020296D02*
X009216Y020296D01*
X009113Y020455D02*
X007341Y020455D01*
X007341Y020613D02*
X009113Y020613D01*
X009113Y020772D02*
X007341Y020772D01*
X007341Y020930D02*
X009113Y020930D01*
X009113Y021089D02*
X007341Y021089D01*
X007341Y021247D02*
X009113Y021247D01*
X009113Y021406D02*
X007341Y021406D01*
X007341Y021564D02*
X009113Y021564D01*
X007100Y019979D02*
X013874Y019979D01*
X015767Y018394D02*
X016192Y018394D01*
X015767Y017443D02*
X019184Y017443D01*
X018979Y017602D02*
X008943Y017602D01*
X008810Y017760D02*
X018883Y017760D01*
X018843Y017919D02*
X002740Y017919D01*
X002740Y018077D02*
X018844Y018077D01*
X018839Y017993D02*
X019449Y017993D01*
X019449Y017383D01*
X019449Y017993D01*
X019449Y017993D01*
X018839Y017993D01*
X019449Y017993D02*
X019449Y017993D01*
X019449Y017919D02*
X019449Y017919D01*
X019449Y017760D02*
X019449Y017760D01*
X019449Y017602D02*
X019449Y017602D01*
X019449Y017443D02*
X019449Y017443D01*
X019522Y017285D02*
X015932Y017285D01*
X016091Y017126D02*
X019364Y017126D01*
X019271Y016968D02*
X016249Y016968D01*
X016408Y016809D02*
X019210Y016809D01*
X019210Y016651D02*
X017996Y016651D01*
X018233Y016492D02*
X019210Y016492D01*
X019210Y016334D02*
X018354Y016334D01*
X018415Y016175D02*
X019210Y016175D01*
X019210Y016017D02*
X018415Y016017D01*
X018415Y015858D02*
X019210Y015858D01*
X019210Y015700D02*
X018409Y015700D01*
X018415Y015541D02*
X019210Y015541D01*
X019210Y015383D02*
X018415Y015383D01*
X018415Y015224D02*
X019210Y015224D01*
X019210Y015066D02*
X018415Y015066D01*
X018415Y014907D02*
X019210Y014907D01*
X019210Y014749D02*
X018415Y014749D01*
X018415Y014590D02*
X019210Y014590D01*
X019210Y014432D02*
X018415Y014432D01*
X018415Y014273D02*
X019210Y014273D01*
X019210Y014115D02*
X018415Y014115D01*
X018415Y013956D02*
X019210Y013956D01*
X019210Y013798D02*
X018415Y013798D01*
X018415Y013639D02*
X019210Y013639D01*
X019210Y013481D02*
X018415Y013481D01*
X018415Y013322D02*
X019210Y013322D01*
X019210Y013164D02*
X018415Y013164D01*
X018415Y013005D02*
X019210Y013005D01*
X019210Y012847D02*
X018415Y012847D01*
X018414Y012688D02*
X019206Y012688D01*
X019210Y012530D02*
X018415Y012530D01*
X020469Y011579D02*
X022103Y011579D01*
X021944Y011737D02*
X020628Y011737D01*
X020786Y011896D02*
X021786Y011896D01*
X021698Y011983D02*
X022591Y011090D01*
X022591Y011067D01*
X021884Y010360D01*
X013121Y010360D01*
X013121Y010676D01*
X012995Y010981D01*
X012809Y011167D01*
X012900Y011257D01*
X019499Y011288D01*
X019599Y011287D01*
X019603Y011289D01*
X019606Y011289D01*
X019698Y011327D01*
X019791Y011365D01*
X019794Y011367D01*
X019797Y011369D01*
X019838Y011410D01*
X020301Y011410D01*
X020811Y011921D01*
X021065Y011933D01*
X021448Y011933D01*
X021569Y011983D01*
X021698Y011983D01*
X021704Y011556D02*
X021320Y011173D01*
X010611Y011173D01*
X007877Y008439D01*
X007324Y007788D02*
X007324Y009663D01*
X006878Y010109D01*
X004504Y010109D01*
X004498Y010102D01*
X004525Y010075D02*
X004525Y009707D01*
X004916Y009707D01*
X004962Y009720D01*
X005003Y009743D01*
X005037Y009777D01*
X005060Y009818D01*
X005073Y009864D01*
X005073Y010075D01*
X004525Y010075D01*
X004525Y010130D01*
X004470Y010130D01*
X004470Y010497D01*
X004079Y010497D01*
X004033Y010485D01*
X003992Y010461D01*
X003959Y010428D01*
X003935Y010387D01*
X003923Y010341D01*
X003923Y010130D01*
X004470Y010130D01*
X004470Y010075D01*
X003923Y010075D01*
X003923Y009864D01*
X003935Y009818D01*
X003959Y009777D01*
X003992Y009743D01*
X004033Y009720D01*
X004079Y009707D01*
X004470Y009707D01*
X004470Y010075D01*
X004525Y010075D01*
X004525Y010130D02*
X005073Y010130D01*
X005073Y010341D01*
X005060Y010387D01*
X005037Y010428D01*
X005003Y010461D01*
X004962Y010485D01*
X004916Y010497D01*
X004525Y010497D01*
X004525Y010130D01*
X004525Y010152D02*
X004470Y010152D01*
X004470Y009994D02*
X004525Y009994D01*
X004525Y009835D02*
X004470Y009835D01*
X003930Y009835D02*
X003726Y009835D01*
X003726Y009677D02*
X007102Y009677D01*
X007063Y009835D02*
X005065Y009835D01*
X005073Y009994D02*
X007063Y009994D01*
X007063Y010152D02*
X005073Y010152D01*
X005073Y010311D02*
X007063Y010311D01*
X007078Y010469D02*
X004990Y010469D01*
X004916Y010707D02*
X004962Y010720D01*
X005003Y010743D01*
X005037Y010777D01*
X005060Y010818D01*
X005073Y010864D01*
X005073Y011075D01*
X004525Y011075D01*
X004525Y011130D01*
X004470Y011130D01*
X004470Y011497D01*
X004079Y011497D01*
X004033Y011485D01*
X003992Y011461D01*
X003959Y011428D01*
X003935Y011387D01*
X003923Y011341D01*
X003923Y011130D01*
X004470Y011130D01*
X004470Y011075D01*
X003923Y011075D01*
X003923Y010864D01*
X003935Y010818D01*
X003959Y010777D01*
X003992Y010743D01*
X004033Y010720D01*
X004079Y010707D01*
X004470Y010707D01*
X004470Y011075D01*
X004525Y011075D01*
X004525Y010707D01*
X004916Y010707D01*
X005042Y010786D02*
X007063Y010786D01*
X007063Y010945D02*
X005073Y010945D01*
X005073Y011130D02*
X005073Y011341D01*
X005060Y011387D01*
X005037Y011428D01*
X005003Y011461D01*
X004962Y011485D01*
X004916Y011497D01*
X004525Y011497D01*
X004525Y011130D01*
X005073Y011130D01*
X005073Y011262D02*
X007063Y011262D01*
X007063Y011420D02*
X005041Y011420D01*
X004962Y011720D02*
X005003Y011743D01*
X005037Y011777D01*
X005060Y011818D01*
X005073Y011864D01*
X005073Y012075D01*
X004525Y012075D01*
X004525Y012130D01*
X004470Y012130D01*
X004470Y012497D01*
X004079Y012497D01*
X004033Y012485D01*
X003992Y012461D01*
X003959Y012428D01*
X003935Y012387D01*
X003923Y012341D01*
X003923Y012130D01*
X004470Y012130D01*
X004470Y012075D01*
X003923Y012075D01*
X003923Y011864D01*
X003935Y011818D01*
X003959Y011777D01*
X003992Y011743D01*
X004033Y011720D01*
X004079Y011707D01*
X004470Y011707D01*
X004470Y012075D01*
X004525Y012075D01*
X004525Y011707D01*
X004916Y011707D01*
X004962Y011720D01*
X004992Y011737D02*
X007077Y011737D01*
X007063Y011896D02*
X005073Y011896D01*
X005073Y012054D02*
X007063Y012054D01*
X007063Y012213D02*
X005073Y012213D01*
X005073Y012130D02*
X005073Y012341D01*
X005060Y012387D01*
X005037Y012428D01*
X005003Y012461D01*
X004962Y012485D01*
X004916Y012497D01*
X004525Y012497D01*
X004525Y012130D01*
X005073Y012130D01*
X005065Y012371D02*
X007063Y012371D01*
X007103Y012530D02*
X003921Y012530D01*
X003921Y012688D02*
X007097Y012688D01*
X007063Y012847D02*
X005068Y012847D01*
X005073Y012864D02*
X005073Y013075D01*
X004525Y013075D01*
X004525Y013130D01*
X004470Y013130D01*
X004470Y013497D01*
X004079Y013497D01*
X004033Y013485D01*
X003992Y013461D01*
X003959Y013428D01*
X003935Y013387D01*
X003923Y013341D01*
X003923Y013130D01*
X004470Y013130D01*
X004470Y013075D01*
X003923Y013075D01*
X003923Y012864D01*
X003935Y012818D01*
X003959Y012777D01*
X003992Y012743D01*
X004033Y012720D01*
X004079Y012707D01*
X004470Y012707D01*
X004470Y013075D01*
X004525Y013075D01*
X004525Y012707D01*
X004916Y012707D01*
X004962Y012720D01*
X005003Y012743D01*
X005037Y012777D01*
X005060Y012818D01*
X005073Y012864D01*
X005073Y013005D02*
X007063Y013005D01*
X007063Y013164D02*
X005073Y013164D01*
X005073Y013130D02*
X005073Y013341D01*
X005060Y013387D01*
X005037Y013428D01*
X005003Y013461D01*
X004962Y013485D01*
X004916Y013497D01*
X004525Y013497D01*
X004525Y013130D01*
X005073Y013130D01*
X005073Y013322D02*
X007063Y013322D01*
X007082Y013481D02*
X004970Y013481D01*
X004916Y013707D02*
X004962Y013720D01*
X005003Y013743D01*
X005037Y013777D01*
X005060Y013818D01*
X005073Y013864D01*
X005073Y014075D01*
X004525Y014075D01*
X004525Y014130D01*
X004470Y014130D01*
X004470Y014497D01*
X004079Y014497D01*
X004033Y014485D01*
X003992Y014461D01*
X003959Y014428D01*
X003935Y014387D01*
X003923Y014341D01*
X003923Y014130D01*
X004470Y014130D01*
X004470Y014075D01*
X003923Y014075D01*
X003923Y013864D01*
X003935Y013818D01*
X003959Y013777D01*
X003992Y013743D01*
X004033Y013720D01*
X004079Y013707D01*
X004470Y013707D01*
X004470Y014075D01*
X004525Y014075D01*
X004525Y013707D01*
X004916Y013707D01*
X005049Y013798D02*
X007063Y013798D01*
X007063Y013956D02*
X005073Y013956D01*
X005073Y014130D02*
X005073Y014341D01*
X005060Y014387D01*
X005037Y014428D01*
X005003Y014461D01*
X004962Y014485D01*
X004916Y014497D01*
X004525Y014497D01*
X004525Y014130D01*
X005073Y014130D01*
X005073Y014273D02*
X007063Y014273D01*
X007063Y014115D02*
X004525Y014115D01*
X004470Y014115D02*
X000857Y014115D01*
X000857Y014273D02*
X003923Y014273D01*
X003962Y014432D02*
X000856Y014432D01*
X000856Y014590D02*
X007128Y014590D01*
X007072Y014749D02*
X005008Y014749D01*
X005003Y014743D02*
X005037Y014777D01*
X005060Y014818D01*
X005073Y014864D01*
X005073Y015075D01*
X004525Y015075D01*
X004525Y015130D01*
X004470Y015130D01*
X004470Y015497D01*
X004079Y015497D01*
X004033Y015485D01*
X003992Y015461D01*
X003959Y015428D01*
X003935Y015387D01*
X003923Y015341D01*
X003923Y015130D01*
X004470Y015130D01*
X004470Y015075D01*
X003923Y015075D01*
X003923Y014864D01*
X003935Y014818D01*
X003959Y014777D01*
X003992Y014743D01*
X004033Y014720D01*
X004079Y014707D01*
X004470Y014707D01*
X004470Y015075D01*
X004525Y015075D01*
X004525Y014707D01*
X004916Y014707D01*
X004962Y014720D01*
X005003Y014743D01*
X005073Y014907D02*
X007063Y014907D01*
X007063Y015066D02*
X005073Y015066D01*
X005073Y015130D02*
X005073Y015341D01*
X005060Y015387D01*
X005037Y015428D01*
X005003Y015461D01*
X004962Y015485D01*
X004916Y015497D01*
X004525Y015497D01*
X004525Y015130D01*
X005073Y015130D01*
X005073Y015224D02*
X007063Y015224D01*
X007063Y015383D02*
X005061Y015383D01*
X004962Y015720D02*
X005003Y015743D01*
X005037Y015777D01*
X005060Y015818D01*
X005073Y015864D01*
X005073Y016075D01*
X004525Y016075D01*
X004525Y016130D01*
X004470Y016130D01*
X004470Y016497D01*
X004079Y016497D01*
X004033Y016485D01*
X003992Y016461D01*
X003959Y016428D01*
X003935Y016387D01*
X003923Y016341D01*
X003923Y016130D01*
X004470Y016130D01*
X004470Y016075D01*
X003923Y016075D01*
X003923Y015864D01*
X003935Y015818D01*
X003959Y015777D01*
X003992Y015743D01*
X004033Y015720D01*
X004079Y015707D01*
X004470Y015707D01*
X004470Y016075D01*
X004525Y016075D01*
X004525Y015707D01*
X004916Y015707D01*
X004962Y015720D01*
X005071Y015858D02*
X007063Y015858D01*
X007063Y016017D02*
X005073Y016017D01*
X005073Y016130D02*
X005073Y016341D01*
X005060Y016387D01*
X005037Y016428D01*
X005003Y016461D01*
X004962Y016485D01*
X004916Y016497D01*
X004525Y016497D01*
X004525Y016130D01*
X005073Y016130D01*
X005073Y016175D02*
X007063Y016175D01*
X007063Y016334D02*
X005073Y016334D01*
X004936Y016492D02*
X007087Y016492D01*
X007113Y016651D02*
X000853Y016651D01*
X000853Y016809D02*
X003940Y016809D01*
X003935Y016818D02*
X003959Y016777D01*
X003992Y016743D01*
X004033Y016720D01*
X004079Y016707D01*
X004470Y016707D01*
X004470Y017075D01*
X003923Y017075D01*
X003923Y016864D01*
X003935Y016818D01*
X003923Y016968D02*
X002060Y016968D01*
X002370Y017126D02*
X004470Y017126D01*
X004470Y017130D02*
X004470Y017075D01*
X004525Y017075D01*
X004525Y017130D01*
X004470Y017130D01*
X004470Y017497D01*
X004079Y017497D01*
X004033Y017485D01*
X003992Y017461D01*
X003959Y017428D01*
X003935Y017387D01*
X003923Y017341D01*
X003923Y017130D01*
X004470Y017130D01*
X004525Y017130D02*
X004525Y017497D01*
X004916Y017497D01*
X004962Y017485D01*
X005003Y017461D01*
X005037Y017428D01*
X005060Y017387D01*
X005073Y017341D01*
X005073Y017130D01*
X004525Y017130D01*
X004525Y017126D02*
X007063Y017126D01*
X007063Y016968D02*
X005073Y016968D01*
X005073Y016864D02*
X005073Y017075D01*
X004525Y017075D01*
X004525Y016707D01*
X004916Y016707D01*
X004962Y016720D01*
X005003Y016743D01*
X005037Y016777D01*
X005060Y016818D01*
X005073Y016864D01*
X005055Y016809D02*
X007063Y016809D01*
X007063Y017285D02*
X005073Y017285D01*
X005021Y017443D02*
X007067Y017443D01*
X007133Y017602D02*
X002697Y017602D01*
X002740Y017760D02*
X007265Y017760D01*
X004525Y017443D02*
X004470Y017443D01*
X004470Y017285D02*
X004525Y017285D01*
X004525Y016968D02*
X004470Y016968D01*
X004470Y016809D02*
X004525Y016809D01*
X003923Y017285D02*
X002528Y017285D01*
X002631Y017443D02*
X003974Y017443D01*
X001473Y016968D02*
X000853Y016968D01*
X000853Y017126D02*
X001164Y017126D01*
X001005Y017285D02*
X000852Y017285D01*
X000852Y017443D02*
X000902Y017443D01*
X000854Y016492D02*
X004059Y016492D01*
X003923Y016334D02*
X000854Y016334D01*
X000854Y016175D02*
X003923Y016175D01*
X003923Y016017D02*
X000854Y016017D01*
X000854Y015858D02*
X003924Y015858D01*
X004470Y015858D02*
X004525Y015858D01*
X004525Y016017D02*
X004470Y016017D01*
X004470Y016175D02*
X004525Y016175D01*
X004525Y016334D02*
X004470Y016334D01*
X004470Y016492D02*
X004525Y016492D01*
X007093Y015700D02*
X000855Y015700D01*
X000855Y015541D02*
X007107Y015541D01*
X004525Y015383D02*
X004470Y015383D01*
X004470Y015224D02*
X004525Y015224D01*
X004525Y015066D02*
X004470Y015066D01*
X004470Y014907D02*
X004525Y014907D01*
X004525Y014749D02*
X004470Y014749D01*
X004470Y014432D02*
X004525Y014432D01*
X004525Y014273D02*
X004470Y014273D01*
X004470Y013956D02*
X004525Y013956D01*
X004525Y013798D02*
X004470Y013798D01*
X004470Y013481D02*
X004525Y013481D01*
X004525Y013322D02*
X004470Y013322D01*
X004470Y013164D02*
X004525Y013164D01*
X004525Y013005D02*
X004470Y013005D01*
X004470Y012847D02*
X004525Y012847D01*
X003927Y012847D02*
X003915Y012847D01*
X003923Y013005D02*
X003849Y013005D01*
X003923Y013164D02*
X003714Y013164D01*
X003923Y013322D02*
X000858Y013322D01*
X000858Y013164D02*
X001236Y013164D01*
X001101Y013005D02*
X000858Y013005D01*
X000859Y012847D02*
X001035Y012847D01*
X001029Y012688D02*
X000859Y012688D01*
X000859Y012530D02*
X001029Y012530D01*
X001029Y012371D02*
X000859Y012371D01*
X000859Y012213D02*
X001029Y012213D01*
X001029Y012054D02*
X000860Y012054D01*
X000860Y011896D02*
X001029Y011896D01*
X001093Y011737D02*
X000860Y011737D01*
X000860Y011579D02*
X001112Y011579D01*
X000953Y011420D02*
X000861Y011420D01*
X000861Y011262D02*
X000872Y011262D01*
X000861Y011103D02*
X000872Y011103D01*
X000861Y010945D02*
X000872Y010945D01*
X000861Y010786D02*
X000872Y010786D01*
X000862Y010628D02*
X000872Y010628D01*
X000862Y010469D02*
X000906Y010469D01*
X000872Y010311D02*
X000862Y010311D01*
X000862Y010152D02*
X000872Y010152D01*
X000862Y009994D02*
X000872Y009994D01*
X000863Y009835D02*
X000872Y009835D01*
X000863Y009677D02*
X000872Y009677D01*
X000863Y009518D02*
X000872Y009518D01*
X000863Y009360D02*
X001015Y009360D01*
X000864Y009201D02*
X001174Y009201D01*
X001182Y009043D02*
X000864Y009043D01*
X000864Y008884D02*
X001182Y008884D01*
X001182Y008726D02*
X000864Y008726D01*
X000864Y008567D02*
X001157Y008567D01*
X001024Y008409D02*
X000865Y008409D01*
X000865Y008250D02*
X000958Y008250D01*
X000893Y008092D02*
X000865Y008092D01*
X000865Y007933D02*
X000893Y007933D01*
X000893Y007775D02*
X000866Y007775D01*
X000866Y007616D02*
X000930Y007616D01*
X000947Y007458D02*
X000866Y007458D01*
X000866Y007299D02*
X000878Y007299D01*
X001882Y007916D02*
X003067Y006731D01*
X003067Y006484D01*
X003857Y007184D02*
X003750Y007291D01*
X003537Y007379D01*
X003352Y007379D01*
X002840Y007891D01*
X002840Y007951D01*
X003117Y007674D01*
X003314Y007477D01*
X003572Y007370D01*
X004369Y007370D01*
X004473Y007327D01*
X005058Y007327D01*
X005271Y007416D01*
X005275Y007419D01*
X005304Y007389D01*
X005345Y007365D01*
X005391Y007353D01*
X005592Y007353D01*
X005592Y007691D01*
X005949Y007691D01*
X005949Y007728D01*
X005975Y007739D01*
X005985Y007739D01*
X006131Y007593D01*
X006344Y007505D01*
X007205Y007505D01*
X007326Y007555D01*
X007446Y007505D01*
X007526Y007505D01*
X007493Y007382D01*
X007493Y007184D01*
X003857Y007184D01*
X003730Y007299D02*
X007493Y007299D01*
X007514Y007458D02*
X005933Y007458D01*
X005937Y007464D02*
X005949Y007510D01*
X005949Y007691D01*
X005592Y007691D01*
X005592Y007691D01*
X007226Y007691D01*
X007324Y007788D01*
X006108Y007616D02*
X005949Y007616D01*
X005937Y007464D02*
X005913Y007423D01*
X005880Y007389D01*
X005839Y007365D01*
X005793Y007353D01*
X005592Y007353D01*
X005592Y007691D01*
X005592Y007691D01*
X005592Y007616D02*
X005592Y007616D01*
X005592Y007458D02*
X005592Y007458D01*
X003361Y007458D02*
X003274Y007458D01*
X003175Y007616D02*
X003115Y007616D01*
X003017Y007775D02*
X002957Y007775D01*
X002858Y007933D02*
X002840Y007933D01*
X003887Y008884D02*
X004906Y008884D01*
X005041Y009043D02*
X003728Y009043D01*
X003726Y009201D02*
X006047Y009201D01*
X006311Y009360D02*
X003726Y009360D01*
X003726Y009518D02*
X007192Y009518D01*
X007237Y009360D02*
X007401Y009360D01*
X008025Y009187D02*
X008325Y009487D01*
X008512Y009487D01*
X008659Y009548D01*
X008693Y009582D01*
X008719Y009582D01*
X008911Y009662D01*
X010659Y011410D01*
X011621Y011410D01*
X011653Y011333D01*
X011796Y011190D01*
X011588Y010981D01*
X011461Y010676D01*
X011461Y010417D01*
X010236Y009191D01*
X008030Y009191D01*
X008025Y009187D01*
X008039Y009201D02*
X010246Y009201D01*
X010404Y009360D02*
X008197Y009360D01*
X008586Y009518D02*
X010563Y009518D01*
X010721Y009677D02*
X008926Y009677D01*
X009084Y009835D02*
X010880Y009835D01*
X011038Y009994D02*
X009243Y009994D01*
X009401Y010152D02*
X011197Y010152D01*
X011355Y010311D02*
X009560Y010311D01*
X009718Y010469D02*
X011461Y010469D01*
X011461Y010628D02*
X009877Y010628D01*
X010035Y010786D02*
X011507Y010786D01*
X011572Y010945D02*
X010194Y010945D01*
X010352Y011103D02*
X011709Y011103D01*
X011724Y011262D02*
X010511Y011262D01*
X012873Y011103D02*
X022578Y011103D01*
X022469Y010945D02*
X013010Y010945D01*
X013076Y010786D02*
X022311Y010786D01*
X022152Y010628D02*
X013121Y010628D01*
X013121Y010469D02*
X021994Y010469D01*
X022420Y011262D02*
X013844Y011262D01*
X020311Y011420D02*
X022261Y011420D01*
X021704Y011556D02*
X021704Y012595D01*
X021388Y012910D01*
X020894Y012910D01*
X020935Y012951D01*
X021014Y012951D01*
X026500Y012979D02*
X027074Y012979D01*
X026500Y012979D01*
X026500Y012979D01*
X027074Y012979D02*
X027074Y013176D01*
X027152Y013254D01*
X027388Y013352D01*
X027645Y013608D01*
X027665Y013547D01*
X027705Y013468D01*
X027757Y013397D01*
X027819Y013334D01*
X027890Y013283D01*
X027956Y013249D01*
X027426Y012719D01*
X027137Y012719D01*
X027074Y012783D01*
X027074Y012979D01*
X027074Y013005D02*
X027712Y013005D01*
X027870Y013164D02*
X027074Y013164D01*
X027316Y013322D02*
X027836Y013322D01*
X027698Y013481D02*
X027517Y013481D01*
X027553Y012847D02*
X027074Y012847D01*
X031076Y012126D02*
X031636Y012126D01*
X031076Y012126D01*
X031076Y012126D01*
X031521Y011785D02*
X031555Y011833D01*
X031595Y011911D01*
X031623Y011995D01*
X031636Y012082D01*
X031636Y012126D01*
X031636Y012170D01*
X031623Y012258D01*
X031595Y012341D01*
X031555Y012420D01*
X031536Y012446D01*
X034318Y012446D01*
X034436Y012328D01*
X034649Y012240D01*
X035510Y012240D01*
X035630Y012290D01*
X035751Y012240D01*
X036069Y012240D01*
X037554Y010756D01*
X036914Y010756D01*
X036899Y010749D01*
X036899Y011056D01*
X036761Y011391D01*
X036505Y011647D01*
X036170Y011785D01*
X035148Y011785D01*
X034814Y011647D01*
X034782Y011615D01*
X034498Y011615D01*
X034226Y011502D01*
X033869Y011146D01*
X033661Y010937D01*
X033548Y010665D01*
X033548Y003998D01*
X033661Y003726D01*
X033846Y003541D01*
X034054Y003333D01*
X034326Y003220D01*
X034445Y003220D01*
X034415Y003149D01*
X034415Y002787D01*
X034554Y002453D01*
X034573Y002434D01*
X031908Y002434D01*
X031666Y002333D01*
X031508Y002176D01*
X027073Y002176D01*
X027177Y002279D01*
X028425Y002279D01*
X028682Y002386D01*
X029274Y002978D01*
X029649Y002978D01*
X029770Y003028D01*
X029890Y002978D01*
X030751Y002978D01*
X030964Y003066D01*
X031122Y003224D01*
X031150Y003197D01*
X031199Y003176D01*
X031192Y003164D01*
X031168Y003088D01*
X031155Y003008D01*
X031155Y002968D01*
X031155Y002928D01*
X031168Y002849D01*
X031192Y002772D01*
X031229Y002701D01*
X031276Y002636D01*
X031333Y002579D01*
X031398Y002532D01*
X031469Y002496D01*
X031546Y002471D01*
X031625Y002458D01*
X032325Y002458D01*
X032325Y002968D01*
X032325Y002968D01*
X032325Y002458D01*
X032365Y002458D01*
X032444Y002471D01*
X032521Y002496D01*
X032592Y002532D01*
X032657Y002579D01*
X032714Y002636D01*
X032761Y002701D01*
X032798Y002772D01*
X032822Y002849D01*
X032835Y002928D01*
X032835Y002968D01*
X032325Y002968D01*
X031155Y002968D01*
X032325Y002968D01*
X032325Y002968D01*
X032325Y002968D01*
X032835Y002968D01*
X032835Y003008D01*
X032822Y003088D01*
X032798Y003164D01*
X032791Y003176D01*
X032841Y003197D01*
X033096Y003453D01*
X033235Y003787D01*
X033235Y004149D01*
X033096Y004484D01*
X032841Y004740D01*
X032578Y004848D01*
X032598Y004859D01*
X032663Y004906D01*
X032720Y004963D01*
X032767Y005028D01*
X032804Y005099D01*
X032828Y005175D01*
X032841Y005255D01*
X032841Y005295D01*
X032841Y005335D01*
X032828Y005414D01*
X032804Y005491D01*
X032797Y005503D01*
X032846Y005523D01*
X033102Y005779D01*
X033241Y006114D01*
X033241Y006476D01*
X033102Y006810D01*
X032846Y007066D01*
X032584Y007175D01*
X032603Y007185D01*
X032667Y007232D01*
X032724Y007289D01*
X032771Y007354D01*
X032808Y007425D01*
X032833Y007501D01*
X032845Y007581D01*
X032845Y007621D01*
X032845Y007661D01*
X032833Y007740D01*
X032808Y007817D01*
X032802Y007829D01*
X032851Y007849D01*
X033107Y008105D01*
X033245Y008440D01*
X033245Y008802D01*
X033107Y009136D01*
X032851Y009392D01*
X032648Y009476D01*
X032662Y009486D01*
X032718Y009543D01*
X032766Y009608D01*
X032802Y009679D01*
X032827Y009756D01*
X032839Y009835D01*
X032839Y009875D01*
X032329Y009875D01*
X032329Y009875D01*
X032839Y009875D01*
X032839Y009915D01*
X032827Y009995D01*
X032802Y010071D01*
X032796Y010083D01*
X032845Y010104D01*
X033101Y010360D01*
X033239Y010694D01*
X033239Y011056D01*
X033101Y011391D01*
X032845Y011647D01*
X032510Y011785D01*
X031521Y011785D01*
X031587Y011896D02*
X036414Y011896D01*
X036286Y011737D02*
X036572Y011737D01*
X036573Y011579D02*
X036731Y011579D01*
X036731Y011420D02*
X036889Y011420D01*
X036814Y011262D02*
X037048Y011262D01*
X037206Y011103D02*
X036880Y011103D01*
X036899Y010945D02*
X037365Y010945D01*
X037523Y010786D02*
X036899Y010786D01*
X034410Y011579D02*
X032913Y011579D01*
X033071Y011420D02*
X034144Y011420D01*
X033985Y011262D02*
X033154Y011262D01*
X033220Y011103D02*
X033827Y011103D01*
X033668Y010945D02*
X033239Y010945D01*
X033239Y010786D02*
X033598Y010786D01*
X033548Y010628D02*
X033212Y010628D01*
X033146Y010469D02*
X033548Y010469D01*
X033548Y010311D02*
X033052Y010311D01*
X032893Y010152D02*
X033548Y010152D01*
X033548Y009994D02*
X032827Y009994D01*
X032839Y009835D02*
X033548Y009835D01*
X033548Y009677D02*
X032801Y009677D01*
X032694Y009518D02*
X033548Y009518D01*
X033548Y009360D02*
X032883Y009360D01*
X033042Y009201D02*
X033548Y009201D01*
X033548Y009043D02*
X033145Y009043D01*
X033211Y008884D02*
X033548Y008884D01*
X033548Y008726D02*
X033245Y008726D01*
X033245Y008567D02*
X033548Y008567D01*
X033548Y008409D02*
X033232Y008409D01*
X033167Y008250D02*
X033548Y008250D01*
X033548Y008092D02*
X033093Y008092D01*
X032934Y007933D02*
X033548Y007933D01*
X033548Y007775D02*
X032822Y007775D01*
X032845Y007621D02*
X032335Y007621D01*
X032335Y007621D01*
X032845Y007621D01*
X032845Y007616D02*
X033548Y007616D01*
X033548Y007458D02*
X032818Y007458D01*
X032732Y007299D02*
X033548Y007299D01*
X033548Y007141D02*
X032667Y007141D01*
X032931Y006982D02*
X033548Y006982D01*
X033548Y006824D02*
X033089Y006824D01*
X033163Y006665D02*
X033548Y006665D01*
X033548Y006507D02*
X033228Y006507D01*
X033241Y006348D02*
X033548Y006348D01*
X033548Y006190D02*
X033241Y006190D01*
X033207Y006031D02*
X033548Y006031D01*
X033548Y005873D02*
X033141Y005873D01*
X033037Y005714D02*
X033548Y005714D01*
X033548Y005556D02*
X032879Y005556D01*
X032831Y005397D02*
X033548Y005397D01*
X033548Y005239D02*
X032838Y005239D01*
X032841Y005295D02*
X032331Y005295D01*
X032841Y005295D01*
X032794Y005080D02*
X033548Y005080D01*
X033548Y004922D02*
X032679Y004922D01*
X032784Y004763D02*
X033548Y004763D01*
X033548Y004605D02*
X032976Y004605D01*
X033112Y004446D02*
X033548Y004446D01*
X033548Y004288D02*
X033178Y004288D01*
X033235Y004129D02*
X033548Y004129D01*
X033560Y003971D02*
X033235Y003971D01*
X033235Y003812D02*
X033625Y003812D01*
X033733Y003654D02*
X033180Y003654D01*
X033114Y003495D02*
X033892Y003495D01*
X034050Y003337D02*
X032980Y003337D01*
X032796Y003178D02*
X034427Y003178D01*
X034415Y003020D02*
X032833Y003020D01*
X032824Y002861D02*
X034415Y002861D01*
X034450Y002703D02*
X032762Y002703D01*
X032609Y002544D02*
X034516Y002544D01*
X034056Y002347D02*
X042233Y002347D01*
X042327Y002440D01*
X042469Y002440D01*
X042469Y002952D01*
X043092Y003575D01*
X046576Y003575D01*
X046893Y003259D01*
X045402Y002242D02*
X045367Y002207D01*
X045367Y001661D01*
X045327Y001621D01*
X043469Y001621D01*
X043256Y001408D01*
X038591Y001408D01*
X037922Y002077D01*
X037110Y002077D01*
X036807Y001774D01*
X032040Y001774D01*
X031782Y001516D01*
X020651Y001516D01*
X020485Y001350D01*
X020224Y001350D01*
X020080Y001495D01*
X020080Y002086D01*
X021045Y002386D02*
X025717Y002386D01*
X025697Y002406D02*
X025927Y002176D01*
X021090Y002176D01*
X021090Y002219D01*
X021021Y002476D01*
X020888Y002707D01*
X020700Y002895D01*
X020470Y003028D01*
X020213Y003096D01*
X019947Y003096D01*
X019690Y003028D01*
X019460Y002895D01*
X019272Y002707D01*
X019139Y002476D01*
X019121Y002410D01*
X019121Y002736D01*
X019108Y002815D01*
X019083Y002891D01*
X019047Y002963D01*
X019000Y003028D01*
X018943Y003084D01*
X018878Y003132D01*
X018807Y003168D01*
X018730Y003193D01*
X018651Y003205D01*
X018611Y003205D01*
X018611Y002365D01*
X018611Y002365D01*
X018611Y003205D01*
X018571Y003205D01*
X018491Y003193D01*
X018456Y003181D01*
X018456Y003279D01*
X024823Y003279D01*
X024926Y003176D01*
X024926Y002979D01*
X024926Y002742D01*
X025262Y002406D01*
X025500Y002406D01*
X025500Y002979D01*
X025500Y002979D01*
X025500Y002406D01*
X025697Y002406D01*
X025500Y002544D02*
X025500Y002544D01*
X025500Y002703D02*
X025500Y002703D01*
X025500Y002861D02*
X025500Y002861D01*
X025500Y002979D02*
X024926Y002979D01*
X025500Y002979D01*
X025500Y002979D01*
X024926Y003020D02*
X020484Y003020D01*
X020733Y002861D02*
X024926Y002861D01*
X024966Y002703D02*
X020890Y002703D01*
X020982Y002544D02*
X025124Y002544D01*
X025875Y002227D02*
X021088Y002227D01*
X019426Y002861D02*
X019093Y002861D01*
X019121Y002703D02*
X019269Y002703D01*
X019178Y002544D02*
X019121Y002544D01*
X018611Y002544D02*
X018611Y002544D01*
X018611Y002386D02*
X018611Y002386D01*
X018611Y002703D02*
X018611Y002703D01*
X018611Y002861D02*
X018611Y002861D01*
X018611Y003020D02*
X018611Y003020D01*
X018611Y003178D02*
X018611Y003178D01*
X018776Y003178D02*
X024924Y003178D01*
X027125Y002227D02*
X031560Y002227D01*
X031792Y002386D02*
X028682Y002386D01*
X028841Y002544D02*
X031381Y002544D01*
X031228Y002703D02*
X028999Y002703D01*
X029158Y002861D02*
X031166Y002861D01*
X031157Y003020D02*
X030853Y003020D01*
X031077Y003178D02*
X031194Y003178D01*
X032325Y002861D02*
X032325Y002861D01*
X032325Y002703D02*
X032325Y002703D01*
X032325Y002544D02*
X032325Y002544D01*
X033420Y002982D02*
X034056Y002347D01*
X037418Y001403D02*
X037709Y001112D01*
X051988Y001165D01*
X052272Y001449D01*
X052272Y002300D01*
X050273Y001626D02*
X050073Y001427D01*
X045601Y001427D01*
X045367Y001661D01*
X043469Y001621D02*
X043469Y002440D01*
X042469Y002440D02*
X042469Y003280D01*
X042469Y003280D01*
X042469Y002440D01*
X042469Y002440D01*
X041909Y002440D01*
X041909Y002068D01*
X038983Y002068D01*
X039151Y002138D01*
X039314Y002301D01*
X039403Y002514D01*
X039403Y002996D01*
X039686Y003280D01*
X042148Y003280D01*
X042104Y003247D01*
X042042Y003185D01*
X041990Y003114D01*
X041950Y003035D01*
X041922Y002951D01*
X041909Y002864D01*
X041909Y002440D01*
X042469Y002440D01*
X042469Y002440D01*
X042469Y002544D02*
X042469Y002544D01*
X042469Y002703D02*
X042469Y002703D01*
X042469Y002861D02*
X042469Y002861D01*
X042469Y003020D02*
X042469Y003020D01*
X042469Y003178D02*
X042469Y003178D01*
X042036Y003178D02*
X039585Y003178D01*
X039426Y003020D02*
X041945Y003020D01*
X041909Y002861D02*
X039403Y002861D01*
X039403Y002703D02*
X041909Y002703D01*
X041909Y002544D02*
X039403Y002544D01*
X039349Y002386D02*
X041909Y002386D01*
X041909Y002227D02*
X039240Y002227D01*
X038984Y002069D02*
X041909Y002069D01*
X037413Y004145D02*
X037236Y003968D01*
X035325Y003968D01*
X032331Y005295D02*
X032331Y005295D01*
X027603Y006055D02*
X027228Y005679D01*
X027177Y005679D01*
X027074Y005783D01*
X027074Y005979D01*
X026500Y005979D01*
X026500Y005979D01*
X027074Y005979D01*
X027074Y006176D01*
X027177Y006279D01*
X027396Y006279D01*
X027414Y006287D01*
X027450Y006217D01*
X027501Y006146D01*
X027564Y006083D01*
X027603Y006055D01*
X027579Y006031D02*
X027074Y006031D01*
X027074Y005873D02*
X027421Y005873D01*
X027262Y005714D02*
X027142Y005714D01*
X027087Y006190D02*
X027470Y006190D01*
X027074Y007787D02*
X027074Y007979D01*
X026500Y007979D01*
X026500Y007979D01*
X027074Y007979D01*
X027074Y008176D01*
X027336Y008439D01*
X027343Y008424D01*
X027395Y008353D01*
X027458Y008291D01*
X027527Y008240D01*
X027074Y007787D01*
X027074Y007933D02*
X027220Y007933D01*
X027074Y008092D02*
X027379Y008092D01*
X027514Y008250D02*
X027148Y008250D01*
X027306Y008409D02*
X027355Y008409D01*
X027822Y008718D02*
X027822Y009273D01*
X027822Y009273D01*
X027822Y008718D01*
X027822Y008718D01*
X027822Y008726D02*
X027822Y008726D01*
X027822Y008884D02*
X027822Y008884D01*
X027822Y009043D02*
X027822Y009043D01*
X027822Y009201D02*
X027822Y009201D01*
X028896Y010113D02*
X029581Y010113D01*
X029581Y010699D01*
X029651Y010867D01*
X028896Y010113D01*
X028935Y010152D02*
X029581Y010152D01*
X029581Y010311D02*
X029094Y010311D01*
X029252Y010469D02*
X029581Y010469D01*
X029581Y010628D02*
X029411Y010628D01*
X029569Y010786D02*
X029617Y010786D01*
X032626Y011737D02*
X035032Y011737D01*
X036097Y012213D02*
X031630Y012213D01*
X031632Y012054D02*
X036255Y012054D01*
X034393Y012371D02*
X031580Y012371D01*
X038027Y014193D02*
X038068Y014176D01*
X039659Y014176D01*
X039691Y014144D01*
X039740Y014124D01*
X039734Y014111D01*
X039709Y014035D01*
X039696Y013956D01*
X038264Y013956D01*
X038422Y013798D02*
X039708Y013798D01*
X039709Y013796D02*
X039734Y013720D01*
X039740Y013708D01*
X039691Y013687D01*
X039435Y013431D01*
X039296Y013097D01*
X039296Y012924D01*
X038027Y014193D01*
X038105Y014115D02*
X039735Y014115D01*
X039696Y013956D02*
X039696Y013924D01*
X040528Y013924D01*
X040528Y013907D01*
X039696Y013907D01*
X039696Y013876D01*
X039709Y013796D01*
X039643Y013639D02*
X038581Y013639D01*
X038739Y013481D02*
X039484Y013481D01*
X039390Y013322D02*
X038898Y013322D01*
X039056Y013164D02*
X039324Y013164D01*
X039296Y013005D02*
X039215Y013005D01*
X039659Y015656D02*
X038522Y015656D01*
X037123Y017055D01*
X037123Y017373D01*
X037035Y017586D01*
X036871Y017749D01*
X036658Y017838D01*
X035798Y017838D01*
X035677Y017788D01*
X035556Y017838D01*
X034695Y017838D01*
X034482Y017749D01*
X034364Y017631D01*
X032497Y017631D01*
X032225Y017518D01*
X032053Y017347D01*
X032130Y017532D01*
X032130Y018584D01*
X032365Y018819D01*
X034465Y018819D01*
X034567Y018717D01*
X034780Y018629D01*
X035640Y018629D01*
X035761Y018679D01*
X035882Y018629D01*
X036200Y018629D01*
X036868Y017961D01*
X037076Y017753D01*
X037348Y017640D01*
X039678Y017640D01*
X039709Y017608D01*
X039759Y017588D01*
X039752Y017576D01*
X039727Y017499D01*
X039715Y017420D01*
X039715Y017388D01*
X040546Y017388D01*
X040546Y017371D01*
X039715Y017371D01*
X039715Y017340D01*
X039727Y017260D01*
X039752Y017184D01*
X039759Y017172D01*
X039709Y017151D01*
X039453Y016895D01*
X039315Y016561D01*
X039315Y016199D01*
X039453Y015864D01*
X039661Y015657D01*
X039659Y015656D01*
X039618Y015700D02*
X038478Y015700D01*
X038320Y015858D02*
X039460Y015858D01*
X039390Y016017D02*
X038161Y016017D01*
X038003Y016175D02*
X039325Y016175D01*
X039315Y016334D02*
X037844Y016334D01*
X037686Y016492D02*
X039315Y016492D01*
X039352Y016651D02*
X037527Y016651D01*
X037369Y016809D02*
X039418Y016809D01*
X039526Y016968D02*
X037210Y016968D01*
X037123Y017126D02*
X039684Y017126D01*
X039724Y017285D02*
X037123Y017285D01*
X037094Y017443D02*
X039719Y017443D01*
X039726Y017602D02*
X037019Y017602D01*
X037069Y017760D02*
X036845Y017760D01*
X036910Y017919D02*
X032130Y017919D01*
X032130Y018077D02*
X036752Y018077D01*
X036593Y018236D02*
X032130Y018236D01*
X032130Y018394D02*
X036435Y018394D01*
X036276Y018553D02*
X032130Y018553D01*
X032258Y018711D02*
X034581Y018711D01*
X034508Y017760D02*
X032130Y017760D01*
X032130Y017602D02*
X032426Y017602D01*
X032150Y017443D02*
X032093Y017443D01*
X030650Y017986D02*
X030356Y017692D01*
X030356Y018393D01*
X030274Y018474D01*
X030356Y018556D01*
X030356Y019393D01*
X029956Y019793D01*
X029956Y019974D01*
X029774Y019974D01*
X029774Y019974D01*
X029774Y019974D01*
X029956Y019974D01*
X029956Y020156D01*
X030356Y020556D01*
X030356Y021393D01*
X030006Y021743D01*
X030006Y022618D01*
X029906Y022861D01*
X029860Y022906D01*
X029904Y022918D01*
X029945Y022942D01*
X029979Y022975D01*
X030003Y023016D01*
X030015Y023062D01*
X030015Y023363D01*
X029622Y023363D01*
X029622Y023518D01*
X030015Y023518D01*
X030015Y023818D01*
X030003Y023864D01*
X029979Y023905D01*
X029945Y023939D01*
X029904Y023962D01*
X029859Y023975D01*
X029622Y023975D01*
X029622Y024108D01*
X029548Y024286D01*
X030013Y024286D01*
X030413Y024686D01*
X030594Y024686D01*
X030594Y024868D01*
X030594Y024868D01*
X030594Y024868D01*
X030594Y024686D01*
X030776Y024686D01*
X030934Y024528D01*
X030934Y023031D01*
X030835Y022974D01*
X030647Y022786D01*
X030514Y022555D01*
X030445Y022299D01*
X030445Y022033D01*
X030514Y021776D01*
X030647Y021545D01*
X030835Y021357D01*
X031065Y021224D01*
X031322Y021156D01*
X031588Y021156D01*
X031845Y021224D01*
X032075Y021357D01*
X032263Y021545D01*
X032396Y021776D01*
X032465Y022033D01*
X032465Y022299D01*
X032396Y022555D01*
X032263Y022786D01*
X032254Y022795D01*
X032254Y024528D01*
X032604Y024878D01*
X032604Y025714D01*
X032560Y025758D01*
X034643Y025758D01*
X034643Y025590D01*
X034149Y025624D01*
X033621Y025515D01*
X033142Y025266D01*
X032748Y024898D01*
X032468Y024438D01*
X032468Y024438D01*
X032323Y023918D01*
X032323Y023379D01*
X032468Y022860D01*
X032748Y022399D01*
X033142Y022031D01*
X033621Y021783D01*
X034149Y021673D01*
X034643Y021707D01*
X034643Y020968D01*
X035114Y020497D01*
X034780Y020497D01*
X034567Y020409D01*
X034456Y020299D01*
X031911Y020299D01*
X031639Y020186D01*
X031431Y019978D01*
X030763Y019309D01*
X030650Y019037D01*
X030650Y017986D01*
X030650Y018077D02*
X030356Y018077D01*
X030356Y017919D02*
X030583Y017919D01*
X030424Y017760D02*
X030356Y017760D01*
X030356Y018236D02*
X030650Y018236D01*
X030650Y018394D02*
X030354Y018394D01*
X030353Y018553D02*
X030650Y018553D01*
X030650Y018711D02*
X030356Y018711D01*
X030356Y018870D02*
X030650Y018870D01*
X030650Y019028D02*
X030356Y019028D01*
X030356Y019187D02*
X030712Y019187D01*
X030798Y019345D02*
X030356Y019345D01*
X030245Y019504D02*
X030957Y019504D01*
X031115Y019662D02*
X030086Y019662D01*
X029956Y019821D02*
X031274Y019821D01*
X031432Y019979D02*
X029956Y019979D01*
X029956Y020138D02*
X031591Y020138D01*
X031905Y020296D02*
X030096Y020296D01*
X030255Y020455D02*
X034677Y020455D01*
X034839Y020772D02*
X030356Y020772D01*
X030356Y020930D02*
X034681Y020930D01*
X034643Y021089D02*
X030356Y021089D01*
X030356Y021247D02*
X031026Y021247D01*
X030787Y021406D02*
X030343Y021406D01*
X030184Y021564D02*
X030636Y021564D01*
X030545Y021723D02*
X030026Y021723D01*
X030006Y021881D02*
X030486Y021881D01*
X030445Y022040D02*
X030006Y022040D01*
X030006Y022198D02*
X030445Y022198D01*
X030461Y022357D02*
X030006Y022357D01*
X030006Y022515D02*
X030503Y022515D01*
X030582Y022674D02*
X029983Y022674D01*
X029917Y022832D02*
X030693Y022832D01*
X030864Y022991D02*
X029988Y022991D01*
X030015Y023149D02*
X030934Y023149D01*
X030934Y023308D02*
X030015Y023308D01*
X030015Y023625D02*
X030934Y023625D01*
X030934Y023783D02*
X030015Y023783D01*
X029940Y023942D02*
X030934Y023942D01*
X030934Y024100D02*
X029622Y024100D01*
X029560Y024259D02*
X030934Y024259D01*
X030934Y024417D02*
X030144Y024417D01*
X030302Y024576D02*
X030886Y024576D01*
X030594Y024734D02*
X030594Y024734D01*
X029529Y024385D02*
X029529Y023449D01*
X029520Y023440D01*
X030571Y023440D01*
X030571Y020223D01*
X030296Y019947D01*
X028918Y019974D02*
X028918Y019974D01*
X028918Y019974D01*
X028736Y019974D01*
X028736Y019793D01*
X028623Y019679D01*
X027177Y019679D01*
X027074Y019783D01*
X027074Y019979D01*
X028736Y019979D01*
X028736Y019974D02*
X028918Y019974D01*
X028736Y019974D02*
X028736Y020156D01*
X028336Y020556D01*
X028336Y021185D01*
X028285Y021185D01*
X028028Y021254D01*
X027876Y021341D01*
X027474Y021341D01*
X027474Y020576D01*
X027074Y020176D01*
X027074Y019979D01*
X026500Y019979D01*
X026500Y019979D01*
X027074Y019979D01*
X027074Y019821D02*
X028736Y019821D01*
X028736Y020138D02*
X027074Y020138D01*
X027194Y020296D02*
X028596Y020296D01*
X028437Y020455D02*
X027352Y020455D01*
X027474Y020613D02*
X028336Y020613D01*
X028336Y020772D02*
X027474Y020772D01*
X027474Y020930D02*
X028336Y020930D01*
X028336Y021089D02*
X027474Y021089D01*
X027474Y021247D02*
X028052Y021247D01*
X029346Y020974D02*
X029346Y022487D01*
X028982Y022851D01*
X028418Y023440D02*
X028418Y022195D01*
X028224Y022001D01*
X026522Y022001D01*
X026500Y021979D01*
X025500Y021979D02*
X025500Y023583D01*
X025905Y023988D01*
X027561Y023988D01*
X026632Y024648D02*
X029266Y024648D01*
X029529Y024385D01*
X029594Y025296D02*
X028991Y025899D01*
X024548Y025899D01*
X023676Y025027D01*
X023676Y023036D01*
X025500Y023583D02*
X025500Y024540D01*
X025530Y024648D01*
X024312Y024640D02*
X024308Y024637D01*
X023969Y025968D02*
X020617Y025968D01*
X019905Y025256D01*
X019905Y022575D01*
X019894Y022565D01*
X020524Y022565D01*
X020526Y022562D01*
X019894Y022565D02*
X019670Y022341D01*
X019670Y021011D01*
X020329Y021263D02*
X020329Y020283D01*
X020533Y020078D01*
X021244Y020078D01*
X021486Y017919D02*
X021486Y017919D01*
X021486Y017760D02*
X021486Y017760D01*
X021486Y017602D02*
X021486Y017602D01*
X021486Y017443D02*
X021486Y017443D01*
X021195Y017443D02*
X021033Y017443D01*
X026500Y015979D02*
X027074Y015979D01*
X026500Y015979D01*
X026500Y015979D01*
X027074Y015979D02*
X027074Y016176D01*
X027474Y016576D01*
X027474Y017279D01*
X028612Y017279D01*
X028928Y016964D01*
X029628Y016964D01*
X028719Y016055D01*
X028719Y016080D01*
X028159Y016080D01*
X027599Y016080D01*
X027599Y016036D01*
X027613Y015949D01*
X027640Y015865D01*
X027680Y015787D01*
X027732Y015716D01*
X027794Y015653D01*
X027866Y015601D01*
X027944Y015561D01*
X027962Y015555D01*
X027658Y015555D01*
X027406Y015451D01*
X027074Y015783D01*
X027074Y015979D01*
X027074Y016017D02*
X027602Y016017D01*
X027599Y016080D02*
X028159Y016080D01*
X028159Y016080D01*
X028159Y016080D01*
X028719Y016080D01*
X028719Y016124D01*
X028705Y016212D01*
X028678Y016295D01*
X028638Y016374D01*
X028586Y016445D01*
X028524Y016508D01*
X028453Y016559D01*
X028374Y016599D01*
X028290Y016627D01*
X028203Y016640D01*
X028159Y016640D01*
X028115Y016640D01*
X028028Y016627D01*
X027944Y016599D01*
X027866Y016559D01*
X027794Y016508D01*
X027732Y016445D01*
X027680Y016374D01*
X027640Y016295D01*
X027613Y016212D01*
X027599Y016124D01*
X027599Y016080D01*
X027607Y016175D02*
X027074Y016175D01*
X027231Y016334D02*
X027660Y016334D01*
X027779Y016492D02*
X027390Y016492D01*
X027474Y016651D02*
X029315Y016651D01*
X029473Y016809D02*
X027474Y016809D01*
X027474Y016968D02*
X028924Y016968D01*
X028766Y017126D02*
X027474Y017126D01*
X028159Y016640D02*
X028159Y016080D01*
X028159Y016080D01*
X028159Y016640D01*
X028159Y016492D02*
X028159Y016492D01*
X028159Y016334D02*
X028159Y016334D01*
X028159Y016175D02*
X028159Y016175D01*
X028539Y016492D02*
X029156Y016492D01*
X028998Y016334D02*
X028659Y016334D01*
X028711Y016175D02*
X028839Y016175D01*
X027748Y015700D02*
X027157Y015700D01*
X027074Y015858D02*
X027644Y015858D01*
X027624Y015541D02*
X027315Y015541D01*
X030356Y020613D02*
X034998Y020613D01*
X034643Y021247D02*
X031884Y021247D01*
X032123Y021406D02*
X034643Y021406D01*
X034643Y021564D02*
X032274Y021564D01*
X032366Y021723D02*
X033912Y021723D01*
X034149Y021673D02*
X034149Y021673D01*
X033621Y021783D02*
X033621Y021783D01*
X033432Y021881D02*
X032425Y021881D01*
X032465Y022040D02*
X033133Y022040D01*
X033142Y022031D02*
X033142Y022031D01*
X032964Y022198D02*
X032465Y022198D01*
X032450Y022357D02*
X032794Y022357D01*
X032748Y022399D02*
X032748Y022399D01*
X032678Y022515D02*
X032407Y022515D01*
X032328Y022674D02*
X032581Y022674D01*
X032485Y022832D02*
X032254Y022832D01*
X032254Y022991D02*
X032431Y022991D01*
X032468Y022860D02*
X032468Y022860D01*
X032387Y023149D02*
X032254Y023149D01*
X032254Y023308D02*
X032343Y023308D01*
X032323Y023466D02*
X032254Y023466D01*
X032254Y023625D02*
X032323Y023625D01*
X032323Y023783D02*
X032254Y023783D01*
X032254Y023942D02*
X032329Y023942D01*
X032373Y024100D02*
X032254Y024100D01*
X032254Y024259D02*
X032418Y024259D01*
X032462Y024417D02*
X032254Y024417D01*
X032302Y024576D02*
X032552Y024576D01*
X032461Y024734D02*
X032648Y024734D01*
X032604Y024893D02*
X032745Y024893D01*
X032748Y024898D02*
X032748Y024898D01*
X032604Y025051D02*
X032912Y025051D01*
X033081Y025210D02*
X032604Y025210D01*
X032604Y025368D02*
X033339Y025368D01*
X033142Y025266D02*
X033142Y025266D01*
X033621Y025515D02*
X033621Y025515D01*
X033679Y025527D02*
X032604Y025527D01*
X032604Y025685D02*
X034643Y025685D01*
X034149Y025624D02*
X034149Y025624D01*
X031594Y025296D02*
X031594Y022305D01*
X031455Y022166D01*
X030571Y023440D02*
X030668Y023537D01*
X030668Y025222D01*
X030594Y025296D01*
X031594Y025296D02*
X031594Y025975D01*
X031361Y026208D01*
X024210Y026208D01*
X023969Y025968D01*
X028435Y025455D02*
X028594Y025296D01*
X029622Y023466D02*
X030934Y023466D01*
X052636Y016892D02*
X052685Y016929D01*
X053001Y016929D01*
X053001Y016952D01*
X052988Y017034D01*
X052963Y017112D01*
X052952Y017133D01*
X053134Y017273D01*
X053142Y017277D01*
X054390Y018526D01*
X059071Y018526D01*
X059565Y018032D01*
X059565Y018027D01*
X059519Y018073D01*
X058905Y018073D01*
X058799Y018178D01*
X057836Y018178D01*
X057662Y018004D01*
X054376Y018004D01*
X053227Y016855D01*
X052999Y016855D01*
X053001Y016870D01*
X053001Y016892D01*
X052636Y016892D01*
X052999Y016968D02*
X053340Y016968D01*
X053499Y017126D02*
X052956Y017126D01*
X053149Y017285D02*
X053657Y017285D01*
X053816Y017443D02*
X053308Y017443D01*
X053466Y017602D02*
X053974Y017602D01*
X054133Y017760D02*
X053625Y017760D01*
X053783Y017919D02*
X054291Y017919D01*
X054100Y018236D02*
X059361Y018236D01*
X059247Y018236D02*
X061195Y018236D01*
X061211Y018214D02*
X061270Y018155D01*
X061338Y018106D01*
X061412Y018068D01*
X061491Y018042D01*
X061574Y018029D01*
X061615Y018029D01*
X061615Y018365D01*
X061615Y018365D01*
X061615Y018029D01*
X061656Y018029D01*
X061656Y016186D01*
X061476Y016005D01*
X061476Y016007D01*
X059141Y018342D01*
X059149Y018338D01*
X061133Y018338D01*
X061162Y018281D01*
X061211Y018214D01*
X061394Y018077D02*
X059406Y018077D01*
X059519Y018077D02*
X058900Y018077D01*
X059202Y018394D02*
X054259Y018394D01*
X053942Y018077D02*
X057735Y018077D01*
X059564Y017919D02*
X061656Y017919D01*
X061656Y017760D02*
X059723Y017760D01*
X059881Y017602D02*
X061656Y017602D01*
X061656Y017443D02*
X060040Y017443D01*
X060198Y017285D02*
X061656Y017285D01*
X061656Y017126D02*
X060357Y017126D01*
X060515Y016968D02*
X061656Y016968D01*
X061656Y016809D02*
X060674Y016809D01*
X060832Y016651D02*
X061656Y016651D01*
X061656Y016492D02*
X060991Y016492D01*
X061149Y016334D02*
X061656Y016334D01*
X061646Y016175D02*
X061308Y016175D01*
X061466Y016017D02*
X061487Y016017D01*
X061916Y016017D02*
X063283Y016017D01*
X063283Y016175D02*
X061916Y016175D01*
X061916Y016334D02*
X063283Y016334D01*
X063283Y016492D02*
X061916Y016492D01*
X061916Y016651D02*
X063283Y016651D01*
X063283Y016809D02*
X061916Y016809D01*
X061916Y016968D02*
X063283Y016968D01*
X063283Y017126D02*
X061916Y017126D01*
X061916Y017285D02*
X063283Y017285D01*
X063283Y017443D02*
X061916Y017443D01*
X061916Y017602D02*
X063283Y017602D01*
X063283Y017760D02*
X061916Y017760D01*
X061916Y017919D02*
X063283Y017919D01*
X063283Y018066D02*
X063283Y015253D01*
X062917Y014886D01*
X062914Y014890D01*
X062850Y014955D01*
X062778Y015010D01*
X062699Y015055D01*
X062615Y015090D01*
X062528Y015113D01*
X062438Y015125D01*
X062392Y015125D01*
X062347Y015125D01*
X062257Y015113D01*
X062170Y015090D01*
X062086Y015055D01*
X062007Y015010D01*
X061935Y014955D01*
X061916Y014935D01*
X061916Y018122D01*
X061961Y018155D01*
X062020Y018214D01*
X062069Y018281D01*
X062107Y018356D01*
X062132Y018435D01*
X062145Y018517D01*
X062145Y018830D01*
X062198Y018827D01*
X062274Y018838D01*
X062346Y018864D01*
X062412Y018903D01*
X062469Y018954D01*
X062713Y018954D01*
X062713Y018714D01*
X063111Y018316D01*
X063393Y018316D01*
X063533Y018316D01*
X063283Y018066D01*
X063295Y018077D02*
X061916Y018077D01*
X062036Y018236D02*
X063453Y018236D01*
X063393Y018316D02*
X063393Y018954D01*
X063393Y018954D01*
X063393Y018316D01*
X063393Y018394D02*
X063393Y018394D01*
X063393Y018553D02*
X063393Y018553D01*
X063393Y018711D02*
X063393Y018711D01*
X063393Y018870D02*
X063393Y018870D01*
X062874Y018553D02*
X062145Y018553D01*
X062145Y018711D02*
X062716Y018711D01*
X062713Y018870D02*
X062356Y018870D01*
X062119Y018394D02*
X063033Y018394D01*
X061615Y018236D02*
X061615Y018236D01*
X061615Y018077D02*
X061615Y018077D01*
X065624Y018789D02*
X065624Y018986D01*
X066302Y018986D01*
X066608Y018680D01*
X066568Y018616D01*
X066522Y018522D01*
X066488Y018423D01*
X066465Y018322D01*
X066453Y018218D01*
X066453Y018184D01*
X067104Y018184D01*
X067141Y018147D01*
X066453Y018147D01*
X066453Y018113D01*
X066465Y018010D01*
X066488Y017908D01*
X066522Y017809D01*
X066568Y017715D01*
X066573Y017707D01*
X066178Y017707D01*
X066059Y017826D01*
X066121Y017977D01*
X066121Y018283D01*
X066024Y018518D01*
X065844Y018698D01*
X065624Y018789D01*
X065624Y018870D02*
X066418Y018870D01*
X066577Y018711D02*
X065813Y018711D01*
X065989Y018553D02*
X066537Y018553D01*
X066481Y018394D02*
X066075Y018394D01*
X066121Y018236D02*
X066455Y018236D01*
X066457Y018077D02*
X066121Y018077D01*
X066097Y017919D02*
X066485Y017919D01*
X066546Y017760D02*
X066125Y017760D01*
X067308Y020081D02*
X068960Y018429D01*
X068960Y017522D01*
X070484Y015997D01*
X070680Y015997D01*
X070678Y017499D01*
X070665Y017486D01*
X070401Y017486D01*
X070401Y018147D01*
X070365Y018147D01*
X070365Y017486D01*
X070101Y017486D01*
X069703Y017884D01*
X069703Y018147D01*
X070365Y018147D01*
X070365Y018184D01*
X070365Y018846D01*
X070101Y018846D01*
X069703Y018447D01*
X069703Y018184D01*
X070365Y018184D01*
X070401Y018184D01*
X070401Y018846D01*
X070665Y018846D01*
X070676Y018834D01*
X070674Y020396D01*
X070488Y020396D01*
X070442Y020350D01*
X069531Y020350D01*
X068887Y020995D01*
X068887Y021180D01*
X066505Y023562D01*
X066505Y023458D01*
X066493Y023412D01*
X066469Y023371D01*
X066435Y023338D01*
X066394Y023314D01*
X066349Y023302D01*
X066087Y023302D01*
X066087Y023759D01*
X065955Y023759D01*
X065955Y023072D01*
X065965Y023072D01*
X065965Y022615D01*
X066119Y022615D01*
X066119Y023072D01*
X066381Y023072D01*
X066426Y023060D01*
X066467Y023036D01*
X066501Y023002D01*
X066525Y022961D01*
X066537Y022915D01*
X066537Y022615D01*
X066119Y022615D01*
X066119Y022460D01*
X066119Y022003D01*
X066381Y022003D01*
X066426Y022015D01*
X066467Y022039D01*
X066501Y022073D01*
X066525Y022114D01*
X066537Y022159D01*
X066537Y022460D01*
X066119Y022460D01*
X065965Y022460D01*
X065965Y022003D01*
X065955Y022003D01*
X065955Y021884D01*
X065960Y021884D01*
X065960Y021428D01*
X066115Y021428D01*
X066115Y021884D01*
X066376Y021884D01*
X066422Y021872D01*
X066463Y021848D01*
X066496Y021815D01*
X066520Y021774D01*
X066532Y021728D01*
X066532Y021428D01*
X066115Y021428D01*
X066115Y021273D01*
X066532Y021273D01*
X066532Y020972D01*
X066520Y020926D01*
X066496Y020885D01*
X066463Y020852D01*
X066422Y020828D01*
X066376Y020816D01*
X066115Y020816D01*
X066115Y021273D01*
X065960Y021273D01*
X065960Y020816D01*
X065955Y020816D01*
X065955Y020082D01*
X065961Y020081D01*
X067308Y020081D01*
X067410Y019979D02*
X070674Y019979D01*
X070675Y019821D02*
X067569Y019821D01*
X067727Y019662D02*
X070675Y019662D01*
X070675Y019504D02*
X067886Y019504D01*
X068044Y019345D02*
X070675Y019345D01*
X070675Y019187D02*
X068203Y019187D01*
X068361Y019028D02*
X070676Y019028D01*
X070676Y018870D02*
X068520Y018870D01*
X068678Y018711D02*
X069967Y018711D01*
X069808Y018553D02*
X068837Y018553D01*
X068960Y018394D02*
X069703Y018394D01*
X069703Y018236D02*
X068960Y018236D01*
X068960Y018077D02*
X069703Y018077D01*
X069703Y017919D02*
X068960Y017919D01*
X068960Y017760D02*
X069827Y017760D01*
X069985Y017602D02*
X068960Y017602D01*
X069038Y017443D02*
X070678Y017443D01*
X070678Y017285D02*
X069197Y017285D01*
X069355Y017126D02*
X070678Y017126D01*
X070678Y016968D02*
X069514Y016968D01*
X069672Y016809D02*
X070679Y016809D01*
X070679Y016651D02*
X069831Y016651D01*
X069989Y016492D02*
X070679Y016492D01*
X070679Y016334D02*
X070148Y016334D01*
X070306Y016175D02*
X070680Y016175D01*
X070680Y016017D02*
X070465Y016017D01*
X070401Y017602D02*
X070365Y017602D01*
X070365Y017760D02*
X070401Y017760D01*
X070401Y017919D02*
X070365Y017919D01*
X070365Y018077D02*
X070401Y018077D01*
X070401Y018236D02*
X070365Y018236D01*
X070365Y018394D02*
X070401Y018394D01*
X070401Y018553D02*
X070365Y018553D01*
X070365Y018711D02*
X070401Y018711D01*
X070674Y020138D02*
X065955Y020138D01*
X065955Y020296D02*
X070674Y020296D01*
X069427Y020455D02*
X065955Y020455D01*
X065955Y020613D02*
X069268Y020613D01*
X069110Y020772D02*
X065955Y020772D01*
X065960Y020930D02*
X066115Y020930D01*
X066115Y021089D02*
X065960Y021089D01*
X065960Y021247D02*
X066115Y021247D01*
X066115Y021406D02*
X068661Y021406D01*
X068502Y021564D02*
X066532Y021564D01*
X066532Y021723D02*
X068344Y021723D01*
X068185Y021881D02*
X066388Y021881D01*
X066468Y022040D02*
X068027Y022040D01*
X067868Y022198D02*
X066537Y022198D01*
X066537Y022357D02*
X067710Y022357D01*
X067551Y022515D02*
X066119Y022515D01*
X066119Y022357D02*
X065965Y022357D01*
X065965Y022198D02*
X066119Y022198D01*
X066119Y022040D02*
X065965Y022040D01*
X065960Y021881D02*
X066115Y021881D01*
X066115Y021723D02*
X065960Y021723D01*
X065960Y021564D02*
X066115Y021564D01*
X066532Y021247D02*
X068819Y021247D01*
X068887Y021089D02*
X066532Y021089D01*
X066521Y020930D02*
X068951Y020930D01*
X067393Y022674D02*
X066537Y022674D01*
X066537Y022832D02*
X067234Y022832D01*
X067076Y022991D02*
X066508Y022991D01*
X066370Y023308D02*
X066759Y023308D01*
X066600Y023466D02*
X066505Y023466D01*
X066308Y023759D02*
X066087Y023759D01*
X066087Y023798D01*
X066268Y023798D01*
X066308Y023759D01*
X066283Y023783D02*
X066087Y023783D01*
X066087Y023625D02*
X065955Y023625D01*
X065955Y023466D02*
X066087Y023466D01*
X066087Y023308D02*
X065955Y023308D01*
X065955Y023149D02*
X066917Y023149D01*
X066119Y022991D02*
X065965Y022991D01*
X065965Y022832D02*
X066119Y022832D01*
X066119Y022674D02*
X065965Y022674D01*
X055701Y017199D02*
X055498Y017402D01*
X054517Y017375D01*
X053507Y016433D01*
X053507Y013905D01*
X055036Y013873D02*
X055718Y013191D01*
X055718Y012952D01*
X061916Y015066D02*
X062111Y015066D01*
X061916Y015224D02*
X063255Y015224D01*
X063283Y015383D02*
X061916Y015383D01*
X061916Y015541D02*
X063283Y015541D01*
X063283Y015700D02*
X061916Y015700D01*
X061916Y015858D02*
X063283Y015858D01*
X063096Y015066D02*
X062674Y015066D01*
X062897Y014907D02*
X062938Y014907D01*
X062392Y014907D02*
X062392Y014907D01*
X062392Y014749D02*
X062392Y014749D01*
X062392Y014590D02*
X062392Y014590D01*
X062392Y014460D02*
X062392Y014460D01*
X062392Y015125D01*
X062392Y014460D01*
X062392Y015066D02*
X062392Y015066D01*
X054862Y007345D02*
X054333Y007345D01*
X054111Y007123D01*
X054111Y004745D01*
X055323Y005431D02*
X055323Y006884D01*
X054862Y007345D01*
X052631Y006519D02*
X051691Y005696D01*
X051688Y005696D02*
X051347Y005354D01*
X040400Y005354D01*
X039914Y005840D01*
X029789Y003020D02*
X029750Y003020D01*
X020224Y001350D02*
X010515Y001350D01*
X008522Y003344D01*
X008522Y005127D01*
X007512Y005080D02*
X003601Y005080D01*
X003601Y005043D02*
X003601Y005240D01*
X007512Y005240D01*
X007512Y004994D01*
X007580Y004737D01*
X007713Y004506D01*
X007862Y004358D01*
X007862Y003213D01*
X007962Y002970D01*
X008148Y002785D01*
X009313Y001619D01*
X006776Y001619D01*
X006975Y001865D01*
X007190Y002359D01*
X007190Y002359D01*
X007264Y002893D01*
X007190Y003428D01*
X006975Y003922D01*
X006635Y004340D01*
X006195Y004651D01*
X006195Y004651D01*
X005687Y004832D01*
X005687Y004832D01*
X005149Y004869D01*
X005149Y004869D01*
X004621Y004759D01*
X004621Y004759D01*
X004142Y004511D01*
X004142Y004511D01*
X003748Y004143D01*
X003468Y003682D01*
X003447Y003610D01*
X003162Y003961D01*
X003162Y003961D01*
X003162Y003961D01*
X002721Y004272D01*
X002316Y004416D01*
X002328Y004437D01*
X002340Y004483D01*
X002340Y004900D01*
X002340Y005042D01*
X002418Y005074D01*
X002533Y005189D01*
X002533Y005043D01*
X002545Y004998D01*
X002569Y004956D01*
X002602Y004923D01*
X002643Y004899D01*
X002689Y004887D01*
X002990Y004887D01*
X002990Y005240D01*
X003144Y005240D01*
X003144Y004887D01*
X003445Y004887D01*
X003491Y004899D01*
X003532Y004923D01*
X003565Y004956D01*
X003589Y004998D01*
X003601Y005043D01*
X003530Y004922D02*
X007531Y004922D01*
X007573Y004763D02*
X005880Y004763D01*
X006261Y004605D02*
X007657Y004605D01*
X007774Y004446D02*
X006485Y004446D01*
X006635Y004340D02*
X006635Y004340D01*
X006678Y004288D02*
X007862Y004288D01*
X007862Y004129D02*
X006807Y004129D01*
X006936Y003971D02*
X007862Y003971D01*
X007862Y003812D02*
X007023Y003812D01*
X006975Y003922D02*
X006975Y003922D01*
X007092Y003654D02*
X007862Y003654D01*
X007862Y003495D02*
X007161Y003495D01*
X007190Y003428D02*
X007190Y003428D01*
X007203Y003337D02*
X007862Y003337D01*
X007876Y003178D02*
X007225Y003178D01*
X007246Y003020D02*
X007942Y003020D01*
X008071Y002861D02*
X007259Y002861D01*
X007238Y002703D02*
X008230Y002703D01*
X008388Y002544D02*
X007216Y002544D01*
X007194Y002386D02*
X008547Y002386D01*
X008705Y002227D02*
X007133Y002227D01*
X007064Y002069D02*
X008864Y002069D01*
X009022Y001910D02*
X006995Y001910D01*
X006975Y001865D02*
X006975Y001865D01*
X006884Y001752D02*
X009181Y001752D01*
X003643Y003971D02*
X003148Y003971D01*
X003283Y003812D02*
X003547Y003812D01*
X003468Y003682D02*
X003468Y003682D01*
X003460Y003654D02*
X003412Y003654D01*
X003739Y004129D02*
X002924Y004129D01*
X002721Y004272D02*
X002721Y004272D01*
X002677Y004288D02*
X003903Y004288D01*
X003748Y004143D02*
X003748Y004143D01*
X004072Y004446D02*
X002331Y004446D01*
X002340Y004605D02*
X004323Y004605D01*
X004640Y004763D02*
X002340Y004763D01*
X002340Y004900D02*
X001767Y004900D01*
X002340Y004900D01*
X002340Y004922D02*
X002604Y004922D01*
X002585Y004900D02*
X001767Y004900D01*
X001767Y004900D01*
X001767Y004926D01*
X001767Y004926D01*
X001767Y004900D01*
X001767Y004900D01*
X001767Y004483D01*
X001767Y004483D01*
X001767Y004900D01*
X001767Y004900D01*
X001767Y004900D01*
X001193Y004900D01*
X001193Y005197D01*
X001041Y005348D01*
X000893Y005706D01*
X000893Y006094D01*
X000982Y006308D01*
X000941Y006348D01*
X000867Y006527D01*
X000870Y004236D01*
X001147Y004380D01*
X001147Y004380D01*
X001229Y004397D01*
X001205Y004437D01*
X001193Y004483D01*
X001193Y004900D01*
X001767Y004900D01*
X001767Y004922D02*
X001767Y004922D01*
X001767Y004763D02*
X001767Y004763D01*
X001767Y004605D02*
X001767Y004605D01*
X001193Y004605D02*
X000870Y004605D01*
X000870Y004763D02*
X001193Y004763D01*
X001193Y004922D02*
X000869Y004922D01*
X000869Y005080D02*
X001193Y005080D01*
X001151Y005239D02*
X000869Y005239D01*
X000869Y005397D02*
X001021Y005397D01*
X000955Y005556D02*
X000869Y005556D01*
X000868Y005714D02*
X000893Y005714D01*
X000893Y005873D02*
X000868Y005873D01*
X000868Y006031D02*
X000893Y006031D01*
X000868Y006190D02*
X000933Y006190D01*
X000942Y006348D02*
X000867Y006348D01*
X000867Y006507D02*
X000876Y006507D01*
X001867Y005900D02*
X009675Y005900D01*
X007512Y005239D02*
X003601Y005239D01*
X003144Y005239D02*
X002990Y005239D01*
X002990Y005080D02*
X003144Y005080D01*
X003144Y004922D02*
X002990Y004922D01*
X002585Y004900D02*
X003067Y005382D01*
X002533Y005080D02*
X002424Y005080D01*
X001203Y004446D02*
X000870Y004446D01*
X000870Y004288D02*
X000970Y004288D01*
X008503Y007249D02*
X008585Y007330D01*
X009110Y007330D01*
X003923Y009994D02*
X003726Y009994D01*
X003726Y010152D02*
X003923Y010152D01*
X003923Y010311D02*
X003726Y010311D01*
X003726Y010469D02*
X004005Y010469D01*
X003726Y010628D02*
X007122Y010628D01*
X007063Y011103D02*
X004525Y011103D01*
X004470Y011103D02*
X003726Y011103D01*
X003726Y010945D02*
X003923Y010945D01*
X003953Y010786D02*
X003726Y010786D01*
X004470Y010786D02*
X004525Y010786D01*
X004525Y010945D02*
X004470Y010945D01*
X004470Y011262D02*
X004525Y011262D01*
X004525Y011420D02*
X004470Y011420D01*
X003954Y011420D02*
X003726Y011420D01*
X003726Y011262D02*
X003923Y011262D01*
X003733Y011579D02*
X007123Y011579D01*
X004525Y011737D02*
X004470Y011737D01*
X004470Y011896D02*
X004525Y011896D01*
X004525Y012054D02*
X004470Y012054D01*
X004470Y012213D02*
X004525Y012213D01*
X004525Y012371D02*
X004470Y012371D01*
X003931Y012371D02*
X003921Y012371D01*
X003921Y012213D02*
X003923Y012213D01*
X003921Y012054D02*
X003923Y012054D01*
X003921Y011896D02*
X003923Y011896D01*
X003857Y011737D02*
X004003Y011737D01*
X004470Y010469D02*
X004525Y010469D01*
X004525Y010311D02*
X004470Y010311D01*
X004025Y013481D02*
X000858Y013481D01*
X000857Y013639D02*
X007118Y013639D01*
X007063Y014432D02*
X005033Y014432D01*
X003987Y014749D02*
X000856Y014749D01*
X000856Y014907D02*
X003923Y014907D01*
X003923Y015066D02*
X000856Y015066D01*
X000855Y015224D02*
X003923Y015224D01*
X003934Y015383D02*
X000855Y015383D01*
X000857Y013956D02*
X003923Y013956D01*
X003947Y013798D02*
X000857Y013798D01*
X018626Y005328D02*
X018814Y005140D01*
X020080Y005140D01*
X019676Y003020D02*
X019006Y003020D01*
X050273Y003044D02*
X050273Y001626D01*
D36*
X050272Y002300D02*
X050273Y002301D01*
X050273Y003044D01*
X051251Y003045D02*
X051251Y002320D01*
X051272Y002300D01*
X052272Y002300D02*
X052354Y002382D01*
X052354Y003045D01*
X055704Y003217D02*
X055704Y002149D01*
X055969Y001884D01*
X056969Y001884D02*
X058041Y002957D01*
X058181Y002957D01*
X059284Y002957D02*
X059837Y002957D01*
X060254Y003373D01*
X060254Y004871D01*
X059988Y004606D01*
X058424Y004606D01*
X058268Y004450D01*
X057005Y004450D01*
X057005Y003450D02*
X056772Y003217D01*
X055704Y003217D01*
X060254Y004871D02*
X060254Y007535D01*
X060019Y007301D01*
X059309Y007301D01*
X060254Y007535D02*
X060254Y009045D01*
X060064Y008855D01*
X058424Y008855D01*
X058287Y008718D01*
X056998Y008718D01*
X056998Y007718D02*
X056809Y007530D01*
X055729Y007530D01*
X055729Y006443D01*
X055961Y006211D01*
X055961Y005464D01*
X056071Y005354D01*
X057924Y005354D01*
X058424Y005855D01*
X058051Y007301D02*
X056961Y006211D01*
X058051Y007301D02*
X058206Y007301D01*
X060254Y009045D02*
X060254Y011884D01*
X060003Y011634D01*
X059290Y011634D01*
X058188Y011634D02*
X057202Y010648D01*
X057009Y010648D01*
X056009Y010648D02*
X055718Y010938D01*
X055718Y011952D01*
X056796Y011952D01*
X056952Y012107D01*
X056952Y013107D02*
X056982Y013138D01*
X058427Y013138D01*
X060037Y013138D01*
X060254Y013354D01*
X060254Y011884D01*
X060254Y013354D02*
X060254Y014952D01*
X059264Y015941D01*
X059264Y016706D01*
X058589Y017381D01*
X058444Y017381D01*
X058392Y017433D01*
X058266Y017307D01*
X056997Y017307D01*
X056997Y016307D02*
X056890Y016199D01*
X055701Y016199D01*
X055701Y015165D01*
X056014Y014852D01*
X056014Y014308D01*
X056306Y014016D01*
X057975Y014016D01*
X058392Y014433D01*
X057014Y014852D02*
X058103Y015941D01*
X058162Y015941D01*
X059705Y017891D02*
X060598Y017891D01*
X061615Y018909D01*
X063306Y018909D02*
X063393Y018996D01*
X059705Y017891D02*
X059070Y018526D01*
X054372Y018526D01*
X052757Y016911D01*
X052132Y016911D01*
X051590Y016911D01*
X050039Y016887D02*
X049739Y016887D01*
X048997Y016146D01*
X048997Y012915D01*
X047028Y013952D02*
X046908Y014072D01*
X046908Y016269D01*
X046379Y016798D01*
X045817Y016798D01*
X042069Y017545D02*
X041905Y017380D01*
X040555Y017380D01*
X042069Y017545D02*
X042069Y014182D01*
X041803Y013916D01*
X040536Y013916D01*
X040536Y014916D02*
X038216Y014916D01*
X036228Y016903D01*
X035126Y016903D02*
X035113Y016891D01*
X032644Y016891D01*
X027732Y011979D01*
X026500Y011979D01*
X026500Y010979D02*
X028028Y010979D01*
X032070Y015021D01*
X035047Y015021D01*
X035048Y015023D01*
X036151Y015023D02*
X039600Y011574D01*
X041478Y011574D01*
X042791Y011740D02*
X042791Y010671D01*
X042694Y010574D01*
X041478Y010574D01*
X042791Y010671D02*
X042791Y007399D01*
X042654Y007262D01*
X041453Y007262D01*
X041450Y007260D01*
X037355Y007643D02*
X037333Y007621D01*
X035335Y007621D01*
X033610Y007965D02*
X033266Y007621D01*
X032335Y007621D01*
X033610Y007965D02*
X033610Y005547D01*
X033357Y005295D01*
X032331Y005295D01*
X033610Y005547D02*
X033610Y003130D01*
X033462Y002982D01*
X033420Y002982D01*
X032339Y002982D01*
X032325Y002968D01*
X031426Y002069D01*
X025841Y002069D01*
X025500Y002410D01*
X025500Y002979D01*
X026500Y005979D02*
X027398Y005979D01*
X027929Y006510D01*
X027822Y008718D02*
X027822Y009165D01*
X032329Y009875D02*
X033179Y009875D01*
X033610Y009445D01*
X033610Y009232D01*
X033610Y007965D01*
X034288Y009038D02*
X034705Y008621D01*
X035335Y008621D01*
X034288Y009038D02*
X034288Y006715D01*
X034709Y006295D01*
X035331Y006295D01*
X034288Y006715D02*
X034288Y004145D01*
X034473Y003960D01*
X035317Y003960D01*
X035325Y003968D01*
X035325Y002968D02*
X037390Y002968D01*
X037405Y002984D01*
X037396Y005295D02*
X035331Y005295D01*
X037396Y005295D02*
X037400Y005299D01*
X045423Y003017D02*
X045423Y002263D01*
X045402Y002242D01*
X045402Y002267D01*
X046402Y002242D02*
X046526Y002366D01*
X046526Y003017D01*
X046650Y003017D01*
X046893Y003259D01*
X047054Y003421D01*
X048794Y003421D01*
X049170Y003044D01*
X049170Y002401D01*
X049272Y002300D01*
X034288Y009038D02*
X034288Y010518D01*
X034645Y010875D01*
X035329Y010875D01*
X035329Y009875D02*
X037291Y009875D01*
X037345Y009821D01*
X038499Y010857D02*
X038611Y010744D01*
X038499Y010857D02*
X036182Y013174D01*
X031390Y017680D02*
X028526Y014815D01*
X027805Y014815D01*
X026969Y013979D01*
X026500Y013979D01*
X027401Y012979D02*
X028184Y013762D01*
X027401Y012979D02*
X026500Y012979D01*
X026500Y015979D02*
X026601Y016080D01*
X028159Y016080D01*
X028162Y016083D01*
X028162Y016617D01*
X028497Y016952D01*
X029867Y016952D01*
X030573Y017658D01*
X030573Y019622D01*
X030597Y019645D01*
X031716Y020765D01*
X037453Y020765D01*
X038548Y019669D01*
X041242Y019669D01*
X042069Y018841D01*
X042069Y017545D01*
X040555Y018380D02*
X037496Y018380D01*
X036313Y019563D01*
X035210Y019563D02*
X035206Y019559D01*
X032058Y019559D01*
X031390Y018890D01*
X031390Y017680D01*
X030597Y019645D02*
X030296Y019947D01*
X030263Y019979D01*
X029341Y019979D01*
X028148Y019979D01*
X025500Y017979D02*
X021486Y017979D01*
X019449Y017993D02*
X015190Y017993D01*
X015062Y018121D01*
X056009Y010648D02*
X056009Y009969D01*
X056313Y009664D01*
X057953Y009664D01*
X058427Y010138D01*
D37*
X055386Y009464D03*
X051936Y009442D03*
X051474Y006663D03*
X054762Y006508D03*
X054111Y004745D03*
X053916Y003228D03*
X037413Y004145D03*
X037418Y001403D03*
X027929Y006510D03*
X027822Y008718D03*
X031076Y012126D03*
X028184Y013762D03*
X028159Y016080D03*
X031067Y016353D03*
X012314Y011774D03*
X053507Y013905D03*
X055036Y013873D03*
X061508Y022850D03*
X055671Y022993D03*
D38*
X031455Y022166D03*
X028418Y022195D03*
X023676Y023036D03*
X023676Y019354D03*
X021486Y017979D03*
X019449Y017993D03*
X012291Y010511D03*
X008503Y007249D03*
X008522Y005127D03*
X020080Y005140D03*
X020080Y002086D03*
D39*
X028982Y022851D02*
X028982Y023981D01*
X028786Y024177D01*
X027750Y024177D01*
X027561Y023988D01*
D40*
X062392Y014433D02*
X062427Y014399D01*
X062427Y010138D01*
X062424Y010136D01*
X062424Y005855D01*
X062424Y005855D01*
X062424Y001606D01*
X065424Y001606D02*
X065424Y002117D01*
X068733Y005426D01*
X066965Y007396D02*
X065424Y005855D01*
X066965Y007396D02*
X068733Y007396D01*
X068733Y009366D02*
X066198Y009366D01*
X065427Y010138D01*
X066576Y011346D02*
X068733Y011346D01*
X066576Y011346D02*
X065418Y012504D01*
X065392Y014433D01*
D41*
X052132Y016911D02*
X052109Y016887D01*
X050039Y016887D01*
X049978Y016826D01*
X047994Y016826D01*
X047966Y016798D01*
X045817Y016798D01*
X064907Y023836D02*
X064907Y023998D01*
X066036Y025127D01*
X066036Y025223D01*
X017626Y005328D02*
X017626Y004331D01*
X017626Y002380D01*
X017625Y002374D01*
X017622Y002369D01*
X017617Y002366D01*
X017611Y002365D01*
X016626Y002380D02*
X016626Y005328D01*
X015626Y005328D02*
X015626Y002380D01*
X015625Y002374D01*
X015622Y002369D01*
X015617Y002366D01*
X015611Y002365D01*
X014626Y002380D02*
X014626Y005328D01*
X013626Y005328D02*
X013626Y002380D01*
X013625Y002374D01*
X013622Y002369D01*
X013617Y002366D01*
X013611Y002365D01*
X014611Y002365D02*
X014617Y002366D01*
X014622Y002369D01*
X014625Y002374D01*
X014626Y002380D01*
X016611Y002365D02*
X016617Y002366D01*
X016622Y002369D01*
X016625Y002374D01*
X016626Y002380D01*
X012626Y002380D02*
X012626Y005328D01*
X011626Y005328D02*
X011626Y002380D01*
X011625Y002374D01*
X011622Y002369D01*
X011617Y002366D01*
X011611Y002365D01*
X012611Y002365D02*
X012617Y002366D01*
X012622Y002369D01*
X012625Y002374D01*
X012626Y002380D01*
D42*
X047624Y011542D02*
X048997Y012915D01*
X051079Y011844D02*
X051079Y016399D01*
X051590Y016911D01*
X051079Y011844D02*
X047883Y008649D01*
X047883Y008250D01*
D43*
X047725Y012916D02*
X043536Y012916D01*
X047725Y012916D02*
X048100Y013291D01*
X048100Y015720D01*
X047994Y015826D01*
X045817Y015798D02*
X044137Y015798D01*
X043555Y016380D01*
X044687Y017310D02*
X045199Y016798D01*
X045817Y016798D01*
X044687Y017310D02*
X044687Y019642D01*
X044226Y020103D02*
X044189Y020141D01*
X042726Y020103D02*
X042726Y019208D01*
X043555Y018380D01*
X045817Y017798D02*
X045817Y020541D01*
X045531Y020827D01*
X045531Y022343D01*
X046638Y023450D01*
X046638Y024535D01*
X046737Y024635D01*
X052109Y024635D02*
X052148Y024596D01*
X053251Y024596D02*
X053289Y024635D01*
X059193Y023050D02*
X060783Y021460D01*
X064825Y021460D02*
X064935Y021350D01*
X059760Y019554D02*
X059420Y019214D01*
X052948Y019214D01*
X052132Y018398D01*
X052132Y017911D01*
X051968Y021525D02*
X051994Y021551D01*
X053096Y021551D02*
X053123Y021525D01*
X047329Y021525D02*
X046790Y021525D01*
M02*
