G75*
G70*
%OFA0B0*%
%FSLAX24Y24*%
%IPPOS*%
%LPD*%
%AMOC8*
5,1,8,0,0,1.08239X$1,22.5*
%
%ADD10C,0.0160*%
%ADD11C,0.0320*%
%ADD12C,0.0110*%
%ADD13C,0.0060*%
%ADD14C,0.0050*%
%ADD15C,0.0000*%
%ADD16R,0.0660X0.0300*%
%ADD17C,0.0030*%
%ADD18R,0.0600X0.0600*%
%ADD19C,0.0040*%
%ADD20C,0.0080*%
%ADD21C,0.0010*%
D10*
X000215Y000959D02*
X000180Y026418D01*
X071225Y026418D01*
X071260Y000959D01*
X000215Y000959D01*
D11*
X065481Y018104D02*
X065481Y018156D01*
D12*
X019562Y010208D02*
X019562Y009617D01*
X019267Y009617D01*
X019168Y009716D01*
X019168Y010109D01*
X019267Y010208D01*
X019562Y010208D01*
X018918Y009912D02*
X018819Y010011D01*
X018622Y010011D01*
X018524Y009912D01*
X018524Y009814D01*
X018918Y009814D01*
X018918Y009716D02*
X018918Y009912D01*
X018918Y009716D02*
X018819Y009617D01*
X018622Y009617D01*
X018273Y009617D02*
X017978Y009617D01*
X017879Y009716D01*
X017978Y009814D01*
X018175Y009814D01*
X018273Y009912D01*
X018175Y010011D01*
X017879Y010011D01*
X017628Y010011D02*
X017530Y010011D01*
X017530Y009617D01*
X017628Y009617D02*
X017432Y009617D01*
X017199Y009716D02*
X017100Y009617D01*
X016805Y009617D01*
X016805Y009519D02*
X016805Y010011D01*
X017100Y010011D01*
X017199Y009912D01*
X017199Y009716D01*
X017002Y009420D02*
X016903Y009420D01*
X016805Y009519D01*
X016554Y009617D02*
X016554Y010011D01*
X016259Y010011D01*
X016161Y009912D01*
X016161Y009617D01*
X015910Y009716D02*
X015910Y009912D01*
X015811Y010011D01*
X015614Y010011D01*
X015516Y009912D01*
X015516Y009814D01*
X015910Y009814D01*
X015910Y009716D02*
X015811Y009617D01*
X015614Y009617D01*
X015265Y009716D02*
X015265Y009912D01*
X015167Y010011D01*
X014871Y010011D01*
X014871Y010208D02*
X014871Y009617D01*
X015167Y009617D01*
X015265Y009716D01*
X013976Y009617D02*
X013976Y010208D01*
X013681Y010208D01*
X013582Y010109D01*
X013582Y010011D01*
X013681Y009912D01*
X013976Y009912D01*
X013976Y009617D02*
X013681Y009617D01*
X013582Y009716D01*
X013582Y009814D01*
X013681Y009912D01*
X013331Y010011D02*
X013331Y009716D01*
X013233Y009617D01*
X012938Y009617D01*
X012938Y009519D02*
X013036Y009420D01*
X013135Y009420D01*
X012938Y009519D02*
X012938Y010011D01*
X013301Y008549D02*
X013498Y008549D01*
X013596Y008451D01*
X013596Y008352D01*
X013498Y008254D01*
X013301Y008254D01*
X013203Y008156D01*
X013203Y008057D01*
X013301Y007959D01*
X013498Y007959D01*
X013596Y008057D01*
X013847Y007959D02*
X014241Y007959D01*
X014241Y008549D01*
X013847Y008549D01*
X013301Y008549D02*
X013203Y008451D01*
X014044Y008254D02*
X014241Y008254D01*
X014492Y007959D02*
X014885Y007959D01*
X014885Y008549D01*
X014492Y008549D01*
X015136Y008451D02*
X015136Y008352D01*
X015235Y008254D01*
X015530Y008254D01*
X015530Y007959D02*
X015530Y008549D01*
X015235Y008549D01*
X015136Y008451D01*
X015235Y008254D02*
X015136Y008156D01*
X015136Y008057D01*
X015235Y007959D01*
X015530Y007959D01*
X014885Y008254D02*
X014689Y008254D01*
X016425Y008451D02*
X016425Y008549D01*
X016425Y008451D02*
X016622Y008254D01*
X016622Y007959D01*
X016622Y008254D02*
X016819Y008451D01*
X016819Y008549D01*
X017070Y008549D02*
X017464Y008549D01*
X017464Y007959D01*
X017070Y007959D01*
X017267Y008254D02*
X017464Y008254D01*
X017715Y007959D02*
X017715Y008549D01*
X018108Y008549D02*
X017715Y007959D01*
X018108Y007959D02*
X018108Y008549D01*
X018359Y008451D02*
X018457Y008549D01*
X018654Y008549D01*
X018753Y008451D01*
X018753Y008057D01*
X018654Y007959D01*
X018457Y007959D01*
X018359Y008057D01*
X018359Y008451D01*
X019004Y008549D02*
X019004Y007959D01*
X019004Y008254D02*
X019397Y008254D01*
X019397Y007959D02*
X019397Y008549D01*
X017530Y010208D02*
X017530Y010306D01*
D13*
X007528Y009352D02*
X005008Y009352D01*
X005008Y017852D01*
X007528Y017852D01*
X007528Y009352D01*
X007068Y009802D02*
X005468Y009802D01*
X005468Y010402D01*
X007068Y010402D01*
X007068Y009802D01*
X007068Y010802D02*
X005468Y010802D01*
X005468Y011402D01*
X007068Y011402D01*
X007068Y010802D01*
X007068Y011802D02*
X005468Y011802D01*
X005468Y012402D01*
X007068Y012402D01*
X007068Y011802D01*
X007068Y012802D02*
X005468Y012802D01*
X005468Y013402D01*
X007068Y013402D01*
X007068Y012802D01*
X007068Y013802D02*
X005468Y013802D01*
X005468Y014402D01*
X007068Y014402D01*
X007068Y013802D01*
X007068Y014802D02*
X005468Y014802D01*
X005468Y015402D01*
X007068Y015402D01*
X007068Y014802D01*
X007068Y015802D02*
X005468Y015802D01*
X005468Y016402D01*
X007068Y016402D01*
X007068Y015802D01*
X007068Y016802D02*
X005468Y016802D01*
X005468Y017402D01*
X007068Y017402D01*
X007068Y016802D01*
X009657Y018963D02*
X009764Y018856D01*
X009977Y018856D01*
X010084Y018963D01*
X010301Y019069D02*
X010301Y019496D01*
X010084Y019390D02*
X009977Y019496D01*
X009764Y019496D01*
X009657Y019390D01*
X009657Y019283D01*
X009764Y019176D01*
X009657Y019069D01*
X009657Y018963D01*
X009764Y019176D02*
X009870Y019176D01*
X010301Y019069D02*
X010515Y018856D01*
X010729Y019069D01*
X010729Y019496D01*
X010946Y019390D02*
X011053Y019496D01*
X011266Y019496D01*
X011373Y019390D01*
X011160Y019176D02*
X011053Y019176D01*
X010946Y019069D01*
X010946Y018963D01*
X011053Y018856D01*
X011266Y018856D01*
X011373Y018963D01*
X011053Y019176D02*
X010946Y019283D01*
X010946Y019390D01*
X019504Y018898D02*
X020924Y018898D01*
X020924Y020758D02*
X019504Y020758D01*
X041926Y020103D02*
X041928Y020159D01*
X041934Y020216D01*
X041944Y020271D01*
X041958Y020326D01*
X041975Y020380D01*
X041997Y020432D01*
X042022Y020482D01*
X042050Y020531D01*
X042082Y020578D01*
X042117Y020622D01*
X042155Y020664D01*
X042196Y020703D01*
X042240Y020738D01*
X042286Y020771D01*
X042334Y020800D01*
X042384Y020826D01*
X042436Y020849D01*
X042490Y020867D01*
X042544Y020882D01*
X042599Y020893D01*
X042655Y020900D01*
X042712Y020903D01*
X042768Y020902D01*
X042825Y020897D01*
X042880Y020888D01*
X042935Y020875D01*
X042989Y020858D01*
X043042Y020838D01*
X043093Y020814D01*
X043142Y020786D01*
X043189Y020755D01*
X043234Y020721D01*
X043277Y020683D01*
X043316Y020643D01*
X043353Y020600D01*
X043386Y020555D01*
X043416Y020507D01*
X043443Y020457D01*
X043466Y020406D01*
X043486Y020353D01*
X043502Y020299D01*
X043514Y020243D01*
X043522Y020188D01*
X043526Y020131D01*
X043526Y020075D01*
X043522Y020018D01*
X043514Y019963D01*
X043502Y019907D01*
X043486Y019853D01*
X043466Y019800D01*
X043443Y019749D01*
X043416Y019699D01*
X043386Y019651D01*
X043353Y019606D01*
X043316Y019563D01*
X043277Y019523D01*
X043234Y019485D01*
X043189Y019451D01*
X043142Y019420D01*
X043093Y019392D01*
X043042Y019368D01*
X042989Y019348D01*
X042935Y019331D01*
X042880Y019318D01*
X042825Y019309D01*
X042768Y019304D01*
X042712Y019303D01*
X042655Y019306D01*
X042599Y019313D01*
X042544Y019324D01*
X042490Y019339D01*
X042436Y019357D01*
X042384Y019380D01*
X042334Y019406D01*
X042286Y019435D01*
X042240Y019468D01*
X042196Y019503D01*
X042155Y019542D01*
X042117Y019584D01*
X042082Y019628D01*
X042050Y019675D01*
X042022Y019724D01*
X041997Y019774D01*
X041975Y019826D01*
X041958Y019880D01*
X041944Y019935D01*
X041934Y019990D01*
X041928Y020047D01*
X041926Y020103D01*
X043105Y020792D02*
X043162Y020735D01*
X043275Y020735D01*
X043332Y020792D01*
X043332Y020848D01*
X043275Y020905D01*
X043162Y020905D01*
X043105Y020848D01*
X043105Y020792D01*
X043162Y020905D02*
X043105Y020962D01*
X043105Y021018D01*
X043162Y021075D01*
X043275Y021075D01*
X043332Y021018D01*
X043332Y020962D01*
X043275Y020905D01*
X043474Y020962D02*
X043474Y021018D01*
X043530Y021075D01*
X043644Y021075D01*
X043700Y021018D01*
X043842Y021018D02*
X043842Y020905D01*
X043899Y020848D01*
X044069Y020848D01*
X044069Y020735D02*
X044069Y021075D01*
X043899Y021075D01*
X043842Y021018D01*
X043955Y020848D02*
X043842Y020735D01*
X043700Y020735D02*
X043474Y020962D01*
X043474Y020735D02*
X043700Y020735D01*
D14*
X036120Y019088D02*
X036120Y018818D01*
X036120Y018908D02*
X035985Y018908D01*
X035940Y018953D01*
X035940Y019043D01*
X035985Y019088D01*
X036120Y019088D01*
X036030Y018908D02*
X035940Y018818D01*
X035826Y018818D02*
X035645Y018998D01*
X035645Y019043D01*
X035691Y019088D01*
X035781Y019088D01*
X035826Y019043D01*
X035826Y018818D02*
X035645Y018818D01*
X035531Y018818D02*
X035531Y018863D01*
X035351Y019043D01*
X035351Y019088D01*
X035531Y019088D01*
X035606Y016429D02*
X035696Y016429D01*
X035741Y016384D01*
X035856Y016384D02*
X035856Y016293D01*
X035901Y016248D01*
X036036Y016248D01*
X036036Y016158D02*
X036036Y016429D01*
X035901Y016429D01*
X035856Y016384D01*
X035946Y016248D02*
X035856Y016158D01*
X035741Y016158D02*
X035561Y016338D01*
X035561Y016384D01*
X035606Y016429D01*
X035446Y016384D02*
X035446Y016338D01*
X035401Y016293D01*
X035266Y016293D01*
X035266Y016203D02*
X035266Y016384D01*
X035311Y016429D01*
X035401Y016429D01*
X035446Y016384D01*
X035446Y016203D02*
X035401Y016158D01*
X035311Y016158D01*
X035266Y016203D01*
X035561Y016158D02*
X035741Y016158D01*
X035824Y014548D02*
X035778Y014503D01*
X035778Y014413D01*
X035824Y014368D01*
X035959Y014368D01*
X035959Y014278D02*
X035959Y014548D01*
X035824Y014548D01*
X035664Y014503D02*
X035619Y014548D01*
X035529Y014548D01*
X035484Y014503D01*
X035484Y014458D01*
X035529Y014413D01*
X035484Y014368D01*
X035484Y014323D01*
X035529Y014278D01*
X035619Y014278D01*
X035664Y014323D01*
X035778Y014278D02*
X035869Y014368D01*
X035574Y014413D02*
X035529Y014413D01*
X035369Y014458D02*
X035279Y014548D01*
X035279Y014278D01*
X035369Y014278D02*
X035189Y014278D01*
X035265Y012699D02*
X035220Y012654D01*
X035220Y012609D01*
X035265Y012564D01*
X035220Y012519D01*
X035220Y012474D01*
X035265Y012429D01*
X035355Y012429D01*
X035400Y012474D01*
X035515Y012474D02*
X035560Y012429D01*
X035650Y012429D01*
X035695Y012474D01*
X035809Y012429D02*
X035899Y012519D01*
X035854Y012519D02*
X035989Y012519D01*
X035989Y012429D02*
X035989Y012699D01*
X035854Y012699D01*
X035809Y012654D01*
X035809Y012564D01*
X035854Y012519D01*
X035695Y012654D02*
X035650Y012699D01*
X035560Y012699D01*
X035515Y012654D01*
X035515Y012609D01*
X035560Y012564D01*
X035515Y012519D01*
X035515Y012474D01*
X035560Y012564D02*
X035605Y012564D01*
X035400Y012654D02*
X035355Y012699D01*
X035265Y012699D01*
X035265Y012564D02*
X035310Y012564D01*
X037352Y010567D02*
X037307Y010521D01*
X037307Y010476D01*
X037352Y010431D01*
X037442Y010431D01*
X037487Y010476D01*
X037487Y010521D01*
X037442Y010567D01*
X037352Y010567D01*
X037352Y010431D02*
X037307Y010386D01*
X037307Y010341D01*
X037352Y010296D01*
X037442Y010296D01*
X037487Y010341D01*
X037487Y010386D01*
X037442Y010431D01*
X037601Y010476D02*
X037601Y010521D01*
X037646Y010567D01*
X037736Y010567D01*
X037782Y010521D01*
X037896Y010521D02*
X037941Y010567D01*
X038031Y010567D01*
X038076Y010521D01*
X038076Y010476D01*
X038031Y010431D01*
X037941Y010431D01*
X037896Y010386D01*
X037896Y010341D01*
X037941Y010296D01*
X038031Y010296D01*
X038076Y010341D01*
X038191Y010341D02*
X038191Y010567D01*
X038371Y010567D02*
X038371Y010341D01*
X038326Y010296D01*
X038236Y010296D01*
X038191Y010341D01*
X037986Y010251D02*
X037986Y010612D01*
X037782Y010296D02*
X037601Y010476D01*
X037601Y010296D02*
X037782Y010296D01*
X037997Y008433D02*
X037997Y008073D01*
X038042Y008118D02*
X037952Y008118D01*
X037906Y008163D01*
X037906Y008208D01*
X037952Y008253D01*
X038042Y008253D01*
X038087Y008298D01*
X038087Y008343D01*
X038042Y008388D01*
X037952Y008388D01*
X037906Y008343D01*
X037792Y008343D02*
X037747Y008388D01*
X037657Y008388D01*
X037612Y008343D01*
X037612Y008298D01*
X037792Y008118D01*
X037612Y008118D01*
X037497Y008253D02*
X037317Y008253D01*
X037362Y008388D02*
X037497Y008253D01*
X037362Y008118D02*
X037362Y008388D01*
X038042Y008118D02*
X038087Y008163D01*
X038201Y008163D02*
X038201Y008388D01*
X038381Y008388D02*
X038381Y008163D01*
X038336Y008118D01*
X038246Y008118D01*
X038201Y008163D01*
X038042Y006089D02*
X038042Y005729D01*
X038087Y005774D02*
X037997Y005774D01*
X037952Y005819D01*
X037952Y005864D01*
X037997Y005909D01*
X038087Y005909D01*
X038132Y005954D01*
X038132Y005999D01*
X038087Y006044D01*
X037997Y006044D01*
X037952Y005999D01*
X037837Y005954D02*
X037747Y006044D01*
X037747Y005774D01*
X037837Y005774D02*
X037657Y005774D01*
X037543Y005819D02*
X037498Y005774D01*
X037407Y005774D01*
X037362Y005819D01*
X037362Y005999D01*
X037407Y006044D01*
X037498Y006044D01*
X037543Y005999D01*
X037543Y005954D01*
X037498Y005909D01*
X037362Y005909D01*
X038087Y005774D02*
X038132Y005819D01*
X038246Y005819D02*
X038246Y006044D01*
X038427Y006044D02*
X038427Y005819D01*
X038381Y005774D01*
X038291Y005774D01*
X038246Y005819D01*
X038047Y003774D02*
X038047Y003414D01*
X038092Y003459D02*
X038002Y003459D01*
X037957Y003504D01*
X037957Y003549D01*
X038002Y003594D01*
X038092Y003594D01*
X038137Y003639D01*
X038137Y003684D01*
X038092Y003729D01*
X038002Y003729D01*
X037957Y003684D01*
X037842Y003639D02*
X037752Y003729D01*
X037752Y003459D01*
X037842Y003459D02*
X037662Y003459D01*
X037547Y003459D02*
X037547Y003504D01*
X037367Y003684D01*
X037367Y003729D01*
X037547Y003729D01*
X038092Y003459D02*
X038137Y003504D01*
X038251Y003504D02*
X038251Y003729D01*
X038431Y003729D02*
X038431Y003504D01*
X038386Y003459D01*
X038296Y003459D01*
X038251Y003504D01*
X031400Y002330D02*
X031394Y002337D01*
X030423Y003212D02*
X030378Y003167D01*
X030288Y003167D01*
X030243Y003212D01*
X030243Y003437D01*
X030129Y003392D02*
X030084Y003437D01*
X029993Y003437D01*
X029948Y003392D01*
X029993Y003302D02*
X030084Y003302D01*
X030129Y003347D01*
X030129Y003392D01*
X030039Y003482D02*
X030039Y003122D01*
X030084Y003167D02*
X029993Y003167D01*
X029948Y003212D01*
X029948Y003257D01*
X029993Y003302D01*
X030084Y003167D02*
X030129Y003212D01*
X030423Y003212D02*
X030423Y003437D01*
X029834Y003392D02*
X029789Y003437D01*
X029699Y003437D01*
X029654Y003392D01*
X029654Y003347D01*
X029834Y003167D01*
X029654Y003167D01*
X029539Y003167D02*
X029359Y003347D01*
X029359Y003392D01*
X029404Y003437D01*
X029494Y003437D01*
X029539Y003392D01*
X029539Y003167D02*
X029359Y003167D01*
X029841Y005733D02*
X029841Y006093D01*
X029886Y006048D02*
X029796Y006048D01*
X029751Y006003D01*
X029796Y005913D02*
X029886Y005913D01*
X029931Y005958D01*
X029931Y006003D01*
X029886Y006048D01*
X030045Y006048D02*
X030045Y005823D01*
X030090Y005778D01*
X030180Y005778D01*
X030225Y005823D01*
X030225Y006048D01*
X029931Y005823D02*
X029886Y005778D01*
X029796Y005778D01*
X029751Y005823D01*
X029751Y005868D01*
X029796Y005913D01*
X029636Y006003D02*
X029591Y006048D01*
X029501Y006048D01*
X029456Y006003D01*
X029456Y005958D01*
X029636Y005778D01*
X029456Y005778D01*
X029341Y005823D02*
X029296Y005778D01*
X029206Y005778D01*
X029161Y005823D01*
X029161Y005868D01*
X029206Y005913D01*
X029251Y005913D01*
X029206Y005913D02*
X029161Y005958D01*
X029161Y006003D01*
X029206Y006048D01*
X029296Y006048D01*
X029341Y006003D01*
X029346Y006574D02*
X029301Y006619D01*
X029301Y006664D01*
X029346Y006709D01*
X029481Y006709D01*
X029481Y006619D01*
X029436Y006574D01*
X029346Y006574D01*
X029481Y006709D02*
X029391Y006799D01*
X029301Y006844D01*
X029595Y006799D02*
X029640Y006844D01*
X029730Y006844D01*
X029775Y006799D01*
X029890Y006799D02*
X029935Y006844D01*
X030025Y006844D01*
X030070Y006799D01*
X030070Y006754D01*
X030025Y006709D01*
X029935Y006709D01*
X029890Y006664D01*
X029890Y006619D01*
X029935Y006574D01*
X030025Y006574D01*
X030070Y006619D01*
X030185Y006619D02*
X030185Y006844D01*
X030365Y006844D02*
X030365Y006619D01*
X030320Y006574D01*
X030230Y006574D01*
X030185Y006619D01*
X029980Y006529D02*
X029980Y006889D01*
X029775Y006574D02*
X029595Y006754D01*
X029595Y006799D01*
X029595Y006574D02*
X029775Y006574D01*
X029994Y008389D02*
X029994Y008749D01*
X029949Y008704D02*
X029904Y008659D01*
X029949Y008704D02*
X030039Y008704D01*
X030084Y008659D01*
X030084Y008614D01*
X030039Y008569D01*
X029949Y008569D01*
X029904Y008524D01*
X029904Y008479D01*
X029949Y008434D01*
X030039Y008434D01*
X030084Y008479D01*
X030199Y008479D02*
X030199Y008704D01*
X030379Y008704D02*
X030379Y008479D01*
X030334Y008434D01*
X030244Y008434D01*
X030199Y008479D01*
X029790Y008434D02*
X029610Y008614D01*
X029610Y008659D01*
X029655Y008704D01*
X029745Y008704D01*
X029790Y008659D01*
X029790Y008434D02*
X029610Y008434D01*
X029495Y008434D02*
X029495Y008479D01*
X029315Y008659D01*
X029315Y008704D01*
X029495Y008704D01*
X023150Y012645D02*
X023150Y012780D01*
X023105Y012825D01*
X023015Y012825D01*
X022970Y012780D01*
X022970Y012645D01*
X022970Y012735D02*
X022879Y012825D01*
X022879Y012939D02*
X022879Y013120D01*
X022879Y013029D02*
X023150Y013029D01*
X023060Y012939D01*
X023015Y013234D02*
X023015Y013369D01*
X022970Y013414D01*
X022925Y013414D01*
X022879Y013369D01*
X022879Y013279D01*
X022925Y013234D01*
X023015Y013234D01*
X023105Y013324D01*
X023150Y013414D01*
X023150Y012645D02*
X022879Y012645D01*
X008993Y010238D02*
X008843Y010088D01*
X008918Y009928D02*
X008993Y009853D01*
X008993Y009702D01*
X008918Y009627D01*
X008843Y009627D01*
X008768Y009702D01*
X008768Y009853D01*
X008693Y009928D01*
X008618Y009928D01*
X008543Y009853D01*
X008543Y009702D01*
X008618Y009627D01*
X008543Y010088D02*
X008543Y010388D01*
X008543Y010238D02*
X008993Y010238D01*
X008134Y008016D02*
X007999Y008016D01*
X007954Y007971D01*
X007954Y007881D01*
X007999Y007836D01*
X008134Y007836D01*
X008044Y007836D02*
X007954Y007745D01*
X007839Y007745D02*
X007659Y007745D01*
X007749Y007745D02*
X007749Y008016D01*
X007839Y007926D01*
X007545Y007881D02*
X007365Y007881D01*
X007410Y008016D02*
X007545Y007881D01*
X007410Y008016D02*
X007410Y007745D01*
X008134Y007745D02*
X008134Y008016D01*
X002950Y012837D02*
X002950Y013107D01*
X002815Y013107D01*
X002770Y013062D01*
X002770Y012972D01*
X002815Y012927D01*
X002950Y012927D01*
X002860Y012927D02*
X002770Y012837D01*
X002655Y012837D02*
X002475Y012837D01*
X002565Y012837D02*
X002565Y013107D01*
X002655Y013017D01*
X002361Y012972D02*
X002271Y013017D01*
X002226Y013017D01*
X002181Y012972D01*
X002181Y012882D01*
X002226Y012837D01*
X002316Y012837D01*
X002361Y012882D01*
X002361Y012972D02*
X002361Y013107D01*
X002181Y013107D01*
X019832Y021497D02*
X020102Y021497D01*
X020102Y021633D01*
X020057Y021678D01*
X019967Y021678D01*
X019922Y021633D01*
X019922Y021497D01*
X019922Y021587D02*
X019832Y021678D01*
X019832Y021792D02*
X019877Y021792D01*
X020057Y021972D01*
X020102Y021972D01*
X020102Y021792D01*
X021448Y021765D02*
X021493Y021720D01*
X021539Y021720D01*
X021584Y021765D01*
X021584Y021855D01*
X021539Y021900D01*
X021493Y021900D01*
X021448Y021855D01*
X021448Y021765D01*
X021584Y021765D02*
X021629Y021720D01*
X021674Y021720D01*
X021719Y021765D01*
X021719Y021855D01*
X021674Y021900D01*
X021629Y021900D01*
X021584Y021855D01*
X021584Y021605D02*
X021539Y021560D01*
X021539Y021425D01*
X021539Y021515D02*
X021448Y021605D01*
X021584Y021605D02*
X021674Y021605D01*
X021719Y021560D01*
X021719Y021425D01*
X021448Y021425D01*
X051956Y022026D02*
X052136Y022026D01*
X052046Y022026D02*
X052046Y022297D01*
X052136Y022207D01*
X052251Y022026D02*
X052431Y022026D01*
X052341Y022026D02*
X052341Y022297D01*
X052431Y022207D01*
X052545Y022252D02*
X052590Y022297D01*
X052681Y022297D01*
X052726Y022252D01*
X052726Y022207D01*
X052681Y022162D01*
X052590Y022162D01*
X052545Y022117D01*
X052545Y022072D01*
X052590Y022026D01*
X052681Y022026D01*
X052726Y022072D01*
X052840Y022072D02*
X052840Y022297D01*
X053020Y022297D02*
X053020Y022072D01*
X052975Y022026D01*
X052885Y022026D01*
X052840Y022072D01*
X052636Y021981D02*
X052636Y022342D01*
X052790Y025026D02*
X052790Y025386D01*
X052835Y025341D02*
X052745Y025341D01*
X052700Y025296D01*
X052745Y025206D02*
X052835Y025206D01*
X052880Y025251D01*
X052880Y025296D01*
X052835Y025341D01*
X052994Y025341D02*
X052994Y025116D01*
X053039Y025071D01*
X053129Y025071D01*
X053174Y025116D01*
X053174Y025341D01*
X052880Y025116D02*
X052835Y025071D01*
X052745Y025071D01*
X052700Y025116D01*
X052700Y025161D01*
X052745Y025206D01*
X052585Y025251D02*
X052495Y025341D01*
X052495Y025071D01*
X052585Y025071D02*
X052405Y025071D01*
X064870Y024446D02*
X065050Y024446D01*
X064915Y024581D01*
X064915Y024311D01*
X065164Y024311D02*
X065344Y024311D01*
X065254Y024311D02*
X065254Y024581D01*
X065344Y024491D01*
X065459Y024536D02*
X065504Y024581D01*
X065594Y024581D01*
X065639Y024536D01*
X065639Y024491D01*
X065594Y024446D01*
X065504Y024446D01*
X065459Y024401D01*
X065459Y024356D01*
X065504Y024311D01*
X065594Y024311D01*
X065639Y024356D01*
X065754Y024356D02*
X065754Y024581D01*
X065934Y024581D02*
X065934Y024356D01*
X065889Y024311D01*
X065799Y024311D01*
X065754Y024356D01*
X065549Y024266D02*
X065549Y024626D01*
X065575Y025653D02*
X065575Y026013D01*
X065530Y025968D02*
X065485Y025923D01*
X065530Y025968D02*
X065620Y025968D01*
X065665Y025923D01*
X065665Y025878D01*
X065620Y025833D01*
X065530Y025833D01*
X065485Y025788D01*
X065485Y025743D01*
X065530Y025698D01*
X065620Y025698D01*
X065665Y025743D01*
X065780Y025743D02*
X065780Y025968D01*
X065960Y025968D02*
X065960Y025743D01*
X065915Y025698D01*
X065825Y025698D01*
X065780Y025743D01*
X065371Y025698D02*
X065191Y025698D01*
X065281Y025698D02*
X065281Y025968D01*
X065371Y025878D01*
X065076Y025923D02*
X065031Y025968D01*
X064941Y025968D01*
X064896Y025923D01*
X064896Y025878D01*
X064941Y025833D01*
X064896Y025788D01*
X064896Y025743D01*
X064941Y025698D01*
X065031Y025698D01*
X065076Y025743D01*
X064986Y025833D02*
X064941Y025833D01*
X064947Y023283D02*
X065037Y023283D01*
X065082Y023238D01*
X064947Y023283D02*
X064902Y023238D01*
X064902Y023193D01*
X065082Y023012D01*
X064902Y023012D01*
X065196Y023012D02*
X065377Y023012D01*
X065286Y023012D02*
X065286Y023283D01*
X065377Y023193D01*
X065491Y023238D02*
X065536Y023283D01*
X065626Y023283D01*
X065671Y023238D01*
X065671Y023193D01*
X065626Y023148D01*
X065536Y023148D01*
X065491Y023103D01*
X065491Y023057D01*
X065536Y023012D01*
X065626Y023012D01*
X065671Y023057D01*
X065786Y023057D02*
X065786Y023283D01*
X065966Y023283D02*
X065966Y023057D01*
X065921Y023012D01*
X065831Y023012D01*
X065786Y023057D01*
X065581Y022967D02*
X065581Y023328D01*
X065576Y022140D02*
X065576Y021780D01*
X065531Y021825D02*
X065486Y021870D01*
X065486Y021915D01*
X065531Y021960D01*
X065621Y021960D01*
X065666Y022005D01*
X065666Y022050D01*
X065621Y022095D01*
X065531Y022095D01*
X065486Y022050D01*
X065372Y022050D02*
X065327Y022095D01*
X065237Y022095D01*
X065191Y022050D01*
X065191Y022005D01*
X065372Y021825D01*
X065191Y021825D01*
X065531Y021825D02*
X065621Y021825D01*
X065666Y021870D01*
X065781Y021870D02*
X065826Y021825D01*
X065916Y021825D01*
X065961Y021870D01*
X065961Y022095D01*
X065781Y022095D02*
X065781Y021870D01*
X059188Y016686D02*
X059188Y016461D01*
X059143Y016416D01*
X059053Y016416D01*
X059008Y016461D01*
X059008Y016686D01*
X058894Y016641D02*
X058848Y016686D01*
X058758Y016686D01*
X058713Y016641D01*
X058758Y016551D02*
X058848Y016551D01*
X058894Y016596D01*
X058894Y016641D01*
X058803Y016731D02*
X058803Y016371D01*
X058758Y016416D02*
X058713Y016461D01*
X058713Y016506D01*
X058758Y016551D01*
X058758Y016416D02*
X058848Y016416D01*
X058894Y016461D01*
X058599Y016416D02*
X058419Y016596D01*
X058419Y016641D01*
X058464Y016686D01*
X058554Y016686D01*
X058599Y016641D01*
X058599Y016416D02*
X058419Y016416D01*
X058304Y016461D02*
X058259Y016416D01*
X058169Y016416D01*
X058124Y016461D01*
X058124Y016641D01*
X058169Y016686D01*
X058259Y016686D01*
X058304Y016641D01*
X058304Y016596D01*
X058259Y016551D01*
X058124Y016551D01*
X058150Y012379D02*
X058330Y012379D01*
X058330Y012244D01*
X058240Y012289D01*
X058195Y012289D01*
X058150Y012244D01*
X058150Y012154D01*
X058195Y012109D01*
X058285Y012109D01*
X058330Y012154D01*
X058445Y012109D02*
X058625Y012109D01*
X058445Y012289D01*
X058445Y012334D01*
X058490Y012379D01*
X058580Y012379D01*
X058625Y012334D01*
X058739Y012334D02*
X058785Y012379D01*
X058875Y012379D01*
X058920Y012334D01*
X058920Y012289D01*
X058875Y012244D01*
X058785Y012244D01*
X058739Y012199D01*
X058739Y012154D01*
X058785Y012109D01*
X058875Y012109D01*
X058920Y012154D01*
X059034Y012154D02*
X059034Y012379D01*
X059214Y012379D02*
X059214Y012154D01*
X059169Y012109D01*
X059079Y012109D01*
X059034Y012154D01*
X058830Y012063D02*
X058830Y012424D01*
X058848Y008091D02*
X058848Y007731D01*
X058893Y007776D02*
X058803Y007776D01*
X058758Y007821D01*
X058758Y007866D01*
X058803Y007911D01*
X058893Y007911D01*
X058938Y007956D01*
X058938Y008001D01*
X058893Y008046D01*
X058803Y008046D01*
X058758Y008001D01*
X058643Y008001D02*
X058598Y008046D01*
X058508Y008046D01*
X058463Y008001D01*
X058463Y007956D01*
X058643Y007776D01*
X058463Y007776D01*
X058349Y007821D02*
X058168Y008001D01*
X058168Y007821D01*
X058213Y007776D01*
X058304Y007776D01*
X058349Y007821D01*
X058349Y008001D01*
X058304Y008046D01*
X058213Y008046D01*
X058168Y008001D01*
X058893Y007776D02*
X058938Y007821D01*
X059052Y007821D02*
X059052Y008046D01*
X059233Y008046D02*
X059233Y007821D01*
X059187Y007776D01*
X059097Y007776D01*
X059052Y007821D01*
X058823Y003747D02*
X058823Y003387D01*
X058868Y003432D02*
X058778Y003432D01*
X058733Y003477D01*
X058733Y003522D01*
X058778Y003567D01*
X058868Y003567D01*
X058913Y003612D01*
X058913Y003657D01*
X058868Y003702D01*
X058778Y003702D01*
X058733Y003657D01*
X058618Y003612D02*
X058528Y003702D01*
X058528Y003432D01*
X058618Y003432D02*
X058438Y003432D01*
X058324Y003477D02*
X058279Y003432D01*
X058189Y003432D01*
X058143Y003477D01*
X058143Y003522D01*
X058189Y003567D01*
X058279Y003567D01*
X058324Y003612D01*
X058324Y003657D01*
X058279Y003702D01*
X058189Y003702D01*
X058143Y003657D01*
X058143Y003612D01*
X058189Y003567D01*
X058279Y003567D02*
X058324Y003522D01*
X058324Y003477D01*
X058868Y003432D02*
X058913Y003477D01*
X059027Y003477D02*
X059027Y003702D01*
X059208Y003702D02*
X059208Y003477D01*
X059163Y003432D01*
X059072Y003432D01*
X059027Y003477D01*
D15*
X069256Y002473D02*
X069258Y002520D01*
X069264Y002566D01*
X069274Y002612D01*
X069287Y002657D01*
X069305Y002700D01*
X069326Y002742D01*
X069350Y002782D01*
X069378Y002819D01*
X069409Y002854D01*
X069443Y002887D01*
X069479Y002916D01*
X069518Y002942D01*
X069559Y002965D01*
X069602Y002984D01*
X069646Y003000D01*
X069691Y003012D01*
X069737Y003020D01*
X069784Y003024D01*
X069830Y003024D01*
X069877Y003020D01*
X069923Y003012D01*
X069968Y003000D01*
X070012Y002984D01*
X070055Y002965D01*
X070096Y002942D01*
X070135Y002916D01*
X070171Y002887D01*
X070205Y002854D01*
X070236Y002819D01*
X070264Y002782D01*
X070288Y002742D01*
X070309Y002700D01*
X070327Y002657D01*
X070340Y002612D01*
X070350Y002566D01*
X070356Y002520D01*
X070358Y002473D01*
X070356Y002426D01*
X070350Y002380D01*
X070340Y002334D01*
X070327Y002289D01*
X070309Y002246D01*
X070288Y002204D01*
X070264Y002164D01*
X070236Y002127D01*
X070205Y002092D01*
X070171Y002059D01*
X070135Y002030D01*
X070096Y002004D01*
X070055Y001981D01*
X070012Y001962D01*
X069968Y001946D01*
X069923Y001934D01*
X069877Y001926D01*
X069830Y001922D01*
X069784Y001922D01*
X069737Y001926D01*
X069691Y001934D01*
X069646Y001946D01*
X069602Y001962D01*
X069559Y001981D01*
X069518Y002004D01*
X069479Y002030D01*
X069443Y002059D01*
X069409Y002092D01*
X069378Y002127D01*
X069350Y002164D01*
X069326Y002204D01*
X069305Y002246D01*
X069287Y002289D01*
X069274Y002334D01*
X069264Y002380D01*
X069258Y002426D01*
X069256Y002473D01*
X033733Y023649D02*
X033735Y023696D01*
X033741Y023742D01*
X033751Y023788D01*
X033764Y023833D01*
X033782Y023876D01*
X033803Y023918D01*
X033827Y023958D01*
X033855Y023995D01*
X033886Y024030D01*
X033920Y024063D01*
X033956Y024092D01*
X033995Y024118D01*
X034036Y024141D01*
X034079Y024160D01*
X034123Y024176D01*
X034168Y024188D01*
X034214Y024196D01*
X034261Y024200D01*
X034307Y024200D01*
X034354Y024196D01*
X034400Y024188D01*
X034445Y024176D01*
X034489Y024160D01*
X034532Y024141D01*
X034573Y024118D01*
X034612Y024092D01*
X034648Y024063D01*
X034682Y024030D01*
X034713Y023995D01*
X034741Y023958D01*
X034765Y023918D01*
X034786Y023876D01*
X034804Y023833D01*
X034817Y023788D01*
X034827Y023742D01*
X034833Y023696D01*
X034835Y023649D01*
X034833Y023602D01*
X034827Y023556D01*
X034817Y023510D01*
X034804Y023465D01*
X034786Y023422D01*
X034765Y023380D01*
X034741Y023340D01*
X034713Y023303D01*
X034682Y023268D01*
X034648Y023235D01*
X034612Y023206D01*
X034573Y023180D01*
X034532Y023157D01*
X034489Y023138D01*
X034445Y023122D01*
X034400Y023110D01*
X034354Y023102D01*
X034307Y023098D01*
X034261Y023098D01*
X034214Y023102D01*
X034168Y023110D01*
X034123Y023122D01*
X034079Y023138D01*
X034036Y023157D01*
X033995Y023180D01*
X033956Y023206D01*
X033920Y023235D01*
X033886Y023268D01*
X033855Y023303D01*
X033827Y023340D01*
X033803Y023380D01*
X033782Y023422D01*
X033764Y023465D01*
X033751Y023510D01*
X033741Y023556D01*
X033735Y023602D01*
X033733Y023649D01*
X021362Y024448D02*
X021364Y024495D01*
X021370Y024541D01*
X021380Y024587D01*
X021393Y024632D01*
X021411Y024675D01*
X021432Y024717D01*
X021456Y024757D01*
X021484Y024794D01*
X021515Y024829D01*
X021549Y024862D01*
X021585Y024891D01*
X021624Y024917D01*
X021665Y024940D01*
X021708Y024959D01*
X021752Y024975D01*
X021797Y024987D01*
X021843Y024995D01*
X021890Y024999D01*
X021936Y024999D01*
X021983Y024995D01*
X022029Y024987D01*
X022074Y024975D01*
X022118Y024959D01*
X022161Y024940D01*
X022202Y024917D01*
X022241Y024891D01*
X022277Y024862D01*
X022311Y024829D01*
X022342Y024794D01*
X022370Y024757D01*
X022394Y024717D01*
X022415Y024675D01*
X022433Y024632D01*
X022446Y024587D01*
X022456Y024541D01*
X022462Y024495D01*
X022464Y024448D01*
X022462Y024401D01*
X022456Y024355D01*
X022446Y024309D01*
X022433Y024264D01*
X022415Y024221D01*
X022394Y024179D01*
X022370Y024139D01*
X022342Y024102D01*
X022311Y024067D01*
X022277Y024034D01*
X022241Y024005D01*
X022202Y023979D01*
X022161Y023956D01*
X022118Y023937D01*
X022074Y023921D01*
X022029Y023909D01*
X021983Y023901D01*
X021936Y023897D01*
X021890Y023897D01*
X021843Y023901D01*
X021797Y023909D01*
X021752Y023921D01*
X021708Y023937D01*
X021665Y023956D01*
X021624Y023979D01*
X021585Y024005D01*
X021549Y024034D01*
X021515Y024067D01*
X021484Y024102D01*
X021456Y024139D01*
X021432Y024179D01*
X021411Y024221D01*
X021393Y024264D01*
X021380Y024309D01*
X021370Y024355D01*
X021364Y024401D01*
X021362Y024448D01*
X001203Y024787D02*
X001205Y024834D01*
X001211Y024880D01*
X001221Y024926D01*
X001234Y024971D01*
X001252Y025014D01*
X001273Y025056D01*
X001297Y025096D01*
X001325Y025133D01*
X001356Y025168D01*
X001390Y025201D01*
X001426Y025230D01*
X001465Y025256D01*
X001506Y025279D01*
X001549Y025298D01*
X001593Y025314D01*
X001638Y025326D01*
X001684Y025334D01*
X001731Y025338D01*
X001777Y025338D01*
X001824Y025334D01*
X001870Y025326D01*
X001915Y025314D01*
X001959Y025298D01*
X002002Y025279D01*
X002043Y025256D01*
X002082Y025230D01*
X002118Y025201D01*
X002152Y025168D01*
X002183Y025133D01*
X002211Y025096D01*
X002235Y025056D01*
X002256Y025014D01*
X002274Y024971D01*
X002287Y024926D01*
X002297Y024880D01*
X002303Y024834D01*
X002305Y024787D01*
X002303Y024740D01*
X002297Y024694D01*
X002287Y024648D01*
X002274Y024603D01*
X002256Y024560D01*
X002235Y024518D01*
X002211Y024478D01*
X002183Y024441D01*
X002152Y024406D01*
X002118Y024373D01*
X002082Y024344D01*
X002043Y024318D01*
X002002Y024295D01*
X001959Y024276D01*
X001915Y024260D01*
X001870Y024248D01*
X001824Y024240D01*
X001777Y024236D01*
X001731Y024236D01*
X001684Y024240D01*
X001638Y024248D01*
X001593Y024260D01*
X001549Y024276D01*
X001506Y024295D01*
X001465Y024318D01*
X001426Y024344D01*
X001390Y024373D01*
X001356Y024406D01*
X001325Y024441D01*
X001297Y024478D01*
X001273Y024518D01*
X001252Y024560D01*
X001234Y024603D01*
X001221Y024648D01*
X001211Y024694D01*
X001205Y024740D01*
X001203Y024787D01*
X004733Y002893D02*
X004735Y002940D01*
X004741Y002986D01*
X004751Y003032D01*
X004764Y003077D01*
X004782Y003120D01*
X004803Y003162D01*
X004827Y003202D01*
X004855Y003239D01*
X004886Y003274D01*
X004920Y003307D01*
X004956Y003336D01*
X004995Y003362D01*
X005036Y003385D01*
X005079Y003404D01*
X005123Y003420D01*
X005168Y003432D01*
X005214Y003440D01*
X005261Y003444D01*
X005307Y003444D01*
X005354Y003440D01*
X005400Y003432D01*
X005445Y003420D01*
X005489Y003404D01*
X005532Y003385D01*
X005573Y003362D01*
X005612Y003336D01*
X005648Y003307D01*
X005682Y003274D01*
X005713Y003239D01*
X005741Y003202D01*
X005765Y003162D01*
X005786Y003120D01*
X005804Y003077D01*
X005817Y003032D01*
X005827Y002986D01*
X005833Y002940D01*
X005835Y002893D01*
X005833Y002846D01*
X005827Y002800D01*
X005817Y002754D01*
X005804Y002709D01*
X005786Y002666D01*
X005765Y002624D01*
X005741Y002584D01*
X005713Y002547D01*
X005682Y002512D01*
X005648Y002479D01*
X005612Y002450D01*
X005573Y002424D01*
X005532Y002401D01*
X005489Y002382D01*
X005445Y002366D01*
X005400Y002354D01*
X005354Y002346D01*
X005307Y002342D01*
X005261Y002342D01*
X005214Y002346D01*
X005168Y002354D01*
X005123Y002366D01*
X005079Y002382D01*
X005036Y002401D01*
X004995Y002424D01*
X004956Y002450D01*
X004920Y002479D01*
X004886Y002512D01*
X004855Y002547D01*
X004827Y002584D01*
X004803Y002624D01*
X004782Y002666D01*
X004764Y002709D01*
X004751Y002754D01*
X004741Y002800D01*
X004735Y002846D01*
X004733Y002893D01*
X001259Y002514D02*
X001261Y002561D01*
X001267Y002607D01*
X001277Y002653D01*
X001290Y002698D01*
X001308Y002741D01*
X001329Y002783D01*
X001353Y002823D01*
X001381Y002860D01*
X001412Y002895D01*
X001446Y002928D01*
X001482Y002957D01*
X001521Y002983D01*
X001562Y003006D01*
X001605Y003025D01*
X001649Y003041D01*
X001694Y003053D01*
X001740Y003061D01*
X001787Y003065D01*
X001833Y003065D01*
X001880Y003061D01*
X001926Y003053D01*
X001971Y003041D01*
X002015Y003025D01*
X002058Y003006D01*
X002099Y002983D01*
X002138Y002957D01*
X002174Y002928D01*
X002208Y002895D01*
X002239Y002860D01*
X002267Y002823D01*
X002291Y002783D01*
X002312Y002741D01*
X002330Y002698D01*
X002343Y002653D01*
X002353Y002607D01*
X002359Y002561D01*
X002361Y002514D01*
X002359Y002467D01*
X002353Y002421D01*
X002343Y002375D01*
X002330Y002330D01*
X002312Y002287D01*
X002291Y002245D01*
X002267Y002205D01*
X002239Y002168D01*
X002208Y002133D01*
X002174Y002100D01*
X002138Y002071D01*
X002099Y002045D01*
X002058Y002022D01*
X002015Y002003D01*
X001971Y001987D01*
X001926Y001975D01*
X001880Y001967D01*
X001833Y001963D01*
X001787Y001963D01*
X001740Y001967D01*
X001694Y001975D01*
X001649Y001987D01*
X001605Y002003D01*
X001562Y002022D01*
X001521Y002045D01*
X001482Y002071D01*
X001446Y002100D01*
X001412Y002133D01*
X001381Y002168D01*
X001353Y002205D01*
X001329Y002245D01*
X001308Y002287D01*
X001290Y002330D01*
X001277Y002375D01*
X001267Y002421D01*
X001261Y002467D01*
X001259Y002514D01*
D16*
X043476Y020103D03*
D17*
X006153Y010191D02*
X006029Y010067D01*
X006153Y010191D02*
X005783Y010191D01*
X005783Y010314D02*
X005783Y010067D01*
D18*
X006768Y010102D03*
X006768Y011102D03*
X006768Y012102D03*
X006768Y013102D03*
X006768Y014102D03*
X006768Y015102D03*
X006768Y016102D03*
X006768Y017102D03*
D19*
X018126Y011855D02*
X018203Y011932D01*
X018356Y011932D01*
X018433Y011855D01*
X018587Y011855D02*
X018663Y011932D01*
X018817Y011932D01*
X018894Y011855D01*
X018894Y011548D01*
X018817Y011471D01*
X018663Y011471D01*
X018587Y011548D01*
X018433Y011471D02*
X018126Y011778D01*
X018126Y011855D01*
X018126Y011471D02*
X018433Y011471D01*
X019047Y011471D02*
X019200Y011471D01*
X019124Y011471D02*
X019124Y011932D01*
X019200Y011932D02*
X019047Y011932D01*
X002547Y006300D02*
X002547Y005993D01*
X002317Y005993D01*
X002394Y006146D01*
X002394Y006223D01*
X002317Y006300D01*
X002164Y006300D01*
X002087Y006223D01*
X002087Y006069D01*
X002164Y005993D01*
X002164Y005839D02*
X002087Y005763D01*
X002087Y005609D01*
X002164Y005532D01*
X002471Y005532D01*
X002547Y005609D01*
X002547Y005763D01*
X002471Y005839D01*
X045608Y002497D02*
X045608Y002420D01*
X045915Y002113D01*
X045915Y002037D01*
X046068Y002113D02*
X046145Y002037D01*
X046298Y002037D01*
X046375Y002113D01*
X046375Y002420D01*
X046298Y002497D01*
X046145Y002497D01*
X046068Y002420D01*
X045915Y002497D02*
X045608Y002497D01*
X049434Y003641D02*
X049434Y003718D01*
X049511Y003794D01*
X049741Y003794D01*
X049741Y003641D01*
X049665Y003564D01*
X049511Y003564D01*
X049434Y003641D01*
X049588Y003948D02*
X049741Y003794D01*
X049895Y003641D02*
X049971Y003564D01*
X050125Y003564D01*
X050202Y003641D01*
X050202Y003948D01*
X050125Y004025D01*
X049971Y004025D01*
X049895Y003948D01*
X049588Y003948D02*
X049434Y004025D01*
X051515Y003565D02*
X051822Y003565D01*
X051669Y003565D02*
X051669Y004025D01*
X051822Y003872D01*
X051975Y003949D02*
X052052Y004025D01*
X052206Y004025D01*
X052282Y003949D01*
X052282Y003642D01*
X052206Y003565D01*
X052052Y003565D01*
X051975Y003642D01*
X029369Y022537D02*
X029293Y022460D01*
X029139Y022460D01*
X029063Y022537D01*
X028909Y022537D02*
X028832Y022460D01*
X028679Y022460D01*
X028602Y022537D01*
X028602Y022614D01*
X028679Y022690D01*
X028756Y022690D01*
X028679Y022690D02*
X028602Y022767D01*
X028602Y022844D01*
X028679Y022921D01*
X028832Y022921D01*
X028909Y022844D01*
X029063Y022844D02*
X029139Y022921D01*
X029293Y022921D01*
X029369Y022844D01*
X029369Y022537D01*
X026482Y023745D02*
X026405Y023668D01*
X026251Y023668D01*
X026175Y023745D01*
X026021Y023898D02*
X025714Y023898D01*
X025791Y023668D02*
X025791Y024129D01*
X026021Y023898D01*
X026175Y024052D02*
X026251Y024129D01*
X026405Y024129D01*
X026482Y024052D01*
X026482Y023745D01*
D20*
X014621Y024135D02*
X014621Y022994D01*
X014621Y024136D02*
X014620Y024203D01*
X014615Y024271D01*
X014606Y024338D01*
X014594Y024405D01*
X014577Y024470D01*
X014557Y024535D01*
X014533Y024598D01*
X014505Y024660D01*
X014474Y024720D01*
X014439Y024779D01*
X014401Y024835D01*
X014360Y024889D01*
X014316Y024940D01*
X014269Y024989D01*
X014219Y025035D01*
X014167Y025078D01*
X014112Y025117D01*
X014055Y025154D01*
X013996Y025187D01*
X013935Y025217D01*
X013872Y025243D01*
X013808Y025266D01*
X013743Y025284D01*
X013677Y025299D01*
X013610Y025310D01*
X013543Y025318D01*
X013475Y025321D01*
X013407Y025320D01*
X013340Y025316D01*
X013273Y025307D01*
X013206Y025295D01*
X013140Y025278D01*
X013075Y025258D01*
X013012Y025235D01*
X012950Y025207D01*
X012890Y025176D01*
X012831Y025142D01*
X012775Y025104D01*
X012721Y025063D01*
X012669Y025019D01*
X012621Y024972D01*
X012574Y024923D01*
X012426Y024825D01*
X012273Y024734D01*
X012116Y024650D01*
X011955Y024574D01*
X011791Y024507D01*
X011623Y024447D01*
X011453Y024396D01*
X011281Y024353D01*
X011106Y024318D01*
X010930Y024292D01*
X010753Y024275D01*
X010576Y024266D01*
X010398Y024266D01*
X010221Y024275D01*
X010044Y024292D01*
X009868Y024318D01*
X009693Y024353D01*
X009521Y024396D01*
X009351Y024447D01*
X009183Y024507D01*
X009019Y024574D01*
X008858Y024650D01*
X008701Y024734D01*
X008548Y024825D01*
X008400Y024923D01*
X008401Y024923D02*
X008354Y024971D01*
X008305Y025017D01*
X008253Y025059D01*
X008198Y025099D01*
X008142Y025135D01*
X008084Y025168D01*
X008023Y025198D01*
X007962Y025224D01*
X007898Y025247D01*
X007834Y025266D01*
X007769Y025281D01*
X007703Y025293D01*
X007636Y025300D01*
X007569Y025304D01*
X007502Y025305D01*
X007435Y025301D01*
X007368Y025294D01*
X007302Y025282D01*
X007237Y025267D01*
X007172Y025249D01*
X007109Y025226D01*
X007047Y025201D01*
X006986Y025171D01*
X006928Y025138D01*
X006871Y025102D01*
X006817Y025063D01*
X006765Y025021D01*
X006715Y024976D01*
X006668Y024928D01*
X006624Y024878D01*
X006582Y024825D01*
X006544Y024770D01*
X006509Y024712D01*
X006477Y024653D01*
X006449Y024592D01*
X006424Y024530D01*
X006403Y024466D01*
X006386Y024401D01*
X006372Y024336D01*
X006362Y024269D01*
X006355Y024203D01*
X006353Y024136D01*
X006354Y024135D02*
X006354Y022994D01*
X006354Y020316D02*
X006354Y019883D01*
X009031Y017494D01*
X011944Y017494D01*
X014621Y019883D01*
X014621Y020316D01*
X019767Y019118D02*
X019769Y019133D01*
X019775Y019146D01*
X019784Y019158D01*
X019795Y019167D01*
X019809Y019173D01*
X019824Y019175D01*
X019839Y019173D01*
X019852Y019167D01*
X019864Y019158D01*
X019873Y019147D01*
X019879Y019133D01*
X019881Y019118D01*
X019879Y019103D01*
X019873Y019090D01*
X019864Y019078D01*
X019853Y019069D01*
X019839Y019063D01*
X019824Y019061D01*
X019809Y019063D01*
X019796Y019069D01*
X019784Y019078D01*
X019775Y019089D01*
X019769Y019103D01*
X019767Y019118D01*
X005238Y008616D02*
X004923Y008616D01*
X004923Y008380D01*
X004923Y007750D02*
X004923Y007514D01*
X005238Y007514D01*
D21*
X004493Y008125D02*
X004493Y008175D01*
X004468Y008200D01*
X004368Y008200D01*
X004343Y008175D01*
X004343Y008125D01*
X004368Y008100D01*
X004468Y008100D01*
X004493Y008125D01*
X004393Y008150D02*
X004343Y008200D01*
X004343Y008247D02*
X004443Y008347D01*
X004468Y008347D01*
X004493Y008322D01*
X004493Y008272D01*
X004468Y008247D01*
X004343Y008247D02*
X004343Y008347D01*
X020219Y019358D02*
X020219Y019408D01*
X020244Y019433D01*
X020369Y019433D01*
X020344Y019481D02*
X020369Y019506D01*
X020369Y019556D01*
X020344Y019581D01*
X020319Y019628D02*
X020369Y019678D01*
X020219Y019678D01*
X020219Y019628D02*
X020219Y019728D01*
X020244Y019775D02*
X020219Y019800D01*
X020219Y019850D01*
X020244Y019875D01*
X020294Y019875D01*
X020319Y019850D01*
X020319Y019825D01*
X020294Y019775D01*
X020369Y019775D01*
X020369Y019875D01*
X020269Y019581D02*
X020294Y019556D01*
X020294Y019506D01*
X020319Y019481D01*
X020344Y019481D01*
X020394Y019531D02*
X020194Y019531D01*
X020219Y019556D02*
X020244Y019581D01*
X020269Y019581D01*
X020219Y019556D02*
X020219Y019506D01*
X020244Y019481D01*
X020219Y019358D02*
X020244Y019333D01*
X020369Y019333D01*
X013232Y021910D02*
X013157Y021910D01*
X013132Y021935D01*
X013132Y021960D01*
X013157Y021985D01*
X013232Y021985D01*
X013157Y021985D02*
X013132Y022010D01*
X013132Y022035D01*
X013157Y022060D01*
X013232Y022060D01*
X013232Y021910D01*
X013085Y021910D02*
X012985Y021910D01*
X013035Y021910D02*
X013035Y022060D01*
X013085Y022010D01*
M02*
