G75*
G70*
%OFA0B0*%
%FSLAX24Y24*%
%IPPOS*%
%LPD*%
%AMOC8*
5,1,8,0,0,1.08239X$1,22.5*
%
%ADD10C,0.0240*%
%ADD11C,0.0160*%
%ADD12C,0.0110*%
%ADD13C,0.0060*%
%ADD14C,0.0050*%
%ADD15C,0.0000*%
%ADD16C,0.0040*%
%ADD17C,0.0070*%
%ADD18R,0.0295X0.0669*%
%ADD19C,0.0030*%
%ADD20R,0.0600X0.0600*%
%ADD21R,0.0360X0.0590*%
%ADD22R,0.0420X0.0240*%
%ADD23C,0.0080*%
%ADD24R,0.0524X0.0197*%
%ADD25R,0.0524X0.0197*%
%ADD26C,0.0010*%
%ADD27R,0.0669X0.0295*%
%ADD28R,0.0400X0.0140*%
%ADD29C,0.0090*%
D10*
X000220Y000812D02*
X071265Y000812D01*
D11*
X000220Y000812D02*
X000226Y026418D01*
X071272Y026418D01*
X071265Y000812D01*
D12*
X019310Y008160D02*
X019015Y008160D01*
X018916Y008258D01*
X018916Y008652D01*
X019015Y008750D01*
X019310Y008750D01*
X019310Y008160D01*
X018666Y008258D02*
X018666Y008455D01*
X018567Y008553D01*
X018370Y008553D01*
X018272Y008455D01*
X018272Y008356D01*
X018666Y008356D01*
X018666Y008258D02*
X018567Y008160D01*
X018370Y008160D01*
X018021Y008160D02*
X017726Y008160D01*
X017627Y008258D01*
X017726Y008356D01*
X017923Y008356D01*
X018021Y008455D01*
X017923Y008553D01*
X017627Y008553D01*
X017376Y008553D02*
X017278Y008553D01*
X017278Y008160D01*
X017376Y008160D02*
X017180Y008160D01*
X016947Y008258D02*
X016848Y008160D01*
X016553Y008160D01*
X016553Y008061D02*
X016553Y008553D01*
X016848Y008553D01*
X016947Y008455D01*
X016947Y008258D01*
X016652Y007963D02*
X016553Y008061D01*
X016652Y007963D02*
X016750Y007963D01*
X016302Y008160D02*
X016302Y008553D01*
X016007Y008553D01*
X015909Y008455D01*
X015909Y008160D01*
X015658Y008258D02*
X015658Y008455D01*
X015559Y008553D01*
X015362Y008553D01*
X015264Y008455D01*
X015264Y008356D01*
X015658Y008356D01*
X015658Y008258D02*
X015559Y008160D01*
X015362Y008160D01*
X015013Y008258D02*
X015013Y008455D01*
X014915Y008553D01*
X014619Y008553D01*
X014619Y008750D02*
X014619Y008160D01*
X014915Y008160D01*
X015013Y008258D01*
X013724Y008160D02*
X013429Y008160D01*
X013330Y008258D01*
X013330Y008356D01*
X013429Y008455D01*
X013724Y008455D01*
X013724Y008750D02*
X013429Y008750D01*
X013330Y008652D01*
X013330Y008553D01*
X013429Y008455D01*
X013079Y008553D02*
X013079Y008258D01*
X012981Y008160D01*
X012686Y008160D01*
X012686Y008061D02*
X012784Y007963D01*
X012883Y007963D01*
X012686Y008061D02*
X012686Y008553D01*
X013724Y008750D02*
X013724Y008160D01*
X013588Y007454D02*
X013981Y007454D01*
X013981Y006864D01*
X013588Y006864D01*
X013337Y006962D02*
X013239Y006864D01*
X013042Y006864D01*
X012943Y006962D01*
X012943Y007060D01*
X013042Y007159D01*
X013239Y007159D01*
X013337Y007257D01*
X013337Y007356D01*
X013239Y007454D01*
X013042Y007454D01*
X012943Y007356D01*
X013785Y007159D02*
X013981Y007159D01*
X014232Y006864D02*
X014626Y006864D01*
X014626Y007454D01*
X014232Y007454D01*
X014877Y007356D02*
X014877Y007257D01*
X014975Y007159D01*
X015271Y007159D01*
X015271Y006864D02*
X015271Y007454D01*
X014975Y007454D01*
X014877Y007356D01*
X014975Y007159D02*
X014877Y007060D01*
X014877Y006962D01*
X014975Y006864D01*
X015271Y006864D01*
X014626Y007159D02*
X014429Y007159D01*
X016166Y007356D02*
X016166Y007454D01*
X016166Y007356D02*
X016363Y007159D01*
X016363Y006864D01*
X016363Y007159D02*
X016560Y007356D01*
X016560Y007454D01*
X016811Y007454D02*
X017204Y007454D01*
X017204Y006864D01*
X016811Y006864D01*
X017007Y007159D02*
X017204Y007159D01*
X017455Y006864D02*
X017455Y007454D01*
X017849Y007454D02*
X017455Y006864D01*
X017849Y006864D02*
X017849Y007454D01*
X018100Y007356D02*
X018198Y007454D01*
X018395Y007454D01*
X018493Y007356D01*
X018493Y006962D01*
X018395Y006864D01*
X018198Y006864D01*
X018100Y006962D01*
X018100Y007356D01*
X018744Y007454D02*
X018744Y006864D01*
X018744Y007159D02*
X019138Y007159D01*
X019138Y006864D02*
X019138Y007454D01*
X017278Y008750D02*
X017278Y008848D01*
D13*
X008237Y009192D02*
X005717Y009192D01*
X005717Y017692D01*
X008237Y017692D01*
X008237Y009192D01*
X007777Y009642D02*
X006177Y009642D01*
X006177Y010242D01*
X007777Y010242D01*
X007777Y009642D01*
X007777Y010642D02*
X006177Y010642D01*
X006177Y011242D01*
X007777Y011242D01*
X007777Y010642D01*
X007777Y011642D02*
X006177Y011642D01*
X006177Y012242D01*
X007777Y012242D01*
X007777Y011642D01*
X007777Y012642D02*
X006177Y012642D01*
X006177Y013242D01*
X007777Y013242D01*
X007777Y012642D01*
X007777Y013642D02*
X006177Y013642D01*
X006177Y014242D01*
X007777Y014242D01*
X007777Y013642D01*
X007777Y014642D02*
X006177Y014642D01*
X006177Y015242D01*
X007777Y015242D01*
X007777Y014642D01*
X007777Y015642D02*
X006177Y015642D01*
X006177Y016242D01*
X007777Y016242D01*
X007777Y015642D01*
X007777Y016642D02*
X006177Y016642D01*
X006177Y017242D01*
X007777Y017242D01*
X007777Y016642D01*
X009810Y018856D02*
X010024Y018856D01*
X010130Y018963D01*
X010348Y019069D02*
X010348Y019496D01*
X010130Y019390D02*
X010024Y019496D01*
X009810Y019496D01*
X009703Y019390D01*
X009703Y019283D01*
X009810Y019176D01*
X009703Y019069D01*
X009703Y018963D01*
X009810Y018856D01*
X010348Y019069D02*
X010561Y018856D01*
X010775Y019069D01*
X010775Y019496D01*
X010993Y019390D02*
X011099Y019496D01*
X011313Y019496D01*
X011420Y019390D01*
X011206Y019176D02*
X011099Y019176D01*
X010993Y019069D01*
X010993Y018963D01*
X011099Y018856D01*
X011313Y018856D01*
X011420Y018963D01*
X011099Y019176D02*
X010993Y019283D01*
X010993Y019390D01*
X009917Y019176D02*
X009810Y019176D01*
X019550Y018898D02*
X020970Y018898D01*
X020970Y020758D01*
X019550Y020758D01*
X019550Y018898D01*
X007849Y007817D02*
X006729Y007817D01*
X006729Y007297D01*
X007849Y007297D01*
X007849Y007817D01*
D14*
X009327Y009467D02*
X009252Y009542D01*
X009252Y009692D01*
X009327Y009767D01*
X009402Y009767D01*
X009477Y009692D01*
X009477Y009542D01*
X009552Y009467D01*
X009627Y009467D01*
X009702Y009542D01*
X009702Y009692D01*
X009627Y009767D01*
X009552Y009927D02*
X009702Y010077D01*
X009252Y010077D01*
X009252Y009927D02*
X009252Y010227D01*
X019909Y018497D02*
X019954Y018452D01*
X020044Y018452D01*
X020089Y018497D01*
X020089Y018677D01*
X020044Y018722D01*
X019954Y018722D01*
X019909Y018677D01*
X020204Y018722D02*
X020384Y018722D01*
X020294Y018722D02*
X020294Y018452D01*
X020498Y018452D02*
X020589Y018542D01*
X020544Y018542D02*
X020679Y018542D01*
X020679Y018452D02*
X020679Y018722D01*
X020544Y018722D01*
X020498Y018677D01*
X020498Y018587D01*
X020544Y018542D01*
X031441Y002337D02*
X031447Y002330D01*
D15*
X004779Y002893D02*
X004781Y002940D01*
X004787Y002986D01*
X004797Y003032D01*
X004810Y003077D01*
X004828Y003120D01*
X004849Y003162D01*
X004873Y003202D01*
X004901Y003239D01*
X004932Y003274D01*
X004966Y003307D01*
X005002Y003336D01*
X005041Y003362D01*
X005082Y003385D01*
X005125Y003404D01*
X005169Y003420D01*
X005214Y003432D01*
X005260Y003440D01*
X005307Y003444D01*
X005353Y003444D01*
X005400Y003440D01*
X005446Y003432D01*
X005491Y003420D01*
X005535Y003404D01*
X005578Y003385D01*
X005619Y003362D01*
X005658Y003336D01*
X005694Y003307D01*
X005728Y003274D01*
X005759Y003239D01*
X005787Y003202D01*
X005811Y003162D01*
X005832Y003120D01*
X005850Y003077D01*
X005863Y003032D01*
X005873Y002986D01*
X005879Y002940D01*
X005881Y002893D01*
X005879Y002846D01*
X005873Y002800D01*
X005863Y002754D01*
X005850Y002709D01*
X005832Y002666D01*
X005811Y002624D01*
X005787Y002584D01*
X005759Y002547D01*
X005728Y002512D01*
X005694Y002479D01*
X005658Y002450D01*
X005619Y002424D01*
X005578Y002401D01*
X005535Y002382D01*
X005491Y002366D01*
X005446Y002354D01*
X005400Y002346D01*
X005353Y002342D01*
X005307Y002342D01*
X005260Y002346D01*
X005214Y002354D01*
X005169Y002366D01*
X005125Y002382D01*
X005082Y002401D01*
X005041Y002424D01*
X005002Y002450D01*
X004966Y002479D01*
X004932Y002512D01*
X004901Y002547D01*
X004873Y002584D01*
X004849Y002624D01*
X004828Y002666D01*
X004810Y002709D01*
X004797Y002754D01*
X004787Y002800D01*
X004781Y002846D01*
X004779Y002893D01*
X001306Y002514D02*
X001308Y002561D01*
X001314Y002607D01*
X001324Y002653D01*
X001337Y002698D01*
X001355Y002741D01*
X001376Y002783D01*
X001400Y002823D01*
X001428Y002860D01*
X001459Y002895D01*
X001493Y002928D01*
X001529Y002957D01*
X001568Y002983D01*
X001609Y003006D01*
X001652Y003025D01*
X001696Y003041D01*
X001741Y003053D01*
X001787Y003061D01*
X001834Y003065D01*
X001880Y003065D01*
X001927Y003061D01*
X001973Y003053D01*
X002018Y003041D01*
X002062Y003025D01*
X002105Y003006D01*
X002146Y002983D01*
X002185Y002957D01*
X002221Y002928D01*
X002255Y002895D01*
X002286Y002860D01*
X002314Y002823D01*
X002338Y002783D01*
X002359Y002741D01*
X002377Y002698D01*
X002390Y002653D01*
X002400Y002607D01*
X002406Y002561D01*
X002408Y002514D01*
X002406Y002467D01*
X002400Y002421D01*
X002390Y002375D01*
X002377Y002330D01*
X002359Y002287D01*
X002338Y002245D01*
X002314Y002205D01*
X002286Y002168D01*
X002255Y002133D01*
X002221Y002100D01*
X002185Y002071D01*
X002146Y002045D01*
X002105Y002022D01*
X002062Y002003D01*
X002018Y001987D01*
X001973Y001975D01*
X001927Y001967D01*
X001880Y001963D01*
X001834Y001963D01*
X001787Y001967D01*
X001741Y001975D01*
X001696Y001987D01*
X001652Y002003D01*
X001609Y002022D01*
X001568Y002045D01*
X001529Y002071D01*
X001493Y002100D01*
X001459Y002133D01*
X001428Y002168D01*
X001400Y002205D01*
X001376Y002245D01*
X001355Y002287D01*
X001337Y002330D01*
X001324Y002375D01*
X001314Y002421D01*
X001308Y002467D01*
X001306Y002514D01*
X033780Y023649D02*
X033782Y023696D01*
X033788Y023742D01*
X033798Y023788D01*
X033811Y023833D01*
X033829Y023876D01*
X033850Y023918D01*
X033874Y023958D01*
X033902Y023995D01*
X033933Y024030D01*
X033967Y024063D01*
X034003Y024092D01*
X034042Y024118D01*
X034083Y024141D01*
X034126Y024160D01*
X034170Y024176D01*
X034215Y024188D01*
X034261Y024196D01*
X034308Y024200D01*
X034354Y024200D01*
X034401Y024196D01*
X034447Y024188D01*
X034492Y024176D01*
X034536Y024160D01*
X034579Y024141D01*
X034620Y024118D01*
X034659Y024092D01*
X034695Y024063D01*
X034729Y024030D01*
X034760Y023995D01*
X034788Y023958D01*
X034812Y023918D01*
X034833Y023876D01*
X034851Y023833D01*
X034864Y023788D01*
X034874Y023742D01*
X034880Y023696D01*
X034882Y023649D01*
X034880Y023602D01*
X034874Y023556D01*
X034864Y023510D01*
X034851Y023465D01*
X034833Y023422D01*
X034812Y023380D01*
X034788Y023340D01*
X034760Y023303D01*
X034729Y023268D01*
X034695Y023235D01*
X034659Y023206D01*
X034620Y023180D01*
X034579Y023157D01*
X034536Y023138D01*
X034492Y023122D01*
X034447Y023110D01*
X034401Y023102D01*
X034354Y023098D01*
X034308Y023098D01*
X034261Y023102D01*
X034215Y023110D01*
X034170Y023122D01*
X034126Y023138D01*
X034083Y023157D01*
X034042Y023180D01*
X034003Y023206D01*
X033967Y023235D01*
X033933Y023268D01*
X033902Y023303D01*
X033874Y023340D01*
X033850Y023380D01*
X033829Y023422D01*
X033811Y023465D01*
X033798Y023510D01*
X033788Y023556D01*
X033782Y023602D01*
X033780Y023649D01*
X021408Y024448D02*
X021410Y024495D01*
X021416Y024541D01*
X021426Y024587D01*
X021439Y024632D01*
X021457Y024675D01*
X021478Y024717D01*
X021502Y024757D01*
X021530Y024794D01*
X021561Y024829D01*
X021595Y024862D01*
X021631Y024891D01*
X021670Y024917D01*
X021711Y024940D01*
X021754Y024959D01*
X021798Y024975D01*
X021843Y024987D01*
X021889Y024995D01*
X021936Y024999D01*
X021982Y024999D01*
X022029Y024995D01*
X022075Y024987D01*
X022120Y024975D01*
X022164Y024959D01*
X022207Y024940D01*
X022248Y024917D01*
X022287Y024891D01*
X022323Y024862D01*
X022357Y024829D01*
X022388Y024794D01*
X022416Y024757D01*
X022440Y024717D01*
X022461Y024675D01*
X022479Y024632D01*
X022492Y024587D01*
X022502Y024541D01*
X022508Y024495D01*
X022510Y024448D01*
X022508Y024401D01*
X022502Y024355D01*
X022492Y024309D01*
X022479Y024264D01*
X022461Y024221D01*
X022440Y024179D01*
X022416Y024139D01*
X022388Y024102D01*
X022357Y024067D01*
X022323Y024034D01*
X022287Y024005D01*
X022248Y023979D01*
X022207Y023956D01*
X022164Y023937D01*
X022120Y023921D01*
X022075Y023909D01*
X022029Y023901D01*
X021982Y023897D01*
X021936Y023897D01*
X021889Y023901D01*
X021843Y023909D01*
X021798Y023921D01*
X021754Y023937D01*
X021711Y023956D01*
X021670Y023979D01*
X021631Y024005D01*
X021595Y024034D01*
X021561Y024067D01*
X021530Y024102D01*
X021502Y024139D01*
X021478Y024179D01*
X021457Y024221D01*
X021439Y024264D01*
X021426Y024309D01*
X021416Y024355D01*
X021410Y024401D01*
X021408Y024448D01*
X001250Y024787D02*
X001252Y024834D01*
X001258Y024880D01*
X001268Y024926D01*
X001281Y024971D01*
X001299Y025014D01*
X001320Y025056D01*
X001344Y025096D01*
X001372Y025133D01*
X001403Y025168D01*
X001437Y025201D01*
X001473Y025230D01*
X001512Y025256D01*
X001553Y025279D01*
X001596Y025298D01*
X001640Y025314D01*
X001685Y025326D01*
X001731Y025334D01*
X001778Y025338D01*
X001824Y025338D01*
X001871Y025334D01*
X001917Y025326D01*
X001962Y025314D01*
X002006Y025298D01*
X002049Y025279D01*
X002090Y025256D01*
X002129Y025230D01*
X002165Y025201D01*
X002199Y025168D01*
X002230Y025133D01*
X002258Y025096D01*
X002282Y025056D01*
X002303Y025014D01*
X002321Y024971D01*
X002334Y024926D01*
X002344Y024880D01*
X002350Y024834D01*
X002352Y024787D01*
X002350Y024740D01*
X002344Y024694D01*
X002334Y024648D01*
X002321Y024603D01*
X002303Y024560D01*
X002282Y024518D01*
X002258Y024478D01*
X002230Y024441D01*
X002199Y024406D01*
X002165Y024373D01*
X002129Y024344D01*
X002090Y024318D01*
X002049Y024295D01*
X002006Y024276D01*
X001962Y024260D01*
X001917Y024248D01*
X001871Y024240D01*
X001824Y024236D01*
X001778Y024236D01*
X001731Y024240D01*
X001685Y024248D01*
X001640Y024260D01*
X001596Y024276D01*
X001553Y024295D01*
X001512Y024318D01*
X001473Y024344D01*
X001437Y024373D01*
X001403Y024406D01*
X001372Y024441D01*
X001344Y024478D01*
X001320Y024518D01*
X001299Y024560D01*
X001281Y024603D01*
X001268Y024648D01*
X001258Y024694D01*
X001252Y024740D01*
X001250Y024787D01*
X069303Y002473D02*
X069305Y002520D01*
X069311Y002566D01*
X069321Y002612D01*
X069334Y002657D01*
X069352Y002700D01*
X069373Y002742D01*
X069397Y002782D01*
X069425Y002819D01*
X069456Y002854D01*
X069490Y002887D01*
X069526Y002916D01*
X069565Y002942D01*
X069606Y002965D01*
X069649Y002984D01*
X069693Y003000D01*
X069738Y003012D01*
X069784Y003020D01*
X069831Y003024D01*
X069877Y003024D01*
X069924Y003020D01*
X069970Y003012D01*
X070015Y003000D01*
X070059Y002984D01*
X070102Y002965D01*
X070143Y002942D01*
X070182Y002916D01*
X070218Y002887D01*
X070252Y002854D01*
X070283Y002819D01*
X070311Y002782D01*
X070335Y002742D01*
X070356Y002700D01*
X070374Y002657D01*
X070387Y002612D01*
X070397Y002566D01*
X070403Y002520D01*
X070405Y002473D01*
X070403Y002426D01*
X070397Y002380D01*
X070387Y002334D01*
X070374Y002289D01*
X070356Y002246D01*
X070335Y002204D01*
X070311Y002164D01*
X070283Y002127D01*
X070252Y002092D01*
X070218Y002059D01*
X070182Y002030D01*
X070143Y002004D01*
X070102Y001981D01*
X070059Y001962D01*
X070015Y001946D01*
X069970Y001934D01*
X069924Y001926D01*
X069877Y001922D01*
X069831Y001922D01*
X069784Y001926D01*
X069738Y001934D01*
X069693Y001946D01*
X069649Y001962D01*
X069606Y001981D01*
X069565Y002004D01*
X069526Y002030D01*
X069490Y002059D01*
X069456Y002092D01*
X069425Y002127D01*
X069397Y002164D01*
X069373Y002204D01*
X069352Y002246D01*
X069334Y002289D01*
X069321Y002334D01*
X069311Y002380D01*
X069305Y002426D01*
X069303Y002473D01*
D16*
X059159Y002647D02*
X058399Y002647D01*
X058399Y003267D02*
X059159Y003267D01*
X052229Y003355D02*
X051469Y003355D01*
X050148Y003354D02*
X049388Y003354D01*
X049388Y002734D02*
X050148Y002734D01*
X051469Y002735D02*
X052229Y002735D01*
X046401Y002707D02*
X045641Y002707D01*
X045641Y003326D02*
X046401Y003326D01*
X038383Y003294D02*
X037623Y003294D01*
X037623Y002674D02*
X038383Y002674D01*
X038378Y004989D02*
X037618Y004989D01*
X037618Y005609D02*
X038378Y005609D01*
X038333Y007333D02*
X037573Y007333D01*
X037573Y007952D02*
X038333Y007952D01*
X038322Y009511D02*
X037562Y009511D01*
X037562Y010131D02*
X038322Y010131D01*
X036057Y012864D02*
X035297Y012864D01*
X035297Y013484D02*
X036057Y013484D01*
X036026Y014713D02*
X035266Y014713D01*
X035266Y015333D02*
X036026Y015333D01*
X036103Y016593D02*
X035343Y016593D01*
X035343Y017213D02*
X036103Y017213D01*
X036188Y019253D02*
X035428Y019253D01*
X035428Y019873D02*
X036188Y019873D01*
X029395Y023130D02*
X028635Y023130D01*
X028635Y023750D02*
X029395Y023750D01*
X025880Y023959D02*
X025880Y023199D01*
X025260Y023199D02*
X025260Y023959D01*
X020882Y022391D02*
X020882Y021631D01*
X020262Y021631D02*
X020262Y022391D01*
X021878Y022319D02*
X021878Y021559D01*
X022498Y021559D02*
X022498Y022319D01*
X016546Y012766D02*
X016546Y012006D01*
X015926Y012006D02*
X015926Y012766D01*
X012777Y010802D02*
X012623Y010802D01*
X012700Y010802D02*
X012700Y010341D01*
X012777Y010341D02*
X012623Y010341D01*
X012470Y010418D02*
X012393Y010341D01*
X012240Y010341D01*
X012163Y010418D01*
X012009Y010341D02*
X011702Y010648D01*
X011702Y010725D01*
X011779Y010802D01*
X011933Y010802D01*
X012009Y010725D01*
X012163Y010725D02*
X012240Y010802D01*
X012393Y010802D01*
X012470Y010725D01*
X012470Y010418D01*
X012009Y010341D02*
X011702Y010341D01*
X004666Y008645D02*
X004666Y007886D01*
X004046Y007886D02*
X004046Y008645D01*
X002738Y009001D02*
X001978Y009001D01*
X001978Y009621D02*
X002738Y009621D01*
X029392Y009488D02*
X030152Y009488D01*
X030152Y008869D02*
X029392Y008869D01*
X029378Y007629D02*
X030138Y007629D01*
X030138Y007009D02*
X029378Y007009D01*
X029417Y005613D02*
X030177Y005613D01*
X030177Y004993D02*
X029417Y004993D01*
X029436Y004222D02*
X030196Y004222D01*
X030196Y003602D02*
X029436Y003602D01*
X058424Y006991D02*
X059184Y006991D01*
X059184Y007611D02*
X058424Y007611D01*
X058406Y011324D02*
X059166Y011324D01*
X059166Y011943D02*
X058406Y011943D01*
X058380Y015631D02*
X059140Y015631D01*
X059140Y016251D02*
X058380Y016251D01*
X052972Y021242D02*
X052212Y021242D01*
X052212Y021861D02*
X052972Y021861D01*
X053126Y024286D02*
X052366Y024286D01*
X052366Y024906D02*
X053126Y024906D01*
X065125Y024146D02*
X065885Y024146D01*
X065885Y023526D02*
X065125Y023526D01*
X065157Y022847D02*
X065917Y022847D01*
X065917Y022228D02*
X065157Y022228D01*
X065152Y021660D02*
X065912Y021660D01*
X065912Y021040D02*
X065152Y021040D01*
X065152Y024913D02*
X065912Y024913D01*
X065912Y025532D02*
X065152Y025532D01*
D17*
X065205Y025708D02*
X065095Y025708D01*
X065040Y025763D01*
X065040Y025983D01*
X065095Y026038D01*
X065205Y026038D01*
X065260Y025983D01*
X065260Y025928D01*
X065205Y025873D01*
X065040Y025873D01*
X065205Y025708D02*
X065260Y025763D01*
X065408Y025763D02*
X065463Y025708D01*
X065573Y025708D01*
X065628Y025763D01*
X065518Y025873D02*
X065463Y025873D01*
X065408Y025818D01*
X065408Y025763D01*
X065463Y025873D02*
X065408Y025928D01*
X065408Y025983D01*
X065463Y026038D01*
X065573Y026038D01*
X065628Y025983D01*
X065776Y025983D02*
X065776Y025873D01*
X065831Y025818D01*
X065997Y025818D01*
X065997Y025708D02*
X065997Y026038D01*
X065831Y026038D01*
X065776Y025983D01*
X065887Y025818D02*
X065776Y025708D01*
X065805Y024651D02*
X065750Y024596D01*
X065750Y024486D01*
X065805Y024431D01*
X065970Y024431D01*
X065970Y024321D02*
X065970Y024651D01*
X065805Y024651D01*
X065860Y024431D02*
X065750Y024321D01*
X065602Y024486D02*
X065382Y024486D01*
X065437Y024321D02*
X065437Y024651D01*
X065602Y024486D01*
X065234Y024376D02*
X065234Y024596D01*
X065178Y024651D01*
X065068Y024651D01*
X065013Y024596D01*
X065234Y024376D01*
X065178Y024321D01*
X065068Y024321D01*
X065013Y024376D01*
X065013Y024596D01*
X065101Y023353D02*
X065045Y023298D01*
X065045Y023243D01*
X065101Y023188D01*
X065211Y023188D01*
X065266Y023243D01*
X065266Y023298D01*
X065211Y023353D01*
X065101Y023353D01*
X065101Y023188D02*
X065045Y023133D01*
X065045Y023077D01*
X065101Y023022D01*
X065211Y023022D01*
X065266Y023077D01*
X065266Y023133D01*
X065211Y023188D01*
X065414Y023243D02*
X065469Y023188D01*
X065414Y023133D01*
X065414Y023077D01*
X065469Y023022D01*
X065579Y023022D01*
X065634Y023077D01*
X065524Y023188D02*
X065469Y023188D01*
X065414Y023243D02*
X065414Y023298D01*
X065469Y023353D01*
X065579Y023353D01*
X065634Y023298D01*
X065782Y023298D02*
X065782Y023188D01*
X065837Y023133D01*
X066002Y023133D01*
X065892Y023133D02*
X065782Y023022D01*
X066002Y023022D02*
X066002Y023353D01*
X065837Y023353D01*
X065782Y023298D01*
X065832Y022165D02*
X065777Y022110D01*
X065777Y022000D01*
X065832Y021945D01*
X065997Y021945D01*
X065887Y021945D02*
X065777Y021835D01*
X065629Y021890D02*
X065574Y021835D01*
X065464Y021835D01*
X065409Y021890D01*
X065409Y021945D01*
X065464Y022000D01*
X065519Y022000D01*
X065464Y022000D02*
X065409Y022055D01*
X065409Y022110D01*
X065464Y022165D01*
X065574Y022165D01*
X065629Y022110D01*
X065832Y022165D02*
X065997Y022165D01*
X065997Y021835D01*
X065261Y021890D02*
X065206Y021835D01*
X065096Y021835D01*
X065041Y021890D01*
X065041Y021945D01*
X065096Y022000D01*
X065261Y022000D01*
X065261Y021890D01*
X065261Y022000D02*
X065151Y022110D01*
X065041Y022165D01*
X053057Y022147D02*
X052892Y022147D01*
X052837Y022202D01*
X052837Y022312D01*
X052892Y022367D01*
X053057Y022367D01*
X053057Y022036D01*
X052947Y022147D02*
X052837Y022036D01*
X052688Y022092D02*
X052633Y022036D01*
X052523Y022036D01*
X052468Y022092D01*
X052468Y022147D01*
X052523Y022202D01*
X052578Y022202D01*
X052523Y022202D02*
X052468Y022257D01*
X052468Y022312D01*
X052523Y022367D01*
X052633Y022367D01*
X052688Y022312D01*
X052320Y022367D02*
X052100Y022367D01*
X052100Y022312D01*
X052320Y022092D01*
X052320Y022036D01*
X052309Y025081D02*
X052419Y025081D01*
X052474Y025136D01*
X052474Y025246D02*
X052364Y025301D01*
X052309Y025301D01*
X052254Y025246D01*
X052254Y025136D01*
X052309Y025081D01*
X052474Y025246D02*
X052474Y025411D01*
X052254Y025411D01*
X052622Y025356D02*
X052622Y025301D01*
X052677Y025246D01*
X052622Y025191D01*
X052622Y025136D01*
X052677Y025081D01*
X052788Y025081D01*
X052843Y025136D01*
X052732Y025246D02*
X052677Y025246D01*
X052622Y025356D02*
X052677Y025411D01*
X052788Y025411D01*
X052843Y025356D01*
X052991Y025356D02*
X052991Y025246D01*
X053046Y025191D01*
X053211Y025191D01*
X053211Y025081D02*
X053211Y025411D01*
X053046Y025411D01*
X052991Y025356D01*
X053101Y025191D02*
X052991Y025081D01*
X036378Y019078D02*
X036378Y018748D01*
X036378Y018858D02*
X036213Y018858D01*
X036158Y018913D01*
X036158Y019023D01*
X036213Y019078D01*
X036378Y019078D01*
X036268Y018858D02*
X036158Y018748D01*
X036009Y018748D02*
X035789Y018968D01*
X035789Y019023D01*
X035844Y019078D01*
X035954Y019078D01*
X036009Y019023D01*
X036009Y018748D02*
X035789Y018748D01*
X035641Y018748D02*
X035641Y018803D01*
X035421Y019023D01*
X035421Y019078D01*
X035641Y019078D01*
X035760Y016419D02*
X035705Y016364D01*
X035705Y016309D01*
X035925Y016088D01*
X035705Y016088D01*
X035557Y016143D02*
X035501Y016088D01*
X035391Y016088D01*
X035336Y016143D01*
X035336Y016364D01*
X035391Y016419D01*
X035501Y016419D01*
X035557Y016364D01*
X035557Y016309D01*
X035501Y016253D01*
X035336Y016253D01*
X035760Y016419D02*
X035870Y016419D01*
X035925Y016364D01*
X036073Y016364D02*
X036073Y016253D01*
X036128Y016198D01*
X036293Y016198D01*
X036293Y016088D02*
X036293Y016419D01*
X036128Y016419D01*
X036073Y016364D01*
X036183Y016198D02*
X036073Y016088D01*
X036051Y014538D02*
X035996Y014483D01*
X035996Y014373D01*
X036051Y014318D01*
X036216Y014318D01*
X036106Y014318D02*
X035996Y014208D01*
X035848Y014263D02*
X035793Y014208D01*
X035683Y014208D01*
X035628Y014263D01*
X035628Y014318D01*
X035683Y014373D01*
X035738Y014373D01*
X035683Y014373D02*
X035628Y014428D01*
X035628Y014483D01*
X035683Y014538D01*
X035793Y014538D01*
X035848Y014483D01*
X036051Y014538D02*
X036216Y014538D01*
X036216Y014208D01*
X035479Y014208D02*
X035259Y014208D01*
X035369Y014208D02*
X035369Y014538D01*
X035479Y014428D01*
X035455Y012689D02*
X035345Y012689D01*
X035290Y012634D01*
X035290Y012579D01*
X035345Y012524D01*
X035290Y012469D01*
X035290Y012414D01*
X035345Y012359D01*
X035455Y012359D01*
X035510Y012414D01*
X035658Y012414D02*
X035713Y012359D01*
X035824Y012359D01*
X035879Y012414D01*
X035768Y012524D02*
X035713Y012524D01*
X035658Y012469D01*
X035658Y012414D01*
X035713Y012524D02*
X035658Y012579D01*
X035658Y012634D01*
X035713Y012689D01*
X035824Y012689D01*
X035879Y012634D01*
X036027Y012634D02*
X036027Y012524D01*
X036082Y012469D01*
X036247Y012469D01*
X036247Y012359D02*
X036247Y012689D01*
X036082Y012689D01*
X036027Y012634D01*
X036137Y012469D02*
X036027Y012359D01*
X035510Y012634D02*
X035455Y012689D01*
X035400Y012524D02*
X035345Y012524D01*
X037450Y010582D02*
X037671Y010361D01*
X037616Y010306D01*
X037506Y010306D01*
X037450Y010361D01*
X037450Y010582D01*
X037506Y010637D01*
X037616Y010637D01*
X037671Y010582D01*
X037671Y010361D01*
X037819Y010361D02*
X037874Y010306D01*
X037984Y010306D01*
X038039Y010361D01*
X038039Y010471D02*
X037929Y010526D01*
X037874Y010526D01*
X037819Y010471D01*
X037819Y010361D01*
X038039Y010471D02*
X038039Y010637D01*
X037819Y010637D01*
X038187Y010582D02*
X038187Y010471D01*
X038242Y010416D01*
X038407Y010416D01*
X038407Y010306D02*
X038407Y010637D01*
X038242Y010637D01*
X038187Y010582D01*
X038297Y010416D02*
X038187Y010306D01*
X038253Y008458D02*
X038198Y008403D01*
X038198Y008293D01*
X038253Y008238D01*
X038418Y008238D01*
X038308Y008238D02*
X038198Y008128D01*
X038418Y008128D02*
X038418Y008458D01*
X038253Y008458D01*
X038049Y008293D02*
X037829Y008293D01*
X037681Y008348D02*
X037626Y008293D01*
X037461Y008293D01*
X037461Y008403D02*
X037516Y008458D01*
X037626Y008458D01*
X037681Y008403D01*
X037681Y008348D01*
X037681Y008183D02*
X037626Y008128D01*
X037516Y008128D01*
X037461Y008183D01*
X037461Y008403D01*
X037884Y008458D02*
X038049Y008293D01*
X037884Y008128D02*
X037884Y008458D01*
X037930Y006114D02*
X038095Y005949D01*
X037874Y005949D01*
X037930Y005784D02*
X037930Y006114D01*
X037726Y006059D02*
X037671Y006114D01*
X037561Y006114D01*
X037506Y006059D01*
X037506Y006004D01*
X037561Y005949D01*
X037506Y005894D01*
X037506Y005839D01*
X037561Y005784D01*
X037671Y005784D01*
X037726Y005839D01*
X037616Y005949D02*
X037561Y005949D01*
X038243Y005949D02*
X038298Y005894D01*
X038463Y005894D01*
X038353Y005894D02*
X038243Y005784D01*
X038243Y005949D02*
X038243Y006059D01*
X038298Y006114D01*
X038463Y006114D01*
X038463Y005784D01*
X038468Y003799D02*
X038303Y003799D01*
X038248Y003744D01*
X038248Y003634D01*
X038303Y003579D01*
X038468Y003579D01*
X038358Y003579D02*
X038248Y003469D01*
X038468Y003469D02*
X038468Y003799D01*
X038100Y003634D02*
X037934Y003799D01*
X037934Y003469D01*
X037879Y003634D02*
X038100Y003634D01*
X037731Y003689D02*
X037621Y003799D01*
X037621Y003469D01*
X037731Y003469D02*
X037511Y003469D01*
X030386Y003427D02*
X030386Y003097D01*
X030386Y003207D02*
X030221Y003207D01*
X030166Y003262D01*
X030166Y003372D01*
X030221Y003427D01*
X030386Y003427D01*
X030276Y003207D02*
X030166Y003097D01*
X030018Y003262D02*
X029798Y003262D01*
X029649Y003262D02*
X029539Y003317D01*
X029484Y003317D01*
X029429Y003262D01*
X029429Y003152D01*
X029484Y003097D01*
X029594Y003097D01*
X029649Y003152D01*
X029649Y003262D02*
X029649Y003427D01*
X029429Y003427D01*
X029853Y003427D02*
X030018Y003262D01*
X029853Y003097D02*
X029853Y003427D01*
X029728Y005788D02*
X029728Y006118D01*
X029894Y005953D01*
X029673Y005953D01*
X029525Y005953D02*
X029360Y005953D01*
X029305Y005898D01*
X029305Y005843D01*
X029360Y005788D01*
X029470Y005788D01*
X029525Y005843D01*
X029525Y005953D01*
X029415Y006063D01*
X029305Y006118D01*
X029591Y006504D02*
X029591Y006559D01*
X029371Y006779D01*
X029371Y006834D01*
X029591Y006834D01*
X029794Y006834D02*
X029959Y006669D01*
X029739Y006669D01*
X029794Y006504D02*
X029794Y006834D01*
X030107Y006779D02*
X030107Y006669D01*
X030162Y006614D01*
X030328Y006614D01*
X030328Y006504D02*
X030328Y006834D01*
X030162Y006834D01*
X030107Y006779D01*
X030217Y006614D02*
X030107Y006504D01*
X030097Y006118D02*
X030042Y006063D01*
X030042Y005953D01*
X030097Y005898D01*
X030262Y005898D01*
X030152Y005898D02*
X030042Y005788D01*
X030262Y005788D02*
X030262Y006118D01*
X030097Y006118D01*
X030122Y008364D02*
X030232Y008474D01*
X030177Y008474D02*
X030342Y008474D01*
X030342Y008364D02*
X030342Y008694D01*
X030177Y008694D01*
X030122Y008639D01*
X030122Y008529D01*
X030177Y008474D01*
X029973Y008529D02*
X029753Y008529D01*
X029605Y008584D02*
X029605Y008639D01*
X029550Y008694D01*
X029440Y008694D01*
X029385Y008639D01*
X029385Y008584D01*
X029440Y008529D01*
X029550Y008529D01*
X029605Y008584D01*
X029550Y008529D02*
X029605Y008474D01*
X029605Y008419D01*
X029550Y008364D01*
X029440Y008364D01*
X029385Y008419D01*
X029385Y008474D01*
X029440Y008529D01*
X029808Y008694D02*
X029973Y008529D01*
X029808Y008364D02*
X029808Y008694D01*
X017051Y011921D02*
X017051Y012086D01*
X016996Y012141D01*
X016886Y012141D01*
X016831Y012086D01*
X016831Y011921D01*
X016721Y011921D02*
X017051Y011921D01*
X016831Y012031D02*
X016721Y012141D01*
X016721Y012289D02*
X016721Y012510D01*
X016721Y012400D02*
X017051Y012400D01*
X016941Y012289D01*
X016886Y012658D02*
X016886Y012823D01*
X016831Y012878D01*
X016776Y012878D01*
X016721Y012823D01*
X016721Y012713D01*
X016776Y012658D01*
X016886Y012658D01*
X016996Y012768D01*
X017051Y012878D01*
X005171Y008757D02*
X005171Y008537D01*
X005006Y008537D01*
X005061Y008647D01*
X005061Y008702D01*
X005006Y008757D01*
X004896Y008757D01*
X004841Y008702D01*
X004841Y008592D01*
X004896Y008537D01*
X004841Y008389D02*
X004841Y008169D01*
X004841Y008279D02*
X005171Y008279D01*
X005061Y008169D01*
X005006Y008021D02*
X004951Y007966D01*
X004951Y007801D01*
X004951Y007911D02*
X004841Y008021D01*
X005006Y008021D02*
X005116Y008021D01*
X005171Y007966D01*
X005171Y007801D01*
X004841Y007801D01*
X019809Y021360D02*
X020139Y021360D01*
X020139Y021525D01*
X020084Y021580D01*
X019974Y021580D01*
X019919Y021525D01*
X019919Y021360D01*
X019919Y021470D02*
X019809Y021580D01*
X019809Y021728D02*
X019864Y021728D01*
X020084Y021949D01*
X020139Y021949D01*
X020139Y021728D01*
X021425Y021711D02*
X021425Y021821D01*
X021480Y021876D01*
X021535Y021876D01*
X021590Y021821D01*
X021590Y021711D01*
X021645Y021656D01*
X021700Y021656D01*
X021755Y021711D01*
X021755Y021821D01*
X021700Y021876D01*
X021645Y021876D01*
X021590Y021821D01*
X021590Y021711D02*
X021535Y021656D01*
X021480Y021656D01*
X021425Y021711D01*
X021425Y021508D02*
X021535Y021398D01*
X021535Y021453D02*
X021535Y021288D01*
X021425Y021288D02*
X021755Y021288D01*
X021755Y021453D01*
X021700Y021508D01*
X021590Y021508D01*
X021535Y021453D01*
X058268Y016701D02*
X058323Y016756D01*
X058433Y016756D01*
X058488Y016701D01*
X058636Y016756D02*
X058856Y016756D01*
X058856Y016591D01*
X058746Y016646D01*
X058691Y016646D01*
X058636Y016591D01*
X058636Y016481D01*
X058691Y016426D01*
X058801Y016426D01*
X058856Y016481D01*
X059004Y016426D02*
X059115Y016536D01*
X059060Y016536D02*
X059225Y016536D01*
X059225Y016426D02*
X059225Y016756D01*
X059060Y016756D01*
X059004Y016701D01*
X059004Y016591D01*
X059060Y016536D01*
X058488Y016426D02*
X058268Y016646D01*
X058268Y016701D01*
X058268Y016426D02*
X058488Y016426D01*
X058404Y012449D02*
X058404Y012119D01*
X058514Y012119D02*
X058294Y012119D01*
X058514Y012339D02*
X058404Y012449D01*
X058662Y012449D02*
X058882Y012449D01*
X058882Y012284D01*
X058772Y012339D01*
X058717Y012339D01*
X058662Y012284D01*
X058662Y012174D01*
X058717Y012119D01*
X058827Y012119D01*
X058882Y012174D01*
X059031Y012119D02*
X059141Y012229D01*
X059086Y012229D02*
X059251Y012229D01*
X059251Y012119D02*
X059251Y012449D01*
X059086Y012449D01*
X059031Y012394D01*
X059031Y012284D01*
X059086Y012229D01*
X059104Y008116D02*
X059049Y008061D01*
X059049Y007951D01*
X059104Y007896D01*
X059269Y007896D01*
X059159Y007896D02*
X059049Y007786D01*
X059269Y007786D02*
X059269Y008116D01*
X059104Y008116D01*
X058901Y007951D02*
X058736Y008116D01*
X058736Y007786D01*
X058680Y007951D02*
X058901Y007951D01*
X058532Y007951D02*
X058367Y008116D01*
X058367Y007786D01*
X058312Y007951D02*
X058532Y007951D01*
X058452Y003772D02*
X058507Y003717D01*
X058452Y003772D02*
X058342Y003772D01*
X058287Y003717D01*
X058287Y003662D01*
X058507Y003442D01*
X058287Y003442D01*
X058656Y003607D02*
X058876Y003607D01*
X058711Y003772D01*
X058711Y003442D01*
X059024Y003442D02*
X059134Y003552D01*
X059079Y003552D02*
X059244Y003552D01*
X059244Y003442D02*
X059244Y003772D01*
X059079Y003772D01*
X059024Y003717D01*
X059024Y003607D01*
X059079Y003552D01*
D18*
X059301Y002956D03*
X058257Y002957D03*
X052371Y003045D03*
X051327Y003045D03*
X050290Y003044D03*
X049246Y003045D03*
X046543Y003016D03*
X045499Y003017D03*
X038525Y002983D03*
X037481Y002984D03*
X037476Y005299D03*
X038520Y005298D03*
X038475Y007642D03*
X037430Y007643D03*
X037420Y009822D03*
X038465Y009821D03*
X030294Y009178D03*
X029250Y009179D03*
X029235Y007319D03*
X030280Y007319D03*
X030319Y005302D03*
X029275Y005303D03*
X029294Y003912D03*
X030338Y003912D03*
X035155Y013175D03*
X036199Y013174D03*
X036168Y015022D03*
X035124Y015023D03*
X035201Y016904D03*
X036246Y016903D03*
X036330Y019563D03*
X035285Y019563D03*
X029538Y023440D03*
X028493Y023441D03*
X052069Y021552D03*
X053114Y021551D03*
X053268Y024596D03*
X052224Y024596D03*
X064983Y023837D03*
X066027Y023836D03*
X066060Y022537D03*
X065015Y022538D03*
X065010Y021350D03*
X066055Y021350D03*
X066054Y025222D03*
X065009Y025223D03*
X059282Y015941D03*
X058237Y015941D03*
X058263Y011634D03*
X059308Y011633D03*
X059326Y007300D03*
X058282Y007301D03*
X002880Y009311D03*
X001836Y009312D03*
D19*
X006492Y009907D02*
X006492Y010153D01*
X006492Y010030D02*
X006862Y010030D01*
X006739Y009907D01*
D20*
X007477Y009942D03*
X007477Y010942D03*
X007477Y011942D03*
X007477Y012942D03*
X007477Y013942D03*
X007477Y014942D03*
X007477Y015942D03*
X007477Y016942D03*
D21*
X008417Y016937D03*
X008417Y015937D03*
X008417Y014937D03*
X008417Y013937D03*
X008417Y012937D03*
X008417Y011937D03*
X008417Y010937D03*
X008417Y009937D03*
X005537Y009947D03*
X005537Y010947D03*
X005537Y011947D03*
X005537Y012947D03*
X005537Y013947D03*
X005537Y014947D03*
X005537Y015947D03*
X005537Y016947D03*
D22*
X005147Y016942D03*
X005147Y015942D03*
X005147Y014942D03*
X005147Y013942D03*
X005147Y012942D03*
X005147Y011942D03*
X005147Y010942D03*
X005147Y009942D03*
X008807Y009942D03*
X008807Y010942D03*
X008807Y011942D03*
X008807Y012942D03*
X008807Y013942D03*
X008807Y014942D03*
X008807Y015942D03*
X008807Y016942D03*
D23*
X009077Y017494D02*
X006400Y019883D01*
X006400Y020316D01*
X006597Y021655D02*
X006602Y021848D01*
X006616Y022041D01*
X006640Y022233D01*
X006673Y022423D01*
X006715Y022612D01*
X006767Y022798D01*
X006827Y022981D01*
X006897Y023162D01*
X006975Y023338D01*
X007062Y023511D01*
X007157Y023679D01*
X007261Y023842D01*
X007372Y024000D01*
X007491Y024153D01*
X007617Y024299D01*
X007750Y024439D01*
X007890Y024572D01*
X008036Y024698D01*
X008189Y024817D01*
X008347Y024928D01*
X008510Y025032D01*
X008678Y025127D01*
X008851Y025214D01*
X009027Y025292D01*
X009208Y025362D01*
X009391Y025422D01*
X009577Y025474D01*
X009766Y025516D01*
X009956Y025549D01*
X010148Y025573D01*
X010341Y025587D01*
X010534Y025592D01*
X010727Y025587D01*
X010920Y025573D01*
X011112Y025549D01*
X011302Y025516D01*
X011491Y025474D01*
X011677Y025422D01*
X011860Y025362D01*
X012041Y025292D01*
X012217Y025214D01*
X012390Y025127D01*
X012558Y025032D01*
X012721Y024928D01*
X012879Y024817D01*
X013032Y024698D01*
X013178Y024572D01*
X013318Y024439D01*
X013451Y024299D01*
X013577Y024153D01*
X013696Y024000D01*
X013807Y023842D01*
X013911Y023679D01*
X014006Y023511D01*
X014093Y023338D01*
X014171Y023162D01*
X014241Y022981D01*
X014301Y022798D01*
X014353Y022612D01*
X014395Y022423D01*
X014428Y022233D01*
X014452Y022041D01*
X014466Y021848D01*
X014471Y021655D01*
X014466Y021462D01*
X014452Y021269D01*
X014428Y021077D01*
X014395Y020887D01*
X014353Y020698D01*
X014301Y020512D01*
X014241Y020329D01*
X014171Y020148D01*
X014093Y019972D01*
X014006Y019799D01*
X013911Y019631D01*
X013807Y019468D01*
X013696Y019310D01*
X013577Y019157D01*
X013451Y019011D01*
X013318Y018871D01*
X013178Y018738D01*
X013032Y018612D01*
X012879Y018493D01*
X012721Y018382D01*
X012558Y018278D01*
X012390Y018183D01*
X012217Y018096D01*
X012041Y018018D01*
X011860Y017948D01*
X011677Y017888D01*
X011491Y017836D01*
X011302Y017794D01*
X011112Y017761D01*
X010920Y017737D01*
X010727Y017723D01*
X010534Y017718D01*
X010341Y017723D01*
X010148Y017737D01*
X009956Y017761D01*
X009766Y017794D01*
X009577Y017836D01*
X009391Y017888D01*
X009208Y017948D01*
X009027Y018018D01*
X008851Y018096D01*
X008678Y018183D01*
X008510Y018278D01*
X008347Y018382D01*
X008189Y018493D01*
X008036Y018612D01*
X007890Y018738D01*
X007750Y018871D01*
X007617Y019011D01*
X007491Y019157D01*
X007372Y019310D01*
X007261Y019468D01*
X007157Y019631D01*
X007062Y019799D01*
X006975Y019972D01*
X006897Y020148D01*
X006827Y020329D01*
X006767Y020512D01*
X006715Y020698D01*
X006673Y020887D01*
X006640Y021077D01*
X006616Y021269D01*
X006602Y021462D01*
X006597Y021655D01*
X006400Y022994D02*
X006400Y024135D01*
X006400Y024136D02*
X006402Y024203D01*
X006409Y024269D01*
X006419Y024336D01*
X006433Y024401D01*
X006450Y024466D01*
X006471Y024530D01*
X006496Y024592D01*
X006524Y024653D01*
X006556Y024712D01*
X006591Y024770D01*
X006629Y024825D01*
X006671Y024878D01*
X006715Y024928D01*
X006762Y024976D01*
X006812Y025021D01*
X006864Y025063D01*
X006918Y025102D01*
X006975Y025138D01*
X007033Y025171D01*
X007094Y025201D01*
X007156Y025226D01*
X007219Y025249D01*
X007284Y025267D01*
X007349Y025282D01*
X007415Y025294D01*
X007482Y025301D01*
X007549Y025305D01*
X007616Y025304D01*
X007683Y025300D01*
X007750Y025293D01*
X007816Y025281D01*
X007881Y025266D01*
X007945Y025247D01*
X008009Y025224D01*
X008070Y025198D01*
X008131Y025168D01*
X008189Y025135D01*
X008245Y025099D01*
X008300Y025059D01*
X008352Y025017D01*
X008401Y024971D01*
X008448Y024923D01*
X008447Y024923D02*
X008595Y024825D01*
X008748Y024734D01*
X008905Y024650D01*
X009066Y024574D01*
X009230Y024507D01*
X009398Y024447D01*
X009568Y024396D01*
X009740Y024353D01*
X009915Y024318D01*
X010091Y024292D01*
X010268Y024275D01*
X010445Y024266D01*
X010623Y024266D01*
X010800Y024275D01*
X010977Y024292D01*
X011153Y024318D01*
X011328Y024353D01*
X011500Y024396D01*
X011670Y024447D01*
X011838Y024507D01*
X012002Y024574D01*
X012163Y024650D01*
X012320Y024734D01*
X012473Y024825D01*
X012621Y024923D01*
X012620Y024923D02*
X012667Y024972D01*
X012715Y025019D01*
X012767Y025063D01*
X012821Y025104D01*
X012877Y025142D01*
X012936Y025176D01*
X012996Y025207D01*
X013058Y025235D01*
X013121Y025258D01*
X013186Y025278D01*
X013252Y025295D01*
X013319Y025307D01*
X013386Y025316D01*
X013453Y025320D01*
X013521Y025321D01*
X013589Y025318D01*
X013656Y025310D01*
X013723Y025299D01*
X013789Y025284D01*
X013854Y025266D01*
X013918Y025243D01*
X013981Y025217D01*
X014042Y025187D01*
X014101Y025154D01*
X014158Y025117D01*
X014213Y025078D01*
X014265Y025035D01*
X014315Y024989D01*
X014362Y024940D01*
X014406Y024889D01*
X014447Y024835D01*
X014485Y024779D01*
X014520Y024720D01*
X014551Y024660D01*
X014579Y024598D01*
X014603Y024535D01*
X014623Y024470D01*
X014640Y024405D01*
X014652Y024338D01*
X014661Y024271D01*
X014666Y024203D01*
X014667Y024136D01*
X014668Y024135D02*
X014668Y022994D01*
X014668Y020316D02*
X014668Y019883D01*
X011991Y017494D01*
X009077Y017494D01*
X011358Y015534D02*
X011358Y011109D01*
X012358Y011109D01*
X013030Y011109D01*
X014280Y011109D01*
X014280Y015534D01*
X011358Y015534D01*
X019813Y019118D02*
X019815Y019133D01*
X019821Y019146D01*
X019830Y019158D01*
X019841Y019167D01*
X019855Y019173D01*
X019870Y019175D01*
X019885Y019173D01*
X019898Y019167D01*
X019910Y019158D01*
X019919Y019147D01*
X019925Y019133D01*
X019927Y019118D01*
X019925Y019103D01*
X019919Y019090D01*
X019910Y019078D01*
X019899Y019069D01*
X019885Y019063D01*
X019870Y019061D01*
X019855Y019063D01*
X019842Y019069D01*
X019830Y019078D01*
X019821Y019089D01*
X019815Y019103D01*
X019813Y019118D01*
X013029Y011108D02*
X013025Y011144D01*
X013018Y011180D01*
X013006Y011214D01*
X012991Y011247D01*
X012972Y011278D01*
X012950Y011307D01*
X012925Y011333D01*
X012897Y011357D01*
X012867Y011377D01*
X012835Y011394D01*
X012801Y011407D01*
X012766Y011417D01*
X012730Y011423D01*
X012694Y011425D01*
X012658Y011423D01*
X012622Y011417D01*
X012587Y011407D01*
X012553Y011394D01*
X012521Y011377D01*
X012491Y011357D01*
X012463Y011333D01*
X012438Y011307D01*
X012416Y011278D01*
X012397Y011247D01*
X012382Y011214D01*
X012370Y011180D01*
X012363Y011144D01*
X012359Y011108D01*
X007840Y007597D02*
X007840Y007282D01*
X007604Y007282D01*
X006974Y007282D02*
X006738Y007282D01*
X006738Y007597D01*
D24*
X011087Y011321D03*
X011087Y011821D03*
X011087Y012321D03*
X011087Y012821D03*
X011087Y013321D03*
X011087Y013821D03*
X011087Y014321D03*
X011087Y014821D03*
X011087Y015321D03*
X014561Y014821D03*
X014561Y014321D03*
X014561Y013821D03*
X014561Y013321D03*
X014561Y012821D03*
X014561Y012321D03*
X014561Y011821D03*
X014561Y011321D03*
D25*
X014551Y015321D03*
D26*
X013279Y021910D02*
X013204Y021910D01*
X013179Y021935D01*
X013179Y021960D01*
X013204Y021985D01*
X013279Y021985D01*
X013279Y021910D02*
X013279Y022060D01*
X013204Y022060D01*
X013179Y022035D01*
X013179Y022010D01*
X013204Y021985D01*
X013132Y022010D02*
X013081Y022060D01*
X013081Y021910D01*
X013031Y021910D02*
X013132Y021910D01*
X007228Y006852D02*
X007178Y006852D01*
X007153Y006827D01*
X007153Y006727D01*
X007178Y006702D01*
X007228Y006702D01*
X007253Y006727D01*
X007253Y006827D01*
X007228Y006852D01*
X007203Y006752D02*
X007153Y006702D01*
X007106Y006702D02*
X007006Y006802D01*
X007006Y006827D01*
X007031Y006852D01*
X007081Y006852D01*
X007106Y006827D01*
X007106Y006702D02*
X007006Y006702D01*
D27*
X004355Y007743D03*
X004356Y008788D03*
X016236Y011864D03*
X016236Y012909D03*
X020572Y021489D03*
X022188Y021417D03*
X022189Y022462D03*
X020572Y022534D03*
X025569Y023056D03*
X025570Y024101D03*
D28*
X021190Y020578D03*
X021190Y020078D03*
X021190Y019578D03*
X021190Y019078D03*
X019330Y019078D03*
X019330Y019578D03*
X019330Y020078D03*
X019330Y020578D03*
D29*
X026115Y023692D02*
X026183Y023624D01*
X026457Y023624D01*
X026525Y023692D01*
X026525Y023829D01*
X026457Y023897D01*
X026320Y024084D02*
X026320Y024358D01*
X026115Y024289D02*
X026525Y024289D01*
X026320Y024084D01*
X026183Y023897D02*
X026115Y023829D01*
X026115Y023692D01*
X029157Y022827D02*
X029157Y022759D01*
X029225Y022690D01*
X029157Y022622D01*
X029157Y022554D01*
X029225Y022485D01*
X029362Y022485D01*
X029431Y022554D01*
X029617Y022554D02*
X029686Y022485D01*
X029823Y022485D01*
X029891Y022554D01*
X029891Y022827D01*
X029823Y022896D01*
X029686Y022896D01*
X029617Y022827D01*
X029431Y022827D02*
X029362Y022896D01*
X029225Y022896D01*
X029157Y022827D01*
X029225Y022690D02*
X029294Y022690D01*
X002313Y010198D02*
X002313Y009925D01*
X002245Y009856D01*
X002108Y009856D01*
X002039Y009925D01*
X001853Y009925D02*
X001784Y009856D01*
X001647Y009856D01*
X001579Y009925D01*
X001579Y010061D01*
X001647Y010130D01*
X001716Y010130D01*
X001853Y010061D01*
X001853Y010267D01*
X001579Y010267D01*
X002039Y010198D02*
X002108Y010267D01*
X002245Y010267D01*
X002313Y010198D01*
X046163Y002472D02*
X046163Y002404D01*
X046436Y002130D01*
X046436Y002062D01*
X046623Y002130D02*
X046691Y002062D01*
X046828Y002062D01*
X046897Y002130D01*
X046897Y002404D01*
X046828Y002472D01*
X046691Y002472D01*
X046623Y002404D01*
X046436Y002472D02*
X046163Y002472D01*
X048989Y003658D02*
X048989Y003726D01*
X049058Y003794D01*
X049263Y003794D01*
X049263Y003658D01*
X049194Y003589D01*
X049058Y003589D01*
X048989Y003658D01*
X049126Y003931D02*
X049263Y003794D01*
X049126Y003931D02*
X048989Y004000D01*
X049450Y003931D02*
X049518Y004000D01*
X049655Y004000D01*
X049723Y003931D01*
X049723Y003658D01*
X049655Y003589D01*
X049518Y003589D01*
X049450Y003658D01*
X051070Y003590D02*
X051343Y003590D01*
X051207Y003590D02*
X051207Y004000D01*
X051343Y003864D01*
X051530Y003932D02*
X051599Y004000D01*
X051735Y004000D01*
X051804Y003932D01*
X051804Y003658D01*
X051735Y003590D01*
X051599Y003590D01*
X051530Y003658D01*
M02*
