G75*
G70*
%OFA0B0*%
%FSLAX24Y24*%
%IPPOS*%
%LPD*%
%AMOC8*
5,1,8,0,0,1.08239X$1,22.5*
%
%ADD10OC8,0.0867*%
%ADD11C,0.1182*%
%ADD12C,0.1104*%
%ADD13C,0.1261*%
%ADD14OC8,0.1182*%
%ADD15OC8,0.1080*%
%ADD16C,0.0769*%
%ADD17OC8,0.1320*%
%ADD18C,0.0740*%
%ADD19C,0.1580*%
%ADD20C,0.0780*%
%ADD21OC8,0.0840*%
%ADD22OC8,0.0780*%
%ADD23C,0.1340*%
%ADD24R,0.0867X0.0867*%
%ADD25C,0.0867*%
%ADD26OC8,0.1261*%
%ADD27OC8,0.0940*%
%ADD28C,0.0940*%
%ADD29C,0.0840*%
%ADD30C,0.0840*%
%ADD31C,0.1261*%
D10*
X025547Y002979D03*
X026547Y002979D03*
X026547Y003979D03*
X025547Y003979D03*
X025547Y004979D03*
X026547Y004979D03*
X026547Y005979D03*
X025547Y005979D03*
X025547Y006979D03*
X026547Y006979D03*
X026547Y007979D03*
X025547Y007979D03*
X025547Y008979D03*
X026547Y008979D03*
X026547Y009979D03*
X025547Y009979D03*
X025547Y010979D03*
X026547Y010979D03*
X026547Y011979D03*
X025547Y011979D03*
X025547Y012979D03*
X026547Y012979D03*
X026547Y013979D03*
X025547Y013979D03*
X025547Y014979D03*
X026547Y014979D03*
X026547Y015979D03*
X025547Y015979D03*
X025547Y016979D03*
X026547Y016979D03*
X026547Y017979D03*
X025547Y017979D03*
X025547Y018979D03*
X026547Y018979D03*
X026547Y019979D03*
X025547Y019979D03*
X025547Y020979D03*
X026547Y020979D03*
X026547Y021979D03*
X025547Y021979D03*
D11*
X001857Y002514D03*
X005330Y002893D03*
X034331Y023649D03*
X021959Y024448D03*
X001801Y024787D03*
X069854Y002473D03*
D12*
X065470Y001606D03*
X062470Y001606D03*
X058470Y001606D03*
X058470Y004606D03*
X058471Y005855D03*
X062471Y005855D03*
X065471Y005855D03*
X058471Y008855D03*
X058473Y010138D03*
X062473Y010138D03*
X065473Y010138D03*
X058473Y013138D03*
X058439Y014433D03*
X062439Y014433D03*
X065439Y014433D03*
X058439Y017433D03*
D13*
X068189Y015286D02*
X069370Y015286D01*
X069370Y013316D02*
X068189Y013316D01*
X068189Y011346D02*
X069370Y011346D01*
X069370Y009366D02*
X068189Y009366D01*
X068189Y007396D02*
X069370Y007396D01*
X069370Y005426D02*
X068189Y005426D01*
D14*
X047671Y011542D03*
X045575Y013952D03*
X046429Y008250D03*
X064939Y018996D03*
X043120Y020263D03*
D15*
X044620Y020263D03*
X047075Y013952D03*
X046171Y011542D03*
X047929Y008250D03*
X070429Y018166D03*
X063439Y018996D03*
X001946Y022700D03*
D16*
X045519Y017798D02*
X046208Y017798D01*
X047696Y017826D02*
X048385Y017826D01*
X049741Y017887D02*
X050430Y017887D01*
X051834Y017911D02*
X052523Y017911D01*
X052523Y016911D02*
X051834Y016911D01*
X050430Y016887D02*
X049741Y016887D01*
X048385Y016826D02*
X047696Y016826D01*
X046208Y016798D02*
X045519Y016798D01*
X045519Y015798D02*
X046208Y015798D01*
X047696Y015826D02*
X048385Y015826D01*
X049741Y015887D02*
X050430Y015887D01*
X051834Y015911D02*
X052523Y015911D01*
D17*
X057637Y021525D03*
X059233Y021450D03*
X059206Y024652D03*
X057584Y024635D03*
X046784Y024635D03*
X046837Y021525D03*
X070033Y021450D03*
X070006Y024652D03*
D18*
X043931Y018380D02*
X043271Y018380D01*
X040931Y018380D02*
X040271Y018380D01*
X040271Y017380D02*
X040931Y017380D01*
X043271Y017380D02*
X043931Y017380D01*
X043931Y016380D02*
X043271Y016380D01*
X040931Y016380D02*
X040271Y016380D01*
X040253Y014916D02*
X040913Y014916D01*
X043253Y014916D02*
X043913Y014916D01*
X043913Y013916D02*
X043253Y013916D01*
X040913Y013916D02*
X040253Y013916D01*
X040253Y012916D02*
X040913Y012916D01*
X043253Y012916D02*
X043913Y012916D01*
X044194Y011574D02*
X044854Y011574D01*
X044854Y010574D02*
X044194Y010574D01*
X041854Y010574D02*
X041194Y010574D01*
X041194Y011574D02*
X041854Y011574D01*
X041854Y009574D02*
X041194Y009574D01*
X041167Y008260D02*
X041827Y008260D01*
X044167Y008260D02*
X044827Y008260D01*
X044827Y007260D02*
X044167Y007260D01*
X041827Y007260D02*
X041167Y007260D01*
X041167Y006260D02*
X041827Y006260D01*
X044167Y006260D02*
X044827Y006260D01*
X044854Y009574D02*
X044194Y009574D01*
X036036Y009875D02*
X035376Y009875D01*
X035376Y010875D02*
X036036Y010875D01*
X032376Y010875D02*
X031716Y010875D01*
X031716Y009875D02*
X032376Y009875D01*
X032382Y008621D02*
X031722Y008621D01*
X031722Y007621D02*
X032382Y007621D01*
X035382Y007621D02*
X036042Y007621D01*
X036042Y008621D02*
X035382Y008621D01*
X035377Y006295D02*
X036037Y006295D01*
X036037Y005295D02*
X035377Y005295D01*
X032377Y005295D02*
X031717Y005295D01*
X031717Y006295D02*
X032377Y006295D01*
X032372Y003968D02*
X031712Y003968D01*
X031712Y002968D02*
X032372Y002968D01*
X035372Y002968D02*
X036032Y002968D01*
X036032Y003968D02*
X035372Y003968D01*
X045448Y002572D02*
X045448Y001912D01*
X046448Y001912D02*
X046448Y002572D01*
X047448Y002572D02*
X047448Y001912D01*
X019596Y002034D02*
X019596Y002694D01*
X018596Y002694D02*
X018596Y002034D01*
X017596Y002034D02*
X017596Y002694D01*
X016596Y002694D02*
X016596Y002034D01*
X015596Y002034D02*
X015596Y002694D01*
X014596Y002694D02*
X014596Y002034D01*
X013596Y002034D02*
X013596Y002694D01*
X012596Y002694D02*
X012596Y002034D01*
D19*
X067429Y018166D03*
D20*
X061662Y018559D02*
X061662Y019259D01*
X059662Y019059D02*
X059662Y019759D01*
X019579Y005604D02*
X019579Y004904D01*
X018579Y004904D02*
X018579Y005604D01*
X017579Y005604D02*
X017579Y004904D01*
X016579Y004904D02*
X016579Y005604D01*
X015579Y005604D02*
X015579Y004904D01*
X014579Y004904D02*
X014579Y005604D01*
X013579Y005604D02*
X013579Y004904D01*
X012579Y004904D02*
X012579Y005604D01*
X049318Y002650D02*
X049318Y001950D01*
X050318Y001950D02*
X050318Y002650D01*
X051318Y002650D02*
X051318Y001950D01*
X052318Y001950D02*
X052318Y002650D01*
D21*
X055000Y003717D03*
X055750Y003217D03*
X057051Y003450D03*
X055750Y004217D03*
X057051Y004450D03*
X055775Y007530D03*
X057044Y007718D03*
X057044Y008718D03*
X055775Y008530D03*
X055025Y008030D03*
X055765Y011952D03*
X056998Y012107D03*
X055765Y012952D03*
X056998Y013107D03*
X055015Y012452D03*
X055747Y016199D03*
X054997Y016699D03*
X055747Y017199D03*
X057044Y017307D03*
X057044Y016307D03*
D22*
X057061Y014852D03*
X056061Y014852D03*
X056055Y010648D03*
X057055Y010648D03*
X057008Y006211D03*
X056008Y006211D03*
X056015Y001884D03*
X057015Y001884D03*
D23*
X044398Y023114D02*
X044398Y024374D01*
X042428Y024374D02*
X042428Y023114D01*
X040135Y023101D02*
X040135Y024361D01*
X038165Y024361D02*
X038165Y023101D01*
D24*
X001813Y004900D03*
D25*
X001913Y005900D03*
X001813Y006900D03*
X001913Y007900D03*
X001813Y017900D03*
X001913Y018900D03*
X001813Y019900D03*
X001913Y020900D03*
D26*
X019285Y014404D03*
X017852Y013951D03*
X020626Y015225D03*
X021921Y016065D03*
X021921Y012065D03*
X020626Y011225D03*
X019285Y010404D03*
X017852Y009951D03*
X009701Y007772D03*
X005701Y007772D03*
D27*
X004038Y010694D03*
X003038Y010694D03*
X029392Y017974D03*
X029392Y018974D03*
X029392Y019974D03*
X029392Y020974D03*
X029431Y025005D03*
X030431Y025005D03*
X031431Y025005D03*
X028431Y025005D03*
D28*
X023722Y023036D03*
X028464Y022195D03*
X031502Y022166D03*
X023722Y019354D03*
X016526Y019282D03*
X015526Y019282D03*
X011184Y005521D03*
X011198Y001950D03*
D29*
X042515Y002060D02*
X042515Y002820D01*
X043515Y002820D02*
X043515Y002060D01*
D30*
X037464Y001403D03*
X037460Y004145D03*
X027975Y006510D03*
X027869Y008718D03*
X031201Y011943D03*
X028230Y013762D03*
X028206Y016080D03*
X031113Y016353D03*
X016031Y016722D03*
X014308Y016676D03*
X002981Y015573D03*
X002973Y012741D03*
X014295Y010035D03*
X016031Y010202D03*
X003318Y006913D03*
X003388Y003738D03*
X051520Y006663D03*
X054809Y006508D03*
X054157Y004745D03*
X053962Y003228D03*
X055432Y009464D03*
X051982Y009442D03*
X053553Y013905D03*
X055083Y013873D03*
D31*
X061554Y022850D03*
X055717Y022993D03*
M02*
