G75*
G70*
%OFA0B0*%
%FSLAX24Y24*%
%IPPOS*%
%LPD*%
%AMOC8*
5,1,8,0,0,1.08239X$1,22.5*
%
%ADD10C,0.1580*%
%ADD11C,0.1143*%
%ADD12OC8,0.0940*%
%ADD13C,0.0780*%
%ADD14C,0.1080*%
%ADD15OC8,0.1080*%
%ADD16R,0.0710X0.0789*%
%ADD17R,0.2180X0.0840*%
%ADD18C,0.0595*%
%ADD19C,0.0600*%
%ADD20C,0.0820*%
%ADD21C,0.1346*%
%ADD22C,0.0513*%
%ADD23C,0.0740*%
%ADD24OC8,0.0740*%
%ADD25C,0.0940*%
%ADD26C,0.0789*%
%ADD27OC8,0.0780*%
%ADD28OC8,0.0671*%
%ADD29C,0.0671*%
%ADD30OC8,0.0840*%
%ADD31OC8,0.0640*%
%ADD32C,0.0740*%
%ADD33C,0.1380*%
%ADD34C,0.0640*%
%ADD35OC8,0.1320*%
%ADD36OC8,0.0710*%
%ADD37C,0.1080*%
%ADD38C,0.1182*%
%ADD39R,0.0940X0.0940*%
%ADD40C,0.0580*%
%ADD41C,0.0476*%
%ADD42C,0.0640*%
%ADD43R,0.0580X0.0580*%
D10*
X015429Y009831D03*
X018382Y009831D03*
X019957Y024398D03*
X012673Y024398D03*
D11*
X006646Y024384D02*
X006646Y023321D01*
X004676Y023321D02*
X004676Y024384D01*
D12*
X001605Y022064D03*
X001605Y020064D03*
X033491Y014042D03*
X037007Y013845D03*
X038634Y012720D03*
X034939Y012545D03*
X041110Y013893D03*
X042738Y012825D03*
X050324Y012145D03*
X050353Y009291D03*
X050293Y015219D03*
X047905Y018447D03*
X043766Y018800D03*
X049440Y021236D03*
D13*
X005654Y020142D02*
X005654Y019442D01*
X003654Y019942D02*
X003654Y020642D01*
D14*
X007651Y019360D03*
D15*
X009651Y019360D03*
D16*
X062993Y010971D03*
X064095Y010971D03*
X067157Y011052D03*
X068259Y011052D03*
X065500Y017651D03*
X064398Y017651D03*
X064381Y018621D03*
X065484Y018621D03*
X065483Y019650D03*
X064380Y019650D03*
X064358Y021219D03*
X065461Y021219D03*
X065459Y022382D03*
X064356Y022382D03*
X064367Y024189D03*
X065470Y024189D03*
X065472Y025378D03*
X064370Y025378D03*
D17*
X064532Y009264D03*
X068332Y009264D03*
D18*
X012440Y005294D02*
X012440Y004779D01*
X013440Y004779D02*
X013440Y005294D01*
X014440Y005294D02*
X014440Y004779D01*
X042999Y004954D02*
X042999Y005469D01*
X043999Y005469D02*
X043999Y004954D01*
X044999Y004954D02*
X044999Y005469D01*
X045999Y005469D02*
X045999Y004954D01*
X046999Y004954D02*
X046999Y005469D01*
X048280Y005502D02*
X048280Y004987D01*
X049280Y004987D02*
X049280Y005502D01*
X050280Y005502D02*
X050280Y004987D01*
X051564Y005019D02*
X051564Y005534D01*
X052564Y005534D02*
X052564Y005019D01*
X053564Y005019D02*
X053564Y005534D01*
X054564Y005534D02*
X054564Y005019D01*
X055564Y005019D02*
X055564Y005534D01*
X056564Y005534D02*
X056564Y005019D01*
X057564Y005019D02*
X057564Y005534D01*
X058564Y005534D02*
X058564Y005019D01*
X059981Y005049D02*
X059981Y005564D01*
X060981Y005564D02*
X060981Y005049D01*
X061981Y005049D02*
X061981Y005564D01*
X062981Y005564D02*
X062981Y005049D01*
X063981Y005049D02*
X063981Y005564D01*
X064981Y005564D02*
X064981Y005049D01*
X065981Y005049D02*
X065981Y005564D01*
X066981Y005564D02*
X066981Y005049D01*
X074627Y004879D02*
X074627Y005394D01*
X075627Y005394D02*
X075627Y004879D01*
X076627Y004879D02*
X076627Y005394D01*
X077627Y005394D02*
X077627Y004879D01*
X078627Y004879D02*
X078627Y005394D01*
X079838Y005371D02*
X079838Y004856D01*
X080838Y004856D02*
X080838Y005371D01*
X081838Y005371D02*
X081838Y004856D01*
X081813Y016511D02*
X081813Y017025D01*
X080813Y017025D02*
X080813Y016511D01*
X079813Y016511D02*
X079813Y017025D01*
X078592Y017012D02*
X078592Y016497D01*
X077592Y016497D02*
X077592Y017012D01*
X076592Y017012D02*
X076592Y016497D01*
X075592Y016497D02*
X075592Y017012D01*
X074592Y017012D02*
X074592Y016497D01*
D19*
X066972Y007539D02*
X066972Y007019D01*
X065972Y007019D02*
X065972Y007539D01*
X064972Y007539D02*
X064972Y007019D01*
X063972Y007019D02*
X063972Y007539D01*
X062972Y007539D02*
X062972Y007019D01*
X061972Y007019D02*
X061972Y007539D01*
X060972Y007539D02*
X060972Y007019D01*
X059972Y007019D02*
X059972Y007539D01*
D20*
X008409Y008093D03*
X007475Y008093D03*
X006587Y008093D03*
X005653Y008093D03*
D21*
X004747Y007148D03*
X009314Y007148D03*
D22*
X007917Y007109D03*
X006145Y007109D03*
D23*
X033340Y017849D03*
X036800Y017851D03*
X040222Y017845D03*
D24*
X038800Y017851D03*
X042222Y017845D03*
X035340Y017849D03*
X035340Y020849D03*
X036800Y020851D03*
X038800Y020851D03*
X040222Y020845D03*
X042222Y020845D03*
X033340Y020849D03*
D25*
X034085Y016579D03*
X037918Y016592D03*
X042023Y016564D03*
X079854Y013754D03*
X080854Y013754D03*
X081025Y025023D03*
X080025Y025023D03*
D26*
X041023Y016564D03*
X036918Y016592D03*
X033085Y016579D03*
D27*
X035086Y016565D03*
X036086Y016565D03*
X039065Y016583D03*
X040065Y016583D03*
X043074Y016508D03*
X044074Y016508D03*
X050293Y016719D03*
X046405Y018447D03*
X049440Y019736D03*
X043766Y020300D03*
X042738Y014325D03*
X038634Y014220D03*
X034939Y014045D03*
X033491Y012542D03*
X037007Y012345D03*
X041110Y012393D03*
X050324Y013645D03*
X050353Y010791D03*
D28*
X044306Y014998D03*
X039946Y015212D03*
X035945Y015189D03*
D29*
X035245Y015189D03*
X039246Y015212D03*
X043606Y014998D03*
D30*
X039176Y010586D03*
X039171Y008508D03*
X039159Y006439D03*
X033159Y006439D03*
X033171Y008508D03*
X033176Y010586D03*
D31*
X040997Y010771D03*
X043997Y010771D03*
X045626Y010704D03*
X045626Y009704D03*
X043997Y009771D03*
X040997Y009771D03*
X040997Y008771D03*
X043997Y008771D03*
X045626Y008704D03*
X048626Y008704D03*
X048626Y009704D03*
X048626Y010704D03*
X048630Y011768D03*
X048630Y012768D03*
X048630Y013768D03*
X048635Y014835D03*
X048635Y015835D03*
X048635Y016835D03*
X045635Y016835D03*
X045635Y015835D03*
X045635Y014835D03*
X045630Y013768D03*
X045630Y012768D03*
X045630Y011768D03*
X052024Y012144D03*
X052024Y013144D03*
X052024Y014144D03*
X052025Y015210D03*
X052025Y016210D03*
X052025Y017210D03*
X052020Y018269D03*
X052020Y019269D03*
X052020Y020269D03*
X055020Y020269D03*
X055020Y019269D03*
X055020Y018269D03*
X055025Y017210D03*
X055025Y016210D03*
X055025Y015210D03*
X055024Y014144D03*
X055024Y013144D03*
X055024Y012144D03*
X055018Y011072D03*
X055018Y010072D03*
X055018Y009072D03*
X052018Y009072D03*
X052018Y010072D03*
X052018Y011072D03*
D32*
X029145Y009870D02*
X029145Y009210D01*
X028145Y009210D02*
X028145Y009870D01*
X027145Y009870D02*
X027145Y009210D01*
X027141Y015156D02*
X027141Y015816D01*
X028141Y015816D02*
X028141Y015156D01*
X029141Y015156D02*
X029141Y015816D01*
X029193Y021144D02*
X029193Y021804D01*
X028193Y021804D02*
X028193Y021144D01*
X027193Y021144D02*
X027193Y021804D01*
D33*
X028079Y023663D03*
X028069Y017677D03*
X028074Y011770D03*
D34*
X045280Y019939D02*
X045280Y020499D01*
X046280Y020499D02*
X046280Y019939D01*
X047280Y019939D02*
X047280Y020499D01*
X049451Y023179D02*
X050011Y023179D01*
X051322Y023175D02*
X051882Y023175D01*
X053146Y023168D02*
X053706Y023168D01*
X054976Y023149D02*
X055536Y023149D01*
X055536Y024149D02*
X054976Y024149D01*
X053706Y024168D02*
X053146Y024168D01*
X051882Y024175D02*
X051322Y024175D01*
X050011Y024179D02*
X049451Y024179D01*
X049451Y025179D02*
X050011Y025179D01*
X051322Y025175D02*
X051882Y025175D01*
X053146Y025168D02*
X053706Y025168D01*
X054976Y025149D02*
X055536Y025149D01*
D35*
X056887Y024810D03*
X056853Y021918D03*
X056789Y019023D03*
X067589Y019023D03*
X067653Y021918D03*
X070003Y021964D03*
X067687Y024810D03*
X070003Y011164D03*
D36*
X051984Y021422D03*
X050984Y021422D03*
D37*
X047402Y023376D02*
X047402Y024376D01*
X045432Y024376D02*
X045432Y023376D01*
X043472Y023376D02*
X043472Y024376D01*
X041502Y024376D02*
X041502Y023376D01*
X039522Y023376D02*
X039522Y024376D01*
X037552Y024376D02*
X037552Y023376D01*
X035592Y023376D02*
X035592Y024376D01*
X033622Y024376D02*
X033622Y023376D01*
D38*
X001970Y024621D03*
X001807Y005187D03*
X070026Y005161D03*
X072944Y005454D03*
X081187Y007997D03*
X072944Y016922D03*
X081031Y019462D03*
X070146Y024962D03*
D39*
X082025Y025023D03*
X081854Y013754D03*
D40*
X070318Y009716D03*
X066580Y009335D03*
X064400Y010041D03*
X066215Y010655D03*
X061667Y010957D03*
X060977Y011641D03*
X060526Y011130D03*
X059995Y012208D03*
X057896Y013641D03*
X057226Y013850D03*
X056490Y014305D03*
X058320Y014339D03*
X059262Y014762D03*
X058340Y015101D03*
X054120Y016381D03*
X056260Y016739D03*
X061932Y017879D03*
X063933Y016812D03*
X065527Y016762D03*
X067497Y017016D03*
X064932Y015156D03*
X063963Y014552D03*
X067988Y013879D03*
X068275Y013337D03*
X068284Y012460D03*
X061234Y008812D03*
X059291Y008917D03*
X057979Y008493D03*
X057510Y008942D03*
X056296Y010052D03*
X053258Y009813D03*
X051247Y010403D03*
X051094Y008584D03*
X052064Y008172D03*
X053488Y008401D03*
X057347Y007614D03*
X057430Y006919D03*
X059289Y006474D03*
X062795Y008174D03*
X068310Y007150D03*
X054487Y006921D03*
X052907Y006595D03*
X054156Y006130D03*
X050976Y006938D03*
X048288Y006605D03*
X045461Y006458D03*
X041617Y006715D03*
X040384Y006377D03*
X041109Y005855D03*
X041567Y005046D03*
X035641Y007610D03*
X032042Y007602D03*
X027701Y007455D03*
X027611Y006304D03*
X031049Y005543D03*
X023188Y004957D03*
X021749Y004921D03*
X019454Y006181D03*
X017182Y006190D03*
X022543Y007418D03*
X025592Y009544D03*
X037784Y009487D03*
X040150Y008020D03*
X038290Y011568D03*
X043962Y012440D03*
X048016Y015293D03*
X046716Y015929D03*
X046952Y016991D03*
X052803Y019478D03*
X054323Y019252D03*
X053816Y021058D03*
X047728Y022162D03*
X044415Y022279D03*
X046496Y025267D03*
X059087Y025070D03*
X060890Y025184D03*
X062508Y025451D03*
X062749Y022448D03*
X060696Y022224D03*
X060770Y020117D03*
X062763Y019779D03*
X032002Y017092D03*
X022040Y017542D03*
X013367Y015946D03*
X009035Y014814D03*
X004400Y013299D03*
X003516Y012285D03*
X005642Y011333D03*
X010754Y012510D03*
X011398Y007225D03*
X009943Y004895D03*
X004077Y004920D03*
X008337Y018412D03*
X011920Y018177D03*
X001944Y018413D03*
X031803Y021119D03*
D41*
X003665Y007517D03*
X007059Y006619D03*
X023997Y006888D03*
X038373Y005454D03*
D42*
X011428Y005548D03*
D43*
X072292Y007241D03*
X074254Y007440D03*
X075948Y007266D03*
X078101Y007222D03*
X081723Y009808D03*
X075456Y009994D03*
X077599Y012190D03*
X080313Y012889D03*
X072647Y013933D03*
X081650Y017933D03*
X075590Y020227D03*
X074319Y018755D03*
X072408Y018549D03*
X081724Y021170D03*
X077579Y023581D03*
X072639Y025006D03*
M02*
