%
M48
M72
T01C0.0315
T02C0.0320
T03C0.0354
T04C0.0360
T05C0.0394
T06C0.0400
T07C0.0433
T08C0.0470
T09C0.0472
T10C0.0520
T11C0.0551
T12C0.1102
%
T01
X5068Y2159
X7027Y1787
X8027Y1787
X9027Y1787
X23167Y6587
X27425Y5076
X29359Y3445
X36846Y1976
X41328Y3612
X44452Y3074
X45988Y1809
X46988Y1809
X47988Y1809
X48988Y1809
X49988Y1809
X50988Y1809
X51988Y1809
X52988Y1809
X54518Y1514
X55938Y2059
X53855Y2542
X45037Y6465
X41647Y6412
X40682Y6494
X38609Y6979
X34256Y6679
X30129Y7141
X28746Y8460
X31890Y10276
X29318Y10453
X35652Y12529
X32245Y13575
X29262Y12715
X39923Y12218
X42340Y12653
X48632Y11649
X49267Y11677
X49921Y11647
X50924Y11668
X49319Y10805
X48487Y10309
X49613Y9747
X50034Y9230
X48153Y9045
X47119Y8054
X49232Y7274
X49872Y6674
X50668Y7175
X51421Y7158
X52030Y8073
X52389Y12540
X48598Y13968
X50579Y14415
X50784Y16708
X58257Y14313
X13910Y7473
X3642Y8172
T02
X46031Y4011
X47031Y4011
X48031Y4011
X49031Y4011
X50031Y4011
X51031Y4011
X52031Y4011
X53031Y4011
T03
X64447Y2072
X65447Y2072
X66447Y2072
X64759Y4598
X64759Y5598
X64759Y6598
X64732Y8991
X64732Y9991
X64732Y10991
X64689Y13409
X64689Y14409
X64689Y15409
X21757Y12461
X13883Y12461
T04
X1464Y16081
X1464Y18081
X62461Y14621
X62461Y13121
X62447Y11448
X62447Y9948
X62455Y7701
X62455Y6201
X62462Y3653
X62462Y2153
T05
X40782Y10783
X38420Y11571
X36650Y11570
X34287Y10783
X31925Y11570
X30167Y11582
X27805Y10795
X25442Y11582
X25642Y8861
X30445Y8861
X31233Y6499
X30445Y4137
X25642Y4137
X43144Y11571
X43144Y16374
X38420Y16374
X36650Y16373
X31925Y16373
X30167Y16385
X25442Y16385
T06
X44807Y9847
X45807Y9847
X45807Y8847
X44807Y8847
X44807Y7847
X45807Y7847
X40607Y1849
X39607Y1749
X38607Y1849
X41607Y1749
X28607Y1749
X27607Y1849
X26607Y1749
X25607Y1849
X10814Y5686
X8814Y5686
T07
X9661Y18372
X10261Y21372
X66936Y12080
X69138Y12045
X69738Y15045
X67536Y15080
X67511Y8828
X69742Y8822
X69142Y5822
X66911Y5828
T08
X55480Y18367
X57005Y18495
X53994Y21300
X55590Y21369
X66390Y21369
X67805Y18495
X44680Y18367
X43194Y21300
T09
X39504Y20170
X37534Y20170
X35574Y20170
X33604Y20170
X31624Y20170
X29654Y20170
X27694Y20170
X25724Y20170
T10
X7114Y20227
X5144Y20227
X43856Y1732
T11
X19483Y5337
X16530Y5337
X13774Y19904
X21058Y19904
T12
X1745Y2045
X1665Y21290
X70002Y21232
X69972Y1906
M30
