G75*
G70*
%OFA0B0*%
%FSLAX24Y24*%
%IPPOS*%
%LPD*%
%AMOC8*
5,1,8,0,0,1.08239X$1,22.5*
%
%ADD10C,0.1580*%
%ADD11C,0.1143*%
%ADD12OC8,0.0940*%
%ADD13C,0.0780*%
%ADD14C,0.1080*%
%ADD15OC8,0.1080*%
%ADD16R,0.1080X0.1080*%
%ADD17R,0.0710X0.0789*%
%ADD18R,0.0671X0.0671*%
%ADD19R,0.0560X0.0960*%
%ADD20R,0.1497X0.0946*%
%ADD21R,0.0631X0.0710*%
%ADD22R,0.0671X0.0277*%
%ADD23R,0.0277X0.0671*%
%ADD24R,0.0789X0.0710*%
%ADD25C,0.0595*%
%ADD26C,0.0600*%
%ADD27OC8,0.0780*%
%ADD28C,0.0640*%
%ADD29OC8,0.1320*%
%ADD30C,0.1080*%
%ADD31R,0.0440X0.0780*%
%ADD32C,0.1261*%
%ADD33R,0.0820X0.0820*%
%ADD34C,0.0820*%
%ADD35R,0.0434X0.0395*%
%ADD36R,0.0867X0.0710*%
%ADD37C,0.1182*%
%ADD38R,0.0678X0.0781*%
%ADD39OC8,0.0820*%
%ADD40C,0.0580*%
%ADD41C,0.0640*%
%ADD42C,0.0555*%
D10*
X016530Y005337D03*
X019483Y005337D03*
X021058Y019904D03*
X013774Y019904D03*
D11*
X007114Y019696D02*
X007114Y020759D01*
X005144Y020759D02*
X005144Y019696D01*
D12*
X001464Y018081D03*
X001464Y016081D03*
X062461Y014621D03*
X062447Y011448D03*
X062455Y007701D03*
X062462Y003653D03*
D13*
X066561Y005828D02*
X067261Y005828D01*
X068792Y005822D02*
X069492Y005822D01*
X069392Y008822D02*
X070092Y008822D01*
X067861Y008828D02*
X067161Y008828D01*
X067286Y012080D02*
X066586Y012080D01*
X068788Y012045D02*
X069488Y012045D01*
X069388Y015045D02*
X070088Y015045D01*
X067886Y015080D02*
X067186Y015080D01*
X010611Y021372D02*
X009911Y021372D01*
X010011Y018372D02*
X009311Y018372D01*
D14*
X025442Y016385D03*
X030167Y016385D03*
X031925Y016373D03*
X036650Y016373D03*
X038420Y016374D03*
X043144Y016374D03*
X043144Y011571D03*
X040782Y010783D03*
X038420Y011571D03*
X036650Y011570D03*
X034287Y010783D03*
X031925Y011570D03*
X030167Y011582D03*
X027805Y010795D03*
X025442Y011582D03*
X025642Y008861D03*
X030445Y008861D03*
X031233Y006499D03*
X030445Y004137D03*
X025642Y004137D03*
X010814Y005686D03*
D15*
X008814Y005686D03*
X043856Y001732D03*
D16*
X010760Y009014D03*
X009158Y009014D03*
D17*
X009427Y010635D03*
X010530Y010635D03*
X010484Y013086D03*
X009382Y013086D03*
X036082Y006807D03*
X037184Y006807D03*
X042379Y006832D03*
X043481Y006832D03*
X047294Y006819D03*
X048397Y006819D03*
X043462Y003421D03*
X042360Y003421D03*
X037244Y003431D03*
X036142Y003431D03*
X044841Y011831D03*
X045943Y011831D03*
X051776Y015158D03*
X052879Y015158D03*
X052888Y016088D03*
X051786Y016088D03*
D18*
X051629Y014312D03*
X053007Y014312D03*
X010605Y011837D03*
X009227Y011837D03*
X002392Y013092D03*
X002392Y014470D03*
D19*
X006273Y013317D03*
X007183Y013317D03*
X008093Y013317D03*
D20*
X007183Y015757D03*
D21*
X004719Y015013D03*
X003617Y015013D03*
X003583Y013302D03*
X004686Y013302D03*
D22*
X047321Y011955D03*
X047321Y011640D03*
X047321Y011326D03*
X047321Y011011D03*
X047321Y010696D03*
X047321Y010381D03*
X047321Y010066D03*
X047321Y009751D03*
X047321Y009436D03*
X047321Y009121D03*
X047321Y008806D03*
X051888Y008806D03*
X051888Y009121D03*
X051888Y009436D03*
X051888Y009751D03*
X051888Y010066D03*
X051888Y010381D03*
X051888Y010696D03*
X051888Y011011D03*
X051888Y011326D03*
X051888Y011640D03*
X051888Y011955D03*
D23*
X051179Y012664D03*
X050864Y012664D03*
X050549Y012664D03*
X050234Y012664D03*
X049919Y012664D03*
X049604Y012664D03*
X049289Y012664D03*
X048974Y012664D03*
X048659Y012664D03*
X048344Y012664D03*
X048029Y012664D03*
X048029Y008097D03*
X048344Y008097D03*
X048659Y008097D03*
X048974Y008097D03*
X049289Y008097D03*
X049604Y008097D03*
X049919Y008097D03*
X050234Y008097D03*
X050549Y008097D03*
X050864Y008097D03*
X051179Y008097D03*
D24*
X055976Y007796D03*
X055976Y006693D03*
X055930Y004236D03*
X055930Y003133D03*
X055952Y010444D03*
X055952Y011547D03*
X055967Y014360D03*
X055967Y015463D03*
X048272Y015851D03*
X047074Y015853D03*
X045908Y015822D03*
X045908Y014719D03*
X047074Y014751D03*
X048272Y014749D03*
X005401Y004811D03*
X003861Y004828D03*
X003861Y003726D03*
X005401Y003709D03*
X001220Y013247D03*
X001220Y014350D03*
D25*
X007027Y002045D02*
X007027Y001530D01*
X008027Y001530D02*
X008027Y002045D01*
X009027Y002045D02*
X009027Y001530D01*
X045988Y001552D02*
X045988Y002067D01*
X046988Y002067D02*
X046988Y001552D01*
X047988Y001552D02*
X047988Y002067D01*
X048988Y002067D02*
X048988Y001552D01*
X049988Y001552D02*
X049988Y002067D01*
X050988Y002067D02*
X050988Y001552D01*
X051988Y001552D02*
X051988Y002067D01*
X052988Y002067D02*
X052988Y001552D01*
D26*
X053031Y003751D02*
X053031Y004271D01*
X052031Y004271D02*
X052031Y003751D01*
X051031Y003751D02*
X051031Y004271D01*
X050031Y004271D02*
X050031Y003751D01*
X049031Y003751D02*
X049031Y004271D01*
X048031Y004271D02*
X048031Y003751D01*
X047031Y003751D02*
X047031Y004271D01*
X046031Y004271D02*
X046031Y003751D01*
D27*
X062462Y002153D03*
X062455Y006201D03*
X062447Y009948D03*
X062461Y013121D03*
D28*
X064409Y013409D02*
X064969Y013409D01*
X064969Y014409D02*
X064409Y014409D01*
X064409Y015409D02*
X064969Y015409D01*
X065012Y010991D02*
X064452Y010991D01*
X064452Y009991D02*
X065012Y009991D01*
X065012Y008991D02*
X064452Y008991D01*
X064479Y006598D02*
X065039Y006598D01*
X065039Y005598D02*
X064479Y005598D01*
X064479Y004598D02*
X065039Y004598D01*
X065447Y002352D02*
X065447Y001792D01*
X066447Y001792D02*
X066447Y002352D01*
X064447Y002352D02*
X064447Y001792D01*
D29*
X055480Y018367D03*
X057005Y018495D03*
X053994Y021300D03*
X055590Y021369D03*
X066390Y021369D03*
X067805Y018495D03*
X044680Y018367D03*
X043194Y021300D03*
D30*
X039504Y020670D02*
X039504Y019670D01*
X037534Y019670D02*
X037534Y020670D01*
X035574Y020670D02*
X035574Y019670D01*
X033604Y019670D02*
X033604Y020670D01*
X031624Y020670D02*
X031624Y019670D01*
X029654Y019670D02*
X029654Y020670D01*
X027694Y020670D02*
X027694Y019670D01*
X025724Y019670D02*
X025724Y020670D01*
D31*
X007192Y011563D03*
X006602Y011563D03*
X006011Y011563D03*
X005420Y011563D03*
X004830Y011563D03*
X004239Y011563D03*
X003649Y011563D03*
X003058Y011563D03*
X003058Y006321D03*
X003649Y006321D03*
X004239Y006321D03*
X004830Y006321D03*
X005420Y006321D03*
X006011Y006321D03*
X006602Y006321D03*
X007192Y006321D03*
D32*
X013883Y012461D03*
X021757Y012461D03*
D33*
X025607Y001849D03*
D34*
X026607Y001749D03*
X027607Y001849D03*
X028607Y001749D03*
X038607Y001849D03*
X039607Y001749D03*
X040607Y001849D03*
X041607Y001749D03*
D35*
X049412Y015109D03*
X050239Y015483D03*
X049412Y015857D03*
D36*
X042917Y008910D03*
X042917Y007910D03*
X039161Y007910D03*
X036707Y007894D03*
X036707Y008894D03*
X039161Y008910D03*
X032951Y008894D03*
X032951Y007894D03*
X032948Y005593D03*
X032948Y004593D03*
X036704Y004593D03*
X039146Y004607D03*
X039146Y005607D03*
X036704Y005593D03*
X042902Y005607D03*
X042902Y004607D03*
D37*
X001745Y002045D03*
X001665Y021290D03*
X070002Y021232D03*
X069972Y001906D03*
D38*
X060922Y001604D03*
X060922Y002604D03*
X060922Y003604D03*
X057265Y003604D03*
X057265Y002604D03*
X057265Y001604D03*
X057237Y005449D03*
X057237Y006449D03*
X057237Y007449D03*
X060894Y007449D03*
X060894Y006449D03*
X060894Y005449D03*
X060956Y009321D03*
X060956Y010321D03*
X060956Y011321D03*
X057299Y011321D03*
X057299Y010321D03*
X057299Y009321D03*
X057256Y013231D03*
X057256Y014231D03*
X057256Y015231D03*
X060913Y015231D03*
X060913Y014231D03*
X060913Y013231D03*
D39*
X045807Y009847D03*
X044807Y009847D03*
X044807Y008847D03*
X045807Y008847D03*
X045807Y007847D03*
X044807Y007847D03*
D40*
X047119Y008054D03*
X048153Y009045D03*
X050034Y009230D03*
X049613Y009747D03*
X048487Y010309D03*
X049319Y010805D03*
X049267Y011677D03*
X048632Y011649D03*
X049921Y011647D03*
X050924Y011668D03*
X052389Y012540D03*
X048598Y013968D03*
X050579Y014415D03*
X050784Y016708D03*
X058257Y014313D03*
X042340Y012653D03*
X039923Y012218D03*
X035652Y012529D03*
X032245Y013575D03*
X029262Y012715D03*
X029318Y010453D03*
X031890Y010276D03*
X028746Y008460D03*
X030129Y007141D03*
X034256Y006679D03*
X040682Y006494D03*
X041647Y006412D03*
X045037Y006465D03*
X049232Y007274D03*
X049872Y006674D03*
X050668Y007175D03*
X051421Y007158D03*
X052030Y008073D03*
X041328Y003612D03*
X044452Y003074D03*
X036846Y001976D03*
X029359Y003445D03*
X027425Y005076D03*
X023167Y006587D03*
X013910Y007473D03*
X003642Y008172D03*
X005068Y002159D03*
X053855Y002542D03*
X055938Y002059D03*
D41*
X054518Y001514D03*
D42*
X038609Y006979D03*
M02*
