G75*
G70*
%OFA0B0*%
%FSLAX24Y24*%
%IPPOS*%
%LPD*%
%AMOC8*
5,1,8,0,0,1.08239X$1,22.5*
%
%ADD10C,0.1580*%
%ADD11C,0.1143*%
%ADD12OC8,0.0940*%
%ADD13C,0.0780*%
%ADD14C,0.1080*%
%ADD15OC8,0.1080*%
%ADD16R,0.0789X0.0710*%
%ADD17R,0.2180X0.0840*%
%ADD18C,0.0595*%
%ADD19C,0.0600*%
%ADD20OC8,0.0780*%
%ADD21C,0.0640*%
%ADD22OC8,0.1320*%
%ADD23R,0.0710X0.0789*%
%ADD24C,0.1080*%
%ADD25R,0.0950X0.0320*%
%ADD26R,0.2442X0.1064*%
%ADD27R,0.1064X0.0474*%
%ADD28R,0.0671X0.0907*%
%ADD29C,0.1261*%
%ADD30R,0.0820X0.0820*%
%ADD31C,0.0820*%
%ADD32R,0.0870X0.0510*%
%ADD33R,0.0789X0.0316*%
%ADD34R,0.0434X0.0395*%
%ADD35R,0.0631X0.0631*%
%ADD36C,0.1182*%
%ADD37OC8,0.0820*%
%ADD38C,0.0580*%
%ADD39C,0.0640*%
%ADD40C,0.0555*%
D10*
X016530Y005337D03*
X019483Y005337D03*
X021058Y019904D03*
X013774Y019904D03*
D11*
X007114Y019696D02*
X007114Y020759D01*
X005144Y020759D02*
X005144Y019696D01*
D12*
X001464Y018081D03*
X001464Y016081D03*
X062461Y014621D03*
X062447Y011448D03*
X062455Y007701D03*
X062462Y003653D03*
D13*
X066561Y005828D02*
X067261Y005828D01*
X068792Y005822D02*
X069492Y005822D01*
X069392Y008822D02*
X070092Y008822D01*
X067861Y008828D02*
X067161Y008828D01*
X067286Y012080D02*
X066586Y012080D01*
X068788Y012045D02*
X069488Y012045D01*
X069388Y015045D02*
X070088Y015045D01*
X067886Y015080D02*
X067186Y015080D01*
X010611Y021372D02*
X009911Y021372D01*
X010011Y018372D02*
X009311Y018372D01*
D14*
X025442Y016385D03*
X030167Y016385D03*
X031925Y016373D03*
X036650Y016373D03*
X038420Y016374D03*
X043144Y016374D03*
X043144Y011571D03*
X040782Y010783D03*
X038420Y011571D03*
X036650Y011570D03*
X034287Y010783D03*
X031925Y011570D03*
X030167Y011582D03*
X027805Y010795D03*
X025442Y011582D03*
X025642Y008861D03*
X030445Y008861D03*
X031233Y006499D03*
X030445Y004137D03*
X025642Y004137D03*
X010814Y005686D03*
D15*
X008814Y005686D03*
X043856Y001732D03*
D16*
X043764Y004449D03*
X044734Y004451D03*
X044734Y005553D03*
X043764Y005551D03*
X045848Y005536D03*
X045848Y006639D03*
X053237Y006368D03*
X053237Y007470D03*
X048225Y015346D03*
X048225Y016448D03*
D17*
X047575Y006369D03*
X051375Y006369D03*
D18*
X050988Y002067D02*
X050988Y001552D01*
X051988Y001552D02*
X051988Y002067D01*
X052988Y002067D02*
X052988Y001552D01*
X049988Y001552D02*
X049988Y002067D01*
X048988Y002067D02*
X048988Y001552D01*
X047988Y001552D02*
X047988Y002067D01*
X046988Y002067D02*
X046988Y001552D01*
X045988Y001552D02*
X045988Y002067D01*
X009027Y002045D02*
X009027Y001530D01*
X008027Y001530D02*
X008027Y002045D01*
X007027Y002045D02*
X007027Y001530D01*
D19*
X046031Y003751D02*
X046031Y004271D01*
X047031Y004271D02*
X047031Y003751D01*
X048031Y003751D02*
X048031Y004271D01*
X049031Y004271D02*
X049031Y003751D01*
X050031Y003751D02*
X050031Y004271D01*
X051031Y004271D02*
X051031Y003751D01*
X052031Y003751D02*
X052031Y004271D01*
X053031Y004271D02*
X053031Y003751D01*
D20*
X062462Y002153D03*
X062455Y006201D03*
X062447Y009948D03*
X062461Y013121D03*
D21*
X064409Y013409D02*
X064969Y013409D01*
X064969Y014409D02*
X064409Y014409D01*
X064409Y015409D02*
X064969Y015409D01*
X065012Y010991D02*
X064452Y010991D01*
X064452Y009991D02*
X065012Y009991D01*
X065012Y008991D02*
X064452Y008991D01*
X064479Y006598D02*
X065039Y006598D01*
X065039Y005598D02*
X064479Y005598D01*
X064479Y004598D02*
X065039Y004598D01*
X065447Y002352D02*
X065447Y001792D01*
X066447Y001792D02*
X066447Y002352D01*
X064447Y002352D02*
X064447Y001792D01*
D22*
X055480Y018367D03*
X057005Y018495D03*
X053994Y021300D03*
X055590Y021369D03*
X066390Y021369D03*
X067805Y018495D03*
X044680Y018367D03*
X043194Y021300D03*
D23*
X049211Y021608D03*
X050313Y021608D03*
X050239Y019180D03*
X049137Y019180D03*
X061242Y018662D03*
X062344Y018662D03*
X062355Y019887D03*
X061253Y019887D03*
X061234Y021162D03*
X062337Y021162D03*
X062331Y017383D03*
X061229Y017383D03*
D24*
X039504Y019670D02*
X039504Y020670D01*
X037534Y020670D02*
X037534Y019670D01*
X035574Y019670D02*
X035574Y020670D01*
X033604Y020670D02*
X033604Y019670D01*
X031624Y019670D02*
X031624Y020670D01*
X029654Y020670D02*
X029654Y019670D01*
X027694Y019670D02*
X027694Y020670D01*
X025724Y020670D02*
X025724Y019670D01*
D25*
X039816Y005911D03*
X039816Y005411D03*
X039816Y004911D03*
X039816Y004411D03*
X041876Y004411D03*
X041876Y004911D03*
X041876Y005411D03*
X041876Y005911D03*
D26*
X035350Y004814D03*
D27*
X037712Y005314D03*
X037712Y004314D03*
D28*
X023169Y003819D03*
X021751Y003819D03*
X021769Y005411D03*
X023186Y005411D03*
D29*
X021757Y012461D03*
X013883Y012461D03*
D30*
X025607Y001849D03*
D31*
X026607Y001749D03*
X027607Y001849D03*
X028607Y001749D03*
X038607Y001849D03*
X039607Y001749D03*
X040607Y001849D03*
X041607Y001749D03*
D32*
X055633Y009283D03*
X055633Y010283D03*
X055633Y011283D03*
X055633Y012283D03*
X055633Y013283D03*
X055633Y014283D03*
X055633Y015283D03*
X055633Y016283D03*
X059173Y016283D03*
X059173Y015283D03*
X059173Y014283D03*
X059173Y013283D03*
X059173Y012283D03*
X059173Y011283D03*
X059173Y010283D03*
X059173Y009283D03*
D33*
X053082Y012790D03*
X053082Y013290D03*
X053082Y013790D03*
X053082Y014290D03*
X053082Y014790D03*
X053082Y015290D03*
X053082Y015790D03*
X053082Y016290D03*
X053082Y016790D03*
X049549Y016790D03*
X049549Y016290D03*
X049549Y015790D03*
X049549Y015290D03*
X049549Y014790D03*
X049549Y014290D03*
X049549Y013790D03*
X049549Y013290D03*
X049559Y012790D03*
D34*
X041693Y012592D03*
X040866Y012218D03*
X041693Y011844D03*
X034629Y011950D03*
X033802Y012324D03*
X034629Y012698D03*
X028556Y012671D03*
X027729Y012297D03*
X028556Y011923D03*
X030126Y006109D03*
X029299Y005735D03*
X030126Y005361D03*
D35*
X028561Y006029D03*
X027065Y006029D03*
X027063Y006843D03*
X028559Y006843D03*
X028898Y013540D03*
X027402Y013540D03*
X027405Y014489D03*
X028901Y014489D03*
X033547Y014498D03*
X035043Y014498D03*
X035062Y013470D03*
X033566Y013470D03*
X040521Y013487D03*
X042017Y013487D03*
X042003Y014528D03*
X040507Y014528D03*
D36*
X001745Y002045D03*
X001665Y021290D03*
X070002Y021232D03*
X069972Y001906D03*
D37*
X045807Y007847D03*
X044807Y007847D03*
X044807Y008847D03*
X045807Y008847D03*
X045807Y009847D03*
X044807Y009847D03*
D38*
X048153Y009045D03*
X050034Y009230D03*
X049613Y009747D03*
X048487Y010309D03*
X049319Y010805D03*
X049267Y011677D03*
X048632Y011649D03*
X049921Y011647D03*
X050924Y011668D03*
X052389Y012540D03*
X048598Y013968D03*
X050579Y014415D03*
X050784Y016708D03*
X058257Y014313D03*
X042340Y012653D03*
X039923Y012218D03*
X035652Y012529D03*
X032245Y013575D03*
X029262Y012715D03*
X029318Y010453D03*
X031890Y010276D03*
X028746Y008460D03*
X030129Y007141D03*
X034256Y006679D03*
X040682Y006494D03*
X041647Y006412D03*
X045037Y006465D03*
X049232Y007274D03*
X049872Y006674D03*
X050668Y007175D03*
X051421Y007158D03*
X052030Y008073D03*
X047119Y008054D03*
X041328Y003612D03*
X044452Y003074D03*
X036846Y001976D03*
X029359Y003445D03*
X027425Y005076D03*
X023167Y006587D03*
X013910Y007473D03*
X003642Y008172D03*
X005068Y002159D03*
X053855Y002542D03*
X055938Y002059D03*
D39*
X054518Y001514D03*
D40*
X038609Y006979D03*
M02*
