G75*
G70*
%OFA0B0*%
%FSLAX24Y24*%
%IPPOS*%
%LPD*%
%AMOC8*
5,1,8,0,0,1.08239X$1,22.5*
%
%ADD10C,0.0140*%
%ADD11C,0.1500*%
%ADD12C,0.1063*%
%ADD13OC8,0.0860*%
%ADD14C,0.0700*%
%ADD15C,0.1000*%
%ADD16OC8,0.1000*%
%ADD17R,0.0709X0.0630*%
%ADD18R,0.2100X0.0760*%
%ADD19C,0.0515*%
%ADD20C,0.0520*%
%ADD21OC8,0.0700*%
%ADD22C,0.0560*%
%ADD23OC8,0.1240*%
%ADD24R,0.0630X0.0709*%
%ADD25C,0.1000*%
%ADD26R,0.0870X0.0240*%
%ADD27R,0.2362X0.0984*%
%ADD28R,0.0984X0.0394*%
%ADD29R,0.0591X0.0827*%
%ADD30C,0.1181*%
%ADD31R,0.0740X0.0740*%
%ADD32C,0.0740*%
%ADD33R,0.0790X0.0430*%
%ADD34R,0.0709X0.0236*%
%ADD35R,0.0354X0.0315*%
%ADD36R,0.0551X0.0551*%
%ADD37OC8,0.0740*%
%ADD38C,0.0860*%
%ADD39C,0.0760*%
%ADD40C,0.0660*%
%ADD41C,0.0400*%
%ADD42C,0.0160*%
%ADD43C,0.0500*%
%ADD44C,0.0320*%
%ADD45C,0.0240*%
%ADD46C,0.0120*%
%ADD47C,0.0100*%
%ADD48C,0.0500*%
%ADD49C,0.0560*%
%ADD50C,0.0475*%
D10*
X011448Y001565D02*
X011821Y001565D01*
X011821Y002126D01*
X011448Y002126D01*
X011634Y001846D02*
X011821Y001846D01*
X012092Y002032D02*
X012185Y002126D01*
X012466Y002126D01*
X012466Y001565D01*
X012185Y001565D01*
X012092Y001659D01*
X012092Y002032D01*
X012709Y002126D02*
X012895Y002126D01*
X012802Y002126D02*
X012802Y001565D01*
X012895Y001565D02*
X012709Y001565D01*
X013166Y001659D02*
X013260Y001565D01*
X013447Y001565D01*
X013540Y001659D01*
X013447Y001846D02*
X013260Y001846D01*
X013166Y001752D01*
X013166Y001659D01*
X013447Y001846D02*
X013540Y001939D01*
X013540Y002032D01*
X013447Y002126D01*
X013260Y002126D01*
X013166Y002032D01*
X014455Y002126D02*
X014829Y002126D01*
X014642Y002126D02*
X014642Y001565D01*
X015100Y001659D02*
X015100Y002032D01*
X015193Y002126D01*
X015380Y002126D01*
X015474Y002032D01*
X015474Y001659D01*
X015380Y001565D01*
X015193Y001565D01*
X015100Y001659D01*
X015745Y001659D02*
X015838Y001565D01*
X016118Y001565D01*
X016118Y002126D01*
X015838Y002126D01*
X015745Y002032D01*
X015745Y001939D01*
X015838Y001846D01*
X016118Y001846D01*
X015838Y001846D02*
X015745Y001752D01*
X015745Y001659D01*
X023369Y008302D02*
X023929Y008302D01*
X023742Y008489D01*
X023929Y008676D01*
X023369Y008676D01*
X023462Y008947D02*
X023555Y009040D01*
X023555Y009320D01*
X023649Y009320D02*
X023369Y009320D01*
X023369Y009040D01*
X023462Y008947D01*
X023742Y009040D02*
X023742Y009227D01*
X023649Y009320D01*
X023649Y009591D02*
X023742Y009685D01*
X023742Y009965D01*
X023929Y009965D02*
X023369Y009965D01*
X023369Y009685D01*
X023462Y009591D01*
X023649Y009591D01*
X023649Y010236D02*
X023742Y010329D01*
X023742Y010516D01*
X023649Y010610D01*
X023555Y010610D01*
X023555Y010236D01*
X023462Y010236D02*
X023649Y010236D01*
X023462Y010236D02*
X023369Y010329D01*
X023369Y010516D01*
X023369Y011525D02*
X023369Y011712D01*
X023369Y011618D02*
X023929Y011618D01*
X023929Y011525D02*
X023929Y011712D01*
X023742Y011955D02*
X023369Y011955D01*
X023742Y011955D02*
X023742Y012235D01*
X023649Y012328D01*
X023369Y012328D01*
X023369Y013244D02*
X023369Y013431D01*
X023369Y013337D02*
X023929Y013337D01*
X023929Y013244D02*
X023929Y013431D01*
X023742Y013673D02*
X023369Y013673D01*
X023742Y013673D02*
X023742Y013954D01*
X023649Y014047D01*
X023369Y014047D01*
X023462Y014318D02*
X023649Y014318D01*
X023742Y014411D01*
X023742Y014692D01*
X023929Y014692D02*
X023369Y014692D01*
X023369Y014411D01*
X023462Y014318D01*
X023369Y014963D02*
X023369Y015149D01*
X023369Y015056D02*
X023742Y015056D01*
X023742Y014963D01*
X023929Y015056D02*
X024023Y015056D01*
X023742Y015486D02*
X023742Y015673D01*
X023649Y015766D01*
X023369Y015766D01*
X023369Y015486D01*
X023462Y015392D01*
X023555Y015486D01*
X023555Y015766D01*
D11*
X021058Y019904D03*
X013774Y019904D03*
X016530Y005337D03*
X019483Y005337D03*
D12*
X007114Y019696D02*
X007114Y020759D01*
X005144Y020759D02*
X005144Y019696D01*
D13*
X001464Y018081D03*
X001464Y016081D03*
X062461Y014621D03*
X062447Y011448D03*
X062455Y007701D03*
X062462Y003653D03*
D14*
X063631Y005598D02*
X063631Y008764D01*
X062447Y009948D01*
X063653Y009991D02*
X063653Y011928D01*
X062461Y013121D01*
X066586Y012080D02*
X067286Y012080D01*
X068788Y012045D02*
X069488Y012045D01*
X069388Y015045D02*
X070088Y015045D01*
X067886Y015080D02*
X067186Y015080D01*
X067161Y008828D02*
X067861Y008828D01*
X069392Y008822D02*
X070092Y008822D01*
X069492Y005822D02*
X068792Y005822D01*
X067261Y005828D02*
X066561Y005828D01*
X010611Y021372D02*
X009911Y021372D01*
X010011Y018372D02*
X009311Y018372D01*
D15*
X025442Y016385D03*
X030167Y016385D03*
X031925Y016373D03*
X036650Y016373D03*
X038420Y016374D03*
X043144Y016374D03*
X043144Y011571D03*
X040782Y010783D03*
X038420Y011571D03*
X036650Y011570D03*
X034287Y010783D03*
X031925Y011570D03*
X030167Y011582D03*
X027805Y010795D03*
X025442Y011582D03*
X025642Y008861D03*
X030445Y008861D03*
X031233Y006499D03*
X030445Y004137D03*
X025642Y004137D03*
X010814Y005686D03*
D16*
X008814Y005686D03*
X043856Y001732D03*
D17*
X043764Y004449D03*
X044734Y004451D03*
X044734Y005553D03*
X043764Y005551D03*
X045848Y005536D03*
X045848Y006639D03*
X053237Y006368D03*
X053237Y007470D03*
X048225Y015346D03*
X048225Y016448D03*
D18*
X047575Y006369D03*
X051375Y006369D03*
D19*
X050988Y002067D02*
X050988Y001552D01*
X051988Y001552D02*
X051988Y002067D01*
X052988Y002067D02*
X052988Y001552D01*
X049988Y001552D02*
X049988Y002067D01*
X048988Y002067D02*
X048988Y001552D01*
X047988Y001552D02*
X047988Y002067D01*
X046988Y002067D02*
X046988Y001552D01*
X045988Y001552D02*
X045988Y002067D01*
X009027Y002045D02*
X009027Y001530D01*
X008027Y001530D02*
X008027Y002045D01*
X007027Y002045D02*
X007027Y001530D01*
D20*
X046031Y003751D02*
X046031Y004271D01*
X047031Y004271D02*
X047031Y003751D01*
X048031Y003751D02*
X048031Y004271D01*
X049031Y004271D02*
X049031Y003751D01*
X050031Y003751D02*
X050031Y004271D01*
X051031Y004271D02*
X051031Y003751D01*
X052031Y003751D02*
X052031Y004271D01*
X053031Y004271D02*
X053031Y003751D01*
D21*
X062462Y002153D03*
X062455Y006201D03*
X062447Y009948D03*
X062461Y013121D03*
D22*
X064409Y013409D02*
X064969Y013409D01*
X064689Y013409D02*
X065297Y013409D01*
X065441Y013265D01*
X064969Y014409D02*
X064409Y014409D01*
X064409Y015409D02*
X064969Y015409D01*
X065012Y010991D02*
X064452Y010991D01*
X064452Y009991D02*
X065012Y009991D01*
X065012Y008991D02*
X064452Y008991D01*
X064479Y006598D02*
X065039Y006598D01*
X065039Y005598D02*
X064479Y005598D01*
X064759Y005598D02*
X065880Y005598D01*
X065903Y005575D01*
X065039Y004598D02*
X064479Y004598D01*
X064447Y002352D02*
X064447Y001792D01*
X065447Y001792D02*
X065447Y002352D01*
X066447Y002352D02*
X066447Y001792D01*
X053237Y006368D02*
X051377Y006368D01*
X051375Y006369D01*
X047575Y006369D02*
X047563Y006382D01*
X043856Y001732D02*
X041738Y001732D01*
X041727Y001720D01*
X041635Y001720D01*
X041607Y001749D01*
X044680Y018367D02*
X044680Y019813D01*
X043194Y021300D01*
D23*
X043194Y021300D03*
X044680Y018367D03*
X053994Y021300D03*
X055590Y021369D03*
X057005Y018495D03*
X055480Y018367D03*
X066390Y021369D03*
X067805Y018495D03*
D24*
X062355Y019887D03*
X061253Y019887D03*
X061242Y018662D03*
X062344Y018662D03*
X062331Y017383D03*
X061229Y017383D03*
X050239Y019180D03*
X049137Y019180D03*
X049211Y021608D03*
X050313Y021608D03*
X061234Y021162D03*
X062337Y021162D03*
D25*
X039504Y020670D02*
X039504Y019670D01*
X037534Y019670D02*
X037534Y020670D01*
X035574Y020670D02*
X035574Y019670D01*
X033604Y019670D02*
X033604Y020670D01*
X031624Y020670D02*
X031624Y019670D01*
X029654Y019670D02*
X029654Y020670D01*
X027694Y020670D02*
X027694Y019670D01*
X025724Y019670D02*
X025724Y020670D01*
D26*
X039816Y005911D03*
X039816Y005411D03*
X039816Y004911D03*
X039816Y004411D03*
X041876Y004411D03*
X041876Y004911D03*
X041876Y005411D03*
X041876Y005911D03*
D27*
X035350Y004814D03*
D28*
X037712Y005314D03*
X037712Y004314D03*
D29*
X023169Y003819D03*
X021751Y003819D03*
X021769Y005411D03*
X023186Y005411D03*
D30*
X021757Y012461D03*
X013883Y012461D03*
D31*
X025607Y001849D03*
D32*
X026607Y001749D03*
X027607Y001849D03*
X028607Y001749D03*
X038607Y001849D03*
X039607Y001749D03*
X040607Y001849D03*
X041607Y001749D03*
D33*
X055633Y009283D03*
X055633Y010283D03*
X055633Y011283D03*
X055633Y012283D03*
X055633Y013283D03*
X055633Y014283D03*
X055633Y015283D03*
X055633Y016283D03*
X059173Y016283D03*
X059173Y015283D03*
X059173Y014283D03*
X059173Y013283D03*
X059173Y012283D03*
X059173Y011283D03*
X059173Y010283D03*
X059173Y009283D03*
D34*
X053082Y012790D03*
X053082Y013290D03*
X053082Y013790D03*
X053082Y014290D03*
X053082Y014790D03*
X053082Y015290D03*
X053082Y015790D03*
X053082Y016290D03*
X053082Y016790D03*
X049549Y016790D03*
X049549Y016290D03*
X049549Y015790D03*
X049549Y015290D03*
X049549Y014790D03*
X049549Y014290D03*
X049549Y013790D03*
X049549Y013290D03*
X049559Y012790D03*
D35*
X041693Y012592D03*
X040866Y012218D03*
X041693Y011844D03*
X034629Y011950D03*
X033802Y012324D03*
X034629Y012698D03*
X028556Y012671D03*
X027729Y012297D03*
X028556Y011923D03*
X030126Y006109D03*
X029299Y005735D03*
X030126Y005361D03*
D36*
X028561Y006029D03*
X027065Y006029D03*
X027063Y006843D03*
X028559Y006843D03*
X028898Y013540D03*
X027402Y013540D03*
X027405Y014489D03*
X028901Y014489D03*
X033547Y014498D03*
X035043Y014498D03*
X035062Y013470D03*
X033566Y013470D03*
X040521Y013487D03*
X042017Y013487D03*
X042003Y014528D03*
X040507Y014528D03*
D37*
X044807Y009847D03*
X045807Y009847D03*
X045807Y008847D03*
X044807Y008847D03*
X044807Y007847D03*
X045807Y007847D03*
D38*
X064689Y014409D02*
X066865Y014409D01*
X067536Y015080D01*
X067570Y015045D01*
X069738Y015045D01*
X066936Y012080D02*
X065750Y013265D01*
X065441Y013265D01*
X066936Y012080D02*
X069103Y012080D01*
X069138Y012045D01*
X069138Y009427D01*
X068540Y008828D01*
X067511Y008828D01*
X069138Y009427D02*
X069742Y008822D01*
X069137Y005828D02*
X066911Y005828D01*
X066658Y005575D01*
X065903Y005575D01*
X069137Y005828D02*
X069142Y005822D01*
D39*
X066727Y005506D02*
X066658Y005575D01*
X066727Y005506D02*
X066727Y004407D01*
X065736Y003417D01*
X064713Y003417D01*
X065447Y002683D01*
X065447Y002072D01*
X063726Y003417D02*
X062462Y002153D01*
X063726Y003417D02*
X064713Y003417D01*
X064759Y005598D02*
X063631Y005598D01*
X063059Y005598D01*
X062455Y006201D01*
X062447Y009948D02*
X062490Y009991D01*
X063653Y009991D01*
X064732Y009991D01*
X062461Y013121D02*
X063748Y014409D01*
X064689Y014409D01*
D40*
X029654Y020170D02*
X028660Y019176D01*
X027694Y020142D01*
X027694Y020170D01*
X025724Y020170D02*
X024552Y021343D01*
X016487Y021343D01*
X015048Y019904D01*
X013774Y019904D01*
X011729Y019904D01*
X011090Y020543D01*
X010261Y021372D01*
X011090Y020543D02*
X011090Y016641D01*
X010530Y016081D01*
X001464Y016081D01*
X001464Y018081D02*
X002998Y018081D01*
X005144Y020227D01*
X007114Y020227D02*
X008835Y018506D01*
X009527Y018506D01*
X009661Y018372D01*
X021058Y019904D02*
X022900Y019904D01*
X024402Y018402D01*
X028532Y018402D01*
X028660Y018530D01*
X028660Y019176D01*
D41*
X033547Y015347D02*
X033643Y015443D01*
X035500Y015443D01*
X036658Y014284D01*
X036658Y011579D01*
X036650Y011570D01*
X038420Y011571D02*
X039068Y012218D01*
X039923Y012218D01*
X039923Y012612D01*
X039923Y012889D01*
X040521Y013487D01*
X042017Y013487D02*
X042017Y014513D01*
X042003Y014528D01*
X042961Y015332D02*
X043144Y015149D01*
X043144Y011571D01*
X040866Y012218D02*
X039923Y012218D01*
X035062Y013470D02*
X035062Y014479D01*
X035043Y014498D01*
X033547Y014498D02*
X033547Y015347D01*
X033547Y014498D02*
X030462Y014498D01*
X030236Y014272D01*
X030236Y013927D01*
X029849Y013540D01*
X028898Y013540D01*
X028901Y014489D02*
X027402Y013540D01*
X025695Y014489D02*
X025485Y014279D01*
X025485Y011625D01*
X025442Y011582D01*
X026157Y012297D01*
X027729Y012297D01*
X030167Y011582D02*
X030445Y011304D01*
X030445Y008861D01*
X029383Y007799D01*
X028559Y006975D01*
X028559Y006843D01*
X027063Y006843D02*
X027063Y006031D01*
X027065Y006029D01*
X028561Y006029D02*
X028855Y005735D01*
X028824Y005703D01*
X028824Y004375D01*
X029062Y004137D01*
X030445Y004137D01*
X029299Y005735D02*
X028855Y005735D01*
X030167Y011582D02*
X030236Y011651D01*
X030236Y013927D01*
X032726Y012631D02*
X033566Y013470D01*
X032726Y012631D02*
X032726Y012324D01*
X033802Y012324D01*
X032726Y012324D02*
X032679Y012324D01*
X031925Y011570D01*
X036658Y014284D02*
X036902Y014528D01*
X040300Y014528D01*
X040389Y014616D01*
X040389Y015243D01*
X040478Y015332D01*
X042961Y015332D01*
X040507Y014528D02*
X040300Y014528D01*
X027405Y014489D02*
X025695Y014489D01*
X066241Y021155D02*
X066390Y021304D01*
X066390Y021369D01*
D42*
X051629Y016515D02*
X051629Y014312D01*
X051526Y014415D01*
X050579Y014415D01*
X050924Y014070D01*
X050924Y011668D01*
X049932Y011657D02*
X049921Y011647D01*
X049932Y011657D02*
X049932Y012417D01*
X049559Y012790D01*
X049549Y013290D02*
X049002Y013290D01*
X048953Y013241D01*
X048953Y011991D01*
X049267Y011677D01*
X048632Y011649D02*
X048624Y011657D01*
X048624Y013394D01*
X049021Y013790D01*
X049549Y013790D01*
X049495Y014279D02*
X048909Y014279D01*
X048598Y013968D01*
X049495Y014279D02*
X049506Y014290D01*
X049549Y014290D01*
X049549Y014292D01*
X049583Y014326D01*
X049583Y014326D01*
X049549Y015290D02*
X048280Y015290D01*
X048225Y015346D01*
X048883Y015790D02*
X048225Y016448D01*
X049549Y016290D02*
X050367Y016290D01*
X050784Y016708D01*
X050041Y017282D02*
X049549Y016790D01*
X050041Y017282D02*
X050862Y017282D01*
X051629Y016515D01*
X049549Y015790D02*
X048883Y015790D01*
X053689Y013679D02*
X053689Y013182D01*
X054604Y012267D01*
X054604Y011312D01*
X055633Y010283D01*
X054915Y008748D02*
X053525Y010138D01*
X050127Y010138D01*
X049613Y009747D02*
X049260Y009747D01*
X049236Y009722D01*
X049236Y008054D01*
X048459Y007277D01*
X045141Y007277D01*
X044974Y007110D01*
X042859Y007110D01*
X042273Y006525D01*
X042273Y006336D01*
X044406Y006336D01*
X044646Y006097D01*
X044646Y005642D01*
X044734Y005553D01*
X043764Y005551D02*
X043764Y004991D01*
X049360Y004991D01*
X049360Y006670D01*
X049872Y006674D02*
X050165Y006369D01*
X051375Y006369D01*
X051644Y006935D02*
X054321Y006935D01*
X054565Y006692D01*
X054518Y001514D01*
X055084Y001110D02*
X054731Y000756D01*
X054233Y000756D01*
X054044Y000945D01*
X028490Y000945D01*
X028384Y000782D01*
X006275Y000785D01*
X005068Y002095D01*
X005068Y002159D01*
X007027Y001787D02*
X007027Y005888D01*
X007672Y006533D01*
X009967Y006533D01*
X010814Y005686D01*
X008814Y005686D02*
X008814Y002574D01*
X008027Y001787D01*
X023167Y006587D02*
X023186Y006568D01*
X030126Y006109D02*
X030129Y006112D01*
X030129Y007141D01*
X030126Y005361D02*
X032101Y005361D01*
X039816Y005411D02*
X040733Y005411D01*
X041876Y005911D02*
X041886Y005901D01*
X042284Y005901D01*
X042273Y005912D01*
X042273Y005922D01*
X042284Y005911D01*
X042273Y005922D02*
X042273Y006336D01*
X045848Y006639D02*
X047306Y006639D01*
X047563Y006382D01*
X047575Y006369D02*
X048375Y006369D01*
X049232Y007274D01*
X050668Y007175D02*
X050668Y008610D01*
X050983Y008924D01*
X053886Y008924D01*
X055084Y007725D01*
X055084Y001110D01*
X055938Y002059D02*
X056135Y002257D01*
X056135Y008490D01*
X055877Y008748D01*
X054915Y008748D01*
X055633Y009283D02*
X053408Y011508D01*
X052440Y011508D01*
X051947Y012000D01*
X051947Y013072D01*
X051959Y013072D01*
X052132Y013244D01*
X052160Y013244D01*
X052178Y013262D01*
X053080Y013262D01*
X053082Y013264D01*
X053082Y013290D01*
X053082Y012790D02*
X052677Y012790D01*
X052389Y012540D01*
X044807Y009847D02*
X043689Y009847D01*
X041693Y011844D01*
X041374Y011526D01*
X040052Y011526D01*
X039072Y010547D01*
X036032Y010547D01*
X034629Y011950D01*
X034522Y011950D01*
X034197Y011624D01*
X033238Y011624D01*
X031890Y010276D01*
X029318Y010453D02*
X029318Y011161D01*
X028556Y011923D01*
X028556Y012671D02*
X028600Y012715D01*
X029262Y012715D01*
X034629Y012698D02*
X035483Y012698D01*
X035652Y012529D01*
X051421Y007158D02*
X051644Y006935D01*
X052633Y007470D02*
X053237Y007470D01*
X052633Y007470D02*
X052030Y008073D01*
X041328Y003612D02*
X041328Y002780D01*
X041533Y002574D01*
X045259Y002574D01*
X045949Y001885D01*
X044594Y002932D02*
X053731Y002932D01*
X053855Y002808D01*
X053855Y002542D01*
X044594Y002932D02*
X044452Y003074D01*
X059139Y016218D02*
X059173Y016253D01*
X059173Y016283D01*
D43*
X058257Y014313D03*
X052389Y012540D03*
X050924Y011668D03*
X049921Y011647D03*
X049267Y011677D03*
X048632Y011649D03*
X049319Y010805D03*
X048487Y010309D03*
X049613Y009747D03*
X050034Y009230D03*
X048153Y009045D03*
X047119Y008054D03*
X049232Y007274D03*
X049872Y006674D03*
X050668Y007175D03*
X051421Y007158D03*
X052030Y008073D03*
X045037Y006465D03*
X041647Y006412D03*
X040682Y006494D03*
X034256Y006679D03*
X030129Y007141D03*
X028746Y008460D03*
X031890Y010276D03*
X029318Y010453D03*
X035652Y012529D03*
X032245Y013575D03*
X029262Y012715D03*
X039923Y012218D03*
X042340Y012653D03*
X048598Y013968D03*
X050579Y014415D03*
X050784Y016708D03*
X023167Y006587D03*
X027425Y005076D03*
X029359Y003445D03*
X036846Y001976D03*
X041328Y003612D03*
X044452Y003074D03*
X053855Y002542D03*
X055938Y002059D03*
X013910Y007473D03*
X003642Y008172D03*
X005068Y002159D03*
D44*
X010814Y005686D02*
X011163Y005337D01*
X016530Y005337D01*
X016530Y006496D01*
X017043Y007009D01*
X020621Y007009D01*
X020953Y006677D01*
X020953Y004582D01*
X021668Y003866D01*
X024428Y003516D02*
X024934Y003010D01*
X026531Y003010D01*
X026616Y002925D02*
X026616Y001757D01*
X026808Y003548D02*
X028607Y001749D01*
X029652Y001976D02*
X027532Y004096D01*
X027532Y004969D01*
X027425Y005076D01*
X026808Y004650D02*
X026000Y005458D01*
X026000Y007580D01*
X026219Y007799D01*
X029383Y007799D01*
X023186Y006568D02*
X023186Y005411D01*
X026808Y004650D02*
X026808Y003548D01*
X024428Y003516D02*
X024428Y017356D01*
X024495Y017423D02*
X045929Y017423D01*
X046705Y016647D01*
X046705Y014640D01*
X042340Y012653D02*
X042280Y012592D01*
X041693Y012592D01*
X058257Y014313D02*
X058269Y014301D01*
X059184Y014301D01*
X059148Y014265D01*
X059129Y014265D01*
X059116Y014277D01*
X059116Y013340D01*
X059173Y013283D01*
X059173Y012283D01*
X059173Y012276D01*
X059166Y012269D01*
X059166Y011290D01*
X059173Y011283D01*
X059173Y010283D01*
X059173Y009283D01*
X059150Y014265D02*
X059148Y014265D01*
X059150Y014265D02*
X059168Y014283D01*
X059173Y014283D01*
X059140Y014316D01*
X059140Y015291D01*
X059149Y015283D01*
X059173Y015283D01*
X059139Y015317D01*
X059139Y016218D01*
X067453Y020230D02*
X067901Y019783D01*
X067453Y020230D02*
X067453Y022171D01*
X067283Y022341D01*
X049270Y022341D01*
X049211Y022282D01*
X049211Y021608D01*
X040733Y005411D02*
X040733Y003430D01*
X040099Y002796D01*
X030008Y002796D01*
X029359Y003445D01*
X029652Y001976D02*
X030927Y001976D01*
X036846Y001976D01*
X016530Y002223D02*
X016530Y005337D01*
D45*
X001498Y000495D02*
X000220Y000495D01*
X000220Y003021D01*
X000220Y003741D02*
X000220Y006267D01*
X002463Y006267D01*
X002463Y008589D01*
X002463Y009309D02*
X002463Y011631D01*
X000270Y011631D01*
X000270Y013277D01*
X000270Y013997D02*
X000270Y015642D01*
X000270Y016362D02*
X000270Y018008D01*
X000270Y018728D02*
X000270Y020373D01*
X000270Y021093D02*
X000270Y022738D01*
X000255Y022739D02*
X001533Y022739D01*
X002253Y022739D02*
X003530Y022739D01*
X004250Y022739D02*
X005527Y022739D01*
X006247Y022739D02*
X007524Y022739D01*
X008244Y022739D02*
X009521Y022739D01*
X010241Y022739D02*
X011519Y022739D01*
X012239Y022739D02*
X013516Y022739D01*
X014236Y022739D02*
X015513Y022739D01*
X016233Y022739D02*
X017510Y022739D01*
X018230Y022739D02*
X019507Y022739D01*
X020227Y022739D02*
X021505Y022739D01*
X022225Y022739D02*
X023502Y022739D01*
X024222Y022739D02*
X025499Y022739D01*
X026219Y022739D02*
X027496Y022739D01*
X028216Y022739D02*
X029493Y022739D01*
X030213Y022739D02*
X031491Y022739D01*
X032211Y022739D02*
X033488Y022739D01*
X034208Y022739D02*
X035485Y022739D01*
X036205Y022739D02*
X037482Y022739D01*
X038202Y022739D02*
X039479Y022739D01*
X040199Y022739D02*
X041476Y022739D01*
X042196Y022739D02*
X043474Y022739D01*
X044194Y022739D02*
X045471Y022739D01*
X046191Y022739D02*
X047468Y022739D01*
X048188Y022739D02*
X049465Y022739D01*
X050185Y022739D02*
X051462Y022739D01*
X052182Y022739D02*
X053460Y022739D01*
X054180Y022739D02*
X055457Y022739D01*
X056177Y022739D02*
X057454Y022739D01*
X058174Y022739D02*
X059451Y022739D01*
X060171Y022739D02*
X061448Y022739D01*
X062168Y022739D02*
X063446Y022739D01*
X064166Y022739D02*
X065443Y022739D01*
X066163Y022739D02*
X067440Y022739D01*
X068160Y022739D02*
X069437Y022739D01*
X070157Y022739D02*
X071434Y022739D01*
X071434Y021163D01*
X071434Y020443D02*
X071434Y018866D01*
X071434Y018146D02*
X071434Y016570D01*
X071434Y015850D02*
X071434Y014274D01*
X071434Y013554D02*
X071434Y011977D01*
X071434Y011257D02*
X071434Y009681D01*
X071434Y008961D02*
X071434Y007384D01*
X071434Y006664D02*
X071434Y005088D01*
X071434Y004368D02*
X071434Y002791D01*
X071434Y002071D02*
X071434Y000495D01*
X070156Y000495D01*
X069436Y000495D02*
X068158Y000495D01*
X067438Y000495D02*
X066160Y000495D01*
X065440Y000495D02*
X064162Y000495D01*
X063442Y000495D02*
X062163Y000495D01*
X061443Y000495D02*
X060165Y000495D01*
X059445Y000495D02*
X058167Y000495D01*
X057447Y000495D02*
X056169Y000495D01*
X055449Y000495D02*
X054171Y000495D01*
X053451Y000495D02*
X052173Y000495D01*
X051453Y000495D02*
X050174Y000495D01*
X049454Y000495D02*
X048176Y000495D01*
X047456Y000495D02*
X046178Y000495D01*
X045458Y000495D02*
X044180Y000495D01*
X043460Y000495D02*
X042182Y000495D01*
X041462Y000495D02*
X040184Y000495D01*
X039464Y000495D02*
X038185Y000495D01*
X037465Y000495D02*
X036187Y000495D01*
X035467Y000495D02*
X034189Y000495D01*
X033469Y000495D02*
X032191Y000495D01*
X031471Y000495D02*
X030193Y000495D01*
X029473Y000495D02*
X028194Y000495D01*
X027474Y000495D02*
X026196Y000495D01*
X025476Y000495D02*
X024198Y000495D01*
X023478Y000495D02*
X022200Y000495D01*
X021480Y000495D02*
X020202Y000495D01*
X019482Y000495D02*
X018204Y000495D01*
X017484Y000495D02*
X016205Y000495D01*
X015485Y000495D02*
X014207Y000495D01*
X013487Y000495D02*
X012209Y000495D01*
X011489Y000495D02*
X010211Y000495D01*
X009491Y000495D02*
X008213Y000495D01*
X007493Y000495D02*
X006215Y000495D01*
X005495Y000495D02*
X004216Y000495D01*
X003496Y000495D02*
X002218Y000495D01*
X016530Y002223D02*
X017671Y001081D01*
X027940Y001081D01*
X028607Y001749D01*
X021751Y003819D02*
X021704Y003866D01*
X021668Y003866D01*
X032101Y005361D02*
X032101Y006371D01*
X032409Y006679D01*
X031890Y007197D01*
X031890Y010276D01*
X031925Y011570D02*
X031925Y013256D01*
X032245Y013575D01*
X028746Y008460D02*
X025624Y011582D01*
X025442Y011582D01*
X032409Y006679D02*
X034256Y006679D01*
X035024Y005911D01*
X039816Y005911D01*
X039816Y005411D02*
X040624Y005411D01*
X040761Y005275D01*
X040761Y004486D01*
X040847Y004400D01*
X041864Y004400D01*
X041876Y004411D01*
X041876Y004449D01*
X043764Y004449D01*
X043764Y004451D01*
X044734Y004451D01*
X043764Y005411D02*
X041876Y005411D01*
X043764Y005411D02*
X043764Y005551D01*
X044731Y005553D02*
X044734Y005553D01*
X039816Y004911D02*
X038114Y004911D01*
X037712Y005314D01*
X037810Y004411D02*
X037712Y004314D01*
X037810Y004411D02*
X039816Y004411D01*
X034343Y006765D02*
X034256Y006679D01*
X054038Y013372D02*
X054983Y012427D01*
X054983Y011933D01*
X055633Y011283D01*
X055633Y012283D02*
X054849Y013067D01*
X054849Y013218D01*
X054418Y013649D01*
X054418Y014203D01*
X053830Y014790D01*
X053082Y014790D01*
X053082Y014290D02*
X053684Y014290D01*
X054038Y013936D01*
X054038Y013372D01*
X053689Y013679D02*
X053578Y013790D01*
X053082Y013790D01*
X053947Y015290D02*
X054835Y014403D01*
X054835Y014081D01*
X055633Y013283D01*
X055633Y014283D02*
X054896Y015020D01*
X054896Y015197D01*
X054302Y015790D01*
X053082Y015790D01*
X053082Y015290D02*
X053947Y015290D01*
X054903Y016013D02*
X055633Y015283D01*
X054903Y016013D02*
X054903Y016054D01*
X054667Y016290D01*
X053082Y016290D01*
X053082Y016790D02*
X055125Y016790D01*
X055633Y016283D01*
D46*
X049549Y014790D02*
X048678Y014790D01*
X048453Y014565D01*
X046779Y014565D01*
X046705Y014640D01*
X043407Y011308D02*
X043144Y011571D01*
X043407Y011308D02*
X043409Y011290D01*
X043414Y011273D01*
X043423Y011257D01*
X043434Y011243D01*
X043448Y011232D01*
X043464Y011223D01*
X043481Y011218D01*
X043499Y011216D01*
X049730Y011216D01*
X049319Y010805D01*
X049730Y011216D02*
X050784Y011216D01*
X050924Y011356D01*
X050924Y011668D01*
X050127Y010138D02*
X048986Y010138D01*
X048557Y009709D01*
X045946Y009709D01*
X045807Y009847D01*
X045307Y009572D02*
X045131Y009350D01*
X045486Y009343D02*
X046181Y009343D01*
X046449Y009075D01*
X047988Y009075D01*
X048153Y009045D01*
X049899Y009095D02*
X050034Y009230D01*
X049899Y009095D02*
X049899Y007333D01*
X049360Y006793D01*
X049360Y006670D01*
X045848Y005536D02*
X045016Y006368D01*
X045037Y006465D01*
X044349Y009350D02*
X041942Y006925D01*
X038609Y006979D01*
X040682Y006494D02*
X041565Y006494D01*
X041647Y006412D01*
X044807Y007847D02*
X045305Y008353D01*
X045324Y008351D01*
X046385Y008351D02*
X046665Y008054D01*
X047119Y008054D01*
X045486Y009343D02*
X044807Y008847D01*
X046164Y010378D02*
X046570Y009972D01*
X048149Y009972D01*
X048487Y010309D01*
X046164Y010378D02*
X045409Y010378D01*
X045307Y010280D01*
X026616Y002925D02*
X026531Y003010D01*
X026616Y001757D02*
X026607Y001749D01*
X013910Y007473D02*
X013211Y008172D01*
X003642Y008172D01*
X024428Y017356D02*
X024495Y017423D01*
X045949Y001885D02*
X045988Y001845D01*
X045988Y001809D01*
D47*
X045959Y001800D02*
X044646Y001800D01*
X044646Y001702D02*
X045581Y001702D01*
X045581Y001780D02*
X045581Y001520D01*
X045591Y001456D01*
X045610Y001395D01*
X045640Y001338D01*
X045656Y001315D01*
X044557Y001315D01*
X044646Y001405D01*
X044646Y002059D01*
X044184Y002522D01*
X043529Y002522D01*
X043309Y002302D01*
X041987Y002302D01*
X041981Y002308D01*
X041739Y002409D01*
X041476Y002409D01*
X041233Y002308D01*
X041157Y002232D01*
X040981Y002408D01*
X040739Y002509D01*
X040476Y002509D01*
X040428Y002489D01*
X040481Y002541D01*
X040481Y002541D01*
X041115Y003175D01*
X041183Y003341D01*
X041183Y003990D01*
X041946Y003990D01*
X041973Y004001D01*
X042368Y004001D01*
X042460Y004039D01*
X043135Y004039D01*
X043164Y003970D01*
X043245Y003888D01*
X043352Y003844D01*
X044176Y003844D01*
X044251Y003875D01*
X044322Y003846D01*
X045146Y003846D01*
X045253Y003890D01*
X045335Y003972D01*
X045379Y004078D01*
X045379Y004621D01*
X045602Y004621D01*
X045564Y004583D01*
X045481Y004381D01*
X045481Y003642D01*
X045564Y003440D01*
X045702Y003302D01*
X044942Y003302D01*
X044910Y003380D01*
X044758Y003532D01*
X044559Y003614D01*
X044344Y003614D01*
X044146Y003532D01*
X043994Y003380D01*
X043912Y003181D01*
X043912Y002967D01*
X043994Y002768D01*
X044146Y002616D01*
X044344Y002534D01*
X044559Y002534D01*
X044627Y002562D01*
X046754Y002562D01*
X046678Y002531D01*
X046524Y002377D01*
X046441Y002176D01*
X046441Y001443D01*
X046493Y001315D01*
X046320Y001315D01*
X046337Y001338D01*
X046366Y001395D01*
X046386Y001456D01*
X046396Y001520D01*
X046396Y001780D01*
X046017Y001780D01*
X046017Y001838D01*
X046396Y001838D01*
X046396Y002099D01*
X046386Y002162D01*
X046366Y002223D01*
X046337Y002280D01*
X046299Y002332D01*
X046254Y002378D01*
X046202Y002415D01*
X046145Y002444D01*
X046084Y002464D01*
X046020Y002474D01*
X046017Y002474D01*
X046017Y001838D01*
X045959Y001838D01*
X045959Y001780D01*
X045581Y001780D01*
X045581Y001838D02*
X045959Y001838D01*
X045959Y002474D01*
X045956Y002474D01*
X045893Y002464D01*
X045832Y002444D01*
X045775Y002415D01*
X045723Y002378D01*
X045677Y002332D01*
X045640Y002280D01*
X045610Y002223D01*
X045591Y002162D01*
X045581Y002099D01*
X045581Y001838D01*
X045581Y001899D02*
X044646Y001899D01*
X044646Y001997D02*
X045581Y001997D01*
X045581Y002096D02*
X044610Y002096D01*
X044512Y002194D02*
X045601Y002194D01*
X045649Y002293D02*
X044413Y002293D01*
X044315Y002391D02*
X045741Y002391D01*
X045959Y002391D02*
X046017Y002391D01*
X046017Y002293D02*
X045959Y002293D01*
X045959Y002194D02*
X046017Y002194D01*
X046017Y002096D02*
X045959Y002096D01*
X045959Y001997D02*
X046017Y001997D01*
X046017Y001899D02*
X045959Y001899D01*
X046017Y001800D02*
X046441Y001800D01*
X046441Y001702D02*
X046396Y001702D01*
X046396Y001603D02*
X046441Y001603D01*
X046441Y001505D02*
X046393Y001505D01*
X046369Y001406D02*
X046456Y001406D01*
X045607Y001406D02*
X044646Y001406D01*
X044646Y001505D02*
X045583Y001505D01*
X045581Y001603D02*
X044646Y001603D01*
X046396Y001899D02*
X046441Y001899D01*
X046441Y001997D02*
X046396Y001997D01*
X046396Y002096D02*
X046441Y002096D01*
X046448Y002194D02*
X046375Y002194D01*
X046328Y002293D02*
X046489Y002293D01*
X046538Y002391D02*
X046235Y002391D01*
X046637Y002490D02*
X044216Y002490D01*
X044214Y002588D02*
X040528Y002588D01*
X040430Y002490D02*
X040429Y002490D01*
X040626Y002687D02*
X044076Y002687D01*
X043987Y002785D02*
X040725Y002785D01*
X040823Y002884D02*
X043946Y002884D01*
X043912Y002982D02*
X040922Y002982D01*
X041020Y003081D02*
X043912Y003081D01*
X043912Y003179D02*
X041116Y003179D01*
X041157Y003278D02*
X043952Y003278D01*
X043992Y003376D02*
X041183Y003376D01*
X041183Y003475D02*
X044089Y003475D01*
X044246Y003573D02*
X041183Y003573D01*
X041183Y003672D02*
X045481Y003672D01*
X045481Y003770D02*
X041183Y003770D01*
X041183Y003869D02*
X043293Y003869D01*
X043166Y003967D02*
X041183Y003967D01*
X040283Y003967D02*
X038456Y003967D01*
X038450Y003952D02*
X038470Y004001D01*
X040283Y004001D01*
X040283Y003617D01*
X039913Y003246D01*
X030195Y003246D01*
X029899Y003542D01*
X029899Y003553D01*
X029890Y003575D01*
X029998Y003467D01*
X030288Y003347D01*
X030602Y003347D01*
X030893Y003467D01*
X031115Y003689D01*
X031235Y003980D01*
X031235Y004294D01*
X031115Y004584D01*
X030893Y004807D01*
X030602Y004927D01*
X030288Y004927D01*
X029998Y004807D01*
X029818Y004627D01*
X029314Y004627D01*
X029314Y005245D01*
X029397Y005245D01*
X029499Y005287D01*
X029534Y005287D01*
X029641Y005331D01*
X029722Y005413D01*
X029766Y005519D01*
X029766Y005582D01*
X029789Y005637D01*
X029789Y005703D01*
X029891Y005661D01*
X029903Y005661D01*
X029891Y005658D01*
X029857Y005638D01*
X029829Y005610D01*
X029809Y005576D01*
X029799Y005538D01*
X029799Y005389D01*
X030097Y005389D01*
X030097Y005332D01*
X029799Y005332D01*
X029799Y005183D01*
X029809Y005145D01*
X029829Y005111D01*
X029857Y005083D01*
X029891Y005063D01*
X029929Y005053D01*
X030097Y005053D01*
X030097Y005332D01*
X030155Y005332D01*
X030155Y005389D01*
X030453Y005389D01*
X030453Y005538D01*
X030443Y005576D01*
X030423Y005610D01*
X030395Y005638D01*
X030361Y005658D01*
X030349Y005661D01*
X030361Y005661D01*
X030467Y005705D01*
X030549Y005787D01*
X030593Y005893D01*
X030593Y006021D01*
X030785Y005829D01*
X031076Y005709D01*
X031390Y005709D01*
X031680Y005829D01*
X031902Y006052D01*
X032023Y006342D01*
X032023Y006656D01*
X031902Y006947D01*
X031680Y007169D01*
X031390Y007289D01*
X031076Y007289D01*
X030785Y007169D01*
X030669Y007053D01*
X030669Y007248D01*
X030587Y007446D01*
X030435Y007598D01*
X030237Y007681D01*
X030022Y007681D01*
X029912Y007635D01*
X030348Y008071D01*
X030602Y008071D01*
X030893Y008192D01*
X031115Y008414D01*
X031235Y008704D01*
X031235Y009018D01*
X031115Y009309D01*
X030935Y009488D01*
X030935Y011373D01*
X030957Y011425D01*
X030957Y011739D01*
X030836Y012030D01*
X030726Y012140D01*
X030726Y014008D01*
X031914Y014008D01*
X031787Y013881D01*
X031705Y013683D01*
X031705Y013615D01*
X031693Y013603D01*
X031578Y013488D01*
X031515Y013337D01*
X031515Y012255D01*
X031478Y012240D01*
X031256Y012018D01*
X031135Y011727D01*
X031135Y011413D01*
X031256Y011123D01*
X031478Y010900D01*
X031768Y010780D01*
X032082Y010780D01*
X032373Y010900D01*
X032595Y011123D01*
X032715Y011413D01*
X032715Y011667D01*
X032882Y011834D01*
X033900Y011834D01*
X034002Y011876D01*
X034037Y011876D01*
X034144Y011920D01*
X034225Y012002D01*
X034269Y012108D01*
X034269Y012171D01*
X034292Y012226D01*
X034292Y012292D01*
X034394Y012250D01*
X034406Y012250D01*
X034394Y012247D01*
X034360Y012227D01*
X034332Y012199D01*
X034312Y012165D01*
X034302Y012127D01*
X034302Y011978D01*
X034600Y011978D01*
X034600Y011921D01*
X034302Y011921D01*
X034302Y011772D01*
X034312Y011734D01*
X034332Y011700D01*
X034360Y011672D01*
X034394Y011652D01*
X034432Y011642D01*
X034600Y011642D01*
X034600Y011921D01*
X034658Y011921D01*
X034658Y011978D01*
X034956Y011978D01*
X034956Y012127D01*
X034946Y012165D01*
X034926Y012199D01*
X034898Y012227D01*
X034864Y012247D01*
X034852Y012250D01*
X034864Y012250D01*
X034970Y012294D01*
X035004Y012328D01*
X035151Y012328D01*
X035194Y012223D01*
X035346Y012071D01*
X035544Y011989D01*
X035759Y011989D01*
X035957Y012071D01*
X036109Y012223D01*
X036168Y012365D01*
X036168Y012206D01*
X035980Y012018D01*
X035860Y011727D01*
X035860Y011413D01*
X035980Y011123D01*
X036202Y010900D01*
X036493Y010780D01*
X036807Y010780D01*
X037097Y010900D01*
X037319Y011123D01*
X037440Y011413D01*
X037440Y011727D01*
X037319Y012018D01*
X037148Y012189D01*
X037148Y014038D01*
X040036Y014038D01*
X040067Y014006D01*
X040076Y014003D01*
X040000Y013927D01*
X039956Y013820D01*
X039956Y013614D01*
X039646Y013304D01*
X039508Y013167D01*
X039433Y012986D01*
X039433Y012708D01*
X038970Y012708D01*
X038790Y012634D01*
X038652Y012496D01*
X038517Y012361D01*
X038263Y012361D01*
X037972Y012240D01*
X037750Y012018D01*
X037630Y011728D01*
X037630Y011413D01*
X037750Y011123D01*
X037972Y010901D01*
X038263Y010781D01*
X038577Y010781D01*
X038867Y010901D01*
X039090Y011123D01*
X039210Y011413D01*
X039210Y011668D01*
X039271Y011728D01*
X039695Y011728D01*
X039816Y011678D01*
X040031Y011678D01*
X040151Y011728D01*
X040963Y011728D01*
X041066Y011771D01*
X041101Y011771D01*
X041207Y011815D01*
X041289Y011896D01*
X041333Y012003D01*
X041333Y012066D01*
X041356Y012121D01*
X041356Y012187D01*
X041458Y012145D01*
X041470Y012145D01*
X041458Y012141D01*
X041423Y012122D01*
X041395Y012094D01*
X041376Y012060D01*
X041365Y012021D01*
X041365Y011873D01*
X041664Y011873D01*
X041664Y011815D01*
X041721Y011815D01*
X041721Y011537D01*
X041889Y011537D01*
X041928Y011547D01*
X041962Y011567D01*
X041990Y011595D01*
X042010Y011629D01*
X042020Y011667D01*
X042020Y011815D01*
X041721Y011815D01*
X041721Y011873D01*
X042020Y011873D01*
X042020Y012021D01*
X042010Y012060D01*
X041990Y012094D01*
X041962Y012122D01*
X041928Y012141D01*
X041925Y012142D01*
X042163Y012142D01*
X042233Y012113D01*
X042448Y012113D01*
X042646Y012195D01*
X042654Y012203D01*
X042654Y012198D01*
X042475Y012018D01*
X042354Y011728D01*
X042354Y011413D01*
X042475Y011123D01*
X042697Y010901D01*
X042987Y010781D01*
X043302Y010781D01*
X043508Y010866D01*
X048779Y010866D01*
X048779Y010773D01*
X048594Y010849D01*
X048379Y010849D01*
X048181Y010767D01*
X048029Y010615D01*
X047947Y010417D01*
X047947Y010322D01*
X046715Y010322D01*
X046460Y010576D01*
X046362Y010675D01*
X046233Y010728D01*
X045413Y010728D01*
X045347Y010729D01*
X045343Y010728D01*
X045339Y010728D01*
X045278Y010703D01*
X045217Y010679D01*
X045214Y010676D01*
X045211Y010675D01*
X045164Y010628D01*
X045014Y010484D01*
X044963Y010367D01*
X044857Y010367D01*
X044857Y009897D01*
X044757Y009897D01*
X044757Y009797D01*
X044287Y009797D01*
X044287Y009699D01*
X044278Y009699D01*
X044150Y009646D01*
X041798Y007277D01*
X039012Y007323D01*
X038908Y007426D01*
X038714Y007507D01*
X038504Y007507D01*
X038311Y007426D01*
X038162Y007278D01*
X038082Y007084D01*
X038082Y006874D01*
X038162Y006680D01*
X038311Y006532D01*
X038504Y006452D01*
X038714Y006452D01*
X038908Y006532D01*
X038999Y006623D01*
X040143Y006604D01*
X040142Y006601D01*
X040142Y006387D01*
X040224Y006188D01*
X040231Y006181D01*
X039826Y006181D01*
X039826Y005921D01*
X040401Y005921D01*
X040401Y006026D01*
X040575Y005954D01*
X040790Y005954D01*
X040988Y006036D01*
X041096Y006144D01*
X041173Y006144D01*
X041151Y006089D01*
X041151Y005734D01*
X041181Y005661D01*
X041151Y005589D01*
X041151Y005579D01*
X041115Y005666D01*
X040988Y005793D01*
X040823Y005861D01*
X040644Y005861D01*
X040547Y005821D01*
X040401Y005821D01*
X040401Y005901D01*
X039826Y005901D01*
X039826Y005921D01*
X039806Y005921D01*
X039806Y005901D01*
X039231Y005901D01*
X039231Y005783D01*
X039216Y005777D01*
X039135Y005696D01*
X039091Y005589D01*
X039091Y005321D01*
X038494Y005321D01*
X038494Y005568D01*
X038450Y005675D01*
X038369Y005756D01*
X038262Y005800D01*
X037162Y005800D01*
X037056Y005756D01*
X036974Y005675D01*
X036930Y005568D01*
X036930Y005059D01*
X036974Y004952D01*
X037056Y004871D01*
X037162Y004827D01*
X037619Y004827D01*
X037646Y004800D01*
X037162Y004800D01*
X037056Y004756D01*
X036974Y004675D01*
X036930Y004568D01*
X036930Y004059D01*
X036974Y003952D01*
X037056Y003871D01*
X037162Y003827D01*
X038262Y003827D01*
X038369Y003871D01*
X038450Y003952D01*
X038363Y003869D02*
X040283Y003869D01*
X040283Y003770D02*
X031149Y003770D01*
X031189Y003869D02*
X037061Y003869D01*
X036968Y003967D02*
X031230Y003967D01*
X031235Y004066D02*
X034029Y004066D01*
X034005Y004076D02*
X034111Y004031D01*
X036589Y004031D01*
X036695Y004076D01*
X036777Y004157D01*
X036821Y004264D01*
X036821Y005363D01*
X036777Y005470D01*
X036695Y005552D01*
X036589Y005596D01*
X034111Y005596D01*
X034005Y005552D01*
X033923Y005470D01*
X033879Y005363D01*
X033879Y004264D01*
X033923Y004157D01*
X034005Y004076D01*
X033920Y004164D02*
X031235Y004164D01*
X031235Y004263D02*
X033879Y004263D01*
X033879Y004361D02*
X031207Y004361D01*
X031167Y004460D02*
X033879Y004460D01*
X033879Y004558D02*
X031126Y004558D01*
X031043Y004657D02*
X033879Y004657D01*
X033879Y004755D02*
X030944Y004755D01*
X030779Y004854D02*
X033879Y004854D01*
X033879Y004952D02*
X029314Y004952D01*
X029314Y004854D02*
X030112Y004854D01*
X029946Y004755D02*
X029314Y004755D01*
X029314Y004657D02*
X029848Y004657D01*
X029314Y005051D02*
X033879Y005051D01*
X033879Y005149D02*
X030444Y005149D01*
X030443Y005145D02*
X030453Y005183D01*
X030453Y005332D01*
X030155Y005332D01*
X030155Y005053D01*
X030323Y005053D01*
X030361Y005063D01*
X030395Y005083D01*
X030423Y005111D01*
X030443Y005145D01*
X030453Y005248D02*
X033879Y005248D01*
X033879Y005346D02*
X030155Y005346D01*
X030097Y005346D02*
X029656Y005346D01*
X029735Y005445D02*
X029799Y005445D01*
X029800Y005543D02*
X029766Y005543D01*
X029789Y005642D02*
X029863Y005642D01*
X030389Y005642D02*
X036961Y005642D01*
X036930Y005543D02*
X036704Y005543D01*
X036787Y005445D02*
X036930Y005445D01*
X036930Y005346D02*
X036821Y005346D01*
X036821Y005248D02*
X036930Y005248D01*
X036930Y005149D02*
X036821Y005149D01*
X036821Y005051D02*
X036934Y005051D01*
X036975Y004952D02*
X036821Y004952D01*
X036821Y004854D02*
X037097Y004854D01*
X037055Y004755D02*
X036821Y004755D01*
X036821Y004657D02*
X036967Y004657D01*
X036930Y004558D02*
X036821Y004558D01*
X036821Y004460D02*
X036930Y004460D01*
X036930Y004361D02*
X036821Y004361D01*
X036821Y004263D02*
X036930Y004263D01*
X036930Y004164D02*
X036780Y004164D01*
X036671Y004066D02*
X036930Y004066D01*
X039944Y003278D02*
X030163Y003278D01*
X030217Y003376D02*
X030064Y003376D01*
X029990Y003475D02*
X029966Y003475D01*
X029892Y003573D02*
X029891Y003573D01*
X030673Y003376D02*
X040043Y003376D01*
X040141Y003475D02*
X030900Y003475D01*
X030999Y003573D02*
X040240Y003573D01*
X040283Y003672D02*
X031097Y003672D01*
X030155Y005149D02*
X030097Y005149D01*
X030097Y005248D02*
X030155Y005248D01*
X029799Y005248D02*
X029404Y005248D01*
X029314Y005149D02*
X029808Y005149D01*
X030453Y005445D02*
X033913Y005445D01*
X033996Y005543D02*
X030452Y005543D01*
X030502Y005740D02*
X031000Y005740D01*
X030776Y005839D02*
X030571Y005839D01*
X030593Y005937D02*
X030677Y005937D01*
X031465Y005740D02*
X037040Y005740D01*
X038385Y005740D02*
X039179Y005740D01*
X039231Y005839D02*
X031690Y005839D01*
X031788Y005937D02*
X039231Y005937D01*
X039231Y005921D02*
X039806Y005921D01*
X039806Y006181D01*
X039361Y006181D01*
X039323Y006171D01*
X039289Y006151D01*
X039261Y006123D01*
X039241Y006089D01*
X039231Y006051D01*
X039231Y005921D01*
X039231Y006036D02*
X031887Y006036D01*
X031937Y006134D02*
X039271Y006134D01*
X039806Y006134D02*
X039826Y006134D01*
X039826Y006036D02*
X039806Y006036D01*
X039806Y005937D02*
X039826Y005937D01*
X040401Y005937D02*
X041151Y005937D01*
X041151Y005839D02*
X040877Y005839D01*
X041041Y005740D02*
X041151Y005740D01*
X041173Y005642D02*
X041125Y005642D01*
X040589Y005839D02*
X040401Y005839D01*
X040987Y006036D02*
X041151Y006036D01*
X041169Y006134D02*
X041086Y006134D01*
X040206Y006233D02*
X031977Y006233D01*
X032018Y006331D02*
X040165Y006331D01*
X040142Y006430D02*
X032023Y006430D01*
X032023Y006528D02*
X038320Y006528D01*
X038216Y006627D02*
X032023Y006627D01*
X031994Y006725D02*
X038144Y006725D01*
X038103Y006824D02*
X031953Y006824D01*
X031913Y006922D02*
X038082Y006922D01*
X038082Y007021D02*
X031828Y007021D01*
X031730Y007119D02*
X038096Y007119D01*
X038137Y007218D02*
X031562Y007218D01*
X030903Y007218D02*
X030669Y007218D01*
X030669Y007119D02*
X030736Y007119D01*
X030641Y007316D02*
X038200Y007316D01*
X038299Y007415D02*
X030600Y007415D01*
X030520Y007513D02*
X042032Y007513D01*
X041935Y007415D02*
X038920Y007415D01*
X039415Y007316D02*
X041837Y007316D01*
X042130Y007612D02*
X030403Y007612D01*
X030184Y007907D02*
X042424Y007907D01*
X042521Y008006D02*
X030283Y008006D01*
X030086Y007809D02*
X042326Y007809D01*
X042228Y007710D02*
X029987Y007710D01*
X030682Y008104D02*
X042619Y008104D01*
X042717Y008203D02*
X030904Y008203D01*
X031002Y008301D02*
X042815Y008301D01*
X042913Y008400D02*
X031101Y008400D01*
X031150Y008498D02*
X043010Y008498D01*
X043108Y008597D02*
X031191Y008597D01*
X031232Y008695D02*
X043206Y008695D01*
X043304Y008794D02*
X031235Y008794D01*
X031235Y008892D02*
X043402Y008892D01*
X043499Y008991D02*
X031235Y008991D01*
X031206Y009089D02*
X043597Y009089D01*
X043695Y009188D02*
X031165Y009188D01*
X031124Y009286D02*
X043793Y009286D01*
X043891Y009385D02*
X031039Y009385D01*
X030941Y009483D02*
X043988Y009483D01*
X044086Y009582D02*
X030935Y009582D01*
X030935Y009680D02*
X044232Y009680D01*
X044287Y009779D02*
X030935Y009779D01*
X030935Y009877D02*
X044757Y009877D01*
X044757Y009897D02*
X044287Y009897D01*
X044287Y010063D01*
X044592Y010367D01*
X044757Y010367D01*
X044757Y009897D01*
X044757Y009976D02*
X044857Y009976D01*
X044857Y010074D02*
X044757Y010074D01*
X044757Y010173D02*
X044857Y010173D01*
X044857Y010271D02*
X044757Y010271D01*
X044964Y010370D02*
X041466Y010370D01*
X041452Y010336D02*
X041572Y010626D01*
X041572Y010940D01*
X041452Y011231D01*
X041230Y011453D01*
X040939Y011573D01*
X040625Y011573D01*
X040335Y011453D01*
X040112Y011231D01*
X039992Y010940D01*
X039992Y010626D01*
X040112Y010336D01*
X040335Y010113D01*
X040625Y009993D01*
X040939Y009993D01*
X041230Y010113D01*
X041452Y010336D01*
X041387Y010271D02*
X044496Y010271D01*
X044397Y010173D02*
X041289Y010173D01*
X041135Y010074D02*
X044299Y010074D01*
X044287Y009976D02*
X030935Y009976D01*
X030935Y010074D02*
X033934Y010074D01*
X033840Y010113D02*
X034130Y009993D01*
X034445Y009993D01*
X034735Y010113D01*
X034957Y010335D01*
X035077Y010626D01*
X035077Y010940D01*
X034957Y011230D01*
X034735Y011452D01*
X034445Y011573D01*
X034130Y011573D01*
X033840Y011452D01*
X033618Y011230D01*
X033497Y010940D01*
X033497Y010626D01*
X033618Y010335D01*
X033840Y010113D01*
X033780Y010173D02*
X030935Y010173D01*
X030935Y010271D02*
X033682Y010271D01*
X033603Y010370D02*
X030935Y010370D01*
X030935Y010468D02*
X033563Y010468D01*
X033522Y010567D02*
X030935Y010567D01*
X030935Y010665D02*
X033497Y010665D01*
X033497Y010764D02*
X030935Y010764D01*
X030935Y010862D02*
X031570Y010862D01*
X031417Y010961D02*
X030935Y010961D01*
X030935Y011059D02*
X031319Y011059D01*
X031241Y011158D02*
X030935Y011158D01*
X030935Y011256D02*
X031200Y011256D01*
X031159Y011355D02*
X030935Y011355D01*
X030957Y011453D02*
X031135Y011453D01*
X031135Y011552D02*
X030957Y011552D01*
X030957Y011650D02*
X031135Y011650D01*
X031144Y011749D02*
X030953Y011749D01*
X030912Y011847D02*
X031185Y011847D01*
X031226Y011946D02*
X030871Y011946D01*
X030822Y012044D02*
X031282Y012044D01*
X031381Y012143D02*
X030726Y012143D01*
X030726Y012241D02*
X031481Y012241D01*
X031515Y012340D02*
X030726Y012340D01*
X030726Y012438D02*
X031515Y012438D01*
X031515Y012537D02*
X030726Y012537D01*
X030726Y012635D02*
X031515Y012635D01*
X031515Y012734D02*
X030726Y012734D01*
X030726Y012832D02*
X031515Y012832D01*
X031515Y012931D02*
X030726Y012931D01*
X030726Y013029D02*
X031515Y013029D01*
X031515Y013128D02*
X030726Y013128D01*
X030726Y013226D02*
X031515Y013226D01*
X031515Y013325D02*
X030726Y013325D01*
X030726Y013423D02*
X031551Y013423D01*
X031611Y013522D02*
X030726Y013522D01*
X030726Y013620D02*
X031705Y013620D01*
X031720Y013719D02*
X030726Y013719D01*
X030726Y013817D02*
X031761Y013817D01*
X031822Y013916D02*
X030726Y013916D01*
X029746Y012471D02*
X029746Y012263D01*
X029719Y012252D01*
X029497Y012030D01*
X029377Y011739D01*
X029377Y011425D01*
X029497Y011135D01*
X029719Y010913D01*
X029955Y010815D01*
X029955Y009488D01*
X029776Y009309D01*
X029655Y009018D01*
X029655Y008764D01*
X029286Y008395D01*
X029286Y008567D01*
X029204Y008766D01*
X029052Y008917D01*
X028853Y009000D01*
X028786Y009000D01*
X027781Y010005D01*
X027962Y010005D01*
X028252Y010125D01*
X028474Y010347D01*
X028595Y010638D01*
X028595Y010952D01*
X028474Y011242D01*
X028252Y011465D01*
X027962Y011585D01*
X027647Y011585D01*
X027357Y011465D01*
X027135Y011242D01*
X027015Y010952D01*
X027015Y010771D01*
X026232Y011553D01*
X026232Y011679D01*
X026360Y011807D01*
X027827Y011807D01*
X027929Y011849D01*
X027964Y011849D01*
X028071Y011893D01*
X028152Y011975D01*
X028196Y012081D01*
X028196Y012144D01*
X028219Y012199D01*
X028219Y012265D01*
X028321Y012223D01*
X028333Y012223D01*
X028321Y012220D01*
X028287Y012200D01*
X028259Y012172D01*
X028239Y012138D01*
X028229Y012100D01*
X028229Y011951D01*
X028527Y011951D01*
X028527Y011894D01*
X028229Y011894D01*
X028229Y011745D01*
X028239Y011707D01*
X028259Y011673D01*
X028287Y011645D01*
X028321Y011625D01*
X028359Y011615D01*
X028527Y011615D01*
X028527Y011894D01*
X028585Y011894D01*
X028585Y011951D01*
X028883Y011951D01*
X028883Y012100D01*
X028873Y012138D01*
X028853Y012172D01*
X028825Y012200D01*
X028791Y012220D01*
X028779Y012223D01*
X028791Y012223D01*
X028897Y012267D01*
X028922Y012292D01*
X028956Y012257D01*
X029155Y012175D01*
X029370Y012175D01*
X029568Y012257D01*
X029720Y012409D01*
X029746Y012471D01*
X029746Y012438D02*
X029732Y012438D01*
X029746Y012340D02*
X029651Y012340D01*
X029708Y012241D02*
X029530Y012241D01*
X029610Y012143D02*
X028870Y012143D01*
X028883Y012044D02*
X029511Y012044D01*
X029462Y011946D02*
X028585Y011946D01*
X028585Y011894D02*
X028883Y011894D01*
X028883Y011745D01*
X028873Y011707D01*
X028853Y011673D01*
X028825Y011645D01*
X028791Y011625D01*
X028753Y011615D01*
X028585Y011615D01*
X028585Y011894D01*
X028585Y011847D02*
X028527Y011847D01*
X028527Y011749D02*
X028585Y011749D01*
X028585Y011650D02*
X028527Y011650D01*
X028282Y011650D02*
X026232Y011650D01*
X026234Y011552D02*
X027567Y011552D01*
X027346Y011453D02*
X026332Y011453D01*
X026431Y011355D02*
X027247Y011355D01*
X027149Y011256D02*
X026529Y011256D01*
X026628Y011158D02*
X027100Y011158D01*
X027059Y011059D02*
X026726Y011059D01*
X026825Y010961D02*
X027018Y010961D01*
X027015Y010862D02*
X026923Y010862D01*
X028263Y011453D02*
X029377Y011453D01*
X029377Y011552D02*
X028042Y011552D01*
X028229Y011749D02*
X026302Y011749D01*
X027925Y011847D02*
X028229Y011847D01*
X028123Y011946D02*
X028527Y011946D01*
X028229Y012044D02*
X028181Y012044D01*
X028196Y012143D02*
X028242Y012143D01*
X028219Y012241D02*
X028278Y012241D01*
X028834Y012241D02*
X028994Y012241D01*
X028883Y011847D02*
X029421Y011847D01*
X029381Y011749D02*
X028883Y011749D01*
X028830Y011650D02*
X029377Y011650D01*
X029406Y011355D02*
X028362Y011355D01*
X028460Y011256D02*
X029447Y011256D01*
X029487Y011158D02*
X028509Y011158D01*
X028550Y011059D02*
X029573Y011059D01*
X029671Y010961D02*
X028591Y010961D01*
X028595Y010862D02*
X029841Y010862D01*
X029955Y010764D02*
X028595Y010764D01*
X028595Y010665D02*
X029955Y010665D01*
X029955Y010567D02*
X028565Y010567D01*
X028524Y010468D02*
X029955Y010468D01*
X029955Y010370D02*
X028484Y010370D01*
X028398Y010271D02*
X029955Y010271D01*
X029955Y010173D02*
X028300Y010173D01*
X028129Y010074D02*
X029955Y010074D01*
X029955Y009976D02*
X027810Y009976D01*
X027908Y009877D02*
X029955Y009877D01*
X029955Y009779D02*
X028007Y009779D01*
X028105Y009680D02*
X029955Y009680D01*
X029955Y009582D02*
X028204Y009582D01*
X028302Y009483D02*
X029950Y009483D01*
X029852Y009385D02*
X028401Y009385D01*
X028499Y009286D02*
X029766Y009286D01*
X029725Y009188D02*
X028598Y009188D01*
X028696Y009089D02*
X029685Y009089D01*
X029655Y008991D02*
X028875Y008991D01*
X029077Y008892D02*
X029655Y008892D01*
X029655Y008794D02*
X029176Y008794D01*
X029233Y008695D02*
X029586Y008695D01*
X029488Y008597D02*
X029274Y008597D01*
X029286Y008498D02*
X029389Y008498D01*
X029291Y008400D02*
X029286Y008400D01*
X023978Y007942D02*
X023978Y003427D01*
X024046Y003261D01*
X024552Y002756D01*
X024679Y002629D01*
X024844Y002560D01*
X026166Y002560D01*
X026166Y002241D01*
X026127Y002202D01*
X026127Y002238D01*
X026117Y002276D01*
X026097Y002311D01*
X026069Y002339D01*
X026035Y002358D01*
X025997Y002369D01*
X025657Y002369D01*
X025657Y001899D01*
X025557Y001899D01*
X025557Y002369D01*
X025218Y002369D01*
X025179Y002358D01*
X025145Y002339D01*
X025117Y002311D01*
X025098Y002276D01*
X025087Y002238D01*
X025087Y001899D01*
X017434Y001899D01*
X017335Y001997D02*
X025087Y001997D01*
X025087Y001899D02*
X025557Y001899D01*
X025657Y001899D01*
X025657Y001997D02*
X025557Y001997D01*
X025557Y001899D02*
X025557Y001799D01*
X025087Y001799D01*
X025087Y001491D01*
X017841Y001491D01*
X016980Y002352D01*
X016980Y004396D01*
X017169Y004504D01*
X017362Y004698D01*
X017499Y004935D01*
X017570Y005200D01*
X017570Y005474D01*
X017499Y005738D01*
X017362Y005975D01*
X017169Y006169D01*
X016980Y006278D01*
X016980Y006309D01*
X017230Y006559D01*
X020434Y006559D01*
X020503Y006490D01*
X020503Y004492D01*
X020571Y004327D01*
X020698Y004200D01*
X021166Y003732D01*
X021166Y003348D01*
X021210Y003242D01*
X021292Y003160D01*
X021398Y003116D01*
X022104Y003116D01*
X022211Y003160D01*
X022292Y003242D01*
X022337Y003348D01*
X022337Y004290D01*
X022292Y004397D01*
X022211Y004479D01*
X022104Y004523D01*
X021648Y004523D01*
X021463Y004708D01*
X022122Y004708D01*
X022228Y004752D01*
X022310Y004834D01*
X022354Y004940D01*
X022354Y005882D01*
X022310Y005989D01*
X022309Y005990D01*
X022309Y011767D01*
X022504Y011962D01*
X022638Y012286D01*
X022638Y012636D01*
X022504Y012960D01*
X022256Y013208D01*
X021933Y013342D01*
X021582Y013342D01*
X021259Y013208D01*
X021011Y012960D01*
X020877Y012636D01*
X020877Y012286D01*
X021011Y011962D01*
X021229Y011745D01*
X021229Y007037D01*
X021002Y007264D01*
X020876Y007390D01*
X020710Y007459D01*
X016954Y007459D01*
X016788Y007390D01*
X016275Y006877D01*
X016149Y006751D01*
X016080Y006585D01*
X016080Y006278D01*
X015891Y006169D01*
X015698Y005975D01*
X015589Y005787D01*
X011604Y005787D01*
X011604Y005843D01*
X011483Y006134D01*
X015857Y006134D01*
X015758Y006036D02*
X011524Y006036D01*
X011483Y006134D02*
X011261Y006356D01*
X010971Y006476D01*
X010657Y006476D01*
X010579Y006444D01*
X010176Y006847D01*
X010040Y006903D01*
X007598Y006903D01*
X007462Y006847D01*
X007358Y006743D01*
X006713Y006098D01*
X006657Y005962D01*
X006657Y002449D01*
X006563Y002355D01*
X006479Y002154D01*
X006479Y001421D01*
X006563Y001220D01*
X006628Y001155D01*
X006437Y001155D01*
X005608Y002055D01*
X005608Y002266D01*
X005525Y002465D01*
X005374Y002617D01*
X005175Y002699D01*
X004960Y002699D01*
X004762Y002617D01*
X004610Y002465D01*
X004528Y002266D01*
X004528Y002052D01*
X004610Y001853D01*
X004762Y001701D01*
X004960Y001619D01*
X005003Y001619D01*
X005585Y000987D01*
X003043Y000987D01*
X003141Y001093D01*
X003141Y001093D01*
X003360Y001547D01*
X003360Y001547D01*
X003435Y002045D01*
X003360Y002543D01*
X003360Y002543D01*
X003141Y002997D01*
X003141Y002997D01*
X002799Y003367D01*
X002362Y003618D01*
X001871Y003731D01*
X001369Y003693D01*
X000900Y003509D01*
X000761Y003398D01*
X000761Y005695D01*
X002557Y005707D01*
X002661Y005707D01*
X002663Y005707D01*
X002665Y005707D01*
X002760Y005748D01*
X002856Y005787D01*
X002857Y005789D01*
X002859Y005789D01*
X002932Y005863D01*
X003005Y005936D01*
X003006Y005938D01*
X003007Y005939D01*
X003046Y006035D01*
X003086Y006131D01*
X003086Y006133D01*
X003086Y006135D01*
X003086Y006238D01*
X003086Y011661D01*
X003049Y011750D01*
X003049Y011781D01*
X002968Y011976D01*
X002819Y012125D01*
X002625Y012205D01*
X000768Y012205D01*
X000768Y015759D01*
X001165Y015361D01*
X001762Y015361D01*
X001862Y015461D01*
X010654Y015461D01*
X010882Y015556D01*
X011441Y016115D01*
X011615Y016289D01*
X011710Y016517D01*
X011710Y019284D01*
X012931Y019284D01*
X012942Y019265D01*
X013136Y019071D01*
X013373Y018934D01*
X013637Y018864D01*
X013911Y018864D01*
X014176Y018934D01*
X014413Y019071D01*
X014606Y019265D01*
X014617Y019284D01*
X015171Y019284D01*
X015399Y019378D01*
X016743Y020723D01*
X020406Y020723D01*
X020225Y020542D01*
X020088Y020305D01*
X020018Y020040D01*
X020018Y019767D01*
X020088Y019502D01*
X020225Y019265D01*
X020419Y019071D01*
X020656Y018934D01*
X020921Y018864D01*
X021194Y018864D01*
X021459Y018934D01*
X021696Y019071D01*
X021890Y019265D01*
X021901Y019284D01*
X022644Y019284D01*
X023876Y018051D01*
X024050Y017877D01*
X024236Y017800D01*
X024173Y017737D01*
X024046Y017611D01*
X023978Y017445D01*
X023978Y015946D01*
X023954Y015970D01*
X023853Y016071D01*
X023720Y016126D01*
X023297Y016126D01*
X023165Y016071D01*
X023063Y015970D01*
X023009Y015838D01*
X023009Y015414D01*
X023049Y015318D01*
X023009Y015221D01*
X023009Y014891D01*
X023035Y014827D01*
X023009Y014763D01*
X023009Y014340D01*
X023054Y014229D01*
X023009Y014119D01*
X023009Y013976D01*
X023056Y013860D01*
X023009Y013745D01*
X023009Y013602D01*
X023029Y013552D01*
X023009Y013502D01*
X023009Y013172D01*
X023063Y013040D01*
X023165Y012939D01*
X023297Y012884D01*
X023440Y012884D01*
X023573Y012939D01*
X023611Y012977D01*
X023687Y012977D01*
X023725Y012939D01*
X023858Y012884D01*
X023978Y012884D01*
X023978Y012508D01*
X023954Y012532D01*
X023853Y012634D01*
X023720Y012688D01*
X023297Y012688D01*
X023165Y012634D01*
X023063Y012532D01*
X023009Y012400D01*
X023009Y012257D01*
X023056Y012142D01*
X023009Y012026D01*
X023009Y011883D01*
X023029Y011833D01*
X023009Y011783D01*
X023009Y011453D01*
X022309Y011453D01*
X022309Y011355D02*
X023050Y011355D01*
X023063Y011321D02*
X023165Y011220D01*
X023297Y011165D01*
X023440Y011165D01*
X023573Y011220D01*
X023611Y011258D01*
X023687Y011258D01*
X023725Y011220D01*
X023858Y011165D01*
X023978Y011165D01*
X023978Y010790D01*
X023954Y010813D01*
X023853Y010915D01*
X023720Y010970D01*
X023484Y010970D01*
X023352Y010915D01*
X023313Y010876D01*
X023297Y010876D01*
X023165Y010821D01*
X023063Y010720D01*
X023009Y010588D01*
X023009Y010258D01*
X023054Y010147D01*
X023009Y010037D01*
X023009Y009613D01*
X023054Y009503D01*
X023009Y009392D01*
X023009Y008969D01*
X023054Y008858D01*
X023009Y008748D01*
X023009Y008604D01*
X023056Y008489D01*
X023009Y008374D01*
X023009Y008231D01*
X023063Y008098D01*
X023165Y007997D01*
X023297Y007942D01*
X023978Y007942D01*
X023978Y007907D02*
X022309Y007907D01*
X022309Y007809D02*
X023978Y007809D01*
X023978Y007710D02*
X022309Y007710D01*
X022309Y007612D02*
X023978Y007612D01*
X023978Y007513D02*
X022309Y007513D01*
X022309Y007415D02*
X023978Y007415D01*
X023978Y007316D02*
X022309Y007316D01*
X022309Y007218D02*
X023978Y007218D01*
X023978Y007119D02*
X023293Y007119D01*
X023274Y007127D02*
X023059Y007127D01*
X022861Y007045D01*
X022709Y006893D01*
X022627Y006694D01*
X022627Y006480D01*
X022709Y006281D01*
X022736Y006254D01*
X022736Y006074D01*
X022726Y006070D01*
X022645Y005989D01*
X022601Y005882D01*
X022601Y004940D01*
X022645Y004834D01*
X022646Y004832D01*
X022646Y004415D01*
X022628Y004397D01*
X022583Y004290D01*
X022583Y003348D01*
X022628Y003242D01*
X022709Y003160D01*
X022816Y003116D01*
X023522Y003116D01*
X023628Y003160D01*
X023710Y003242D01*
X023754Y003348D01*
X023754Y004290D01*
X023726Y004358D01*
X023726Y004832D01*
X023727Y004834D01*
X023771Y004940D01*
X023771Y005882D01*
X023727Y005989D01*
X023646Y006070D01*
X023636Y006074D01*
X023636Y006309D01*
X023707Y006480D01*
X023707Y006694D01*
X023624Y006893D01*
X023472Y007045D01*
X023274Y007127D01*
X023040Y007119D02*
X022309Y007119D01*
X022309Y007021D02*
X022837Y007021D01*
X022738Y006922D02*
X022309Y006922D01*
X022309Y006824D02*
X022680Y006824D01*
X022639Y006725D02*
X022309Y006725D01*
X022309Y006627D02*
X022627Y006627D01*
X022627Y006528D02*
X022309Y006528D01*
X022309Y006430D02*
X022647Y006430D01*
X022688Y006331D02*
X022309Y006331D01*
X022309Y006233D02*
X022736Y006233D01*
X022736Y006134D02*
X022309Y006134D01*
X022309Y006036D02*
X022692Y006036D01*
X022623Y005937D02*
X022331Y005937D01*
X022354Y005839D02*
X022601Y005839D01*
X022601Y005740D02*
X022354Y005740D01*
X022354Y005642D02*
X022601Y005642D01*
X022601Y005543D02*
X022354Y005543D01*
X022354Y005445D02*
X022601Y005445D01*
X022601Y005346D02*
X022354Y005346D01*
X022354Y005248D02*
X022601Y005248D01*
X022601Y005149D02*
X022354Y005149D01*
X022354Y005051D02*
X022601Y005051D01*
X022601Y004952D02*
X022354Y004952D01*
X022318Y004854D02*
X022637Y004854D01*
X022646Y004755D02*
X022231Y004755D01*
X022230Y004460D02*
X022646Y004460D01*
X022646Y004558D02*
X021613Y004558D01*
X021514Y004657D02*
X022646Y004657D01*
X022613Y004361D02*
X022307Y004361D01*
X022337Y004263D02*
X022583Y004263D01*
X022583Y004164D02*
X022337Y004164D01*
X022337Y004066D02*
X022583Y004066D01*
X022583Y003967D02*
X022337Y003967D01*
X022337Y003869D02*
X022583Y003869D01*
X022583Y003770D02*
X022337Y003770D01*
X022337Y003672D02*
X022583Y003672D01*
X022583Y003573D02*
X022337Y003573D01*
X022337Y003475D02*
X022583Y003475D01*
X022583Y003376D02*
X022337Y003376D01*
X022307Y003278D02*
X022613Y003278D01*
X022690Y003179D02*
X022230Y003179D01*
X023647Y003179D02*
X024129Y003179D01*
X024040Y003278D02*
X023725Y003278D01*
X023754Y003376D02*
X023999Y003376D01*
X023978Y003475D02*
X023754Y003475D01*
X023754Y003573D02*
X023978Y003573D01*
X023978Y003672D02*
X023754Y003672D01*
X023754Y003770D02*
X023978Y003770D01*
X023978Y003869D02*
X023754Y003869D01*
X023754Y003967D02*
X023978Y003967D01*
X023978Y004066D02*
X023754Y004066D01*
X023754Y004164D02*
X023978Y004164D01*
X023978Y004263D02*
X023754Y004263D01*
X023726Y004361D02*
X023978Y004361D01*
X023978Y004460D02*
X023726Y004460D01*
X023726Y004558D02*
X023978Y004558D01*
X023978Y004657D02*
X023726Y004657D01*
X023726Y004755D02*
X023978Y004755D01*
X023978Y004854D02*
X023735Y004854D01*
X023771Y004952D02*
X023978Y004952D01*
X023978Y005051D02*
X023771Y005051D01*
X023771Y005149D02*
X023978Y005149D01*
X023978Y005248D02*
X023771Y005248D01*
X023771Y005346D02*
X023978Y005346D01*
X023978Y005445D02*
X023771Y005445D01*
X023771Y005543D02*
X023978Y005543D01*
X023978Y005642D02*
X023771Y005642D01*
X023771Y005740D02*
X023978Y005740D01*
X023978Y005839D02*
X023771Y005839D01*
X023749Y005937D02*
X023978Y005937D01*
X023978Y006036D02*
X023680Y006036D01*
X023636Y006134D02*
X023978Y006134D01*
X023978Y006233D02*
X023636Y006233D01*
X023645Y006331D02*
X023978Y006331D01*
X023978Y006430D02*
X023686Y006430D01*
X023707Y006528D02*
X023978Y006528D01*
X023978Y006627D02*
X023707Y006627D01*
X023694Y006725D02*
X023978Y006725D01*
X023978Y006824D02*
X023653Y006824D01*
X023595Y006922D02*
X023978Y006922D01*
X023978Y007021D02*
X023497Y007021D01*
X021229Y007119D02*
X021147Y007119D01*
X021229Y007218D02*
X021048Y007218D01*
X020950Y007316D02*
X021229Y007316D01*
X021229Y007415D02*
X020817Y007415D01*
X021229Y007513D02*
X014450Y007513D01*
X014450Y007580D02*
X014450Y007366D01*
X014368Y007167D01*
X014216Y007015D01*
X014018Y006933D01*
X013803Y006933D01*
X013604Y007015D01*
X013452Y007167D01*
X013370Y007366D01*
X013370Y007518D01*
X013066Y007822D01*
X004055Y007822D01*
X003947Y007714D01*
X003749Y007632D01*
X003534Y007632D01*
X003336Y007714D01*
X003184Y007866D01*
X003102Y008065D01*
X003102Y008279D01*
X003184Y008478D01*
X003336Y008630D01*
X003534Y008712D01*
X003749Y008712D01*
X003947Y008630D01*
X004055Y008522D01*
X013281Y008522D01*
X013410Y008469D01*
X013508Y008370D01*
X013865Y008013D01*
X014018Y008013D01*
X014216Y007931D01*
X014368Y007779D01*
X014450Y007580D01*
X014437Y007612D02*
X021229Y007612D01*
X021229Y007710D02*
X014397Y007710D01*
X014338Y007809D02*
X021229Y007809D01*
X021229Y007907D02*
X014240Y007907D01*
X014035Y008006D02*
X021229Y008006D01*
X021229Y008104D02*
X013774Y008104D01*
X013676Y008203D02*
X021229Y008203D01*
X021229Y008301D02*
X013577Y008301D01*
X013479Y008400D02*
X021229Y008400D01*
X021229Y008498D02*
X013338Y008498D01*
X013080Y007809D02*
X004042Y007809D01*
X003938Y007710D02*
X013178Y007710D01*
X013277Y007612D02*
X003086Y007612D01*
X003086Y007710D02*
X003345Y007710D01*
X003241Y007809D02*
X003086Y007809D01*
X003086Y007907D02*
X003167Y007907D01*
X003126Y008006D02*
X003086Y008006D01*
X003086Y008104D02*
X003102Y008104D01*
X003102Y008203D02*
X003086Y008203D01*
X003086Y008301D02*
X003111Y008301D01*
X003086Y008400D02*
X003151Y008400D01*
X003204Y008498D02*
X003086Y008498D01*
X003086Y008597D02*
X003303Y008597D01*
X003494Y008695D02*
X003086Y008695D01*
X003086Y008794D02*
X021229Y008794D01*
X021229Y008892D02*
X003086Y008892D01*
X003086Y008991D02*
X021229Y008991D01*
X021229Y009089D02*
X003086Y009089D01*
X003086Y009188D02*
X021229Y009188D01*
X021229Y009286D02*
X003086Y009286D01*
X003086Y009385D02*
X021229Y009385D01*
X021229Y009483D02*
X003086Y009483D01*
X003086Y009582D02*
X021229Y009582D01*
X021229Y009680D02*
X003086Y009680D01*
X003086Y009779D02*
X021229Y009779D01*
X021229Y009877D02*
X003086Y009877D01*
X003086Y009976D02*
X021229Y009976D01*
X021229Y010074D02*
X003086Y010074D01*
X003086Y010173D02*
X021229Y010173D01*
X021229Y010271D02*
X003086Y010271D01*
X003086Y010370D02*
X021229Y010370D01*
X021229Y010468D02*
X003086Y010468D01*
X003086Y010567D02*
X021229Y010567D01*
X021229Y010665D02*
X003086Y010665D01*
X003086Y010764D02*
X021229Y010764D01*
X021229Y010862D02*
X003086Y010862D01*
X003086Y010961D02*
X021229Y010961D01*
X021229Y011059D02*
X003086Y011059D01*
X003086Y011158D02*
X021229Y011158D01*
X021229Y011256D02*
X003086Y011256D01*
X003086Y011355D02*
X021229Y011355D01*
X021229Y011453D02*
X003086Y011453D01*
X003086Y011552D02*
X021229Y011552D01*
X021229Y011650D02*
X003086Y011650D01*
X003049Y011749D02*
X013681Y011749D01*
X013645Y011758D02*
X013739Y011733D01*
X013835Y011721D01*
X013845Y011721D01*
X013845Y012423D01*
X013143Y012423D01*
X013143Y012413D01*
X013155Y012316D01*
X013181Y012223D01*
X013218Y012133D01*
X013266Y012049D01*
X013325Y011972D01*
X013394Y011903D01*
X013471Y011844D01*
X013555Y011796D01*
X013645Y011758D01*
X013467Y011847D02*
X003022Y011847D01*
X002981Y011946D02*
X013351Y011946D01*
X013270Y012044D02*
X002900Y012044D01*
X002776Y012143D02*
X013214Y012143D01*
X013176Y012241D02*
X000768Y012241D01*
X000768Y012340D02*
X013152Y012340D01*
X013143Y012500D02*
X013845Y012500D01*
X013845Y013202D01*
X013835Y013202D01*
X013739Y013189D01*
X013645Y013164D01*
X013555Y013127D01*
X013471Y013078D01*
X013394Y013019D01*
X013325Y012950D01*
X013266Y012873D01*
X013218Y012789D01*
X013181Y012700D01*
X013155Y012606D01*
X013143Y012510D01*
X013143Y012500D01*
X013146Y012537D02*
X000768Y012537D01*
X000768Y012635D02*
X013163Y012635D01*
X013195Y012734D02*
X000768Y012734D01*
X000768Y012832D02*
X013242Y012832D01*
X013310Y012931D02*
X000768Y012931D01*
X000768Y013029D02*
X013407Y013029D01*
X013557Y013128D02*
X000768Y013128D01*
X000768Y013226D02*
X021303Y013226D01*
X021179Y013128D02*
X014209Y013128D01*
X014212Y013127D02*
X014122Y013164D01*
X014028Y013189D01*
X013932Y013202D01*
X013922Y013202D01*
X013922Y012500D01*
X013845Y012500D01*
X013845Y012423D01*
X013922Y012423D01*
X013922Y012500D01*
X014624Y012500D01*
X014624Y012510D01*
X014611Y012606D01*
X014586Y012700D01*
X014549Y012789D01*
X014500Y012873D01*
X014441Y012950D01*
X014373Y013019D01*
X014296Y013078D01*
X014212Y013127D01*
X014360Y013029D02*
X021080Y013029D01*
X020999Y012931D02*
X014456Y012931D01*
X014524Y012832D02*
X020958Y012832D01*
X020917Y012734D02*
X014572Y012734D01*
X014603Y012635D02*
X020877Y012635D01*
X020877Y012537D02*
X014620Y012537D01*
X014624Y012423D02*
X013922Y012423D01*
X013922Y011721D01*
X013932Y011721D01*
X014028Y011733D01*
X014122Y011758D01*
X014212Y011796D01*
X014296Y011844D01*
X014373Y011903D01*
X014441Y011972D01*
X014500Y012049D01*
X014549Y012133D01*
X014586Y012223D01*
X014611Y012316D01*
X014624Y012413D01*
X014624Y012423D01*
X014614Y012340D02*
X020877Y012340D01*
X020877Y012438D02*
X013922Y012438D01*
X013845Y012438D02*
X000768Y012438D01*
X000768Y013325D02*
X021541Y013325D01*
X021973Y013325D02*
X023009Y013325D01*
X023009Y013423D02*
X000768Y013423D01*
X000768Y013522D02*
X023017Y013522D01*
X023009Y013620D02*
X000768Y013620D01*
X000768Y013719D02*
X023009Y013719D01*
X023039Y013817D02*
X000768Y013817D01*
X000768Y013916D02*
X023033Y013916D01*
X023009Y014014D02*
X000768Y014014D01*
X000768Y014113D02*
X023009Y014113D01*
X023047Y014211D02*
X000768Y014211D01*
X000768Y014310D02*
X023021Y014310D01*
X023009Y014408D02*
X000768Y014408D01*
X000768Y014507D02*
X023009Y014507D01*
X023009Y014605D02*
X000768Y014605D01*
X000768Y014704D02*
X023009Y014704D01*
X023025Y014802D02*
X000768Y014802D01*
X000768Y014901D02*
X023009Y014901D01*
X023009Y014999D02*
X000768Y014999D01*
X000768Y015098D02*
X023009Y015098D01*
X023009Y015196D02*
X000768Y015196D01*
X000768Y015295D02*
X023039Y015295D01*
X023017Y015393D02*
X001794Y015393D01*
X001134Y015393D02*
X000768Y015393D01*
X000768Y015492D02*
X001035Y015492D01*
X000937Y015590D02*
X000768Y015590D01*
X000768Y015689D02*
X000838Y015689D01*
X010727Y015492D02*
X023009Y015492D01*
X023009Y015590D02*
X010916Y015590D01*
X011015Y015689D02*
X023009Y015689D01*
X023009Y015787D02*
X011113Y015787D01*
X011212Y015886D02*
X023029Y015886D01*
X023078Y015984D02*
X011310Y015984D01*
X011409Y016083D02*
X023193Y016083D01*
X023825Y016083D02*
X023978Y016083D01*
X023978Y016181D02*
X011507Y016181D01*
X011606Y016280D02*
X023978Y016280D01*
X023978Y016378D02*
X011652Y016378D01*
X011693Y016477D02*
X023978Y016477D01*
X023978Y016575D02*
X011710Y016575D01*
X011710Y016674D02*
X023978Y016674D01*
X023978Y016772D02*
X011710Y016772D01*
X011710Y016871D02*
X023978Y016871D01*
X023978Y016969D02*
X011710Y016969D01*
X011710Y017068D02*
X023978Y017068D01*
X023978Y017166D02*
X011710Y017166D01*
X011710Y017265D02*
X023978Y017265D01*
X023978Y017363D02*
X011710Y017363D01*
X011710Y017462D02*
X023985Y017462D01*
X024025Y017560D02*
X011710Y017560D01*
X011710Y017659D02*
X024094Y017659D01*
X024193Y017757D02*
X011710Y017757D01*
X011710Y017856D02*
X024101Y017856D01*
X023973Y017954D02*
X011710Y017954D01*
X011710Y018053D02*
X023874Y018053D01*
X023776Y018151D02*
X011710Y018151D01*
X011710Y018250D02*
X023677Y018250D01*
X023579Y018348D02*
X011710Y018348D01*
X011710Y018447D02*
X023480Y018447D01*
X023382Y018545D02*
X011710Y018545D01*
X011710Y018644D02*
X023283Y018644D01*
X023185Y018742D02*
X011710Y018742D01*
X011710Y018841D02*
X023086Y018841D01*
X022988Y018939D02*
X021467Y018939D01*
X021638Y019038D02*
X022889Y019038D01*
X022791Y019136D02*
X021761Y019136D01*
X021860Y019235D02*
X022692Y019235D01*
X020648Y018939D02*
X014184Y018939D01*
X014354Y019038D02*
X020477Y019038D01*
X020354Y019136D02*
X014478Y019136D01*
X014576Y019235D02*
X020256Y019235D01*
X020186Y019333D02*
X015291Y019333D01*
X015452Y019432D02*
X020129Y019432D01*
X020081Y019530D02*
X015551Y019530D01*
X015649Y019629D02*
X020055Y019629D01*
X020028Y019727D02*
X015748Y019727D01*
X015846Y019826D02*
X020018Y019826D01*
X020018Y019924D02*
X015945Y019924D01*
X016043Y020023D02*
X020018Y020023D01*
X020039Y020121D02*
X016142Y020121D01*
X016240Y020220D02*
X020066Y020220D01*
X020096Y020318D02*
X016339Y020318D01*
X016437Y020417D02*
X020153Y020417D01*
X020210Y020515D02*
X016536Y020515D01*
X016634Y020614D02*
X020297Y020614D01*
X020395Y020712D02*
X016733Y020712D01*
X013071Y019136D02*
X011710Y019136D01*
X011710Y019038D02*
X013194Y019038D01*
X013364Y018939D02*
X011710Y018939D01*
X011710Y019235D02*
X012972Y019235D01*
X023940Y015984D02*
X023978Y015984D01*
X023009Y013226D02*
X022211Y013226D01*
X022336Y013128D02*
X023027Y013128D01*
X023074Y013029D02*
X022435Y013029D01*
X022516Y012931D02*
X023184Y012931D01*
X023169Y012635D02*
X022638Y012635D01*
X022638Y012537D02*
X023068Y012537D01*
X023024Y012438D02*
X022638Y012438D01*
X022638Y012340D02*
X023009Y012340D01*
X023015Y012241D02*
X022619Y012241D01*
X022579Y012143D02*
X023056Y012143D01*
X023016Y012044D02*
X022538Y012044D01*
X022487Y011946D02*
X023009Y011946D01*
X023024Y011847D02*
X022389Y011847D01*
X022309Y011749D02*
X023009Y011749D01*
X023009Y011650D02*
X022309Y011650D01*
X022309Y011552D02*
X023009Y011552D01*
X023009Y011453D02*
X023063Y011321D01*
X023128Y011256D02*
X022309Y011256D01*
X022309Y011158D02*
X023978Y011158D01*
X023978Y011059D02*
X022309Y011059D01*
X022309Y010961D02*
X023463Y010961D01*
X023263Y010862D02*
X022309Y010862D01*
X022309Y010764D02*
X023107Y010764D01*
X023041Y010665D02*
X022309Y010665D01*
X022309Y010567D02*
X023009Y010567D01*
X023009Y010468D02*
X022309Y010468D01*
X022309Y010370D02*
X023009Y010370D01*
X023009Y010271D02*
X022309Y010271D01*
X022309Y010173D02*
X023044Y010173D01*
X023024Y010074D02*
X022309Y010074D01*
X022309Y009976D02*
X023009Y009976D01*
X023009Y009877D02*
X022309Y009877D01*
X022309Y009779D02*
X023009Y009779D01*
X023009Y009680D02*
X022309Y009680D01*
X022309Y009582D02*
X023022Y009582D01*
X023046Y009483D02*
X022309Y009483D01*
X022309Y009385D02*
X023009Y009385D01*
X023009Y009286D02*
X022309Y009286D01*
X022309Y009188D02*
X023009Y009188D01*
X023009Y009089D02*
X022309Y009089D01*
X022309Y008991D02*
X023009Y008991D01*
X023040Y008892D02*
X022309Y008892D01*
X022309Y008794D02*
X023028Y008794D01*
X023009Y008695D02*
X022309Y008695D01*
X022309Y008597D02*
X023012Y008597D01*
X023053Y008498D02*
X022309Y008498D01*
X022309Y008400D02*
X023019Y008400D01*
X023009Y008301D02*
X022309Y008301D01*
X022309Y008203D02*
X023020Y008203D01*
X023061Y008104D02*
X022309Y008104D01*
X022309Y008006D02*
X023156Y008006D01*
X021229Y008597D02*
X003981Y008597D01*
X003789Y008695D02*
X021229Y008695D01*
X016847Y007415D02*
X014450Y007415D01*
X014430Y007316D02*
X016714Y007316D01*
X016616Y007218D02*
X014389Y007218D01*
X014320Y007119D02*
X016517Y007119D01*
X016419Y007021D02*
X014222Y007021D01*
X013599Y007021D02*
X003086Y007021D01*
X003086Y007119D02*
X013500Y007119D01*
X013432Y007218D02*
X003086Y007218D01*
X003086Y007316D02*
X013391Y007316D01*
X013370Y007415D02*
X003086Y007415D01*
X003086Y007513D02*
X013370Y007513D01*
X011083Y006430D02*
X016080Y006430D01*
X016080Y006528D02*
X010495Y006528D01*
X010396Y006627D02*
X016097Y006627D01*
X016138Y006725D02*
X010298Y006725D01*
X010199Y006824D02*
X016222Y006824D01*
X016320Y006922D02*
X003086Y006922D01*
X003086Y006824D02*
X007439Y006824D01*
X007341Y006725D02*
X003086Y006725D01*
X003086Y006627D02*
X007242Y006627D01*
X007144Y006528D02*
X003086Y006528D01*
X003086Y006430D02*
X007045Y006430D01*
X006947Y006331D02*
X003086Y006331D01*
X003086Y006233D02*
X006848Y006233D01*
X006750Y006134D02*
X003086Y006134D01*
X003046Y006036D02*
X006687Y006036D01*
X006657Y005937D02*
X003005Y005937D01*
X002908Y005839D02*
X006657Y005839D01*
X006657Y005740D02*
X002743Y005740D01*
X000761Y005642D02*
X006657Y005642D01*
X006657Y005543D02*
X000761Y005543D01*
X000761Y005445D02*
X006657Y005445D01*
X006657Y005346D02*
X000761Y005346D01*
X000761Y005248D02*
X006657Y005248D01*
X006657Y005149D02*
X000761Y005149D01*
X000761Y005051D02*
X006657Y005051D01*
X006657Y004952D02*
X000761Y004952D01*
X000761Y004854D02*
X006657Y004854D01*
X006657Y004755D02*
X000761Y004755D01*
X000761Y004657D02*
X006657Y004657D01*
X006657Y004558D02*
X000761Y004558D01*
X000761Y004460D02*
X006657Y004460D01*
X006657Y004361D02*
X000761Y004361D01*
X000761Y004263D02*
X006657Y004263D01*
X006657Y004164D02*
X000761Y004164D01*
X000761Y004066D02*
X006657Y004066D01*
X006657Y003967D02*
X000761Y003967D01*
X000761Y003869D02*
X006657Y003869D01*
X006657Y003770D02*
X000761Y003770D01*
X000761Y003672D02*
X001315Y003672D01*
X001369Y003693D02*
X001369Y003693D01*
X001064Y003573D02*
X000761Y003573D01*
X000761Y003475D02*
X000857Y003475D01*
X001871Y003731D02*
X001871Y003731D01*
X002129Y003672D02*
X006657Y003672D01*
X006657Y003573D02*
X002441Y003573D01*
X002362Y003618D02*
X002362Y003618D01*
X002612Y003475D02*
X006657Y003475D01*
X006657Y003376D02*
X002782Y003376D01*
X002799Y003367D02*
X002799Y003367D01*
X002881Y003278D02*
X006657Y003278D01*
X006657Y003179D02*
X002973Y003179D01*
X003064Y003081D02*
X006657Y003081D01*
X006657Y002982D02*
X003149Y002982D01*
X003196Y002884D02*
X006657Y002884D01*
X006657Y002785D02*
X003244Y002785D01*
X003291Y002687D02*
X004931Y002687D01*
X004733Y002588D02*
X003338Y002588D01*
X003368Y002490D02*
X004635Y002490D01*
X004579Y002391D02*
X003383Y002391D01*
X003398Y002293D02*
X004539Y002293D01*
X004528Y002194D02*
X003413Y002194D01*
X003427Y002096D02*
X004528Y002096D01*
X004550Y001997D02*
X003428Y001997D01*
X003413Y001899D02*
X004591Y001899D01*
X004663Y001800D02*
X003398Y001800D01*
X003383Y001702D02*
X004761Y001702D01*
X005018Y001603D02*
X003368Y001603D01*
X003339Y001505D02*
X005109Y001505D01*
X005200Y001406D02*
X003292Y001406D01*
X003245Y001308D02*
X005290Y001308D01*
X005381Y001209D02*
X003197Y001209D01*
X003150Y001111D02*
X005472Y001111D01*
X005563Y001012D02*
X003066Y001012D01*
X005661Y001997D02*
X006479Y001997D01*
X006479Y001899D02*
X005752Y001899D01*
X005843Y001800D02*
X006479Y001800D01*
X006479Y001702D02*
X005934Y001702D01*
X006024Y001603D02*
X006479Y001603D01*
X006479Y001505D02*
X006115Y001505D01*
X006206Y001406D02*
X006485Y001406D01*
X006526Y001308D02*
X006297Y001308D01*
X006387Y001209D02*
X006573Y001209D01*
X007426Y001155D02*
X007491Y001220D01*
X007574Y001421D01*
X007574Y002154D01*
X007491Y002355D01*
X007397Y002449D01*
X007397Y005735D01*
X007825Y006163D01*
X008371Y006163D01*
X008164Y005955D01*
X008164Y005736D01*
X008764Y005736D01*
X008764Y005636D01*
X008864Y005636D01*
X008864Y005736D01*
X009464Y005736D01*
X009464Y005955D01*
X009256Y006163D01*
X009813Y006163D01*
X010056Y005921D01*
X010024Y005843D01*
X010024Y005529D01*
X010144Y005239D01*
X010366Y005016D01*
X010657Y004896D01*
X010971Y004896D01*
X011011Y004913D01*
X011074Y004887D01*
X015589Y004887D01*
X015698Y004698D01*
X015891Y004504D01*
X016080Y004396D01*
X016080Y002486D01*
X015766Y002486D01*
X015634Y002431D01*
X015609Y002406D01*
X015584Y002431D01*
X015452Y002486D01*
X015122Y002486D01*
X015011Y002440D01*
X014901Y002486D01*
X014384Y002486D01*
X014251Y002431D01*
X014150Y002330D01*
X014095Y002197D01*
X014095Y002054D01*
X014150Y001922D01*
X014251Y001821D01*
X014282Y001808D01*
X014282Y001494D01*
X014337Y001361D01*
X014438Y001260D01*
X014571Y001205D01*
X014714Y001205D01*
X014846Y001260D01*
X014918Y001332D01*
X014989Y001260D01*
X015122Y001205D01*
X015452Y001205D01*
X015584Y001260D01*
X015609Y001285D01*
X015634Y001260D01*
X015766Y001205D01*
X016190Y001205D01*
X016322Y001260D01*
X016423Y001361D01*
X016478Y001494D01*
X016478Y001695D01*
X017019Y001154D01*
X009426Y001155D01*
X009491Y001220D01*
X009574Y001421D01*
X009574Y002154D01*
X009491Y002355D01*
X009337Y002509D01*
X009136Y002592D01*
X008918Y002592D01*
X008717Y002509D01*
X008563Y002355D01*
X008479Y002154D01*
X008479Y001421D01*
X008563Y001220D01*
X008628Y001155D01*
X008188Y001155D01*
X008240Y001181D01*
X008292Y001219D01*
X008338Y001264D01*
X008375Y001316D01*
X008404Y001373D01*
X008424Y001434D01*
X008434Y001498D01*
X008434Y001759D01*
X008056Y001759D01*
X008056Y001816D01*
X008434Y001816D01*
X008434Y002077D01*
X008424Y002140D01*
X008404Y002201D01*
X008375Y002258D01*
X008338Y002310D01*
X008292Y002356D01*
X008240Y002393D01*
X008183Y002422D01*
X008122Y002442D01*
X008059Y002452D01*
X008056Y002452D01*
X008056Y001816D01*
X007998Y001816D01*
X007998Y001759D01*
X007619Y001759D01*
X007619Y001498D01*
X007629Y001434D01*
X007649Y001373D01*
X007678Y001316D01*
X007716Y001264D01*
X007761Y001219D01*
X007813Y001181D01*
X007865Y001155D01*
X007426Y001155D01*
X007480Y001209D02*
X007775Y001209D01*
X007685Y001308D02*
X007527Y001308D01*
X007568Y001406D02*
X007639Y001406D01*
X007619Y001505D02*
X007574Y001505D01*
X007574Y001603D02*
X007619Y001603D01*
X007619Y001702D02*
X007574Y001702D01*
X007574Y001800D02*
X007998Y001800D01*
X007998Y001816D02*
X007619Y001816D01*
X007619Y002077D01*
X007629Y002140D01*
X007649Y002201D01*
X007678Y002258D01*
X007716Y002310D01*
X007761Y002356D01*
X007813Y002393D01*
X007870Y002422D01*
X007931Y002442D01*
X007995Y002452D01*
X007998Y002452D01*
X007998Y001816D01*
X008056Y001800D02*
X008479Y001800D01*
X008479Y001702D02*
X008434Y001702D01*
X008434Y001603D02*
X008479Y001603D01*
X008479Y001505D02*
X008434Y001505D01*
X008415Y001406D02*
X008485Y001406D01*
X008526Y001308D02*
X008369Y001308D01*
X008279Y001209D02*
X008573Y001209D01*
X009480Y001209D02*
X011367Y001209D01*
X011376Y001205D02*
X011893Y001205D01*
X012003Y001251D01*
X012114Y001205D01*
X012537Y001205D01*
X012587Y001226D01*
X012637Y001205D01*
X012967Y001205D01*
X013078Y001251D01*
X013188Y001205D01*
X013518Y001205D01*
X013650Y001260D01*
X013845Y001455D01*
X013900Y001587D01*
X013900Y001730D01*
X013872Y001799D01*
X013900Y001867D01*
X013900Y002104D01*
X013845Y002236D01*
X013744Y002338D01*
X013650Y002431D01*
X013518Y002486D01*
X013188Y002486D01*
X013078Y002440D01*
X012967Y002486D01*
X012637Y002486D01*
X012587Y002465D01*
X012537Y002486D01*
X012114Y002486D01*
X012003Y002440D01*
X011893Y002486D01*
X011376Y002486D01*
X011244Y002431D01*
X011142Y002330D01*
X011088Y002197D01*
X011088Y002054D01*
X011142Y001922D01*
X011219Y001846D01*
X011142Y001769D01*
X011088Y001637D01*
X011088Y001494D01*
X011142Y001361D01*
X011244Y001260D01*
X011376Y001205D01*
X011196Y001308D02*
X009527Y001308D01*
X009568Y001406D02*
X011124Y001406D01*
X011088Y001505D02*
X009574Y001505D01*
X009574Y001603D02*
X011088Y001603D01*
X011114Y001702D02*
X009574Y001702D01*
X009574Y001800D02*
X011173Y001800D01*
X011166Y001899D02*
X009574Y001899D01*
X009574Y001997D02*
X011111Y001997D01*
X011088Y002096D02*
X009574Y002096D01*
X009558Y002194D02*
X011088Y002194D01*
X011127Y002293D02*
X009517Y002293D01*
X009455Y002391D02*
X011204Y002391D01*
X009356Y002490D02*
X016080Y002490D01*
X016080Y002588D02*
X009146Y002588D01*
X008908Y002588D02*
X007397Y002588D01*
X007397Y002490D02*
X008698Y002490D01*
X008599Y002391D02*
X008243Y002391D01*
X008350Y002293D02*
X008537Y002293D01*
X008496Y002194D02*
X008407Y002194D01*
X008431Y002096D02*
X008479Y002096D01*
X008479Y001997D02*
X008434Y001997D01*
X008434Y001899D02*
X008479Y001899D01*
X008056Y001899D02*
X007998Y001899D01*
X007998Y001997D02*
X008056Y001997D01*
X008056Y002096D02*
X007998Y002096D01*
X007998Y002194D02*
X008056Y002194D01*
X008056Y002293D02*
X007998Y002293D01*
X007998Y002391D02*
X008056Y002391D01*
X007810Y002391D02*
X007455Y002391D01*
X007517Y002293D02*
X007703Y002293D01*
X007647Y002194D02*
X007558Y002194D01*
X007574Y002096D02*
X007622Y002096D01*
X007619Y001997D02*
X007574Y001997D01*
X007574Y001899D02*
X007619Y001899D01*
X006537Y002293D02*
X005597Y002293D01*
X005608Y002194D02*
X006496Y002194D01*
X006479Y002096D02*
X005608Y002096D01*
X005556Y002391D02*
X006599Y002391D01*
X006657Y002490D02*
X005501Y002490D01*
X005402Y002588D02*
X006657Y002588D01*
X006657Y002687D02*
X005205Y002687D01*
X007397Y002687D02*
X016080Y002687D01*
X016080Y002785D02*
X007397Y002785D01*
X007397Y002884D02*
X016080Y002884D01*
X016080Y002982D02*
X007397Y002982D01*
X007397Y003081D02*
X016080Y003081D01*
X016080Y003179D02*
X007397Y003179D01*
X007397Y003278D02*
X016080Y003278D01*
X016080Y003376D02*
X007397Y003376D01*
X007397Y003475D02*
X016080Y003475D01*
X016080Y003573D02*
X007397Y003573D01*
X007397Y003672D02*
X016080Y003672D01*
X016080Y003770D02*
X007397Y003770D01*
X007397Y003869D02*
X016080Y003869D01*
X016080Y003967D02*
X007397Y003967D01*
X007397Y004066D02*
X016080Y004066D01*
X016080Y004164D02*
X007397Y004164D01*
X007397Y004263D02*
X016080Y004263D01*
X016080Y004361D02*
X007397Y004361D01*
X007397Y004460D02*
X015969Y004460D01*
X015838Y004558D02*
X007397Y004558D01*
X007397Y004657D02*
X015739Y004657D01*
X015665Y004755D02*
X007397Y004755D01*
X007397Y004854D02*
X015608Y004854D01*
X017091Y004460D02*
X019278Y004460D01*
X019307Y004452D02*
X019424Y004437D01*
X019433Y004437D01*
X019433Y005287D01*
X018583Y005287D01*
X018583Y005278D01*
X018598Y005161D01*
X018629Y005047D01*
X018674Y004938D01*
X018733Y004836D01*
X018805Y004742D01*
X018888Y004659D01*
X018982Y004587D01*
X019084Y004528D01*
X019193Y004483D01*
X019307Y004452D01*
X019433Y004460D02*
X019533Y004460D01*
X019533Y004437D02*
X019542Y004437D01*
X019659Y004452D01*
X019773Y004483D01*
X019882Y004528D01*
X019984Y004587D01*
X020077Y004659D01*
X020161Y004742D01*
X020233Y004836D01*
X020292Y004938D01*
X020337Y005047D01*
X020367Y005161D01*
X020383Y005278D01*
X020383Y005287D01*
X019533Y005287D01*
X019533Y005387D01*
X019433Y005387D01*
X019433Y006237D01*
X019424Y006237D01*
X019307Y006221D01*
X019193Y006191D01*
X019084Y006146D01*
X018982Y006087D01*
X018888Y006015D01*
X018805Y005931D01*
X018733Y005838D01*
X018674Y005736D01*
X018629Y005627D01*
X018598Y005513D01*
X018583Y005396D01*
X018583Y005387D01*
X019433Y005387D01*
X019433Y005287D01*
X019533Y005287D01*
X019533Y004437D01*
X019533Y004558D02*
X019433Y004558D01*
X019433Y004657D02*
X019533Y004657D01*
X019533Y004755D02*
X019433Y004755D01*
X019433Y004854D02*
X019533Y004854D01*
X019533Y004952D02*
X019433Y004952D01*
X019433Y005051D02*
X019533Y005051D01*
X019533Y005149D02*
X019433Y005149D01*
X019433Y005248D02*
X019533Y005248D01*
X019533Y005346D02*
X020503Y005346D01*
X020503Y005248D02*
X020379Y005248D01*
X020364Y005149D02*
X020503Y005149D01*
X020503Y005051D02*
X020338Y005051D01*
X020298Y004952D02*
X020503Y004952D01*
X020503Y004854D02*
X020243Y004854D01*
X020171Y004755D02*
X020503Y004755D01*
X020503Y004657D02*
X020075Y004657D01*
X019934Y004558D02*
X020503Y004558D01*
X020516Y004460D02*
X019687Y004460D01*
X019031Y004558D02*
X017222Y004558D01*
X017321Y004657D02*
X018891Y004657D01*
X018795Y004755D02*
X017395Y004755D01*
X017452Y004854D02*
X018722Y004854D01*
X018668Y004952D02*
X017504Y004952D01*
X017530Y005051D02*
X018628Y005051D01*
X018601Y005149D02*
X017556Y005149D01*
X017570Y005248D02*
X018587Y005248D01*
X018589Y005445D02*
X017570Y005445D01*
X017570Y005346D02*
X019433Y005346D01*
X019433Y005445D02*
X019533Y005445D01*
X019533Y005387D02*
X019533Y006237D01*
X019542Y006237D01*
X019659Y006221D01*
X019773Y006191D01*
X019882Y006146D01*
X019984Y006087D01*
X020077Y006015D01*
X020161Y005931D01*
X020233Y005838D01*
X020292Y005736D01*
X020337Y005627D01*
X020367Y005513D01*
X020383Y005396D01*
X020383Y005387D01*
X019533Y005387D01*
X019533Y005543D02*
X019433Y005543D01*
X019433Y005642D02*
X019533Y005642D01*
X019533Y005740D02*
X019433Y005740D01*
X019433Y005839D02*
X019533Y005839D01*
X019533Y005937D02*
X019433Y005937D01*
X019433Y006036D02*
X019533Y006036D01*
X019533Y006134D02*
X019433Y006134D01*
X019433Y006233D02*
X019533Y006233D01*
X019572Y006233D02*
X020503Y006233D01*
X020503Y006331D02*
X017002Y006331D01*
X017058Y006233D02*
X019394Y006233D01*
X019064Y006134D02*
X017203Y006134D01*
X017302Y006036D02*
X018915Y006036D01*
X018811Y005937D02*
X017384Y005937D01*
X017441Y005839D02*
X018734Y005839D01*
X018677Y005740D02*
X017498Y005740D01*
X017525Y005642D02*
X018635Y005642D01*
X018606Y005543D02*
X017551Y005543D01*
X016080Y006331D02*
X011286Y006331D01*
X011384Y006233D02*
X016002Y006233D01*
X017100Y006430D02*
X020503Y006430D01*
X020465Y006528D02*
X017199Y006528D01*
X015676Y005937D02*
X011565Y005937D01*
X011604Y005839D02*
X015619Y005839D01*
X019901Y006134D02*
X020503Y006134D01*
X020503Y006036D02*
X020050Y006036D01*
X020155Y005937D02*
X020503Y005937D01*
X020503Y005839D02*
X020232Y005839D01*
X020289Y005740D02*
X020503Y005740D01*
X020503Y005642D02*
X020331Y005642D01*
X020359Y005543D02*
X020503Y005543D01*
X020503Y005445D02*
X020376Y005445D01*
X020557Y004361D02*
X016980Y004361D01*
X016980Y004263D02*
X020636Y004263D01*
X020734Y004164D02*
X016980Y004164D01*
X016980Y004066D02*
X020833Y004066D01*
X020931Y003967D02*
X016980Y003967D01*
X016980Y003869D02*
X021030Y003869D01*
X021128Y003770D02*
X016980Y003770D01*
X016980Y003672D02*
X021166Y003672D01*
X021166Y003573D02*
X016980Y003573D01*
X016980Y003475D02*
X021166Y003475D01*
X021166Y003376D02*
X016980Y003376D01*
X016980Y003278D02*
X021195Y003278D01*
X021273Y003179D02*
X016980Y003179D01*
X016980Y003081D02*
X024227Y003081D01*
X024326Y002982D02*
X016980Y002982D01*
X016980Y002884D02*
X024424Y002884D01*
X024523Y002785D02*
X016980Y002785D01*
X016980Y002687D02*
X024621Y002687D01*
X024777Y002588D02*
X016980Y002588D01*
X016980Y002490D02*
X026166Y002490D01*
X026166Y002391D02*
X016980Y002391D01*
X017040Y002293D02*
X025107Y002293D01*
X025087Y002194D02*
X017138Y002194D01*
X017237Y002096D02*
X025087Y002096D01*
X025557Y002096D02*
X025657Y002096D01*
X025657Y002194D02*
X025557Y002194D01*
X025557Y002293D02*
X025657Y002293D01*
X026108Y002293D02*
X026166Y002293D01*
X025557Y001800D02*
X017532Y001800D01*
X017631Y001702D02*
X025087Y001702D01*
X025087Y001603D02*
X017729Y001603D01*
X017828Y001505D02*
X025087Y001505D01*
X016964Y001209D02*
X016199Y001209D01*
X016370Y001308D02*
X016865Y001308D01*
X016767Y001406D02*
X016442Y001406D01*
X016478Y001505D02*
X016668Y001505D01*
X016570Y001603D02*
X016478Y001603D01*
X015757Y001209D02*
X015461Y001209D01*
X015112Y001209D02*
X014723Y001209D01*
X014561Y001209D02*
X013528Y001209D01*
X013698Y001308D02*
X014391Y001308D01*
X014319Y001406D02*
X013797Y001406D01*
X013866Y001505D02*
X014282Y001505D01*
X014282Y001603D02*
X013900Y001603D01*
X013900Y001702D02*
X014282Y001702D01*
X014282Y001800D02*
X013872Y001800D01*
X013900Y001899D02*
X014173Y001899D01*
X014119Y001997D02*
X013900Y001997D01*
X013900Y002096D02*
X014095Y002096D01*
X014095Y002194D02*
X013863Y002194D01*
X013789Y002293D02*
X014135Y002293D01*
X014212Y002391D02*
X013690Y002391D01*
X013179Y001209D02*
X012976Y001209D01*
X012628Y001209D02*
X012547Y001209D01*
X012105Y001209D02*
X011902Y001209D01*
X014894Y001308D02*
X014942Y001308D01*
X010521Y004952D02*
X007397Y004952D01*
X007397Y005051D02*
X008530Y005051D01*
X008544Y005036D02*
X008764Y005036D01*
X008764Y005636D01*
X008164Y005636D01*
X008164Y005417D01*
X008544Y005036D01*
X008431Y005149D02*
X007397Y005149D01*
X007397Y005248D02*
X008333Y005248D01*
X008234Y005346D02*
X007397Y005346D01*
X007397Y005445D02*
X008164Y005445D01*
X008164Y005543D02*
X007397Y005543D01*
X007397Y005642D02*
X008764Y005642D01*
X008764Y005543D02*
X008864Y005543D01*
X008864Y005636D02*
X008864Y005036D01*
X009083Y005036D01*
X009464Y005417D01*
X009464Y005636D01*
X008864Y005636D01*
X008864Y005642D02*
X010024Y005642D01*
X010024Y005740D02*
X009464Y005740D01*
X009464Y005839D02*
X010024Y005839D01*
X010039Y005937D02*
X009464Y005937D01*
X009383Y006036D02*
X009941Y006036D01*
X009842Y006134D02*
X009285Y006134D01*
X008343Y006134D02*
X007796Y006134D01*
X007698Y006036D02*
X008244Y006036D01*
X008164Y005937D02*
X007599Y005937D01*
X007501Y005839D02*
X008164Y005839D01*
X008164Y005740D02*
X007402Y005740D01*
X008764Y005445D02*
X008864Y005445D01*
X008864Y005346D02*
X008764Y005346D01*
X008764Y005248D02*
X008864Y005248D01*
X008864Y005149D02*
X008764Y005149D01*
X008764Y005051D02*
X008864Y005051D01*
X009097Y005051D02*
X010332Y005051D01*
X010233Y005149D02*
X009196Y005149D01*
X009294Y005248D02*
X010140Y005248D01*
X010099Y005346D02*
X009393Y005346D01*
X009464Y005445D02*
X010059Y005445D01*
X010024Y005543D02*
X009464Y005543D01*
X023742Y010961D02*
X023978Y010961D01*
X023978Y010862D02*
X023905Y010862D01*
X023689Y011256D02*
X023609Y011256D01*
X021225Y011749D02*
X014086Y011749D01*
X013922Y011749D02*
X013845Y011749D01*
X013845Y011847D02*
X013922Y011847D01*
X013922Y011946D02*
X013845Y011946D01*
X013845Y012044D02*
X013922Y012044D01*
X013922Y012143D02*
X013845Y012143D01*
X013845Y012241D02*
X013922Y012241D01*
X013922Y012340D02*
X013845Y012340D01*
X013845Y012537D02*
X013922Y012537D01*
X013922Y012635D02*
X013845Y012635D01*
X013845Y012734D02*
X013922Y012734D01*
X013922Y012832D02*
X013845Y012832D01*
X013845Y012931D02*
X013922Y012931D01*
X013922Y013029D02*
X013845Y013029D01*
X013845Y013128D02*
X013922Y013128D01*
X014591Y012241D02*
X020895Y012241D01*
X020936Y012143D02*
X014553Y012143D01*
X014497Y012044D02*
X020977Y012044D01*
X021028Y011946D02*
X014415Y011946D01*
X014300Y011847D02*
X021126Y011847D01*
X022598Y012734D02*
X023978Y012734D01*
X023978Y012832D02*
X022557Y012832D01*
X023554Y012931D02*
X023744Y012931D01*
X023849Y012635D02*
X023978Y012635D01*
X023978Y012537D02*
X023950Y012537D01*
X032281Y010862D02*
X033497Y010862D01*
X033506Y010961D02*
X032433Y010961D01*
X032532Y011059D02*
X033547Y011059D01*
X033588Y011158D02*
X032610Y011158D01*
X032650Y011256D02*
X033644Y011256D01*
X033742Y011355D02*
X032691Y011355D01*
X032715Y011453D02*
X033842Y011453D01*
X034080Y011552D02*
X032715Y011552D01*
X032715Y011650D02*
X034402Y011650D01*
X034495Y011552D02*
X035860Y011552D01*
X035860Y011650D02*
X034856Y011650D01*
X034864Y011652D02*
X034898Y011672D01*
X034926Y011700D01*
X034946Y011734D01*
X034956Y011772D01*
X034956Y011921D01*
X034658Y011921D01*
X034658Y011642D01*
X034826Y011642D01*
X034864Y011652D01*
X034950Y011749D02*
X035869Y011749D01*
X035909Y011847D02*
X034956Y011847D01*
X034956Y012044D02*
X035411Y012044D01*
X035274Y012143D02*
X034952Y012143D01*
X034874Y012241D02*
X035186Y012241D01*
X034658Y011946D02*
X035950Y011946D01*
X035893Y012044D02*
X036007Y012044D01*
X036029Y012143D02*
X036105Y012143D01*
X036117Y012241D02*
X036168Y012241D01*
X036158Y012340D02*
X036168Y012340D01*
X037148Y012340D02*
X038213Y012340D01*
X037975Y012241D02*
X037148Y012241D01*
X037194Y012143D02*
X037875Y012143D01*
X037776Y012044D02*
X037293Y012044D01*
X037349Y011946D02*
X037720Y011946D01*
X037679Y011847D02*
X037390Y011847D01*
X037431Y011749D02*
X037639Y011749D01*
X037630Y011650D02*
X037440Y011650D01*
X037440Y011552D02*
X037630Y011552D01*
X037630Y011453D02*
X037440Y011453D01*
X037416Y011355D02*
X037654Y011355D01*
X037695Y011256D02*
X037375Y011256D01*
X037334Y011158D02*
X037736Y011158D01*
X037814Y011059D02*
X037256Y011059D01*
X037158Y010961D02*
X037913Y010961D01*
X038066Y010862D02*
X037005Y010862D01*
X036294Y010862D02*
X035077Y010862D01*
X035077Y010764D02*
X039992Y010764D01*
X039992Y010862D02*
X038774Y010862D01*
X038927Y010961D02*
X040001Y010961D01*
X040041Y011059D02*
X039026Y011059D01*
X039104Y011158D02*
X040082Y011158D01*
X040138Y011256D02*
X039145Y011256D01*
X039186Y011355D02*
X040237Y011355D01*
X040335Y011453D02*
X039210Y011453D01*
X039210Y011552D02*
X040573Y011552D01*
X040991Y011552D02*
X041449Y011552D01*
X041458Y011547D02*
X041496Y011537D01*
X041664Y011537D01*
X041664Y011815D01*
X041365Y011815D01*
X041365Y011667D01*
X041376Y011629D01*
X041395Y011595D01*
X041423Y011567D01*
X041458Y011547D01*
X041370Y011650D02*
X039210Y011650D01*
X041013Y011749D02*
X041365Y011749D01*
X041240Y011847D02*
X041664Y011847D01*
X041721Y011847D02*
X042404Y011847D01*
X042363Y011749D02*
X042020Y011749D01*
X042015Y011650D02*
X042354Y011650D01*
X042354Y011552D02*
X041936Y011552D01*
X041721Y011552D02*
X041664Y011552D01*
X041664Y011650D02*
X041721Y011650D01*
X041721Y011749D02*
X041664Y011749D01*
X041365Y011946D02*
X041309Y011946D01*
X041333Y012044D02*
X041371Y012044D01*
X041356Y012143D02*
X041462Y012143D01*
X042014Y012044D02*
X042501Y012044D01*
X042520Y012143D02*
X042599Y012143D01*
X042445Y011946D02*
X042020Y011946D01*
X042354Y011453D02*
X041229Y011453D01*
X041328Y011355D02*
X042379Y011355D01*
X042419Y011256D02*
X041426Y011256D01*
X041482Y011158D02*
X042460Y011158D01*
X042538Y011059D02*
X041523Y011059D01*
X041564Y010961D02*
X042637Y010961D01*
X042790Y010862D02*
X041572Y010862D01*
X041572Y010764D02*
X048177Y010764D01*
X048079Y010665D02*
X046371Y010665D01*
X046470Y010567D02*
X048009Y010567D01*
X047968Y010468D02*
X046568Y010468D01*
X046667Y010370D02*
X047947Y010370D01*
X048779Y010862D02*
X043499Y010862D01*
X045007Y010468D02*
X041507Y010468D01*
X041548Y010567D02*
X045100Y010567D01*
X045201Y010665D02*
X041572Y010665D01*
X040275Y010173D02*
X034795Y010173D01*
X034893Y010271D02*
X040177Y010271D01*
X040098Y010370D02*
X034971Y010370D01*
X035012Y010468D02*
X040058Y010468D01*
X040017Y010567D02*
X035053Y010567D01*
X035077Y010665D02*
X039992Y010665D01*
X040429Y010074D02*
X034641Y010074D01*
X035069Y010961D02*
X036142Y010961D01*
X036043Y011059D02*
X035028Y011059D01*
X034987Y011158D02*
X035965Y011158D01*
X035925Y011256D02*
X034931Y011256D01*
X034833Y011355D02*
X035884Y011355D01*
X035860Y011453D02*
X034733Y011453D01*
X034658Y011650D02*
X034600Y011650D01*
X034600Y011749D02*
X034658Y011749D01*
X034658Y011847D02*
X034600Y011847D01*
X034600Y011946D02*
X034169Y011946D01*
X034243Y012044D02*
X034302Y012044D01*
X034306Y012143D02*
X034269Y012143D01*
X034292Y012241D02*
X034384Y012241D01*
X034302Y011847D02*
X033933Y011847D01*
X034308Y011749D02*
X032797Y011749D01*
X037148Y012438D02*
X038595Y012438D01*
X038693Y012537D02*
X037148Y012537D01*
X037148Y012635D02*
X038794Y012635D01*
X039433Y012734D02*
X037148Y012734D01*
X037148Y012832D02*
X039433Y012832D01*
X039433Y012931D02*
X037148Y012931D01*
X037148Y013029D02*
X039451Y013029D01*
X039492Y013128D02*
X037148Y013128D01*
X037148Y013226D02*
X039568Y013226D01*
X039666Y013325D02*
X037148Y013325D01*
X037148Y013423D02*
X039765Y013423D01*
X039863Y013522D02*
X037148Y013522D01*
X037148Y013620D02*
X039956Y013620D01*
X039956Y013719D02*
X037148Y013719D01*
X037148Y013817D02*
X039956Y013817D01*
X039995Y013916D02*
X037148Y013916D01*
X037148Y014014D02*
X040059Y014014D01*
X047155Y014915D02*
X047155Y016736D01*
X047087Y016901D01*
X046310Y017678D01*
X046183Y017805D01*
X046018Y017873D01*
X045474Y017873D01*
X045590Y017990D01*
X045590Y018513D01*
X045718Y018640D01*
X048598Y018640D01*
X048658Y018580D01*
X048764Y018536D01*
X049510Y018536D01*
X049616Y018580D01*
X049688Y018652D01*
X049760Y018580D01*
X049867Y018536D01*
X050120Y018536D01*
X050595Y018061D01*
X050747Y017909D01*
X050946Y017827D01*
X054733Y017827D01*
X055103Y017457D01*
X055857Y017457D01*
X056307Y017906D01*
X056628Y017585D01*
X057382Y017585D01*
X057752Y017955D01*
X060702Y017955D01*
X060702Y017936D01*
X060668Y017901D01*
X060624Y017795D01*
X060624Y016971D01*
X060668Y016864D01*
X060750Y016783D01*
X060856Y016738D01*
X061601Y016738D01*
X061708Y016783D01*
X061780Y016855D01*
X061852Y016783D01*
X061958Y016738D01*
X062212Y016738D01*
X062434Y016516D01*
X062586Y016364D01*
X062785Y016282D01*
X069580Y016282D01*
X070176Y015685D01*
X070074Y015685D01*
X069881Y015765D01*
X067763Y015765D01*
X067679Y015800D01*
X067392Y015800D01*
X067199Y015720D01*
X067058Y015720D01*
X066823Y015623D01*
X066643Y015442D01*
X066546Y015207D01*
X066546Y015129D01*
X065470Y015129D01*
X065539Y015296D01*
X065539Y015522D01*
X065452Y015732D01*
X065292Y015892D01*
X065082Y015979D01*
X064295Y015979D01*
X064086Y015892D01*
X063925Y015732D01*
X063839Y015522D01*
X063839Y015296D01*
X063925Y015086D01*
X063933Y015079D01*
X063615Y015079D01*
X063369Y014977D01*
X063181Y014789D01*
X063181Y014920D01*
X062759Y015341D01*
X062162Y015341D01*
X061741Y014920D01*
X061741Y014323D01*
X062162Y013901D01*
X062293Y013901D01*
X061893Y013501D01*
X061863Y013428D01*
X061821Y013386D01*
X061821Y013327D01*
X061791Y013255D01*
X061791Y012988D01*
X061821Y012916D01*
X061821Y012856D01*
X061863Y012814D01*
X061893Y012742D01*
X062081Y012553D01*
X062153Y012523D01*
X062509Y012168D01*
X062149Y012168D01*
X061727Y011746D01*
X061727Y011150D01*
X062149Y010728D01*
X062745Y010728D01*
X063013Y010996D01*
X063013Y010661D01*
X062357Y010661D01*
X062111Y010559D01*
X061922Y010371D01*
X061879Y010328D01*
X061849Y010255D01*
X061807Y010213D01*
X061807Y010154D01*
X061777Y010081D01*
X061777Y009815D01*
X061807Y009742D01*
X061807Y009683D01*
X061849Y009641D01*
X061879Y009569D01*
X062067Y009380D01*
X062140Y009350D01*
X062991Y008499D01*
X062991Y008184D01*
X062753Y008421D01*
X062157Y008421D01*
X061735Y008000D01*
X061735Y007403D01*
X062157Y006981D01*
X062753Y006981D01*
X062991Y007219D01*
X062991Y006613D01*
X062835Y006769D01*
X062762Y006799D01*
X062720Y006841D01*
X062661Y006841D01*
X062588Y006871D01*
X062322Y006871D01*
X062249Y006841D01*
X062190Y006841D01*
X062148Y006799D01*
X062076Y006769D01*
X061887Y006581D01*
X061857Y006508D01*
X061815Y006466D01*
X061815Y006407D01*
X061785Y006335D01*
X061785Y006068D01*
X061815Y005996D01*
X061815Y005936D01*
X061857Y005894D01*
X061887Y005822D01*
X062491Y005218D01*
X062679Y005030D01*
X062925Y004928D01*
X064003Y004928D01*
X063996Y004921D01*
X063909Y004711D01*
X063909Y004485D01*
X063996Y004275D01*
X064157Y004115D01*
X064224Y004087D01*
X063592Y004087D01*
X063346Y003985D01*
X063182Y003820D01*
X063182Y003951D01*
X062760Y004373D01*
X062163Y004373D01*
X061742Y003951D01*
X061742Y003355D01*
X062163Y002933D01*
X062294Y002933D01*
X061894Y002532D01*
X061864Y002460D01*
X061822Y002418D01*
X061822Y002359D01*
X061792Y002286D01*
X061792Y002020D01*
X061822Y001947D01*
X061822Y001888D01*
X061864Y001846D01*
X061894Y001773D01*
X062082Y001585D01*
X062155Y001555D01*
X062197Y001513D01*
X062256Y001513D01*
X062328Y001483D01*
X062595Y001483D01*
X062667Y001513D01*
X062727Y001513D01*
X062769Y001555D01*
X062841Y001585D01*
X064003Y002747D01*
X064035Y002747D01*
X063963Y002675D01*
X063877Y002465D01*
X063877Y001679D01*
X063963Y001469D01*
X064124Y001309D01*
X064333Y001222D01*
X064560Y001222D01*
X064770Y001309D01*
X064930Y001469D01*
X064947Y001510D01*
X064963Y001469D01*
X065124Y001309D01*
X065333Y001222D01*
X065560Y001222D01*
X065770Y001309D01*
X065930Y001469D01*
X065947Y001510D01*
X065963Y001469D01*
X066124Y001309D01*
X066333Y001222D01*
X066560Y001222D01*
X066770Y001309D01*
X066930Y001469D01*
X067017Y001679D01*
X067017Y002465D01*
X066930Y002675D01*
X066770Y002835D01*
X066560Y002922D01*
X066333Y002922D01*
X066124Y002835D01*
X066113Y002825D01*
X066105Y002844D01*
X066116Y002849D01*
X067106Y003839D01*
X067295Y004028D01*
X067397Y004274D01*
X067397Y005108D01*
X068985Y005108D01*
X068999Y005102D01*
X069286Y005102D01*
X069479Y005182D01*
X069620Y005182D01*
X069855Y005280D01*
X070035Y005460D01*
X070132Y005695D01*
X070132Y005950D01*
X070035Y006185D01*
X069855Y006365D01*
X069620Y006462D01*
X069487Y006462D01*
X069280Y006548D01*
X066768Y006548D01*
X066575Y006468D01*
X066434Y006468D01*
X066199Y006371D01*
X066123Y006295D01*
X065760Y006295D01*
X065495Y006186D01*
X065478Y006168D01*
X065416Y006168D01*
X065523Y006275D01*
X065609Y006485D01*
X065609Y006711D01*
X065523Y006921D01*
X065362Y007081D01*
X065153Y007168D01*
X064366Y007168D01*
X064271Y007129D01*
X064271Y008449D01*
X064339Y008421D01*
X065125Y008421D01*
X065335Y008508D01*
X065495Y008669D01*
X065582Y008878D01*
X065582Y009105D01*
X065495Y009314D01*
X065335Y009475D01*
X065294Y009491D01*
X065335Y009508D01*
X065495Y009669D01*
X065582Y009878D01*
X065582Y010105D01*
X065495Y010314D01*
X065335Y010475D01*
X065294Y010491D01*
X065335Y010508D01*
X065495Y010669D01*
X065582Y010878D01*
X065582Y011105D01*
X065495Y011314D01*
X065335Y011475D01*
X065125Y011561D01*
X064339Y011561D01*
X064293Y011543D01*
X064293Y012056D01*
X064196Y012291D01*
X064016Y012471D01*
X063387Y013100D01*
X063860Y013573D01*
X063839Y013522D01*
X063839Y013296D01*
X063925Y013086D01*
X064086Y012926D01*
X064295Y012839D01*
X064849Y012839D01*
X065033Y012655D01*
X065297Y012545D01*
X065452Y012545D01*
X065946Y012052D01*
X065946Y011953D01*
X066043Y011717D01*
X066223Y011537D01*
X066458Y011440D01*
X066599Y011440D01*
X066792Y011360D01*
X068418Y011360D01*
X068418Y009725D01*
X068241Y009548D01*
X067368Y009548D01*
X067175Y009468D01*
X067034Y009468D01*
X066799Y009371D01*
X066618Y009191D01*
X066521Y008956D01*
X066521Y008701D01*
X066618Y008466D01*
X066799Y008286D01*
X067034Y008188D01*
X067175Y008188D01*
X067368Y008108D01*
X068683Y008108D01*
X068947Y008218D01*
X069020Y008290D01*
X069030Y008280D01*
X069265Y008182D01*
X069406Y008182D01*
X069599Y008102D01*
X069886Y008102D01*
X070079Y008182D01*
X070220Y008182D01*
X070455Y008280D01*
X070635Y008460D01*
X070732Y008695D01*
X070732Y008950D01*
X070635Y009185D01*
X070455Y009365D01*
X070220Y009462D01*
X070121Y009462D01*
X069858Y009725D01*
X069858Y011505D01*
X070526Y011505D01*
X070725Y011587D01*
X070877Y011739D01*
X070958Y011820D01*
X070958Y003266D01*
X070589Y003479D01*
X070098Y003591D01*
X069595Y003554D01*
X069127Y003370D01*
X069127Y003370D01*
X068733Y003056D01*
X068733Y003056D01*
X068449Y002639D01*
X068300Y002158D01*
X068300Y001654D01*
X068449Y001173D01*
X068449Y001173D01*
X068575Y000987D01*
X055434Y000987D01*
X055454Y001036D01*
X055454Y001816D01*
X055480Y001754D01*
X055632Y001602D01*
X055831Y001519D01*
X056046Y001519D01*
X056244Y001602D01*
X056396Y001754D01*
X056478Y001952D01*
X056478Y002118D01*
X056505Y002183D01*
X056505Y008563D01*
X056449Y008699D01*
X056259Y008889D01*
X056274Y008903D01*
X056318Y009010D01*
X056318Y009555D01*
X056274Y009662D01*
X056193Y009743D01*
X056098Y009783D01*
X056193Y009822D01*
X056274Y009903D01*
X056318Y010010D01*
X056318Y010555D01*
X056274Y010662D01*
X056193Y010743D01*
X056098Y010783D01*
X056193Y010822D01*
X056274Y010903D01*
X056318Y011010D01*
X056318Y011555D01*
X056274Y011662D01*
X056193Y011743D01*
X056098Y011783D01*
X056193Y011822D01*
X056274Y011903D01*
X056318Y012010D01*
X056318Y012555D01*
X056274Y012662D01*
X056193Y012743D01*
X056098Y012783D01*
X056193Y012822D01*
X056274Y012903D01*
X056318Y013010D01*
X056318Y013555D01*
X056274Y013662D01*
X056193Y013743D01*
X056098Y013783D01*
X056193Y013822D01*
X056274Y013903D01*
X056318Y014010D01*
X056318Y014555D01*
X056274Y014662D01*
X056193Y014743D01*
X056098Y014783D01*
X056193Y014822D01*
X056274Y014903D01*
X056318Y015010D01*
X056318Y015555D01*
X056274Y015662D01*
X056193Y015743D01*
X056098Y015783D01*
X056193Y015822D01*
X056274Y015903D01*
X056318Y016010D01*
X056318Y016555D01*
X056274Y016662D01*
X056193Y016743D01*
X056086Y016788D01*
X055708Y016788D01*
X055358Y017138D01*
X055207Y017200D01*
X053001Y017200D01*
X052996Y017199D01*
X052670Y017199D01*
X052564Y017154D01*
X052482Y017073D01*
X052438Y016966D01*
X052438Y016615D01*
X052469Y016540D01*
X052438Y016466D01*
X052438Y016115D01*
X052469Y016040D01*
X052438Y015966D01*
X052438Y015615D01*
X052469Y015540D01*
X052438Y015466D01*
X052438Y015115D01*
X052469Y015040D01*
X052438Y014966D01*
X052438Y014615D01*
X052469Y014540D01*
X052438Y014466D01*
X052438Y014115D01*
X052469Y014040D01*
X052438Y013966D01*
X052438Y013632D01*
X052104Y013632D01*
X052062Y013614D01*
X052058Y013614D01*
X051922Y013558D01*
X051758Y013394D01*
X051737Y013386D01*
X051633Y013282D01*
X051577Y013146D01*
X051577Y011927D01*
X051633Y011791D01*
X051737Y011687D01*
X052230Y011194D01*
X052366Y011138D01*
X053255Y011138D01*
X054948Y009444D01*
X054948Y009238D01*
X053838Y010348D01*
X053734Y010452D01*
X053598Y010508D01*
X050053Y010508D01*
X050005Y010488D01*
X049766Y010488D01*
X049776Y010499D01*
X049859Y010697D01*
X049859Y010850D01*
X049875Y010866D01*
X050853Y010866D01*
X050982Y010919D01*
X051123Y011060D01*
X051221Y011158D01*
X051251Y011231D01*
X051382Y011362D01*
X051464Y011560D01*
X051464Y011775D01*
X051382Y011974D01*
X051294Y012061D01*
X051294Y014045D01*
X051373Y014045D01*
X051419Y013998D01*
X051555Y013942D01*
X051703Y013942D01*
X051839Y013998D01*
X051943Y014102D01*
X051999Y014238D01*
X051999Y016589D01*
X051943Y016725D01*
X051839Y016829D01*
X051072Y017596D01*
X050936Y017652D01*
X049967Y017652D01*
X049831Y017596D01*
X049727Y017492D01*
X049434Y017199D01*
X049137Y017199D01*
X049030Y017154D01*
X048949Y017073D01*
X048905Y016966D01*
X048905Y016615D01*
X048935Y016540D01*
X048905Y016466D01*
X048905Y016292D01*
X048869Y016327D01*
X048869Y016821D01*
X048825Y016927D01*
X048744Y017009D01*
X048637Y017053D01*
X047813Y017053D01*
X047706Y017009D01*
X047625Y016927D01*
X047581Y016821D01*
X047581Y016075D01*
X047625Y015969D01*
X047697Y015897D01*
X047625Y015825D01*
X047581Y015718D01*
X047581Y014973D01*
X047604Y014915D01*
X047155Y014915D01*
X047155Y014999D02*
X047581Y014999D01*
X047581Y015098D02*
X047155Y015098D01*
X047155Y015196D02*
X047581Y015196D01*
X047581Y015295D02*
X047155Y015295D01*
X047155Y015393D02*
X047581Y015393D01*
X047581Y015492D02*
X047155Y015492D01*
X047155Y015590D02*
X047581Y015590D01*
X047581Y015689D02*
X047155Y015689D01*
X047155Y015787D02*
X047609Y015787D01*
X047686Y015886D02*
X047155Y015886D01*
X047155Y015984D02*
X047618Y015984D01*
X047581Y016083D02*
X047155Y016083D01*
X047155Y016181D02*
X047581Y016181D01*
X047581Y016280D02*
X047155Y016280D01*
X047155Y016378D02*
X047581Y016378D01*
X047581Y016477D02*
X047155Y016477D01*
X047155Y016575D02*
X047581Y016575D01*
X047581Y016674D02*
X047155Y016674D01*
X047140Y016772D02*
X047581Y016772D01*
X047601Y016871D02*
X047099Y016871D01*
X047019Y016969D02*
X047667Y016969D01*
X046920Y017068D02*
X048947Y017068D01*
X048906Y016969D02*
X048783Y016969D01*
X048849Y016871D02*
X048905Y016871D01*
X048905Y016772D02*
X048869Y016772D01*
X048869Y016674D02*
X048905Y016674D01*
X048921Y016575D02*
X048869Y016575D01*
X048869Y016477D02*
X048909Y016477D01*
X048905Y016378D02*
X048869Y016378D01*
X049059Y017166D02*
X046822Y017166D01*
X046723Y017265D02*
X049500Y017265D01*
X049598Y017363D02*
X046625Y017363D01*
X046526Y017462D02*
X049697Y017462D01*
X049795Y017560D02*
X046428Y017560D01*
X046329Y017659D02*
X054901Y017659D01*
X054803Y017757D02*
X046231Y017757D01*
X046060Y017856D02*
X050876Y017856D01*
X050702Y017954D02*
X045555Y017954D01*
X045590Y018053D02*
X050603Y018053D01*
X050505Y018151D02*
X045590Y018151D01*
X045590Y018250D02*
X050406Y018250D01*
X050308Y018348D02*
X045590Y018348D01*
X045590Y018447D02*
X050209Y018447D01*
X049845Y018545D02*
X049532Y018545D01*
X049680Y018644D02*
X049697Y018644D01*
X048742Y018545D02*
X045622Y018545D01*
X051107Y017560D02*
X055000Y017560D01*
X055098Y017462D02*
X051206Y017462D01*
X051304Y017363D02*
X060624Y017363D01*
X060624Y017265D02*
X051403Y017265D01*
X051501Y017166D02*
X052592Y017166D01*
X052480Y017068D02*
X051600Y017068D01*
X051698Y016969D02*
X052439Y016969D01*
X052438Y016871D02*
X051797Y016871D01*
X051895Y016772D02*
X052438Y016772D01*
X052438Y016674D02*
X051964Y016674D01*
X051999Y016575D02*
X052454Y016575D01*
X052442Y016477D02*
X051999Y016477D01*
X051999Y016378D02*
X052438Y016378D01*
X052438Y016280D02*
X051999Y016280D01*
X051999Y016181D02*
X052438Y016181D01*
X052451Y016083D02*
X051999Y016083D01*
X051999Y015984D02*
X052445Y015984D01*
X052438Y015886D02*
X051999Y015886D01*
X051999Y015787D02*
X052438Y015787D01*
X052438Y015689D02*
X051999Y015689D01*
X051999Y015590D02*
X052448Y015590D01*
X052449Y015492D02*
X051999Y015492D01*
X051999Y015393D02*
X052438Y015393D01*
X052438Y015295D02*
X051999Y015295D01*
X051999Y015196D02*
X052438Y015196D01*
X052445Y015098D02*
X051999Y015098D01*
X051999Y014999D02*
X052452Y014999D01*
X052438Y014901D02*
X051999Y014901D01*
X051999Y014802D02*
X052438Y014802D01*
X052438Y014704D02*
X051999Y014704D01*
X051999Y014605D02*
X052442Y014605D01*
X052455Y014507D02*
X051999Y014507D01*
X051999Y014408D02*
X052438Y014408D01*
X052438Y014310D02*
X051999Y014310D01*
X051988Y014211D02*
X052438Y014211D01*
X052439Y014113D02*
X051947Y014113D01*
X051855Y014014D02*
X052458Y014014D01*
X052438Y013916D02*
X051294Y013916D01*
X051294Y014014D02*
X051404Y014014D01*
X051294Y013817D02*
X052438Y013817D01*
X052438Y013719D02*
X051294Y013719D01*
X051294Y013620D02*
X052076Y013620D01*
X051886Y013522D02*
X051294Y013522D01*
X051294Y013423D02*
X051787Y013423D01*
X051676Y013325D02*
X051294Y013325D01*
X051294Y013226D02*
X051610Y013226D01*
X051577Y013128D02*
X051294Y013128D01*
X051294Y013029D02*
X051577Y013029D01*
X051577Y012931D02*
X051294Y012931D01*
X051294Y012832D02*
X051577Y012832D01*
X051577Y012734D02*
X051294Y012734D01*
X051294Y012635D02*
X051577Y012635D01*
X051577Y012537D02*
X051294Y012537D01*
X051294Y012438D02*
X051577Y012438D01*
X051577Y012340D02*
X051294Y012340D01*
X051294Y012241D02*
X051577Y012241D01*
X051577Y012143D02*
X051294Y012143D01*
X051312Y012044D02*
X051577Y012044D01*
X051577Y011946D02*
X051394Y011946D01*
X051434Y011847D02*
X051610Y011847D01*
X051675Y011749D02*
X051464Y011749D01*
X051464Y011650D02*
X051774Y011650D01*
X051872Y011552D02*
X051461Y011552D01*
X051420Y011453D02*
X051971Y011453D01*
X052069Y011355D02*
X051375Y011355D01*
X051276Y011256D02*
X052168Y011256D01*
X052317Y011158D02*
X051221Y011158D01*
X051122Y011059D02*
X053333Y011059D01*
X053432Y010961D02*
X051024Y010961D01*
X049871Y010862D02*
X053530Y010862D01*
X053629Y010764D02*
X049859Y010764D01*
X049845Y010665D02*
X053727Y010665D01*
X053826Y010567D02*
X049804Y010567D01*
X052317Y012154D02*
X052593Y011878D01*
X053482Y011878D01*
X053618Y011821D01*
X053722Y011717D01*
X054257Y011182D01*
X054234Y011238D01*
X054234Y012114D01*
X053587Y012761D01*
X053587Y012653D01*
X053576Y012614D01*
X053557Y012580D01*
X053529Y012552D01*
X053495Y012533D01*
X053456Y012522D01*
X053091Y012522D01*
X053091Y012781D01*
X053073Y012781D01*
X053073Y012522D01*
X052708Y012522D01*
X052670Y012533D01*
X052636Y012552D01*
X052608Y012580D01*
X052588Y012614D01*
X052578Y012653D01*
X052578Y012781D01*
X053073Y012781D01*
X053073Y012799D01*
X052578Y012799D01*
X052578Y012892D01*
X052317Y012892D01*
X052317Y012154D01*
X052328Y012143D02*
X054205Y012143D01*
X054234Y012044D02*
X052426Y012044D01*
X052525Y011946D02*
X054234Y011946D01*
X054234Y011847D02*
X053555Y011847D01*
X053690Y011749D02*
X054234Y011749D01*
X054234Y011650D02*
X053789Y011650D01*
X053887Y011552D02*
X054234Y011552D01*
X054234Y011453D02*
X053986Y011453D01*
X054084Y011355D02*
X054234Y011355D01*
X054234Y011256D02*
X054183Y011256D01*
X056144Y010764D02*
X062113Y010764D01*
X062014Y010862D02*
X056233Y010862D01*
X056298Y010961D02*
X058673Y010961D01*
X058686Y010948D02*
X058720Y010928D01*
X058758Y010918D01*
X059123Y010918D01*
X059123Y011233D01*
X058628Y011233D01*
X058628Y011048D01*
X058638Y011010D01*
X058658Y010975D01*
X058686Y010948D01*
X058628Y011059D02*
X056318Y011059D01*
X056318Y011158D02*
X058628Y011158D01*
X058628Y011333D02*
X059123Y011333D01*
X059123Y011648D01*
X058758Y011648D01*
X058720Y011637D01*
X058686Y011618D01*
X058658Y011590D01*
X058638Y011555D01*
X058628Y011517D01*
X058628Y011333D01*
X058628Y011355D02*
X056318Y011355D01*
X056318Y011453D02*
X058628Y011453D01*
X058637Y011552D02*
X056318Y011552D01*
X056279Y011650D02*
X061727Y011650D01*
X061727Y011552D02*
X059709Y011552D01*
X059708Y011555D02*
X059688Y011590D01*
X059660Y011618D01*
X059626Y011637D01*
X059588Y011648D01*
X059223Y011648D01*
X059223Y011333D01*
X059123Y011333D01*
X059123Y011233D01*
X059223Y011233D01*
X059223Y011333D01*
X059718Y011333D01*
X059718Y011517D01*
X059708Y011555D01*
X059718Y011453D02*
X061727Y011453D01*
X061727Y011355D02*
X059718Y011355D01*
X059718Y011233D02*
X059223Y011233D01*
X059223Y010918D01*
X059588Y010918D01*
X059626Y010928D01*
X059660Y010948D01*
X059688Y010975D01*
X059708Y011010D01*
X059718Y011048D01*
X059718Y011233D01*
X059718Y011158D02*
X061727Y011158D01*
X061727Y011256D02*
X059223Y011256D01*
X059223Y011158D02*
X059123Y011158D01*
X059123Y011256D02*
X056318Y011256D01*
X056180Y011749D02*
X061729Y011749D01*
X061828Y011847D02*
X056218Y011847D01*
X056292Y011946D02*
X058689Y011946D01*
X058686Y011948D02*
X058720Y011928D01*
X058758Y011918D01*
X059123Y011918D01*
X059123Y012233D01*
X058628Y012233D01*
X058628Y012048D01*
X058638Y012010D01*
X058658Y011975D01*
X058686Y011948D01*
X058629Y012044D02*
X056318Y012044D01*
X056318Y012143D02*
X058628Y012143D01*
X058628Y012333D02*
X059123Y012333D01*
X059123Y012648D01*
X058758Y012648D01*
X058720Y012637D01*
X058686Y012618D01*
X058658Y012590D01*
X058638Y012555D01*
X058628Y012517D01*
X058628Y012333D01*
X058628Y012340D02*
X056318Y012340D01*
X056318Y012438D02*
X058628Y012438D01*
X058633Y012537D02*
X056318Y012537D01*
X056285Y012635D02*
X058717Y012635D01*
X058758Y012918D02*
X059123Y012918D01*
X059123Y013233D01*
X058628Y013233D01*
X058628Y013048D01*
X058638Y013010D01*
X058658Y012975D01*
X058686Y012948D01*
X058720Y012928D01*
X058758Y012918D01*
X058715Y012931D02*
X056285Y012931D01*
X056318Y013029D02*
X058633Y013029D01*
X058628Y013128D02*
X056318Y013128D01*
X056318Y013226D02*
X058628Y013226D01*
X058628Y013333D02*
X059123Y013333D01*
X059123Y013648D01*
X058758Y013648D01*
X058720Y013637D01*
X058686Y013618D01*
X058658Y013590D01*
X058638Y013555D01*
X058628Y013517D01*
X058628Y013333D01*
X058628Y013423D02*
X056318Y013423D01*
X056318Y013325D02*
X059123Y013325D01*
X059123Y013333D02*
X059123Y013233D01*
X059223Y013233D01*
X059223Y013333D01*
X059123Y013333D01*
X059123Y013423D02*
X059223Y013423D01*
X059223Y013333D02*
X059223Y013648D01*
X059588Y013648D01*
X059626Y013637D01*
X059660Y013618D01*
X059688Y013590D01*
X059708Y013555D01*
X059718Y013517D01*
X059718Y013333D01*
X059223Y013333D01*
X059223Y013325D02*
X061820Y013325D01*
X061791Y013226D02*
X059718Y013226D01*
X059718Y013233D02*
X059718Y013048D01*
X059708Y013010D01*
X059688Y012975D01*
X059660Y012948D01*
X059626Y012928D01*
X059588Y012918D01*
X059223Y012918D01*
X059223Y013233D01*
X059718Y013233D01*
X059718Y013128D02*
X061791Y013128D01*
X061791Y013029D02*
X059713Y013029D01*
X059631Y012931D02*
X061814Y012931D01*
X061845Y012832D02*
X056203Y012832D01*
X056202Y012734D02*
X061901Y012734D01*
X061999Y012635D02*
X059630Y012635D01*
X059626Y012637D02*
X059588Y012648D01*
X059223Y012648D01*
X059223Y012333D01*
X059123Y012333D01*
X059123Y012233D01*
X059223Y012233D01*
X059223Y012333D01*
X059718Y012333D01*
X059718Y012517D01*
X059708Y012555D01*
X059688Y012590D01*
X059660Y012618D01*
X059626Y012637D01*
X059713Y012537D02*
X062121Y012537D01*
X062239Y012438D02*
X059718Y012438D01*
X059718Y012340D02*
X062337Y012340D01*
X062436Y012241D02*
X059223Y012241D01*
X059223Y012233D02*
X059718Y012233D01*
X059718Y012048D01*
X059708Y012010D01*
X059688Y011975D01*
X059660Y011948D01*
X059626Y011928D01*
X059588Y011918D01*
X059223Y011918D01*
X059223Y012233D01*
X059223Y012143D02*
X059123Y012143D01*
X059123Y012241D02*
X056318Y012241D01*
X054106Y012241D02*
X052317Y012241D01*
X052317Y012340D02*
X054008Y012340D01*
X053909Y012438D02*
X052317Y012438D01*
X052317Y012537D02*
X052663Y012537D01*
X052583Y012635D02*
X052317Y012635D01*
X052317Y012734D02*
X052578Y012734D01*
X052578Y012832D02*
X052317Y012832D01*
X053073Y012734D02*
X053091Y012734D01*
X053091Y012635D02*
X053073Y012635D01*
X053073Y012537D02*
X053091Y012537D01*
X053502Y012537D02*
X053811Y012537D01*
X053712Y012635D02*
X053582Y012635D01*
X053587Y012734D02*
X053614Y012734D01*
X056217Y013719D02*
X062110Y013719D01*
X062012Y013620D02*
X059656Y013620D01*
X059717Y013522D02*
X061913Y013522D01*
X061857Y013423D02*
X059718Y013423D01*
X059223Y013522D02*
X059123Y013522D01*
X059123Y013620D02*
X059223Y013620D01*
X059223Y013918D02*
X059588Y013918D01*
X059626Y013928D01*
X059660Y013948D01*
X059688Y013975D01*
X059708Y014010D01*
X059718Y014048D01*
X059718Y014233D01*
X059223Y014233D01*
X059223Y014333D01*
X059123Y014333D01*
X059123Y014648D01*
X058758Y014648D01*
X058720Y014637D01*
X058686Y014618D01*
X058658Y014590D01*
X058638Y014555D01*
X058628Y014517D01*
X058628Y014333D01*
X059123Y014333D01*
X059123Y014233D01*
X058628Y014233D01*
X058628Y014048D01*
X058638Y014010D01*
X058658Y013975D01*
X058686Y013948D01*
X058720Y013928D01*
X058758Y013918D01*
X059123Y013918D01*
X059123Y014233D01*
X059223Y014233D01*
X059223Y013918D01*
X059223Y014014D02*
X059123Y014014D01*
X059123Y014113D02*
X059223Y014113D01*
X059223Y014211D02*
X059123Y014211D01*
X059123Y014310D02*
X056318Y014310D01*
X056318Y014408D02*
X058628Y014408D01*
X058628Y014507D02*
X056318Y014507D01*
X056298Y014605D02*
X058674Y014605D01*
X058758Y014918D02*
X059123Y014918D01*
X059123Y015233D01*
X058628Y015233D01*
X058628Y015048D01*
X058638Y015010D01*
X058658Y014975D01*
X058686Y014948D01*
X058720Y014928D01*
X058758Y014918D01*
X058645Y014999D02*
X056314Y014999D01*
X056318Y015098D02*
X058628Y015098D01*
X058628Y015196D02*
X056318Y015196D01*
X056318Y015295D02*
X059123Y015295D01*
X059123Y015333D02*
X059123Y015233D01*
X059223Y015233D01*
X059223Y015333D01*
X059123Y015333D01*
X059123Y015648D01*
X058758Y015648D01*
X058720Y015637D01*
X058686Y015618D01*
X058658Y015590D01*
X058638Y015555D01*
X058628Y015517D01*
X058628Y015333D01*
X059123Y015333D01*
X059123Y015393D02*
X059223Y015393D01*
X059223Y015333D02*
X059223Y015648D01*
X059588Y015648D01*
X059626Y015637D01*
X059660Y015618D01*
X059688Y015590D01*
X063867Y015590D01*
X063839Y015492D02*
X059718Y015492D01*
X059718Y015517D02*
X059708Y015555D01*
X059688Y015590D01*
X059718Y015517D02*
X059718Y015333D01*
X059223Y015333D01*
X059223Y015295D02*
X062116Y015295D01*
X062017Y015196D02*
X059718Y015196D01*
X059718Y015233D02*
X059718Y015048D01*
X059708Y015010D01*
X059688Y014975D01*
X059660Y014948D01*
X059626Y014928D01*
X059588Y014918D01*
X059223Y014918D01*
X059223Y015233D01*
X059718Y015233D01*
X059718Y015098D02*
X061919Y015098D01*
X061820Y014999D02*
X059702Y014999D01*
X059223Y014999D02*
X059123Y014999D01*
X059123Y015098D02*
X059223Y015098D01*
X059223Y015196D02*
X059123Y015196D01*
X059123Y015492D02*
X059223Y015492D01*
X059223Y015590D02*
X059123Y015590D01*
X058659Y015590D02*
X056304Y015590D01*
X056318Y015492D02*
X058628Y015492D01*
X058628Y015393D02*
X056318Y015393D01*
X056247Y015689D02*
X063908Y015689D01*
X063981Y015787D02*
X056109Y015787D01*
X056256Y015886D02*
X064079Y015886D01*
X063839Y015393D02*
X059718Y015393D01*
X059588Y015918D02*
X059223Y015918D01*
X059223Y016233D01*
X059223Y016333D01*
X059123Y016333D01*
X059123Y016648D01*
X058758Y016648D01*
X058720Y016637D01*
X058686Y016618D01*
X058658Y016590D01*
X058638Y016555D01*
X058628Y016517D01*
X058628Y016333D01*
X059123Y016333D01*
X059123Y016233D01*
X058628Y016233D01*
X058628Y016048D01*
X058638Y016010D01*
X058658Y015975D01*
X058686Y015948D01*
X058720Y015928D01*
X058758Y015918D01*
X059123Y015918D01*
X059123Y016233D01*
X059223Y016233D01*
X059718Y016233D01*
X059718Y016048D01*
X059708Y016010D01*
X059688Y015975D01*
X059660Y015948D01*
X059626Y015928D01*
X059588Y015918D01*
X059693Y015984D02*
X069877Y015984D01*
X069779Y016083D02*
X059718Y016083D01*
X059718Y016181D02*
X069680Y016181D01*
X069582Y016280D02*
X059223Y016280D01*
X059223Y016333D02*
X059718Y016333D01*
X059718Y016517D01*
X059708Y016555D01*
X059688Y016590D01*
X059660Y016618D01*
X059626Y016637D01*
X059588Y016648D01*
X059223Y016648D01*
X059223Y016333D01*
X059223Y016378D02*
X059123Y016378D01*
X059123Y016280D02*
X056318Y016280D01*
X056318Y016378D02*
X058628Y016378D01*
X058628Y016477D02*
X056318Y016477D01*
X056310Y016575D02*
X058650Y016575D01*
X059123Y016575D02*
X059223Y016575D01*
X059223Y016477D02*
X059123Y016477D01*
X059123Y016181D02*
X059223Y016181D01*
X059223Y016083D02*
X059123Y016083D01*
X059123Y015984D02*
X059223Y015984D01*
X058653Y015984D02*
X056308Y015984D01*
X056318Y016083D02*
X058628Y016083D01*
X058628Y016181D02*
X056318Y016181D01*
X056262Y016674D02*
X062277Y016674D01*
X062375Y016575D02*
X059697Y016575D01*
X059718Y016477D02*
X062474Y016477D01*
X062572Y016378D02*
X059718Y016378D01*
X060665Y016871D02*
X055625Y016871D01*
X055526Y016969D02*
X060624Y016969D01*
X060624Y017068D02*
X055428Y017068D01*
X055290Y017166D02*
X060624Y017166D01*
X060775Y016772D02*
X056123Y016772D01*
X055862Y017462D02*
X060624Y017462D01*
X060624Y017560D02*
X055961Y017560D01*
X056059Y017659D02*
X056554Y017659D01*
X056456Y017757D02*
X056158Y017757D01*
X056256Y017856D02*
X056357Y017856D01*
X057456Y017659D02*
X060624Y017659D01*
X060624Y017757D02*
X057554Y017757D01*
X057653Y017856D02*
X060649Y017856D01*
X060702Y017954D02*
X057751Y017954D01*
X061683Y016772D02*
X061877Y016772D01*
X065298Y015886D02*
X069976Y015886D01*
X070074Y015787D02*
X067710Y015787D01*
X067362Y015787D02*
X065396Y015787D01*
X065470Y015689D02*
X066983Y015689D01*
X066791Y015590D02*
X065511Y015590D01*
X065539Y015492D02*
X066692Y015492D01*
X066623Y015393D02*
X065539Y015393D01*
X065538Y015295D02*
X066582Y015295D01*
X066546Y015196D02*
X065498Y015196D01*
X063921Y015098D02*
X063002Y015098D01*
X062904Y015196D02*
X063880Y015196D01*
X063839Y015295D02*
X062805Y015295D01*
X063101Y014999D02*
X063422Y014999D01*
X063292Y014901D02*
X063181Y014901D01*
X063181Y014802D02*
X063194Y014802D01*
X061741Y014802D02*
X056145Y014802D01*
X056232Y014704D02*
X061741Y014704D01*
X061741Y014605D02*
X059673Y014605D01*
X059660Y014618D02*
X059626Y014637D01*
X059588Y014648D01*
X059223Y014648D01*
X059223Y014333D01*
X059718Y014333D01*
X059718Y014517D01*
X059708Y014555D01*
X059688Y014590D01*
X059660Y014618D01*
X059718Y014507D02*
X061741Y014507D01*
X061741Y014408D02*
X059718Y014408D01*
X059718Y014211D02*
X061852Y014211D01*
X061754Y014310D02*
X059223Y014310D01*
X059223Y014408D02*
X059123Y014408D01*
X059123Y014507D02*
X059223Y014507D01*
X059223Y014605D02*
X059123Y014605D01*
X058628Y014211D02*
X056318Y014211D01*
X056318Y014113D02*
X058628Y014113D01*
X058637Y014014D02*
X056318Y014014D01*
X056279Y013916D02*
X062148Y013916D01*
X062209Y013817D02*
X056182Y013817D01*
X056291Y013620D02*
X058691Y013620D01*
X058629Y013522D02*
X056318Y013522D01*
X059123Y013226D02*
X059223Y013226D01*
X059223Y013128D02*
X059123Y013128D01*
X059123Y013029D02*
X059223Y013029D01*
X059223Y012931D02*
X059123Y012931D01*
X059123Y012635D02*
X059223Y012635D01*
X059223Y012537D02*
X059123Y012537D01*
X059123Y012438D02*
X059223Y012438D01*
X059223Y012340D02*
X059123Y012340D01*
X059123Y012044D02*
X059223Y012044D01*
X059223Y011946D02*
X059123Y011946D01*
X059657Y011946D02*
X061926Y011946D01*
X062025Y012044D02*
X059717Y012044D01*
X059718Y012143D02*
X062123Y012143D01*
X063655Y012832D02*
X064855Y012832D01*
X064954Y012734D02*
X063753Y012734D01*
X063852Y012635D02*
X065080Y012635D01*
X065461Y012537D02*
X063950Y012537D01*
X064049Y012438D02*
X065559Y012438D01*
X065658Y012340D02*
X064147Y012340D01*
X064217Y012241D02*
X065756Y012241D01*
X065855Y012143D02*
X064257Y012143D01*
X064293Y012044D02*
X065946Y012044D01*
X065949Y011946D02*
X064293Y011946D01*
X064293Y011847D02*
X065989Y011847D01*
X066030Y011749D02*
X064293Y011749D01*
X064293Y011650D02*
X066110Y011650D01*
X066209Y011552D02*
X065149Y011552D01*
X065356Y011453D02*
X066426Y011453D01*
X065560Y011158D02*
X068418Y011158D01*
X068418Y011256D02*
X065519Y011256D01*
X065455Y011355D02*
X068418Y011355D01*
X068418Y011059D02*
X065582Y011059D01*
X065582Y010961D02*
X068418Y010961D01*
X068418Y010862D02*
X065575Y010862D01*
X065535Y010764D02*
X068418Y010764D01*
X068418Y010665D02*
X065492Y010665D01*
X065393Y010567D02*
X068418Y010567D01*
X068418Y010468D02*
X065341Y010468D01*
X065440Y010370D02*
X068418Y010370D01*
X068418Y010271D02*
X065513Y010271D01*
X065554Y010173D02*
X068418Y010173D01*
X068418Y010074D02*
X065582Y010074D01*
X065582Y009976D02*
X068418Y009976D01*
X068418Y009877D02*
X065582Y009877D01*
X065541Y009779D02*
X068418Y009779D01*
X068373Y009680D02*
X065500Y009680D01*
X065408Y009582D02*
X068275Y009582D01*
X067211Y009483D02*
X065314Y009483D01*
X065425Y009385D02*
X066832Y009385D01*
X066714Y009286D02*
X065507Y009286D01*
X065548Y009188D02*
X066617Y009188D01*
X066576Y009089D02*
X065582Y009089D01*
X065582Y008991D02*
X066536Y008991D01*
X066521Y008892D02*
X065582Y008892D01*
X065547Y008794D02*
X066521Y008794D01*
X066523Y008695D02*
X065506Y008695D01*
X065423Y008597D02*
X066564Y008597D01*
X066605Y008498D02*
X065311Y008498D01*
X064271Y008400D02*
X066685Y008400D01*
X066783Y008301D02*
X064271Y008301D01*
X064271Y008203D02*
X066999Y008203D01*
X068911Y008203D02*
X069216Y008203D01*
X069595Y008104D02*
X064271Y008104D01*
X064271Y008006D02*
X070958Y008006D01*
X070958Y008104D02*
X069890Y008104D01*
X070269Y008203D02*
X070958Y008203D01*
X070958Y008301D02*
X070476Y008301D01*
X070575Y008400D02*
X070958Y008400D01*
X070958Y008498D02*
X070651Y008498D01*
X070692Y008597D02*
X070958Y008597D01*
X070958Y008695D02*
X070732Y008695D01*
X070732Y008794D02*
X070958Y008794D01*
X070958Y008892D02*
X070732Y008892D01*
X070715Y008991D02*
X070958Y008991D01*
X070958Y009089D02*
X070675Y009089D01*
X070632Y009188D02*
X070958Y009188D01*
X070958Y009286D02*
X070534Y009286D01*
X070407Y009385D02*
X070958Y009385D01*
X070958Y009483D02*
X070100Y009483D01*
X070001Y009582D02*
X070958Y009582D01*
X070958Y009680D02*
X069903Y009680D01*
X069858Y009779D02*
X070958Y009779D01*
X070958Y009877D02*
X069858Y009877D01*
X069858Y009976D02*
X070958Y009976D01*
X070958Y010074D02*
X069858Y010074D01*
X069858Y010173D02*
X070958Y010173D01*
X070958Y010271D02*
X069858Y010271D01*
X069858Y010370D02*
X070958Y010370D01*
X070958Y010468D02*
X069858Y010468D01*
X069858Y010567D02*
X070958Y010567D01*
X070958Y010665D02*
X069858Y010665D01*
X069858Y010764D02*
X070958Y010764D01*
X070958Y010862D02*
X069858Y010862D01*
X069858Y010961D02*
X070958Y010961D01*
X070958Y011059D02*
X069858Y011059D01*
X069858Y011158D02*
X070958Y011158D01*
X070958Y011256D02*
X069858Y011256D01*
X069858Y011355D02*
X070958Y011355D01*
X070958Y011453D02*
X069858Y011453D01*
X070639Y011552D02*
X070958Y011552D01*
X070958Y011650D02*
X070788Y011650D01*
X070886Y011749D02*
X070958Y011749D01*
X064315Y011552D02*
X064293Y011552D01*
X063013Y010961D02*
X062978Y010961D01*
X063013Y010862D02*
X062879Y010862D01*
X062781Y010764D02*
X063013Y010764D01*
X063013Y010665D02*
X056271Y010665D01*
X056314Y010567D02*
X058645Y010567D01*
X058638Y010555D02*
X058658Y010590D01*
X058686Y010618D01*
X058720Y010637D01*
X058758Y010648D01*
X059123Y010648D01*
X059123Y010333D01*
X059223Y010333D01*
X059223Y010648D01*
X059588Y010648D01*
X059626Y010637D01*
X059660Y010618D01*
X059688Y010590D01*
X059708Y010555D01*
X059718Y010517D01*
X059718Y010333D01*
X059223Y010333D01*
X059223Y010233D01*
X059718Y010233D01*
X059718Y010048D01*
X059708Y010010D01*
X059688Y009975D01*
X059660Y009948D01*
X059626Y009928D01*
X059588Y009918D01*
X059223Y009918D01*
X059223Y010233D01*
X059123Y010233D01*
X058628Y010233D01*
X058628Y010048D01*
X058638Y010010D01*
X058658Y009975D01*
X058686Y009948D01*
X058720Y009928D01*
X058758Y009918D01*
X059123Y009918D01*
X059123Y010233D01*
X059123Y010333D01*
X058628Y010333D01*
X058628Y010517D01*
X058638Y010555D01*
X058628Y010468D02*
X056318Y010468D01*
X056318Y010370D02*
X058628Y010370D01*
X058628Y010173D02*
X056318Y010173D01*
X056318Y010271D02*
X059123Y010271D01*
X059123Y010173D02*
X059223Y010173D01*
X059223Y010271D02*
X061855Y010271D01*
X061807Y010173D02*
X059718Y010173D01*
X059718Y010074D02*
X061777Y010074D01*
X061777Y009976D02*
X059688Y009976D01*
X059588Y009648D02*
X059223Y009648D01*
X059223Y009333D01*
X059123Y009333D01*
X059123Y009648D01*
X058758Y009648D01*
X058720Y009637D01*
X058686Y009618D01*
X058658Y009590D01*
X058638Y009555D01*
X058628Y009517D01*
X058628Y009333D01*
X059123Y009333D01*
X059123Y009233D01*
X058628Y009233D01*
X058628Y009048D01*
X058638Y009010D01*
X058658Y008975D01*
X058686Y008948D01*
X058720Y008928D01*
X058758Y008918D01*
X059123Y008918D01*
X059123Y009233D01*
X059223Y009233D01*
X059223Y009333D01*
X059718Y009333D01*
X059718Y009517D01*
X059708Y009555D01*
X059688Y009590D01*
X059660Y009618D01*
X059626Y009637D01*
X059588Y009648D01*
X059693Y009582D02*
X061873Y009582D01*
X061810Y009680D02*
X056256Y009680D01*
X056307Y009582D02*
X058654Y009582D01*
X058628Y009483D02*
X056318Y009483D01*
X056318Y009385D02*
X058628Y009385D01*
X058628Y009188D02*
X056318Y009188D01*
X056318Y009286D02*
X059123Y009286D01*
X059123Y009188D02*
X059223Y009188D01*
X059223Y009233D02*
X059223Y008918D01*
X059588Y008918D01*
X059626Y008928D01*
X059660Y008948D01*
X059688Y008975D01*
X059708Y009010D01*
X059718Y009048D01*
X059718Y009233D01*
X059223Y009233D01*
X059223Y009286D02*
X062204Y009286D01*
X062302Y009188D02*
X059718Y009188D01*
X059718Y009089D02*
X062401Y009089D01*
X062499Y008991D02*
X059697Y008991D01*
X059718Y009385D02*
X062063Y009385D01*
X061964Y009483D02*
X059718Y009483D01*
X059223Y009483D02*
X059123Y009483D01*
X059123Y009385D02*
X059223Y009385D01*
X059223Y009582D02*
X059123Y009582D01*
X059123Y009976D02*
X059223Y009976D01*
X059223Y010074D02*
X059123Y010074D01*
X058658Y009976D02*
X056304Y009976D01*
X056318Y010074D02*
X058628Y010074D01*
X059123Y010370D02*
X059223Y010370D01*
X059223Y010468D02*
X059123Y010468D01*
X059123Y010567D02*
X059223Y010567D01*
X059223Y010961D02*
X059123Y010961D01*
X059123Y011059D02*
X059223Y011059D01*
X059223Y011355D02*
X059123Y011355D01*
X059123Y011453D02*
X059223Y011453D01*
X059223Y011552D02*
X059123Y011552D01*
X059718Y011059D02*
X061817Y011059D01*
X061916Y010961D02*
X059673Y010961D01*
X059702Y010567D02*
X062128Y010567D01*
X062019Y010468D02*
X059718Y010468D01*
X059718Y010370D02*
X061921Y010370D01*
X061777Y009877D02*
X056248Y009877D01*
X056107Y009779D02*
X061792Y009779D01*
X062598Y008892D02*
X056263Y008892D01*
X056310Y008991D02*
X058649Y008991D01*
X058628Y009089D02*
X056318Y009089D01*
X056354Y008794D02*
X062696Y008794D01*
X062795Y008695D02*
X056451Y008695D01*
X056491Y008597D02*
X062893Y008597D01*
X062991Y008498D02*
X056505Y008498D01*
X056505Y008400D02*
X062135Y008400D01*
X062037Y008301D02*
X056505Y008301D01*
X056505Y008203D02*
X061938Y008203D01*
X061840Y008104D02*
X056505Y008104D01*
X056505Y008006D02*
X061741Y008006D01*
X061735Y007907D02*
X056505Y007907D01*
X056505Y007809D02*
X061735Y007809D01*
X061735Y007710D02*
X056505Y007710D01*
X056505Y007612D02*
X061735Y007612D01*
X061735Y007513D02*
X056505Y007513D01*
X056505Y007415D02*
X061735Y007415D01*
X061822Y007316D02*
X056505Y007316D01*
X056505Y007218D02*
X061921Y007218D01*
X062019Y007119D02*
X056505Y007119D01*
X056505Y007021D02*
X062118Y007021D01*
X062172Y006824D02*
X056505Y006824D01*
X056505Y006922D02*
X062991Y006922D01*
X062991Y006824D02*
X062738Y006824D01*
X062879Y006725D02*
X062991Y006725D01*
X062977Y006627D02*
X062991Y006627D01*
X062031Y006725D02*
X056505Y006725D01*
X056505Y006627D02*
X061933Y006627D01*
X061865Y006528D02*
X056505Y006528D01*
X056505Y006430D02*
X061815Y006430D01*
X061785Y006331D02*
X056505Y006331D01*
X056505Y006233D02*
X061785Y006233D01*
X061785Y006134D02*
X056505Y006134D01*
X056505Y006036D02*
X061799Y006036D01*
X061815Y005937D02*
X056505Y005937D01*
X056505Y005839D02*
X061880Y005839D01*
X061969Y005740D02*
X056505Y005740D01*
X056505Y005642D02*
X062067Y005642D01*
X062166Y005543D02*
X056505Y005543D01*
X056505Y005445D02*
X062264Y005445D01*
X062363Y005346D02*
X056505Y005346D01*
X056505Y005248D02*
X062461Y005248D01*
X062560Y005149D02*
X056505Y005149D01*
X056505Y005051D02*
X062658Y005051D01*
X062867Y004952D02*
X056505Y004952D01*
X056505Y004854D02*
X063968Y004854D01*
X063928Y004755D02*
X056505Y004755D01*
X056505Y004657D02*
X063909Y004657D01*
X063909Y004558D02*
X056505Y004558D01*
X056505Y004460D02*
X063920Y004460D01*
X063961Y004361D02*
X062772Y004361D01*
X062870Y004263D02*
X064009Y004263D01*
X064107Y004164D02*
X062969Y004164D01*
X063067Y004066D02*
X063541Y004066D01*
X063328Y003967D02*
X063166Y003967D01*
X063182Y003869D02*
X063230Y003869D01*
X062152Y004361D02*
X056505Y004361D01*
X056505Y004263D02*
X062053Y004263D01*
X061955Y004164D02*
X056505Y004164D01*
X056505Y004066D02*
X061856Y004066D01*
X061758Y003967D02*
X056505Y003967D01*
X056505Y003869D02*
X061742Y003869D01*
X061742Y003770D02*
X056505Y003770D01*
X056505Y003672D02*
X061742Y003672D01*
X061742Y003573D02*
X056505Y003573D01*
X056505Y003475D02*
X061742Y003475D01*
X061742Y003376D02*
X056505Y003376D01*
X056505Y003278D02*
X061819Y003278D01*
X061917Y003179D02*
X056505Y003179D01*
X056505Y003081D02*
X062016Y003081D01*
X062114Y002982D02*
X056505Y002982D01*
X056505Y002884D02*
X062245Y002884D01*
X062146Y002785D02*
X056505Y002785D01*
X056505Y002687D02*
X062048Y002687D01*
X061949Y002588D02*
X056505Y002588D01*
X056505Y002490D02*
X061876Y002490D01*
X061822Y002391D02*
X056505Y002391D01*
X056505Y002293D02*
X061794Y002293D01*
X061792Y002194D02*
X056505Y002194D01*
X056478Y002096D02*
X061792Y002096D01*
X061801Y001997D02*
X056478Y001997D01*
X056456Y001899D02*
X061822Y001899D01*
X061883Y001800D02*
X056415Y001800D01*
X056344Y001702D02*
X061965Y001702D01*
X062064Y001603D02*
X056246Y001603D01*
X055631Y001603D02*
X055454Y001603D01*
X055454Y001505D02*
X062276Y001505D01*
X062647Y001505D02*
X063949Y001505D01*
X063908Y001603D02*
X062859Y001603D01*
X062958Y001702D02*
X063877Y001702D01*
X063877Y001800D02*
X063056Y001800D01*
X063155Y001899D02*
X063877Y001899D01*
X063877Y001997D02*
X063253Y001997D01*
X063352Y002096D02*
X063877Y002096D01*
X063877Y002194D02*
X063450Y002194D01*
X063549Y002293D02*
X063877Y002293D01*
X063877Y002391D02*
X063647Y002391D01*
X063746Y002490D02*
X063887Y002490D01*
X063928Y002588D02*
X063844Y002588D01*
X063943Y002687D02*
X063975Y002687D01*
X066151Y002884D02*
X066241Y002884D01*
X066249Y002982D02*
X068683Y002982D01*
X068615Y002884D02*
X066653Y002884D01*
X066820Y002785D02*
X068548Y002785D01*
X068481Y002687D02*
X066918Y002687D01*
X066966Y002588D02*
X068433Y002588D01*
X068449Y002639D02*
X068449Y002639D01*
X068403Y002490D02*
X067007Y002490D01*
X067017Y002391D02*
X068372Y002391D01*
X068342Y002293D02*
X067017Y002293D01*
X067017Y002194D02*
X068312Y002194D01*
X068300Y002096D02*
X067017Y002096D01*
X067017Y001997D02*
X068300Y001997D01*
X068300Y001899D02*
X067017Y001899D01*
X067017Y001800D02*
X068300Y001800D01*
X068300Y001702D02*
X067017Y001702D01*
X066985Y001603D02*
X068316Y001603D01*
X068347Y001505D02*
X066945Y001505D01*
X066867Y001406D02*
X068377Y001406D01*
X068407Y001308D02*
X066767Y001308D01*
X066126Y001308D02*
X065767Y001308D01*
X065867Y001406D02*
X066026Y001406D01*
X065949Y001505D02*
X065945Y001505D01*
X065126Y001308D02*
X064767Y001308D01*
X064867Y001406D02*
X065026Y001406D01*
X064949Y001505D02*
X064945Y001505D01*
X064126Y001308D02*
X055454Y001308D01*
X055454Y001406D02*
X064026Y001406D01*
X068438Y001209D02*
X055454Y001209D01*
X055454Y001111D02*
X068491Y001111D01*
X068559Y001012D02*
X055444Y001012D01*
X055454Y001702D02*
X055532Y001702D01*
X055461Y001800D02*
X055454Y001800D01*
X045628Y003376D02*
X044911Y003376D01*
X044815Y003475D02*
X045550Y003475D01*
X045509Y003573D02*
X044658Y003573D01*
X044268Y003869D02*
X044235Y003869D01*
X045201Y003869D02*
X045481Y003869D01*
X045481Y003967D02*
X045330Y003967D01*
X045374Y004066D02*
X045481Y004066D01*
X045481Y004164D02*
X045379Y004164D01*
X045379Y004263D02*
X045481Y004263D01*
X045481Y004361D02*
X045379Y004361D01*
X045379Y004460D02*
X045513Y004460D01*
X045554Y004558D02*
X045379Y004558D01*
X045898Y005486D02*
X045898Y005586D01*
X046352Y005586D01*
X046352Y005752D01*
X046361Y005744D01*
X046468Y005699D01*
X048683Y005699D01*
X048790Y005744D01*
X048871Y005825D01*
X048915Y005932D01*
X048915Y006402D01*
X048990Y006481D01*
X048990Y005361D01*
X046352Y005361D01*
X046352Y005486D01*
X045898Y005486D01*
X045898Y005543D02*
X048990Y005543D01*
X048990Y005445D02*
X046352Y005445D01*
X046352Y005642D02*
X048990Y005642D01*
X048990Y005740D02*
X048782Y005740D01*
X048877Y005839D02*
X048990Y005839D01*
X048990Y005937D02*
X048915Y005937D01*
X048915Y006036D02*
X048990Y006036D01*
X048990Y006134D02*
X048915Y006134D01*
X048915Y006233D02*
X048990Y006233D01*
X048990Y006331D02*
X048915Y006331D01*
X048941Y006430D02*
X048990Y006430D01*
X051038Y007568D02*
X051038Y008456D01*
X051136Y008554D01*
X053732Y008554D01*
X054714Y007572D01*
X054714Y007065D01*
X054531Y007249D01*
X054395Y007305D01*
X053741Y007305D01*
X053741Y007420D01*
X053287Y007420D01*
X053287Y007520D01*
X053741Y007520D01*
X053741Y007805D01*
X053731Y007843D01*
X053711Y007877D01*
X053683Y007905D01*
X053649Y007925D01*
X053611Y007935D01*
X053287Y007935D01*
X053287Y007520D01*
X053187Y007520D01*
X053187Y007935D01*
X052863Y007935D01*
X052825Y007925D01*
X052790Y007905D01*
X052762Y007877D01*
X052743Y007843D01*
X052732Y007805D01*
X052732Y007520D01*
X053187Y007520D01*
X053187Y007420D01*
X052732Y007420D01*
X052732Y007305D01*
X051945Y007305D01*
X051879Y007464D01*
X051727Y007615D01*
X051529Y007698D01*
X051314Y007698D01*
X051115Y007615D01*
X051053Y007553D01*
X051038Y007568D01*
X051038Y007612D02*
X051112Y007612D01*
X051038Y007710D02*
X052732Y007710D01*
X052732Y007612D02*
X051731Y007612D01*
X051829Y007513D02*
X053187Y007513D01*
X053187Y007612D02*
X053287Y007612D01*
X053287Y007710D02*
X053187Y007710D01*
X053187Y007809D02*
X053287Y007809D01*
X053287Y007907D02*
X053187Y007907D01*
X052794Y007907D02*
X051038Y007907D01*
X051038Y007809D02*
X052733Y007809D01*
X053679Y007907D02*
X054379Y007907D01*
X054478Y007809D02*
X053740Y007809D01*
X053741Y007710D02*
X054576Y007710D01*
X054675Y007612D02*
X053741Y007612D01*
X053741Y007415D02*
X054714Y007415D01*
X054714Y007513D02*
X053287Y007513D01*
X053741Y007316D02*
X054714Y007316D01*
X054714Y007218D02*
X054562Y007218D01*
X054661Y007119D02*
X054714Y007119D01*
X054281Y008006D02*
X051038Y008006D01*
X051038Y008104D02*
X054182Y008104D01*
X054084Y008203D02*
X051038Y008203D01*
X051038Y008301D02*
X053985Y008301D01*
X053887Y008400D02*
X051038Y008400D01*
X051080Y008498D02*
X053788Y008498D01*
X054801Y009385D02*
X054948Y009385D01*
X054948Y009286D02*
X054900Y009286D01*
X054909Y009483D02*
X054703Y009483D01*
X054604Y009582D02*
X054811Y009582D01*
X054712Y009680D02*
X054506Y009680D01*
X054407Y009779D02*
X054614Y009779D01*
X054515Y009877D02*
X054309Y009877D01*
X054210Y009976D02*
X054417Y009976D01*
X054318Y010074D02*
X054112Y010074D01*
X054013Y010173D02*
X054220Y010173D01*
X054121Y010271D02*
X053915Y010271D01*
X053816Y010370D02*
X054023Y010370D01*
X053924Y010468D02*
X053695Y010468D01*
X059123Y009089D02*
X059223Y009089D01*
X059223Y008991D02*
X059123Y008991D01*
X062775Y008400D02*
X062991Y008400D01*
X062991Y008301D02*
X062873Y008301D01*
X062972Y008203D02*
X062991Y008203D01*
X064271Y007907D02*
X070958Y007907D01*
X070958Y007809D02*
X064271Y007809D01*
X064271Y007710D02*
X070958Y007710D01*
X070958Y007612D02*
X064271Y007612D01*
X064271Y007513D02*
X070958Y007513D01*
X070958Y007415D02*
X064271Y007415D01*
X064271Y007316D02*
X070958Y007316D01*
X070958Y007218D02*
X064271Y007218D01*
X065270Y007119D02*
X070958Y007119D01*
X070958Y007021D02*
X065423Y007021D01*
X065521Y006922D02*
X070958Y006922D01*
X070958Y006824D02*
X065563Y006824D01*
X065604Y006725D02*
X070958Y006725D01*
X070958Y006627D02*
X065609Y006627D01*
X065609Y006528D02*
X066719Y006528D01*
X066341Y006430D02*
X065587Y006430D01*
X065546Y006331D02*
X066159Y006331D01*
X065609Y006233D02*
X065480Y006233D01*
X062991Y007021D02*
X062793Y007021D01*
X062891Y007119D02*
X062991Y007119D01*
X062990Y007218D02*
X062991Y007218D01*
X069328Y006528D02*
X070958Y006528D01*
X070958Y006430D02*
X069699Y006430D01*
X069889Y006331D02*
X070958Y006331D01*
X070958Y006233D02*
X069987Y006233D01*
X070056Y006134D02*
X070958Y006134D01*
X070958Y006036D02*
X070097Y006036D01*
X070132Y005937D02*
X070958Y005937D01*
X070958Y005839D02*
X070132Y005839D01*
X070132Y005740D02*
X070958Y005740D01*
X070958Y005642D02*
X070110Y005642D01*
X070070Y005543D02*
X070958Y005543D01*
X070958Y005445D02*
X070020Y005445D01*
X069921Y005346D02*
X070958Y005346D01*
X070958Y005248D02*
X069777Y005248D01*
X069399Y005149D02*
X070958Y005149D01*
X070958Y005051D02*
X067397Y005051D01*
X067397Y004952D02*
X070958Y004952D01*
X070958Y004854D02*
X067397Y004854D01*
X067397Y004755D02*
X070958Y004755D01*
X070958Y004657D02*
X067397Y004657D01*
X067397Y004558D02*
X070958Y004558D01*
X070958Y004460D02*
X067397Y004460D01*
X067397Y004361D02*
X070958Y004361D01*
X070958Y004263D02*
X067392Y004263D01*
X067351Y004164D02*
X070958Y004164D01*
X070958Y004066D02*
X067311Y004066D01*
X067234Y003967D02*
X070958Y003967D01*
X070958Y003869D02*
X067136Y003869D01*
X067037Y003770D02*
X070958Y003770D01*
X070958Y003672D02*
X066939Y003672D01*
X066840Y003573D02*
X069853Y003573D01*
X070098Y003591D02*
X070098Y003591D01*
X070178Y003573D02*
X070958Y003573D01*
X070958Y003475D02*
X070597Y003475D01*
X070589Y003479D02*
X070589Y003479D01*
X070768Y003376D02*
X070958Y003376D01*
X070958Y003278D02*
X070938Y003278D01*
X069595Y003554D02*
X069595Y003554D01*
X069394Y003475D02*
X066742Y003475D01*
X066643Y003376D02*
X069143Y003376D01*
X069011Y003278D02*
X066545Y003278D01*
X066446Y003179D02*
X068887Y003179D01*
X068764Y003081D02*
X066348Y003081D01*
X052732Y007316D02*
X051940Y007316D01*
X051899Y007415D02*
X052732Y007415D01*
X046385Y008351D02*
X045324Y008351D01*
X045131Y009350D02*
X044349Y009350D01*
X045307Y009572D02*
X045307Y010280D01*
X045204Y006816D02*
X045204Y006266D01*
X045248Y006159D01*
X045329Y006078D01*
X045436Y006034D01*
X046235Y006034D01*
X046235Y005998D01*
X046222Y006001D01*
X045898Y006001D01*
X045898Y005586D01*
X045798Y005586D01*
X045798Y006001D01*
X045474Y006001D01*
X045436Y005991D01*
X045402Y005971D01*
X045374Y005943D01*
X045372Y005941D01*
X045335Y006033D01*
X045253Y006114D01*
X045146Y006158D01*
X045016Y006158D01*
X045016Y006171D01*
X044960Y006307D01*
X044720Y006546D01*
X044616Y006650D01*
X044480Y006706D01*
X042978Y006706D01*
X043012Y006740D01*
X045048Y006740D01*
X045184Y006796D01*
X045204Y006816D01*
X045204Y006725D02*
X042997Y006725D01*
X044639Y006627D02*
X045204Y006627D01*
X045204Y006528D02*
X044738Y006528D01*
X044836Y006430D02*
X045204Y006430D01*
X045204Y006331D02*
X044935Y006331D01*
X044990Y006233D02*
X045217Y006233D01*
X045205Y006134D02*
X045273Y006134D01*
X045332Y006036D02*
X045431Y006036D01*
X045798Y005937D02*
X045898Y005937D01*
X045898Y005839D02*
X045798Y005839D01*
X045798Y005740D02*
X045898Y005740D01*
X045898Y005642D02*
X045798Y005642D01*
X046352Y005740D02*
X046369Y005740D01*
X040142Y006528D02*
X038899Y006528D01*
X039113Y005642D02*
X038464Y005642D01*
X038494Y005543D02*
X039091Y005543D01*
X039091Y005445D02*
X038494Y005445D01*
X038494Y005346D02*
X039091Y005346D01*
X040784Y002490D02*
X043497Y002490D01*
X043398Y002391D02*
X041781Y002391D01*
X041434Y002391D02*
X040998Y002391D01*
X041097Y002293D02*
X041218Y002293D01*
X063458Y013029D02*
X063982Y013029D01*
X063908Y013128D02*
X063414Y013128D01*
X063513Y013226D02*
X063867Y013226D01*
X063839Y013325D02*
X063611Y013325D01*
X063710Y013423D02*
X063839Y013423D01*
X063839Y013522D02*
X063808Y013522D01*
X063556Y012931D02*
X064081Y012931D01*
X062049Y014014D02*
X059709Y014014D01*
X059718Y014113D02*
X061951Y014113D01*
X061741Y014901D02*
X056271Y014901D01*
X070066Y015689D02*
X070173Y015689D01*
D48*
X070849Y015776D02*
X070849Y012476D01*
X070419Y012045D01*
X069138Y012045D01*
X070849Y015776D02*
X069804Y016822D01*
X069142Y017483D01*
X069142Y019119D01*
X068478Y019783D01*
X067901Y019783D01*
X062932Y019783D01*
X062828Y019887D01*
X062355Y019887D01*
X061253Y019887D02*
X061157Y019791D01*
X056128Y019791D01*
X055827Y019490D01*
X051306Y019490D01*
X050518Y020278D01*
X049310Y020278D01*
X049126Y020093D01*
X049126Y019192D01*
X049137Y019180D01*
X045494Y019180D01*
X044680Y018367D01*
X041655Y022321D02*
X039504Y020170D01*
X044186Y022321D02*
X044899Y021608D01*
X049211Y021608D01*
X050313Y021608D02*
X051712Y020209D01*
X055075Y020209D01*
X055590Y020724D01*
X055590Y021369D01*
X061028Y021369D01*
X061234Y021162D01*
X062337Y021162D02*
X066241Y021155D01*
X067637Y018662D02*
X062344Y018662D01*
X061242Y018662D02*
X061075Y018495D01*
X057005Y018495D01*
X055480Y018367D02*
X051053Y018367D01*
X050239Y019180D01*
X044186Y022321D02*
X041655Y022321D01*
X061242Y018662D02*
X061242Y017396D01*
X061229Y017383D01*
X062331Y017383D02*
X062892Y016822D01*
X069804Y016822D01*
X067805Y018495D02*
X067637Y018662D01*
X023186Y005411D02*
X023186Y003837D01*
X023169Y003819D01*
X020237Y001849D02*
X019496Y002589D01*
X019496Y005323D01*
X019483Y005337D01*
X021769Y005411D02*
X021769Y012450D01*
X021757Y012461D01*
X020237Y001849D02*
X025607Y001849D01*
D49*
X054518Y001514D03*
D50*
X038609Y006979D03*
M02*
