G75*
G70*
%OFA0B0*%
%FSLAX24Y24*%
%IPPOS*%
%LPD*%
%AMOC8*
5,1,8,0,0,1.08239X$1,22.5*
%
%ADD10C,0.0160*%
%ADD11C,0.0140*%
%ADD12C,0.0050*%
%ADD13C,0.0020*%
%ADD14C,0.0060*%
%ADD15C,0.0030*%
%ADD16C,0.0080*%
%ADD17C,0.0010*%
%ADD18R,0.0600X0.0600*%
%ADD19C,0.0040*%
%ADD20C,0.0000*%
D10*
X000231Y000457D02*
X000231Y006322D01*
X002519Y006322D01*
X002519Y011675D01*
X000238Y011675D01*
X000238Y022752D01*
X000255Y022757D02*
X071488Y022757D01*
X071488Y000457D01*
X000231Y000457D01*
X000317Y006222D02*
X000317Y006655D01*
X000317Y006222D02*
X000801Y006225D01*
X001194Y006228D02*
X001678Y006231D01*
X002072Y006233D02*
X002556Y006237D01*
X002556Y006659D01*
X002556Y007053D02*
X002556Y007475D01*
X002556Y007869D02*
X002556Y008291D01*
X002556Y008685D02*
X002556Y009108D01*
X002556Y009501D02*
X002556Y009924D01*
X002556Y010317D02*
X002556Y010740D01*
X002556Y011134D02*
X002556Y011556D01*
X002525Y011617D02*
X002051Y011617D01*
X001658Y011617D02*
X001184Y011617D01*
X000790Y011617D02*
X000317Y011617D01*
X000317Y011184D01*
X000317Y010790D02*
X000317Y010357D01*
X000317Y009963D02*
X000317Y009530D01*
X000317Y009136D02*
X000317Y008703D01*
X000317Y008309D02*
X000317Y007876D01*
X000317Y007482D02*
X000317Y007049D01*
D11*
X016802Y009073D02*
X016895Y008979D01*
X016802Y009073D02*
X016802Y009259D01*
X016895Y009353D01*
X016988Y009353D01*
X017082Y009259D01*
X017082Y009166D01*
X017082Y009259D02*
X017175Y009353D01*
X017269Y009353D01*
X017362Y009259D01*
X017362Y009073D01*
X017269Y008979D01*
X016895Y009624D02*
X016895Y009717D01*
X016802Y009717D01*
X016802Y009624D01*
X016895Y009624D01*
X016895Y009946D02*
X016802Y010039D01*
X016802Y010226D01*
X016895Y010320D01*
X016988Y010320D01*
X017082Y010226D01*
X017082Y010133D01*
X017082Y010226D02*
X017175Y010320D01*
X017269Y010320D01*
X017362Y010226D01*
X017362Y010039D01*
X017269Y009946D01*
X017362Y010591D02*
X016988Y010591D01*
X016802Y010777D01*
X016988Y010964D01*
X017362Y010964D01*
X017362Y011880D02*
X016802Y011880D01*
X016802Y012160D01*
X016895Y012253D01*
X016988Y012253D01*
X017082Y012160D01*
X017082Y011880D01*
X017082Y012160D02*
X017175Y012253D01*
X017269Y012253D01*
X017362Y012160D01*
X017362Y011880D01*
X017175Y012618D02*
X017175Y012804D01*
X017082Y012898D01*
X016802Y012898D01*
X016802Y012618D01*
X016895Y012524D01*
X016988Y012618D01*
X016988Y012898D01*
X017175Y013169D02*
X017175Y013356D01*
X017269Y013262D02*
X016895Y013262D01*
X016802Y013356D01*
X016895Y013692D02*
X016802Y013785D01*
X016895Y013692D02*
X017269Y013692D01*
X017175Y013598D02*
X017175Y013785D01*
X017082Y014028D02*
X017175Y014122D01*
X017175Y014308D01*
X017082Y014402D01*
X016988Y014402D01*
X016988Y014028D01*
X016895Y014028D02*
X017082Y014028D01*
X016895Y014028D02*
X016802Y014122D01*
X016802Y014308D01*
X016802Y014673D02*
X017175Y014673D01*
X017175Y014859D02*
X016988Y014673D01*
X017175Y014859D02*
X017175Y014953D01*
X017175Y015210D02*
X016895Y015210D01*
X016802Y015303D01*
X016802Y015583D01*
X016708Y015583D02*
X016615Y015490D01*
X016615Y015397D01*
X016708Y015583D02*
X017175Y015583D01*
D12*
X046271Y006492D02*
X046271Y006402D01*
X046316Y006357D01*
X046361Y006357D01*
X046406Y006402D01*
X046406Y006492D01*
X046361Y006537D01*
X046316Y006537D01*
X046271Y006492D01*
X046406Y006492D02*
X046452Y006537D01*
X046497Y006537D01*
X046542Y006492D01*
X046542Y006402D01*
X046497Y006357D01*
X046452Y006357D01*
X046406Y006402D01*
X046316Y006242D02*
X046271Y006197D01*
X046271Y006107D01*
X046316Y006062D01*
X046497Y006062D01*
X046542Y006107D01*
X046542Y006197D01*
X046497Y006242D01*
X045428Y005407D02*
X045383Y005452D01*
X045338Y005452D01*
X045293Y005407D01*
X045293Y005316D01*
X045338Y005271D01*
X045383Y005271D01*
X045428Y005316D01*
X045428Y005407D01*
X045293Y005407D02*
X045248Y005452D01*
X045203Y005452D01*
X045158Y005407D01*
X045158Y005316D01*
X045203Y005271D01*
X045248Y005271D01*
X045293Y005316D01*
X045293Y005157D02*
X045248Y005112D01*
X045248Y004977D01*
X045248Y005067D02*
X045158Y005157D01*
X045293Y005157D02*
X045383Y005157D01*
X045428Y005112D01*
X045428Y004977D01*
X045158Y004977D01*
X044457Y004975D02*
X044457Y005110D01*
X044412Y005155D01*
X044322Y005155D01*
X044277Y005110D01*
X044277Y004975D01*
X044187Y004975D02*
X044457Y004975D01*
X044277Y005065D02*
X044187Y005155D01*
X044187Y005270D02*
X044232Y005270D01*
X044412Y005450D01*
X044457Y005450D01*
X044457Y005270D01*
X052543Y006450D02*
X052588Y006405D01*
X052769Y006405D01*
X052814Y006450D01*
X052814Y006540D01*
X052769Y006585D01*
X052769Y006700D02*
X052724Y006700D01*
X052679Y006745D01*
X052679Y006880D01*
X052769Y006880D02*
X052814Y006835D01*
X052814Y006745D01*
X052769Y006700D01*
X052769Y006880D02*
X052588Y006880D01*
X052543Y006835D01*
X052543Y006745D01*
X052588Y006700D01*
X052588Y006585D02*
X052543Y006540D01*
X052543Y006450D01*
X047750Y015538D02*
X047750Y015673D01*
X047705Y015718D01*
X047615Y015718D01*
X047570Y015673D01*
X047570Y015538D01*
X047570Y015628D02*
X047480Y015718D01*
X047480Y015832D02*
X047480Y016013D01*
X047480Y015923D02*
X047750Y015923D01*
X047660Y015832D01*
X047750Y015538D02*
X047480Y015538D01*
X047525Y016127D02*
X047480Y016172D01*
X047480Y016262D01*
X047525Y016307D01*
X047570Y016307D01*
X047615Y016262D01*
X047615Y016127D01*
X047525Y016127D01*
X047615Y016127D02*
X047705Y016217D01*
X047750Y016307D01*
X049323Y018435D02*
X049413Y018435D01*
X049458Y018481D01*
X049458Y018526D01*
X049413Y018571D01*
X049323Y018571D01*
X049278Y018526D01*
X049278Y018481D01*
X049323Y018435D01*
X049323Y018571D02*
X049278Y018616D01*
X049278Y018661D01*
X049323Y018706D01*
X049413Y018706D01*
X049458Y018661D01*
X049458Y018616D01*
X049413Y018571D01*
X049572Y018526D02*
X049617Y018571D01*
X049707Y018571D01*
X049753Y018616D01*
X049753Y018661D01*
X049707Y018706D01*
X049617Y018706D01*
X049572Y018661D01*
X049662Y018751D02*
X049662Y018390D01*
X049617Y018435D02*
X049572Y018481D01*
X049572Y018526D01*
X049617Y018435D02*
X049707Y018435D01*
X049753Y018481D01*
X049867Y018481D02*
X049867Y018706D01*
X050047Y018706D02*
X050047Y018481D01*
X050002Y018435D01*
X049912Y018435D01*
X049867Y018481D01*
X054678Y016647D02*
X054678Y016347D01*
X054678Y016497D02*
X055129Y016497D01*
X054978Y016347D01*
X055054Y016187D02*
X055129Y016112D01*
X055129Y015962D01*
X055054Y015887D01*
X054978Y015887D01*
X054903Y015962D01*
X054903Y016112D01*
X054828Y016187D01*
X054753Y016187D01*
X054678Y016112D01*
X054678Y015962D01*
X054753Y015887D01*
X061383Y018052D02*
X061563Y018052D01*
X061428Y018188D01*
X061428Y017917D01*
X061485Y017903D02*
X061485Y017993D01*
X061531Y018038D01*
X061576Y018038D01*
X061666Y017993D01*
X061666Y018128D01*
X061485Y018128D01*
X061677Y018143D02*
X061722Y018188D01*
X061813Y018188D01*
X061858Y018143D01*
X061858Y018097D01*
X061813Y018052D01*
X061722Y018052D01*
X061677Y018007D01*
X061677Y017962D01*
X061722Y017917D01*
X061813Y017917D01*
X061858Y017962D01*
X061825Y017993D02*
X061915Y017993D01*
X061960Y018038D01*
X061960Y018083D01*
X061915Y018128D01*
X061825Y018128D01*
X061780Y018083D01*
X061825Y017993D02*
X061780Y017948D01*
X061780Y017903D01*
X061825Y017858D01*
X061915Y017858D01*
X061960Y017903D01*
X062017Y017917D02*
X061972Y017962D01*
X061972Y018188D01*
X061870Y018173D02*
X061870Y017813D01*
X061767Y017872D02*
X061767Y018233D01*
X062075Y018128D02*
X062075Y017903D01*
X062120Y017858D01*
X062210Y017858D01*
X062255Y017903D01*
X062255Y018128D01*
X062152Y018188D02*
X062152Y017962D01*
X062107Y017917D01*
X062017Y017917D01*
X061666Y017903D02*
X061621Y017858D01*
X061531Y017858D01*
X061485Y017903D01*
X061894Y020317D02*
X061894Y020677D01*
X061850Y020642D02*
X061805Y020687D01*
X061715Y020687D01*
X061670Y020642D01*
X061645Y020632D02*
X061690Y020587D01*
X061690Y020542D01*
X061645Y020497D01*
X061510Y020497D01*
X061555Y020462D02*
X061510Y020417D01*
X061420Y020417D01*
X061375Y020462D01*
X061375Y020507D01*
X061420Y020552D01*
X061555Y020552D01*
X061555Y020462D01*
X061510Y020407D02*
X061510Y020587D01*
X061555Y020632D01*
X061645Y020632D01*
X061715Y020552D02*
X061805Y020552D01*
X061850Y020597D01*
X061850Y020642D01*
X061849Y020632D02*
X061804Y020587D01*
X061849Y020632D02*
X061940Y020632D01*
X061985Y020587D01*
X061985Y020542D01*
X061940Y020497D01*
X061849Y020497D01*
X061804Y020452D01*
X061804Y020407D01*
X061849Y020362D01*
X061940Y020362D01*
X061985Y020407D01*
X062009Y020417D02*
X061964Y020462D01*
X061964Y020687D01*
X062099Y020632D02*
X062099Y020407D01*
X062144Y020362D01*
X062234Y020362D01*
X062279Y020407D01*
X062279Y020632D01*
X062145Y020687D02*
X062145Y020462D01*
X062099Y020417D01*
X062009Y020417D01*
X061850Y020462D02*
X061805Y020417D01*
X061715Y020417D01*
X061670Y020462D01*
X061670Y020507D01*
X061715Y020552D01*
X061690Y020407D02*
X061645Y020362D01*
X061555Y020362D01*
X061510Y020407D01*
X061555Y020552D02*
X061465Y020642D01*
X061375Y020687D01*
X061760Y020732D02*
X061760Y020372D01*
X050121Y020908D02*
X050076Y020863D01*
X049986Y020863D01*
X049941Y020908D01*
X049941Y021133D01*
X049826Y021088D02*
X049781Y021133D01*
X049691Y021133D01*
X049646Y021088D01*
X049691Y020998D02*
X049781Y020998D01*
X049826Y021043D01*
X049826Y021088D01*
X049736Y021178D02*
X049736Y020818D01*
X049691Y020863D02*
X049646Y020908D01*
X049646Y020953D01*
X049691Y020998D01*
X049691Y020863D02*
X049781Y020863D01*
X049826Y020908D01*
X049532Y020908D02*
X049532Y020863D01*
X049532Y020908D02*
X049352Y021088D01*
X049352Y021133D01*
X049532Y021133D01*
X050121Y021133D02*
X050121Y020908D01*
X022602Y005599D02*
X022602Y005411D01*
X022698Y005411D01*
X022602Y005411D02*
X022602Y005224D01*
X022602Y005411D02*
X022352Y005224D01*
X022352Y005411D01*
X022256Y005411D01*
X022352Y005411D02*
X022352Y005599D01*
X022602Y005411D01*
X022585Y004007D02*
X022585Y003819D01*
X022681Y003819D01*
X022585Y003819D02*
X022585Y003632D01*
X022585Y003819D02*
X022335Y003632D01*
X022335Y003819D01*
X022239Y003819D01*
X022335Y003819D02*
X022335Y004007D01*
X022585Y003819D01*
D13*
X048125Y005569D02*
X050825Y005569D01*
X050825Y005869D02*
X048125Y005869D01*
X048087Y005870D01*
X048050Y005875D01*
X048013Y005882D01*
X047977Y005891D01*
X047941Y005904D01*
X047907Y005919D01*
X047464Y006819D02*
X047496Y006864D01*
X047532Y006906D01*
X047571Y006946D01*
X047613Y006983D01*
X047656Y007017D01*
X047703Y007048D01*
X047751Y007076D01*
X047801Y007100D01*
X047852Y007121D01*
X047905Y007138D01*
X047959Y007152D01*
X048014Y007161D01*
X048069Y007167D01*
X048125Y007169D01*
X050825Y007169D01*
X050825Y006869D02*
X048125Y006869D01*
X047465Y005919D02*
X047497Y005874D01*
X047533Y005832D01*
X047572Y005792D01*
X047613Y005755D01*
X047657Y005721D01*
X047704Y005690D01*
X047752Y005662D01*
X047802Y005638D01*
X047853Y005617D01*
X047906Y005600D01*
X047960Y005586D01*
X048015Y005577D01*
X048070Y005571D01*
X048126Y005569D01*
X047907Y006819D02*
X047941Y006834D01*
X047977Y006847D01*
X048013Y006856D01*
X048050Y006863D01*
X048087Y006868D01*
X048125Y006869D01*
X049075Y006369D02*
X049225Y006369D01*
X049725Y006369D02*
X049875Y006369D01*
X050825Y007169D02*
X050881Y007167D01*
X050936Y007161D01*
X050991Y007152D01*
X051045Y007138D01*
X051098Y007121D01*
X051149Y007100D01*
X051199Y007076D01*
X051247Y007048D01*
X051294Y007017D01*
X051338Y006983D01*
X051379Y006946D01*
X051418Y006906D01*
X051454Y006864D01*
X051486Y006819D01*
X051486Y005919D02*
X051454Y005874D01*
X051418Y005832D01*
X051379Y005792D01*
X051337Y005755D01*
X051294Y005721D01*
X051247Y005690D01*
X051199Y005662D01*
X051149Y005638D01*
X051098Y005617D01*
X051045Y005600D01*
X050991Y005586D01*
X050936Y005577D01*
X050881Y005571D01*
X050825Y005569D01*
X050825Y005869D02*
X050863Y005870D01*
X050900Y005875D01*
X050937Y005882D01*
X050973Y005891D01*
X051009Y005904D01*
X051043Y005919D01*
X051043Y006819D02*
X051009Y006834D01*
X050973Y006847D01*
X050937Y006856D01*
X050900Y006863D01*
X050863Y006868D01*
X050825Y006869D01*
D14*
X049725Y006619D02*
X049725Y006369D01*
X049725Y006119D01*
X049575Y006119D02*
X049375Y006119D01*
X049375Y006619D01*
X049575Y006619D01*
X049575Y006119D01*
X049225Y006119D02*
X049225Y006369D01*
X049225Y006619D01*
X047325Y007319D02*
X047308Y007317D01*
X047291Y007313D01*
X047275Y007306D01*
X047261Y007296D01*
X047248Y007283D01*
X047238Y007269D01*
X047231Y007253D01*
X047227Y007236D01*
X047225Y007219D01*
X047225Y006819D01*
X047325Y007319D02*
X051625Y007319D01*
X051642Y007317D01*
X051659Y007313D01*
X051675Y007306D01*
X051689Y007296D01*
X051702Y007283D01*
X051712Y007269D01*
X051719Y007253D01*
X051723Y007236D01*
X051725Y007219D01*
X051725Y006819D01*
X051725Y005919D02*
X051725Y005519D01*
X051723Y005502D01*
X051719Y005485D01*
X051712Y005469D01*
X051702Y005455D01*
X051689Y005442D01*
X051675Y005432D01*
X051659Y005425D01*
X051642Y005421D01*
X051625Y005419D01*
X047325Y005419D01*
X047308Y005421D01*
X047291Y005425D01*
X047275Y005432D01*
X047261Y005442D01*
X047248Y005455D01*
X047238Y005469D01*
X047231Y005485D01*
X047227Y005502D01*
X047225Y005519D01*
X047225Y005919D01*
X041556Y006091D02*
X040136Y006091D01*
X040136Y004231D02*
X041556Y004231D01*
X034677Y003587D02*
X034503Y003587D01*
X034590Y003587D02*
X034590Y003327D01*
X034503Y003413D01*
X034382Y003370D02*
X034295Y003457D01*
X034295Y003587D01*
X034295Y003457D02*
X034209Y003370D01*
X034209Y003327D01*
X034382Y003327D02*
X034382Y003370D01*
X023130Y004299D02*
X023000Y004299D01*
X022956Y004343D01*
X022956Y004516D01*
X023000Y004560D01*
X023130Y004560D01*
X023130Y004299D01*
X022835Y004299D02*
X022662Y004473D01*
X022662Y004516D01*
X022705Y004560D01*
X022792Y004560D01*
X022835Y004516D01*
X022835Y004299D02*
X022662Y004299D01*
X022723Y005891D02*
X022809Y005891D01*
X022853Y005935D01*
X022974Y005935D02*
X022974Y006108D01*
X023017Y006151D01*
X023147Y006151D01*
X023147Y005891D01*
X023017Y005891D01*
X022974Y005935D01*
X022853Y006108D02*
X022809Y006151D01*
X022723Y006151D01*
X022679Y006108D01*
X022679Y006065D01*
X022723Y006021D01*
X022679Y005978D01*
X022679Y005935D01*
X022723Y005891D01*
X022723Y006021D02*
X022766Y006021D01*
X022845Y012541D02*
X023018Y012541D01*
X022932Y012541D02*
X022932Y012801D01*
X022845Y012715D01*
X022724Y012715D02*
X022680Y012671D01*
X022550Y012671D01*
X022550Y012541D02*
X022550Y012801D01*
X022680Y012801D01*
X022724Y012758D01*
X022724Y012715D01*
X022680Y012671D02*
X022724Y012628D01*
X022724Y012584D01*
X022680Y012541D01*
X022550Y012541D01*
X056143Y008533D02*
X056143Y017033D01*
X058663Y017033D01*
X058663Y008533D01*
X056143Y008533D01*
X056603Y008983D02*
X058203Y008983D01*
X058203Y009583D01*
X056603Y009583D01*
X056603Y008983D01*
X056603Y009983D02*
X058203Y009983D01*
X058203Y010583D01*
X056603Y010583D01*
X056603Y009983D01*
X056603Y010983D02*
X058203Y010983D01*
X058203Y011583D01*
X056603Y011583D01*
X056603Y010983D01*
X056603Y011983D02*
X058203Y011983D01*
X058203Y012583D01*
X056603Y012583D01*
X056603Y011983D01*
X056603Y012983D02*
X058203Y012983D01*
X058203Y013583D01*
X056603Y013583D01*
X056603Y012983D01*
X056603Y013983D02*
X058203Y013983D01*
X058203Y014583D01*
X056603Y014583D01*
X056603Y013983D01*
X056603Y014983D02*
X058203Y014983D01*
X058203Y015583D01*
X056603Y015583D01*
X056603Y014983D01*
X056603Y015983D02*
X058203Y015983D01*
X058203Y016583D01*
X056603Y016583D01*
X056603Y015983D01*
D15*
X057518Y015979D02*
X057518Y016226D01*
X057518Y016103D02*
X057889Y016103D01*
X057765Y015979D01*
X050162Y007067D02*
X050065Y007067D01*
X050017Y007019D01*
X050017Y006826D01*
X050065Y006777D01*
X050162Y006777D01*
X050210Y006826D01*
X050210Y007019D01*
X050162Y007067D01*
X050114Y006874D02*
X050017Y006777D01*
X049916Y006777D02*
X049722Y006777D01*
X049819Y006777D02*
X049819Y007067D01*
X049916Y006971D01*
D16*
X040399Y004451D02*
X040401Y004466D01*
X040407Y004479D01*
X040416Y004491D01*
X040427Y004500D01*
X040441Y004506D01*
X040456Y004508D01*
X040471Y004506D01*
X040484Y004500D01*
X040496Y004491D01*
X040505Y004480D01*
X040511Y004466D01*
X040513Y004451D01*
X040511Y004436D01*
X040505Y004423D01*
X040496Y004411D01*
X040485Y004402D01*
X040471Y004396D01*
X040456Y004394D01*
X040441Y004396D01*
X040428Y004402D01*
X040416Y004411D01*
X040407Y004422D01*
X040401Y004436D01*
X040399Y004451D01*
X038450Y003829D02*
X033923Y003829D01*
X033923Y005798D01*
X038450Y005798D01*
X038450Y003829D01*
X029772Y005183D02*
X029457Y005183D01*
X029457Y005420D01*
X029457Y006050D02*
X029457Y006286D01*
X029772Y006286D01*
X041023Y011667D02*
X041338Y011667D01*
X041023Y011667D02*
X041023Y011903D01*
X041023Y012533D02*
X041023Y012769D01*
X041338Y012769D01*
X034275Y012875D02*
X033960Y012875D01*
X033960Y012638D01*
X033960Y012009D02*
X033960Y011772D01*
X034275Y011772D01*
X028202Y011745D02*
X027887Y011745D01*
X027887Y011982D01*
X027887Y012612D02*
X027887Y012848D01*
X028202Y012848D01*
X011816Y012461D02*
X011822Y012688D01*
X011838Y012914D01*
X011866Y013140D01*
X011905Y013363D01*
X011955Y013585D01*
X012015Y013804D01*
X012086Y014019D01*
X012168Y014231D01*
X012260Y014439D01*
X012362Y014642D01*
X012474Y014839D01*
X012596Y015031D01*
X012726Y015217D01*
X012866Y015396D01*
X013014Y015568D01*
X013171Y015732D01*
X013335Y015889D01*
X013507Y016037D01*
X013686Y016177D01*
X013872Y016307D01*
X014064Y016429D01*
X014261Y016541D01*
X014464Y016643D01*
X014672Y016735D01*
X014884Y016817D01*
X015099Y016888D01*
X015318Y016948D01*
X015540Y016998D01*
X015763Y017037D01*
X015989Y017065D01*
X016215Y017081D01*
X016442Y017087D01*
X016669Y017081D01*
X016895Y017065D01*
X017121Y017037D01*
X017344Y016998D01*
X017566Y016948D01*
X017785Y016888D01*
X018000Y016817D01*
X018212Y016735D01*
X018420Y016643D01*
X018623Y016541D01*
X018820Y016429D01*
X019012Y016307D01*
X019198Y016177D01*
X019377Y016037D01*
X019549Y015889D01*
X019713Y015732D01*
X019870Y015568D01*
X020018Y015396D01*
X020158Y015217D01*
X020288Y015031D01*
X020410Y014839D01*
X020522Y014642D01*
X020624Y014439D01*
X020716Y014231D01*
X020798Y014019D01*
X020869Y013804D01*
X020929Y013585D01*
X020979Y013363D01*
X021018Y013140D01*
X021046Y012914D01*
X021062Y012688D01*
X021068Y012461D01*
X021062Y012234D01*
X021046Y012008D01*
X021018Y011782D01*
X020979Y011559D01*
X020929Y011337D01*
X020869Y011118D01*
X020798Y010903D01*
X020716Y010691D01*
X020624Y010483D01*
X020522Y010280D01*
X020410Y010083D01*
X020288Y009891D01*
X020158Y009705D01*
X020018Y009526D01*
X019870Y009354D01*
X019713Y009190D01*
X019549Y009033D01*
X019377Y008885D01*
X019198Y008745D01*
X019012Y008615D01*
X018820Y008493D01*
X018623Y008381D01*
X018420Y008279D01*
X018212Y008187D01*
X018000Y008105D01*
X017785Y008034D01*
X017566Y007974D01*
X017344Y007924D01*
X017121Y007885D01*
X016895Y007857D01*
X016669Y007841D01*
X016442Y007835D01*
X016215Y007841D01*
X015989Y007857D01*
X015763Y007885D01*
X015540Y007924D01*
X015318Y007974D01*
X015099Y008034D01*
X014884Y008105D01*
X014672Y008187D01*
X014464Y008279D01*
X014261Y008381D01*
X014064Y008493D01*
X013872Y008615D01*
X013686Y008745D01*
X013507Y008885D01*
X013335Y009033D01*
X013171Y009190D01*
X013014Y009354D01*
X012866Y009526D01*
X012726Y009705D01*
X012596Y009891D01*
X012474Y010083D01*
X012362Y010280D01*
X012260Y010483D01*
X012168Y010691D01*
X012086Y010903D01*
X012015Y011118D01*
X011955Y011337D01*
X011905Y011559D01*
X011866Y011782D01*
X011838Y012008D01*
X011822Y012234D01*
X011816Y012461D01*
X012407Y012461D02*
X012412Y012659D01*
X012426Y012856D01*
X012451Y013053D01*
X012485Y013248D01*
X012528Y013441D01*
X012581Y013632D01*
X012643Y013820D01*
X012714Y014005D01*
X012794Y014186D01*
X012883Y014363D01*
X012981Y014535D01*
X013087Y014703D01*
X013201Y014865D01*
X013323Y015021D01*
X013452Y015171D01*
X013589Y015314D01*
X013732Y015451D01*
X013882Y015580D01*
X014038Y015702D01*
X014200Y015816D01*
X014368Y015922D01*
X014540Y016020D01*
X014717Y016109D01*
X014898Y016189D01*
X015083Y016260D01*
X015271Y016322D01*
X015462Y016375D01*
X015655Y016418D01*
X015850Y016452D01*
X016047Y016477D01*
X016244Y016491D01*
X016442Y016496D01*
X016640Y016491D01*
X016837Y016477D01*
X017034Y016452D01*
X017229Y016418D01*
X017422Y016375D01*
X017613Y016322D01*
X017801Y016260D01*
X017986Y016189D01*
X018167Y016109D01*
X018344Y016020D01*
X018516Y015922D01*
X018684Y015816D01*
X018846Y015702D01*
X019002Y015580D01*
X019152Y015451D01*
X019295Y015314D01*
X019432Y015171D01*
X019561Y015021D01*
X019683Y014865D01*
X019797Y014703D01*
X019903Y014535D01*
X020001Y014363D01*
X020090Y014186D01*
X020170Y014005D01*
X020241Y013820D01*
X020303Y013632D01*
X020356Y013441D01*
X020399Y013248D01*
X020433Y013053D01*
X020458Y012856D01*
X020472Y012659D01*
X020477Y012461D01*
X020472Y012263D01*
X020458Y012066D01*
X020433Y011869D01*
X020399Y011674D01*
X020356Y011481D01*
X020303Y011290D01*
X020241Y011102D01*
X020170Y010917D01*
X020090Y010736D01*
X020001Y010559D01*
X019903Y010387D01*
X019797Y010219D01*
X019683Y010057D01*
X019561Y009901D01*
X019432Y009751D01*
X019295Y009608D01*
X019152Y009471D01*
X019002Y009342D01*
X018846Y009220D01*
X018684Y009106D01*
X018516Y009000D01*
X018344Y008902D01*
X018167Y008813D01*
X017986Y008733D01*
X017801Y008662D01*
X017613Y008600D01*
X017422Y008547D01*
X017229Y008504D01*
X017034Y008470D01*
X016837Y008445D01*
X016640Y008431D01*
X016442Y008426D01*
X016244Y008431D01*
X016047Y008445D01*
X015850Y008470D01*
X015655Y008504D01*
X015462Y008547D01*
X015271Y008600D01*
X015083Y008662D01*
X014898Y008733D01*
X014717Y008813D01*
X014540Y008902D01*
X014368Y009000D01*
X014200Y009106D01*
X014038Y009220D01*
X013882Y009342D01*
X013732Y009471D01*
X013589Y009608D01*
X013452Y009751D01*
X013323Y009901D01*
X013201Y010057D01*
X013087Y010219D01*
X012981Y010387D01*
X012883Y010559D01*
X012794Y010736D01*
X012714Y010917D01*
X012643Y011102D01*
X012581Y011290D01*
X012528Y011481D01*
X012485Y011674D01*
X012451Y011869D01*
X012426Y012066D01*
X012412Y012263D01*
X012407Y012461D01*
X011914Y012461D02*
X011919Y012683D01*
X011936Y012905D01*
X011963Y013125D01*
X012001Y013344D01*
X012050Y013561D01*
X012109Y013775D01*
X012179Y013986D01*
X012259Y014194D01*
X012349Y014397D01*
X012449Y014595D01*
X012558Y014789D01*
X012677Y014977D01*
X012805Y015158D01*
X012942Y015334D01*
X013087Y015502D01*
X013240Y015663D01*
X013401Y015816D01*
X013569Y015961D01*
X013745Y016098D01*
X013926Y016226D01*
X014114Y016345D01*
X014308Y016454D01*
X014506Y016554D01*
X014709Y016644D01*
X014917Y016724D01*
X015128Y016794D01*
X015342Y016853D01*
X015559Y016902D01*
X015778Y016940D01*
X015998Y016967D01*
X016220Y016984D01*
X016442Y016989D01*
X016664Y016984D01*
X016886Y016967D01*
X017106Y016940D01*
X017325Y016902D01*
X017542Y016853D01*
X017756Y016794D01*
X017967Y016724D01*
X018175Y016644D01*
X018378Y016554D01*
X018576Y016454D01*
X018770Y016345D01*
X018958Y016226D01*
X019139Y016098D01*
X019315Y015961D01*
X019483Y015816D01*
X019644Y015663D01*
X019797Y015502D01*
X019942Y015334D01*
X020079Y015158D01*
X020207Y014977D01*
X020326Y014789D01*
X020435Y014595D01*
X020535Y014397D01*
X020625Y014194D01*
X020705Y013986D01*
X020775Y013775D01*
X020834Y013561D01*
X020883Y013344D01*
X020921Y013125D01*
X020948Y012905D01*
X020965Y012683D01*
X020970Y012461D01*
X020965Y012239D01*
X020948Y012017D01*
X020921Y011797D01*
X020883Y011578D01*
X020834Y011361D01*
X020775Y011147D01*
X020705Y010936D01*
X020625Y010728D01*
X020535Y010525D01*
X020435Y010327D01*
X020326Y010133D01*
X020207Y009945D01*
X020079Y009764D01*
X019942Y009588D01*
X019797Y009420D01*
X019644Y009259D01*
X019483Y009106D01*
X019315Y008961D01*
X019139Y008824D01*
X018958Y008696D01*
X018770Y008577D01*
X018576Y008468D01*
X018378Y008368D01*
X018175Y008278D01*
X017967Y008198D01*
X017756Y008128D01*
X017542Y008069D01*
X017325Y008020D01*
X017106Y007982D01*
X016886Y007955D01*
X016664Y007938D01*
X016442Y007933D01*
X016220Y007938D01*
X015998Y007955D01*
X015778Y007982D01*
X015559Y008020D01*
X015342Y008069D01*
X015128Y008128D01*
X014917Y008198D01*
X014709Y008278D01*
X014506Y008368D01*
X014308Y008468D01*
X014114Y008577D01*
X013926Y008696D01*
X013745Y008824D01*
X013569Y008961D01*
X013401Y009106D01*
X013240Y009259D01*
X013087Y009420D01*
X012942Y009588D01*
X012805Y009764D01*
X012677Y009945D01*
X012558Y010133D01*
X012449Y010327D01*
X012349Y010525D01*
X012259Y010728D01*
X012179Y010936D01*
X012109Y011147D01*
X012050Y011361D01*
X012001Y011578D01*
X011963Y011797D01*
X011936Y012017D01*
X011919Y012239D01*
X011914Y012461D01*
D17*
X027307Y012432D02*
X027357Y012382D01*
X027307Y012357D02*
X027332Y012332D01*
X027432Y012332D01*
X027457Y012357D01*
X027457Y012407D01*
X027432Y012432D01*
X027332Y012432D01*
X027307Y012407D01*
X027307Y012357D01*
X027332Y012479D02*
X027307Y012504D01*
X027307Y012554D01*
X027332Y012579D01*
X027357Y012579D01*
X027382Y012554D01*
X027382Y012529D01*
X027382Y012554D02*
X027407Y012579D01*
X027432Y012579D01*
X027457Y012554D01*
X027457Y012504D01*
X027432Y012479D01*
X033380Y012459D02*
X033430Y012409D01*
X033380Y012434D02*
X033380Y012384D01*
X033405Y012359D01*
X033505Y012359D01*
X033530Y012384D01*
X033530Y012434D01*
X033505Y012459D01*
X033405Y012459D01*
X033380Y012434D01*
X033455Y012506D02*
X033455Y012606D01*
X033380Y012581D02*
X033530Y012581D01*
X033455Y012506D01*
X040444Y012476D02*
X040444Y012426D01*
X040469Y012401D01*
X040469Y012354D02*
X040444Y012329D01*
X040444Y012279D01*
X040469Y012254D01*
X040569Y012254D01*
X040594Y012279D01*
X040594Y012329D01*
X040569Y012354D01*
X040469Y012354D01*
X040444Y012354D02*
X040494Y012304D01*
X040519Y012401D02*
X040544Y012451D01*
X040544Y012476D01*
X040519Y012501D01*
X040469Y012501D01*
X040444Y012476D01*
X040519Y012401D02*
X040594Y012401D01*
X040594Y012501D01*
X029027Y006017D02*
X029002Y005967D01*
X028952Y005917D01*
X028952Y005992D01*
X028927Y006017D01*
X028902Y006017D01*
X028877Y005992D01*
X028877Y005942D01*
X028902Y005917D01*
X028952Y005917D01*
X028902Y005870D02*
X028877Y005845D01*
X028877Y005795D01*
X028902Y005770D01*
X029002Y005770D01*
X029027Y005795D01*
X029027Y005845D01*
X029002Y005870D01*
X028902Y005870D01*
X028877Y005870D02*
X028927Y005820D01*
X040826Y004864D02*
X041026Y004864D01*
X041001Y004889D02*
X040976Y004914D01*
X041001Y004889D02*
X041001Y004839D01*
X040976Y004814D01*
X040951Y004814D01*
X040926Y004839D01*
X040926Y004889D01*
X040901Y004914D01*
X040876Y004914D01*
X040851Y004889D01*
X040851Y004839D01*
X040876Y004814D01*
X040876Y004766D02*
X041001Y004766D01*
X041001Y004666D02*
X040876Y004666D01*
X040851Y004691D01*
X040851Y004741D01*
X040876Y004766D01*
X040851Y004961D02*
X040851Y005061D01*
X040851Y005011D02*
X041001Y005011D01*
X040951Y004961D01*
D18*
X056903Y009283D03*
X056903Y010283D03*
X056903Y011283D03*
X056903Y012283D03*
X056903Y013283D03*
X056903Y014283D03*
X056903Y015283D03*
X056903Y016283D03*
D19*
X052551Y017310D02*
X052397Y017310D01*
X052474Y017310D02*
X052474Y017771D01*
X052551Y017771D02*
X052397Y017771D01*
X052244Y017694D02*
X052244Y017387D01*
X052167Y017310D01*
X052013Y017310D01*
X051937Y017387D01*
X051783Y017310D02*
X051476Y017617D01*
X051476Y017694D01*
X051553Y017771D01*
X051706Y017771D01*
X051783Y017694D01*
X051937Y017694D02*
X052013Y017771D01*
X052167Y017771D01*
X052244Y017694D01*
X051783Y017310D02*
X051476Y017310D01*
X041668Y015402D02*
X041668Y014941D01*
X041438Y014941D01*
X041361Y015018D01*
X041361Y015325D01*
X041438Y015402D01*
X041668Y015402D01*
X041208Y015325D02*
X041208Y015248D01*
X041131Y015172D01*
X040977Y015172D01*
X040901Y015095D01*
X040901Y015018D01*
X040977Y014941D01*
X041131Y014941D01*
X041208Y015018D01*
X041208Y015095D01*
X041131Y015172D01*
X040977Y015172D02*
X040901Y015248D01*
X040901Y015325D01*
X040977Y015402D01*
X041131Y015402D01*
X041208Y015325D01*
X041145Y014361D02*
X041222Y014284D01*
X041222Y014207D01*
X041145Y014131D01*
X040915Y014131D01*
X040915Y014284D02*
X040915Y013977D01*
X040992Y013900D01*
X041145Y013900D01*
X041222Y013977D01*
X041375Y013977D02*
X041375Y014284D01*
X041452Y014361D01*
X041682Y014361D01*
X041682Y013900D01*
X041452Y013900D01*
X041375Y013977D01*
X041145Y014361D02*
X040992Y014361D01*
X040915Y014284D01*
X034727Y014344D02*
X034727Y013884D01*
X034496Y013884D01*
X034420Y013960D01*
X034420Y014267D01*
X034496Y014344D01*
X034727Y014344D01*
X034266Y014344D02*
X033959Y014344D01*
X033959Y014267D01*
X034266Y013960D01*
X034266Y013884D01*
X034171Y014912D02*
X034017Y014912D01*
X033940Y014989D01*
X033940Y015065D01*
X034017Y015142D01*
X034247Y015142D01*
X034247Y014989D01*
X034171Y014912D01*
X034401Y014989D02*
X034401Y015296D01*
X034478Y015372D01*
X034708Y015372D01*
X034708Y014912D01*
X034478Y014912D01*
X034401Y014989D01*
X034247Y015142D02*
X034094Y015296D01*
X033940Y015372D01*
X028566Y015364D02*
X028566Y014903D01*
X028336Y014903D01*
X028259Y014980D01*
X028259Y015287D01*
X028336Y015364D01*
X028566Y015364D01*
X028105Y015364D02*
X028105Y015133D01*
X027952Y015210D01*
X027875Y015210D01*
X027799Y015133D01*
X027799Y014980D01*
X027875Y014903D01*
X028029Y014903D01*
X028105Y014980D01*
X028105Y015364D02*
X027799Y015364D01*
X027927Y013127D02*
X028158Y012897D01*
X027851Y012897D01*
X027927Y013127D02*
X027927Y012666D01*
X028311Y012743D02*
X028311Y013050D01*
X028388Y013127D01*
X028618Y013127D01*
X028618Y012666D01*
X028388Y012666D01*
X028311Y012743D01*
X028125Y006430D02*
X028125Y005969D01*
X028278Y005969D02*
X027972Y005969D01*
X027818Y006046D02*
X027511Y006353D01*
X027511Y006046D01*
X027588Y005969D01*
X027741Y005969D01*
X027818Y006046D01*
X027818Y006353D01*
X027741Y006430D01*
X027588Y006430D01*
X027511Y006353D01*
X028125Y006430D02*
X028278Y006276D01*
X028432Y006353D02*
X028509Y006430D01*
X028739Y006430D01*
X028739Y005969D01*
X028509Y005969D01*
X028432Y006046D01*
X028432Y006353D01*
X028510Y005616D02*
X028741Y005616D01*
X028741Y005155D01*
X028510Y005155D01*
X028434Y005232D01*
X028434Y005539D01*
X028510Y005616D01*
X028280Y005462D02*
X028127Y005616D01*
X028127Y005155D01*
X028280Y005155D02*
X027973Y005155D01*
X027820Y005155D02*
X027513Y005155D01*
X027666Y005155D02*
X027666Y005616D01*
X027820Y005462D01*
D20*
X001194Y002045D02*
X001196Y002092D01*
X001202Y002138D01*
X001212Y002184D01*
X001225Y002229D01*
X001243Y002272D01*
X001264Y002314D01*
X001288Y002354D01*
X001316Y002391D01*
X001347Y002426D01*
X001381Y002459D01*
X001417Y002488D01*
X001456Y002514D01*
X001497Y002537D01*
X001540Y002556D01*
X001584Y002572D01*
X001629Y002584D01*
X001675Y002592D01*
X001722Y002596D01*
X001768Y002596D01*
X001815Y002592D01*
X001861Y002584D01*
X001906Y002572D01*
X001950Y002556D01*
X001993Y002537D01*
X002034Y002514D01*
X002073Y002488D01*
X002109Y002459D01*
X002143Y002426D01*
X002174Y002391D01*
X002202Y002354D01*
X002226Y002314D01*
X002247Y002272D01*
X002265Y002229D01*
X002278Y002184D01*
X002288Y002138D01*
X002294Y002092D01*
X002296Y002045D01*
X002294Y001998D01*
X002288Y001952D01*
X002278Y001906D01*
X002265Y001861D01*
X002247Y001818D01*
X002226Y001776D01*
X002202Y001736D01*
X002174Y001699D01*
X002143Y001664D01*
X002109Y001631D01*
X002073Y001602D01*
X002034Y001576D01*
X001993Y001553D01*
X001950Y001534D01*
X001906Y001518D01*
X001861Y001506D01*
X001815Y001498D01*
X001768Y001494D01*
X001722Y001494D01*
X001675Y001498D01*
X001629Y001506D01*
X001584Y001518D01*
X001540Y001534D01*
X001497Y001553D01*
X001456Y001576D01*
X001417Y001602D01*
X001381Y001631D01*
X001347Y001664D01*
X001316Y001699D01*
X001288Y001736D01*
X001264Y001776D01*
X001243Y001818D01*
X001225Y001861D01*
X001212Y001906D01*
X001202Y001952D01*
X001196Y001998D01*
X001194Y002045D01*
X001114Y021290D02*
X001116Y021337D01*
X001122Y021383D01*
X001132Y021429D01*
X001145Y021474D01*
X001163Y021517D01*
X001184Y021559D01*
X001208Y021599D01*
X001236Y021636D01*
X001267Y021671D01*
X001301Y021704D01*
X001337Y021733D01*
X001376Y021759D01*
X001417Y021782D01*
X001460Y021801D01*
X001504Y021817D01*
X001549Y021829D01*
X001595Y021837D01*
X001642Y021841D01*
X001688Y021841D01*
X001735Y021837D01*
X001781Y021829D01*
X001826Y021817D01*
X001870Y021801D01*
X001913Y021782D01*
X001954Y021759D01*
X001993Y021733D01*
X002029Y021704D01*
X002063Y021671D01*
X002094Y021636D01*
X002122Y021599D01*
X002146Y021559D01*
X002167Y021517D01*
X002185Y021474D01*
X002198Y021429D01*
X002208Y021383D01*
X002214Y021337D01*
X002216Y021290D01*
X002214Y021243D01*
X002208Y021197D01*
X002198Y021151D01*
X002185Y021106D01*
X002167Y021063D01*
X002146Y021021D01*
X002122Y020981D01*
X002094Y020944D01*
X002063Y020909D01*
X002029Y020876D01*
X001993Y020847D01*
X001954Y020821D01*
X001913Y020798D01*
X001870Y020779D01*
X001826Y020763D01*
X001781Y020751D01*
X001735Y020743D01*
X001688Y020739D01*
X001642Y020739D01*
X001595Y020743D01*
X001549Y020751D01*
X001504Y020763D01*
X001460Y020779D01*
X001417Y020798D01*
X001376Y020821D01*
X001337Y020847D01*
X001301Y020876D01*
X001267Y020909D01*
X001236Y020944D01*
X001208Y020981D01*
X001184Y021021D01*
X001163Y021063D01*
X001145Y021106D01*
X001132Y021151D01*
X001122Y021197D01*
X001116Y021243D01*
X001114Y021290D01*
X069451Y021232D02*
X069453Y021279D01*
X069459Y021325D01*
X069469Y021371D01*
X069482Y021416D01*
X069500Y021459D01*
X069521Y021501D01*
X069545Y021541D01*
X069573Y021578D01*
X069604Y021613D01*
X069638Y021646D01*
X069674Y021675D01*
X069713Y021701D01*
X069754Y021724D01*
X069797Y021743D01*
X069841Y021759D01*
X069886Y021771D01*
X069932Y021779D01*
X069979Y021783D01*
X070025Y021783D01*
X070072Y021779D01*
X070118Y021771D01*
X070163Y021759D01*
X070207Y021743D01*
X070250Y021724D01*
X070291Y021701D01*
X070330Y021675D01*
X070366Y021646D01*
X070400Y021613D01*
X070431Y021578D01*
X070459Y021541D01*
X070483Y021501D01*
X070504Y021459D01*
X070522Y021416D01*
X070535Y021371D01*
X070545Y021325D01*
X070551Y021279D01*
X070553Y021232D01*
X070551Y021185D01*
X070545Y021139D01*
X070535Y021093D01*
X070522Y021048D01*
X070504Y021005D01*
X070483Y020963D01*
X070459Y020923D01*
X070431Y020886D01*
X070400Y020851D01*
X070366Y020818D01*
X070330Y020789D01*
X070291Y020763D01*
X070250Y020740D01*
X070207Y020721D01*
X070163Y020705D01*
X070118Y020693D01*
X070072Y020685D01*
X070025Y020681D01*
X069979Y020681D01*
X069932Y020685D01*
X069886Y020693D01*
X069841Y020705D01*
X069797Y020721D01*
X069754Y020740D01*
X069713Y020763D01*
X069674Y020789D01*
X069638Y020818D01*
X069604Y020851D01*
X069573Y020886D01*
X069545Y020923D01*
X069521Y020963D01*
X069500Y021005D01*
X069482Y021048D01*
X069469Y021093D01*
X069459Y021139D01*
X069453Y021185D01*
X069451Y021232D01*
X069421Y001906D02*
X069423Y001953D01*
X069429Y001999D01*
X069439Y002045D01*
X069452Y002090D01*
X069470Y002133D01*
X069491Y002175D01*
X069515Y002215D01*
X069543Y002252D01*
X069574Y002287D01*
X069608Y002320D01*
X069644Y002349D01*
X069683Y002375D01*
X069724Y002398D01*
X069767Y002417D01*
X069811Y002433D01*
X069856Y002445D01*
X069902Y002453D01*
X069949Y002457D01*
X069995Y002457D01*
X070042Y002453D01*
X070088Y002445D01*
X070133Y002433D01*
X070177Y002417D01*
X070220Y002398D01*
X070261Y002375D01*
X070300Y002349D01*
X070336Y002320D01*
X070370Y002287D01*
X070401Y002252D01*
X070429Y002215D01*
X070453Y002175D01*
X070474Y002133D01*
X070492Y002090D01*
X070505Y002045D01*
X070515Y001999D01*
X070521Y001953D01*
X070523Y001906D01*
X070521Y001859D01*
X070515Y001813D01*
X070505Y001767D01*
X070492Y001722D01*
X070474Y001679D01*
X070453Y001637D01*
X070429Y001597D01*
X070401Y001560D01*
X070370Y001525D01*
X070336Y001492D01*
X070300Y001463D01*
X070261Y001437D01*
X070220Y001414D01*
X070177Y001395D01*
X070133Y001379D01*
X070088Y001367D01*
X070042Y001359D01*
X069995Y001355D01*
X069949Y001355D01*
X069902Y001359D01*
X069856Y001367D01*
X069811Y001379D01*
X069767Y001395D01*
X069724Y001414D01*
X069683Y001437D01*
X069644Y001463D01*
X069608Y001492D01*
X069574Y001525D01*
X069543Y001560D01*
X069515Y001597D01*
X069491Y001637D01*
X069470Y001679D01*
X069452Y001722D01*
X069439Y001767D01*
X069429Y001813D01*
X069423Y001859D01*
X069421Y001906D01*
M02*
