G75*
%MOIN*%
%OFA0B0*%
%FSLAX24Y24*%
%IPPOS*%
%LPD*%
%AMOC8*
5,1,8,0,0,1.08239X$1,22.5*
%
%ADD10C,0.1143*%
%ADD11C,0.0780*%
%ADD12OC8,0.0940*%
%ADD13C,0.1080*%
%ADD14OC8,0.1080*%
%ADD15OC8,0.0820*%
%ADD16OC8,0.0840*%
%ADD17C,0.0680*%
%ADD18C,0.1580*%
%ADD19C,0.0740*%
%ADD20C,0.0640*%
%ADD21C,0.1182*%
%ADD22C,0.0434*%
%ADD23C,0.0580*%
%ADD24C,0.0476*%
D10*
X004162Y024637D02*
X004162Y025700D01*
X006132Y025700D02*
X006132Y024637D01*
X020441Y024724D02*
X020441Y025787D01*
X022411Y025787D02*
X022411Y024724D01*
X024381Y024724D02*
X024381Y025787D01*
X026351Y025787D02*
X026351Y024724D01*
X028321Y024724D02*
X028321Y025787D01*
D11*
X009777Y024887D02*
X009077Y024887D01*
X008577Y022887D02*
X007877Y022887D01*
X021825Y001954D02*
X021825Y001254D01*
X022825Y001254D02*
X022825Y001954D01*
X023825Y001954D02*
X023825Y001254D01*
X024825Y001254D02*
X024825Y001954D01*
X025825Y001954D02*
X025825Y001254D01*
X026825Y001254D02*
X026825Y001954D01*
X027825Y001954D02*
X027825Y001254D01*
X028825Y001254D02*
X028825Y001954D01*
D12*
X001177Y020771D03*
X001177Y024771D03*
D13*
X013311Y025587D03*
D14*
X011311Y025587D03*
X014042Y018980D03*
X017538Y018962D03*
X020889Y018943D03*
X024612Y018943D03*
X028694Y018931D03*
D15*
X030423Y009506D03*
X030423Y008506D03*
X031423Y008506D03*
X031423Y009506D03*
X031423Y007506D03*
X030423Y007506D03*
D16*
X030661Y014123D03*
X029661Y014123D03*
X028661Y014123D03*
X027118Y014123D03*
X026118Y014123D03*
X025118Y014123D03*
X023575Y014123D03*
X022575Y014123D03*
X021575Y014123D03*
X020031Y014123D03*
X019031Y014123D03*
X018031Y014123D03*
X016488Y014123D03*
X015488Y014123D03*
X014488Y014123D03*
X014488Y017123D03*
X015488Y017123D03*
X016488Y017123D03*
X018031Y017123D03*
X019031Y017123D03*
X020031Y017123D03*
X021575Y017123D03*
X022575Y017123D03*
X023575Y017123D03*
X025118Y017123D03*
X026118Y017123D03*
X027118Y017123D03*
X028661Y017123D03*
X029661Y017123D03*
X030661Y017123D03*
X030194Y018931D03*
X026112Y018943D03*
X022389Y018943D03*
X019038Y018962D03*
X015542Y018980D03*
D17*
X015853Y020819D02*
X015853Y021419D01*
X014853Y021419D02*
X014853Y020819D01*
X016853Y020819D02*
X016853Y021419D01*
X019391Y021419D02*
X019391Y020819D01*
X020391Y020819D02*
X020391Y021419D01*
X021391Y021419D02*
X021391Y020819D01*
X023985Y020819D02*
X023985Y021419D01*
X024985Y021419D02*
X024985Y020819D01*
X025985Y020819D02*
X025985Y021419D01*
X028487Y021419D02*
X028487Y020819D01*
X029487Y020819D02*
X029487Y021419D01*
X030487Y021419D02*
X030487Y020819D01*
X017312Y024068D02*
X016712Y024068D01*
X016712Y025068D02*
X017312Y025068D01*
X017312Y026068D02*
X016712Y026068D01*
D18*
X009850Y020767D03*
X002567Y020767D03*
X005323Y006200D03*
X008276Y006200D03*
D19*
X017962Y001954D02*
X017962Y001294D01*
X018962Y001294D02*
X018962Y001954D01*
X019962Y001954D02*
X019962Y001294D01*
D20*
X022781Y003320D02*
X022781Y003880D01*
X023781Y003880D02*
X023781Y003320D01*
X024781Y003320D02*
X024781Y003880D01*
X025781Y003880D02*
X025781Y003320D01*
X026781Y003320D02*
X026781Y003880D01*
X027781Y003880D02*
X027781Y003320D01*
X028781Y003320D02*
X028781Y003880D01*
D21*
X001807Y001500D03*
X001575Y026512D03*
X030999Y026444D03*
X031001Y001587D03*
D22*
X011715Y002616D03*
X009982Y002616D03*
D23*
X012046Y004449D03*
X012441Y004974D03*
X013026Y005899D03*
X014386Y002969D03*
X016636Y003059D03*
X020026Y003479D03*
X021006Y003379D03*
X019986Y004899D03*
X020578Y005331D03*
X021421Y005195D03*
X019876Y006183D03*
X018626Y007049D03*
X019206Y007395D03*
X019052Y008132D03*
X020666Y008339D03*
X021331Y007294D03*
X023148Y007751D03*
X023095Y008471D03*
X025735Y008339D03*
X026514Y008737D03*
X026061Y009206D03*
X026046Y009840D03*
X024676Y010959D03*
X023349Y012090D03*
X019819Y012090D03*
X019717Y010532D03*
X019076Y009849D03*
X016067Y011435D03*
X015613Y012090D03*
X013964Y010908D03*
X010869Y010936D03*
X009810Y013582D03*
X008290Y015354D03*
X007840Y018105D03*
X004677Y015560D03*
X003920Y018105D03*
X006776Y010979D03*
X010009Y007403D03*
X009686Y005849D03*
X016319Y006706D03*
X023256Y005249D03*
X023326Y002529D03*
X028716Y005099D03*
X029680Y002404D03*
X030941Y012097D03*
X026930Y012090D03*
X015896Y023869D03*
X012886Y024039D03*
X002826Y005509D03*
D24*
X019858Y018054D03*
X017898Y021097D03*
X022584Y021123D03*
X023575Y018088D03*
X027118Y018092D03*
X027088Y021098D03*
M02*
