%
M48
M72
T01C0.0236
T02C0.0315
T03C0.0320
T04C0.0354
T05C0.0360
T06C0.0394
T07C0.0400
T08C0.0472
T09C0.0520
T10C0.1102
%
T01
X19858Y18054
X17898Y21097
X22584Y21123
X23575Y18088
X27118Y18092
X27088Y21098
T02
X26930Y12090
X24676Y10959
X23349Y12090
X26046Y9840
X26061Y9206
X26514Y8737
X25735Y8339
X23095Y8471
X23148Y7751
X21331Y7294
X20666Y8339
X19206Y7395
X18626Y7049
X19052Y8132
X19076Y9849
X19717Y10532
X19819Y12090
X16067Y11435
X15613Y12090
X13964Y10908
X10869Y10936
X9810Y13582
X8290Y15354
X7840Y18105
X4677Y15560
X3920Y18105
X1177Y20771
X1177Y24771
X12886Y24039
X15896Y23869
X6776Y10979
X10009Y7403
X9686Y5849
X12046Y4449
X12441Y4974
X13026Y5899
X14386Y2969
X16636Y3059
X20026Y3479
X21006Y3379
X19986Y4899
X20578Y5331
X21421Y5195
X19876Y6183
X23256Y5249
X23326Y2529
X28716Y5099
X29680Y2404
X30941Y12097
X16319Y6706
X2826Y5509
T03
X14488Y14123
X15488Y14123
X16488Y14123
X18031Y14123
X19031Y14123
X20031Y14123
X21575Y14123
X22575Y14123
X23575Y14123
X25118Y14123
X26118Y14123
X27118Y14123
X28661Y14123
X29661Y14123
X30661Y14123
X30661Y17123
X29661Y17123
X28661Y17123
X27118Y17123
X26118Y17123
X25118Y17123
X23575Y17123
X22575Y17123
X21575Y17123
X20031Y17123
X19031Y17123
X18031Y17123
X16488Y17123
X15488Y17123
X14488Y17123
X22781Y3600
X23781Y3600
X24781Y3600
X25781Y3600
X26781Y3600
X27781Y3600
X28781Y3600
T04
X11715Y2616
X9982Y2616
T05
X14042Y18980
X15542Y18980
X17538Y18962
X19038Y18962
X20889Y18943
X22389Y18943
X24612Y18943
X26112Y18943
X28694Y18931
X30194Y18931
X9427Y24887
X8227Y22887
T06
X17962Y1624
X18962Y1624
X19962Y1624
X21825Y1604
X22825Y1604
X23825Y1604
X24825Y1604
X25825Y1604
X26825Y1604
X27825Y1604
X28825Y1604
T07
X30423Y7506
X31423Y7506
X31423Y8506
X30423Y8506
X30423Y9506
X31423Y9506
X30487Y21119
X29487Y21119
X28487Y21119
X25985Y21119
X24985Y21119
X23985Y21119
X21391Y21119
X20391Y21119
X19391Y21119
X16853Y21119
X15853Y21119
X14853Y21119
X17012Y24068
X17012Y25068
X17012Y26068
X13311Y25587
X11311Y25587
T08
X9850Y20767
X2567Y20767
X5323Y6200
X8276Y6200
T09
X6132Y25168
X4162Y25168
X20441Y25255
X22411Y25255
X24381Y25255
X26351Y25255
X28321Y25255
T10
X1807Y1500
X1575Y26512
X30999Y26444
X31001Y1587
M30
