%
M48
M72
T01C0.0236
T02C0.0315
T03C0.0320
T04C0.0354
T05C0.0360
T06C0.0394
T07C0.0400
T08C0.0433
T09C0.0470
T10C0.0472
T11C0.0520
T12C0.0551
T13C0.1102
%
T01
X12304Y5565
X52181Y5576
T02
X7512Y5396
X8712Y4704
X10402Y5413
X11097Y4680
X14402Y3184
X15308Y5726
X16088Y6475
X17294Y5788
X20557Y6115
X21808Y5582
X22788Y6478
X23507Y5659
X21135Y7456
X24888Y9260
X26529Y9178
X28159Y9178
X28394Y12462
X26529Y12404
X25224Y14142
X28516Y14044
X30512Y13884
X30997Y13149
X30313Y12362
X22241Y12323
X19008Y10738
X15961Y9800
X15383Y10374
X15716Y11448
X14057Y10386
X12670Y12316
X13103Y14555
X13154Y15548
X9059Y15536
X8544Y19168
X8118Y22053
X9118Y22053
X7118Y22053
X5158Y22425
X13294Y19066
X15703Y19430
X17465Y19104
X23600Y17525
X27000Y18965
X29348Y18856
X29450Y23711
X27516Y25341
X30220Y27406
X28837Y28726
X31981Y30542
X29408Y30719
X29353Y32981
X32336Y33841
X35742Y32795
X40014Y32484
X42431Y32919
X48723Y31914
X49358Y31943
X50012Y31913
X51015Y31934
X52480Y32806
X50670Y34681
X48689Y34234
X50875Y36974
X58348Y34579
X50125Y29496
X49703Y30012
X49409Y31071
X48577Y30575
X48244Y29311
X47210Y28320
X49323Y27540
X49963Y26940
X50759Y27441
X51512Y27424
X52121Y28339
X45128Y26730
X41738Y26678
X40773Y26760
X38700Y27245
X34347Y26945
X41418Y23877
X44543Y23340
X46079Y22075
X47079Y22075
X48079Y22075
X49079Y22075
X50079Y22075
X51079Y22075
X52079Y22075
X53079Y22075
X53946Y22808
X54609Y21780
X56029Y22325
X55580Y19441
X57342Y19115
X53171Y19077
X48421Y19179
X53031Y15559
X52980Y14566
X52547Y12327
X53934Y10397
X55260Y10385
X55838Y9811
X55593Y11459
X58885Y10749
X62118Y12334
X65101Y14153
X66406Y12415
X68271Y12473
X70190Y12373
X70874Y13160
X70389Y13895
X68393Y14055
X63477Y17536
X66877Y18975
X69225Y18866
X68037Y9188
X66406Y9188
X64765Y9270
X61012Y7467
X62665Y6488
X63385Y5670
X61685Y5593
X60434Y6126
X60374Y4244
X58802Y3128
X57171Y5799
X55965Y6486
X55185Y5736
X52112Y7206
X54081Y7891
X50279Y5424
X50974Y4691
X48589Y4715
X47389Y5407
X47853Y8819
X48501Y9385
X48977Y11051
X47322Y11067
X48936Y15547
X36937Y22242
X23257Y26853
X14001Y27739
X3732Y28438
X7445Y11057
X9100Y11040
X8624Y9375
X7976Y8808
X12235Y7195
X14204Y7880
X20497Y4233
X18925Y3117
X24369Y3230
X25259Y3314
X26579Y2424
X27882Y2410
X29603Y3147
X29959Y1857
X26985Y5659
X54279Y3195
X64246Y3241
X65136Y3325
X66456Y2435
X67759Y2421
X69480Y3158
X69836Y1868
X66862Y5670
T03
X53121Y24277
X52121Y24277
X51121Y24277
X50121Y24277
X49121Y24277
X48121Y24277
X47121Y24277
X46121Y24277
T04
X21848Y32727
X13974Y32727
X20303Y1227
X21484Y1227
X60180Y1238
X61362Y1238
T05
X62552Y22419
X62552Y23919
X62546Y26467
X62546Y27967
X62538Y30214
X62538Y31714
X62551Y33887
X62551Y35387
X1554Y36347
X1554Y38347
T06
X25533Y36651
X30258Y36651
X32016Y36639
X36741Y36639
X38511Y36640
X43235Y36640
X43235Y31836
X40873Y31049
X38511Y31836
X36741Y31836
X34378Y31049
X32016Y31836
X30258Y31848
X27895Y31061
X25533Y31848
X25733Y29127
X30536Y29127
X31324Y26765
X30536Y24403
X27698Y22114
X26698Y22014
X25698Y22114
X28698Y22014
X25733Y24403
X38698Y22114
X39698Y22014
X40698Y22114
X41698Y22014
X64537Y22338
X65537Y22338
X66537Y22338
X64850Y24864
X64850Y25864
X64850Y26864
X64823Y29257
X64823Y30257
X64823Y31257
X64780Y33675
X64780Y34675
X64780Y35675
T07
X45898Y30113
X44898Y30113
X44898Y29113
X45898Y29113
X45898Y28113
X44898Y28113
X60130Y12672
X60030Y11672
X60130Y10672
X60030Y9672
X20253Y10661
X20153Y9661
X20153Y11661
X20253Y12661
X10904Y25952
X8904Y25952
T08
X9752Y38637
X10352Y41637
X67026Y32346
X69229Y32311
X69829Y35311
X67626Y35346
X67602Y29094
X69833Y29088
X69233Y26088
X67002Y26094
T09
X67896Y38761
X66481Y41634
X57096Y38761
X55571Y38632
X55681Y41634
X54084Y41565
X44771Y38632
X43284Y41565
T10
X39595Y40436
X37625Y40436
X35665Y40436
X33695Y40436
X31715Y40436
X29745Y40436
X27785Y40436
X25815Y40436
T11
X7204Y40493
X5234Y40493
X43947Y21998
X24272Y1654
X64149Y1665
T12
X19574Y25603
X16621Y25603
X13865Y40169
X21148Y40169
T13
X1854Y41503
X1836Y22311
X38611Y18663
X70013Y22300
X70007Y41498
M30
