G75*
G70*
%OFA0B0*%
%FSLAX24Y24*%
%IPPOS*%
%LPD*%
%AMOC8*
5,1,8,0,0,1.08239X$1,22.5*
%
%ADD10C,0.1580*%
%ADD11C,0.1143*%
%ADD12OC8,0.0940*%
%ADD13C,0.0780*%
%ADD14C,0.1080*%
%ADD15OC8,0.1080*%
%ADD16R,0.1080X0.1080*%
%ADD17R,0.0710X0.0789*%
%ADD18R,0.0671X0.0671*%
%ADD19R,0.0560X0.0960*%
%ADD20R,0.1497X0.0946*%
%ADD21R,0.0631X0.0710*%
%ADD22R,0.0671X0.0277*%
%ADD23R,0.0277X0.0671*%
%ADD24R,0.0789X0.0710*%
%ADD25C,0.0640*%
%ADD26C,0.0600*%
%ADD27OC8,0.0780*%
%ADD28C,0.0674*%
%ADD29OC8,0.1320*%
%ADD30C,0.1080*%
%ADD31R,0.0440X0.0780*%
%ADD32C,0.1261*%
%ADD33R,0.0840X0.0840*%
%ADD34C,0.0840*%
%ADD35R,0.0434X0.0395*%
%ADD36R,0.0867X0.0710*%
%ADD37C,0.1182*%
%ADD38C,0.0595*%
%ADD39R,0.0678X0.0781*%
%ADD40OC8,0.0820*%
%ADD41C,0.0787*%
%ADD42R,0.0180X0.0180*%
%ADD43C,0.0100*%
%ADD44C,0.0434*%
%ADD45R,0.0820X0.0820*%
%ADD46C,0.0820*%
%ADD47C,0.0580*%
%ADD48C,0.0640*%
%ADD49C,0.0555*%
D10*
X016621Y025603D03*
X019574Y025603D03*
X021148Y040169D03*
X013865Y040169D03*
D11*
X007204Y039962D02*
X007204Y041025D01*
X005234Y041025D02*
X005234Y039962D01*
D12*
X001554Y038347D03*
X001554Y036347D03*
X062551Y035387D03*
X062538Y031714D03*
X062546Y027967D03*
X062552Y023919D03*
D13*
X066652Y026094D02*
X067352Y026094D01*
X068883Y026088D02*
X069583Y026088D01*
X069483Y029088D02*
X070183Y029088D01*
X067952Y029094D02*
X067252Y029094D01*
X067376Y032346D02*
X066676Y032346D01*
X068879Y032311D02*
X069579Y032311D01*
X069479Y035311D02*
X070179Y035311D01*
X067976Y035346D02*
X067276Y035346D01*
X010702Y041637D02*
X010002Y041637D01*
X010102Y038637D02*
X009402Y038637D01*
D14*
X025533Y036651D03*
X030258Y036651D03*
X032016Y036639D03*
X036741Y036639D03*
X038511Y036640D03*
X043235Y036640D03*
X043235Y031836D03*
X040873Y031049D03*
X038511Y031836D03*
X036741Y031836D03*
X034378Y031049D03*
X032016Y031836D03*
X030258Y031848D03*
X027895Y031061D03*
X025533Y031848D03*
X025733Y029127D03*
X030536Y029127D03*
X031324Y026765D03*
X030536Y024403D03*
X025733Y024403D03*
X010904Y025952D03*
D15*
X008904Y025952D03*
X043947Y021998D03*
X024272Y001654D03*
X064149Y001665D03*
D16*
X010851Y029280D03*
X009249Y029280D03*
D17*
X009518Y030901D03*
X010620Y030901D03*
X010575Y033352D03*
X009473Y033352D03*
X036173Y027073D03*
X037275Y027073D03*
X037335Y023696D03*
X036233Y023696D03*
X042450Y023687D03*
X043553Y023687D03*
X043572Y027098D03*
X042470Y027098D03*
X047385Y027085D03*
X048487Y027085D03*
X046034Y032097D03*
X044932Y032097D03*
X051867Y035424D03*
X052969Y035424D03*
X052979Y036354D03*
X051877Y036354D03*
D18*
X051720Y034578D03*
X053098Y034578D03*
X010696Y032103D03*
X009318Y032103D03*
X002482Y033358D03*
X002482Y034736D03*
D19*
X006364Y033583D03*
X007274Y033583D03*
X008184Y033583D03*
D20*
X007274Y036023D03*
D21*
X004810Y035279D03*
X003707Y035279D03*
X003674Y033568D03*
X004776Y033568D03*
D22*
X047412Y032221D03*
X047412Y031906D03*
X047412Y031591D03*
X047412Y031276D03*
X047412Y030961D03*
X047412Y030647D03*
X047412Y030332D03*
X047412Y030017D03*
X047412Y029702D03*
X047412Y029387D03*
X047412Y029072D03*
X051979Y029072D03*
X051979Y029387D03*
X051979Y029702D03*
X051979Y030017D03*
X051979Y030332D03*
X051979Y030647D03*
X051979Y030961D03*
X051979Y031276D03*
X051979Y031591D03*
X051979Y031906D03*
X051979Y032221D03*
D23*
X051270Y032930D03*
X050955Y032930D03*
X050640Y032930D03*
X050325Y032930D03*
X050010Y032930D03*
X049695Y032930D03*
X049380Y032930D03*
X049065Y032930D03*
X048750Y032930D03*
X048435Y032930D03*
X048120Y032930D03*
X048120Y028363D03*
X048435Y028363D03*
X048750Y028363D03*
X049065Y028363D03*
X049380Y028363D03*
X049695Y028363D03*
X050010Y028363D03*
X050325Y028363D03*
X050640Y028363D03*
X050955Y028363D03*
X051270Y028363D03*
D24*
X056067Y028061D03*
X056067Y026959D03*
X056021Y024502D03*
X056021Y023399D03*
X056043Y030710D03*
X056043Y031813D03*
X056057Y034626D03*
X056057Y035729D03*
X048363Y036117D03*
X048363Y035015D03*
X047165Y035017D03*
X045999Y034985D03*
X045999Y036088D03*
X047165Y036119D03*
X005492Y025077D03*
X003952Y025094D03*
X003952Y023992D03*
X005492Y023975D03*
X001310Y033513D03*
X001310Y034615D03*
D25*
X046079Y022355D02*
X046079Y021795D01*
X047079Y021795D02*
X047079Y022355D01*
X048079Y022355D02*
X048079Y021795D01*
X049079Y021795D02*
X049079Y022355D01*
X050079Y022355D02*
X050079Y021795D01*
X051079Y021795D02*
X051079Y022355D01*
X052079Y022355D02*
X052079Y021795D01*
X053079Y021795D02*
X053079Y022355D01*
D26*
X053121Y024017D02*
X053121Y024537D01*
X052121Y024537D02*
X052121Y024017D01*
X051121Y024017D02*
X051121Y024537D01*
X050121Y024537D02*
X050121Y024017D01*
X049121Y024017D02*
X049121Y024537D01*
X048121Y024537D02*
X048121Y024017D01*
X047121Y024017D02*
X047121Y024537D01*
X046121Y024537D02*
X046121Y024017D01*
D27*
X062552Y022419D03*
X062546Y026467D03*
X062538Y030214D03*
X062551Y033887D03*
D28*
X064483Y033675D02*
X065076Y033675D01*
X065076Y034675D02*
X064483Y034675D01*
X064483Y035675D02*
X065076Y035675D01*
X065120Y031257D02*
X064526Y031257D01*
X064526Y030257D02*
X065120Y030257D01*
X065120Y029257D02*
X064526Y029257D01*
X064553Y026864D02*
X065147Y026864D01*
X065147Y025864D02*
X064553Y025864D01*
X064553Y024864D02*
X065147Y024864D01*
X065537Y022635D02*
X065537Y022041D01*
X066537Y022041D02*
X066537Y022635D01*
X064537Y022635D02*
X064537Y022041D01*
D29*
X067896Y038761D03*
X066481Y041634D03*
X057096Y038761D03*
X055571Y038632D03*
X055681Y041634D03*
X054084Y041565D03*
X044771Y038632D03*
X043284Y041565D03*
D30*
X039595Y040936D02*
X039595Y039936D01*
X037625Y039936D02*
X037625Y040936D01*
X035665Y040936D02*
X035665Y039936D01*
X033695Y039936D02*
X033695Y040936D01*
X031715Y040936D02*
X031715Y039936D01*
X029745Y039936D02*
X029745Y040936D01*
X027785Y040936D02*
X027785Y039936D01*
X025815Y039936D02*
X025815Y040936D01*
D31*
X007283Y031829D03*
X006692Y031829D03*
X006102Y031829D03*
X005511Y031829D03*
X004921Y031829D03*
X004330Y031829D03*
X003740Y031829D03*
X003149Y031829D03*
X003149Y026587D03*
X003740Y026587D03*
X004330Y026587D03*
X004921Y026587D03*
X005511Y026587D03*
X006102Y026587D03*
X006692Y026587D03*
X007283Y026587D03*
D32*
X013974Y032727D03*
X021848Y032727D03*
D33*
X025698Y022114D03*
D34*
X026698Y022014D03*
X027698Y022114D03*
X028698Y022014D03*
X038698Y022114D03*
X039698Y022014D03*
X040698Y022114D03*
X041698Y022014D03*
D35*
X049503Y035375D03*
X049503Y036123D03*
X050329Y035749D03*
D36*
X043008Y029176D03*
X043008Y028176D03*
X039252Y028176D03*
X039252Y029176D03*
X036798Y029160D03*
X036798Y028160D03*
X033042Y028160D03*
X033042Y029160D03*
X033039Y025859D03*
X033039Y024859D03*
X036795Y024859D03*
X036795Y025859D03*
X039237Y025872D03*
X039237Y024872D03*
X042992Y024872D03*
X042992Y025872D03*
D37*
X038611Y018663D03*
X070013Y022300D03*
X070007Y041498D03*
X001854Y041503D03*
X001836Y022311D03*
D38*
X007118Y022311D02*
X007118Y021796D01*
X008118Y021796D02*
X008118Y022311D01*
X009118Y022311D02*
X009118Y021796D01*
D39*
X057356Y021870D03*
X057356Y022870D03*
X057356Y023870D03*
X057328Y025715D03*
X057328Y026715D03*
X057328Y027715D03*
X057390Y029587D03*
X057390Y030587D03*
X057390Y031587D03*
X057346Y033497D03*
X057346Y034497D03*
X057346Y035497D03*
X061004Y035497D03*
X061004Y034497D03*
X061004Y033497D03*
X061047Y031587D03*
X061047Y030587D03*
X061047Y029587D03*
X060985Y027715D03*
X060985Y026715D03*
X060985Y025715D03*
X061013Y023870D03*
X061013Y022870D03*
X061013Y021870D03*
D40*
X045898Y028113D03*
X044898Y028113D03*
X044898Y029113D03*
X045898Y029113D03*
X045898Y030113D03*
X044898Y030113D03*
D41*
X047594Y017692D02*
X047596Y017731D01*
X047602Y017770D01*
X047612Y017808D01*
X047625Y017845D01*
X047642Y017880D01*
X047662Y017914D01*
X047686Y017945D01*
X047713Y017974D01*
X047742Y018000D01*
X047774Y018023D01*
X047808Y018043D01*
X047844Y018059D01*
X047881Y018071D01*
X047920Y018080D01*
X047959Y018085D01*
X047998Y018086D01*
X048037Y018083D01*
X048076Y018076D01*
X048113Y018065D01*
X048150Y018051D01*
X048185Y018033D01*
X048218Y018012D01*
X048249Y017987D01*
X048277Y017960D01*
X048302Y017930D01*
X048324Y017897D01*
X048343Y017863D01*
X048358Y017827D01*
X048370Y017789D01*
X048378Y017751D01*
X048382Y017712D01*
X048382Y017672D01*
X048378Y017633D01*
X048370Y017595D01*
X048358Y017557D01*
X048343Y017521D01*
X048324Y017487D01*
X048302Y017454D01*
X048277Y017424D01*
X048249Y017397D01*
X048218Y017372D01*
X048185Y017351D01*
X048150Y017333D01*
X048113Y017319D01*
X048076Y017308D01*
X048037Y017301D01*
X047998Y017298D01*
X047959Y017299D01*
X047920Y017304D01*
X047881Y017313D01*
X047844Y017325D01*
X047808Y017341D01*
X047774Y017361D01*
X047742Y017384D01*
X047713Y017410D01*
X047686Y017439D01*
X047662Y017470D01*
X047642Y017504D01*
X047625Y017539D01*
X047612Y017576D01*
X047602Y017614D01*
X047596Y017653D01*
X047594Y017692D01*
X052093Y017697D02*
X052095Y017736D01*
X052101Y017775D01*
X052111Y017813D01*
X052124Y017850D01*
X052141Y017885D01*
X052161Y017919D01*
X052185Y017950D01*
X052212Y017979D01*
X052241Y018005D01*
X052273Y018028D01*
X052307Y018048D01*
X052343Y018064D01*
X052380Y018076D01*
X052419Y018085D01*
X052458Y018090D01*
X052497Y018091D01*
X052536Y018088D01*
X052575Y018081D01*
X052612Y018070D01*
X052649Y018056D01*
X052684Y018038D01*
X052717Y018017D01*
X052748Y017992D01*
X052776Y017965D01*
X052801Y017935D01*
X052823Y017902D01*
X052842Y017868D01*
X052857Y017832D01*
X052869Y017794D01*
X052877Y017756D01*
X052881Y017717D01*
X052881Y017677D01*
X052877Y017638D01*
X052869Y017600D01*
X052857Y017562D01*
X052842Y017526D01*
X052823Y017492D01*
X052801Y017459D01*
X052776Y017429D01*
X052748Y017402D01*
X052717Y017377D01*
X052684Y017356D01*
X052649Y017338D01*
X052612Y017324D01*
X052575Y017313D01*
X052536Y017306D01*
X052497Y017303D01*
X052458Y017304D01*
X052419Y017309D01*
X052380Y017318D01*
X052343Y017330D01*
X052307Y017346D01*
X052273Y017366D01*
X052241Y017389D01*
X052212Y017415D01*
X052185Y017444D01*
X052161Y017475D01*
X052141Y017509D01*
X052124Y017544D01*
X052111Y017581D01*
X052101Y017619D01*
X052095Y017658D01*
X052093Y017697D01*
X056941Y017651D02*
X056943Y017690D01*
X056949Y017729D01*
X056959Y017767D01*
X056972Y017804D01*
X056989Y017839D01*
X057009Y017873D01*
X057033Y017904D01*
X057060Y017933D01*
X057089Y017959D01*
X057121Y017982D01*
X057155Y018002D01*
X057191Y018018D01*
X057228Y018030D01*
X057267Y018039D01*
X057306Y018044D01*
X057345Y018045D01*
X057384Y018042D01*
X057423Y018035D01*
X057460Y018024D01*
X057497Y018010D01*
X057532Y017992D01*
X057565Y017971D01*
X057596Y017946D01*
X057624Y017919D01*
X057649Y017889D01*
X057671Y017856D01*
X057690Y017822D01*
X057705Y017786D01*
X057717Y017748D01*
X057725Y017710D01*
X057729Y017671D01*
X057729Y017631D01*
X057725Y017592D01*
X057717Y017554D01*
X057705Y017516D01*
X057690Y017480D01*
X057671Y017446D01*
X057649Y017413D01*
X057624Y017383D01*
X057596Y017356D01*
X057565Y017331D01*
X057532Y017310D01*
X057497Y017292D01*
X057460Y017278D01*
X057423Y017267D01*
X057384Y017260D01*
X057345Y017257D01*
X057306Y017258D01*
X057267Y017263D01*
X057228Y017272D01*
X057191Y017284D01*
X057155Y017300D01*
X057121Y017320D01*
X057089Y017343D01*
X057060Y017369D01*
X057033Y017398D01*
X057009Y017429D01*
X056989Y017463D01*
X056972Y017498D01*
X056959Y017535D01*
X056949Y017573D01*
X056943Y017612D01*
X056941Y017651D01*
X061659Y017505D02*
X061661Y017544D01*
X061667Y017583D01*
X061677Y017621D01*
X061690Y017658D01*
X061707Y017693D01*
X061727Y017727D01*
X061751Y017758D01*
X061778Y017787D01*
X061807Y017813D01*
X061839Y017836D01*
X061873Y017856D01*
X061909Y017872D01*
X061946Y017884D01*
X061985Y017893D01*
X062024Y017898D01*
X062063Y017899D01*
X062102Y017896D01*
X062141Y017889D01*
X062178Y017878D01*
X062215Y017864D01*
X062250Y017846D01*
X062283Y017825D01*
X062314Y017800D01*
X062342Y017773D01*
X062367Y017743D01*
X062389Y017710D01*
X062408Y017676D01*
X062423Y017640D01*
X062435Y017602D01*
X062443Y017564D01*
X062447Y017525D01*
X062447Y017485D01*
X062443Y017446D01*
X062435Y017408D01*
X062423Y017370D01*
X062408Y017334D01*
X062389Y017300D01*
X062367Y017267D01*
X062342Y017237D01*
X062314Y017210D01*
X062283Y017185D01*
X062250Y017164D01*
X062215Y017146D01*
X062178Y017132D01*
X062141Y017121D01*
X062102Y017114D01*
X062063Y017111D01*
X062024Y017112D01*
X061985Y017117D01*
X061946Y017126D01*
X061909Y017138D01*
X061873Y017154D01*
X061839Y017174D01*
X061807Y017197D01*
X061778Y017223D01*
X061751Y017252D01*
X061727Y017283D01*
X061707Y017317D01*
X061690Y017352D01*
X061677Y017389D01*
X061667Y017427D01*
X061661Y017466D01*
X061659Y017505D01*
X066352Y017519D02*
X066354Y017558D01*
X066360Y017597D01*
X066370Y017635D01*
X066383Y017672D01*
X066400Y017707D01*
X066420Y017741D01*
X066444Y017772D01*
X066471Y017801D01*
X066500Y017827D01*
X066532Y017850D01*
X066566Y017870D01*
X066602Y017886D01*
X066639Y017898D01*
X066678Y017907D01*
X066717Y017912D01*
X066756Y017913D01*
X066795Y017910D01*
X066834Y017903D01*
X066871Y017892D01*
X066908Y017878D01*
X066943Y017860D01*
X066976Y017839D01*
X067007Y017814D01*
X067035Y017787D01*
X067060Y017757D01*
X067082Y017724D01*
X067101Y017690D01*
X067116Y017654D01*
X067128Y017616D01*
X067136Y017578D01*
X067140Y017539D01*
X067140Y017499D01*
X067136Y017460D01*
X067128Y017422D01*
X067116Y017384D01*
X067101Y017348D01*
X067082Y017314D01*
X067060Y017281D01*
X067035Y017251D01*
X067007Y017224D01*
X066976Y017199D01*
X066943Y017178D01*
X066908Y017160D01*
X066871Y017146D01*
X066834Y017135D01*
X066795Y017128D01*
X066756Y017125D01*
X066717Y017126D01*
X066678Y017131D01*
X066639Y017140D01*
X066602Y017152D01*
X066566Y017168D01*
X066532Y017188D01*
X066500Y017211D01*
X066471Y017237D01*
X066444Y017266D01*
X066420Y017297D01*
X066400Y017331D01*
X066383Y017366D01*
X066370Y017403D01*
X066360Y017441D01*
X066354Y017480D01*
X066352Y017519D01*
X064660Y010779D02*
X064662Y010818D01*
X064668Y010857D01*
X064678Y010895D01*
X064691Y010932D01*
X064708Y010967D01*
X064728Y011001D01*
X064752Y011032D01*
X064779Y011061D01*
X064808Y011087D01*
X064840Y011110D01*
X064874Y011130D01*
X064910Y011146D01*
X064947Y011158D01*
X064986Y011167D01*
X065025Y011172D01*
X065064Y011173D01*
X065103Y011170D01*
X065142Y011163D01*
X065179Y011152D01*
X065216Y011138D01*
X065251Y011120D01*
X065284Y011099D01*
X065315Y011074D01*
X065343Y011047D01*
X065368Y011017D01*
X065390Y010984D01*
X065409Y010950D01*
X065424Y010914D01*
X065436Y010876D01*
X065444Y010838D01*
X065448Y010799D01*
X065448Y010759D01*
X065444Y010720D01*
X065436Y010682D01*
X065424Y010644D01*
X065409Y010608D01*
X065390Y010574D01*
X065368Y010541D01*
X065343Y010511D01*
X065315Y010484D01*
X065284Y010459D01*
X065251Y010438D01*
X065216Y010420D01*
X065179Y010406D01*
X065142Y010395D01*
X065103Y010388D01*
X065064Y010385D01*
X065025Y010386D01*
X064986Y010391D01*
X064947Y010400D01*
X064910Y010412D01*
X064874Y010428D01*
X064840Y010448D01*
X064808Y010471D01*
X064779Y010497D01*
X064752Y010526D01*
X064728Y010557D01*
X064708Y010591D01*
X064691Y010626D01*
X064678Y010663D01*
X064668Y010701D01*
X064662Y010740D01*
X064660Y010779D01*
X061650Y010767D02*
X061652Y010806D01*
X061658Y010845D01*
X061668Y010883D01*
X061681Y010920D01*
X061698Y010955D01*
X061718Y010989D01*
X061742Y011020D01*
X061769Y011049D01*
X061798Y011075D01*
X061830Y011098D01*
X061864Y011118D01*
X061900Y011134D01*
X061937Y011146D01*
X061976Y011155D01*
X062015Y011160D01*
X062054Y011161D01*
X062093Y011158D01*
X062132Y011151D01*
X062169Y011140D01*
X062206Y011126D01*
X062241Y011108D01*
X062274Y011087D01*
X062305Y011062D01*
X062333Y011035D01*
X062358Y011005D01*
X062380Y010972D01*
X062399Y010938D01*
X062414Y010902D01*
X062426Y010864D01*
X062434Y010826D01*
X062438Y010787D01*
X062438Y010747D01*
X062434Y010708D01*
X062426Y010670D01*
X062414Y010632D01*
X062399Y010596D01*
X062380Y010562D01*
X062358Y010529D01*
X062333Y010499D01*
X062305Y010472D01*
X062274Y010447D01*
X062241Y010426D01*
X062206Y010408D01*
X062169Y010394D01*
X062132Y010383D01*
X062093Y010376D01*
X062054Y010373D01*
X062015Y010374D01*
X061976Y010379D01*
X061937Y010388D01*
X061900Y010400D01*
X061864Y010416D01*
X061830Y010436D01*
X061798Y010459D01*
X061769Y010485D01*
X061742Y010514D01*
X061718Y010545D01*
X061698Y010579D01*
X061681Y010614D01*
X061668Y010651D01*
X061658Y010689D01*
X061652Y010728D01*
X061650Y010767D01*
X056994Y010785D02*
X056996Y010824D01*
X057002Y010863D01*
X057012Y010901D01*
X057025Y010938D01*
X057042Y010973D01*
X057062Y011007D01*
X057086Y011038D01*
X057113Y011067D01*
X057142Y011093D01*
X057174Y011116D01*
X057208Y011136D01*
X057244Y011152D01*
X057281Y011164D01*
X057320Y011173D01*
X057359Y011178D01*
X057398Y011179D01*
X057437Y011176D01*
X057476Y011169D01*
X057513Y011158D01*
X057550Y011144D01*
X057585Y011126D01*
X057618Y011105D01*
X057649Y011080D01*
X057677Y011053D01*
X057702Y011023D01*
X057724Y010990D01*
X057743Y010956D01*
X057758Y010920D01*
X057770Y010882D01*
X057778Y010844D01*
X057782Y010805D01*
X057782Y010765D01*
X057778Y010726D01*
X057770Y010688D01*
X057758Y010650D01*
X057743Y010614D01*
X057724Y010580D01*
X057702Y010547D01*
X057677Y010517D01*
X057649Y010490D01*
X057618Y010465D01*
X057585Y010444D01*
X057550Y010426D01*
X057513Y010412D01*
X057476Y010401D01*
X057437Y010394D01*
X057398Y010391D01*
X057359Y010392D01*
X057320Y010397D01*
X057281Y010406D01*
X057244Y010418D01*
X057208Y010434D01*
X057174Y010454D01*
X057142Y010477D01*
X057113Y010503D01*
X057086Y010532D01*
X057062Y010563D01*
X057042Y010597D01*
X057025Y010632D01*
X057012Y010669D01*
X057002Y010707D01*
X056996Y010746D01*
X056994Y010785D01*
X052110Y010760D02*
X052112Y010799D01*
X052118Y010838D01*
X052128Y010876D01*
X052141Y010913D01*
X052158Y010948D01*
X052178Y010982D01*
X052202Y011013D01*
X052229Y011042D01*
X052258Y011068D01*
X052290Y011091D01*
X052324Y011111D01*
X052360Y011127D01*
X052397Y011139D01*
X052436Y011148D01*
X052475Y011153D01*
X052514Y011154D01*
X052553Y011151D01*
X052592Y011144D01*
X052629Y011133D01*
X052666Y011119D01*
X052701Y011101D01*
X052734Y011080D01*
X052765Y011055D01*
X052793Y011028D01*
X052818Y010998D01*
X052840Y010965D01*
X052859Y010931D01*
X052874Y010895D01*
X052886Y010857D01*
X052894Y010819D01*
X052898Y010780D01*
X052898Y010740D01*
X052894Y010701D01*
X052886Y010663D01*
X052874Y010625D01*
X052859Y010589D01*
X052840Y010555D01*
X052818Y010522D01*
X052793Y010492D01*
X052765Y010465D01*
X052734Y010440D01*
X052701Y010419D01*
X052666Y010401D01*
X052629Y010387D01*
X052592Y010376D01*
X052553Y010369D01*
X052514Y010366D01*
X052475Y010367D01*
X052436Y010372D01*
X052397Y010381D01*
X052360Y010393D01*
X052324Y010409D01*
X052290Y010429D01*
X052258Y010452D01*
X052229Y010478D01*
X052202Y010507D01*
X052178Y010538D01*
X052158Y010572D01*
X052141Y010607D01*
X052128Y010644D01*
X052118Y010682D01*
X052112Y010721D01*
X052110Y010760D01*
X052189Y003987D02*
X052191Y004026D01*
X052197Y004065D01*
X052207Y004103D01*
X052220Y004140D01*
X052237Y004175D01*
X052257Y004209D01*
X052281Y004240D01*
X052308Y004269D01*
X052337Y004295D01*
X052369Y004318D01*
X052403Y004338D01*
X052439Y004354D01*
X052476Y004366D01*
X052515Y004375D01*
X052554Y004380D01*
X052593Y004381D01*
X052632Y004378D01*
X052671Y004371D01*
X052708Y004360D01*
X052745Y004346D01*
X052780Y004328D01*
X052813Y004307D01*
X052844Y004282D01*
X052872Y004255D01*
X052897Y004225D01*
X052919Y004192D01*
X052938Y004158D01*
X052953Y004122D01*
X052965Y004084D01*
X052973Y004046D01*
X052977Y004007D01*
X052977Y003967D01*
X052973Y003928D01*
X052965Y003890D01*
X052953Y003852D01*
X052938Y003816D01*
X052919Y003782D01*
X052897Y003749D01*
X052872Y003719D01*
X052844Y003692D01*
X052813Y003667D01*
X052780Y003646D01*
X052745Y003628D01*
X052708Y003614D01*
X052671Y003603D01*
X052632Y003596D01*
X052593Y003593D01*
X052554Y003594D01*
X052515Y003599D01*
X052476Y003608D01*
X052439Y003620D01*
X052403Y003636D01*
X052369Y003656D01*
X052337Y003679D01*
X052308Y003705D01*
X052281Y003734D01*
X052257Y003765D01*
X052237Y003799D01*
X052220Y003834D01*
X052207Y003871D01*
X052197Y003909D01*
X052191Y003948D01*
X052189Y003987D01*
X056919Y003900D02*
X056921Y003939D01*
X056927Y003978D01*
X056937Y004016D01*
X056950Y004053D01*
X056967Y004088D01*
X056987Y004122D01*
X057011Y004153D01*
X057038Y004182D01*
X057067Y004208D01*
X057099Y004231D01*
X057133Y004251D01*
X057169Y004267D01*
X057206Y004279D01*
X057245Y004288D01*
X057284Y004293D01*
X057323Y004294D01*
X057362Y004291D01*
X057401Y004284D01*
X057438Y004273D01*
X057475Y004259D01*
X057510Y004241D01*
X057543Y004220D01*
X057574Y004195D01*
X057602Y004168D01*
X057627Y004138D01*
X057649Y004105D01*
X057668Y004071D01*
X057683Y004035D01*
X057695Y003997D01*
X057703Y003959D01*
X057707Y003920D01*
X057707Y003880D01*
X057703Y003841D01*
X057695Y003803D01*
X057683Y003765D01*
X057668Y003729D01*
X057649Y003695D01*
X057627Y003662D01*
X057602Y003632D01*
X057574Y003605D01*
X057543Y003580D01*
X057510Y003559D01*
X057475Y003541D01*
X057438Y003527D01*
X057401Y003516D01*
X057362Y003509D01*
X057323Y003506D01*
X057284Y003507D01*
X057245Y003512D01*
X057206Y003521D01*
X057169Y003533D01*
X057133Y003549D01*
X057099Y003569D01*
X057067Y003592D01*
X057038Y003618D01*
X057011Y003647D01*
X056987Y003678D01*
X056967Y003712D01*
X056950Y003747D01*
X056937Y003784D01*
X056927Y003822D01*
X056921Y003861D01*
X056919Y003900D01*
X061669Y003969D02*
X061671Y004008D01*
X061677Y004047D01*
X061687Y004085D01*
X061700Y004122D01*
X061717Y004157D01*
X061737Y004191D01*
X061761Y004222D01*
X061788Y004251D01*
X061817Y004277D01*
X061849Y004300D01*
X061883Y004320D01*
X061919Y004336D01*
X061956Y004348D01*
X061995Y004357D01*
X062034Y004362D01*
X062073Y004363D01*
X062112Y004360D01*
X062151Y004353D01*
X062188Y004342D01*
X062225Y004328D01*
X062260Y004310D01*
X062293Y004289D01*
X062324Y004264D01*
X062352Y004237D01*
X062377Y004207D01*
X062399Y004174D01*
X062418Y004140D01*
X062433Y004104D01*
X062445Y004066D01*
X062453Y004028D01*
X062457Y003989D01*
X062457Y003949D01*
X062453Y003910D01*
X062445Y003872D01*
X062433Y003834D01*
X062418Y003798D01*
X062399Y003764D01*
X062377Y003731D01*
X062352Y003701D01*
X062324Y003674D01*
X062293Y003649D01*
X062260Y003628D01*
X062225Y003610D01*
X062188Y003596D01*
X062151Y003585D01*
X062112Y003578D01*
X062073Y003575D01*
X062034Y003576D01*
X061995Y003581D01*
X061956Y003590D01*
X061919Y003602D01*
X061883Y003618D01*
X061849Y003638D01*
X061817Y003661D01*
X061788Y003687D01*
X061761Y003716D01*
X061737Y003747D01*
X061717Y003781D01*
X061700Y003816D01*
X061687Y003853D01*
X061677Y003891D01*
X061671Y003930D01*
X061669Y003969D01*
X066341Y003958D02*
X066343Y003997D01*
X066349Y004036D01*
X066359Y004074D01*
X066372Y004111D01*
X066389Y004146D01*
X066409Y004180D01*
X066433Y004211D01*
X066460Y004240D01*
X066489Y004266D01*
X066521Y004289D01*
X066555Y004309D01*
X066591Y004325D01*
X066628Y004337D01*
X066667Y004346D01*
X066706Y004351D01*
X066745Y004352D01*
X066784Y004349D01*
X066823Y004342D01*
X066860Y004331D01*
X066897Y004317D01*
X066932Y004299D01*
X066965Y004278D01*
X066996Y004253D01*
X067024Y004226D01*
X067049Y004196D01*
X067071Y004163D01*
X067090Y004129D01*
X067105Y004093D01*
X067117Y004055D01*
X067125Y004017D01*
X067129Y003978D01*
X067129Y003938D01*
X067125Y003899D01*
X067117Y003861D01*
X067105Y003823D01*
X067090Y003787D01*
X067071Y003753D01*
X067049Y003720D01*
X067024Y003690D01*
X066996Y003663D01*
X066965Y003638D01*
X066932Y003617D01*
X066897Y003599D01*
X066860Y003585D01*
X066823Y003574D01*
X066784Y003567D01*
X066745Y003564D01*
X066706Y003565D01*
X066667Y003570D01*
X066628Y003579D01*
X066591Y003591D01*
X066555Y003607D01*
X066521Y003627D01*
X066489Y003650D01*
X066460Y003676D01*
X066433Y003705D01*
X066409Y003736D01*
X066389Y003770D01*
X066372Y003805D01*
X066359Y003842D01*
X066349Y003880D01*
X066343Y003919D01*
X066341Y003958D01*
X069059Y010790D02*
X069061Y010829D01*
X069067Y010868D01*
X069077Y010906D01*
X069090Y010943D01*
X069107Y010978D01*
X069127Y011012D01*
X069151Y011043D01*
X069178Y011072D01*
X069207Y011098D01*
X069239Y011121D01*
X069273Y011141D01*
X069309Y011157D01*
X069346Y011169D01*
X069385Y011178D01*
X069424Y011183D01*
X069463Y011184D01*
X069502Y011181D01*
X069541Y011174D01*
X069578Y011163D01*
X069615Y011149D01*
X069650Y011131D01*
X069683Y011110D01*
X069714Y011085D01*
X069742Y011058D01*
X069767Y011028D01*
X069789Y010995D01*
X069808Y010961D01*
X069823Y010925D01*
X069835Y010887D01*
X069843Y010849D01*
X069847Y010810D01*
X069847Y010770D01*
X069843Y010731D01*
X069835Y010693D01*
X069823Y010655D01*
X069808Y010619D01*
X069789Y010585D01*
X069767Y010552D01*
X069742Y010522D01*
X069714Y010495D01*
X069683Y010470D01*
X069650Y010449D01*
X069615Y010431D01*
X069578Y010417D01*
X069541Y010406D01*
X069502Y010399D01*
X069463Y010396D01*
X069424Y010397D01*
X069385Y010402D01*
X069346Y010411D01*
X069309Y010423D01*
X069273Y010439D01*
X069239Y010459D01*
X069207Y010482D01*
X069178Y010508D01*
X069151Y010537D01*
X069127Y010568D01*
X069107Y010602D01*
X069090Y010637D01*
X069077Y010674D01*
X069067Y010712D01*
X069061Y010751D01*
X069059Y010790D01*
X029182Y010779D02*
X029184Y010818D01*
X029190Y010857D01*
X029200Y010895D01*
X029213Y010932D01*
X029230Y010967D01*
X029250Y011001D01*
X029274Y011032D01*
X029301Y011061D01*
X029330Y011087D01*
X029362Y011110D01*
X029396Y011130D01*
X029432Y011146D01*
X029469Y011158D01*
X029508Y011167D01*
X029547Y011172D01*
X029586Y011173D01*
X029625Y011170D01*
X029664Y011163D01*
X029701Y011152D01*
X029738Y011138D01*
X029773Y011120D01*
X029806Y011099D01*
X029837Y011074D01*
X029865Y011047D01*
X029890Y011017D01*
X029912Y010984D01*
X029931Y010950D01*
X029946Y010914D01*
X029958Y010876D01*
X029966Y010838D01*
X029970Y010799D01*
X029970Y010759D01*
X029966Y010720D01*
X029958Y010682D01*
X029946Y010644D01*
X029931Y010608D01*
X029912Y010574D01*
X029890Y010541D01*
X029865Y010511D01*
X029837Y010484D01*
X029806Y010459D01*
X029773Y010438D01*
X029738Y010420D01*
X029701Y010406D01*
X029664Y010395D01*
X029625Y010388D01*
X029586Y010385D01*
X029547Y010386D01*
X029508Y010391D01*
X029469Y010400D01*
X029432Y010412D01*
X029396Y010428D01*
X029362Y010448D01*
X029330Y010471D01*
X029301Y010497D01*
X029274Y010526D01*
X029250Y010557D01*
X029230Y010591D01*
X029213Y010626D01*
X029200Y010663D01*
X029190Y010701D01*
X029184Y010740D01*
X029182Y010779D01*
X024783Y010769D02*
X024785Y010808D01*
X024791Y010847D01*
X024801Y010885D01*
X024814Y010922D01*
X024831Y010957D01*
X024851Y010991D01*
X024875Y011022D01*
X024902Y011051D01*
X024931Y011077D01*
X024963Y011100D01*
X024997Y011120D01*
X025033Y011136D01*
X025070Y011148D01*
X025109Y011157D01*
X025148Y011162D01*
X025187Y011163D01*
X025226Y011160D01*
X025265Y011153D01*
X025302Y011142D01*
X025339Y011128D01*
X025374Y011110D01*
X025407Y011089D01*
X025438Y011064D01*
X025466Y011037D01*
X025491Y011007D01*
X025513Y010974D01*
X025532Y010940D01*
X025547Y010904D01*
X025559Y010866D01*
X025567Y010828D01*
X025571Y010789D01*
X025571Y010749D01*
X025567Y010710D01*
X025559Y010672D01*
X025547Y010634D01*
X025532Y010598D01*
X025513Y010564D01*
X025491Y010531D01*
X025466Y010501D01*
X025438Y010474D01*
X025407Y010449D01*
X025374Y010428D01*
X025339Y010410D01*
X025302Y010396D01*
X025265Y010385D01*
X025226Y010378D01*
X025187Y010375D01*
X025148Y010376D01*
X025109Y010381D01*
X025070Y010390D01*
X025033Y010402D01*
X024997Y010418D01*
X024963Y010438D01*
X024931Y010461D01*
X024902Y010487D01*
X024875Y010516D01*
X024851Y010547D01*
X024831Y010581D01*
X024814Y010616D01*
X024801Y010653D01*
X024791Y010691D01*
X024785Y010730D01*
X024783Y010769D01*
X021773Y010756D02*
X021775Y010795D01*
X021781Y010834D01*
X021791Y010872D01*
X021804Y010909D01*
X021821Y010944D01*
X021841Y010978D01*
X021865Y011009D01*
X021892Y011038D01*
X021921Y011064D01*
X021953Y011087D01*
X021987Y011107D01*
X022023Y011123D01*
X022060Y011135D01*
X022099Y011144D01*
X022138Y011149D01*
X022177Y011150D01*
X022216Y011147D01*
X022255Y011140D01*
X022292Y011129D01*
X022329Y011115D01*
X022364Y011097D01*
X022397Y011076D01*
X022428Y011051D01*
X022456Y011024D01*
X022481Y010994D01*
X022503Y010961D01*
X022522Y010927D01*
X022537Y010891D01*
X022549Y010853D01*
X022557Y010815D01*
X022561Y010776D01*
X022561Y010736D01*
X022557Y010697D01*
X022549Y010659D01*
X022537Y010621D01*
X022522Y010585D01*
X022503Y010551D01*
X022481Y010518D01*
X022456Y010488D01*
X022428Y010461D01*
X022397Y010436D01*
X022364Y010415D01*
X022329Y010397D01*
X022292Y010383D01*
X022255Y010372D01*
X022216Y010365D01*
X022177Y010362D01*
X022138Y010363D01*
X022099Y010368D01*
X022060Y010377D01*
X022023Y010389D01*
X021987Y010405D01*
X021953Y010425D01*
X021921Y010448D01*
X021892Y010474D01*
X021865Y010503D01*
X021841Y010534D01*
X021821Y010568D01*
X021804Y010603D01*
X021791Y010640D01*
X021781Y010678D01*
X021775Y010717D01*
X021773Y010756D01*
X017116Y010774D02*
X017118Y010813D01*
X017124Y010852D01*
X017134Y010890D01*
X017147Y010927D01*
X017164Y010962D01*
X017184Y010996D01*
X017208Y011027D01*
X017235Y011056D01*
X017264Y011082D01*
X017296Y011105D01*
X017330Y011125D01*
X017366Y011141D01*
X017403Y011153D01*
X017442Y011162D01*
X017481Y011167D01*
X017520Y011168D01*
X017559Y011165D01*
X017598Y011158D01*
X017635Y011147D01*
X017672Y011133D01*
X017707Y011115D01*
X017740Y011094D01*
X017771Y011069D01*
X017799Y011042D01*
X017824Y011012D01*
X017846Y010979D01*
X017865Y010945D01*
X017880Y010909D01*
X017892Y010871D01*
X017900Y010833D01*
X017904Y010794D01*
X017904Y010754D01*
X017900Y010715D01*
X017892Y010677D01*
X017880Y010639D01*
X017865Y010603D01*
X017846Y010569D01*
X017824Y010536D01*
X017799Y010506D01*
X017771Y010479D01*
X017740Y010454D01*
X017707Y010433D01*
X017672Y010415D01*
X017635Y010401D01*
X017598Y010390D01*
X017559Y010383D01*
X017520Y010380D01*
X017481Y010381D01*
X017442Y010386D01*
X017403Y010395D01*
X017366Y010407D01*
X017330Y010423D01*
X017296Y010443D01*
X017264Y010466D01*
X017235Y010492D01*
X017208Y010521D01*
X017184Y010552D01*
X017164Y010586D01*
X017147Y010621D01*
X017134Y010658D01*
X017124Y010696D01*
X017118Y010735D01*
X017116Y010774D01*
X012233Y010749D02*
X012235Y010788D01*
X012241Y010827D01*
X012251Y010865D01*
X012264Y010902D01*
X012281Y010937D01*
X012301Y010971D01*
X012325Y011002D01*
X012352Y011031D01*
X012381Y011057D01*
X012413Y011080D01*
X012447Y011100D01*
X012483Y011116D01*
X012520Y011128D01*
X012559Y011137D01*
X012598Y011142D01*
X012637Y011143D01*
X012676Y011140D01*
X012715Y011133D01*
X012752Y011122D01*
X012789Y011108D01*
X012824Y011090D01*
X012857Y011069D01*
X012888Y011044D01*
X012916Y011017D01*
X012941Y010987D01*
X012963Y010954D01*
X012982Y010920D01*
X012997Y010884D01*
X013009Y010846D01*
X013017Y010808D01*
X013021Y010769D01*
X013021Y010729D01*
X013017Y010690D01*
X013009Y010652D01*
X012997Y010614D01*
X012982Y010578D01*
X012963Y010544D01*
X012941Y010511D01*
X012916Y010481D01*
X012888Y010454D01*
X012857Y010429D01*
X012824Y010408D01*
X012789Y010390D01*
X012752Y010376D01*
X012715Y010365D01*
X012676Y010358D01*
X012637Y010355D01*
X012598Y010356D01*
X012559Y010361D01*
X012520Y010370D01*
X012483Y010382D01*
X012447Y010398D01*
X012413Y010418D01*
X012381Y010441D01*
X012352Y010467D01*
X012325Y010496D01*
X012301Y010527D01*
X012281Y010561D01*
X012264Y010596D01*
X012251Y010633D01*
X012241Y010671D01*
X012235Y010710D01*
X012233Y010749D01*
X012312Y003976D02*
X012314Y004015D01*
X012320Y004054D01*
X012330Y004092D01*
X012343Y004129D01*
X012360Y004164D01*
X012380Y004198D01*
X012404Y004229D01*
X012431Y004258D01*
X012460Y004284D01*
X012492Y004307D01*
X012526Y004327D01*
X012562Y004343D01*
X012599Y004355D01*
X012638Y004364D01*
X012677Y004369D01*
X012716Y004370D01*
X012755Y004367D01*
X012794Y004360D01*
X012831Y004349D01*
X012868Y004335D01*
X012903Y004317D01*
X012936Y004296D01*
X012967Y004271D01*
X012995Y004244D01*
X013020Y004214D01*
X013042Y004181D01*
X013061Y004147D01*
X013076Y004111D01*
X013088Y004073D01*
X013096Y004035D01*
X013100Y003996D01*
X013100Y003956D01*
X013096Y003917D01*
X013088Y003879D01*
X013076Y003841D01*
X013061Y003805D01*
X013042Y003771D01*
X013020Y003738D01*
X012995Y003708D01*
X012967Y003681D01*
X012936Y003656D01*
X012903Y003635D01*
X012868Y003617D01*
X012831Y003603D01*
X012794Y003592D01*
X012755Y003585D01*
X012716Y003582D01*
X012677Y003583D01*
X012638Y003588D01*
X012599Y003597D01*
X012562Y003609D01*
X012526Y003625D01*
X012492Y003645D01*
X012460Y003668D01*
X012431Y003694D01*
X012404Y003723D01*
X012380Y003754D01*
X012360Y003788D01*
X012343Y003823D01*
X012330Y003860D01*
X012320Y003898D01*
X012314Y003937D01*
X012312Y003976D01*
X017042Y003889D02*
X017044Y003928D01*
X017050Y003967D01*
X017060Y004005D01*
X017073Y004042D01*
X017090Y004077D01*
X017110Y004111D01*
X017134Y004142D01*
X017161Y004171D01*
X017190Y004197D01*
X017222Y004220D01*
X017256Y004240D01*
X017292Y004256D01*
X017329Y004268D01*
X017368Y004277D01*
X017407Y004282D01*
X017446Y004283D01*
X017485Y004280D01*
X017524Y004273D01*
X017561Y004262D01*
X017598Y004248D01*
X017633Y004230D01*
X017666Y004209D01*
X017697Y004184D01*
X017725Y004157D01*
X017750Y004127D01*
X017772Y004094D01*
X017791Y004060D01*
X017806Y004024D01*
X017818Y003986D01*
X017826Y003948D01*
X017830Y003909D01*
X017830Y003869D01*
X017826Y003830D01*
X017818Y003792D01*
X017806Y003754D01*
X017791Y003718D01*
X017772Y003684D01*
X017750Y003651D01*
X017725Y003621D01*
X017697Y003594D01*
X017666Y003569D01*
X017633Y003548D01*
X017598Y003530D01*
X017561Y003516D01*
X017524Y003505D01*
X017485Y003498D01*
X017446Y003495D01*
X017407Y003496D01*
X017368Y003501D01*
X017329Y003510D01*
X017292Y003522D01*
X017256Y003538D01*
X017222Y003558D01*
X017190Y003581D01*
X017161Y003607D01*
X017134Y003636D01*
X017110Y003667D01*
X017090Y003701D01*
X017073Y003736D01*
X017060Y003773D01*
X017050Y003811D01*
X017044Y003850D01*
X017042Y003889D01*
X021792Y003958D02*
X021794Y003997D01*
X021800Y004036D01*
X021810Y004074D01*
X021823Y004111D01*
X021840Y004146D01*
X021860Y004180D01*
X021884Y004211D01*
X021911Y004240D01*
X021940Y004266D01*
X021972Y004289D01*
X022006Y004309D01*
X022042Y004325D01*
X022079Y004337D01*
X022118Y004346D01*
X022157Y004351D01*
X022196Y004352D01*
X022235Y004349D01*
X022274Y004342D01*
X022311Y004331D01*
X022348Y004317D01*
X022383Y004299D01*
X022416Y004278D01*
X022447Y004253D01*
X022475Y004226D01*
X022500Y004196D01*
X022522Y004163D01*
X022541Y004129D01*
X022556Y004093D01*
X022568Y004055D01*
X022576Y004017D01*
X022580Y003978D01*
X022580Y003938D01*
X022576Y003899D01*
X022568Y003861D01*
X022556Y003823D01*
X022541Y003787D01*
X022522Y003753D01*
X022500Y003720D01*
X022475Y003690D01*
X022447Y003663D01*
X022416Y003638D01*
X022383Y003617D01*
X022348Y003599D01*
X022311Y003585D01*
X022274Y003574D01*
X022235Y003567D01*
X022196Y003564D01*
X022157Y003565D01*
X022118Y003570D01*
X022079Y003579D01*
X022042Y003591D01*
X022006Y003607D01*
X021972Y003627D01*
X021940Y003650D01*
X021911Y003676D01*
X021884Y003705D01*
X021860Y003736D01*
X021840Y003770D01*
X021823Y003805D01*
X021810Y003842D01*
X021800Y003880D01*
X021794Y003919D01*
X021792Y003958D01*
X026464Y003947D02*
X026466Y003986D01*
X026472Y004025D01*
X026482Y004063D01*
X026495Y004100D01*
X026512Y004135D01*
X026532Y004169D01*
X026556Y004200D01*
X026583Y004229D01*
X026612Y004255D01*
X026644Y004278D01*
X026678Y004298D01*
X026714Y004314D01*
X026751Y004326D01*
X026790Y004335D01*
X026829Y004340D01*
X026868Y004341D01*
X026907Y004338D01*
X026946Y004331D01*
X026983Y004320D01*
X027020Y004306D01*
X027055Y004288D01*
X027088Y004267D01*
X027119Y004242D01*
X027147Y004215D01*
X027172Y004185D01*
X027194Y004152D01*
X027213Y004118D01*
X027228Y004082D01*
X027240Y004044D01*
X027248Y004006D01*
X027252Y003967D01*
X027252Y003927D01*
X027248Y003888D01*
X027240Y003850D01*
X027228Y003812D01*
X027213Y003776D01*
X027194Y003742D01*
X027172Y003709D01*
X027147Y003679D01*
X027119Y003652D01*
X027088Y003627D01*
X027055Y003606D01*
X027020Y003588D01*
X026983Y003574D01*
X026946Y003563D01*
X026907Y003556D01*
X026868Y003553D01*
X026829Y003554D01*
X026790Y003559D01*
X026751Y003568D01*
X026714Y003580D01*
X026678Y003596D01*
X026644Y003616D01*
X026612Y003639D01*
X026583Y003665D01*
X026556Y003694D01*
X026532Y003725D01*
X026512Y003759D01*
X026495Y003794D01*
X026482Y003831D01*
X026472Y003869D01*
X026466Y003908D01*
X026464Y003947D01*
X026475Y017508D02*
X026477Y017547D01*
X026483Y017586D01*
X026493Y017624D01*
X026506Y017661D01*
X026523Y017696D01*
X026543Y017730D01*
X026567Y017761D01*
X026594Y017790D01*
X026623Y017816D01*
X026655Y017839D01*
X026689Y017859D01*
X026725Y017875D01*
X026762Y017887D01*
X026801Y017896D01*
X026840Y017901D01*
X026879Y017902D01*
X026918Y017899D01*
X026957Y017892D01*
X026994Y017881D01*
X027031Y017867D01*
X027066Y017849D01*
X027099Y017828D01*
X027130Y017803D01*
X027158Y017776D01*
X027183Y017746D01*
X027205Y017713D01*
X027224Y017679D01*
X027239Y017643D01*
X027251Y017605D01*
X027259Y017567D01*
X027263Y017528D01*
X027263Y017488D01*
X027259Y017449D01*
X027251Y017411D01*
X027239Y017373D01*
X027224Y017337D01*
X027205Y017303D01*
X027183Y017270D01*
X027158Y017240D01*
X027130Y017213D01*
X027099Y017188D01*
X027066Y017167D01*
X027031Y017149D01*
X026994Y017135D01*
X026957Y017124D01*
X026918Y017117D01*
X026879Y017114D01*
X026840Y017115D01*
X026801Y017120D01*
X026762Y017129D01*
X026725Y017141D01*
X026689Y017157D01*
X026655Y017177D01*
X026623Y017200D01*
X026594Y017226D01*
X026567Y017255D01*
X026543Y017286D01*
X026523Y017320D01*
X026506Y017355D01*
X026493Y017392D01*
X026483Y017430D01*
X026477Y017469D01*
X026475Y017508D01*
X021782Y017494D02*
X021784Y017533D01*
X021790Y017572D01*
X021800Y017610D01*
X021813Y017647D01*
X021830Y017682D01*
X021850Y017716D01*
X021874Y017747D01*
X021901Y017776D01*
X021930Y017802D01*
X021962Y017825D01*
X021996Y017845D01*
X022032Y017861D01*
X022069Y017873D01*
X022108Y017882D01*
X022147Y017887D01*
X022186Y017888D01*
X022225Y017885D01*
X022264Y017878D01*
X022301Y017867D01*
X022338Y017853D01*
X022373Y017835D01*
X022406Y017814D01*
X022437Y017789D01*
X022465Y017762D01*
X022490Y017732D01*
X022512Y017699D01*
X022531Y017665D01*
X022546Y017629D01*
X022558Y017591D01*
X022566Y017553D01*
X022570Y017514D01*
X022570Y017474D01*
X022566Y017435D01*
X022558Y017397D01*
X022546Y017359D01*
X022531Y017323D01*
X022512Y017289D01*
X022490Y017256D01*
X022465Y017226D01*
X022437Y017199D01*
X022406Y017174D01*
X022373Y017153D01*
X022338Y017135D01*
X022301Y017121D01*
X022264Y017110D01*
X022225Y017103D01*
X022186Y017100D01*
X022147Y017101D01*
X022108Y017106D01*
X022069Y017115D01*
X022032Y017127D01*
X021996Y017143D01*
X021962Y017163D01*
X021930Y017186D01*
X021901Y017212D01*
X021874Y017241D01*
X021850Y017272D01*
X021830Y017306D01*
X021813Y017341D01*
X021800Y017378D01*
X021790Y017416D01*
X021784Y017455D01*
X021782Y017494D01*
X017064Y017641D02*
X017066Y017680D01*
X017072Y017719D01*
X017082Y017757D01*
X017095Y017794D01*
X017112Y017829D01*
X017132Y017863D01*
X017156Y017894D01*
X017183Y017923D01*
X017212Y017949D01*
X017244Y017972D01*
X017278Y017992D01*
X017314Y018008D01*
X017351Y018020D01*
X017390Y018029D01*
X017429Y018034D01*
X017468Y018035D01*
X017507Y018032D01*
X017546Y018025D01*
X017583Y018014D01*
X017620Y018000D01*
X017655Y017982D01*
X017688Y017961D01*
X017719Y017936D01*
X017747Y017909D01*
X017772Y017879D01*
X017794Y017846D01*
X017813Y017812D01*
X017828Y017776D01*
X017840Y017738D01*
X017848Y017700D01*
X017852Y017661D01*
X017852Y017621D01*
X017848Y017582D01*
X017840Y017544D01*
X017828Y017506D01*
X017813Y017470D01*
X017794Y017436D01*
X017772Y017403D01*
X017747Y017373D01*
X017719Y017346D01*
X017688Y017321D01*
X017655Y017300D01*
X017620Y017282D01*
X017583Y017268D01*
X017546Y017257D01*
X017507Y017250D01*
X017468Y017247D01*
X017429Y017248D01*
X017390Y017253D01*
X017351Y017262D01*
X017314Y017274D01*
X017278Y017290D01*
X017244Y017310D01*
X017212Y017333D01*
X017183Y017359D01*
X017156Y017388D01*
X017132Y017419D01*
X017112Y017453D01*
X017095Y017488D01*
X017082Y017525D01*
X017072Y017563D01*
X017066Y017602D01*
X017064Y017641D01*
X012216Y017686D02*
X012218Y017725D01*
X012224Y017764D01*
X012234Y017802D01*
X012247Y017839D01*
X012264Y017874D01*
X012284Y017908D01*
X012308Y017939D01*
X012335Y017968D01*
X012364Y017994D01*
X012396Y018017D01*
X012430Y018037D01*
X012466Y018053D01*
X012503Y018065D01*
X012542Y018074D01*
X012581Y018079D01*
X012620Y018080D01*
X012659Y018077D01*
X012698Y018070D01*
X012735Y018059D01*
X012772Y018045D01*
X012807Y018027D01*
X012840Y018006D01*
X012871Y017981D01*
X012899Y017954D01*
X012924Y017924D01*
X012946Y017891D01*
X012965Y017857D01*
X012980Y017821D01*
X012992Y017783D01*
X013000Y017745D01*
X013004Y017706D01*
X013004Y017666D01*
X013000Y017627D01*
X012992Y017589D01*
X012980Y017551D01*
X012965Y017515D01*
X012946Y017481D01*
X012924Y017448D01*
X012899Y017418D01*
X012871Y017391D01*
X012840Y017366D01*
X012807Y017345D01*
X012772Y017327D01*
X012735Y017313D01*
X012698Y017302D01*
X012659Y017295D01*
X012620Y017292D01*
X012581Y017293D01*
X012542Y017298D01*
X012503Y017307D01*
X012466Y017319D01*
X012430Y017335D01*
X012396Y017355D01*
X012364Y017378D01*
X012335Y017404D01*
X012308Y017433D01*
X012284Y017464D01*
X012264Y017498D01*
X012247Y017533D01*
X012234Y017570D01*
X012224Y017608D01*
X012218Y017647D01*
X012216Y017686D01*
X007717Y017681D02*
X007719Y017720D01*
X007725Y017759D01*
X007735Y017797D01*
X007748Y017834D01*
X007765Y017869D01*
X007785Y017903D01*
X007809Y017934D01*
X007836Y017963D01*
X007865Y017989D01*
X007897Y018012D01*
X007931Y018032D01*
X007967Y018048D01*
X008004Y018060D01*
X008043Y018069D01*
X008082Y018074D01*
X008121Y018075D01*
X008160Y018072D01*
X008199Y018065D01*
X008236Y018054D01*
X008273Y018040D01*
X008308Y018022D01*
X008341Y018001D01*
X008372Y017976D01*
X008400Y017949D01*
X008425Y017919D01*
X008447Y017886D01*
X008466Y017852D01*
X008481Y017816D01*
X008493Y017778D01*
X008501Y017740D01*
X008505Y017701D01*
X008505Y017661D01*
X008501Y017622D01*
X008493Y017584D01*
X008481Y017546D01*
X008466Y017510D01*
X008447Y017476D01*
X008425Y017443D01*
X008400Y017413D01*
X008372Y017386D01*
X008341Y017361D01*
X008308Y017340D01*
X008273Y017322D01*
X008236Y017308D01*
X008199Y017297D01*
X008160Y017290D01*
X008121Y017287D01*
X008082Y017288D01*
X008043Y017293D01*
X008004Y017302D01*
X007967Y017314D01*
X007931Y017330D01*
X007897Y017350D01*
X007865Y017373D01*
X007836Y017399D01*
X007809Y017428D01*
X007785Y017459D01*
X007765Y017493D01*
X007748Y017528D01*
X007735Y017565D01*
X007725Y017603D01*
X007719Y017642D01*
X007717Y017681D01*
D42*
X005504Y010714D03*
X003294Y010714D03*
X043171Y010725D03*
X045381Y010725D03*
D43*
X045441Y010711D02*
X045291Y010711D01*
X045291Y010613D02*
X045441Y010613D01*
X045441Y010514D02*
X045291Y010514D01*
X045291Y010475D02*
X045291Y010975D01*
X044841Y011425D01*
X044641Y011625D01*
X043641Y011625D01*
X043441Y011425D01*
X043441Y012675D01*
X043391Y012725D01*
X043346Y012720D01*
X043304Y012705D01*
X043266Y012681D01*
X043435Y012681D01*
X043491Y012681D02*
X044109Y012681D01*
X044104Y012683D02*
X043974Y012715D01*
X043841Y012725D01*
X043491Y012725D01*
X043491Y011425D01*
X043291Y011225D01*
X043291Y011175D01*
X043241Y011125D01*
X043241Y010325D01*
X043341Y010225D01*
X043791Y009775D01*
X044591Y009775D01*
X044991Y010175D01*
X045291Y010475D01*
X045232Y010416D02*
X045441Y010416D01*
X045441Y010317D02*
X045133Y010317D01*
X045035Y010219D02*
X045437Y010219D01*
X045432Y010166D02*
X045441Y010275D01*
X045441Y011125D01*
X045432Y011242D01*
X045404Y011357D01*
X045359Y011466D01*
X045298Y011566D01*
X045221Y011655D01*
X045132Y011732D01*
X045031Y011793D01*
X044923Y011838D01*
X044808Y011866D01*
X044691Y011875D01*
X044680Y012008D01*
X044649Y012138D01*
X044598Y012261D01*
X044529Y012375D01*
X044442Y012476D01*
X044341Y012563D01*
X044227Y012632D01*
X044104Y012683D01*
X044308Y012583D02*
X043491Y012583D01*
X043441Y012583D02*
X043201Y012583D01*
X043196Y012570D02*
X043191Y012525D01*
X043191Y008825D01*
X043196Y008781D01*
X043211Y008738D01*
X043235Y008700D01*
X043266Y008669D01*
X043304Y008645D01*
X043346Y008630D01*
X043391Y008625D01*
X043791Y008625D01*
X043940Y008637D01*
X044085Y008672D01*
X044222Y008729D01*
X044349Y008806D01*
X044463Y008903D01*
X044560Y009017D01*
X044637Y009144D01*
X044694Y009281D01*
X044729Y009426D01*
X044741Y009575D01*
X044850Y009584D01*
X044957Y009609D01*
X045059Y009651D01*
X045152Y009709D01*
X045236Y009780D01*
X045307Y009864D01*
X045365Y009957D01*
X045407Y010059D01*
X045432Y010166D01*
X045421Y010120D02*
X044936Y010120D01*
X044838Y010022D02*
X045391Y010022D01*
X045344Y009923D02*
X044739Y009923D01*
X044641Y009825D02*
X045274Y009825D01*
X045173Y009726D02*
X043191Y009726D01*
X043191Y009628D02*
X045001Y009628D01*
X044737Y009529D02*
X043191Y009529D01*
X043191Y009431D02*
X044730Y009431D01*
X044707Y009332D02*
X043191Y009332D01*
X043191Y009234D02*
X044675Y009234D01*
X044632Y009135D02*
X043191Y009135D01*
X043191Y009037D02*
X044572Y009037D01*
X044492Y008938D02*
X043191Y008938D01*
X043191Y008840D02*
X044388Y008840D01*
X044243Y008741D02*
X043210Y008741D01*
X043311Y008643D02*
X043964Y008643D01*
X043741Y009825D02*
X043191Y009825D01*
X043191Y009923D02*
X043643Y009923D01*
X043544Y010022D02*
X043191Y010022D01*
X043191Y010120D02*
X043446Y010120D01*
X043347Y010219D02*
X043191Y010219D01*
X043191Y010317D02*
X043249Y010317D01*
X043241Y010416D02*
X043191Y010416D01*
X043191Y010514D02*
X043241Y010514D01*
X043241Y010613D02*
X043191Y010613D01*
X043191Y010711D02*
X043241Y010711D01*
X043241Y010810D02*
X043191Y010810D01*
X043191Y010908D02*
X043241Y010908D01*
X043241Y011007D02*
X043191Y011007D01*
X043191Y011105D02*
X043241Y011105D01*
X043191Y011204D02*
X043291Y011204D01*
X043368Y011302D02*
X043191Y011302D01*
X043191Y011401D02*
X043467Y011401D01*
X043541Y011425D02*
X043541Y011625D01*
X043741Y011725D01*
X043741Y011575D01*
X043691Y011575D01*
X043541Y011425D01*
X043541Y011499D02*
X043615Y011499D01*
X043614Y011598D02*
X043491Y011598D01*
X043541Y011598D02*
X043741Y011598D01*
X043741Y011696D02*
X043683Y011696D01*
X043491Y011696D02*
X045174Y011696D01*
X045271Y011598D02*
X044668Y011598D01*
X044767Y011499D02*
X045339Y011499D01*
X045386Y011401D02*
X044865Y011401D01*
X044964Y011302D02*
X045417Y011302D01*
X045435Y011204D02*
X045062Y011204D01*
X045161Y011105D02*
X045441Y011105D01*
X045441Y011007D02*
X045259Y011007D01*
X045291Y010908D02*
X045441Y010908D01*
X045441Y010810D02*
X045291Y010810D01*
X045028Y011795D02*
X043491Y011795D01*
X043441Y011795D02*
X043191Y011795D01*
X043191Y011893D02*
X043441Y011893D01*
X043491Y011893D02*
X044690Y011893D01*
X044682Y011992D02*
X043491Y011992D01*
X043441Y011992D02*
X043191Y011992D01*
X043191Y012090D02*
X043441Y012090D01*
X043491Y012090D02*
X044661Y012090D01*
X044628Y012189D02*
X043491Y012189D01*
X043441Y012189D02*
X043191Y012189D01*
X043191Y012287D02*
X043441Y012287D01*
X043491Y012287D02*
X044582Y012287D01*
X044519Y012386D02*
X043491Y012386D01*
X043441Y012386D02*
X043191Y012386D01*
X043191Y012484D02*
X043441Y012484D01*
X043491Y012484D02*
X044433Y012484D01*
X043266Y012681D02*
X043235Y012650D01*
X043211Y012612D01*
X043196Y012570D01*
X043191Y011696D02*
X043441Y011696D01*
X043441Y011598D02*
X043191Y011598D01*
X043191Y011499D02*
X043441Y011499D01*
X043491Y011499D02*
X043515Y011499D01*
X005564Y011114D02*
X005564Y010264D01*
X005555Y010155D01*
X005530Y010048D01*
X005488Y009946D01*
X005430Y009853D01*
X005359Y009769D01*
X005275Y009698D01*
X005182Y009640D01*
X005080Y009598D01*
X004973Y009573D01*
X004864Y009564D01*
X004852Y009416D01*
X004817Y009271D01*
X004760Y009133D01*
X004682Y009006D01*
X004586Y008892D01*
X004472Y008796D01*
X004345Y008718D01*
X004207Y008661D01*
X004063Y008626D01*
X003914Y008614D01*
X003514Y008614D01*
X003469Y008619D01*
X003427Y008634D01*
X003389Y008658D01*
X003358Y008689D01*
X003334Y008727D01*
X003319Y008770D01*
X003314Y008814D01*
X003314Y012514D01*
X003319Y012559D01*
X003334Y012601D01*
X003358Y012639D01*
X003389Y012671D01*
X003427Y012694D01*
X003469Y012709D01*
X003514Y012714D01*
X003564Y012664D01*
X003564Y011414D01*
X003764Y011614D01*
X004764Y011614D01*
X004964Y011414D01*
X005414Y010964D01*
X005414Y010464D01*
X005114Y010164D01*
X004714Y009764D01*
X003914Y009764D01*
X003464Y010214D01*
X003364Y010314D01*
X003364Y011114D01*
X003414Y011164D01*
X003414Y011214D01*
X003614Y011414D01*
X003614Y012714D01*
X003964Y012714D01*
X004097Y012704D01*
X004227Y012673D01*
X004350Y012622D01*
X004464Y012552D01*
X004565Y012465D01*
X004652Y012364D01*
X004721Y012250D01*
X004772Y012127D01*
X004803Y011997D01*
X004814Y011864D01*
X004931Y011855D01*
X005046Y011827D01*
X005154Y011782D01*
X005255Y011721D01*
X005344Y011644D01*
X005421Y011555D01*
X005482Y011455D01*
X005527Y011346D01*
X005555Y011231D01*
X005564Y011114D01*
X005564Y011105D02*
X005273Y011105D01*
X005371Y011007D02*
X005564Y011007D01*
X005564Y010908D02*
X005414Y010908D01*
X005414Y010810D02*
X005564Y010810D01*
X005564Y010711D02*
X005414Y010711D01*
X005414Y010613D02*
X005564Y010613D01*
X005564Y010514D02*
X005414Y010514D01*
X005365Y010416D02*
X005564Y010416D01*
X005564Y010317D02*
X005267Y010317D01*
X005168Y010219D02*
X005560Y010219D01*
X005547Y010120D02*
X005070Y010120D01*
X004971Y010022D02*
X005519Y010022D01*
X005473Y009923D02*
X004873Y009923D01*
X004774Y009825D02*
X005406Y009825D01*
X005308Y009726D02*
X003314Y009726D01*
X003314Y009628D02*
X005151Y009628D01*
X004861Y009529D02*
X003314Y009529D01*
X003314Y009431D02*
X004853Y009431D01*
X004832Y009332D02*
X003314Y009332D01*
X003314Y009234D02*
X004802Y009234D01*
X004761Y009135D02*
X003314Y009135D01*
X003314Y009037D02*
X004701Y009037D01*
X004625Y008938D02*
X003314Y008938D01*
X003314Y008840D02*
X004524Y008840D01*
X004383Y008741D02*
X003329Y008741D01*
X003413Y008643D02*
X004132Y008643D01*
X003853Y009825D02*
X003314Y009825D01*
X003314Y009923D02*
X003755Y009923D01*
X003656Y010022D02*
X003314Y010022D01*
X003314Y010120D02*
X003558Y010120D01*
X003459Y010219D02*
X003314Y010219D01*
X003314Y010317D02*
X003364Y010317D01*
X003364Y010416D02*
X003314Y010416D01*
X003314Y010514D02*
X003364Y010514D01*
X003364Y010613D02*
X003314Y010613D01*
X003314Y010711D02*
X003364Y010711D01*
X003364Y010810D02*
X003314Y010810D01*
X003314Y010908D02*
X003364Y010908D01*
X003364Y011007D02*
X003314Y011007D01*
X003314Y011105D02*
X003364Y011105D01*
X003314Y011204D02*
X003414Y011204D01*
X003502Y011302D02*
X003314Y011302D01*
X003314Y011401D02*
X003600Y011401D01*
X003664Y011414D02*
X003664Y011614D01*
X003864Y011714D01*
X003864Y011564D01*
X003814Y011564D01*
X003664Y011414D01*
X003664Y011499D02*
X003749Y011499D01*
X003747Y011598D02*
X003614Y011598D01*
X003664Y011598D02*
X003864Y011598D01*
X003864Y011696D02*
X003828Y011696D01*
X003614Y011696D02*
X005284Y011696D01*
X005384Y011598D02*
X004780Y011598D01*
X004879Y011499D02*
X005455Y011499D01*
X005505Y011401D02*
X004977Y011401D01*
X005076Y011302D02*
X005538Y011302D01*
X005557Y011204D02*
X005174Y011204D01*
X005125Y011795D02*
X003614Y011795D01*
X003564Y011795D02*
X003314Y011795D01*
X003314Y011893D02*
X003564Y011893D01*
X003614Y011893D02*
X004812Y011893D01*
X004804Y011992D02*
X003614Y011992D01*
X003564Y011992D02*
X003314Y011992D01*
X003314Y012090D02*
X003564Y012090D01*
X003614Y012090D02*
X004781Y012090D01*
X004747Y012189D02*
X003614Y012189D01*
X003564Y012189D02*
X003314Y012189D01*
X003314Y012287D02*
X003564Y012287D01*
X003614Y012287D02*
X004699Y012287D01*
X004633Y012386D02*
X003614Y012386D01*
X003564Y012386D02*
X003314Y012386D01*
X003314Y012484D02*
X003564Y012484D01*
X003614Y012484D02*
X004543Y012484D01*
X004413Y012583D02*
X003614Y012583D01*
X003564Y012583D02*
X003327Y012583D01*
X003406Y012681D02*
X003547Y012681D01*
X003614Y012681D02*
X004191Y012681D01*
X003564Y011696D02*
X003314Y011696D01*
X003314Y011598D02*
X003564Y011598D01*
X003564Y011499D02*
X003314Y011499D01*
X003614Y011499D02*
X003649Y011499D01*
D44*
X020303Y001227D03*
X021484Y001227D03*
X060180Y001238D03*
X061362Y001238D03*
D45*
X060130Y012672D03*
X020253Y012661D03*
D46*
X020153Y011661D03*
X020253Y010661D03*
X020153Y009661D03*
X060030Y009672D03*
X060130Y010672D03*
X060030Y011672D03*
D47*
X007512Y005396D03*
X008712Y004704D03*
X010402Y005413D03*
X011097Y004680D03*
X012304Y005565D03*
X012235Y007195D03*
X014204Y007880D03*
X016088Y006475D03*
X015308Y005726D03*
X017294Y005788D03*
X020557Y006115D03*
X021808Y005582D03*
X022788Y006478D03*
X023507Y005659D03*
X021135Y007456D03*
X024888Y009260D03*
X026529Y009178D03*
X028159Y009178D03*
X028394Y012462D03*
X026529Y012404D03*
X025224Y014142D03*
X028516Y014044D03*
X030512Y013884D03*
X030997Y013149D03*
X030313Y012362D03*
X022241Y012323D03*
X019008Y010738D03*
X015961Y009800D03*
X015383Y010374D03*
X015716Y011448D03*
X014057Y010386D03*
X012670Y012316D03*
X013103Y014555D03*
X013154Y015548D03*
X009059Y015536D03*
X008544Y019168D03*
X005158Y022425D03*
X013294Y019066D03*
X015703Y019430D03*
X017465Y019104D03*
X023600Y017525D03*
X027000Y018965D03*
X029348Y018856D03*
X029450Y023711D03*
X027516Y025341D03*
X030220Y027406D03*
X028837Y028726D03*
X031981Y030542D03*
X029408Y030719D03*
X029353Y032981D03*
X032336Y033841D03*
X035742Y032795D03*
X040014Y032484D03*
X042431Y032919D03*
X048723Y031914D03*
X049358Y031943D03*
X050012Y031913D03*
X051015Y031934D03*
X052480Y032806D03*
X050670Y034681D03*
X048689Y034234D03*
X050875Y036974D03*
X058348Y034579D03*
X050125Y029496D03*
X049703Y030012D03*
X049409Y031071D03*
X048577Y030575D03*
X048244Y029311D03*
X047210Y028320D03*
X049323Y027540D03*
X049963Y026940D03*
X050759Y027441D03*
X051512Y027424D03*
X052121Y028339D03*
X045128Y026730D03*
X041738Y026678D03*
X040773Y026760D03*
X041418Y023877D03*
X044543Y023340D03*
X048421Y019179D03*
X053171Y019077D03*
X055580Y019441D03*
X057342Y019115D03*
X056029Y022325D03*
X053946Y022808D03*
X063477Y017536D03*
X066877Y018975D03*
X069225Y018866D03*
X068393Y014055D03*
X070389Y013895D03*
X070874Y013160D03*
X070190Y012373D03*
X068271Y012473D03*
X066406Y012415D03*
X065101Y014153D03*
X062118Y012334D03*
X058885Y010749D03*
X055838Y009811D03*
X055260Y010385D03*
X055593Y011459D03*
X053934Y010397D03*
X052547Y012327D03*
X052980Y014566D03*
X053031Y015559D03*
X048936Y015547D03*
X048977Y011051D03*
X047322Y011067D03*
X048501Y009385D03*
X047853Y008819D03*
X052112Y007206D03*
X054081Y007891D03*
X055965Y006486D03*
X055185Y005736D03*
X057171Y005799D03*
X060434Y006126D03*
X061685Y005593D03*
X062665Y006488D03*
X063385Y005670D03*
X061012Y007467D03*
X064765Y009270D03*
X066406Y009188D03*
X068037Y009188D03*
X066862Y005670D03*
X065136Y003325D03*
X064246Y003241D03*
X066456Y002435D03*
X067759Y002421D03*
X069480Y003158D03*
X069836Y001868D03*
X060374Y004244D03*
X058802Y003128D03*
X054279Y003195D03*
X050974Y004691D03*
X050279Y005424D03*
X052181Y005576D03*
X048589Y004715D03*
X047389Y005407D03*
X029959Y001857D03*
X029603Y003147D03*
X027882Y002410D03*
X026579Y002424D03*
X025259Y003314D03*
X024369Y003230D03*
X020497Y004233D03*
X018925Y003117D03*
X014402Y003184D03*
X007976Y008808D03*
X008624Y009375D03*
X009100Y011040D03*
X007445Y011057D03*
X026985Y005659D03*
X036937Y022242D03*
X034347Y026945D03*
X023257Y026853D03*
X014001Y027739D03*
X003732Y028438D03*
D48*
X054609Y021780D03*
D49*
X038700Y027245D03*
M02*
