G75*
G70*
%OFA0B0*%
%FSLAX24Y24*%
%IPPOS*%
%LPD*%
%AMOC8*
5,1,8,0,0,1.08239X$1,22.5*
%
%ADD10C,0.0160*%
%ADD11C,0.0140*%
%ADD12C,0.0120*%
%ADD13C,0.0110*%
%ADD14C,0.0060*%
%ADD15C,0.0080*%
%ADD16C,0.0050*%
%ADD17C,0.0070*%
%ADD18C,0.0020*%
%ADD19C,0.0100*%
%ADD20C,0.0040*%
%ADD21R,0.0250X0.0900*%
%ADD22C,0.0098*%
%ADD23R,0.0079X0.0079*%
%ADD24R,0.0300X0.0660*%
%ADD25C,0.0200*%
%ADD26R,0.4200X0.0300*%
%ADD27R,0.0750X0.0200*%
%ADD28R,0.0300X0.0200*%
%ADD29R,0.0300X0.4200*%
%ADD30R,0.0200X0.0750*%
%ADD31R,0.0200X0.0300*%
%ADD32C,0.0000*%
%ADD33C,0.0030*%
%ADD34C,0.0010*%
%ADD35C,0.0217*%
%ADD36R,0.0492X0.0236*%
%ADD37C,0.0031*%
%ADD38C,0.0035*%
%ADD39C,0.0027*%
%ADD40C,0.0047*%
%ADD41C,0.0059*%
D10*
X001360Y000576D02*
X030640Y000576D01*
X030702Y000578D01*
X030764Y000584D01*
X030825Y000594D01*
X030886Y000607D01*
X030945Y000624D01*
X031004Y000645D01*
X031061Y000670D01*
X031116Y000698D01*
X031169Y000730D01*
X031221Y000765D01*
X031270Y000803D01*
X031316Y000844D01*
X031360Y000888D01*
X031401Y000934D01*
X031439Y000983D01*
X031474Y001035D01*
X031506Y001088D01*
X031534Y001143D01*
X031559Y001200D01*
X031580Y001259D01*
X031597Y001318D01*
X031610Y001379D01*
X031620Y001440D01*
X031626Y001502D01*
X031628Y001564D01*
X031628Y019294D01*
X031627Y019294D02*
X031625Y019351D01*
X031619Y019408D01*
X031610Y019465D01*
X031597Y019521D01*
X031580Y019576D01*
X031560Y019630D01*
X031537Y019682D01*
X031510Y019733D01*
X031479Y019781D01*
X031446Y019828D01*
X031409Y019872D01*
X031370Y019914D01*
X031328Y019953D01*
X031284Y019990D01*
X031237Y020023D01*
X031189Y020054D01*
X031138Y020081D01*
X031086Y020104D01*
X031032Y020124D01*
X030977Y020141D01*
X030921Y020154D01*
X030864Y020163D01*
X030807Y020169D01*
X030750Y020171D01*
X030730Y020164D02*
X001603Y020164D01*
X000321Y020723D02*
X000321Y026588D01*
X002610Y026588D01*
X002610Y031941D01*
X000329Y031941D01*
X000329Y043018D01*
X000346Y043023D02*
X071579Y043023D01*
X071579Y020723D01*
X000321Y020723D01*
X000206Y018767D02*
X000206Y001731D01*
X000205Y001731D02*
X000207Y001664D01*
X000213Y001597D01*
X000223Y001530D01*
X000236Y001465D01*
X000254Y001400D01*
X000275Y001336D01*
X000299Y001274D01*
X000328Y001213D01*
X000360Y001154D01*
X000395Y001096D01*
X000434Y001041D01*
X000475Y000989D01*
X000520Y000938D01*
X000567Y000891D01*
X000618Y000846D01*
X000670Y000805D01*
X000725Y000766D01*
X000782Y000731D01*
X000842Y000699D01*
X000903Y000670D01*
X000965Y000646D01*
X001029Y000625D01*
X001094Y000607D01*
X001159Y000594D01*
X001226Y000584D01*
X001293Y000578D01*
X001360Y000576D01*
X018703Y008161D02*
X020953Y008161D01*
X020953Y013161D01*
X018703Y013161D01*
X018703Y008161D01*
X001603Y020164D02*
X001530Y020162D01*
X001457Y020156D01*
X001384Y020147D01*
X001313Y020133D01*
X001241Y020116D01*
X001171Y020096D01*
X001102Y020071D01*
X001035Y020043D01*
X000969Y020012D01*
X000904Y019977D01*
X000842Y019939D01*
X000782Y019897D01*
X000724Y019853D01*
X000668Y019805D01*
X000615Y019755D01*
X000565Y019702D01*
X000517Y019646D01*
X000473Y019588D01*
X000431Y019528D01*
X000393Y019466D01*
X000358Y019401D01*
X000327Y019335D01*
X000299Y019268D01*
X000274Y019199D01*
X000254Y019129D01*
X000237Y019057D01*
X000223Y018986D01*
X000214Y018913D01*
X000208Y018840D01*
X000206Y018767D01*
X000408Y026488D02*
X000408Y026921D01*
X000408Y027315D02*
X000408Y027748D01*
X000408Y028142D02*
X000408Y028575D01*
X000408Y028969D02*
X000408Y029402D01*
X000408Y029796D02*
X000408Y030229D01*
X000408Y030623D02*
X000408Y031056D01*
X000408Y031450D02*
X000408Y031883D01*
X000881Y031883D01*
X001275Y031883D02*
X001748Y031883D01*
X002142Y031883D02*
X002616Y031883D01*
X002646Y031822D02*
X002646Y031399D01*
X002646Y031006D02*
X002646Y030583D01*
X002646Y030190D02*
X002646Y029767D01*
X002646Y029373D02*
X002646Y028951D01*
X002646Y028557D02*
X002646Y028135D01*
X002646Y027741D02*
X002646Y027319D01*
X002646Y026925D02*
X002646Y026502D01*
X002163Y026499D01*
X001769Y026497D02*
X001285Y026493D01*
X000891Y026491D02*
X000408Y026488D01*
X025198Y023064D02*
X025198Y021064D01*
X042198Y021064D01*
X042198Y023064D01*
X025198Y023064D01*
X040083Y018778D02*
X040083Y001741D01*
X040082Y001741D02*
X040084Y001674D01*
X040090Y001607D01*
X040100Y001540D01*
X040113Y001475D01*
X040131Y001410D01*
X040152Y001346D01*
X040176Y001284D01*
X040205Y001223D01*
X040237Y001164D01*
X040272Y001106D01*
X040311Y001051D01*
X040352Y000999D01*
X040397Y000948D01*
X040444Y000901D01*
X040495Y000856D01*
X040547Y000815D01*
X040602Y000776D01*
X040660Y000741D01*
X040719Y000709D01*
X040780Y000680D01*
X040842Y000656D01*
X040906Y000635D01*
X040971Y000617D01*
X041036Y000604D01*
X041103Y000594D01*
X041170Y000588D01*
X041237Y000586D01*
X041237Y000587D02*
X070517Y000587D01*
X070579Y000589D01*
X070641Y000595D01*
X070702Y000605D01*
X070763Y000618D01*
X070822Y000635D01*
X070881Y000656D01*
X070938Y000681D01*
X070993Y000709D01*
X071046Y000741D01*
X071098Y000776D01*
X071147Y000814D01*
X071193Y000855D01*
X071237Y000899D01*
X071278Y000945D01*
X071316Y000994D01*
X071351Y001046D01*
X071383Y001099D01*
X071411Y001154D01*
X071436Y001211D01*
X071457Y001270D01*
X071474Y001329D01*
X071487Y001390D01*
X071497Y001451D01*
X071503Y001513D01*
X071505Y001575D01*
X071505Y019305D01*
X071503Y019362D01*
X071497Y019419D01*
X071488Y019476D01*
X071475Y019532D01*
X071458Y019587D01*
X071438Y019641D01*
X071415Y019693D01*
X071388Y019744D01*
X071357Y019792D01*
X071324Y019839D01*
X071287Y019883D01*
X071248Y019925D01*
X071206Y019964D01*
X071162Y020001D01*
X071115Y020034D01*
X071067Y020065D01*
X071016Y020092D01*
X070964Y020115D01*
X070910Y020135D01*
X070855Y020152D01*
X070799Y020165D01*
X070742Y020174D01*
X070685Y020180D01*
X070628Y020182D01*
X070607Y020175D02*
X041480Y020175D01*
X041407Y020173D01*
X041334Y020167D01*
X041261Y020158D01*
X041190Y020144D01*
X041118Y020127D01*
X041048Y020107D01*
X040979Y020082D01*
X040912Y020054D01*
X040846Y020023D01*
X040782Y019988D01*
X040719Y019950D01*
X040659Y019908D01*
X040601Y019864D01*
X040545Y019816D01*
X040492Y019766D01*
X040442Y019713D01*
X040394Y019657D01*
X040350Y019599D01*
X040308Y019539D01*
X040270Y019477D01*
X040235Y019412D01*
X040204Y019346D01*
X040176Y019279D01*
X040151Y019210D01*
X040131Y019140D01*
X040114Y019068D01*
X040100Y018997D01*
X040091Y018924D01*
X040085Y018851D01*
X040083Y018778D01*
X058580Y013172D02*
X058580Y008172D01*
X060830Y008172D01*
X060830Y013172D01*
X058580Y013172D01*
X053171Y037882D02*
X053171Y038632D01*
X053171Y039382D01*
X052821Y039382D02*
X052821Y038632D01*
X052821Y037882D01*
X051684Y040815D02*
X051684Y041565D01*
X051684Y042315D01*
X051334Y042315D02*
X051334Y041565D01*
X051334Y040815D01*
X063731Y040884D02*
X063731Y041634D01*
X063731Y042384D01*
X064081Y042384D02*
X064081Y041634D01*
X064081Y040884D01*
X065146Y039511D02*
X065146Y038761D01*
X065146Y038011D01*
X065496Y038011D02*
X065496Y038761D01*
X065496Y039511D01*
D11*
X044153Y029617D02*
X043593Y029617D01*
X043593Y029897D01*
X043686Y029990D01*
X043873Y029990D01*
X043966Y029897D01*
X043966Y029617D01*
X043966Y029346D02*
X044060Y029346D01*
X044153Y029252D01*
X044153Y029066D01*
X044060Y028972D01*
X043873Y029066D02*
X043873Y029252D01*
X043966Y029346D01*
X043686Y029346D02*
X043593Y029252D01*
X043593Y029066D01*
X043686Y028972D01*
X043780Y028972D01*
X043873Y029066D01*
X043686Y028701D02*
X043593Y028608D01*
X043593Y028421D01*
X043686Y028328D01*
X044060Y028328D01*
X044153Y028421D01*
X044153Y028608D01*
X044060Y028701D01*
X044153Y028085D02*
X044153Y027898D01*
X044153Y027991D02*
X043593Y027991D01*
X043593Y027898D02*
X043593Y028085D01*
X033937Y037960D02*
X033564Y037960D01*
X033293Y038147D02*
X033293Y038521D01*
X033199Y038614D01*
X032919Y038614D01*
X032919Y038054D01*
X033199Y038054D01*
X033293Y038147D01*
X032648Y038054D02*
X032648Y038427D01*
X032461Y038614D01*
X032274Y038427D01*
X032274Y038054D01*
X032274Y038334D02*
X032648Y038334D01*
X032004Y038521D02*
X031910Y038614D01*
X031723Y038614D01*
X031630Y038521D01*
X031630Y038147D01*
X031723Y038054D01*
X031910Y038054D01*
X032004Y038147D01*
X032004Y038521D01*
X031359Y038054D02*
X030985Y038054D01*
X030985Y038614D01*
X034208Y038521D02*
X034208Y038147D01*
X034301Y038054D01*
X034488Y038054D01*
X034582Y038147D01*
X034853Y038054D02*
X034853Y038614D01*
X035226Y038054D01*
X035226Y038614D01*
X034582Y038521D02*
X034488Y038614D01*
X034301Y038614D01*
X034208Y038521D01*
X002838Y012642D02*
X002651Y012455D01*
X002651Y012549D02*
X002651Y012268D01*
X002838Y012268D02*
X002277Y012268D01*
X002277Y012549D01*
X002371Y012642D01*
X002557Y012642D01*
X002651Y012549D01*
X002838Y011998D02*
X002838Y011624D01*
X002277Y011624D01*
X002277Y011998D01*
X002557Y011811D02*
X002557Y011624D01*
X002277Y011353D02*
X002277Y010979D01*
X002277Y011166D02*
X002838Y011166D01*
X002744Y010708D02*
X002838Y010615D01*
X002838Y010428D01*
X002744Y010335D01*
X002557Y010428D02*
X002464Y010335D01*
X002371Y010335D01*
X002277Y010428D01*
X002277Y010615D01*
X002371Y010708D01*
X002557Y010615D02*
X002651Y010708D01*
X002744Y010708D01*
X002557Y010615D02*
X002557Y010428D01*
X002557Y010064D02*
X002557Y009690D01*
X002464Y009690D02*
X002277Y009877D01*
X002464Y010064D01*
X002838Y010064D01*
X002838Y009690D02*
X002464Y009690D01*
X002277Y009419D02*
X002838Y009419D01*
X002838Y009046D02*
X002277Y009046D01*
X002464Y009233D01*
X002277Y009419D01*
X041974Y009534D02*
X042161Y009347D01*
X042534Y009347D01*
X042534Y009076D02*
X041974Y009076D01*
X042161Y008889D01*
X041974Y008702D01*
X042534Y008702D01*
X042254Y009347D02*
X042254Y009720D01*
X042161Y009720D02*
X042534Y009720D01*
X042441Y009991D02*
X042534Y010085D01*
X042534Y010272D01*
X042441Y010365D01*
X042348Y010365D01*
X042254Y010272D01*
X042254Y010085D01*
X042161Y009991D01*
X042067Y009991D01*
X041974Y010085D01*
X041974Y010272D01*
X042067Y010365D01*
X041974Y010636D02*
X041974Y011010D01*
X041974Y010823D02*
X042534Y010823D01*
X042534Y011280D02*
X041974Y011280D01*
X041974Y011654D01*
X041974Y011925D02*
X041974Y012205D01*
X042067Y012299D01*
X042254Y012299D01*
X042348Y012205D01*
X042348Y011925D01*
X042534Y011925D02*
X041974Y011925D01*
X042348Y012112D02*
X042534Y012299D01*
X042534Y011654D02*
X042534Y011280D01*
X042254Y011280D02*
X042254Y011467D01*
X042161Y009720D02*
X041974Y009534D01*
D12*
X040111Y001663D02*
X040111Y019163D01*
X040109Y019223D01*
X040104Y019284D01*
X040095Y019343D01*
X040082Y019402D01*
X040066Y019461D01*
X040046Y019518D01*
X040023Y019573D01*
X039996Y019628D01*
X039967Y019680D01*
X039934Y019731D01*
X039898Y019780D01*
X039860Y019826D01*
X039818Y019870D01*
X039774Y019912D01*
X039728Y019950D01*
X039679Y019986D01*
X039628Y020019D01*
X039576Y020048D01*
X039521Y020075D01*
X039466Y020098D01*
X039409Y020118D01*
X039350Y020134D01*
X039291Y020147D01*
X039232Y020156D01*
X039171Y020161D01*
X039111Y020163D01*
X032611Y020163D01*
X032551Y020161D01*
X032490Y020156D01*
X032431Y020147D01*
X032372Y020134D01*
X032313Y020118D01*
X032256Y020098D01*
X032201Y020075D01*
X032146Y020048D01*
X032094Y020019D01*
X032043Y019986D01*
X031994Y019950D01*
X031948Y019912D01*
X031904Y019870D01*
X031862Y019826D01*
X031824Y019780D01*
X031788Y019731D01*
X031755Y019680D01*
X031726Y019628D01*
X031699Y019573D01*
X031676Y019518D01*
X031656Y019461D01*
X031640Y019402D01*
X031627Y019343D01*
X031618Y019284D01*
X031613Y019223D01*
X031611Y019163D01*
X031611Y001663D01*
X031613Y001603D01*
X031618Y001542D01*
X031627Y001483D01*
X031640Y001424D01*
X031656Y001365D01*
X031676Y001308D01*
X031699Y001253D01*
X031726Y001198D01*
X031755Y001146D01*
X031788Y001095D01*
X031824Y001046D01*
X031862Y001000D01*
X031904Y000956D01*
X031948Y000914D01*
X031994Y000876D01*
X032043Y000840D01*
X032094Y000807D01*
X032146Y000778D01*
X032201Y000751D01*
X032256Y000728D01*
X032313Y000708D01*
X032372Y000692D01*
X032431Y000679D01*
X032490Y000670D01*
X032551Y000665D01*
X032611Y000663D01*
X039111Y000663D01*
X039171Y000665D01*
X039232Y000670D01*
X039291Y000679D01*
X039350Y000692D01*
X039409Y000708D01*
X039466Y000728D01*
X039521Y000751D01*
X039576Y000778D01*
X039628Y000807D01*
X039679Y000840D01*
X039728Y000876D01*
X039774Y000914D01*
X039818Y000956D01*
X039860Y001000D01*
X039898Y001046D01*
X039934Y001095D01*
X039967Y001146D01*
X039996Y001198D01*
X040023Y001253D01*
X040046Y001308D01*
X040066Y001365D01*
X040082Y001424D01*
X040095Y001483D01*
X040104Y001542D01*
X040109Y001603D01*
X040111Y001663D01*
X024396Y021666D02*
X011798Y021666D01*
X011798Y041351D01*
X024396Y041351D01*
X024396Y021666D01*
X000234Y019152D02*
X000234Y001652D01*
D13*
X023282Y030083D02*
X023381Y030083D01*
X023479Y030181D01*
X023479Y030378D01*
X023578Y030476D01*
X023676Y030476D01*
X023775Y030378D01*
X023775Y030181D01*
X023676Y030083D01*
X023282Y030083D02*
X023184Y030181D01*
X023184Y030378D01*
X023282Y030476D01*
X023184Y030727D02*
X023381Y030924D01*
X023184Y031121D01*
X023775Y031121D01*
X023775Y031372D02*
X023184Y031372D01*
X023184Y031667D01*
X023282Y031765D01*
X023479Y031765D01*
X023578Y031667D01*
X023578Y031372D01*
X023775Y030727D02*
X023184Y030727D01*
X023282Y032016D02*
X023381Y032016D01*
X023479Y032115D01*
X023479Y032312D01*
X023578Y032410D01*
X023676Y032410D01*
X023775Y032312D01*
X023775Y032115D01*
X023676Y032016D01*
X023282Y032016D02*
X023184Y032115D01*
X023184Y032312D01*
X023282Y032410D01*
X023873Y032661D02*
X023873Y033055D01*
X023676Y033305D02*
X023775Y033404D01*
X023775Y033601D01*
X023676Y033699D01*
X023479Y033699D01*
X023381Y033601D01*
X023381Y033502D01*
X023479Y033305D01*
X023184Y033305D01*
X023184Y033699D01*
X023184Y033950D02*
X023578Y033950D01*
X023775Y034147D01*
X023578Y034344D01*
X023184Y034344D01*
X023282Y034595D02*
X023184Y034693D01*
X023184Y034890D01*
X023282Y034988D01*
X023479Y034988D01*
X023578Y034890D01*
X023381Y034890D01*
X023381Y034693D01*
X023578Y034693D01*
X023578Y034890D01*
X023676Y034988D02*
X023775Y034890D01*
X023775Y034693D01*
X023676Y034595D01*
X023282Y034595D01*
X023282Y035239D02*
X023184Y035338D01*
X023184Y035534D01*
X023282Y035633D01*
X023381Y035633D01*
X023775Y035239D01*
X023775Y035633D01*
X023775Y035884D02*
X023381Y035884D01*
X023184Y036081D01*
X023381Y036277D01*
X023775Y036277D01*
X023479Y036277D02*
X023479Y035884D01*
X048868Y040807D02*
X048966Y040709D01*
X049163Y040709D01*
X049261Y040807D01*
X049512Y040709D02*
X049906Y040709D01*
X049709Y040709D02*
X049709Y041299D01*
X049512Y041102D01*
X049261Y041201D02*
X049163Y041299D01*
X048966Y041299D01*
X048868Y041201D01*
X048868Y040807D01*
X050157Y040807D02*
X050255Y040709D01*
X050452Y040709D01*
X050550Y040807D01*
X050550Y040906D01*
X050452Y041004D01*
X050157Y041004D01*
X050157Y040807D01*
X050157Y041004D02*
X050353Y041201D01*
X050550Y041299D01*
X050452Y038366D02*
X050354Y038268D01*
X050354Y037874D01*
X050452Y037776D01*
X050649Y037776D01*
X050748Y037874D01*
X050999Y037776D02*
X051392Y037776D01*
X051195Y037776D02*
X051195Y038366D01*
X050999Y038169D01*
X050748Y038268D02*
X050649Y038366D01*
X050452Y038366D01*
X051643Y038366D02*
X052037Y038366D01*
X052037Y038268D01*
X051643Y037874D01*
X051643Y037776D01*
X061264Y040876D02*
X061363Y040778D01*
X061560Y040778D01*
X061658Y040876D01*
X061909Y040778D02*
X062303Y040778D01*
X062106Y040778D02*
X062106Y041368D01*
X061909Y041171D01*
X061658Y041270D02*
X061560Y041368D01*
X061363Y041368D01*
X061264Y041270D01*
X061264Y040876D01*
X062554Y040876D02*
X062652Y040778D01*
X062849Y040778D01*
X062947Y040876D01*
X062947Y041073D01*
X062849Y041171D01*
X062750Y041171D01*
X062554Y041073D01*
X062554Y041368D01*
X062947Y041368D01*
X062974Y038494D02*
X062777Y038494D01*
X062679Y038396D01*
X062679Y038002D01*
X062777Y037904D01*
X062974Y037904D01*
X063073Y038002D01*
X063323Y037904D02*
X063717Y037904D01*
X063520Y037904D02*
X063520Y038494D01*
X063323Y038297D01*
X063073Y038396D02*
X062974Y038494D01*
X063968Y038199D02*
X064362Y038199D01*
X064263Y037904D02*
X064263Y038494D01*
X063968Y038199D01*
D14*
X065146Y038761D02*
X057946Y038761D01*
X056496Y040167D02*
X068496Y040167D01*
X067081Y040228D02*
X055081Y040228D01*
X054684Y040159D02*
X042684Y040159D01*
X044171Y040039D02*
X056171Y040039D01*
X054721Y038632D02*
X053171Y038632D01*
X052821Y038632D02*
X045621Y038632D01*
X044171Y037226D02*
X056171Y037226D01*
X056496Y037354D02*
X068496Y037354D01*
X069229Y036311D02*
X069829Y036311D01*
X069859Y036309D01*
X069889Y036304D01*
X069918Y036295D01*
X069945Y036282D01*
X069971Y036267D01*
X069995Y036248D01*
X070016Y036227D01*
X070035Y036203D01*
X070050Y036177D01*
X070063Y036150D01*
X070072Y036121D01*
X070077Y036091D01*
X070079Y036061D01*
X070079Y035761D01*
X070329Y035261D02*
X070329Y033061D01*
X070327Y033031D01*
X070322Y033001D01*
X070313Y032972D01*
X070300Y032945D01*
X070285Y032919D01*
X070266Y032895D01*
X070245Y032874D01*
X070221Y032855D01*
X070195Y032840D01*
X070168Y032827D01*
X070139Y032818D01*
X070109Y032813D01*
X070079Y032811D01*
X068979Y032761D02*
X068979Y036061D01*
X068981Y036091D01*
X068986Y036121D01*
X068995Y036150D01*
X069008Y036177D01*
X069023Y036203D01*
X069042Y036227D01*
X069063Y036248D01*
X069087Y036267D01*
X069113Y036282D01*
X069140Y036295D01*
X069169Y036304D01*
X069199Y036309D01*
X069229Y036311D01*
X067876Y036096D02*
X067876Y035796D01*
X067876Y036096D02*
X067874Y036126D01*
X067869Y036156D01*
X067860Y036185D01*
X067847Y036212D01*
X067832Y036238D01*
X067813Y036262D01*
X067792Y036283D01*
X067768Y036302D01*
X067742Y036317D01*
X067715Y036330D01*
X067686Y036339D01*
X067656Y036344D01*
X067626Y036346D01*
X067026Y036346D01*
X066996Y036344D01*
X066966Y036339D01*
X066937Y036330D01*
X066910Y036317D01*
X066884Y036302D01*
X066860Y036283D01*
X066839Y036262D01*
X066820Y036238D01*
X066805Y036212D01*
X066792Y036185D01*
X066783Y036156D01*
X066778Y036126D01*
X066776Y036096D01*
X066776Y032796D01*
X066526Y032396D02*
X066526Y034596D01*
X066528Y034626D01*
X066533Y034656D01*
X066542Y034685D01*
X066555Y034712D01*
X066570Y034738D01*
X066589Y034762D01*
X066610Y034783D01*
X066634Y034802D01*
X066660Y034817D01*
X066687Y034830D01*
X066716Y034839D01*
X066746Y034844D01*
X066776Y034846D01*
X067876Y034896D02*
X067876Y031596D01*
X067874Y031566D01*
X067869Y031536D01*
X067860Y031507D01*
X067847Y031480D01*
X067832Y031454D01*
X067813Y031430D01*
X067792Y031409D01*
X067768Y031390D01*
X067742Y031375D01*
X067715Y031362D01*
X067686Y031353D01*
X067656Y031348D01*
X067626Y031346D01*
X067026Y031346D01*
X066996Y031348D01*
X066966Y031353D01*
X066937Y031362D01*
X066910Y031375D01*
X066884Y031390D01*
X066860Y031409D01*
X066839Y031430D01*
X066820Y031454D01*
X066805Y031480D01*
X066792Y031507D01*
X066783Y031536D01*
X066778Y031566D01*
X066776Y031596D01*
X066776Y031896D01*
X065523Y032107D02*
X065523Y028407D01*
X065423Y028307D01*
X064273Y028257D01*
X064300Y027864D02*
X065450Y027814D01*
X065550Y027714D01*
X065550Y024014D01*
X065450Y023914D01*
X064300Y023864D01*
X063687Y023038D02*
X067387Y023038D01*
X067487Y022938D01*
X067537Y021788D01*
X068863Y022300D02*
X068865Y022367D01*
X068871Y022435D01*
X068881Y022502D01*
X068895Y022568D01*
X068912Y022633D01*
X068934Y022697D01*
X068959Y022760D01*
X068988Y022821D01*
X069020Y022880D01*
X069056Y022937D01*
X069095Y022992D01*
X069137Y023045D01*
X069182Y023095D01*
X069230Y023142D01*
X069281Y023187D01*
X069334Y023228D01*
X069390Y023267D01*
X069448Y023302D01*
X069508Y023333D01*
X069569Y023361D01*
X069632Y023385D01*
X069696Y023406D01*
X069762Y023422D01*
X069828Y023435D01*
X069895Y023444D01*
X069962Y023449D01*
X070030Y023450D01*
X070097Y023447D01*
X070164Y023440D01*
X070231Y023429D01*
X070297Y023414D01*
X070362Y023396D01*
X070426Y023373D01*
X070488Y023347D01*
X070549Y023318D01*
X070607Y023284D01*
X070664Y023248D01*
X070719Y023208D01*
X070771Y023165D01*
X070820Y023119D01*
X070867Y023070D01*
X070911Y023019D01*
X070951Y022965D01*
X070989Y022909D01*
X071023Y022850D01*
X071053Y022790D01*
X071080Y022728D01*
X071104Y022665D01*
X071123Y022600D01*
X071139Y022535D01*
X071151Y022468D01*
X071159Y022401D01*
X071163Y022334D01*
X071163Y022266D01*
X071159Y022199D01*
X071151Y022132D01*
X071139Y022065D01*
X071123Y022000D01*
X071104Y021935D01*
X071080Y021872D01*
X071053Y021810D01*
X071023Y021750D01*
X070989Y021691D01*
X070951Y021635D01*
X070911Y021581D01*
X070867Y021530D01*
X070820Y021481D01*
X070771Y021435D01*
X070719Y021392D01*
X070664Y021352D01*
X070607Y021316D01*
X070549Y021282D01*
X070488Y021253D01*
X070426Y021227D01*
X070362Y021204D01*
X070297Y021186D01*
X070231Y021171D01*
X070164Y021160D01*
X070097Y021153D01*
X070030Y021150D01*
X069962Y021151D01*
X069895Y021156D01*
X069828Y021165D01*
X069762Y021178D01*
X069696Y021194D01*
X069632Y021215D01*
X069569Y021239D01*
X069508Y021267D01*
X069448Y021298D01*
X069390Y021333D01*
X069334Y021372D01*
X069281Y021413D01*
X069230Y021458D01*
X069182Y021505D01*
X069137Y021555D01*
X069095Y021608D01*
X069056Y021663D01*
X069020Y021720D01*
X068988Y021779D01*
X068959Y021840D01*
X068934Y021903D01*
X068912Y021967D01*
X068895Y022032D01*
X068881Y022098D01*
X068871Y022165D01*
X068865Y022233D01*
X068863Y022300D01*
X069233Y025088D02*
X069833Y025088D01*
X069863Y025090D01*
X069893Y025095D01*
X069922Y025104D01*
X069949Y025117D01*
X069975Y025132D01*
X069999Y025151D01*
X070020Y025172D01*
X070039Y025196D01*
X070054Y025222D01*
X070067Y025249D01*
X070076Y025278D01*
X070081Y025308D01*
X070083Y025338D01*
X070083Y028638D01*
X070333Y029038D02*
X070333Y026838D01*
X070331Y026808D01*
X070326Y026778D01*
X070317Y026749D01*
X070304Y026722D01*
X070289Y026696D01*
X070270Y026672D01*
X070249Y026651D01*
X070225Y026632D01*
X070199Y026617D01*
X070172Y026604D01*
X070143Y026595D01*
X070113Y026590D01*
X070083Y026588D01*
X068983Y026538D02*
X068983Y029838D01*
X068985Y029868D01*
X068990Y029898D01*
X068999Y029927D01*
X069012Y029954D01*
X069027Y029980D01*
X069046Y030004D01*
X069067Y030025D01*
X069091Y030044D01*
X069117Y030059D01*
X069144Y030072D01*
X069173Y030081D01*
X069203Y030086D01*
X069233Y030088D01*
X069833Y030088D01*
X069863Y030086D01*
X069893Y030081D01*
X069922Y030072D01*
X069949Y030059D01*
X069975Y030044D01*
X069999Y030025D01*
X070020Y030004D01*
X070039Y029980D01*
X070054Y029954D01*
X070067Y029927D01*
X070076Y029898D01*
X070081Y029868D01*
X070083Y029838D01*
X070083Y029538D01*
X068983Y028588D02*
X068953Y028586D01*
X068923Y028581D01*
X068894Y028572D01*
X068867Y028559D01*
X068841Y028544D01*
X068817Y028525D01*
X068796Y028504D01*
X068777Y028480D01*
X068762Y028454D01*
X068749Y028427D01*
X068740Y028398D01*
X068735Y028368D01*
X068733Y028338D01*
X068733Y026138D01*
X068983Y025638D02*
X068983Y025338D01*
X068985Y025308D01*
X068990Y025278D01*
X068999Y025249D01*
X069012Y025222D01*
X069027Y025196D01*
X069046Y025172D01*
X069067Y025151D01*
X069091Y025132D01*
X069117Y025117D01*
X069144Y025104D01*
X069173Y025095D01*
X069203Y025090D01*
X069233Y025088D01*
X067852Y025344D02*
X067852Y028644D01*
X068102Y029044D02*
X068102Y026844D01*
X068100Y026814D01*
X068095Y026784D01*
X068086Y026755D01*
X068073Y026728D01*
X068058Y026702D01*
X068039Y026678D01*
X068018Y026657D01*
X067994Y026638D01*
X067968Y026623D01*
X067941Y026610D01*
X067912Y026601D01*
X067882Y026596D01*
X067852Y026594D01*
X066752Y026544D02*
X066752Y029844D01*
X066754Y029874D01*
X066759Y029904D01*
X066768Y029933D01*
X066781Y029960D01*
X066796Y029986D01*
X066815Y030010D01*
X066836Y030031D01*
X066860Y030050D01*
X066886Y030065D01*
X066913Y030078D01*
X066942Y030087D01*
X066972Y030092D01*
X067002Y030094D01*
X067602Y030094D01*
X067632Y030092D01*
X067662Y030087D01*
X067691Y030078D01*
X067718Y030065D01*
X067744Y030050D01*
X067768Y030031D01*
X067789Y030010D01*
X067808Y029986D01*
X067823Y029960D01*
X067836Y029933D01*
X067845Y029904D01*
X067850Y029874D01*
X067852Y029844D01*
X067852Y029544D01*
X066752Y028594D02*
X066722Y028592D01*
X066692Y028587D01*
X066663Y028578D01*
X066636Y028565D01*
X066610Y028550D01*
X066586Y028531D01*
X066565Y028510D01*
X066546Y028486D01*
X066531Y028460D01*
X066518Y028433D01*
X066509Y028404D01*
X066504Y028374D01*
X066502Y028344D01*
X066502Y026144D01*
X066752Y025644D02*
X066752Y025344D01*
X066754Y025314D01*
X066759Y025284D01*
X066768Y025255D01*
X066781Y025228D01*
X066796Y025202D01*
X066815Y025178D01*
X066836Y025157D01*
X066860Y025138D01*
X066886Y025123D01*
X066913Y025110D01*
X066942Y025101D01*
X066972Y025096D01*
X067002Y025094D01*
X067602Y025094D01*
X067632Y025096D01*
X067662Y025101D01*
X067691Y025110D01*
X067718Y025123D01*
X067744Y025138D01*
X067768Y025157D01*
X067789Y025178D01*
X067808Y025202D01*
X067823Y025228D01*
X067836Y025255D01*
X067845Y025284D01*
X067850Y025314D01*
X067852Y025344D01*
X063687Y023038D02*
X063587Y022938D01*
X063537Y021788D01*
X060436Y021153D02*
X060436Y024596D01*
X057932Y024596D01*
X057932Y021153D01*
X058136Y021153D01*
X058136Y024557D01*
X058107Y024998D02*
X058107Y028402D01*
X057904Y028441D02*
X060408Y028441D01*
X060408Y024998D01*
X058107Y024998D01*
X057904Y024998D01*
X057904Y028441D01*
X057967Y028870D02*
X057967Y032313D01*
X060470Y032313D01*
X060470Y028870D01*
X058170Y028870D01*
X058170Y032274D01*
X058126Y032781D02*
X057923Y032781D01*
X057923Y036224D01*
X060427Y036224D01*
X060427Y032781D01*
X058126Y032781D01*
X058126Y036184D01*
X061751Y035387D02*
X061753Y035443D01*
X061759Y035500D01*
X061769Y035555D01*
X061783Y035610D01*
X061800Y035664D01*
X061822Y035716D01*
X061847Y035766D01*
X061875Y035815D01*
X061907Y035862D01*
X061942Y035906D01*
X061980Y035948D01*
X062021Y035987D01*
X062065Y036022D01*
X062111Y036055D01*
X062159Y036084D01*
X062209Y036110D01*
X062261Y036133D01*
X062315Y036151D01*
X062369Y036166D01*
X062424Y036177D01*
X062480Y036184D01*
X062537Y036187D01*
X062593Y036186D01*
X062650Y036181D01*
X062705Y036172D01*
X062760Y036159D01*
X062814Y036142D01*
X062867Y036122D01*
X062918Y036098D01*
X062967Y036070D01*
X063014Y036039D01*
X063059Y036005D01*
X063102Y035967D01*
X063141Y035927D01*
X063178Y035884D01*
X063211Y035839D01*
X063241Y035791D01*
X063268Y035741D01*
X063291Y035690D01*
X063311Y035637D01*
X063327Y035583D01*
X063339Y035527D01*
X063347Y035472D01*
X063351Y035415D01*
X063351Y035359D01*
X063347Y035302D01*
X063339Y035247D01*
X063327Y035191D01*
X063311Y035137D01*
X063291Y035084D01*
X063268Y035033D01*
X063241Y034983D01*
X063211Y034935D01*
X063178Y034890D01*
X063141Y034847D01*
X063102Y034807D01*
X063059Y034769D01*
X063014Y034735D01*
X062967Y034704D01*
X062918Y034676D01*
X062867Y034652D01*
X062814Y034632D01*
X062760Y034615D01*
X062705Y034602D01*
X062650Y034593D01*
X062593Y034588D01*
X062537Y034587D01*
X062480Y034590D01*
X062424Y034597D01*
X062369Y034608D01*
X062315Y034623D01*
X062261Y034641D01*
X062209Y034664D01*
X062159Y034690D01*
X062111Y034719D01*
X062065Y034752D01*
X062021Y034787D01*
X061980Y034826D01*
X061942Y034868D01*
X061907Y034912D01*
X061875Y034959D01*
X061847Y035008D01*
X061822Y035058D01*
X061800Y035110D01*
X061783Y035164D01*
X061769Y035219D01*
X061759Y035274D01*
X061753Y035331D01*
X061751Y035387D01*
X064230Y036675D02*
X065380Y036625D01*
X065480Y036525D01*
X065480Y032825D01*
X065380Y032725D01*
X064230Y032675D01*
X064273Y032257D02*
X065423Y032207D01*
X065523Y032107D01*
X067876Y032846D02*
X067906Y032848D01*
X067936Y032853D01*
X067965Y032862D01*
X067992Y032875D01*
X068018Y032890D01*
X068042Y032909D01*
X068063Y032930D01*
X068082Y032954D01*
X068097Y032980D01*
X068110Y033007D01*
X068119Y033036D01*
X068124Y033066D01*
X068126Y033096D01*
X068126Y035296D01*
X068729Y034561D02*
X068729Y032361D01*
X068979Y031861D02*
X068979Y031561D01*
X068981Y031531D01*
X068986Y031501D01*
X068995Y031472D01*
X069008Y031445D01*
X069023Y031419D01*
X069042Y031395D01*
X069063Y031374D01*
X069087Y031355D01*
X069113Y031340D01*
X069140Y031327D01*
X069169Y031318D01*
X069199Y031313D01*
X069229Y031311D01*
X069829Y031311D01*
X069859Y031313D01*
X069889Y031318D01*
X069918Y031327D01*
X069945Y031340D01*
X069971Y031355D01*
X069995Y031374D01*
X070016Y031395D01*
X070035Y031419D01*
X070050Y031445D01*
X070063Y031472D01*
X070072Y031501D01*
X070077Y031531D01*
X070079Y031561D01*
X070079Y034861D01*
X068979Y034811D02*
X068949Y034809D01*
X068919Y034804D01*
X068890Y034795D01*
X068863Y034782D01*
X068837Y034767D01*
X068813Y034748D01*
X068792Y034727D01*
X068773Y034703D01*
X068758Y034677D01*
X068745Y034650D01*
X068736Y034621D01*
X068731Y034591D01*
X068729Y034561D01*
X061738Y031714D02*
X061740Y031770D01*
X061746Y031827D01*
X061756Y031882D01*
X061770Y031937D01*
X061787Y031991D01*
X061809Y032043D01*
X061834Y032093D01*
X061862Y032142D01*
X061894Y032189D01*
X061929Y032233D01*
X061967Y032275D01*
X062008Y032314D01*
X062052Y032349D01*
X062098Y032382D01*
X062146Y032411D01*
X062196Y032437D01*
X062248Y032460D01*
X062302Y032478D01*
X062356Y032493D01*
X062411Y032504D01*
X062467Y032511D01*
X062524Y032514D01*
X062580Y032513D01*
X062637Y032508D01*
X062692Y032499D01*
X062747Y032486D01*
X062801Y032469D01*
X062854Y032449D01*
X062905Y032425D01*
X062954Y032397D01*
X063001Y032366D01*
X063046Y032332D01*
X063089Y032294D01*
X063128Y032254D01*
X063165Y032211D01*
X063198Y032166D01*
X063228Y032118D01*
X063255Y032068D01*
X063278Y032017D01*
X063298Y031964D01*
X063314Y031910D01*
X063326Y031854D01*
X063334Y031799D01*
X063338Y031742D01*
X063338Y031686D01*
X063334Y031629D01*
X063326Y031574D01*
X063314Y031518D01*
X063298Y031464D01*
X063278Y031411D01*
X063255Y031360D01*
X063228Y031310D01*
X063198Y031262D01*
X063165Y031217D01*
X063128Y031174D01*
X063089Y031134D01*
X063046Y031096D01*
X063001Y031062D01*
X062954Y031031D01*
X062905Y031003D01*
X062854Y030979D01*
X062801Y030959D01*
X062747Y030942D01*
X062692Y030929D01*
X062637Y030920D01*
X062580Y030915D01*
X062524Y030914D01*
X062467Y030917D01*
X062411Y030924D01*
X062356Y030935D01*
X062302Y030950D01*
X062248Y030968D01*
X062196Y030991D01*
X062146Y031017D01*
X062098Y031046D01*
X062052Y031079D01*
X062008Y031114D01*
X061967Y031153D01*
X061929Y031195D01*
X061894Y031239D01*
X061862Y031286D01*
X061834Y031335D01*
X061809Y031385D01*
X061787Y031437D01*
X061770Y031491D01*
X061756Y031546D01*
X061746Y031601D01*
X061740Y031658D01*
X061738Y031714D01*
X058170Y028870D02*
X057967Y028870D01*
X061746Y027967D02*
X061748Y028023D01*
X061754Y028080D01*
X061764Y028135D01*
X061778Y028190D01*
X061795Y028244D01*
X061817Y028296D01*
X061842Y028346D01*
X061870Y028395D01*
X061902Y028442D01*
X061937Y028486D01*
X061975Y028528D01*
X062016Y028567D01*
X062060Y028602D01*
X062106Y028635D01*
X062154Y028664D01*
X062204Y028690D01*
X062256Y028713D01*
X062310Y028731D01*
X062364Y028746D01*
X062419Y028757D01*
X062475Y028764D01*
X062532Y028767D01*
X062588Y028766D01*
X062645Y028761D01*
X062700Y028752D01*
X062755Y028739D01*
X062809Y028722D01*
X062862Y028702D01*
X062913Y028678D01*
X062962Y028650D01*
X063009Y028619D01*
X063054Y028585D01*
X063097Y028547D01*
X063136Y028507D01*
X063173Y028464D01*
X063206Y028419D01*
X063236Y028371D01*
X063263Y028321D01*
X063286Y028270D01*
X063306Y028217D01*
X063322Y028163D01*
X063334Y028107D01*
X063342Y028052D01*
X063346Y027995D01*
X063346Y027939D01*
X063342Y027882D01*
X063334Y027827D01*
X063322Y027771D01*
X063306Y027717D01*
X063286Y027664D01*
X063263Y027613D01*
X063236Y027563D01*
X063206Y027515D01*
X063173Y027470D01*
X063136Y027427D01*
X063097Y027387D01*
X063054Y027349D01*
X063009Y027315D01*
X062962Y027284D01*
X062913Y027256D01*
X062862Y027232D01*
X062809Y027212D01*
X062755Y027195D01*
X062700Y027182D01*
X062645Y027173D01*
X062588Y027168D01*
X062532Y027167D01*
X062475Y027170D01*
X062419Y027177D01*
X062364Y027188D01*
X062310Y027203D01*
X062256Y027221D01*
X062204Y027244D01*
X062154Y027270D01*
X062106Y027299D01*
X062060Y027332D01*
X062016Y027367D01*
X061975Y027406D01*
X061937Y027448D01*
X061902Y027492D01*
X061870Y027539D01*
X061842Y027588D01*
X061817Y027638D01*
X061795Y027690D01*
X061778Y027744D01*
X061764Y027799D01*
X061754Y027854D01*
X061748Y027911D01*
X061746Y027967D01*
X061752Y023919D02*
X061754Y023975D01*
X061760Y024032D01*
X061770Y024087D01*
X061784Y024142D01*
X061801Y024196D01*
X061823Y024248D01*
X061848Y024298D01*
X061876Y024347D01*
X061908Y024394D01*
X061943Y024438D01*
X061981Y024480D01*
X062022Y024519D01*
X062066Y024554D01*
X062112Y024587D01*
X062160Y024616D01*
X062210Y024642D01*
X062262Y024665D01*
X062316Y024683D01*
X062370Y024698D01*
X062425Y024709D01*
X062481Y024716D01*
X062538Y024719D01*
X062594Y024718D01*
X062651Y024713D01*
X062706Y024704D01*
X062761Y024691D01*
X062815Y024674D01*
X062868Y024654D01*
X062919Y024630D01*
X062968Y024602D01*
X063015Y024571D01*
X063060Y024537D01*
X063103Y024499D01*
X063142Y024459D01*
X063179Y024416D01*
X063212Y024371D01*
X063242Y024323D01*
X063269Y024273D01*
X063292Y024222D01*
X063312Y024169D01*
X063328Y024115D01*
X063340Y024059D01*
X063348Y024004D01*
X063352Y023947D01*
X063352Y023891D01*
X063348Y023834D01*
X063340Y023779D01*
X063328Y023723D01*
X063312Y023669D01*
X063292Y023616D01*
X063269Y023565D01*
X063242Y023515D01*
X063212Y023467D01*
X063179Y023422D01*
X063142Y023379D01*
X063103Y023339D01*
X063060Y023301D01*
X063015Y023267D01*
X062968Y023236D01*
X062919Y023208D01*
X062868Y023184D01*
X062815Y023164D01*
X062761Y023147D01*
X062706Y023134D01*
X062651Y023125D01*
X062594Y023120D01*
X062538Y023119D01*
X062481Y023122D01*
X062425Y023129D01*
X062370Y023140D01*
X062316Y023155D01*
X062262Y023173D01*
X062210Y023196D01*
X062160Y023222D01*
X062112Y023251D01*
X062066Y023284D01*
X062022Y023319D01*
X061981Y023358D01*
X061943Y023400D01*
X061908Y023444D01*
X061876Y023491D01*
X061848Y023540D01*
X061823Y023590D01*
X061801Y023642D01*
X061784Y023696D01*
X061770Y023751D01*
X061760Y023806D01*
X061754Y023863D01*
X061752Y023919D01*
X060436Y021153D02*
X058136Y021153D01*
X053621Y024077D02*
X053621Y024477D01*
X053619Y024503D01*
X053614Y024529D01*
X053606Y024554D01*
X053594Y024577D01*
X053580Y024599D01*
X053562Y024618D01*
X053543Y024636D01*
X053521Y024650D01*
X053498Y024662D01*
X053473Y024670D01*
X053447Y024675D01*
X053421Y024677D01*
X045821Y024677D01*
X045771Y024627D02*
X046471Y024627D01*
X046471Y023927D01*
X045771Y023927D01*
X045771Y024627D01*
X045821Y024677D02*
X045795Y024675D01*
X045769Y024670D01*
X045744Y024662D01*
X045721Y024650D01*
X045699Y024636D01*
X045680Y024618D01*
X045662Y024599D01*
X045648Y024577D01*
X045636Y024554D01*
X045628Y024529D01*
X045623Y024503D01*
X045621Y024477D01*
X045621Y024077D01*
X045623Y024051D01*
X045628Y024025D01*
X045636Y024000D01*
X045648Y023977D01*
X045662Y023955D01*
X045680Y023936D01*
X045699Y023918D01*
X045721Y023904D01*
X045744Y023892D01*
X045769Y023884D01*
X045795Y023879D01*
X045821Y023877D01*
X053421Y023877D01*
X053447Y023879D01*
X053473Y023884D01*
X053498Y023892D01*
X053521Y023904D01*
X053543Y023918D01*
X053562Y023936D01*
X053580Y023955D01*
X053594Y023977D01*
X053606Y024000D01*
X053614Y024025D01*
X053619Y024051D01*
X053621Y024077D01*
X051065Y029077D02*
X050892Y029077D01*
X050805Y029163D01*
X050892Y029250D01*
X051065Y029250D01*
X050935Y029250D02*
X050935Y029077D01*
X050805Y029371D02*
X050805Y029545D01*
X050805Y029458D02*
X051065Y029458D01*
X051065Y029666D02*
X050805Y029666D01*
X050892Y029753D01*
X050805Y029839D01*
X051065Y029839D01*
X051065Y029960D02*
X051065Y030134D01*
X051022Y030255D02*
X050848Y030255D01*
X050805Y030299D01*
X050805Y030385D01*
X050848Y030429D01*
X050935Y030429D02*
X050935Y030342D01*
X050935Y030429D02*
X051022Y030429D01*
X051065Y030385D01*
X051065Y030299D01*
X051022Y030255D01*
X050935Y030047D02*
X050935Y029960D01*
X050805Y029960D02*
X051065Y029960D01*
X050805Y029960D02*
X050805Y030134D01*
X050892Y030550D02*
X050805Y030637D01*
X050892Y030723D01*
X051065Y030723D01*
X051022Y030844D02*
X051065Y030888D01*
X051065Y030975D01*
X051022Y031018D01*
X050978Y031018D01*
X050935Y030975D01*
X050935Y030931D01*
X050935Y030975D02*
X050892Y031018D01*
X050848Y031018D01*
X050805Y030975D01*
X050805Y030888D01*
X050848Y030844D01*
X050935Y030723D02*
X050935Y030550D01*
X050892Y030550D02*
X051065Y030550D01*
X051065Y031139D02*
X050892Y031313D01*
X050848Y031313D01*
X050805Y031269D01*
X050805Y031182D01*
X050848Y031139D01*
X051065Y031139D02*
X051065Y031313D01*
X051022Y031434D02*
X051065Y031477D01*
X051065Y031564D01*
X051022Y031607D01*
X050805Y031607D01*
X050805Y031434D02*
X051022Y031434D01*
X050935Y031728D02*
X050935Y031902D01*
X050805Y031859D02*
X050935Y031728D01*
X051065Y031859D02*
X050805Y031859D01*
X042382Y029587D02*
X042382Y027765D01*
X039878Y027765D01*
X039878Y029587D01*
X041982Y029587D01*
X041982Y027765D01*
X041967Y026284D02*
X039863Y026284D01*
X039863Y024461D01*
X042367Y024461D01*
X042367Y026284D01*
X041967Y026284D01*
X041967Y024461D01*
X036169Y024448D02*
X033665Y024448D01*
X033665Y026270D01*
X035769Y026270D01*
X035769Y024448D01*
X036169Y024448D02*
X036169Y026270D01*
X035769Y026270D01*
X035772Y027748D02*
X035772Y029571D01*
X036172Y029571D01*
X036172Y027748D01*
X033668Y027748D01*
X033668Y029571D01*
X035772Y029571D01*
X041982Y029587D02*
X042382Y029587D01*
X040615Y037986D02*
X040395Y037986D01*
X040395Y038736D01*
X038795Y038736D01*
X038795Y040536D01*
X038945Y040536D01*
X038945Y040686D02*
X038275Y040686D01*
X038275Y040536D02*
X038425Y040536D01*
X038425Y038736D01*
X036825Y038736D01*
X036825Y037986D01*
X038425Y037986D01*
X038795Y037986D01*
X040395Y037986D01*
X040615Y037986D02*
X040615Y038386D01*
X040615Y038836D01*
X040615Y040686D01*
X040245Y040686D01*
X040245Y040536D02*
X040395Y040536D01*
X040395Y038736D01*
X040615Y038836D02*
X040815Y038936D01*
X040815Y038286D01*
X040615Y038386D01*
X040245Y038986D02*
X038945Y038986D01*
X038945Y040236D01*
X038275Y040236D02*
X038275Y038986D01*
X036975Y038986D01*
X036975Y040236D01*
X036975Y040536D02*
X036825Y040536D01*
X036825Y038736D01*
X036465Y038736D02*
X036465Y037986D01*
X036645Y037986D01*
X036645Y040686D01*
X036315Y040686D01*
X036315Y040536D02*
X036465Y040536D01*
X036465Y038736D01*
X034865Y038736D01*
X034865Y040536D01*
X035015Y040536D01*
X035015Y040686D02*
X034345Y040686D01*
X034345Y040536D02*
X034495Y040536D01*
X034495Y038736D01*
X032895Y038736D01*
X032895Y037986D01*
X034495Y037986D01*
X034865Y037986D01*
X036465Y037986D01*
X036645Y037986D02*
X036825Y037986D01*
X038425Y037986D02*
X038425Y038736D01*
X038795Y038736D02*
X038795Y037986D01*
X040245Y038986D02*
X040245Y040236D01*
X040615Y040686D02*
X040615Y041086D01*
X040615Y041686D01*
X036645Y041686D01*
X036645Y042886D01*
X032705Y042886D01*
X028765Y042886D01*
X028765Y041686D01*
X032705Y041686D01*
X032705Y042886D01*
X032515Y042786D02*
X032515Y041786D01*
X030915Y041786D01*
X030915Y042786D01*
X032515Y042786D01*
X032895Y042786D02*
X034495Y042786D01*
X034495Y041786D01*
X032895Y041786D01*
X032895Y042786D01*
X032325Y042386D02*
X031125Y042136D01*
X031075Y042186D02*
X032275Y042436D01*
X032315Y042426D02*
X032334Y042402D01*
X032350Y042377D01*
X032363Y042349D01*
X032373Y042321D01*
X032380Y042291D01*
X032384Y042261D01*
X032384Y042231D01*
X032380Y042200D01*
X032373Y042171D01*
X032363Y042142D01*
X032350Y042115D01*
X032334Y042089D01*
X032315Y042066D01*
X032293Y042044D01*
X032705Y041686D02*
X036645Y041686D01*
X036645Y040686D01*
X036975Y040686D01*
X036315Y040236D02*
X036315Y038986D01*
X035015Y038986D01*
X035015Y040236D01*
X034345Y040236D02*
X034345Y038986D01*
X033045Y038986D01*
X033045Y040236D01*
X033045Y040536D02*
X032895Y040536D01*
X032895Y038736D01*
X032515Y038736D02*
X032515Y037986D01*
X032705Y037986D01*
X032895Y037986D01*
X032705Y037986D02*
X032705Y040686D01*
X033045Y040686D01*
X032705Y040686D02*
X032705Y041686D01*
X033105Y042136D02*
X034305Y042386D01*
X034255Y042436D02*
X033055Y042186D01*
X033132Y042062D02*
X033106Y042079D01*
X033083Y042098D01*
X033063Y042121D01*
X033046Y042145D01*
X033032Y042172D01*
X033021Y042201D01*
X033015Y042230D01*
X033012Y042260D01*
X033013Y042291D01*
X033018Y042320D01*
X033027Y042349D01*
X033040Y042377D01*
X033056Y042402D01*
X033075Y042426D01*
X033115Y042076D02*
X033163Y042040D01*
X033214Y042007D01*
X033266Y041977D01*
X033320Y041951D01*
X033376Y041928D01*
X033433Y041908D01*
X033491Y041892D01*
X033550Y041880D01*
X033610Y041872D01*
X033670Y041867D01*
X033730Y041866D01*
X033790Y041869D01*
X033850Y041876D01*
X033910Y041886D01*
X033968Y041900D01*
X034026Y041918D01*
X034082Y041939D01*
X034137Y041964D01*
X034190Y041992D01*
X034242Y042023D01*
X034291Y042058D01*
X034273Y042044D02*
X034295Y042066D01*
X034314Y042089D01*
X034330Y042115D01*
X034343Y042142D01*
X034353Y042171D01*
X034360Y042200D01*
X034364Y042231D01*
X034364Y042261D01*
X034360Y042291D01*
X034353Y042321D01*
X034343Y042349D01*
X034330Y042377D01*
X034314Y042402D01*
X034295Y042426D01*
X034865Y042786D02*
X036465Y042786D01*
X036465Y041786D01*
X034865Y041786D01*
X034865Y042786D01*
X035085Y042076D02*
X035133Y042040D01*
X035184Y042007D01*
X035236Y041977D01*
X035290Y041951D01*
X035346Y041928D01*
X035403Y041908D01*
X035461Y041892D01*
X035520Y041880D01*
X035580Y041872D01*
X035640Y041867D01*
X035700Y041866D01*
X035760Y041869D01*
X035820Y041876D01*
X035880Y041886D01*
X035938Y041900D01*
X035996Y041918D01*
X036052Y041939D01*
X036107Y041964D01*
X036160Y041992D01*
X036212Y042023D01*
X036261Y042058D01*
X036243Y042044D02*
X036265Y042066D01*
X036284Y042089D01*
X036300Y042115D01*
X036313Y042142D01*
X036323Y042171D01*
X036330Y042200D01*
X036334Y042231D01*
X036334Y042261D01*
X036330Y042291D01*
X036323Y042321D01*
X036313Y042349D01*
X036300Y042377D01*
X036284Y042402D01*
X036265Y042426D01*
X036225Y042436D02*
X035025Y042186D01*
X035075Y042136D02*
X036275Y042386D01*
X036645Y042886D02*
X040615Y042886D01*
X040815Y042886D01*
X040815Y040986D01*
X040615Y041086D01*
X040615Y041686D02*
X040615Y042886D01*
X040395Y042786D02*
X040395Y041786D01*
X038795Y041786D01*
X038795Y042786D01*
X040395Y042786D01*
X040155Y042436D02*
X038955Y042186D01*
X039005Y042136D02*
X040205Y042386D01*
X040195Y042426D02*
X040214Y042402D01*
X040230Y042377D01*
X040243Y042349D01*
X040253Y042321D01*
X040260Y042291D01*
X040264Y042261D01*
X040264Y042231D01*
X040260Y042200D01*
X040253Y042171D01*
X040243Y042142D01*
X040230Y042115D01*
X040214Y042089D01*
X040195Y042066D01*
X040173Y042044D01*
X040197Y042428D02*
X040160Y042468D01*
X040120Y042505D01*
X040078Y042540D01*
X040034Y042571D01*
X039988Y042600D01*
X039940Y042625D01*
X039890Y042647D01*
X039839Y042666D01*
X039787Y042682D01*
X039733Y042693D01*
X039680Y042701D01*
X039625Y042706D01*
X039571Y042707D01*
X039517Y042704D01*
X039462Y042698D01*
X039409Y042688D01*
X039356Y042674D01*
X039305Y042657D01*
X039254Y042636D01*
X039205Y042613D01*
X039158Y042585D01*
X039113Y042555D01*
X039070Y042522D01*
X039029Y042486D01*
X038990Y042447D01*
X038955Y042406D01*
X038975Y042426D02*
X038956Y042402D01*
X038940Y042377D01*
X038927Y042349D01*
X038918Y042320D01*
X038913Y042291D01*
X038912Y042260D01*
X038915Y042230D01*
X038921Y042201D01*
X038932Y042172D01*
X038946Y042145D01*
X038963Y042121D01*
X038983Y042098D01*
X039006Y042079D01*
X039032Y042062D01*
X038425Y041786D02*
X036825Y041786D01*
X036825Y042786D01*
X038425Y042786D01*
X038425Y041786D01*
X038203Y042044D02*
X038225Y042066D01*
X038244Y042089D01*
X038260Y042115D01*
X038273Y042142D01*
X038283Y042171D01*
X038290Y042200D01*
X038294Y042231D01*
X038294Y042261D01*
X038290Y042291D01*
X038283Y042321D01*
X038273Y042349D01*
X038260Y042377D01*
X038244Y042402D01*
X038225Y042426D01*
X038185Y042436D02*
X036985Y042186D01*
X037035Y042136D02*
X038235Y042386D01*
X038221Y042058D02*
X038172Y042023D01*
X038120Y041992D01*
X038067Y041964D01*
X038012Y041939D01*
X037956Y041918D01*
X037898Y041900D01*
X037840Y041886D01*
X037780Y041876D01*
X037720Y041869D01*
X037660Y041866D01*
X037600Y041867D01*
X037540Y041872D01*
X037480Y041880D01*
X037421Y041892D01*
X037363Y041908D01*
X037306Y041928D01*
X037250Y041951D01*
X037196Y041977D01*
X037144Y042007D01*
X037093Y042040D01*
X037045Y042076D01*
X037062Y042062D02*
X037036Y042079D01*
X037013Y042098D01*
X036993Y042121D01*
X036976Y042145D01*
X036962Y042172D01*
X036951Y042201D01*
X036945Y042230D01*
X036942Y042260D01*
X036943Y042291D01*
X036948Y042320D01*
X036957Y042349D01*
X036970Y042377D01*
X036986Y042402D01*
X037005Y042426D01*
X036985Y042406D02*
X037020Y042447D01*
X037059Y042486D01*
X037100Y042522D01*
X037143Y042555D01*
X037188Y042585D01*
X037235Y042613D01*
X037284Y042636D01*
X037335Y042657D01*
X037386Y042674D01*
X037439Y042688D01*
X037492Y042698D01*
X037547Y042704D01*
X037601Y042707D01*
X037655Y042706D01*
X037710Y042701D01*
X037763Y042693D01*
X037817Y042682D01*
X037869Y042666D01*
X037920Y042647D01*
X037970Y042625D01*
X038018Y042600D01*
X038064Y042571D01*
X038108Y042540D01*
X038150Y042505D01*
X038190Y042468D01*
X038227Y042428D01*
X039015Y042076D02*
X039063Y042040D01*
X039114Y042007D01*
X039166Y041977D01*
X039220Y041951D01*
X039276Y041928D01*
X039333Y041908D01*
X039391Y041892D01*
X039450Y041880D01*
X039510Y041872D01*
X039570Y041867D01*
X039630Y041866D01*
X039690Y041869D01*
X039750Y041876D01*
X039810Y041886D01*
X039868Y041900D01*
X039926Y041918D01*
X039982Y041939D01*
X040037Y041964D01*
X040090Y041992D01*
X040142Y042023D01*
X040191Y042058D01*
X042684Y042972D02*
X054684Y042972D01*
X055081Y043041D02*
X067081Y043041D01*
X065631Y041634D02*
X064081Y041634D01*
X063731Y041634D02*
X056531Y041634D01*
X053234Y041565D02*
X051684Y041565D01*
X051334Y041565D02*
X044134Y041565D01*
X036267Y042428D02*
X036230Y042468D01*
X036190Y042505D01*
X036148Y042540D01*
X036104Y042571D01*
X036058Y042600D01*
X036010Y042625D01*
X035960Y042647D01*
X035909Y042666D01*
X035857Y042682D01*
X035803Y042693D01*
X035750Y042701D01*
X035695Y042706D01*
X035641Y042707D01*
X035587Y042704D01*
X035532Y042698D01*
X035479Y042688D01*
X035426Y042674D01*
X035375Y042657D01*
X035324Y042636D01*
X035275Y042613D01*
X035228Y042585D01*
X035183Y042555D01*
X035140Y042522D01*
X035099Y042486D01*
X035060Y042447D01*
X035025Y042406D01*
X035045Y042426D02*
X035026Y042402D01*
X035010Y042377D01*
X034997Y042349D01*
X034988Y042320D01*
X034983Y042291D01*
X034982Y042260D01*
X034985Y042230D01*
X034991Y042201D01*
X035002Y042172D01*
X035016Y042145D01*
X035033Y042121D01*
X035053Y042098D01*
X035076Y042079D01*
X035102Y042062D01*
X034297Y042428D02*
X034260Y042468D01*
X034220Y042505D01*
X034178Y042540D01*
X034134Y042571D01*
X034088Y042600D01*
X034040Y042625D01*
X033990Y042647D01*
X033939Y042666D01*
X033887Y042682D01*
X033833Y042693D01*
X033780Y042701D01*
X033725Y042706D01*
X033671Y042707D01*
X033617Y042704D01*
X033562Y042698D01*
X033509Y042688D01*
X033456Y042674D01*
X033405Y042657D01*
X033354Y042636D01*
X033305Y042613D01*
X033258Y042585D01*
X033213Y042555D01*
X033170Y042522D01*
X033129Y042486D01*
X033090Y042447D01*
X033055Y042406D01*
X032311Y042058D02*
X032262Y042023D01*
X032210Y041992D01*
X032157Y041964D01*
X032102Y041939D01*
X032046Y041918D01*
X031988Y041900D01*
X031930Y041886D01*
X031870Y041876D01*
X031810Y041869D01*
X031750Y041866D01*
X031690Y041867D01*
X031630Y041872D01*
X031570Y041880D01*
X031511Y041892D01*
X031453Y041908D01*
X031396Y041928D01*
X031340Y041951D01*
X031286Y041977D01*
X031234Y042007D01*
X031183Y042040D01*
X031135Y042076D01*
X031152Y042062D02*
X031126Y042079D01*
X031103Y042098D01*
X031083Y042121D01*
X031066Y042145D01*
X031052Y042172D01*
X031041Y042201D01*
X031035Y042230D01*
X031032Y042260D01*
X031033Y042291D01*
X031038Y042320D01*
X031047Y042349D01*
X031060Y042377D01*
X031076Y042402D01*
X031095Y042426D01*
X030545Y042786D02*
X028945Y042786D01*
X028945Y041786D01*
X030545Y041786D01*
X030545Y042786D01*
X030305Y042436D02*
X029105Y042186D01*
X029155Y042136D02*
X030355Y042386D01*
X030345Y042426D02*
X030364Y042402D01*
X030380Y042377D01*
X030393Y042349D01*
X030403Y042321D01*
X030410Y042291D01*
X030414Y042261D01*
X030414Y042231D01*
X030410Y042200D01*
X030403Y042171D01*
X030393Y042142D01*
X030380Y042115D01*
X030364Y042089D01*
X030345Y042066D01*
X030323Y042044D01*
X030347Y042428D02*
X030310Y042468D01*
X030270Y042505D01*
X030228Y042540D01*
X030184Y042571D01*
X030138Y042600D01*
X030090Y042625D01*
X030040Y042648D01*
X029989Y042666D01*
X029937Y042682D01*
X029883Y042693D01*
X029830Y042701D01*
X029775Y042706D01*
X029721Y042707D01*
X029666Y042704D01*
X029612Y042698D01*
X029559Y042688D01*
X029506Y042674D01*
X029455Y042657D01*
X029404Y042636D01*
X029355Y042613D01*
X029308Y042585D01*
X029263Y042555D01*
X029219Y042522D01*
X029179Y042486D01*
X029140Y042447D01*
X029105Y042406D01*
X029125Y042426D02*
X029106Y042402D01*
X029090Y042377D01*
X029077Y042349D01*
X029068Y042320D01*
X029063Y042291D01*
X029062Y042260D01*
X029065Y042230D01*
X029071Y042201D01*
X029082Y042172D01*
X029096Y042145D01*
X029113Y042121D01*
X029133Y042098D01*
X029156Y042079D01*
X029182Y042062D01*
X028765Y041686D02*
X028765Y040686D01*
X028435Y040686D01*
X028435Y040536D02*
X028585Y040536D01*
X028585Y038736D01*
X028585Y037986D01*
X028765Y037986D01*
X028765Y040686D01*
X029095Y040686D01*
X029095Y040536D02*
X028945Y040536D01*
X028945Y038736D01*
X028945Y037986D01*
X030545Y037986D01*
X030915Y037986D01*
X032515Y037986D01*
X032515Y038736D02*
X030915Y038736D01*
X030915Y040536D01*
X031065Y040536D01*
X031065Y040686D02*
X030395Y040686D01*
X030395Y040536D02*
X030545Y040536D01*
X030545Y038736D01*
X028945Y038736D01*
X029095Y038986D02*
X029095Y040236D01*
X028435Y040236D02*
X028435Y038986D01*
X027135Y038986D01*
X027135Y040236D01*
X027135Y040536D02*
X026985Y040536D01*
X026985Y038736D01*
X028585Y038736D01*
X029095Y038986D02*
X030395Y038986D01*
X030395Y040236D01*
X031065Y040236D02*
X031065Y038986D01*
X032365Y038986D01*
X032365Y040236D01*
X032365Y040536D02*
X032515Y040536D01*
X032515Y038736D01*
X030915Y038736D02*
X030915Y037986D01*
X030545Y037986D02*
X030545Y038736D01*
X028945Y037986D02*
X028765Y037986D01*
X028585Y037986D02*
X026985Y037986D01*
X026615Y037986D01*
X025015Y037986D01*
X025015Y038736D01*
X026615Y038736D01*
X026615Y040536D01*
X026465Y040536D01*
X026465Y040686D02*
X027135Y040686D01*
X026465Y040236D02*
X026465Y038986D01*
X025165Y038986D01*
X025165Y040236D01*
X025165Y040536D02*
X025015Y040536D01*
X025015Y038736D01*
X025015Y037986D02*
X024795Y037986D01*
X024795Y040686D01*
X025165Y040686D01*
X024795Y040686D02*
X024795Y041686D01*
X024795Y042886D01*
X028765Y042886D01*
X028585Y042786D02*
X028585Y041786D01*
X026985Y041786D01*
X026985Y042786D01*
X028585Y042786D01*
X028345Y042436D02*
X027145Y042186D01*
X027195Y042136D02*
X028395Y042386D01*
X028385Y042426D02*
X028404Y042402D01*
X028420Y042377D01*
X028433Y042349D01*
X028443Y042321D01*
X028450Y042291D01*
X028454Y042261D01*
X028454Y042231D01*
X028450Y042200D01*
X028443Y042171D01*
X028433Y042142D01*
X028420Y042115D01*
X028404Y042089D01*
X028385Y042066D01*
X028363Y042044D01*
X028765Y041686D02*
X024795Y041686D01*
X025015Y041786D02*
X025015Y042786D01*
X026615Y042786D01*
X026615Y041786D01*
X025015Y041786D01*
X025225Y042136D02*
X026425Y042386D01*
X026375Y042436D02*
X025175Y042186D01*
X025252Y042062D02*
X025226Y042079D01*
X025203Y042098D01*
X025183Y042121D01*
X025166Y042145D01*
X025152Y042172D01*
X025141Y042201D01*
X025135Y042230D01*
X025132Y042260D01*
X025133Y042291D01*
X025138Y042320D01*
X025147Y042349D01*
X025160Y042377D01*
X025176Y042402D01*
X025195Y042426D01*
X025235Y042076D02*
X025283Y042040D01*
X025334Y042007D01*
X025386Y041977D01*
X025440Y041951D01*
X025496Y041928D01*
X025553Y041908D01*
X025611Y041892D01*
X025670Y041880D01*
X025730Y041872D01*
X025790Y041867D01*
X025850Y041866D01*
X025910Y041869D01*
X025970Y041876D01*
X026030Y041886D01*
X026088Y041900D01*
X026146Y041918D01*
X026202Y041939D01*
X026257Y041964D01*
X026310Y041992D01*
X026362Y042023D01*
X026411Y042058D01*
X026393Y042044D02*
X026415Y042066D01*
X026434Y042089D01*
X026450Y042115D01*
X026463Y042142D01*
X026473Y042171D01*
X026480Y042200D01*
X026484Y042231D01*
X026484Y042261D01*
X026480Y042291D01*
X026473Y042321D01*
X026463Y042349D01*
X026450Y042377D01*
X026434Y042402D01*
X026415Y042426D01*
X026417Y042428D02*
X026380Y042468D01*
X026340Y042505D01*
X026298Y042540D01*
X026254Y042571D01*
X026208Y042600D01*
X026160Y042625D01*
X026110Y042648D01*
X026059Y042666D01*
X026007Y042682D01*
X025953Y042693D01*
X025900Y042701D01*
X025845Y042706D01*
X025791Y042707D01*
X025736Y042704D01*
X025682Y042698D01*
X025629Y042688D01*
X025576Y042674D01*
X025525Y042657D01*
X025474Y042636D01*
X025425Y042613D01*
X025378Y042585D01*
X025333Y042555D01*
X025289Y042522D01*
X025249Y042486D01*
X025210Y042447D01*
X025175Y042406D01*
X027165Y042426D02*
X027146Y042402D01*
X027130Y042377D01*
X027117Y042349D01*
X027108Y042320D01*
X027103Y042291D01*
X027102Y042260D01*
X027105Y042230D01*
X027111Y042201D01*
X027122Y042172D01*
X027136Y042145D01*
X027153Y042121D01*
X027173Y042098D01*
X027196Y042079D01*
X027222Y042062D01*
X027145Y042406D02*
X027180Y042447D01*
X027219Y042486D01*
X027259Y042522D01*
X027303Y042555D01*
X027348Y042585D01*
X027395Y042613D01*
X027444Y042636D01*
X027495Y042657D01*
X027546Y042674D01*
X027599Y042688D01*
X027652Y042698D01*
X027706Y042704D01*
X027761Y042707D01*
X027815Y042706D01*
X027870Y042701D01*
X027923Y042693D01*
X027977Y042682D01*
X028029Y042666D01*
X028080Y042648D01*
X028130Y042625D01*
X028178Y042600D01*
X028224Y042571D01*
X028268Y042540D01*
X028310Y042505D01*
X028350Y042468D01*
X028387Y042428D01*
X028381Y042058D02*
X028332Y042023D01*
X028280Y041992D01*
X028227Y041964D01*
X028172Y041939D01*
X028116Y041918D01*
X028058Y041900D01*
X028000Y041886D01*
X027940Y041876D01*
X027880Y041869D01*
X027820Y041866D01*
X027760Y041867D01*
X027700Y041872D01*
X027640Y041880D01*
X027581Y041892D01*
X027523Y041908D01*
X027466Y041928D01*
X027410Y041951D01*
X027356Y041977D01*
X027304Y042007D01*
X027253Y042040D01*
X027205Y042076D01*
X029165Y042076D02*
X029213Y042040D01*
X029264Y042007D01*
X029316Y041977D01*
X029370Y041951D01*
X029426Y041928D01*
X029483Y041908D01*
X029541Y041892D01*
X029600Y041880D01*
X029660Y041872D01*
X029720Y041867D01*
X029780Y041866D01*
X029840Y041869D01*
X029900Y041876D01*
X029960Y041886D01*
X030018Y041900D01*
X030076Y041918D01*
X030132Y041939D01*
X030187Y041964D01*
X030240Y041992D01*
X030292Y042023D01*
X030341Y042058D01*
X031075Y042406D02*
X031110Y042447D01*
X031149Y042486D01*
X031189Y042522D01*
X031233Y042555D01*
X031278Y042585D01*
X031325Y042613D01*
X031374Y042636D01*
X031425Y042657D01*
X031476Y042674D01*
X031529Y042688D01*
X031582Y042698D01*
X031636Y042704D01*
X031691Y042707D01*
X031745Y042706D01*
X031800Y042701D01*
X031853Y042693D01*
X031907Y042682D01*
X031959Y042666D01*
X032010Y042648D01*
X032060Y042625D01*
X032108Y042600D01*
X032154Y042571D01*
X032198Y042540D01*
X032240Y042505D01*
X032280Y042468D01*
X032317Y042428D01*
X032365Y040686D02*
X032705Y040686D01*
X034495Y038736D02*
X034495Y037986D01*
X034865Y037986D02*
X034865Y038736D01*
X026985Y038736D02*
X026985Y037986D01*
X026615Y037986D02*
X026615Y038736D01*
X010852Y039387D02*
X010852Y041587D01*
X010602Y041187D02*
X010602Y037887D01*
X010600Y037857D01*
X010595Y037827D01*
X010586Y037798D01*
X010573Y037771D01*
X010558Y037745D01*
X010539Y037721D01*
X010518Y037700D01*
X010494Y037681D01*
X010468Y037666D01*
X010441Y037653D01*
X010412Y037644D01*
X010382Y037639D01*
X010352Y037637D01*
X009752Y037637D01*
X009722Y037639D01*
X009692Y037644D01*
X009663Y037653D01*
X009636Y037666D01*
X009610Y037681D01*
X009586Y037700D01*
X009565Y037721D01*
X009546Y037745D01*
X009531Y037771D01*
X009518Y037798D01*
X009509Y037827D01*
X009504Y037857D01*
X009502Y037887D01*
X009502Y038187D01*
X009252Y038687D02*
X009252Y040887D01*
X009254Y040917D01*
X009259Y040947D01*
X009268Y040976D01*
X009281Y041003D01*
X009296Y041029D01*
X009315Y041053D01*
X009336Y041074D01*
X009360Y041093D01*
X009386Y041108D01*
X009413Y041121D01*
X009442Y041130D01*
X009472Y041135D01*
X009502Y041137D01*
X008424Y041043D02*
X008224Y041143D01*
X008224Y041743D01*
X004224Y041743D01*
X004224Y042943D01*
X008224Y042943D01*
X008424Y042943D01*
X008424Y041043D01*
X008224Y041143D02*
X008224Y040743D01*
X007854Y040743D01*
X007854Y040593D02*
X008004Y040593D01*
X008004Y038793D01*
X008004Y038043D01*
X008224Y038043D01*
X008224Y038443D01*
X008224Y038893D01*
X008224Y040743D01*
X007854Y040293D02*
X007854Y039043D01*
X006554Y039043D01*
X006554Y040293D01*
X006554Y040593D02*
X006404Y040593D01*
X006404Y038793D01*
X008004Y038793D01*
X008224Y038893D02*
X008424Y038993D01*
X008424Y038343D01*
X008224Y038443D01*
X008004Y038043D02*
X006404Y038043D01*
X006034Y038043D01*
X004434Y038043D01*
X004434Y038793D01*
X006034Y038793D01*
X006034Y040593D01*
X005884Y040593D01*
X005884Y040743D02*
X006554Y040743D01*
X005884Y040293D02*
X005884Y039043D01*
X004584Y039043D01*
X004584Y040293D01*
X004584Y040593D02*
X004434Y040593D01*
X004434Y038793D01*
X004434Y038043D02*
X004224Y038043D01*
X004224Y040743D01*
X004584Y040743D01*
X004224Y040743D02*
X004224Y041743D01*
X004434Y041843D02*
X004434Y042843D01*
X006034Y042843D01*
X006034Y041843D01*
X004434Y041843D01*
X004644Y042193D02*
X005844Y042443D01*
X005794Y042493D02*
X004594Y042243D01*
X004671Y042119D02*
X004645Y042136D01*
X004622Y042155D01*
X004602Y042178D01*
X004585Y042202D01*
X004571Y042229D01*
X004560Y042258D01*
X004554Y042287D01*
X004551Y042317D01*
X004552Y042348D01*
X004557Y042377D01*
X004566Y042406D01*
X004579Y042434D01*
X004595Y042459D01*
X004614Y042483D01*
X004654Y042133D02*
X004702Y042097D01*
X004753Y042064D01*
X004805Y042034D01*
X004859Y042008D01*
X004915Y041985D01*
X004972Y041965D01*
X005030Y041949D01*
X005089Y041937D01*
X005149Y041929D01*
X005209Y041924D01*
X005269Y041923D01*
X005329Y041926D01*
X005389Y041933D01*
X005449Y041943D01*
X005507Y041957D01*
X005565Y041975D01*
X005621Y041996D01*
X005676Y042021D01*
X005729Y042049D01*
X005781Y042080D01*
X005830Y042115D01*
X005812Y042101D02*
X005834Y042123D01*
X005853Y042146D01*
X005869Y042172D01*
X005882Y042199D01*
X005892Y042228D01*
X005899Y042257D01*
X005903Y042288D01*
X005903Y042318D01*
X005899Y042348D01*
X005892Y042378D01*
X005882Y042406D01*
X005869Y042434D01*
X005853Y042459D01*
X005834Y042483D01*
X006404Y042843D02*
X008004Y042843D01*
X008004Y041843D01*
X006404Y041843D01*
X006404Y042843D01*
X006564Y042243D02*
X007764Y042493D01*
X007814Y042443D02*
X006614Y042193D01*
X006641Y042119D02*
X006615Y042136D01*
X006592Y042155D01*
X006572Y042178D01*
X006555Y042202D01*
X006541Y042229D01*
X006530Y042258D01*
X006524Y042287D01*
X006521Y042317D01*
X006522Y042348D01*
X006527Y042377D01*
X006536Y042406D01*
X006549Y042434D01*
X006565Y042459D01*
X006584Y042483D01*
X006624Y042133D02*
X006672Y042097D01*
X006723Y042064D01*
X006775Y042034D01*
X006829Y042008D01*
X006885Y041985D01*
X006942Y041965D01*
X007000Y041949D01*
X007059Y041937D01*
X007119Y041929D01*
X007179Y041924D01*
X007239Y041923D01*
X007299Y041926D01*
X007359Y041933D01*
X007419Y041943D01*
X007477Y041957D01*
X007535Y041975D01*
X007591Y041996D01*
X007646Y042021D01*
X007699Y042049D01*
X007751Y042080D01*
X007800Y042115D01*
X007782Y042101D02*
X007804Y042123D01*
X007823Y042146D01*
X007839Y042172D01*
X007852Y042199D01*
X007862Y042228D01*
X007869Y042257D01*
X007873Y042288D01*
X007873Y042318D01*
X007869Y042348D01*
X007862Y042378D01*
X007852Y042406D01*
X007839Y042434D01*
X007823Y042459D01*
X007804Y042483D01*
X008224Y042943D02*
X008224Y041743D01*
X007806Y042485D02*
X007769Y042525D01*
X007729Y042562D01*
X007687Y042597D01*
X007643Y042628D01*
X007597Y042657D01*
X007549Y042682D01*
X007499Y042704D01*
X007448Y042723D01*
X007396Y042739D01*
X007342Y042750D01*
X007289Y042758D01*
X007234Y042763D01*
X007180Y042764D01*
X007126Y042761D01*
X007071Y042755D01*
X007018Y042745D01*
X006965Y042731D01*
X006914Y042714D01*
X006863Y042693D01*
X006814Y042670D01*
X006767Y042642D01*
X006722Y042612D01*
X006679Y042579D01*
X006638Y042543D01*
X006599Y042504D01*
X006564Y042463D01*
X005836Y042485D02*
X005799Y042525D01*
X005759Y042562D01*
X005717Y042597D01*
X005673Y042628D01*
X005627Y042657D01*
X005579Y042682D01*
X005529Y042705D01*
X005478Y042723D01*
X005426Y042739D01*
X005372Y042750D01*
X005319Y042758D01*
X005264Y042763D01*
X005210Y042764D01*
X005155Y042761D01*
X005101Y042755D01*
X005048Y042745D01*
X004995Y042731D01*
X004944Y042714D01*
X004893Y042693D01*
X004844Y042670D01*
X004797Y042642D01*
X004752Y042612D01*
X004708Y042579D01*
X004668Y042543D01*
X004629Y042504D01*
X004594Y042463D01*
X000704Y041503D02*
X000706Y041570D01*
X000712Y041638D01*
X000722Y041705D01*
X000736Y041771D01*
X000753Y041836D01*
X000775Y041900D01*
X000800Y041963D01*
X000829Y042024D01*
X000861Y042083D01*
X000897Y042140D01*
X000936Y042195D01*
X000978Y042248D01*
X001023Y042298D01*
X001071Y042345D01*
X001122Y042390D01*
X001175Y042431D01*
X001231Y042470D01*
X001289Y042505D01*
X001349Y042536D01*
X001410Y042564D01*
X001473Y042588D01*
X001537Y042609D01*
X001603Y042625D01*
X001669Y042638D01*
X001736Y042647D01*
X001803Y042652D01*
X001871Y042653D01*
X001938Y042650D01*
X002005Y042643D01*
X002072Y042632D01*
X002138Y042617D01*
X002203Y042599D01*
X002267Y042576D01*
X002329Y042550D01*
X002390Y042521D01*
X002448Y042487D01*
X002505Y042451D01*
X002560Y042411D01*
X002612Y042368D01*
X002661Y042322D01*
X002708Y042273D01*
X002752Y042222D01*
X002792Y042168D01*
X002830Y042112D01*
X002864Y042053D01*
X002894Y041993D01*
X002921Y041931D01*
X002945Y041868D01*
X002964Y041803D01*
X002980Y041738D01*
X002992Y041671D01*
X003000Y041604D01*
X003004Y041537D01*
X003004Y041469D01*
X003000Y041402D01*
X002992Y041335D01*
X002980Y041268D01*
X002964Y041203D01*
X002945Y041138D01*
X002921Y041075D01*
X002894Y041013D01*
X002864Y040953D01*
X002830Y040894D01*
X002792Y040838D01*
X002752Y040784D01*
X002708Y040733D01*
X002661Y040684D01*
X002612Y040638D01*
X002560Y040595D01*
X002505Y040555D01*
X002448Y040519D01*
X002390Y040485D01*
X002329Y040456D01*
X002267Y040430D01*
X002203Y040407D01*
X002138Y040389D01*
X002072Y040374D01*
X002005Y040363D01*
X001938Y040356D01*
X001871Y040353D01*
X001803Y040354D01*
X001736Y040359D01*
X001669Y040368D01*
X001603Y040381D01*
X001537Y040397D01*
X001473Y040418D01*
X001410Y040442D01*
X001349Y040470D01*
X001289Y040501D01*
X001231Y040536D01*
X001175Y040575D01*
X001122Y040616D01*
X001071Y040661D01*
X001023Y040708D01*
X000978Y040758D01*
X000936Y040811D01*
X000897Y040866D01*
X000861Y040923D01*
X000829Y040982D01*
X000800Y041043D01*
X000775Y041106D01*
X000753Y041170D01*
X000736Y041235D01*
X000722Y041301D01*
X000712Y041368D01*
X000706Y041436D01*
X000704Y041503D01*
X006034Y038793D02*
X006034Y038043D01*
X006404Y038043D02*
X006404Y038793D01*
X009502Y039087D02*
X009502Y042387D01*
X009504Y042417D01*
X009509Y042447D01*
X009518Y042476D01*
X009531Y042503D01*
X009546Y042529D01*
X009565Y042553D01*
X009586Y042574D01*
X009610Y042593D01*
X009636Y042608D01*
X009663Y042621D01*
X009692Y042630D01*
X009722Y042635D01*
X009752Y042637D01*
X010352Y042637D01*
X010382Y042635D01*
X010412Y042630D01*
X010441Y042621D01*
X010468Y042608D01*
X010494Y042593D01*
X010518Y042574D01*
X010539Y042553D01*
X010558Y042529D01*
X010573Y042503D01*
X010586Y042476D01*
X010595Y042447D01*
X010600Y042417D01*
X010602Y042387D01*
X010602Y042087D01*
X010852Y039387D02*
X010850Y039357D01*
X010845Y039327D01*
X010836Y039298D01*
X010823Y039271D01*
X010808Y039245D01*
X010789Y039221D01*
X010768Y039200D01*
X010744Y039181D01*
X010718Y039166D01*
X010691Y039153D01*
X010662Y039144D01*
X010632Y039139D01*
X010602Y039137D01*
X007057Y034868D02*
X007057Y034608D01*
X006970Y034608D02*
X007144Y034608D01*
X006970Y034781D02*
X007057Y034868D01*
X006849Y034824D02*
X006806Y034868D01*
X006719Y034868D01*
X006676Y034824D01*
X006676Y034651D01*
X006719Y034608D01*
X006806Y034608D01*
X006849Y034651D01*
X006566Y034608D02*
X006479Y034608D01*
X006523Y034608D02*
X006523Y034868D01*
X006566Y034868D02*
X006479Y034868D01*
X010004Y026402D02*
X010004Y025502D01*
X010254Y025502D01*
X010254Y025952D01*
X010254Y026402D01*
X010004Y026402D01*
X008154Y025952D02*
X008156Y026038D01*
X008162Y026124D01*
X008173Y026209D01*
X008188Y026293D01*
X008206Y026377D01*
X008229Y026460D01*
X008256Y026542D01*
X008287Y026622D01*
X008322Y026700D01*
X008361Y026777D01*
X008403Y026852D01*
X008449Y026924D01*
X008498Y026994D01*
X008551Y027062D01*
X008607Y027127D01*
X008667Y027189D01*
X008729Y027249D01*
X008794Y027305D01*
X008862Y027358D01*
X008932Y027407D01*
X009004Y027453D01*
X009079Y027495D01*
X009156Y027534D01*
X009234Y027569D01*
X009314Y027600D01*
X009396Y027627D01*
X009479Y027650D01*
X009563Y027668D01*
X009647Y027683D01*
X009732Y027694D01*
X009818Y027700D01*
X009904Y027702D01*
X009990Y027700D01*
X010076Y027694D01*
X010161Y027683D01*
X010245Y027668D01*
X010329Y027650D01*
X010412Y027627D01*
X010494Y027600D01*
X010574Y027569D01*
X010652Y027534D01*
X010729Y027495D01*
X010804Y027453D01*
X010876Y027407D01*
X010946Y027358D01*
X011014Y027305D01*
X011079Y027249D01*
X011141Y027189D01*
X011201Y027127D01*
X011257Y027062D01*
X011310Y026994D01*
X011359Y026924D01*
X011405Y026852D01*
X011447Y026777D01*
X011486Y026700D01*
X011521Y026622D01*
X011552Y026542D01*
X011579Y026460D01*
X011602Y026377D01*
X011620Y026293D01*
X011635Y026209D01*
X011646Y026124D01*
X011652Y026038D01*
X011654Y025952D01*
X011652Y025866D01*
X011646Y025780D01*
X011635Y025695D01*
X011620Y025611D01*
X011602Y025527D01*
X011579Y025444D01*
X011552Y025362D01*
X011521Y025282D01*
X011486Y025204D01*
X011447Y025127D01*
X011405Y025052D01*
X011359Y024980D01*
X011310Y024910D01*
X011257Y024842D01*
X011201Y024777D01*
X011141Y024715D01*
X011079Y024655D01*
X011014Y024599D01*
X010946Y024546D01*
X010876Y024497D01*
X010804Y024451D01*
X010729Y024409D01*
X010652Y024370D01*
X010574Y024335D01*
X010494Y024304D01*
X010412Y024277D01*
X010329Y024254D01*
X010245Y024236D01*
X010161Y024221D01*
X010076Y024210D01*
X009990Y024204D01*
X009904Y024202D01*
X009818Y024204D01*
X009732Y024210D01*
X009647Y024221D01*
X009563Y024236D01*
X009479Y024254D01*
X009396Y024277D01*
X009314Y024304D01*
X009234Y024335D01*
X009156Y024370D01*
X009079Y024409D01*
X009004Y024451D01*
X008932Y024497D01*
X008862Y024546D01*
X008794Y024599D01*
X008729Y024655D01*
X008667Y024715D01*
X008607Y024777D01*
X008551Y024842D01*
X008498Y024910D01*
X008449Y024980D01*
X008403Y025052D01*
X008361Y025127D01*
X008322Y025204D01*
X008287Y025282D01*
X008256Y025362D01*
X008229Y025444D01*
X008206Y025527D01*
X008188Y025611D01*
X008173Y025695D01*
X008162Y025780D01*
X008156Y025866D01*
X008154Y025952D01*
X009454Y025952D02*
X009654Y025952D01*
X010254Y025952D02*
X010354Y025952D01*
X011054Y025302D02*
X011354Y025302D01*
X011204Y025152D02*
X011204Y025452D01*
X007258Y023479D02*
X007031Y023479D01*
X007144Y023479D02*
X007144Y023819D01*
X007031Y023706D01*
X006889Y023819D02*
X006662Y023479D01*
X006889Y023479D02*
X006662Y023819D01*
X000686Y022311D02*
X000688Y022378D01*
X000694Y022446D01*
X000704Y022513D01*
X000718Y022579D01*
X000735Y022644D01*
X000757Y022708D01*
X000782Y022771D01*
X000811Y022832D01*
X000843Y022891D01*
X000879Y022948D01*
X000918Y023003D01*
X000960Y023056D01*
X001005Y023106D01*
X001053Y023153D01*
X001104Y023198D01*
X001157Y023239D01*
X001213Y023278D01*
X001271Y023313D01*
X001331Y023344D01*
X001392Y023372D01*
X001455Y023396D01*
X001519Y023417D01*
X001585Y023433D01*
X001651Y023446D01*
X001718Y023455D01*
X001785Y023460D01*
X001853Y023461D01*
X001920Y023458D01*
X001987Y023451D01*
X002054Y023440D01*
X002120Y023425D01*
X002185Y023407D01*
X002249Y023384D01*
X002311Y023358D01*
X002372Y023329D01*
X002430Y023295D01*
X002487Y023259D01*
X002542Y023219D01*
X002594Y023176D01*
X002643Y023130D01*
X002690Y023081D01*
X002734Y023030D01*
X002774Y022976D01*
X002812Y022920D01*
X002846Y022861D01*
X002876Y022801D01*
X002903Y022739D01*
X002927Y022676D01*
X002946Y022611D01*
X002962Y022546D01*
X002974Y022479D01*
X002982Y022412D01*
X002986Y022345D01*
X002986Y022277D01*
X002982Y022210D01*
X002974Y022143D01*
X002962Y022076D01*
X002946Y022011D01*
X002927Y021946D01*
X002903Y021883D01*
X002876Y021821D01*
X002846Y021761D01*
X002812Y021702D01*
X002774Y021646D01*
X002734Y021592D01*
X002690Y021541D01*
X002643Y021492D01*
X002594Y021446D01*
X002542Y021403D01*
X002487Y021363D01*
X002430Y021327D01*
X002372Y021293D01*
X002311Y021264D01*
X002249Y021238D01*
X002185Y021215D01*
X002120Y021197D01*
X002054Y021182D01*
X001987Y021171D01*
X001920Y021164D01*
X001853Y021161D01*
X001785Y021162D01*
X001718Y021167D01*
X001651Y021176D01*
X001585Y021189D01*
X001519Y021205D01*
X001455Y021226D01*
X001392Y021250D01*
X001331Y021278D01*
X001271Y021309D01*
X001213Y021344D01*
X001157Y021383D01*
X001104Y021424D01*
X001053Y021469D01*
X001005Y021516D01*
X000960Y021566D01*
X000918Y021619D01*
X000879Y021674D01*
X000843Y021731D01*
X000811Y021790D01*
X000782Y021851D01*
X000757Y021914D01*
X000735Y021978D01*
X000718Y022043D01*
X000704Y022109D01*
X000694Y022176D01*
X000688Y022244D01*
X000686Y022311D01*
X037461Y018663D02*
X037463Y018730D01*
X037469Y018798D01*
X037479Y018865D01*
X037493Y018931D01*
X037510Y018996D01*
X037532Y019060D01*
X037557Y019123D01*
X037586Y019184D01*
X037618Y019243D01*
X037654Y019300D01*
X037693Y019355D01*
X037735Y019408D01*
X037780Y019458D01*
X037828Y019505D01*
X037879Y019550D01*
X037932Y019591D01*
X037988Y019630D01*
X038046Y019665D01*
X038106Y019696D01*
X038167Y019724D01*
X038230Y019748D01*
X038294Y019769D01*
X038360Y019785D01*
X038426Y019798D01*
X038493Y019807D01*
X038560Y019812D01*
X038628Y019813D01*
X038695Y019810D01*
X038762Y019803D01*
X038829Y019792D01*
X038895Y019777D01*
X038960Y019759D01*
X039024Y019736D01*
X039086Y019710D01*
X039147Y019681D01*
X039205Y019647D01*
X039262Y019611D01*
X039317Y019571D01*
X039369Y019528D01*
X039418Y019482D01*
X039465Y019433D01*
X039509Y019382D01*
X039549Y019328D01*
X039587Y019272D01*
X039621Y019213D01*
X039651Y019153D01*
X039678Y019091D01*
X039702Y019028D01*
X039721Y018963D01*
X039737Y018898D01*
X039749Y018831D01*
X039757Y018764D01*
X039761Y018697D01*
X039761Y018629D01*
X039757Y018562D01*
X039749Y018495D01*
X039737Y018428D01*
X039721Y018363D01*
X039702Y018298D01*
X039678Y018235D01*
X039651Y018173D01*
X039621Y018113D01*
X039587Y018054D01*
X039549Y017998D01*
X039509Y017944D01*
X039465Y017893D01*
X039418Y017844D01*
X039369Y017798D01*
X039317Y017755D01*
X039262Y017715D01*
X039205Y017679D01*
X039147Y017645D01*
X039086Y017616D01*
X039024Y017590D01*
X038960Y017567D01*
X038895Y017549D01*
X038829Y017534D01*
X038762Y017523D01*
X038695Y017516D01*
X038628Y017513D01*
X038560Y017514D01*
X038493Y017519D01*
X038426Y017528D01*
X038360Y017541D01*
X038294Y017557D01*
X038230Y017578D01*
X038167Y017602D01*
X038106Y017630D01*
X038046Y017661D01*
X037988Y017696D01*
X037932Y017735D01*
X037879Y017776D01*
X037828Y017821D01*
X037780Y017868D01*
X037735Y017918D01*
X037693Y017971D01*
X037654Y018026D01*
X037618Y018083D01*
X037586Y018142D01*
X037557Y018203D01*
X037532Y018266D01*
X037510Y018330D01*
X037493Y018395D01*
X037479Y018461D01*
X037469Y018528D01*
X037463Y018596D01*
X037461Y018663D01*
X065496Y038761D02*
X067046Y038761D01*
X068857Y041498D02*
X068859Y041565D01*
X068865Y041633D01*
X068875Y041700D01*
X068889Y041766D01*
X068906Y041831D01*
X068928Y041895D01*
X068953Y041958D01*
X068982Y042019D01*
X069014Y042078D01*
X069050Y042135D01*
X069089Y042190D01*
X069131Y042243D01*
X069176Y042293D01*
X069224Y042340D01*
X069275Y042385D01*
X069328Y042426D01*
X069384Y042465D01*
X069442Y042500D01*
X069502Y042531D01*
X069563Y042559D01*
X069626Y042583D01*
X069690Y042604D01*
X069756Y042620D01*
X069822Y042633D01*
X069889Y042642D01*
X069956Y042647D01*
X070024Y042648D01*
X070091Y042645D01*
X070158Y042638D01*
X070225Y042627D01*
X070291Y042612D01*
X070356Y042594D01*
X070420Y042571D01*
X070482Y042545D01*
X070543Y042516D01*
X070601Y042482D01*
X070658Y042446D01*
X070713Y042406D01*
X070765Y042363D01*
X070814Y042317D01*
X070861Y042268D01*
X070905Y042217D01*
X070945Y042163D01*
X070983Y042107D01*
X071017Y042048D01*
X071047Y041988D01*
X071074Y041926D01*
X071098Y041863D01*
X071117Y041798D01*
X071133Y041733D01*
X071145Y041666D01*
X071153Y041599D01*
X071157Y041532D01*
X071157Y041464D01*
X071153Y041397D01*
X071145Y041330D01*
X071133Y041263D01*
X071117Y041198D01*
X071098Y041133D01*
X071074Y041070D01*
X071047Y041008D01*
X071017Y040948D01*
X070983Y040889D01*
X070945Y040833D01*
X070905Y040779D01*
X070861Y040728D01*
X070814Y040679D01*
X070765Y040633D01*
X070713Y040590D01*
X070658Y040550D01*
X070601Y040514D01*
X070543Y040480D01*
X070482Y040451D01*
X070420Y040425D01*
X070356Y040402D01*
X070291Y040384D01*
X070225Y040369D01*
X070158Y040358D01*
X070091Y040351D01*
X070024Y040348D01*
X069956Y040349D01*
X069889Y040354D01*
X069822Y040363D01*
X069756Y040376D01*
X069690Y040392D01*
X069626Y040413D01*
X069563Y040437D01*
X069502Y040465D01*
X069442Y040496D01*
X069384Y040531D01*
X069328Y040570D01*
X069275Y040611D01*
X069224Y040656D01*
X069176Y040703D01*
X069131Y040753D01*
X069089Y040806D01*
X069050Y040861D01*
X069014Y040918D01*
X068982Y040977D01*
X068953Y041038D01*
X068928Y041101D01*
X068906Y041165D01*
X068889Y041230D01*
X068875Y041296D01*
X068865Y041363D01*
X068859Y041431D01*
X068857Y041498D01*
D15*
X069416Y041498D02*
X069418Y041546D01*
X069424Y041594D01*
X069434Y041641D01*
X069447Y041687D01*
X069465Y041732D01*
X069485Y041776D01*
X069510Y041818D01*
X069538Y041857D01*
X069568Y041894D01*
X069602Y041928D01*
X069639Y041960D01*
X069677Y041989D01*
X069718Y042014D01*
X069761Y042036D01*
X069806Y042054D01*
X069852Y042068D01*
X069899Y042079D01*
X069947Y042086D01*
X069995Y042089D01*
X070043Y042088D01*
X070091Y042083D01*
X070139Y042074D01*
X070185Y042062D01*
X070230Y042045D01*
X070274Y042025D01*
X070316Y042002D01*
X070356Y041975D01*
X070394Y041945D01*
X070429Y041912D01*
X070461Y041876D01*
X070491Y041838D01*
X070517Y041797D01*
X070539Y041754D01*
X070559Y041710D01*
X070574Y041665D01*
X070586Y041618D01*
X070594Y041570D01*
X070598Y041522D01*
X070598Y041474D01*
X070594Y041426D01*
X070586Y041378D01*
X070574Y041331D01*
X070559Y041286D01*
X070539Y041242D01*
X070517Y041199D01*
X070491Y041158D01*
X070461Y041120D01*
X070429Y041084D01*
X070394Y041051D01*
X070356Y041021D01*
X070316Y040994D01*
X070274Y040971D01*
X070230Y040951D01*
X070185Y040934D01*
X070139Y040922D01*
X070091Y040913D01*
X070043Y040908D01*
X069995Y040907D01*
X069947Y040910D01*
X069899Y040917D01*
X069852Y040928D01*
X069806Y040942D01*
X069761Y040960D01*
X069718Y040982D01*
X069677Y041007D01*
X069639Y041036D01*
X069602Y041068D01*
X069568Y041102D01*
X069538Y041139D01*
X069510Y041178D01*
X069485Y041220D01*
X069465Y041264D01*
X069447Y041309D01*
X069434Y041355D01*
X069424Y041402D01*
X069418Y041450D01*
X069416Y041498D01*
X062009Y034910D02*
X061589Y034910D01*
X061799Y034699D01*
X061799Y034980D01*
X061729Y034519D02*
X061659Y034519D01*
X061589Y034449D01*
X061589Y034309D01*
X061659Y034239D01*
X061659Y034059D02*
X061799Y034059D01*
X061869Y033989D01*
X061869Y033779D01*
X061869Y033919D02*
X062009Y034059D01*
X061939Y034239D02*
X062009Y034309D01*
X062009Y034449D01*
X061939Y034519D01*
X061869Y034519D01*
X061799Y034449D01*
X061799Y034379D01*
X061799Y034449D02*
X061729Y034519D01*
X061659Y034059D02*
X061589Y033989D01*
X061589Y033779D01*
X062009Y033779D01*
X061996Y031306D02*
X061996Y031026D01*
X061715Y031306D01*
X061645Y031306D01*
X061575Y031236D01*
X061575Y031096D01*
X061645Y031026D01*
X061645Y030846D02*
X061715Y030846D01*
X061785Y030776D01*
X061855Y030846D01*
X061926Y030846D01*
X061996Y030776D01*
X061996Y030636D01*
X061926Y030566D01*
X061996Y030386D02*
X061855Y030245D01*
X061855Y030315D02*
X061855Y030105D01*
X061996Y030105D02*
X061575Y030105D01*
X061575Y030315D01*
X061645Y030386D01*
X061785Y030386D01*
X061855Y030315D01*
X061645Y030566D02*
X061575Y030636D01*
X061575Y030776D01*
X061645Y030846D01*
X061785Y030776D02*
X061785Y030706D01*
X061654Y027560D02*
X061934Y027279D01*
X062004Y027349D01*
X062004Y027490D01*
X061934Y027560D01*
X061654Y027560D01*
X061584Y027490D01*
X061584Y027349D01*
X061654Y027279D01*
X061934Y027279D01*
X061934Y027099D02*
X062004Y027029D01*
X062004Y026889D01*
X061934Y026819D01*
X062004Y026639D02*
X061864Y026499D01*
X061864Y026569D02*
X061864Y026359D01*
X062004Y026359D02*
X061584Y026359D01*
X061584Y026569D01*
X061654Y026639D01*
X061794Y026639D01*
X061864Y026569D01*
X061654Y026819D02*
X061584Y026889D01*
X061584Y027029D01*
X061654Y027099D01*
X061724Y027099D01*
X061794Y027029D01*
X061864Y027099D01*
X061934Y027099D01*
X061794Y027029D02*
X061794Y026959D01*
X061730Y023511D02*
X061660Y023511D01*
X061590Y023441D01*
X061590Y023301D01*
X061660Y023231D01*
X061730Y023231D01*
X061800Y023301D01*
X061800Y023441D01*
X061870Y023511D01*
X061940Y023511D01*
X062010Y023441D01*
X062010Y023301D01*
X061940Y023231D01*
X061870Y023231D01*
X061800Y023301D01*
X061800Y023441D02*
X061730Y023511D01*
X061730Y023051D02*
X061660Y023051D01*
X061590Y022981D01*
X061590Y022841D01*
X061660Y022771D01*
X061660Y022590D02*
X061800Y022590D01*
X061870Y022520D01*
X061870Y022310D01*
X061870Y022450D02*
X062010Y022590D01*
X062010Y022771D02*
X061730Y023051D01*
X062010Y023051D02*
X062010Y022771D01*
X061660Y022590D02*
X061590Y022520D01*
X061590Y022310D01*
X062010Y022310D01*
X069422Y022300D02*
X069424Y022348D01*
X069430Y022396D01*
X069440Y022443D01*
X069453Y022489D01*
X069471Y022534D01*
X069491Y022578D01*
X069516Y022620D01*
X069544Y022659D01*
X069574Y022696D01*
X069608Y022730D01*
X069645Y022762D01*
X069683Y022791D01*
X069724Y022816D01*
X069767Y022838D01*
X069812Y022856D01*
X069858Y022870D01*
X069905Y022881D01*
X069953Y022888D01*
X070001Y022891D01*
X070049Y022890D01*
X070097Y022885D01*
X070145Y022876D01*
X070191Y022864D01*
X070236Y022847D01*
X070280Y022827D01*
X070322Y022804D01*
X070362Y022777D01*
X070400Y022747D01*
X070435Y022714D01*
X070467Y022678D01*
X070497Y022640D01*
X070523Y022599D01*
X070545Y022556D01*
X070565Y022512D01*
X070580Y022467D01*
X070592Y022420D01*
X070600Y022372D01*
X070604Y022324D01*
X070604Y022276D01*
X070600Y022228D01*
X070592Y022180D01*
X070580Y022133D01*
X070565Y022088D01*
X070545Y022044D01*
X070523Y022001D01*
X070497Y021960D01*
X070467Y021922D01*
X070435Y021886D01*
X070400Y021853D01*
X070362Y021823D01*
X070322Y021796D01*
X070280Y021773D01*
X070236Y021753D01*
X070191Y021736D01*
X070145Y021724D01*
X070097Y021715D01*
X070049Y021710D01*
X070001Y021709D01*
X069953Y021712D01*
X069905Y021719D01*
X069858Y021730D01*
X069812Y021744D01*
X069767Y021762D01*
X069724Y021784D01*
X069683Y021809D01*
X069645Y021838D01*
X069608Y021870D01*
X069574Y021904D01*
X069544Y021941D01*
X069516Y021980D01*
X069491Y022022D01*
X069471Y022066D01*
X069453Y022111D01*
X069440Y022157D01*
X069430Y022204D01*
X069424Y022252D01*
X069422Y022300D01*
X051585Y028914D02*
X051427Y028757D01*
X047963Y028757D01*
X047805Y028914D01*
X047805Y032379D01*
X047963Y032536D01*
X051427Y032536D01*
X051585Y032379D01*
X051585Y028914D01*
X046530Y028363D02*
X046530Y027863D01*
X046398Y027863D02*
X046398Y028363D01*
X046148Y028613D01*
X044648Y028613D01*
X044398Y028863D01*
X044398Y029363D01*
X044648Y029613D01*
X046148Y029613D01*
X046398Y029863D01*
X046398Y030363D01*
X046148Y030613D01*
X044648Y030613D01*
X044398Y030363D01*
X044398Y029863D01*
X044648Y029613D01*
X044648Y028613D02*
X044398Y028363D01*
X044398Y027863D01*
X044648Y027613D01*
X046148Y027613D01*
X046398Y027863D01*
X046148Y028613D02*
X046398Y028863D01*
X046398Y029363D01*
X046148Y029613D01*
X043983Y030423D02*
X043983Y037442D01*
X043981Y037470D01*
X043976Y037499D01*
X043967Y037526D01*
X043955Y037553D01*
X043940Y037577D01*
X043922Y037600D01*
X043902Y037620D01*
X043879Y037638D01*
X043855Y037653D01*
X043828Y037665D01*
X043801Y037673D01*
X043772Y037678D01*
X043743Y037680D01*
X043743Y037681D02*
X038003Y037681D01*
X037975Y037683D01*
X037948Y037682D01*
X037921Y037677D01*
X037895Y037670D01*
X037870Y037659D01*
X037846Y037645D01*
X037824Y037629D01*
X037805Y037610D01*
X037788Y037589D01*
X037773Y037566D01*
X037761Y037541D01*
X037753Y037515D01*
X037747Y037489D01*
X037763Y030423D01*
X037765Y030394D01*
X037770Y030366D01*
X037779Y030338D01*
X037790Y030311D01*
X037805Y030287D01*
X037823Y030264D01*
X037844Y030243D01*
X037867Y030225D01*
X037891Y030210D01*
X037918Y030199D01*
X037946Y030190D01*
X037974Y030185D01*
X038003Y030183D01*
X043743Y030183D01*
X043772Y030185D01*
X043800Y030190D01*
X043828Y030199D01*
X043855Y030210D01*
X043879Y030225D01*
X043902Y030243D01*
X043923Y030264D01*
X043941Y030287D01*
X043956Y030311D01*
X043967Y030338D01*
X043976Y030366D01*
X043981Y030394D01*
X043983Y030423D01*
X037489Y030422D02*
X037489Y037442D01*
X037488Y037442D02*
X037486Y037470D01*
X037481Y037499D01*
X037472Y037526D01*
X037460Y037553D01*
X037445Y037577D01*
X037427Y037600D01*
X037407Y037620D01*
X037384Y037638D01*
X037360Y037653D01*
X037333Y037665D01*
X037306Y037673D01*
X037277Y037678D01*
X037248Y037680D01*
X037249Y037680D02*
X031508Y037680D01*
X031508Y037681D02*
X031480Y037683D01*
X031453Y037682D01*
X031426Y037677D01*
X031400Y037670D01*
X031375Y037659D01*
X031351Y037645D01*
X031329Y037629D01*
X031310Y037610D01*
X031293Y037589D01*
X031278Y037566D01*
X031266Y037541D01*
X031258Y037515D01*
X031252Y037489D01*
X031253Y037488D02*
X031268Y030422D01*
X031270Y030393D01*
X031275Y030365D01*
X031284Y030337D01*
X031295Y030310D01*
X031310Y030286D01*
X031328Y030263D01*
X031349Y030242D01*
X031372Y030224D01*
X031396Y030209D01*
X031423Y030198D01*
X031451Y030189D01*
X031479Y030184D01*
X031508Y030182D01*
X037249Y030182D01*
X037278Y030184D01*
X037306Y030189D01*
X037334Y030198D01*
X037361Y030209D01*
X037385Y030224D01*
X037408Y030242D01*
X037429Y030263D01*
X037447Y030286D01*
X037462Y030310D01*
X037473Y030337D01*
X037482Y030365D01*
X037487Y030393D01*
X037489Y030422D01*
X032190Y029635D02*
X032190Y023895D01*
X032188Y023866D01*
X032183Y023838D01*
X032174Y023810D01*
X032163Y023783D01*
X032148Y023759D01*
X032130Y023736D01*
X032109Y023715D01*
X032086Y023697D01*
X032062Y023682D01*
X032035Y023671D01*
X032007Y023662D01*
X031979Y023657D01*
X031950Y023655D01*
X024884Y023639D01*
X024858Y023645D01*
X024832Y023653D01*
X024807Y023665D01*
X024784Y023680D01*
X024763Y023697D01*
X024744Y023716D01*
X024728Y023738D01*
X024714Y023762D01*
X024703Y023787D01*
X024696Y023813D01*
X024691Y023840D01*
X024690Y023867D01*
X024692Y023895D01*
X024692Y029635D01*
X024694Y029664D01*
X024699Y029693D01*
X024707Y029720D01*
X024719Y029747D01*
X024734Y029771D01*
X024752Y029794D01*
X024772Y029814D01*
X024795Y029832D01*
X024819Y029847D01*
X024846Y029859D01*
X024873Y029868D01*
X024902Y029873D01*
X024930Y029875D01*
X031950Y029875D01*
X031979Y029873D01*
X032007Y029868D01*
X032035Y029859D01*
X032062Y029848D01*
X032086Y029833D01*
X032109Y029815D01*
X032130Y029794D01*
X032148Y029771D01*
X032163Y029747D01*
X032174Y029720D01*
X032183Y029692D01*
X032188Y029664D01*
X032190Y029635D01*
X031006Y030435D02*
X031006Y037454D01*
X031005Y037454D02*
X031003Y037482D01*
X030998Y037511D01*
X030989Y037538D01*
X030977Y037565D01*
X030962Y037589D01*
X030944Y037612D01*
X030924Y037632D01*
X030901Y037650D01*
X030877Y037665D01*
X030850Y037677D01*
X030823Y037685D01*
X030794Y037690D01*
X030765Y037692D01*
X030766Y037693D02*
X025025Y037693D01*
X025026Y037693D02*
X024998Y037695D01*
X024971Y037694D01*
X024944Y037689D01*
X024918Y037682D01*
X024893Y037671D01*
X024869Y037657D01*
X024847Y037641D01*
X024828Y037622D01*
X024811Y037601D01*
X024796Y037578D01*
X024784Y037553D01*
X024776Y037527D01*
X024770Y037501D01*
X024770Y037500D02*
X024785Y030435D01*
X024787Y030406D01*
X024792Y030378D01*
X024801Y030350D01*
X024812Y030323D01*
X024827Y030299D01*
X024845Y030276D01*
X024866Y030255D01*
X024889Y030237D01*
X024913Y030222D01*
X024940Y030211D01*
X024968Y030202D01*
X024996Y030197D01*
X025025Y030195D01*
X030766Y030195D01*
X030795Y030197D01*
X030823Y030202D01*
X030851Y030211D01*
X030878Y030222D01*
X030902Y030237D01*
X030925Y030255D01*
X030946Y030276D01*
X030964Y030299D01*
X030979Y030323D01*
X030990Y030350D01*
X030999Y030378D01*
X031004Y030406D01*
X031006Y030435D01*
X042387Y022750D02*
X042707Y022750D01*
X042707Y022856D02*
X042707Y022643D01*
X042494Y022643D02*
X042387Y022750D01*
X042387Y022488D02*
X042387Y022275D01*
X042387Y022381D02*
X042707Y022381D01*
X042707Y022120D02*
X042387Y022120D01*
X042387Y021906D02*
X042707Y022120D01*
X042707Y021906D02*
X042387Y021906D01*
X042494Y021751D02*
X042707Y021751D01*
X042547Y021751D02*
X042547Y021538D01*
X042494Y021538D02*
X042387Y021645D01*
X042494Y021751D01*
X042494Y021538D02*
X042707Y021538D01*
X045748Y021284D02*
X045748Y021070D01*
X045802Y021017D01*
X045909Y021017D01*
X045962Y021070D01*
X046117Y021017D02*
X046117Y021337D01*
X046330Y021017D01*
X046330Y021337D01*
X046485Y021284D02*
X046538Y021337D01*
X046645Y021337D01*
X046699Y021284D01*
X046699Y021230D01*
X046485Y021017D01*
X046699Y021017D01*
X045962Y021284D02*
X045909Y021337D01*
X045802Y021337D01*
X045748Y021284D01*
X045382Y023733D02*
X044962Y023733D01*
X044962Y023943D01*
X045032Y024013D01*
X045172Y024013D01*
X045242Y023943D01*
X045242Y023733D01*
X045242Y023873D02*
X045382Y024013D01*
X045382Y024193D02*
X044962Y024193D01*
X045382Y024473D01*
X044962Y024473D01*
X045102Y024654D02*
X044962Y024794D01*
X045382Y024794D01*
X045382Y024654D02*
X045382Y024934D01*
X046029Y024357D02*
X046132Y024460D01*
X046132Y024150D01*
X046029Y024150D02*
X046236Y024150D01*
X038020Y018663D02*
X038022Y018711D01*
X038028Y018759D01*
X038038Y018806D01*
X038051Y018852D01*
X038069Y018897D01*
X038089Y018941D01*
X038114Y018983D01*
X038142Y019022D01*
X038172Y019059D01*
X038206Y019093D01*
X038243Y019125D01*
X038281Y019154D01*
X038322Y019179D01*
X038365Y019201D01*
X038410Y019219D01*
X038456Y019233D01*
X038503Y019244D01*
X038551Y019251D01*
X038599Y019254D01*
X038647Y019253D01*
X038695Y019248D01*
X038743Y019239D01*
X038789Y019227D01*
X038834Y019210D01*
X038878Y019190D01*
X038920Y019167D01*
X038960Y019140D01*
X038998Y019110D01*
X039033Y019077D01*
X039065Y019041D01*
X039095Y019003D01*
X039121Y018962D01*
X039143Y018919D01*
X039163Y018875D01*
X039178Y018830D01*
X039190Y018783D01*
X039198Y018735D01*
X039202Y018687D01*
X039202Y018639D01*
X039198Y018591D01*
X039190Y018543D01*
X039178Y018496D01*
X039163Y018451D01*
X039143Y018407D01*
X039121Y018364D01*
X039095Y018323D01*
X039065Y018285D01*
X039033Y018249D01*
X038998Y018216D01*
X038960Y018186D01*
X038920Y018159D01*
X038878Y018136D01*
X038834Y018116D01*
X038789Y018099D01*
X038743Y018087D01*
X038695Y018078D01*
X038647Y018073D01*
X038599Y018072D01*
X038551Y018075D01*
X038503Y018082D01*
X038456Y018093D01*
X038410Y018107D01*
X038365Y018125D01*
X038322Y018147D01*
X038281Y018172D01*
X038243Y018201D01*
X038206Y018233D01*
X038172Y018267D01*
X038142Y018304D01*
X038114Y018343D01*
X038089Y018385D01*
X038069Y018429D01*
X038051Y018474D01*
X038038Y018520D01*
X038028Y018567D01*
X038022Y018615D01*
X038020Y018663D01*
X012688Y031943D02*
X012408Y031943D01*
X012548Y031943D02*
X012548Y032364D01*
X012408Y032224D01*
X012228Y032294D02*
X012158Y032364D01*
X011948Y032364D01*
X011948Y031943D01*
X012158Y031943D01*
X012228Y032013D01*
X012228Y032294D01*
X011768Y032364D02*
X011487Y032364D01*
X011487Y031943D01*
X011768Y031943D01*
X011627Y032154D02*
X011487Y032154D01*
X011307Y031943D02*
X011027Y031943D01*
X011027Y032364D01*
X008564Y034153D02*
X005984Y034153D01*
X005984Y035453D01*
X008564Y035453D01*
X008564Y034153D01*
X005209Y033883D02*
X005209Y033253D01*
X005052Y033095D01*
X004619Y033095D01*
X003832Y033095D02*
X003241Y033095D01*
X003241Y034040D01*
X003832Y034040D01*
X003796Y034152D02*
X003726Y034222D01*
X003796Y034152D02*
X003936Y034152D01*
X004006Y034222D01*
X004006Y034362D01*
X003936Y034432D01*
X003866Y034432D01*
X003726Y034362D01*
X003726Y034572D01*
X004006Y034572D01*
X003865Y034806D02*
X003274Y034806D01*
X003274Y035751D01*
X003865Y035751D01*
X003969Y035863D02*
X003969Y036283D01*
X003759Y036073D01*
X004039Y036073D01*
X003579Y036213D02*
X003509Y036283D01*
X003369Y036283D01*
X003299Y036213D01*
X003299Y035933D01*
X003369Y035863D01*
X003509Y035863D01*
X003579Y035933D01*
X002642Y035988D02*
X002642Y036199D01*
X002572Y036269D01*
X002292Y036269D01*
X002222Y036199D01*
X002222Y035988D01*
X002642Y035988D01*
X002642Y035808D02*
X002642Y035528D01*
X002222Y035528D01*
X002222Y035808D01*
X002432Y035668D02*
X002432Y035528D01*
X002642Y035348D02*
X002642Y035068D01*
X002222Y035068D01*
X003265Y034502D02*
X003335Y034572D01*
X003475Y034572D01*
X003545Y034502D01*
X003265Y034502D02*
X003265Y034222D01*
X003335Y034152D01*
X003475Y034152D01*
X003545Y034222D01*
X004619Y034040D02*
X005052Y034040D01*
X005209Y033883D01*
X005085Y034806D02*
X004652Y034806D01*
X005085Y034806D02*
X005243Y034964D01*
X005243Y035594D01*
X005085Y035751D01*
X004652Y035751D01*
X002642Y036449D02*
X002362Y036729D01*
X002292Y036729D01*
X002222Y036659D01*
X002222Y036519D01*
X002292Y036449D01*
X002642Y036449D02*
X002642Y036729D01*
X001976Y037061D02*
X001556Y037061D01*
X001556Y037341D01*
X001696Y037521D02*
X001556Y037661D01*
X001976Y037661D01*
X001976Y037521D02*
X001976Y037802D01*
X001766Y037201D02*
X001766Y037061D01*
X008914Y040662D02*
X009074Y040502D01*
X009394Y040502D01*
X009154Y040502D02*
X009154Y040822D01*
X009074Y040822D02*
X009394Y040822D01*
X009314Y041018D02*
X009394Y041098D01*
X009394Y041258D01*
X009314Y041338D01*
X008994Y041338D02*
X008914Y041258D01*
X008914Y041098D01*
X008994Y041018D01*
X009314Y041018D01*
X009074Y040822D02*
X008914Y040662D01*
X001263Y041503D02*
X001265Y041551D01*
X001271Y041599D01*
X001281Y041646D01*
X001294Y041692D01*
X001312Y041737D01*
X001332Y041781D01*
X001357Y041823D01*
X001385Y041862D01*
X001415Y041899D01*
X001449Y041933D01*
X001486Y041965D01*
X001524Y041994D01*
X001565Y042019D01*
X001608Y042041D01*
X001653Y042059D01*
X001699Y042073D01*
X001746Y042084D01*
X001794Y042091D01*
X001842Y042094D01*
X001890Y042093D01*
X001938Y042088D01*
X001986Y042079D01*
X002032Y042067D01*
X002077Y042050D01*
X002121Y042030D01*
X002163Y042007D01*
X002203Y041980D01*
X002241Y041950D01*
X002276Y041917D01*
X002308Y041881D01*
X002338Y041843D01*
X002364Y041802D01*
X002386Y041759D01*
X002406Y041715D01*
X002421Y041670D01*
X002433Y041623D01*
X002441Y041575D01*
X002445Y041527D01*
X002445Y041479D01*
X002441Y041431D01*
X002433Y041383D01*
X002421Y041336D01*
X002406Y041291D01*
X002386Y041247D01*
X002364Y041204D01*
X002338Y041163D01*
X002308Y041125D01*
X002276Y041089D01*
X002241Y041056D01*
X002203Y041026D01*
X002163Y040999D01*
X002121Y040976D01*
X002077Y040956D01*
X002032Y040939D01*
X001986Y040927D01*
X001938Y040918D01*
X001890Y040913D01*
X001842Y040912D01*
X001794Y040915D01*
X001746Y040922D01*
X001699Y040933D01*
X001653Y040947D01*
X001608Y040965D01*
X001565Y040987D01*
X001524Y041012D01*
X001486Y041041D01*
X001449Y041073D01*
X001415Y041107D01*
X001385Y041144D01*
X001357Y041183D01*
X001332Y041225D01*
X001312Y041269D01*
X001294Y041314D01*
X001281Y041360D01*
X001271Y041407D01*
X001265Y041455D01*
X001263Y041503D01*
X009607Y028346D02*
X009817Y028346D01*
X009887Y028276D01*
X009887Y027995D01*
X009817Y027925D01*
X009607Y027925D01*
X009607Y028346D01*
X010067Y028205D02*
X010208Y028346D01*
X010208Y027925D01*
X010348Y027925D02*
X010067Y027925D01*
X001245Y022311D02*
X001247Y022359D01*
X001253Y022407D01*
X001263Y022454D01*
X001276Y022500D01*
X001294Y022545D01*
X001314Y022589D01*
X001339Y022631D01*
X001367Y022670D01*
X001397Y022707D01*
X001431Y022741D01*
X001468Y022773D01*
X001506Y022802D01*
X001547Y022827D01*
X001590Y022849D01*
X001635Y022867D01*
X001681Y022881D01*
X001728Y022892D01*
X001776Y022899D01*
X001824Y022902D01*
X001872Y022901D01*
X001920Y022896D01*
X001968Y022887D01*
X002014Y022875D01*
X002059Y022858D01*
X002103Y022838D01*
X002145Y022815D01*
X002185Y022788D01*
X002223Y022758D01*
X002258Y022725D01*
X002290Y022689D01*
X002320Y022651D01*
X002346Y022610D01*
X002368Y022567D01*
X002388Y022523D01*
X002403Y022478D01*
X002415Y022431D01*
X002423Y022383D01*
X002427Y022335D01*
X002427Y022287D01*
X002423Y022239D01*
X002415Y022191D01*
X002403Y022144D01*
X002388Y022099D01*
X002368Y022055D01*
X002346Y022012D01*
X002320Y021971D01*
X002290Y021933D01*
X002258Y021897D01*
X002223Y021864D01*
X002185Y021834D01*
X002145Y021807D01*
X002103Y021784D01*
X002059Y021764D01*
X002014Y021747D01*
X001968Y021735D01*
X001920Y021726D01*
X001872Y021721D01*
X001824Y021720D01*
X001776Y021723D01*
X001728Y021730D01*
X001681Y021741D01*
X001635Y021755D01*
X001590Y021773D01*
X001547Y021795D01*
X001506Y021820D01*
X001468Y021849D01*
X001431Y021881D01*
X001397Y021915D01*
X001367Y021952D01*
X001339Y021991D01*
X001314Y022033D01*
X001294Y022077D01*
X001276Y022122D01*
X001263Y022168D01*
X001253Y022215D01*
X001247Y022263D01*
X001245Y022311D01*
X025511Y001986D02*
X025565Y002039D01*
X025618Y002039D01*
X025672Y001986D01*
X025725Y002039D01*
X025778Y002039D01*
X025832Y001986D01*
X025832Y001879D01*
X025778Y001826D01*
X025672Y001932D02*
X025672Y001986D01*
X025511Y001986D02*
X025511Y001879D01*
X025565Y001826D01*
X025511Y001671D02*
X025511Y001457D01*
X025511Y001564D02*
X025832Y001564D01*
X025832Y001303D02*
X025511Y001303D01*
X025511Y001089D02*
X025832Y001303D01*
X025832Y001089D02*
X025511Y001089D01*
X025618Y000934D02*
X025832Y000934D01*
X025672Y000934D02*
X025672Y000721D01*
X025618Y000721D02*
X025511Y000827D01*
X025618Y000934D01*
X025618Y000721D02*
X025832Y000721D01*
X065388Y000838D02*
X065495Y000945D01*
X065709Y000945D01*
X065709Y001100D02*
X065388Y001100D01*
X065709Y001313D01*
X065388Y001313D01*
X065388Y001468D02*
X065388Y001682D01*
X065388Y001575D02*
X065709Y001575D01*
X065709Y001837D02*
X065495Y002050D01*
X065442Y002050D01*
X065388Y001997D01*
X065388Y001890D01*
X065442Y001837D01*
X065709Y001837D02*
X065709Y002050D01*
X065549Y000945D02*
X065549Y000732D01*
X065495Y000732D02*
X065388Y000838D01*
X065495Y000732D02*
X065709Y000732D01*
X051218Y034317D02*
X051078Y034317D01*
X051008Y034387D01*
X050828Y034387D02*
X050828Y034668D01*
X050758Y034738D01*
X050548Y034738D01*
X050548Y034317D01*
X050758Y034317D01*
X050828Y034387D01*
X051008Y034668D02*
X051078Y034738D01*
X051218Y034738D01*
X051288Y034668D01*
X051288Y034598D01*
X051218Y034527D01*
X051288Y034457D01*
X051288Y034387D01*
X051218Y034317D01*
X051218Y034527D02*
X051148Y034527D01*
X050368Y034317D02*
X050087Y034317D01*
X050087Y034738D01*
X050368Y034738D01*
X050228Y034527D02*
X050087Y034527D01*
X049907Y034317D02*
X049627Y034317D01*
X049627Y034738D01*
X049857Y035198D02*
X050172Y035198D01*
X050172Y035434D01*
X050172Y036064D02*
X050172Y036300D01*
X049857Y036300D01*
D16*
X047940Y035970D02*
X047895Y036015D01*
X047850Y036015D01*
X047805Y035970D01*
X047805Y035835D01*
X047895Y035835D01*
X047940Y035880D01*
X047940Y035970D01*
X047805Y035835D02*
X047715Y035925D01*
X047670Y036015D01*
X047715Y035721D02*
X047670Y035675D01*
X047670Y035585D01*
X047715Y035540D01*
X047895Y035540D01*
X047940Y035585D01*
X047940Y035675D01*
X047895Y035721D01*
X047813Y035529D02*
X047633Y035529D01*
X047588Y035484D01*
X047588Y035394D01*
X047633Y035349D01*
X047678Y035349D01*
X047723Y035394D01*
X047723Y035529D01*
X047813Y035529D02*
X047858Y035484D01*
X047858Y035394D01*
X047813Y035349D01*
X047858Y035234D02*
X047858Y035054D01*
X047858Y035144D02*
X047588Y035144D01*
X047678Y035054D01*
X047633Y034939D02*
X047588Y034894D01*
X047588Y034804D01*
X047633Y034759D01*
X047813Y034759D01*
X047858Y034804D01*
X047858Y034894D01*
X047813Y034939D01*
X045576Y035556D02*
X045576Y035646D01*
X045531Y035691D01*
X045576Y035806D02*
X045576Y035986D01*
X045576Y035896D02*
X045305Y035896D01*
X045395Y035806D01*
X045350Y035691D02*
X045305Y035646D01*
X045305Y035556D01*
X045350Y035511D01*
X045531Y035511D01*
X045576Y035556D01*
X045531Y036100D02*
X045486Y036100D01*
X045441Y036145D01*
X045441Y036235D01*
X045486Y036280D01*
X045531Y036280D01*
X045576Y036235D01*
X045576Y036145D01*
X045531Y036100D01*
X045441Y036145D02*
X045395Y036100D01*
X045350Y036100D01*
X045305Y036145D01*
X045305Y036235D01*
X045350Y036280D01*
X045395Y036280D01*
X045441Y036235D01*
X044265Y037254D02*
X044239Y037256D01*
X044214Y037261D01*
X044190Y037269D01*
X044167Y037280D01*
X044145Y037295D01*
X044126Y037312D01*
X044109Y037331D01*
X044094Y037353D01*
X044083Y037376D01*
X044075Y037400D01*
X044070Y037425D01*
X044068Y037451D01*
X044069Y037451D02*
X044069Y039814D01*
X044068Y039814D02*
X044070Y039840D01*
X044075Y039865D01*
X044083Y039889D01*
X044094Y039913D01*
X044109Y039934D01*
X044126Y039953D01*
X044145Y039970D01*
X044167Y039985D01*
X044190Y039996D01*
X044214Y040004D01*
X044239Y040009D01*
X044265Y040011D01*
X042779Y040187D02*
X042753Y040189D01*
X042728Y040194D01*
X042704Y040202D01*
X042681Y040213D01*
X042659Y040228D01*
X042640Y040245D01*
X042623Y040264D01*
X042608Y040286D01*
X042597Y040309D01*
X042589Y040333D01*
X042584Y040358D01*
X042582Y040384D01*
X042582Y042747D01*
X042584Y042773D01*
X042589Y042798D01*
X042597Y042822D01*
X042608Y042846D01*
X042623Y042867D01*
X042640Y042886D01*
X042659Y042903D01*
X042681Y042918D01*
X042704Y042929D01*
X042728Y042937D01*
X042753Y042942D01*
X042779Y042944D01*
X039170Y041336D02*
X039170Y041261D01*
X039095Y041186D01*
X038945Y041186D01*
X038870Y041261D01*
X038870Y041336D01*
X038945Y041411D01*
X039095Y041411D01*
X039170Y041336D01*
X039095Y041186D02*
X039170Y041111D01*
X039170Y041036D01*
X039095Y040961D01*
X038945Y040961D01*
X038870Y041036D01*
X038870Y041111D01*
X038945Y041186D01*
X037170Y041336D02*
X036870Y041036D01*
X036870Y040961D01*
X036870Y041411D02*
X037170Y041411D01*
X037170Y041336D01*
X035240Y041411D02*
X035090Y041336D01*
X034940Y041186D01*
X035165Y041186D01*
X035240Y041111D01*
X035240Y041036D01*
X035165Y040961D01*
X035015Y040961D01*
X034940Y041036D01*
X034940Y041186D01*
X033240Y041186D02*
X033240Y041036D01*
X033165Y040961D01*
X033015Y040961D01*
X032940Y041036D01*
X032940Y041186D02*
X033090Y041261D01*
X033165Y041261D01*
X033240Y041186D01*
X033240Y041411D02*
X032940Y041411D01*
X032940Y041186D01*
X031290Y041186D02*
X030990Y041186D01*
X031215Y041411D01*
X031215Y040961D01*
X029290Y041036D02*
X029215Y040961D01*
X029065Y040961D01*
X028990Y041036D01*
X029140Y041186D02*
X029215Y041186D01*
X029290Y041111D01*
X029290Y041036D01*
X029215Y041186D02*
X029290Y041261D01*
X029290Y041336D01*
X029215Y041411D01*
X029065Y041411D01*
X028990Y041336D01*
X027360Y041336D02*
X027285Y041411D01*
X027135Y041411D01*
X027060Y041336D01*
X027360Y041336D02*
X027360Y041261D01*
X027060Y040961D01*
X027360Y040961D01*
X025360Y040961D02*
X025060Y040961D01*
X025210Y040961D02*
X025210Y041411D01*
X025060Y041261D01*
X010024Y034052D02*
X009979Y034097D01*
X009888Y034097D01*
X009843Y034052D01*
X009729Y034052D02*
X009729Y033962D01*
X009684Y033917D01*
X009549Y033917D01*
X009639Y033917D02*
X009729Y033827D01*
X009843Y033827D02*
X010024Y034007D01*
X010024Y034052D01*
X010024Y033827D02*
X009843Y033827D01*
X009729Y034052D02*
X009684Y034097D01*
X009549Y034097D01*
X009549Y033827D01*
X007677Y031866D02*
X007677Y026551D01*
X000393Y026551D01*
X000393Y031866D01*
X007677Y031866D01*
X009636Y030396D02*
X009636Y030216D01*
X009681Y030171D01*
X009771Y030171D01*
X009816Y030216D01*
X009930Y030216D02*
X009975Y030171D01*
X010065Y030171D01*
X010110Y030216D01*
X010110Y030261D01*
X010065Y030306D01*
X010020Y030306D01*
X010065Y030306D02*
X010110Y030351D01*
X010110Y030396D01*
X010065Y030441D01*
X009975Y030441D01*
X009930Y030396D01*
X009816Y030396D02*
X009771Y030441D01*
X009681Y030441D01*
X009636Y030396D01*
X004375Y033168D02*
X004375Y033968D01*
X004409Y034879D02*
X004409Y035679D01*
X002004Y033980D02*
X002004Y033890D01*
X001959Y033845D01*
X002004Y033731D02*
X001914Y033640D01*
X001914Y033685D02*
X001914Y033550D01*
X002004Y033550D02*
X001733Y033550D01*
X001733Y033685D01*
X001779Y033731D01*
X001869Y033731D01*
X001914Y033685D01*
X001779Y033845D02*
X001733Y033890D01*
X001733Y033980D01*
X001779Y034025D01*
X001824Y034025D01*
X001869Y033980D01*
X001914Y034025D01*
X001959Y034025D01*
X002004Y033980D01*
X001869Y033980D02*
X001869Y033935D01*
X004479Y041018D02*
X004780Y041018D01*
X004630Y041018D02*
X004630Y041469D01*
X004479Y041319D01*
X006479Y041394D02*
X006554Y041469D01*
X006705Y041469D01*
X006780Y041394D01*
X006780Y041319D01*
X006479Y041018D01*
X006780Y041018D01*
X004972Y024526D02*
X005017Y024481D01*
X005017Y024391D01*
X004972Y024346D01*
X004882Y024346D02*
X004837Y024436D01*
X004837Y024481D01*
X004882Y024526D01*
X004972Y024526D01*
X004882Y024346D02*
X004747Y024346D01*
X004747Y024526D01*
X004792Y024231D02*
X004882Y024231D01*
X004927Y024186D01*
X004927Y024051D01*
X005017Y024051D02*
X004747Y024051D01*
X004747Y024186D01*
X004792Y024231D01*
X004927Y024141D02*
X005017Y024231D01*
X003477Y024248D02*
X003387Y024158D01*
X003387Y024203D02*
X003387Y024068D01*
X003477Y024068D02*
X003207Y024068D01*
X003207Y024203D01*
X003252Y024248D01*
X003342Y024248D01*
X003387Y024203D01*
X003342Y024362D02*
X003342Y024542D01*
X003477Y024497D02*
X003207Y024497D01*
X003342Y024362D01*
X021648Y013056D02*
X021648Y012756D01*
X021648Y012906D02*
X021198Y012906D01*
X021348Y012756D01*
X021198Y012596D02*
X021648Y012295D01*
X021648Y012596D02*
X021198Y012295D01*
X021198Y012135D02*
X021198Y011835D01*
X021198Y011985D02*
X021648Y011985D01*
X029768Y021809D02*
X029918Y021809D01*
X029993Y021885D01*
X029993Y022260D01*
X030154Y022185D02*
X030229Y022260D01*
X030379Y022260D01*
X030454Y022185D01*
X030614Y022185D02*
X030689Y022260D01*
X030839Y022260D01*
X030914Y022185D01*
X030914Y022110D01*
X030614Y021809D01*
X030914Y021809D01*
X030454Y021885D02*
X030454Y021960D01*
X030379Y022035D01*
X030229Y022035D01*
X030154Y022110D01*
X030154Y022185D01*
X030304Y022335D02*
X030304Y021734D01*
X030379Y021809D02*
X030454Y021885D01*
X030379Y021809D02*
X030229Y021809D01*
X030154Y021885D01*
X029768Y021809D02*
X029693Y021885D01*
X029693Y022260D01*
X036425Y022951D02*
X036425Y023222D01*
X036560Y023222D01*
X036605Y023177D01*
X036605Y023087D01*
X036560Y023042D01*
X036425Y023042D01*
X036515Y023042D02*
X036605Y022951D01*
X036720Y022951D02*
X036900Y023132D01*
X036900Y023177D01*
X036855Y023222D01*
X036765Y023222D01*
X036720Y023177D01*
X036720Y022951D02*
X036900Y022951D01*
X037014Y022997D02*
X037194Y023177D01*
X037194Y022997D01*
X037149Y022951D01*
X037059Y022951D01*
X037014Y022997D01*
X037014Y023177D01*
X037059Y023222D01*
X037149Y023222D01*
X037194Y023177D01*
X036954Y026328D02*
X036954Y026373D01*
X037135Y026553D01*
X037135Y026598D01*
X036954Y026598D01*
X036750Y026598D02*
X036750Y026328D01*
X036660Y026328D02*
X036840Y026328D01*
X036660Y026508D02*
X036750Y026598D01*
X036545Y026553D02*
X036545Y026463D01*
X036500Y026418D01*
X036365Y026418D01*
X036365Y026328D02*
X036365Y026598D01*
X036500Y026598D01*
X036545Y026553D01*
X036455Y026418D02*
X036545Y026328D01*
X042662Y026353D02*
X042662Y026623D01*
X042797Y026623D01*
X042842Y026578D01*
X042842Y026488D01*
X042797Y026443D01*
X042662Y026443D01*
X042752Y026443D02*
X042842Y026353D01*
X042957Y026353D02*
X043137Y026353D01*
X043047Y026353D02*
X043047Y026623D01*
X042957Y026533D01*
X043251Y026533D02*
X043251Y026578D01*
X043296Y026623D01*
X043387Y026623D01*
X043432Y026578D01*
X043432Y026533D01*
X043387Y026488D01*
X043296Y026488D01*
X043251Y026533D01*
X043296Y026488D02*
X043251Y026443D01*
X043251Y026398D01*
X043296Y026353D01*
X043387Y026353D01*
X043432Y026398D01*
X043432Y026443D01*
X043387Y026488D01*
X047911Y027508D02*
X047911Y027779D01*
X048046Y027779D01*
X048091Y027734D01*
X048091Y027643D01*
X048046Y027598D01*
X047911Y027598D01*
X048001Y027598D02*
X048091Y027508D01*
X048206Y027553D02*
X048251Y027508D01*
X048341Y027508D01*
X048386Y027553D01*
X048386Y027598D01*
X048341Y027643D01*
X048206Y027643D01*
X048206Y027553D01*
X048206Y027643D02*
X048296Y027734D01*
X048386Y027779D01*
X045264Y031403D02*
X045264Y031448D01*
X045444Y031628D01*
X045444Y031673D01*
X045264Y031673D01*
X045149Y031628D02*
X045104Y031673D01*
X045014Y031673D01*
X044969Y031628D01*
X044969Y031448D01*
X045014Y031403D01*
X045104Y031403D01*
X045149Y031448D01*
X051943Y035899D02*
X051943Y036169D01*
X052078Y036169D01*
X052123Y036124D01*
X052123Y036034D01*
X052078Y035989D01*
X051943Y035989D01*
X052033Y035989D02*
X052123Y035899D01*
X052238Y035899D02*
X052418Y035899D01*
X052328Y035899D02*
X052328Y036169D01*
X052238Y036079D01*
X052532Y036034D02*
X052623Y036079D01*
X052668Y036079D01*
X052713Y036034D01*
X052713Y035944D01*
X052668Y035899D01*
X052577Y035899D01*
X052532Y035944D01*
X052532Y036034D02*
X052532Y036169D01*
X052713Y036169D01*
X052697Y036777D02*
X052877Y036777D01*
X052787Y036777D02*
X052787Y037048D01*
X052697Y036958D01*
X052582Y037003D02*
X052582Y036913D01*
X052537Y036868D01*
X052402Y036868D01*
X052492Y036868D02*
X052582Y036777D01*
X052402Y036777D02*
X052402Y037048D01*
X052537Y037048D01*
X052582Y037003D01*
X052992Y036913D02*
X053172Y036913D01*
X053127Y037048D02*
X052992Y036913D01*
X053127Y037048D02*
X053127Y036777D01*
X055312Y035427D02*
X055357Y035472D01*
X055402Y035472D01*
X055447Y035427D01*
X055492Y035472D01*
X055537Y035472D01*
X055582Y035427D01*
X055582Y035337D01*
X055537Y035292D01*
X055537Y035177D02*
X055582Y035132D01*
X055582Y035042D01*
X055537Y034997D01*
X055582Y034883D02*
X055492Y034793D01*
X055492Y034838D02*
X055492Y034703D01*
X055582Y034703D02*
X055312Y034703D01*
X055312Y034838D01*
X055357Y034883D01*
X055447Y034883D01*
X055492Y034838D01*
X055357Y034997D02*
X055312Y035042D01*
X055312Y035132D01*
X055357Y035177D01*
X055402Y035177D01*
X055447Y035132D01*
X055492Y035177D01*
X055537Y035177D01*
X055447Y035132D02*
X055447Y035087D01*
X055357Y035292D02*
X055312Y035337D01*
X055312Y035427D01*
X055447Y035427D02*
X055447Y035382D01*
X056076Y037254D02*
X056102Y037256D01*
X056127Y037261D01*
X056151Y037269D01*
X056175Y037280D01*
X056196Y037295D01*
X056215Y037312D01*
X056232Y037331D01*
X056247Y037353D01*
X056258Y037376D01*
X056266Y037400D01*
X056271Y037425D01*
X056273Y037451D01*
X056273Y039814D01*
X056393Y039942D02*
X056393Y037580D01*
X056395Y037554D01*
X056400Y037529D01*
X056408Y037505D01*
X056419Y037482D01*
X056434Y037460D01*
X056451Y037441D01*
X056470Y037424D01*
X056492Y037409D01*
X056515Y037398D01*
X056539Y037390D01*
X056564Y037385D01*
X056590Y037383D01*
X056273Y039814D02*
X056271Y039840D01*
X056266Y039865D01*
X056258Y039889D01*
X056247Y039913D01*
X056232Y039934D01*
X056215Y039953D01*
X056196Y039970D01*
X056175Y039985D01*
X056151Y039996D01*
X056127Y040004D01*
X056102Y040009D01*
X056076Y040011D01*
X056393Y039942D02*
X056395Y039968D01*
X056400Y039993D01*
X056408Y040017D01*
X056419Y040041D01*
X056434Y040062D01*
X056451Y040081D01*
X056470Y040098D01*
X056492Y040113D01*
X056515Y040124D01*
X056539Y040132D01*
X056564Y040137D01*
X056590Y040139D01*
X055176Y040256D02*
X055150Y040258D01*
X055125Y040263D01*
X055101Y040271D01*
X055078Y040282D01*
X055056Y040297D01*
X055037Y040314D01*
X055020Y040333D01*
X055005Y040355D01*
X054994Y040378D01*
X054986Y040402D01*
X054981Y040427D01*
X054979Y040453D01*
X054979Y042816D01*
X054981Y042842D01*
X054986Y042867D01*
X054994Y042891D01*
X055005Y042915D01*
X055020Y042936D01*
X055037Y042955D01*
X055056Y042972D01*
X055078Y042987D01*
X055101Y042998D01*
X055125Y043006D01*
X055150Y043011D01*
X055176Y043013D01*
X054787Y042747D02*
X054787Y040384D01*
X054785Y040358D01*
X054780Y040333D01*
X054772Y040309D01*
X054761Y040286D01*
X054746Y040264D01*
X054729Y040245D01*
X054710Y040228D01*
X054689Y040213D01*
X054665Y040202D01*
X054641Y040194D01*
X054616Y040189D01*
X054590Y040187D01*
X054787Y042747D02*
X054785Y042773D01*
X054780Y042798D01*
X054772Y042822D01*
X054761Y042846D01*
X054746Y042867D01*
X054729Y042886D01*
X054710Y042903D01*
X054689Y042918D01*
X054665Y042929D01*
X054641Y042937D01*
X054616Y042942D01*
X054590Y042944D01*
X064776Y036454D02*
X064956Y036454D01*
X064866Y036454D02*
X064866Y036184D01*
X065071Y036319D02*
X065251Y036319D01*
X065206Y036184D02*
X065206Y036454D01*
X065071Y036319D01*
X068401Y037383D02*
X068427Y037385D01*
X068452Y037390D01*
X068476Y037398D01*
X068500Y037409D01*
X068521Y037424D01*
X068540Y037441D01*
X068557Y037460D01*
X068572Y037482D01*
X068583Y037505D01*
X068591Y037529D01*
X068596Y037554D01*
X068598Y037580D01*
X068598Y039942D01*
X068596Y039968D01*
X068591Y039993D01*
X068583Y040017D01*
X068572Y040041D01*
X068557Y040062D01*
X068540Y040081D01*
X068521Y040098D01*
X068500Y040113D01*
X068476Y040124D01*
X068452Y040132D01*
X068427Y040137D01*
X068401Y040139D01*
X067184Y040453D02*
X067184Y042816D01*
X067182Y042842D01*
X067177Y042867D01*
X067169Y042891D01*
X067158Y042915D01*
X067143Y042936D01*
X067126Y042955D01*
X067107Y042972D01*
X067086Y042987D01*
X067062Y042998D01*
X067038Y043006D01*
X067013Y043011D01*
X066987Y043013D01*
X067184Y040453D02*
X067182Y040427D01*
X067177Y040402D01*
X067169Y040378D01*
X067158Y040355D01*
X067143Y040333D01*
X067126Y040314D01*
X067107Y040297D01*
X067086Y040282D01*
X067062Y040271D01*
X067038Y040263D01*
X067013Y040258D01*
X066987Y040256D01*
X065249Y032037D02*
X065294Y031992D01*
X065294Y031947D01*
X065249Y031902D01*
X065294Y031857D01*
X065294Y031812D01*
X065249Y031767D01*
X065159Y031767D01*
X065114Y031812D01*
X065204Y031902D02*
X065249Y031902D01*
X065249Y032037D02*
X065159Y032037D01*
X065114Y031992D01*
X065000Y032037D02*
X064819Y032037D01*
X064909Y032037D02*
X064909Y031767D01*
X064937Y027643D02*
X064937Y027373D01*
X065141Y027373D02*
X065322Y027553D01*
X065322Y027598D01*
X065277Y027643D01*
X065186Y027643D01*
X065141Y027598D01*
X065027Y027643D02*
X064847Y027643D01*
X065141Y027373D02*
X065322Y027373D01*
X064028Y022809D02*
X064028Y022629D01*
X064028Y022719D02*
X063758Y022719D01*
X063848Y022629D01*
X063758Y022515D02*
X063758Y022334D01*
X063758Y022424D02*
X064028Y022424D01*
X055546Y023476D02*
X055276Y023476D01*
X055276Y023611D01*
X055321Y023656D01*
X055411Y023656D01*
X055456Y023611D01*
X055456Y023476D01*
X055456Y023566D02*
X055546Y023656D01*
X055546Y023770D02*
X055366Y023950D01*
X055321Y023950D01*
X055276Y023905D01*
X055276Y023815D01*
X055321Y023770D01*
X055546Y023770D02*
X055546Y023950D01*
X055546Y024065D02*
X055501Y024065D01*
X055321Y024245D01*
X055276Y024245D01*
X055276Y024065D01*
X055322Y027035D02*
X055322Y027170D01*
X055367Y027215D01*
X055457Y027215D01*
X055502Y027170D01*
X055502Y027035D01*
X055592Y027035D02*
X055322Y027035D01*
X055502Y027125D02*
X055592Y027215D01*
X055592Y027330D02*
X055412Y027510D01*
X055367Y027510D01*
X055322Y027465D01*
X055322Y027375D01*
X055367Y027330D01*
X055592Y027330D02*
X055592Y027510D01*
X055547Y027625D02*
X055592Y027670D01*
X055592Y027760D01*
X055547Y027805D01*
X055367Y027805D01*
X055322Y027760D01*
X055322Y027670D01*
X055367Y027625D01*
X055412Y027625D01*
X055457Y027670D01*
X055457Y027805D01*
X055478Y030786D02*
X055478Y030922D01*
X055433Y030967D01*
X055343Y030967D01*
X055298Y030922D01*
X055298Y030786D01*
X055568Y030786D01*
X055478Y030877D02*
X055568Y030967D01*
X055523Y031081D02*
X055568Y031126D01*
X055568Y031216D01*
X055523Y031261D01*
X055478Y031261D01*
X055433Y031216D01*
X055433Y031171D01*
X055433Y031216D02*
X055388Y031261D01*
X055343Y031261D01*
X055298Y031216D01*
X055298Y031126D01*
X055343Y031081D01*
X055388Y031376D02*
X055298Y031466D01*
X055568Y031466D01*
X055568Y031376D02*
X055568Y031556D01*
X043412Y023167D02*
X043367Y023212D01*
X043277Y023212D01*
X043232Y023167D01*
X043232Y023122D01*
X043277Y023077D01*
X043412Y023077D01*
X043412Y022987D02*
X043412Y023167D01*
X043412Y022987D02*
X043367Y022942D01*
X043277Y022942D01*
X043232Y022987D01*
X043117Y022942D02*
X042937Y022942D01*
X043027Y022942D02*
X043027Y023212D01*
X042937Y023122D01*
X042823Y023077D02*
X042778Y023032D01*
X042643Y023032D01*
X042733Y023032D02*
X042823Y022942D01*
X042823Y023077D02*
X042823Y023167D01*
X042778Y023212D01*
X042643Y023212D01*
X042643Y022942D01*
X061075Y013067D02*
X061525Y012767D01*
X061525Y013067D02*
X061075Y012767D01*
X061075Y012607D02*
X061075Y012306D01*
X061075Y012456D02*
X061525Y012456D01*
D17*
X002304Y035722D02*
X002304Y038972D01*
X002179Y039097D01*
X000929Y039097D01*
X000804Y038972D01*
X000804Y035722D01*
X000929Y035597D01*
X002179Y035597D01*
X002304Y035722D01*
D18*
X009702Y040137D02*
X009702Y042137D01*
X009852Y041137D02*
X009852Y040137D01*
X010252Y040137D02*
X010252Y039137D01*
X010402Y038137D02*
X010402Y040137D01*
X066976Y035846D02*
X066976Y033846D01*
X067126Y033846D02*
X067126Y034846D01*
X067526Y033846D02*
X067526Y032846D01*
X067676Y031846D02*
X067676Y033846D01*
X069179Y033811D02*
X069179Y035811D01*
X069329Y034811D02*
X069329Y033811D01*
X069729Y033811D02*
X069729Y032811D01*
X069879Y031811D02*
X069879Y033811D01*
X069183Y029588D02*
X069183Y027588D01*
X069333Y027588D02*
X069333Y028588D01*
X069733Y027588D02*
X069733Y026588D01*
X069883Y027588D02*
X069883Y025588D01*
X067652Y025594D02*
X067652Y027594D01*
X067502Y027594D02*
X067502Y026594D01*
X067102Y027594D02*
X067102Y028594D01*
X066952Y029594D02*
X066952Y027594D01*
D19*
X067002Y027530D02*
X067068Y027463D01*
X067068Y027263D01*
X067068Y027396D02*
X067202Y027530D01*
X067202Y027723D02*
X067202Y027990D01*
X067202Y027857D02*
X066802Y027857D01*
X066935Y027723D01*
X066868Y027530D02*
X067002Y027530D01*
X066868Y027530D02*
X066802Y027463D01*
X066802Y027263D01*
X067202Y027263D01*
X067202Y028184D02*
X067202Y028451D01*
X067202Y028317D02*
X066802Y028317D01*
X066935Y028184D01*
X069033Y028245D02*
X069033Y028378D01*
X069100Y028445D01*
X069367Y028178D01*
X069433Y028245D01*
X069433Y028378D01*
X069367Y028445D01*
X069100Y028445D01*
X069033Y028245D02*
X069100Y028178D01*
X069367Y028178D01*
X069433Y027984D02*
X069433Y027718D01*
X069433Y027851D02*
X069033Y027851D01*
X069166Y027718D01*
X069100Y027524D02*
X069233Y027524D01*
X069300Y027457D01*
X069300Y027257D01*
X069433Y027257D02*
X069033Y027257D01*
X069033Y027457D01*
X069100Y027524D01*
X069300Y027391D02*
X069433Y027524D01*
X069629Y032861D02*
X069629Y033061D01*
X069695Y033128D01*
X069829Y033128D01*
X069895Y033061D01*
X069895Y032861D01*
X069895Y032994D02*
X070029Y033128D01*
X070029Y033321D02*
X070029Y033588D01*
X070029Y033455D02*
X069629Y033455D01*
X069762Y033321D01*
X069695Y033782D02*
X069629Y033849D01*
X069629Y033982D01*
X069695Y034049D01*
X069762Y034049D01*
X070029Y033782D01*
X070029Y034049D01*
X070029Y032861D02*
X069629Y032861D01*
X067826Y032896D02*
X067426Y032896D01*
X067426Y033096D01*
X067493Y033163D01*
X067626Y033163D01*
X067693Y033096D01*
X067693Y032896D01*
X067693Y033029D02*
X067826Y033163D01*
X067826Y033356D02*
X067826Y033623D01*
X067826Y033490D02*
X067426Y033490D01*
X067560Y033356D01*
X067493Y033817D02*
X067426Y033883D01*
X067426Y034017D01*
X067493Y034084D01*
X067560Y034084D01*
X067626Y034017D01*
X067693Y034084D01*
X067760Y034084D01*
X067826Y034017D01*
X067826Y033883D01*
X067760Y033817D01*
X067626Y033950D02*
X067626Y034017D01*
X059625Y034483D02*
X059625Y034616D01*
X059558Y034683D01*
X059292Y034683D01*
X059225Y034616D01*
X059225Y034483D01*
X059292Y034416D01*
X059558Y034416D01*
X059625Y034483D01*
X059625Y034876D02*
X059225Y034876D01*
X059425Y034943D02*
X059625Y035143D01*
X059625Y035337D02*
X059558Y035337D01*
X059292Y035604D01*
X059225Y035604D01*
X059225Y035337D01*
X059225Y035143D02*
X059492Y034876D01*
X059535Y031693D02*
X059468Y031627D01*
X059468Y031427D01*
X059602Y031427D01*
X059669Y031493D01*
X059669Y031627D01*
X059602Y031693D01*
X059535Y031693D01*
X059335Y031560D02*
X059468Y031427D01*
X059335Y031560D02*
X059268Y031693D01*
X059268Y031233D02*
X059535Y030966D01*
X059468Y031033D02*
X059669Y031233D01*
X059669Y030966D02*
X059268Y030966D01*
X059335Y030773D02*
X059268Y030706D01*
X059268Y030573D01*
X059335Y030506D01*
X059602Y030506D01*
X059669Y030573D01*
X059669Y030706D01*
X059602Y030773D01*
X059335Y030773D01*
X059406Y027821D02*
X059540Y027821D01*
X059606Y027754D01*
X059606Y027621D01*
X059540Y027554D01*
X059406Y027554D02*
X059339Y027688D01*
X059339Y027754D01*
X059406Y027821D01*
X059206Y027821D02*
X059206Y027554D01*
X059406Y027554D01*
X059206Y027361D02*
X059473Y027094D01*
X059406Y027160D02*
X059606Y027361D01*
X059606Y027094D02*
X059206Y027094D01*
X059273Y026900D02*
X059206Y026834D01*
X059206Y026700D01*
X059273Y026633D01*
X059540Y026633D01*
X059606Y026700D01*
X059606Y026834D01*
X059540Y026900D01*
X059273Y026900D01*
X059434Y023976D02*
X059434Y023710D01*
X059234Y023910D01*
X059634Y023910D01*
X059634Y023516D02*
X059434Y023316D01*
X059501Y023249D02*
X059234Y023516D01*
X059234Y023249D02*
X059634Y023249D01*
X059568Y023056D02*
X059301Y023056D01*
X059234Y022989D01*
X059234Y022856D01*
X059301Y022789D01*
X059568Y022789D01*
X059634Y022856D01*
X059634Y022989D01*
X059568Y023056D01*
X053579Y023325D02*
X053579Y022575D01*
X045579Y022575D01*
X045579Y023325D01*
X053579Y023325D01*
X053579Y022575D02*
X053579Y020825D01*
X045579Y020825D01*
X045579Y022575D01*
X041721Y024989D02*
X041654Y024922D01*
X041521Y024922D01*
X041454Y024989D01*
X041588Y025123D02*
X041654Y025123D01*
X041721Y025056D01*
X041721Y024989D01*
X041654Y025123D02*
X041721Y025189D01*
X041721Y025256D01*
X041654Y025323D01*
X041521Y025323D01*
X041454Y025256D01*
X041261Y025323D02*
X040994Y025056D01*
X041060Y025123D02*
X041261Y024922D01*
X040994Y024922D02*
X040994Y025323D01*
X040800Y025256D02*
X040800Y024989D01*
X040734Y024922D01*
X040600Y024922D01*
X040533Y024989D01*
X040533Y025256D01*
X040600Y025323D01*
X040734Y025323D01*
X040800Y025256D01*
X040749Y028226D02*
X040815Y028293D01*
X040815Y028560D01*
X040749Y028626D01*
X040615Y028626D01*
X040548Y028560D01*
X040548Y028293D01*
X040615Y028226D01*
X040749Y028226D01*
X041009Y028226D02*
X041009Y028626D01*
X041076Y028426D02*
X041276Y028226D01*
X041469Y028226D02*
X041736Y028493D01*
X041736Y028560D01*
X041669Y028626D01*
X041536Y028626D01*
X041469Y028560D01*
X041276Y028626D02*
X041009Y028359D01*
X041469Y028226D02*
X041736Y028226D01*
X035526Y028210D02*
X035259Y028210D01*
X035393Y028210D02*
X035393Y028610D01*
X035259Y028477D01*
X035066Y028610D02*
X034799Y028343D01*
X034866Y028410D02*
X035066Y028210D01*
X034799Y028210D02*
X034799Y028610D01*
X034605Y028543D02*
X034539Y028610D01*
X034405Y028610D01*
X034339Y028543D01*
X034339Y028276D01*
X034405Y028210D01*
X034539Y028210D01*
X034605Y028276D01*
X034605Y028543D01*
X034536Y025309D02*
X034402Y025309D01*
X034336Y025243D01*
X034336Y024976D01*
X034402Y024909D01*
X034536Y024909D01*
X034603Y024976D01*
X034603Y025243D01*
X034536Y025309D01*
X034796Y025309D02*
X034796Y024909D01*
X034796Y025042D02*
X035063Y025309D01*
X035257Y025243D02*
X035257Y025176D01*
X035323Y025109D01*
X035457Y025109D01*
X035523Y025042D01*
X035523Y024976D01*
X035457Y024909D01*
X035323Y024909D01*
X035257Y024976D01*
X035257Y025042D01*
X035323Y025109D01*
X035457Y025109D02*
X035523Y025176D01*
X035523Y025243D01*
X035457Y025309D01*
X035323Y025309D01*
X035257Y025243D01*
X035063Y024909D02*
X034863Y025109D01*
X025692Y025990D02*
X025291Y025990D01*
X025492Y026056D02*
X025692Y026256D01*
X025492Y026450D02*
X025492Y026717D01*
X025692Y026650D02*
X025291Y026650D01*
X025492Y026450D01*
X025291Y026256D02*
X025558Y025990D01*
X028519Y017715D02*
X028519Y017448D01*
X028519Y017581D02*
X028119Y017581D01*
X028252Y017448D01*
X028119Y017254D02*
X028519Y017254D01*
X028119Y016987D01*
X028519Y016987D01*
X028453Y016794D02*
X028186Y016794D01*
X028119Y016727D01*
X028119Y016594D01*
X028186Y016527D01*
X028453Y016527D01*
X028519Y016594D01*
X028519Y016727D01*
X028453Y016794D01*
X028586Y016333D02*
X028586Y016067D01*
X028319Y015740D02*
X028319Y015606D01*
X028119Y015606D02*
X028119Y015873D01*
X028119Y015606D02*
X028519Y015606D01*
X023826Y016973D02*
X023826Y017240D01*
X023826Y017106D02*
X023426Y017106D01*
X023559Y016973D01*
X023493Y017433D02*
X023426Y017500D01*
X023426Y017634D01*
X023493Y017700D01*
X023760Y017433D01*
X023826Y017500D01*
X023826Y017634D01*
X023760Y017700D01*
X023493Y017700D01*
X023493Y017433D02*
X023760Y017433D01*
X019108Y017387D02*
X019108Y017120D01*
X019108Y017253D02*
X018708Y017253D01*
X018841Y017120D01*
X018775Y017580D02*
X018708Y017647D01*
X018708Y017780D01*
X018775Y017847D01*
X018841Y017847D01*
X018908Y017780D01*
X018975Y017847D01*
X019041Y017847D01*
X019108Y017780D01*
X019108Y017647D01*
X019041Y017580D01*
X018908Y017714D02*
X018908Y017780D01*
X014260Y017693D02*
X014260Y017826D01*
X014193Y017893D01*
X014127Y017893D01*
X014060Y017826D01*
X014060Y017626D01*
X014193Y017626D01*
X014260Y017693D01*
X014060Y017626D02*
X013926Y017759D01*
X013860Y017893D01*
X013860Y017299D02*
X014260Y017299D01*
X014260Y017166D02*
X014260Y017432D01*
X013993Y017166D02*
X013860Y017299D01*
X009761Y017293D02*
X009360Y017293D01*
X009494Y017160D01*
X009761Y017160D02*
X009761Y017427D01*
X009694Y017620D02*
X009761Y017687D01*
X009761Y017820D01*
X009694Y017887D01*
X009427Y017887D01*
X009360Y017820D01*
X009360Y017687D01*
X009427Y017620D01*
X009494Y017620D01*
X009560Y017687D01*
X009560Y017887D01*
X009618Y020803D02*
X006618Y020803D01*
X006618Y022553D01*
X009618Y022553D01*
X009618Y020803D01*
X009618Y022553D02*
X009618Y023303D01*
X006618Y023303D01*
X006618Y022553D01*
X024877Y012419D02*
X024877Y012019D01*
X025077Y012019D01*
X025143Y012085D01*
X025143Y012352D01*
X025077Y012419D01*
X024877Y012419D01*
X025337Y012352D02*
X025337Y012085D01*
X025404Y012019D01*
X025537Y012019D01*
X025604Y012085D01*
X025604Y012352D01*
X025537Y012419D01*
X025404Y012419D01*
X025337Y012352D01*
X025797Y012419D02*
X025797Y012019D01*
X025931Y012152D01*
X026064Y012019D01*
X026064Y012419D01*
X026258Y012419D02*
X026525Y012019D01*
X026525Y012419D01*
X026718Y012285D02*
X026852Y012419D01*
X026852Y012019D01*
X026985Y012019D02*
X026718Y012019D01*
X026258Y012019D02*
X026258Y012419D01*
X023817Y010962D02*
X023817Y010696D01*
X023817Y010829D02*
X023416Y010829D01*
X023550Y010696D01*
X023817Y010502D02*
X023817Y010235D01*
X023817Y010369D02*
X023416Y010369D01*
X023550Y010235D01*
X019160Y010253D02*
X019160Y010520D01*
X019160Y010386D02*
X018760Y010386D01*
X018894Y010253D01*
X018960Y010713D02*
X018960Y010980D01*
X018760Y010913D02*
X018960Y010713D01*
X019160Y010913D02*
X018760Y010913D01*
X014277Y010689D02*
X014210Y010689D01*
X013943Y010956D01*
X013876Y010956D01*
X013876Y010689D01*
X013876Y010362D02*
X014277Y010362D01*
X014277Y010495D02*
X014277Y010228D01*
X014010Y010228D02*
X013876Y010362D01*
X011389Y004403D02*
X011456Y004336D01*
X011456Y004203D01*
X011389Y004136D01*
X011323Y004136D01*
X011256Y004203D01*
X011256Y004336D01*
X011323Y004403D01*
X011389Y004403D01*
X011256Y004336D02*
X011189Y004403D01*
X011123Y004403D01*
X011056Y004336D01*
X011056Y004203D01*
X011123Y004136D01*
X011189Y004136D01*
X011256Y004203D01*
X011456Y003943D02*
X011456Y003676D01*
X011456Y003809D02*
X011056Y003809D01*
X011189Y003676D01*
X015785Y003722D02*
X016186Y003722D01*
X016186Y003589D02*
X016186Y003856D01*
X016119Y004049D02*
X016186Y004116D01*
X016186Y004249D01*
X016119Y004316D01*
X015985Y004316D01*
X015919Y004249D01*
X015919Y004183D01*
X015985Y004049D01*
X015785Y004049D01*
X015785Y004316D01*
X015785Y003722D02*
X015919Y003589D01*
X020535Y003791D02*
X020936Y003791D01*
X020936Y003658D02*
X020936Y003925D01*
X020936Y004118D02*
X020669Y004385D01*
X020602Y004385D01*
X020535Y004319D01*
X020535Y004185D01*
X020602Y004118D01*
X020535Y003791D02*
X020669Y003658D01*
X020936Y004118D02*
X020936Y004385D01*
X025208Y004635D02*
X025274Y004568D01*
X025541Y004568D01*
X025608Y004635D01*
X025608Y004768D01*
X025541Y004835D01*
X025274Y004835D01*
X025208Y004768D01*
X025208Y004635D01*
X025208Y005028D02*
X025208Y005295D01*
X025208Y005489D02*
X025208Y005756D01*
X025341Y005949D02*
X025208Y006083D01*
X025608Y006083D01*
X025608Y006216D02*
X025608Y005949D01*
X025408Y005622D02*
X025408Y005489D01*
X025608Y005489D02*
X025208Y005489D01*
X025408Y005162D02*
X025408Y005028D01*
X025608Y005028D02*
X025208Y005028D01*
X025675Y004375D02*
X025675Y004108D01*
X025408Y003781D02*
X025408Y003647D01*
X025608Y003647D02*
X025208Y003647D01*
X025208Y003914D01*
X028661Y009129D02*
X028795Y009129D01*
X028862Y009196D01*
X028862Y009530D01*
X029055Y009530D02*
X029255Y009530D01*
X029322Y009463D01*
X029322Y009330D01*
X029255Y009263D01*
X029055Y009263D01*
X029055Y009129D02*
X029055Y009530D01*
X028595Y009530D02*
X028595Y009196D01*
X028661Y009129D01*
X029516Y009129D02*
X029782Y009129D01*
X029649Y009129D02*
X029649Y009530D01*
X029516Y009396D01*
X049237Y017698D02*
X049237Y017831D01*
X049304Y017898D01*
X049571Y017631D01*
X049638Y017698D01*
X049638Y017831D01*
X049571Y017898D01*
X049304Y017898D01*
X049237Y017698D02*
X049304Y017631D01*
X049571Y017631D01*
X053737Y017637D02*
X053737Y017904D01*
X053803Y017904D01*
X054070Y017637D01*
X054137Y017637D01*
X058585Y017791D02*
X058785Y017591D01*
X058785Y017858D01*
X058985Y017791D02*
X058585Y017791D01*
X063303Y017578D02*
X063703Y017578D01*
X063703Y017711D02*
X063703Y017444D01*
X063436Y017444D02*
X063303Y017578D01*
X067996Y017459D02*
X068396Y017726D01*
X067996Y017726D01*
X067996Y017459D02*
X068396Y017459D01*
X068330Y017265D02*
X068063Y017265D01*
X067996Y017198D01*
X067996Y017065D01*
X068063Y016998D01*
X068330Y016998D01*
X068396Y017065D01*
X068396Y017198D01*
X068330Y017265D01*
X068463Y016805D02*
X068463Y016538D01*
X068196Y016211D02*
X068196Y016077D01*
X068396Y016077D02*
X067996Y016077D01*
X067996Y016344D01*
X066402Y012430D02*
X066402Y012029D01*
X066135Y012430D01*
X066135Y012029D01*
X065941Y012029D02*
X065941Y012430D01*
X065674Y012430D02*
X065674Y012029D01*
X065808Y012163D01*
X065941Y012029D01*
X065481Y012096D02*
X065481Y012363D01*
X065414Y012430D01*
X065281Y012430D01*
X065214Y012363D01*
X065214Y012096D01*
X065281Y012029D01*
X065414Y012029D01*
X065481Y012096D01*
X065020Y012096D02*
X065020Y012363D01*
X064954Y012430D01*
X064754Y012430D01*
X064754Y012029D01*
X064954Y012029D01*
X065020Y012096D01*
X063694Y010973D02*
X063694Y010706D01*
X063427Y010973D01*
X063360Y010973D01*
X063293Y010907D01*
X063293Y010773D01*
X063360Y010706D01*
X059038Y010791D02*
X058971Y010724D01*
X059038Y010791D02*
X059038Y010924D01*
X058971Y010991D01*
X058837Y010991D01*
X058771Y010924D01*
X058771Y010858D01*
X058837Y010724D01*
X058637Y010724D01*
X058637Y010991D01*
X054154Y010900D02*
X054154Y010766D01*
X054087Y010700D01*
X054020Y010700D01*
X053954Y010766D01*
X053954Y010900D01*
X054020Y010967D01*
X054087Y010967D01*
X054154Y010900D01*
X053954Y010900D02*
X053887Y010967D01*
X053820Y010967D01*
X053753Y010900D01*
X053753Y010766D01*
X053820Y010700D01*
X053887Y010700D01*
X053954Y010766D01*
X051267Y003954D02*
X051000Y003954D01*
X050933Y003887D01*
X050933Y003753D01*
X051000Y003687D01*
X051066Y003687D01*
X051133Y003753D01*
X051133Y003954D01*
X051267Y003954D02*
X051333Y003887D01*
X051333Y003753D01*
X051267Y003687D01*
X055662Y003867D02*
X055729Y003733D01*
X055862Y003600D01*
X055862Y003800D01*
X055929Y003867D01*
X055996Y003867D01*
X056063Y003800D01*
X056063Y003666D01*
X055996Y003600D01*
X055862Y003600D01*
X060412Y003736D02*
X060412Y003869D01*
X060479Y003936D01*
X060546Y003936D01*
X060613Y003869D01*
X060679Y003936D01*
X060746Y003936D01*
X060813Y003869D01*
X060813Y003736D01*
X060746Y003669D01*
X060613Y003802D02*
X060613Y003869D01*
X060479Y003669D02*
X060412Y003736D01*
X065085Y003658D02*
X065085Y003925D01*
X065285Y003792D02*
X065285Y003658D01*
X065485Y003658D02*
X065085Y003658D01*
X065552Y004119D02*
X065552Y004385D01*
X065418Y004579D02*
X065485Y004646D01*
X065485Y004779D01*
X065418Y004846D01*
X065151Y004846D01*
X065085Y004779D01*
X065085Y004646D01*
X065151Y004579D01*
X065418Y004579D01*
X065485Y005039D02*
X065085Y005039D01*
X065085Y005306D01*
X065085Y005500D02*
X065085Y005767D01*
X065285Y005633D02*
X065285Y005500D01*
X065485Y005500D02*
X065085Y005500D01*
X065285Y005173D02*
X065285Y005039D01*
X068999Y009140D02*
X069132Y009140D01*
X069199Y009207D01*
X069199Y009541D01*
X069393Y009541D02*
X069593Y009541D01*
X069660Y009474D01*
X069660Y009340D01*
X069593Y009274D01*
X069393Y009274D01*
X069393Y009140D02*
X069393Y009541D01*
X068932Y009541D02*
X068932Y009207D01*
X068999Y009140D01*
X048009Y032221D02*
X048011Y032241D01*
X048016Y032261D01*
X048026Y032279D01*
X048038Y032296D01*
X048053Y032310D01*
X048071Y032320D01*
X048090Y032328D01*
X048110Y032332D01*
X048130Y032332D01*
X048150Y032328D01*
X048169Y032320D01*
X048187Y032310D01*
X048202Y032296D01*
X048214Y032279D01*
X048224Y032261D01*
X048229Y032241D01*
X048231Y032221D01*
X048229Y032201D01*
X048224Y032181D01*
X048214Y032163D01*
X048202Y032146D01*
X048187Y032132D01*
X048169Y032122D01*
X048150Y032114D01*
X048130Y032110D01*
X048110Y032110D01*
X048090Y032114D01*
X048071Y032122D01*
X048053Y032132D01*
X048038Y032146D01*
X048026Y032163D01*
X048016Y032181D01*
X048011Y032201D01*
X048009Y032221D01*
X040825Y036747D02*
X040758Y036681D01*
X040625Y036681D01*
X040558Y036747D01*
X040691Y036881D02*
X040758Y036881D01*
X040825Y036814D01*
X040825Y036747D01*
X040758Y036881D02*
X040825Y036948D01*
X040825Y037014D01*
X040758Y037081D01*
X040625Y037081D01*
X040558Y037014D01*
X040364Y037081D02*
X040098Y036814D01*
X040164Y036881D02*
X040364Y036681D01*
X040098Y036681D02*
X040098Y037081D01*
X034330Y037014D02*
X034263Y037081D01*
X034130Y037081D01*
X034063Y037014D01*
X033870Y037081D02*
X033603Y036814D01*
X033670Y036880D02*
X033870Y036680D01*
X034063Y036680D02*
X034330Y036947D01*
X034330Y037014D01*
X034330Y036680D02*
X034063Y036680D01*
X033603Y036680D02*
X033603Y037081D01*
X027847Y036692D02*
X027580Y036692D01*
X027714Y036692D02*
X027714Y037093D01*
X027580Y036959D01*
X027387Y037093D02*
X027120Y036826D01*
X027187Y036893D02*
X027387Y036692D01*
X027120Y036692D02*
X027120Y037093D01*
X010552Y039187D02*
X010152Y039187D01*
X010152Y039388D01*
X010218Y039454D01*
X010352Y039454D01*
X010418Y039388D01*
X010418Y039187D01*
X010418Y039321D02*
X010552Y039454D01*
X010552Y039648D02*
X010552Y039915D01*
X010552Y039781D02*
X010152Y039781D01*
X010285Y039648D01*
D20*
X010934Y030036D02*
X009170Y030036D01*
X009170Y028524D02*
X010934Y028524D01*
X010337Y025143D02*
X010337Y024863D01*
X010430Y024863D02*
X010243Y024863D01*
X010135Y024910D02*
X010089Y024863D01*
X009995Y024863D01*
X009948Y024910D01*
X009948Y025097D01*
X009995Y025143D01*
X010089Y025143D01*
X010135Y025097D01*
X010243Y025050D02*
X010337Y025143D01*
X043848Y027727D02*
X043848Y027820D01*
X043848Y027773D02*
X044081Y027773D01*
X044128Y027727D01*
X044128Y027680D01*
X044081Y027633D01*
X044035Y027928D02*
X044035Y028068D01*
X043988Y028115D01*
X043895Y028115D01*
X043848Y028068D01*
X043848Y027928D01*
X044128Y027928D01*
X044128Y028223D02*
X044128Y028409D01*
X044128Y028316D02*
X043848Y028316D01*
X043941Y028223D01*
D21*
X009679Y025952D03*
D22*
X009721Y032309D03*
X002276Y033762D03*
X052694Y034371D03*
D23*
X052409Y034578D03*
X010007Y032103D03*
X002482Y034047D03*
D24*
X062551Y034637D03*
X062538Y030964D03*
X062546Y027217D03*
X062552Y023169D03*
D25*
X065310Y024094D03*
X067307Y022798D03*
X065283Y028487D03*
X065240Y032905D03*
D26*
X065537Y021488D03*
D27*
X067262Y021738D03*
X063812Y021738D03*
D28*
X065037Y021738D03*
X066037Y021738D03*
D29*
X064000Y025864D03*
X063973Y030257D03*
X063930Y034675D03*
D30*
X064180Y036400D03*
X064180Y032950D03*
X064223Y031982D03*
X064223Y028532D03*
X064250Y027589D03*
X064250Y024139D03*
D31*
X064250Y025364D03*
X064250Y026364D03*
X064223Y029757D03*
X064223Y030757D03*
X064180Y034175D03*
X064180Y035175D03*
D32*
X069456Y041498D02*
X069458Y041545D01*
X069464Y041591D01*
X069474Y041637D01*
X069487Y041682D01*
X069505Y041725D01*
X069526Y041767D01*
X069550Y041807D01*
X069578Y041844D01*
X069609Y041879D01*
X069643Y041912D01*
X069679Y041941D01*
X069718Y041967D01*
X069759Y041990D01*
X069802Y042009D01*
X069846Y042025D01*
X069891Y042037D01*
X069937Y042045D01*
X069984Y042049D01*
X070030Y042049D01*
X070077Y042045D01*
X070123Y042037D01*
X070168Y042025D01*
X070212Y042009D01*
X070255Y041990D01*
X070296Y041967D01*
X070335Y041941D01*
X070371Y041912D01*
X070405Y041879D01*
X070436Y041844D01*
X070464Y041807D01*
X070488Y041767D01*
X070509Y041725D01*
X070527Y041682D01*
X070540Y041637D01*
X070550Y041591D01*
X070556Y041545D01*
X070558Y041498D01*
X070556Y041451D01*
X070550Y041405D01*
X070540Y041359D01*
X070527Y041314D01*
X070509Y041271D01*
X070488Y041229D01*
X070464Y041189D01*
X070436Y041152D01*
X070405Y041117D01*
X070371Y041084D01*
X070335Y041055D01*
X070296Y041029D01*
X070255Y041006D01*
X070212Y040987D01*
X070168Y040971D01*
X070123Y040959D01*
X070077Y040951D01*
X070030Y040947D01*
X069984Y040947D01*
X069937Y040951D01*
X069891Y040959D01*
X069846Y040971D01*
X069802Y040987D01*
X069759Y041006D01*
X069718Y041029D01*
X069679Y041055D01*
X069643Y041084D01*
X069609Y041117D01*
X069578Y041152D01*
X069550Y041189D01*
X069526Y041229D01*
X069505Y041271D01*
X069487Y041314D01*
X069474Y041359D01*
X069464Y041405D01*
X069458Y041451D01*
X069456Y041498D01*
X069462Y022300D02*
X069464Y022347D01*
X069470Y022393D01*
X069480Y022439D01*
X069493Y022484D01*
X069511Y022527D01*
X069532Y022569D01*
X069556Y022609D01*
X069584Y022646D01*
X069615Y022681D01*
X069649Y022714D01*
X069685Y022743D01*
X069724Y022769D01*
X069765Y022792D01*
X069808Y022811D01*
X069852Y022827D01*
X069897Y022839D01*
X069943Y022847D01*
X069990Y022851D01*
X070036Y022851D01*
X070083Y022847D01*
X070129Y022839D01*
X070174Y022827D01*
X070218Y022811D01*
X070261Y022792D01*
X070302Y022769D01*
X070341Y022743D01*
X070377Y022714D01*
X070411Y022681D01*
X070442Y022646D01*
X070470Y022609D01*
X070494Y022569D01*
X070515Y022527D01*
X070533Y022484D01*
X070546Y022439D01*
X070556Y022393D01*
X070562Y022347D01*
X070564Y022300D01*
X070562Y022253D01*
X070556Y022207D01*
X070546Y022161D01*
X070533Y022116D01*
X070515Y022073D01*
X070494Y022031D01*
X070470Y021991D01*
X070442Y021954D01*
X070411Y021919D01*
X070377Y021886D01*
X070341Y021857D01*
X070302Y021831D01*
X070261Y021808D01*
X070218Y021789D01*
X070174Y021773D01*
X070129Y021761D01*
X070083Y021753D01*
X070036Y021749D01*
X069990Y021749D01*
X069943Y021753D01*
X069897Y021761D01*
X069852Y021773D01*
X069808Y021789D01*
X069765Y021808D01*
X069724Y021831D01*
X069685Y021857D01*
X069649Y021886D01*
X069615Y021919D01*
X069584Y021954D01*
X069556Y021991D01*
X069532Y022031D01*
X069511Y022073D01*
X069493Y022116D01*
X069480Y022161D01*
X069470Y022207D01*
X069464Y022253D01*
X069462Y022300D01*
X038060Y018663D02*
X038062Y018710D01*
X038068Y018756D01*
X038078Y018802D01*
X038091Y018847D01*
X038109Y018890D01*
X038130Y018932D01*
X038154Y018972D01*
X038182Y019009D01*
X038213Y019044D01*
X038247Y019077D01*
X038283Y019106D01*
X038322Y019132D01*
X038363Y019155D01*
X038406Y019174D01*
X038450Y019190D01*
X038495Y019202D01*
X038541Y019210D01*
X038588Y019214D01*
X038634Y019214D01*
X038681Y019210D01*
X038727Y019202D01*
X038772Y019190D01*
X038816Y019174D01*
X038859Y019155D01*
X038900Y019132D01*
X038939Y019106D01*
X038975Y019077D01*
X039009Y019044D01*
X039040Y019009D01*
X039068Y018972D01*
X039092Y018932D01*
X039113Y018890D01*
X039131Y018847D01*
X039144Y018802D01*
X039154Y018756D01*
X039160Y018710D01*
X039162Y018663D01*
X039160Y018616D01*
X039154Y018570D01*
X039144Y018524D01*
X039131Y018479D01*
X039113Y018436D01*
X039092Y018394D01*
X039068Y018354D01*
X039040Y018317D01*
X039009Y018282D01*
X038975Y018249D01*
X038939Y018220D01*
X038900Y018194D01*
X038859Y018171D01*
X038816Y018152D01*
X038772Y018136D01*
X038727Y018124D01*
X038681Y018116D01*
X038634Y018112D01*
X038588Y018112D01*
X038541Y018116D01*
X038495Y018124D01*
X038450Y018136D01*
X038406Y018152D01*
X038363Y018171D01*
X038322Y018194D01*
X038283Y018220D01*
X038247Y018249D01*
X038213Y018282D01*
X038182Y018317D01*
X038154Y018354D01*
X038130Y018394D01*
X038109Y018436D01*
X038091Y018479D01*
X038078Y018524D01*
X038068Y018570D01*
X038062Y018616D01*
X038060Y018663D01*
X021307Y001227D02*
X021309Y001253D01*
X021315Y001279D01*
X021325Y001304D01*
X021338Y001327D01*
X021354Y001347D01*
X021374Y001365D01*
X021396Y001380D01*
X021419Y001392D01*
X021445Y001400D01*
X021471Y001404D01*
X021497Y001404D01*
X021523Y001400D01*
X021549Y001392D01*
X021573Y001380D01*
X021594Y001365D01*
X021614Y001347D01*
X021630Y001327D01*
X021643Y001304D01*
X021653Y001279D01*
X021659Y001253D01*
X021661Y001227D01*
X021659Y001201D01*
X021653Y001175D01*
X021643Y001150D01*
X021630Y001127D01*
X021614Y001107D01*
X021594Y001089D01*
X021572Y001074D01*
X021549Y001062D01*
X021523Y001054D01*
X021497Y001050D01*
X021471Y001050D01*
X021445Y001054D01*
X021419Y001062D01*
X021395Y001074D01*
X021374Y001089D01*
X021354Y001107D01*
X021338Y001127D01*
X021325Y001150D01*
X021315Y001175D01*
X021309Y001201D01*
X021307Y001227D01*
X020126Y001227D02*
X020128Y001253D01*
X020134Y001279D01*
X020144Y001304D01*
X020157Y001327D01*
X020173Y001347D01*
X020193Y001365D01*
X020215Y001380D01*
X020238Y001392D01*
X020264Y001400D01*
X020290Y001404D01*
X020316Y001404D01*
X020342Y001400D01*
X020368Y001392D01*
X020392Y001380D01*
X020413Y001365D01*
X020433Y001347D01*
X020449Y001327D01*
X020462Y001304D01*
X020472Y001279D01*
X020478Y001253D01*
X020480Y001227D01*
X020478Y001201D01*
X020472Y001175D01*
X020462Y001150D01*
X020449Y001127D01*
X020433Y001107D01*
X020413Y001089D01*
X020391Y001074D01*
X020368Y001062D01*
X020342Y001054D01*
X020316Y001050D01*
X020290Y001050D01*
X020264Y001054D01*
X020238Y001062D01*
X020214Y001074D01*
X020193Y001089D01*
X020173Y001107D01*
X020157Y001127D01*
X020144Y001150D01*
X020134Y001175D01*
X020128Y001201D01*
X020126Y001227D01*
X001285Y022311D02*
X001287Y022358D01*
X001293Y022404D01*
X001303Y022450D01*
X001316Y022495D01*
X001334Y022538D01*
X001355Y022580D01*
X001379Y022620D01*
X001407Y022657D01*
X001438Y022692D01*
X001472Y022725D01*
X001508Y022754D01*
X001547Y022780D01*
X001588Y022803D01*
X001631Y022822D01*
X001675Y022838D01*
X001720Y022850D01*
X001766Y022858D01*
X001813Y022862D01*
X001859Y022862D01*
X001906Y022858D01*
X001952Y022850D01*
X001997Y022838D01*
X002041Y022822D01*
X002084Y022803D01*
X002125Y022780D01*
X002164Y022754D01*
X002200Y022725D01*
X002234Y022692D01*
X002265Y022657D01*
X002293Y022620D01*
X002317Y022580D01*
X002338Y022538D01*
X002356Y022495D01*
X002369Y022450D01*
X002379Y022404D01*
X002385Y022358D01*
X002387Y022311D01*
X002385Y022264D01*
X002379Y022218D01*
X002369Y022172D01*
X002356Y022127D01*
X002338Y022084D01*
X002317Y022042D01*
X002293Y022002D01*
X002265Y021965D01*
X002234Y021930D01*
X002200Y021897D01*
X002164Y021868D01*
X002125Y021842D01*
X002084Y021819D01*
X002041Y021800D01*
X001997Y021784D01*
X001952Y021772D01*
X001906Y021764D01*
X001859Y021760D01*
X001813Y021760D01*
X001766Y021764D01*
X001720Y021772D01*
X001675Y021784D01*
X001631Y021800D01*
X001588Y021819D01*
X001547Y021842D01*
X001508Y021868D01*
X001472Y021897D01*
X001438Y021930D01*
X001407Y021965D01*
X001379Y022002D01*
X001355Y022042D01*
X001334Y022084D01*
X001316Y022127D01*
X001303Y022172D01*
X001293Y022218D01*
X001287Y022264D01*
X001285Y022311D01*
X003075Y027173D02*
X003158Y027173D01*
X003175Y027190D01*
X003175Y027223D01*
X003158Y027240D01*
X003075Y027240D01*
X003108Y027266D02*
X003075Y027299D01*
X003108Y027332D01*
X003175Y027332D01*
X003175Y027358D02*
X003075Y027358D01*
X003075Y027408D01*
X003092Y027424D01*
X003125Y027424D01*
X003142Y027408D01*
X003142Y027358D01*
X003125Y027332D02*
X003125Y027266D01*
X003108Y027266D02*
X003175Y027266D01*
X003142Y027391D02*
X003175Y027424D01*
X003175Y027483D02*
X003075Y027483D01*
X003075Y027450D02*
X003075Y027516D01*
X003075Y027634D02*
X003075Y027684D01*
X003092Y027701D01*
X003125Y027701D01*
X003142Y027684D01*
X003142Y027634D01*
X003175Y027634D02*
X003075Y027634D01*
X003142Y027667D02*
X003175Y027701D01*
X003175Y027759D02*
X003075Y027759D01*
X003075Y027726D02*
X003075Y027793D01*
X003092Y027818D02*
X003108Y027818D01*
X003125Y027835D01*
X003125Y027868D01*
X003142Y027885D01*
X003158Y027885D01*
X003175Y027868D01*
X003175Y027835D01*
X003158Y027818D01*
X003092Y027818D02*
X003075Y027835D01*
X003075Y027868D01*
X003092Y027885D01*
X003192Y027608D02*
X003192Y027542D01*
X003675Y027516D02*
X003675Y027450D01*
X003692Y027424D02*
X003725Y027424D01*
X003742Y027408D01*
X003742Y027358D01*
X003725Y027332D02*
X003725Y027266D01*
X003708Y027266D02*
X003675Y027299D01*
X003708Y027332D01*
X003775Y027332D01*
X003775Y027358D02*
X003675Y027358D01*
X003675Y027408D01*
X003692Y027424D01*
X003742Y027391D02*
X003775Y027424D01*
X003775Y027483D02*
X003675Y027483D01*
X003792Y027542D02*
X003792Y027608D01*
X003775Y027667D02*
X003675Y027667D01*
X003675Y027634D02*
X003675Y027701D01*
X003675Y027726D02*
X003775Y027793D01*
X003775Y027726D02*
X003675Y027793D01*
X003708Y027266D02*
X003775Y027266D01*
X003758Y027240D02*
X003675Y027240D01*
X003675Y027173D02*
X003758Y027173D01*
X003775Y027190D01*
X003775Y027223D01*
X003758Y027240D01*
X004275Y027240D02*
X004358Y027240D01*
X004375Y027223D01*
X004375Y027190D01*
X004358Y027173D01*
X004275Y027173D01*
X004308Y027266D02*
X004275Y027299D01*
X004308Y027332D01*
X004375Y027332D01*
X004375Y027358D02*
X004275Y027358D01*
X004275Y027408D01*
X004292Y027424D01*
X004325Y027424D01*
X004342Y027408D01*
X004342Y027358D01*
X004325Y027332D02*
X004325Y027266D01*
X004308Y027266D02*
X004375Y027266D01*
X004342Y027391D02*
X004375Y027424D01*
X004375Y027483D02*
X004275Y027483D01*
X004275Y027450D02*
X004275Y027516D01*
X004292Y027634D02*
X004358Y027634D01*
X004375Y027651D01*
X004375Y027684D01*
X004358Y027701D01*
X004375Y027759D02*
X004275Y027759D01*
X004275Y027726D02*
X004275Y027793D01*
X004292Y027818D02*
X004308Y027818D01*
X004325Y027835D01*
X004325Y027868D01*
X004342Y027885D01*
X004358Y027885D01*
X004375Y027868D01*
X004375Y027835D01*
X004358Y027818D01*
X004292Y027818D02*
X004275Y027835D01*
X004275Y027868D01*
X004292Y027885D01*
X004292Y027701D02*
X004275Y027684D01*
X004275Y027651D01*
X004292Y027634D01*
X004392Y027608D02*
X004392Y027542D01*
X004875Y027516D02*
X004875Y027450D01*
X004892Y027424D02*
X004925Y027424D01*
X004942Y027408D01*
X004942Y027358D01*
X004925Y027332D02*
X004925Y027266D01*
X004908Y027266D02*
X004875Y027299D01*
X004908Y027332D01*
X004975Y027332D01*
X004975Y027358D02*
X004875Y027358D01*
X004875Y027408D01*
X004892Y027424D01*
X004942Y027391D02*
X004975Y027424D01*
X004975Y027483D02*
X004875Y027483D01*
X004992Y027542D02*
X004992Y027608D01*
X004975Y027634D02*
X004875Y027634D01*
X004875Y027684D01*
X004892Y027701D01*
X004925Y027701D01*
X004942Y027684D01*
X004942Y027634D01*
X004942Y027667D02*
X004975Y027701D01*
X004975Y027726D02*
X004875Y027793D01*
X004875Y027726D02*
X004975Y027793D01*
X004975Y027266D02*
X004908Y027266D01*
X004875Y027240D02*
X004958Y027240D01*
X004975Y027223D01*
X004975Y027190D01*
X004958Y027173D01*
X004875Y027173D01*
X005475Y027173D02*
X005575Y027240D01*
X005475Y027240D01*
X005492Y027266D02*
X005558Y027266D01*
X005575Y027282D01*
X005575Y027316D01*
X005558Y027332D01*
X005575Y027358D02*
X005575Y027424D01*
X005575Y027391D02*
X005475Y027391D01*
X005508Y027358D01*
X005492Y027332D02*
X005475Y027316D01*
X005475Y027282D01*
X005492Y027266D01*
X005475Y027173D02*
X005575Y027173D01*
X006075Y027173D02*
X006175Y027240D01*
X006075Y027240D01*
X006092Y027266D02*
X006158Y027266D01*
X006175Y027282D01*
X006175Y027316D01*
X006158Y027332D01*
X006175Y027358D02*
X006108Y027424D01*
X006092Y027424D01*
X006075Y027408D01*
X006075Y027374D01*
X006092Y027358D01*
X006092Y027332D02*
X006075Y027316D01*
X006075Y027282D01*
X006092Y027266D01*
X006075Y027173D02*
X006175Y027173D01*
X006175Y027358D02*
X006175Y027424D01*
X006675Y027391D02*
X006775Y027391D01*
X006775Y027358D02*
X006775Y027424D01*
X006708Y027358D02*
X006675Y027391D01*
X006675Y027332D02*
X006742Y027332D01*
X006775Y027299D01*
X006742Y027266D01*
X006675Y027266D01*
X006675Y027240D02*
X006775Y027240D01*
X006675Y027173D01*
X006775Y027173D01*
X007175Y027173D02*
X007275Y027240D01*
X007175Y027240D01*
X007175Y027266D02*
X007242Y027266D01*
X007275Y027299D01*
X007242Y027332D01*
X007175Y027332D01*
X007192Y027358D02*
X007175Y027374D01*
X007175Y027408D01*
X007192Y027424D01*
X007208Y027424D01*
X007275Y027358D01*
X007275Y027424D01*
X007275Y027173D02*
X007175Y027173D01*
X007175Y030673D02*
X007242Y030673D01*
X007275Y030707D01*
X007242Y030740D01*
X007175Y030740D01*
X007192Y030766D02*
X007175Y030782D01*
X007175Y030816D01*
X007192Y030832D01*
X007192Y030858D02*
X007258Y030858D01*
X007275Y030874D01*
X007275Y030908D01*
X007258Y030924D01*
X007192Y030924D02*
X007175Y030908D01*
X007175Y030874D01*
X007192Y030858D01*
X007258Y030832D02*
X007275Y030816D01*
X007275Y030782D01*
X007258Y030766D01*
X007192Y030766D01*
X006775Y030782D02*
X006775Y030816D01*
X006758Y030832D01*
X006758Y030858D02*
X006775Y030874D01*
X006775Y030908D01*
X006758Y030924D01*
X006742Y030924D01*
X006725Y030908D01*
X006725Y030891D01*
X006725Y030908D02*
X006708Y030924D01*
X006692Y030924D01*
X006675Y030908D01*
X006675Y030874D01*
X006692Y030858D01*
X006692Y030832D02*
X006675Y030816D01*
X006675Y030782D01*
X006692Y030766D01*
X006758Y030766D01*
X006775Y030782D01*
X006775Y030740D02*
X006675Y030740D01*
X006675Y030673D02*
X006775Y030740D01*
X006775Y030673D02*
X006675Y030673D01*
X006175Y030673D02*
X006075Y030673D01*
X006075Y030723D01*
X006092Y030740D01*
X006125Y030740D01*
X006142Y030723D01*
X006142Y030673D01*
X006142Y030707D02*
X006175Y030740D01*
X006175Y030766D02*
X006175Y030832D01*
X006158Y030858D02*
X006175Y030874D01*
X006175Y030908D01*
X006158Y030924D01*
X006142Y030924D01*
X006125Y030908D01*
X006125Y030874D01*
X006108Y030858D01*
X006092Y030858D01*
X006075Y030874D01*
X006075Y030908D01*
X006092Y030924D01*
X006075Y030950D02*
X006175Y030950D01*
X006175Y031016D01*
X006175Y031075D02*
X006075Y031075D01*
X006075Y031042D02*
X006075Y031108D01*
X006075Y031134D02*
X006075Y031184D01*
X006092Y031201D01*
X006108Y031201D01*
X006125Y031184D01*
X006125Y031134D01*
X006125Y031184D02*
X006142Y031201D01*
X006158Y031201D01*
X006175Y031184D01*
X006175Y031134D01*
X006075Y031134D01*
X006075Y031016D02*
X006075Y030950D01*
X006125Y030950D02*
X006125Y030983D01*
X006075Y030832D02*
X006075Y030766D01*
X006175Y030766D01*
X006125Y030766D02*
X006125Y030799D01*
X005575Y030832D02*
X005475Y030832D01*
X005475Y030858D02*
X005475Y030908D01*
X005492Y030924D01*
X005558Y030924D01*
X005575Y030908D01*
X005575Y030858D01*
X005475Y030858D01*
X005475Y030766D02*
X005575Y030832D01*
X005575Y030766D02*
X005475Y030766D01*
X005492Y030740D02*
X005475Y030723D01*
X005475Y030690D01*
X005492Y030673D01*
X005558Y030673D01*
X005575Y030690D01*
X005575Y030723D01*
X005558Y030740D01*
X005525Y030740D01*
X005525Y030707D01*
X004975Y030673D02*
X004875Y030673D01*
X004875Y030723D01*
X004892Y030740D01*
X004925Y030740D01*
X004942Y030723D01*
X004942Y030673D01*
X004975Y030766D02*
X004975Y030799D01*
X004975Y030782D02*
X004875Y030782D01*
X004875Y030766D02*
X004875Y030799D01*
X004892Y030827D02*
X004958Y030827D01*
X004975Y030844D01*
X004975Y030877D01*
X004958Y030894D01*
X004892Y030894D01*
X004875Y030877D01*
X004875Y030844D01*
X004892Y030827D01*
X004892Y030919D02*
X004875Y030936D01*
X004875Y030969D01*
X004892Y030986D01*
X004908Y030986D01*
X004925Y030969D01*
X004942Y030986D01*
X004958Y030986D01*
X004975Y030969D01*
X004975Y030936D01*
X004958Y030919D01*
X004925Y030952D02*
X004925Y030969D01*
X004375Y030986D02*
X004375Y030919D01*
X004308Y030986D01*
X004292Y030986D01*
X004275Y030969D01*
X004275Y030936D01*
X004292Y030919D01*
X004292Y030894D02*
X004275Y030877D01*
X004275Y030844D01*
X004292Y030827D01*
X004358Y030827D01*
X004375Y030844D01*
X004375Y030877D01*
X004358Y030894D01*
X004292Y030894D01*
X004275Y030799D02*
X004275Y030766D01*
X004275Y030782D02*
X004375Y030782D01*
X004375Y030766D02*
X004375Y030799D01*
X004325Y030740D02*
X004342Y030723D01*
X004342Y030673D01*
X004375Y030673D02*
X004275Y030673D01*
X004275Y030723D01*
X004292Y030740D01*
X004325Y030740D01*
X003775Y030766D02*
X003775Y030799D01*
X003775Y030782D02*
X003675Y030782D01*
X003675Y030766D02*
X003675Y030799D01*
X003692Y030827D02*
X003758Y030827D01*
X003775Y030844D01*
X003775Y030877D01*
X003758Y030894D01*
X003692Y030894D01*
X003675Y030877D01*
X003675Y030844D01*
X003692Y030827D01*
X003692Y030740D02*
X003725Y030740D01*
X003742Y030723D01*
X003742Y030673D01*
X003775Y030673D02*
X003675Y030673D01*
X003675Y030723D01*
X003692Y030740D01*
X003708Y030919D02*
X003675Y030952D01*
X003775Y030952D01*
X003775Y030919D02*
X003775Y030986D01*
X003175Y030969D02*
X003175Y030936D01*
X003158Y030919D01*
X003092Y030986D01*
X003158Y030986D01*
X003175Y030969D01*
X003158Y030919D02*
X003092Y030919D01*
X003075Y030936D01*
X003075Y030969D01*
X003092Y030986D01*
X003092Y030894D02*
X003075Y030877D01*
X003075Y030844D01*
X003092Y030827D01*
X003158Y030827D01*
X003175Y030844D01*
X003175Y030877D01*
X003158Y030894D01*
X003092Y030894D01*
X003075Y030799D02*
X003075Y030766D01*
X003075Y030782D02*
X003175Y030782D01*
X003175Y030766D02*
X003175Y030799D01*
X003125Y030740D02*
X003142Y030723D01*
X003142Y030673D01*
X003175Y030673D02*
X003075Y030673D01*
X003075Y030723D01*
X003092Y030740D01*
X003125Y030740D01*
X001303Y041503D02*
X001305Y041550D01*
X001311Y041596D01*
X001321Y041642D01*
X001334Y041687D01*
X001352Y041730D01*
X001373Y041772D01*
X001397Y041812D01*
X001425Y041849D01*
X001456Y041884D01*
X001490Y041917D01*
X001526Y041946D01*
X001565Y041972D01*
X001606Y041995D01*
X001649Y042014D01*
X001693Y042030D01*
X001738Y042042D01*
X001784Y042050D01*
X001831Y042054D01*
X001877Y042054D01*
X001924Y042050D01*
X001970Y042042D01*
X002015Y042030D01*
X002059Y042014D01*
X002102Y041995D01*
X002143Y041972D01*
X002182Y041946D01*
X002218Y041917D01*
X002252Y041884D01*
X002283Y041849D01*
X002311Y041812D01*
X002335Y041772D01*
X002356Y041730D01*
X002374Y041687D01*
X002387Y041642D01*
X002397Y041596D01*
X002403Y041550D01*
X002405Y041503D01*
X002403Y041456D01*
X002397Y041410D01*
X002387Y041364D01*
X002374Y041319D01*
X002356Y041276D01*
X002335Y041234D01*
X002311Y041194D01*
X002283Y041157D01*
X002252Y041122D01*
X002218Y041089D01*
X002182Y041060D01*
X002143Y041034D01*
X002102Y041011D01*
X002059Y040992D01*
X002015Y040976D01*
X001970Y040964D01*
X001924Y040956D01*
X001877Y040952D01*
X001831Y040952D01*
X001784Y040956D01*
X001738Y040964D01*
X001693Y040976D01*
X001649Y040992D01*
X001606Y041011D01*
X001565Y041034D01*
X001526Y041060D01*
X001490Y041089D01*
X001456Y041122D01*
X001425Y041157D01*
X001397Y041194D01*
X001373Y041234D01*
X001352Y041276D01*
X001334Y041319D01*
X001321Y041364D01*
X001311Y041410D01*
X001305Y041456D01*
X001303Y041503D01*
X060003Y001238D02*
X060005Y001264D01*
X060011Y001290D01*
X060021Y001315D01*
X060034Y001338D01*
X060050Y001358D01*
X060070Y001376D01*
X060092Y001391D01*
X060115Y001403D01*
X060141Y001411D01*
X060167Y001415D01*
X060193Y001415D01*
X060219Y001411D01*
X060245Y001403D01*
X060269Y001391D01*
X060290Y001376D01*
X060310Y001358D01*
X060326Y001338D01*
X060339Y001315D01*
X060349Y001290D01*
X060355Y001264D01*
X060357Y001238D01*
X060355Y001212D01*
X060349Y001186D01*
X060339Y001161D01*
X060326Y001138D01*
X060310Y001118D01*
X060290Y001100D01*
X060268Y001085D01*
X060245Y001073D01*
X060219Y001065D01*
X060193Y001061D01*
X060167Y001061D01*
X060141Y001065D01*
X060115Y001073D01*
X060091Y001085D01*
X060070Y001100D01*
X060050Y001118D01*
X060034Y001138D01*
X060021Y001161D01*
X060011Y001186D01*
X060005Y001212D01*
X060003Y001238D01*
X061185Y001238D02*
X061187Y001264D01*
X061193Y001290D01*
X061203Y001315D01*
X061216Y001338D01*
X061232Y001358D01*
X061252Y001376D01*
X061274Y001391D01*
X061297Y001403D01*
X061323Y001411D01*
X061349Y001415D01*
X061375Y001415D01*
X061401Y001411D01*
X061427Y001403D01*
X061451Y001391D01*
X061472Y001376D01*
X061492Y001358D01*
X061508Y001338D01*
X061521Y001315D01*
X061531Y001290D01*
X061537Y001264D01*
X061539Y001238D01*
X061537Y001212D01*
X061531Y001186D01*
X061521Y001161D01*
X061508Y001138D01*
X061492Y001118D01*
X061472Y001100D01*
X061450Y001085D01*
X061427Y001073D01*
X061401Y001065D01*
X061375Y001061D01*
X061349Y001061D01*
X061323Y001065D01*
X061297Y001073D01*
X061273Y001085D01*
X061252Y001100D01*
X061232Y001118D01*
X061216Y001138D01*
X061203Y001161D01*
X061193Y001186D01*
X061187Y001212D01*
X061185Y001238D01*
D33*
X002160Y027150D02*
X002098Y027088D01*
X002160Y027150D02*
X002160Y027274D01*
X002098Y027335D01*
X002037Y027335D01*
X001975Y027274D01*
X001975Y027150D01*
X001913Y027088D01*
X001851Y027088D01*
X001790Y027150D01*
X001790Y027274D01*
X001851Y027335D01*
X002098Y027457D02*
X002098Y027518D01*
X002160Y027518D01*
X002160Y027457D01*
X002098Y027457D01*
X002160Y027641D02*
X001790Y027641D01*
X001975Y027641D02*
X001975Y027888D01*
X001975Y028009D02*
X001913Y028071D01*
X001913Y028194D01*
X001975Y028256D01*
X002037Y028256D01*
X002037Y028009D01*
X002098Y028009D02*
X001975Y028009D01*
X002098Y028009D02*
X002160Y028071D01*
X002160Y028194D01*
X002160Y028378D02*
X001913Y028378D01*
X001913Y028563D01*
X001975Y028624D01*
X002160Y028624D01*
X002098Y028746D02*
X002160Y028808D01*
X002160Y028993D01*
X001790Y028993D01*
X001913Y028993D02*
X001913Y028808D01*
X001975Y028746D01*
X002098Y028746D01*
X002037Y029114D02*
X001913Y029238D01*
X001913Y029299D01*
X001913Y029421D02*
X001913Y029483D01*
X002160Y029483D01*
X002160Y029421D02*
X002160Y029545D01*
X002160Y029667D02*
X001790Y029667D01*
X001790Y029483D02*
X001728Y029483D01*
X002037Y029667D02*
X001913Y029852D01*
X001975Y029974D02*
X001913Y030035D01*
X001913Y030220D01*
X001975Y030342D02*
X001913Y030404D01*
X001913Y030527D01*
X001975Y030589D01*
X002037Y030589D01*
X002037Y030342D01*
X002098Y030342D02*
X001975Y030342D01*
X002098Y030342D02*
X002160Y030404D01*
X002160Y030527D01*
X002160Y030710D02*
X001913Y030710D01*
X001913Y030895D01*
X001975Y030957D01*
X002160Y030957D01*
X002098Y030220D02*
X002037Y030159D01*
X002037Y030035D01*
X001975Y029974D01*
X002160Y029974D02*
X002160Y030159D01*
X002098Y030220D01*
X002160Y029852D02*
X002037Y029667D01*
X002160Y029114D02*
X001913Y029114D01*
X001260Y029109D02*
X001260Y028862D01*
X001260Y028740D02*
X001260Y028493D01*
X001260Y028617D02*
X000890Y028617D01*
X001013Y028493D01*
X001075Y028372D02*
X001075Y028125D01*
X000890Y028004D02*
X001260Y028004D01*
X001260Y027757D02*
X000890Y027757D01*
X001013Y027880D01*
X000890Y028004D01*
X000890Y027635D02*
X001260Y027635D01*
X001075Y027635D02*
X001075Y027388D01*
X001260Y027388D02*
X000890Y027388D01*
X001790Y027888D02*
X002160Y027888D01*
X001013Y028862D02*
X000890Y028985D01*
X001260Y028985D01*
X001013Y029598D02*
X001260Y029722D01*
X001013Y029845D01*
X000951Y029967D02*
X000890Y030028D01*
X000890Y030152D01*
X000951Y030214D01*
X001198Y029967D01*
X001260Y030028D01*
X001260Y030152D01*
X001198Y030214D01*
X000951Y030214D01*
X000951Y029967D02*
X001198Y029967D01*
X001198Y030335D02*
X001198Y030397D01*
X001260Y030397D01*
X001260Y030335D01*
X001198Y030335D01*
X001260Y030519D02*
X001260Y030766D01*
X001260Y030643D02*
X000890Y030643D01*
X001013Y030519D01*
D34*
X050601Y035809D02*
X050601Y035859D01*
X050626Y035884D01*
X050726Y035884D01*
X050751Y035859D01*
X050751Y035809D01*
X050726Y035784D01*
X050626Y035784D01*
X050601Y035809D01*
X050701Y035834D02*
X050751Y035884D01*
X050751Y035932D02*
X050651Y036032D01*
X050626Y036032D01*
X050601Y036007D01*
X050601Y035957D01*
X050626Y035932D01*
X050751Y035932D02*
X050751Y036032D01*
D35*
X058388Y035875D03*
X058431Y031965D03*
X058369Y028092D03*
X058397Y024248D03*
D36*
X046307Y002184D03*
X021206Y022631D03*
X006430Y002174D03*
D37*
X006186Y002172D02*
X005979Y002172D01*
X005979Y002174D02*
X005989Y002301D01*
X006020Y002425D01*
X006071Y002542D01*
X006141Y002649D01*
X006227Y002743D01*
X006328Y002822D01*
X006440Y002884D01*
X006560Y002926D01*
X006686Y002948D01*
X006814Y002949D01*
X006814Y002737D01*
X006713Y002739D01*
X006614Y002724D01*
X006520Y002691D01*
X006432Y002642D01*
X006354Y002579D01*
X006289Y002503D01*
X006238Y002416D01*
X006203Y002322D01*
X005995Y002322D01*
X005989Y002292D02*
X006198Y002292D01*
X006193Y002262D02*
X005986Y002262D01*
X005984Y002232D02*
X006187Y002232D01*
X006186Y002224D02*
X006186Y002123D01*
X006203Y002025D01*
X006238Y001931D01*
X006289Y001844D01*
X006354Y001768D01*
X006432Y001705D01*
X006520Y001656D01*
X006614Y001624D01*
X006713Y001608D01*
X006814Y001611D01*
X006814Y001398D01*
X006686Y001399D01*
X006560Y001421D01*
X006440Y001463D01*
X006328Y001525D01*
X006227Y001604D01*
X006141Y001698D01*
X006071Y001805D01*
X006020Y001922D01*
X005989Y002046D01*
X005979Y002174D01*
X005981Y002202D02*
X006186Y002202D01*
X006186Y002224D02*
X006203Y002322D01*
X006214Y002352D02*
X006002Y002352D01*
X006010Y002382D02*
X006226Y002382D01*
X006237Y002412D02*
X006017Y002412D01*
X006028Y002442D02*
X006253Y002442D01*
X006271Y002472D02*
X006041Y002472D01*
X006054Y002502D02*
X006289Y002502D01*
X006314Y002532D02*
X006067Y002532D01*
X006085Y002562D02*
X006340Y002562D01*
X006370Y002592D02*
X006104Y002592D01*
X006123Y002622D02*
X006407Y002622D01*
X006449Y002652D02*
X006144Y002652D01*
X006171Y002682D02*
X006503Y002682D01*
X006581Y002712D02*
X006199Y002712D01*
X006226Y002742D02*
X006814Y002742D01*
X006814Y002772D02*
X006264Y002772D01*
X006302Y002802D02*
X006814Y002802D01*
X006814Y002832D02*
X006345Y002832D01*
X006400Y002862D02*
X006814Y002862D01*
X006814Y002892D02*
X006463Y002892D01*
X006548Y002922D02*
X006814Y002922D01*
X006186Y002142D02*
X005981Y002142D01*
X005984Y002112D02*
X006188Y002112D01*
X006193Y002082D02*
X005986Y002082D01*
X005989Y002052D02*
X006199Y002052D01*
X006204Y002022D02*
X005995Y002022D01*
X006003Y001992D02*
X006216Y001992D01*
X006227Y001962D02*
X006010Y001962D01*
X006018Y001932D02*
X006238Y001932D01*
X006255Y001902D02*
X006029Y001902D01*
X006042Y001872D02*
X006273Y001872D01*
X006291Y001842D02*
X006055Y001842D01*
X006068Y001812D02*
X006317Y001812D01*
X006342Y001782D02*
X006087Y001782D01*
X006106Y001752D02*
X006374Y001752D01*
X006411Y001722D02*
X006125Y001722D01*
X006146Y001692D02*
X006455Y001692D01*
X006509Y001662D02*
X006174Y001662D01*
X006201Y001632D02*
X006589Y001632D01*
X006557Y001422D02*
X006814Y001422D01*
X006814Y001452D02*
X006471Y001452D01*
X006405Y001482D02*
X006814Y001482D01*
X006814Y001512D02*
X006351Y001512D01*
X006306Y001542D02*
X006814Y001542D01*
X006814Y001572D02*
X006267Y001572D01*
X006229Y001602D02*
X006814Y001602D01*
X005483Y001602D02*
X004899Y001602D01*
X004896Y001604D02*
X004810Y001698D01*
X004741Y001805D01*
X004690Y001922D01*
X004659Y002046D01*
X004648Y002174D01*
X004659Y002301D01*
X004690Y002425D01*
X004741Y002542D01*
X004810Y002649D01*
X004896Y002743D01*
X004997Y002822D01*
X005109Y002884D01*
X005229Y002926D01*
X005355Y002948D01*
X005483Y002949D01*
X005483Y002737D01*
X005383Y002739D01*
X005284Y002724D01*
X005189Y002691D01*
X005101Y002642D01*
X005024Y002579D01*
X004958Y002503D01*
X004908Y002416D01*
X004873Y002322D01*
X004664Y002322D01*
X004658Y002292D02*
X004867Y002292D01*
X004862Y002262D02*
X004655Y002262D01*
X004653Y002232D02*
X004857Y002232D01*
X004855Y002224D02*
X004855Y002123D01*
X004873Y002025D01*
X004908Y001931D01*
X004958Y001844D01*
X005024Y001768D01*
X005101Y001705D01*
X005189Y001656D01*
X005284Y001624D01*
X005383Y001608D01*
X005483Y001611D01*
X005483Y001398D01*
X005355Y001399D01*
X005229Y001421D01*
X005109Y001463D01*
X004997Y001525D01*
X004896Y001604D01*
X004871Y001632D02*
X005259Y001632D01*
X005178Y001662D02*
X004843Y001662D01*
X004816Y001692D02*
X005124Y001692D01*
X005080Y001722D02*
X004795Y001722D01*
X004775Y001752D02*
X005043Y001752D01*
X005012Y001782D02*
X004756Y001782D01*
X004738Y001812D02*
X004986Y001812D01*
X004960Y001842D02*
X004725Y001842D01*
X004712Y001872D02*
X004942Y001872D01*
X004924Y001902D02*
X004699Y001902D01*
X004687Y001932D02*
X004907Y001932D01*
X004896Y001962D02*
X004680Y001962D01*
X004672Y001992D02*
X004885Y001992D01*
X004874Y002022D02*
X004665Y002022D01*
X004658Y002052D02*
X004868Y002052D01*
X004863Y002082D02*
X004656Y002082D01*
X004653Y002112D02*
X004857Y002112D01*
X004855Y002142D02*
X004651Y002142D01*
X004648Y002172D02*
X004855Y002172D01*
X004855Y002202D02*
X004650Y002202D01*
X004671Y002352D02*
X004884Y002352D01*
X004873Y002322D02*
X004855Y002224D01*
X004895Y002382D02*
X004679Y002382D01*
X004687Y002412D02*
X004906Y002412D01*
X004923Y002442D02*
X004697Y002442D01*
X004710Y002472D02*
X004940Y002472D01*
X004958Y002502D02*
X004723Y002502D01*
X004736Y002532D02*
X004983Y002532D01*
X005009Y002562D02*
X004754Y002562D01*
X004773Y002592D02*
X005040Y002592D01*
X005076Y002622D02*
X004793Y002622D01*
X004813Y002652D02*
X005119Y002652D01*
X005173Y002682D02*
X004840Y002682D01*
X004868Y002712D02*
X005250Y002712D01*
X005218Y002922D02*
X005483Y002922D01*
X005483Y002892D02*
X005132Y002892D01*
X005069Y002862D02*
X005483Y002862D01*
X005483Y002832D02*
X005014Y002832D01*
X004971Y002802D02*
X005483Y002802D01*
X005483Y002772D02*
X004933Y002772D01*
X004895Y002742D02*
X005483Y002742D01*
X005483Y001572D02*
X004937Y001572D01*
X004975Y001542D02*
X005483Y001542D01*
X005483Y001512D02*
X005020Y001512D01*
X005075Y001482D02*
X005483Y001482D01*
X005483Y001452D02*
X005141Y001452D01*
X005226Y001422D02*
X005483Y001422D01*
X019773Y021982D02*
X019672Y022061D01*
X019586Y022155D01*
X019517Y022262D01*
X019466Y022379D01*
X019434Y022503D01*
X019424Y022631D01*
X019434Y022758D01*
X019466Y022882D01*
X019517Y022999D01*
X019586Y023106D01*
X019672Y023200D01*
X019773Y023279D01*
X019885Y023341D01*
X020005Y023383D01*
X020131Y023405D01*
X020259Y023406D01*
X020259Y023194D01*
X020159Y023196D01*
X020060Y023181D01*
X019965Y023148D01*
X019877Y023099D01*
X019799Y023036D01*
X019734Y022960D01*
X019683Y022873D01*
X019649Y022779D01*
X019631Y022681D01*
X019631Y022580D01*
X019649Y022482D01*
X019683Y022388D01*
X019734Y022301D01*
X019799Y022225D01*
X019877Y022162D01*
X019965Y022113D01*
X020060Y022081D01*
X020159Y022065D01*
X020259Y022068D01*
X020259Y021855D01*
X020131Y021856D01*
X020005Y021878D01*
X019885Y021920D01*
X019773Y021982D01*
X019795Y021970D02*
X020259Y021970D01*
X020259Y022000D02*
X019750Y022000D01*
X019712Y022030D02*
X020259Y022030D01*
X020259Y022060D02*
X019674Y022060D01*
X019646Y022090D02*
X020033Y022090D01*
X019953Y022120D02*
X019619Y022120D01*
X019591Y022150D02*
X019899Y022150D01*
X019855Y022180D02*
X019570Y022180D01*
X019551Y022210D02*
X019819Y022210D01*
X019787Y022240D02*
X019531Y022240D01*
X019513Y022270D02*
X019761Y022270D01*
X019736Y022300D02*
X019500Y022300D01*
X019487Y022330D02*
X019718Y022330D01*
X019700Y022360D02*
X019474Y022360D01*
X019463Y022390D02*
X019683Y022390D01*
X019672Y022420D02*
X019455Y022420D01*
X019448Y022450D02*
X019661Y022450D01*
X019649Y022480D02*
X019440Y022480D01*
X019434Y022510D02*
X019644Y022510D01*
X019638Y022540D02*
X019431Y022540D01*
X019429Y022570D02*
X019633Y022570D01*
X019631Y022600D02*
X019426Y022600D01*
X019424Y022630D02*
X019631Y022630D01*
X019631Y022660D02*
X019426Y022660D01*
X019429Y022690D02*
X019633Y022690D01*
X019638Y022720D02*
X019431Y022720D01*
X019434Y022750D02*
X019643Y022750D01*
X019649Y022780D02*
X019440Y022780D01*
X019447Y022810D02*
X019660Y022810D01*
X019671Y022840D02*
X019455Y022840D01*
X019463Y022870D02*
X019682Y022870D01*
X019699Y022900D02*
X019473Y022900D01*
X019486Y022930D02*
X019716Y022930D01*
X019734Y022960D02*
X019499Y022960D01*
X019513Y022990D02*
X019760Y022990D01*
X019785Y023020D02*
X019530Y023020D01*
X019550Y023050D02*
X019816Y023050D01*
X019853Y023080D02*
X019569Y023080D01*
X019589Y023110D02*
X019895Y023110D01*
X019949Y023140D02*
X019617Y023140D01*
X019644Y023170D02*
X020027Y023170D01*
X019995Y023379D02*
X020259Y023379D01*
X020259Y023349D02*
X019910Y023349D01*
X019846Y023319D02*
X020259Y023319D01*
X020259Y023289D02*
X019791Y023289D01*
X019748Y023260D02*
X020259Y023260D01*
X020259Y023230D02*
X019709Y023230D01*
X019672Y023200D02*
X020259Y023200D01*
X020830Y022960D02*
X021065Y022960D01*
X021014Y022873D01*
X020979Y022779D01*
X020962Y022681D01*
X020962Y022580D01*
X020979Y022482D01*
X021014Y022388D01*
X021065Y022301D01*
X021130Y022225D01*
X021208Y022162D01*
X021295Y022113D01*
X021390Y022081D01*
X021489Y022065D01*
X021589Y022068D01*
X021589Y021855D01*
X021462Y021856D01*
X021336Y021878D01*
X021215Y021920D01*
X021103Y021982D01*
X021003Y022061D01*
X020917Y022155D01*
X020847Y022262D01*
X020796Y022379D01*
X020765Y022503D01*
X020755Y022631D01*
X020765Y022758D01*
X020796Y022882D01*
X020847Y022999D01*
X020917Y023106D01*
X021003Y023200D01*
X021103Y023279D01*
X021215Y023341D01*
X021336Y023383D01*
X021462Y023405D01*
X021589Y023406D01*
X021589Y023194D01*
X021489Y023196D01*
X021390Y023181D01*
X021295Y023148D01*
X021208Y023099D01*
X021130Y023036D01*
X021065Y022960D01*
X021047Y022930D02*
X020817Y022930D01*
X020804Y022900D02*
X021030Y022900D01*
X021013Y022870D02*
X020793Y022870D01*
X020786Y022840D02*
X021002Y022840D01*
X020991Y022810D02*
X020778Y022810D01*
X020771Y022780D02*
X020979Y022780D01*
X020974Y022750D02*
X020764Y022750D01*
X020762Y022720D02*
X020969Y022720D01*
X020963Y022690D02*
X020759Y022690D01*
X020757Y022660D02*
X020962Y022660D01*
X020962Y022630D02*
X020755Y022630D01*
X020757Y022600D02*
X020962Y022600D01*
X020964Y022570D02*
X020760Y022570D01*
X020762Y022540D02*
X020969Y022540D01*
X020974Y022510D02*
X020765Y022510D01*
X020771Y022480D02*
X020980Y022480D01*
X020991Y022450D02*
X020779Y022450D01*
X020786Y022420D02*
X021002Y022420D01*
X021013Y022390D02*
X020794Y022390D01*
X020805Y022360D02*
X021031Y022360D01*
X021048Y022330D02*
X020818Y022330D01*
X020831Y022300D02*
X021066Y022300D01*
X021092Y022270D02*
X020844Y022270D01*
X020862Y022240D02*
X021118Y022240D01*
X021149Y022210D02*
X020881Y022210D01*
X020901Y022180D02*
X021186Y022180D01*
X021230Y022150D02*
X020922Y022150D01*
X020949Y022120D02*
X021284Y022120D01*
X021364Y022090D02*
X020977Y022090D01*
X021004Y022060D02*
X021589Y022060D01*
X021589Y022030D02*
X021043Y022030D01*
X021081Y022000D02*
X021589Y022000D01*
X021589Y021970D02*
X021126Y021970D01*
X021180Y021940D02*
X021589Y021940D01*
X021589Y021910D02*
X021246Y021910D01*
X021331Y021880D02*
X021589Y021880D01*
X020259Y021880D02*
X020001Y021880D01*
X019915Y021910D02*
X020259Y021910D01*
X020259Y021940D02*
X019849Y021940D01*
X020843Y022990D02*
X021090Y022990D01*
X021116Y023020D02*
X020861Y023020D01*
X020880Y023050D02*
X021147Y023050D01*
X021184Y023080D02*
X020900Y023080D01*
X020920Y023110D02*
X021226Y023110D01*
X021280Y023140D02*
X020947Y023140D01*
X020975Y023170D02*
X021358Y023170D01*
X021326Y023379D02*
X021589Y023379D01*
X021589Y023349D02*
X021240Y023349D01*
X021177Y023319D02*
X021589Y023319D01*
X021589Y023289D02*
X021122Y023289D01*
X021078Y023260D02*
X021589Y023260D01*
X021589Y023230D02*
X021040Y023230D01*
X021002Y023200D02*
X021589Y023200D01*
X044687Y002660D02*
X044773Y002754D01*
X044874Y002833D01*
X044986Y002895D01*
X045106Y002937D01*
X045232Y002959D01*
X045360Y002960D01*
X045360Y002747D01*
X045260Y002750D01*
X045161Y002735D01*
X045066Y002702D01*
X044978Y002653D01*
X044901Y002590D01*
X044835Y002514D01*
X044785Y002427D01*
X044750Y002333D01*
X044732Y002235D01*
X044732Y002134D01*
X044750Y002036D01*
X044785Y001942D01*
X044835Y001855D01*
X044901Y001779D01*
X044978Y001716D01*
X045066Y001667D01*
X045161Y001634D01*
X045260Y001619D01*
X045360Y001622D01*
X045360Y001409D01*
X045232Y001410D01*
X045106Y001432D01*
X044986Y001474D01*
X044874Y001536D01*
X044773Y001615D01*
X044687Y001709D01*
X044618Y001816D01*
X044567Y001933D01*
X044536Y002057D01*
X044525Y002184D01*
X044536Y002312D01*
X044567Y002436D01*
X044618Y002553D01*
X044687Y002660D01*
X044682Y002652D02*
X044977Y002652D01*
X044940Y002622D02*
X044663Y002622D01*
X044643Y002592D02*
X044903Y002592D01*
X044877Y002562D02*
X044624Y002562D01*
X044609Y002532D02*
X044851Y002532D01*
X044829Y002502D02*
X044596Y002502D01*
X044583Y002472D02*
X044811Y002472D01*
X044793Y002442D02*
X044570Y002442D01*
X044561Y002412D02*
X044779Y002412D01*
X044768Y002382D02*
X044553Y002382D01*
X044546Y002352D02*
X044757Y002352D01*
X044748Y002322D02*
X044538Y002322D01*
X044534Y002292D02*
X044742Y002292D01*
X044737Y002262D02*
X044531Y002262D01*
X044529Y002232D02*
X044732Y002232D01*
X044732Y002202D02*
X044527Y002202D01*
X044526Y002172D02*
X044732Y002172D01*
X044732Y002142D02*
X044529Y002142D01*
X044531Y002112D02*
X044736Y002112D01*
X044742Y002082D02*
X044534Y002082D01*
X044537Y002052D02*
X044747Y002052D01*
X044755Y002022D02*
X044544Y002022D01*
X044552Y001992D02*
X044766Y001992D01*
X044777Y001962D02*
X044560Y001962D01*
X044567Y001932D02*
X044790Y001932D01*
X044808Y001902D02*
X044580Y001902D01*
X044593Y001872D02*
X044826Y001872D01*
X044847Y001842D02*
X044607Y001842D01*
X044620Y001812D02*
X044872Y001812D01*
X044898Y001782D02*
X044640Y001782D01*
X044659Y001752D02*
X044934Y001752D01*
X044970Y001722D02*
X044679Y001722D01*
X044703Y001692D02*
X045021Y001692D01*
X045080Y001662D02*
X044730Y001662D01*
X044758Y001632D02*
X045176Y001632D01*
X045360Y001602D02*
X044789Y001602D01*
X044828Y001572D02*
X045360Y001572D01*
X045360Y001542D02*
X044866Y001542D01*
X044917Y001512D02*
X045360Y001512D01*
X045360Y001482D02*
X044972Y001482D01*
X045049Y001452D02*
X045360Y001452D01*
X045360Y001422D02*
X045163Y001422D01*
X045949Y001816D02*
X045897Y001933D01*
X045866Y002057D01*
X045856Y002184D01*
X045866Y002312D01*
X045897Y002436D01*
X045949Y002553D01*
X046018Y002660D01*
X046104Y002754D01*
X046205Y002833D01*
X046317Y002895D01*
X046437Y002937D01*
X046563Y002959D01*
X046691Y002960D01*
X046691Y002747D01*
X046590Y002750D01*
X046491Y002735D01*
X046397Y002702D01*
X046309Y002653D01*
X046231Y002590D01*
X046166Y002514D01*
X046115Y002427D01*
X046081Y002333D01*
X046063Y002235D01*
X046063Y002134D01*
X046081Y002036D01*
X046115Y001942D01*
X046166Y001855D01*
X046231Y001779D01*
X046309Y001716D01*
X046397Y001667D01*
X046491Y001634D01*
X046590Y001619D01*
X046691Y001622D01*
X046691Y001409D01*
X046563Y001410D01*
X046437Y001432D01*
X046317Y001474D01*
X046205Y001536D01*
X046104Y001615D01*
X046018Y001709D01*
X045949Y001816D01*
X045951Y001812D02*
X046203Y001812D01*
X046229Y001782D02*
X045971Y001782D01*
X045990Y001752D02*
X046264Y001752D01*
X046301Y001722D02*
X046010Y001722D01*
X046033Y001692D02*
X046351Y001692D01*
X046411Y001662D02*
X046061Y001662D01*
X046088Y001632D02*
X046506Y001632D01*
X046691Y001602D02*
X046120Y001602D01*
X046158Y001572D02*
X046691Y001572D01*
X046691Y001542D02*
X046196Y001542D01*
X046248Y001512D02*
X046691Y001512D01*
X046691Y001482D02*
X046302Y001482D01*
X046380Y001452D02*
X046691Y001452D01*
X046691Y001422D02*
X046493Y001422D01*
X046177Y001842D02*
X045937Y001842D01*
X045924Y001872D02*
X046156Y001872D01*
X046139Y001902D02*
X045911Y001902D01*
X045898Y001932D02*
X046121Y001932D01*
X046108Y001962D02*
X045890Y001962D01*
X045883Y001992D02*
X046097Y001992D01*
X046086Y002022D02*
X045875Y002022D01*
X045868Y002052D02*
X046078Y002052D01*
X046072Y002082D02*
X045864Y002082D01*
X045862Y002112D02*
X046067Y002112D01*
X046063Y002142D02*
X045859Y002142D01*
X045857Y002172D02*
X046063Y002172D01*
X046063Y002202D02*
X045857Y002202D01*
X045860Y002232D02*
X046063Y002232D01*
X046068Y002262D02*
X045862Y002262D01*
X045865Y002292D02*
X046073Y002292D01*
X046079Y002322D02*
X045869Y002322D01*
X045876Y002352D02*
X046087Y002352D01*
X046099Y002382D02*
X045884Y002382D01*
X045892Y002412D02*
X046110Y002412D01*
X046124Y002442D02*
X045900Y002442D01*
X045913Y002472D02*
X046142Y002472D01*
X046159Y002502D02*
X045926Y002502D01*
X045939Y002532D02*
X046182Y002532D01*
X046208Y002562D02*
X045955Y002562D01*
X045974Y002592D02*
X046234Y002592D01*
X046271Y002622D02*
X045993Y002622D01*
X046013Y002652D02*
X046308Y002652D01*
X046361Y002682D02*
X046038Y002682D01*
X046066Y002712D02*
X046426Y002712D01*
X046540Y002742D02*
X046093Y002742D01*
X046127Y002772D02*
X046691Y002772D01*
X046691Y002802D02*
X046165Y002802D01*
X046203Y002832D02*
X046691Y002832D01*
X046691Y002862D02*
X046257Y002862D01*
X046312Y002892D02*
X046691Y002892D01*
X046691Y002922D02*
X046394Y002922D01*
X046523Y002952D02*
X046691Y002952D01*
X045360Y002952D02*
X045192Y002952D01*
X045064Y002922D02*
X045360Y002922D01*
X045360Y002892D02*
X044981Y002892D01*
X044926Y002862D02*
X045360Y002862D01*
X045360Y002832D02*
X044872Y002832D01*
X044834Y002802D02*
X045360Y002802D01*
X045360Y002772D02*
X044796Y002772D01*
X044762Y002742D02*
X045209Y002742D01*
X045095Y002712D02*
X044735Y002712D01*
X044708Y002682D02*
X045030Y002682D01*
D38*
X047910Y003211D02*
X047910Y001277D01*
X042043Y001277D01*
X042043Y003211D01*
X047910Y003211D01*
X018353Y022107D02*
X018270Y022033D01*
X018176Y021973D01*
X018075Y021927D01*
X017968Y021898D01*
X017857Y021885D01*
X017741Y021898D01*
X017629Y021929D01*
X017523Y021977D01*
X017426Y022041D01*
X017340Y022120D01*
X017268Y022212D01*
X017211Y022313D01*
X017171Y022423D01*
X017148Y022537D01*
X017144Y022653D01*
X017147Y022770D01*
X017168Y022885D01*
X017207Y022996D01*
X017263Y023098D01*
X017335Y023191D01*
X017420Y023271D01*
X017518Y023336D01*
X017624Y023385D01*
X017737Y023416D01*
X017853Y023429D01*
X017966Y023417D01*
X018076Y023388D01*
X018179Y023341D01*
X018274Y023277D01*
X018357Y023200D01*
X018426Y023110D01*
X018480Y023010D01*
X018484Y023010D01*
X018284Y023010D01*
X018232Y023077D01*
X018169Y023135D01*
X018098Y023181D01*
X018020Y023216D01*
X017938Y023237D01*
X017853Y023245D01*
X017756Y023232D01*
X017662Y023204D01*
X017575Y023159D01*
X017496Y023101D01*
X017429Y023029D01*
X017374Y022948D01*
X017335Y022858D01*
X017312Y022763D01*
X017305Y022665D01*
X017308Y022564D01*
X017329Y022466D01*
X017367Y022373D01*
X017422Y022288D01*
X017490Y022214D01*
X017570Y022154D01*
X017660Y022109D01*
X017757Y022080D01*
X017857Y022069D01*
X017955Y022083D01*
X018049Y022113D01*
X018137Y022158D01*
X018216Y022217D01*
X018284Y022289D01*
X018480Y022289D01*
X018423Y022193D01*
X018353Y022107D01*
X018367Y022124D02*
X018071Y022124D01*
X018137Y022158D02*
X018394Y022158D01*
X018422Y022192D02*
X018182Y022192D01*
X018224Y022226D02*
X018443Y022226D01*
X018463Y022260D02*
X018256Y022260D01*
X018149Y022370D02*
X018188Y022427D01*
X018217Y022489D01*
X018065Y022489D01*
X018032Y022449D01*
X017993Y022416D01*
X017948Y022391D01*
X017900Y022375D01*
X017849Y022367D01*
X017795Y022375D01*
X017744Y022394D01*
X017697Y022422D01*
X017656Y022459D01*
X017624Y022503D01*
X017601Y022553D01*
X017589Y022606D01*
X017587Y022661D01*
X017589Y022715D01*
X017602Y022768D01*
X017625Y022817D01*
X017657Y022861D01*
X017697Y022898D01*
X017744Y022925D01*
X017795Y022943D01*
X017849Y022951D01*
X017900Y022945D01*
X017948Y022929D01*
X017992Y022904D01*
X018030Y022870D01*
X018061Y022829D01*
X018217Y022829D01*
X018182Y022901D01*
X018133Y022964D01*
X018073Y023016D01*
X018004Y023056D01*
X017928Y023081D01*
X017849Y023092D01*
X017770Y023078D01*
X017694Y023049D01*
X017625Y023007D01*
X017566Y022953D01*
X017517Y022888D01*
X017482Y022815D01*
X017460Y022738D01*
X017454Y022657D01*
X017460Y022577D01*
X017481Y022499D01*
X017516Y022427D01*
X017565Y022362D01*
X017625Y022308D01*
X017694Y022267D01*
X017770Y022239D01*
X017849Y022226D01*
X017917Y022233D01*
X017983Y022252D01*
X018045Y022282D01*
X018101Y022322D01*
X018149Y022370D01*
X018141Y022362D02*
X017566Y022362D01*
X017540Y022396D02*
X017740Y022396D01*
X017688Y022430D02*
X017515Y022430D01*
X017498Y022463D02*
X017653Y022463D01*
X017628Y022497D02*
X017482Y022497D01*
X017472Y022531D02*
X017611Y022531D01*
X017598Y022565D02*
X017463Y022565D01*
X017458Y022599D02*
X017590Y022599D01*
X017588Y022633D02*
X017455Y022633D01*
X017454Y022667D02*
X017587Y022667D01*
X017588Y022701D02*
X017457Y022701D01*
X017460Y022735D02*
X017594Y022735D01*
X017602Y022769D02*
X017469Y022769D01*
X017478Y022803D02*
X017618Y022803D01*
X017639Y022837D02*
X017492Y022837D01*
X017509Y022871D02*
X017667Y022871D01*
X017709Y022905D02*
X017530Y022905D01*
X017555Y022939D02*
X017781Y022939D01*
X017760Y023074D02*
X017949Y023074D01*
X018030Y023040D02*
X017680Y023040D01*
X017625Y023006D02*
X018084Y023006D01*
X018123Y022972D02*
X017588Y022972D01*
X017471Y023074D02*
X017250Y023074D01*
X017231Y023040D02*
X017439Y023040D01*
X017413Y023006D02*
X017213Y023006D01*
X017199Y022972D02*
X017391Y022972D01*
X017370Y022939D02*
X017187Y022939D01*
X017175Y022905D02*
X017356Y022905D01*
X017341Y022871D02*
X017165Y022871D01*
X017159Y022837D02*
X017330Y022837D01*
X017321Y022803D02*
X017153Y022803D01*
X017147Y022769D02*
X017313Y022769D01*
X017310Y022735D02*
X017146Y022735D01*
X017128Y022735D02*
X016396Y022735D01*
X016396Y022769D02*
X016611Y022769D01*
X016611Y022743D02*
X017128Y022743D01*
X017128Y022575D01*
X016607Y022575D01*
X016607Y021881D01*
X016396Y021881D01*
X016396Y023397D01*
X017105Y023397D01*
X017105Y023194D01*
X016611Y023194D01*
X016611Y022743D01*
X016611Y022803D02*
X016396Y022803D01*
X016396Y022837D02*
X016611Y022837D01*
X016611Y022871D02*
X016396Y022871D01*
X016396Y022905D02*
X016611Y022905D01*
X016611Y022939D02*
X016396Y022939D01*
X016396Y022972D02*
X016611Y022972D01*
X016611Y023006D02*
X016396Y023006D01*
X016396Y023040D02*
X016611Y023040D01*
X016611Y023074D02*
X016396Y023074D01*
X016396Y023108D02*
X016611Y023108D01*
X016611Y023142D02*
X016396Y023142D01*
X016396Y023176D02*
X016611Y023176D01*
X016396Y023210D02*
X017105Y023210D01*
X017105Y023244D02*
X016396Y023244D01*
X016396Y023278D02*
X017105Y023278D01*
X017105Y023312D02*
X016396Y023312D01*
X016396Y023346D02*
X017105Y023346D01*
X017105Y023380D02*
X016396Y023380D01*
X016396Y022701D02*
X017128Y022701D01*
X017145Y022701D02*
X017307Y022701D01*
X017305Y022667D02*
X017144Y022667D01*
X017128Y022667D02*
X016396Y022667D01*
X016396Y022633D02*
X017128Y022633D01*
X017145Y022633D02*
X017306Y022633D01*
X017307Y022599D02*
X017146Y022599D01*
X017128Y022599D02*
X016396Y022599D01*
X016396Y022565D02*
X016607Y022565D01*
X016607Y022531D02*
X016396Y022531D01*
X016396Y022497D02*
X016607Y022497D01*
X016607Y022463D02*
X016396Y022463D01*
X016396Y022430D02*
X016607Y022430D01*
X016607Y022396D02*
X016396Y022396D01*
X016396Y022362D02*
X016607Y022362D01*
X016607Y022328D02*
X016396Y022328D01*
X016396Y022294D02*
X016607Y022294D01*
X016607Y022260D02*
X016396Y022260D01*
X016396Y022226D02*
X016607Y022226D01*
X016607Y022192D02*
X016396Y022192D01*
X016396Y022158D02*
X016607Y022158D01*
X016607Y022124D02*
X016396Y022124D01*
X016396Y022090D02*
X016607Y022090D01*
X016607Y022056D02*
X016396Y022056D01*
X016396Y022022D02*
X016607Y022022D01*
X016607Y021988D02*
X016396Y021988D01*
X016396Y021954D02*
X016607Y021954D01*
X016607Y021921D02*
X016396Y021921D01*
X016396Y021887D02*
X016607Y021887D01*
X017241Y022260D02*
X017448Y022260D01*
X017418Y022294D02*
X017222Y022294D01*
X017206Y022328D02*
X017396Y022328D01*
X017374Y022362D02*
X017193Y022362D01*
X017181Y022396D02*
X017358Y022396D01*
X017344Y022430D02*
X017169Y022430D01*
X017163Y022463D02*
X017330Y022463D01*
X017322Y022497D02*
X017156Y022497D01*
X017149Y022531D02*
X017315Y022531D01*
X017308Y022565D02*
X017147Y022565D01*
X017260Y022226D02*
X017479Y022226D01*
X017520Y022192D02*
X017283Y022192D01*
X017310Y022158D02*
X017565Y022158D01*
X017630Y022124D02*
X017337Y022124D01*
X017373Y022090D02*
X017723Y022090D01*
X017713Y022260D02*
X018000Y022260D01*
X018062Y022294D02*
X017649Y022294D01*
X017603Y022328D02*
X018107Y022328D01*
X018167Y022396D02*
X017956Y022396D01*
X018009Y022430D02*
X018190Y022430D01*
X018206Y022463D02*
X018044Y022463D01*
X018055Y022837D02*
X018214Y022837D01*
X018197Y022871D02*
X018029Y022871D01*
X017990Y022905D02*
X018179Y022905D01*
X018152Y022939D02*
X017919Y022939D01*
X018033Y023210D02*
X018346Y023210D01*
X018375Y023176D02*
X018106Y023176D01*
X018158Y023142D02*
X018401Y023142D01*
X018427Y023108D02*
X018198Y023108D01*
X018234Y023074D02*
X018445Y023074D01*
X018463Y023040D02*
X018260Y023040D01*
X018310Y023244D02*
X017862Y023244D01*
X017847Y023244D02*
X017392Y023244D01*
X017356Y023210D02*
X017683Y023210D01*
X017608Y023176D02*
X017323Y023176D01*
X017297Y023142D02*
X017552Y023142D01*
X017506Y023108D02*
X017271Y023108D01*
X017431Y023278D02*
X018273Y023278D01*
X018222Y023312D02*
X017482Y023312D01*
X017540Y023346D02*
X018168Y023346D01*
X018093Y023380D02*
X017613Y023380D01*
X017729Y023414D02*
X017980Y023414D01*
X017977Y022090D02*
X018334Y022090D01*
X018296Y022056D02*
X017410Y022056D01*
X017455Y022022D02*
X018253Y022022D01*
X018201Y021988D02*
X017506Y021988D01*
X017573Y021954D02*
X018136Y021954D01*
X018050Y021921D02*
X017660Y021921D01*
X017846Y021887D02*
X017868Y021887D01*
X008033Y003200D02*
X002165Y003200D01*
X002165Y001266D01*
X008033Y001266D01*
X008033Y003200D01*
D39*
X004084Y002514D02*
X004081Y002514D01*
X004041Y002589D01*
X003989Y002657D01*
X003926Y002715D01*
X003856Y002763D01*
X003778Y002798D01*
X003696Y002820D01*
X003611Y002829D01*
X003514Y002817D01*
X003421Y002789D01*
X003334Y002744D01*
X003257Y002685D01*
X003191Y002613D01*
X003139Y002530D01*
X003102Y002440D01*
X003082Y002345D01*
X003079Y002247D01*
X003083Y002150D01*
X003105Y002055D01*
X003142Y001966D01*
X003195Y001884D01*
X003261Y001813D01*
X003338Y001755D01*
X003425Y001711D01*
X003518Y001683D01*
X003614Y001671D01*
X003697Y001681D01*
X003777Y001703D01*
X003853Y001737D01*
X003923Y001782D01*
X003986Y001838D01*
X004039Y001902D01*
X004081Y001974D01*
X003934Y001974D01*
X003883Y001920D01*
X003824Y001876D01*
X003758Y001842D01*
X003687Y001820D01*
X003614Y001809D01*
X003539Y001817D01*
X003466Y001839D01*
X003399Y001873D01*
X003339Y001918D01*
X003287Y001973D01*
X003247Y002037D01*
X003218Y002107D01*
X003202Y002180D01*
X003200Y002256D01*
X003205Y002329D01*
X003222Y002401D01*
X003252Y002468D01*
X003293Y002529D01*
X003343Y002583D01*
X003402Y002627D01*
X003468Y002660D01*
X003538Y002681D01*
X003611Y002691D01*
X003675Y002685D01*
X003736Y002669D01*
X003795Y002643D01*
X003848Y002608D01*
X003895Y002565D01*
X003934Y002514D01*
X004084Y002514D01*
X004068Y002538D02*
X003916Y002538D01*
X003896Y002563D02*
X004055Y002563D01*
X004041Y002588D02*
X003869Y002588D01*
X003840Y002613D02*
X004022Y002613D01*
X004003Y002638D02*
X003802Y002638D01*
X003749Y002664D02*
X003982Y002664D01*
X003955Y002689D02*
X003634Y002689D01*
X003594Y002689D02*
X003262Y002689D01*
X003237Y002664D02*
X003479Y002664D01*
X003425Y002638D02*
X003214Y002638D01*
X003191Y002613D02*
X003384Y002613D01*
X003351Y002588D02*
X003175Y002588D01*
X003160Y002563D02*
X003325Y002563D01*
X003301Y002538D02*
X003144Y002538D01*
X003132Y002513D02*
X003282Y002513D01*
X003265Y002488D02*
X003122Y002488D01*
X003112Y002463D02*
X003250Y002463D01*
X003239Y002438D02*
X003102Y002438D01*
X003097Y002413D02*
X003228Y002413D01*
X003219Y002388D02*
X003091Y002388D01*
X003086Y002363D02*
X003213Y002363D01*
X003207Y002338D02*
X003082Y002338D01*
X003081Y002312D02*
X003204Y002312D01*
X003202Y002287D02*
X003080Y002287D01*
X003067Y002287D02*
X002518Y002287D01*
X002518Y002262D02*
X003067Y002262D01*
X003080Y002262D02*
X003200Y002262D01*
X003200Y002237D02*
X003080Y002237D01*
X003067Y002237D02*
X002518Y002237D01*
X002518Y002212D02*
X003067Y002212D01*
X003081Y002212D02*
X003201Y002212D01*
X003202Y002187D02*
X003082Y002187D01*
X003067Y002188D02*
X002677Y002188D01*
X002677Y001668D01*
X002518Y001668D01*
X002518Y002805D01*
X003050Y002805D01*
X003050Y002653D01*
X002680Y002653D01*
X002680Y002315D01*
X003067Y002315D01*
X003067Y002188D01*
X003083Y002162D02*
X003206Y002162D01*
X003211Y002137D02*
X003086Y002137D01*
X003092Y002112D02*
X003217Y002112D01*
X003226Y002087D02*
X003098Y002087D01*
X003103Y002062D02*
X003236Y002062D01*
X003247Y002037D02*
X003113Y002037D01*
X003123Y002012D02*
X003263Y002012D01*
X003279Y001986D02*
X003134Y001986D01*
X003145Y001961D02*
X003298Y001961D01*
X003321Y001936D02*
X003161Y001936D01*
X003177Y001911D02*
X003347Y001911D01*
X003381Y001886D02*
X003194Y001886D01*
X003216Y001861D02*
X003422Y001861D01*
X003475Y001836D02*
X003240Y001836D01*
X003264Y001811D02*
X003598Y001811D01*
X003626Y001811D02*
X003956Y001811D01*
X003984Y001836D02*
X003739Y001836D01*
X003795Y001861D02*
X004005Y001861D01*
X004026Y001886D02*
X003838Y001886D01*
X003871Y001911D02*
X004044Y001911D01*
X004059Y001936D02*
X003898Y001936D01*
X003922Y001961D02*
X004074Y001961D01*
X003928Y001786D02*
X003297Y001786D01*
X003330Y001761D02*
X003891Y001761D01*
X003851Y001736D02*
X003376Y001736D01*
X003425Y001711D02*
X003795Y001711D01*
X003715Y001686D02*
X003508Y001686D01*
X003548Y001936D02*
X003608Y001927D01*
X003668Y001934D01*
X003724Y001953D01*
X003777Y001983D01*
X003822Y002022D01*
X003858Y002070D01*
X003884Y002124D01*
X003770Y002124D01*
X003738Y002087D01*
X003699Y002059D01*
X003655Y002041D01*
X003608Y002033D01*
X003562Y002040D01*
X003518Y002058D01*
X003480Y002085D01*
X003449Y002120D01*
X003426Y002161D01*
X003413Y002206D01*
X003411Y002253D01*
X003414Y002299D01*
X003427Y002344D01*
X003449Y002385D01*
X003480Y002419D01*
X003519Y002446D01*
X003562Y002463D01*
X003608Y002470D01*
X003646Y002466D01*
X003682Y002454D01*
X003715Y002435D01*
X003744Y002410D01*
X003767Y002379D01*
X003884Y002379D01*
X003857Y002433D01*
X003821Y002480D01*
X003776Y002519D01*
X003724Y002549D01*
X003667Y002568D01*
X003608Y002576D01*
X003548Y002566D01*
X003492Y002544D01*
X003440Y002512D01*
X003395Y002472D01*
X003359Y002423D01*
X003332Y002369D01*
X003316Y002310D01*
X003311Y002250D01*
X003316Y002190D01*
X003332Y002131D01*
X003358Y002077D01*
X003395Y002029D01*
X003440Y001988D01*
X003492Y001957D01*
X003548Y001936D01*
X003549Y001936D02*
X003675Y001936D01*
X003740Y001961D02*
X003485Y001961D01*
X003443Y001986D02*
X003781Y001986D01*
X003810Y002012D02*
X003414Y002012D01*
X003389Y002037D02*
X003583Y002037D01*
X003632Y002037D02*
X003833Y002037D01*
X003852Y002062D02*
X003703Y002062D01*
X003737Y002087D02*
X003866Y002087D01*
X003878Y002112D02*
X003759Y002112D01*
X003513Y002062D02*
X003370Y002062D01*
X003354Y002087D02*
X003478Y002087D01*
X003456Y002112D02*
X003341Y002112D01*
X003330Y002137D02*
X003439Y002137D01*
X003426Y002162D02*
X003323Y002162D01*
X003317Y002187D02*
X003419Y002187D01*
X003413Y002212D02*
X003314Y002212D01*
X003312Y002237D02*
X003412Y002237D01*
X003412Y002262D02*
X003312Y002262D01*
X003314Y002287D02*
X003413Y002287D01*
X003417Y002312D02*
X003317Y002312D01*
X003324Y002338D02*
X003425Y002338D01*
X003437Y002363D02*
X003331Y002363D01*
X003342Y002388D02*
X003452Y002388D01*
X003474Y002413D02*
X003354Y002413D01*
X003370Y002438D02*
X003507Y002438D01*
X003561Y002463D02*
X003389Y002463D01*
X003413Y002488D02*
X003811Y002488D01*
X003834Y002463D02*
X003655Y002463D01*
X003710Y002438D02*
X003853Y002438D01*
X003867Y002413D02*
X003740Y002413D01*
X003760Y002388D02*
X003880Y002388D01*
X003782Y002513D02*
X003441Y002513D01*
X003482Y002538D02*
X003742Y002538D01*
X003682Y002563D02*
X003542Y002563D01*
X003504Y002814D02*
X003719Y002814D01*
X003798Y002789D02*
X003422Y002789D01*
X003373Y002764D02*
X003853Y002764D01*
X003891Y002739D02*
X003327Y002739D01*
X003295Y002714D02*
X003928Y002714D01*
X003050Y002714D02*
X002518Y002714D01*
X002518Y002739D02*
X003050Y002739D01*
X003050Y002764D02*
X002518Y002764D01*
X002518Y002789D02*
X003050Y002789D01*
X003050Y002689D02*
X002518Y002689D01*
X002518Y002664D02*
X003050Y002664D01*
X003067Y002312D02*
X002518Y002312D01*
X002518Y002338D02*
X002680Y002338D01*
X002680Y002363D02*
X002518Y002363D01*
X002518Y002388D02*
X002680Y002388D01*
X002680Y002413D02*
X002518Y002413D01*
X002518Y002438D02*
X002680Y002438D01*
X002680Y002463D02*
X002518Y002463D01*
X002518Y002488D02*
X002680Y002488D01*
X002680Y002513D02*
X002518Y002513D01*
X002518Y002538D02*
X002680Y002538D01*
X002680Y002563D02*
X002518Y002563D01*
X002518Y002588D02*
X002680Y002588D01*
X002680Y002613D02*
X002518Y002613D01*
X002518Y002638D02*
X002680Y002638D01*
X002677Y002187D02*
X002518Y002187D01*
X002518Y002162D02*
X002677Y002162D01*
X002677Y002137D02*
X002518Y002137D01*
X002518Y002112D02*
X002677Y002112D01*
X002677Y002087D02*
X002518Y002087D01*
X002518Y002062D02*
X002677Y002062D01*
X002677Y002037D02*
X002518Y002037D01*
X002518Y002012D02*
X002677Y002012D01*
X002677Y001986D02*
X002518Y001986D01*
X002518Y001961D02*
X002677Y001961D01*
X002677Y001936D02*
X002518Y001936D01*
X002518Y001911D02*
X002677Y001911D01*
X002677Y001886D02*
X002518Y001886D01*
X002518Y001861D02*
X002677Y001861D01*
X002677Y001836D02*
X002518Y001836D01*
X002518Y001811D02*
X002677Y001811D01*
X002677Y001786D02*
X002518Y001786D01*
X002518Y001761D02*
X002677Y001761D01*
X002677Y001736D02*
X002518Y001736D01*
X002518Y001711D02*
X002677Y001711D01*
X002677Y001686D02*
X002518Y001686D01*
X042395Y001686D02*
X042554Y001686D01*
X042554Y001679D02*
X042395Y001679D01*
X042395Y002816D01*
X042927Y002816D01*
X042927Y002663D01*
X042557Y002663D01*
X042557Y002326D01*
X042944Y002326D01*
X042944Y002199D01*
X042554Y002199D01*
X042554Y001679D01*
X042554Y001711D02*
X042395Y001711D01*
X042395Y001736D02*
X042554Y001736D01*
X042554Y001761D02*
X042395Y001761D01*
X042395Y001786D02*
X042554Y001786D01*
X042554Y001811D02*
X042395Y001811D01*
X042395Y001836D02*
X042554Y001836D01*
X042554Y001861D02*
X042395Y001861D01*
X042395Y001886D02*
X042554Y001886D01*
X042554Y001911D02*
X042395Y001911D01*
X042395Y001936D02*
X042554Y001936D01*
X042554Y001961D02*
X042395Y001961D01*
X042395Y001986D02*
X042554Y001986D01*
X042554Y002012D02*
X042395Y002012D01*
X042395Y002037D02*
X042554Y002037D01*
X042554Y002062D02*
X042395Y002062D01*
X042395Y002087D02*
X042554Y002087D01*
X042554Y002112D02*
X042395Y002112D01*
X042395Y002137D02*
X042554Y002137D01*
X042554Y002162D02*
X042395Y002162D01*
X042395Y002187D02*
X042554Y002187D01*
X042557Y002338D02*
X042395Y002338D01*
X042395Y002363D02*
X042557Y002363D01*
X042557Y002388D02*
X042395Y002388D01*
X042395Y002413D02*
X042557Y002413D01*
X042557Y002438D02*
X042395Y002438D01*
X042395Y002463D02*
X042557Y002463D01*
X042557Y002488D02*
X042395Y002488D01*
X042395Y002513D02*
X042557Y002513D01*
X042557Y002538D02*
X042395Y002538D01*
X042395Y002563D02*
X042557Y002563D01*
X042557Y002588D02*
X042395Y002588D01*
X042395Y002613D02*
X042557Y002613D01*
X042557Y002638D02*
X042395Y002638D01*
X042395Y002664D02*
X042927Y002664D01*
X042927Y002689D02*
X042395Y002689D01*
X042395Y002714D02*
X042927Y002714D01*
X042927Y002739D02*
X042395Y002739D01*
X042395Y002764D02*
X042927Y002764D01*
X042927Y002789D02*
X042395Y002789D01*
X042395Y002814D02*
X042927Y002814D01*
X043104Y002664D02*
X043330Y002664D01*
X043345Y002671D02*
X043279Y002638D01*
X043220Y002594D01*
X043170Y002540D01*
X043129Y002479D01*
X043099Y002412D01*
X043082Y002340D01*
X043077Y002267D01*
X043079Y002191D01*
X043095Y002118D01*
X043124Y002048D01*
X043164Y001984D01*
X043216Y001929D01*
X043276Y001883D01*
X043343Y001850D01*
X043416Y001828D01*
X043491Y001820D01*
X043564Y001830D01*
X043635Y001853D01*
X043701Y001887D01*
X043760Y001931D01*
X043811Y001985D01*
X043958Y001985D01*
X043916Y001913D01*
X043863Y001849D01*
X043800Y001793D01*
X043730Y001748D01*
X043654Y001714D01*
X043574Y001692D01*
X043491Y001682D01*
X043395Y001694D01*
X043302Y001722D01*
X043215Y001766D01*
X043138Y001824D01*
X043072Y001895D01*
X043019Y001977D01*
X042982Y002066D01*
X042961Y002161D01*
X042956Y002258D01*
X042959Y002355D01*
X042979Y002451D01*
X043016Y002541D01*
X043068Y002624D01*
X043134Y002696D01*
X043211Y002755D01*
X043298Y002799D01*
X043391Y002828D01*
X043488Y002840D01*
X043573Y002831D01*
X043655Y002809D01*
X043733Y002774D01*
X043804Y002726D01*
X043866Y002668D01*
X043918Y002600D01*
X043958Y002525D01*
X043961Y002525D01*
X043811Y002525D01*
X043772Y002576D01*
X043725Y002619D01*
X043672Y002654D01*
X043613Y002680D01*
X043552Y002696D01*
X043488Y002702D01*
X043415Y002692D01*
X043345Y002671D01*
X043403Y002689D02*
X043127Y002689D01*
X043157Y002714D02*
X043817Y002714D01*
X043844Y002689D02*
X043580Y002689D01*
X043650Y002664D02*
X043869Y002664D01*
X043888Y002638D02*
X043695Y002638D01*
X043731Y002613D02*
X043908Y002613D01*
X043924Y002588D02*
X043758Y002588D01*
X043782Y002563D02*
X043938Y002563D01*
X043951Y002538D02*
X043801Y002538D01*
X043719Y002463D02*
X043562Y002463D01*
X043559Y002465D02*
X043592Y002446D01*
X043621Y002421D01*
X043644Y002390D01*
X043761Y002390D01*
X043734Y002444D01*
X043698Y002491D01*
X043653Y002530D01*
X043601Y002560D01*
X043544Y002579D01*
X043485Y002587D01*
X043425Y002576D01*
X043369Y002555D01*
X043317Y002523D01*
X043272Y002482D01*
X043236Y002434D01*
X043209Y002380D01*
X043193Y002321D01*
X043188Y002261D01*
X043193Y002201D01*
X043209Y002142D01*
X043235Y002088D01*
X043272Y002040D01*
X043317Y001999D01*
X043369Y001968D01*
X043425Y001947D01*
X043485Y001938D01*
X043545Y001945D01*
X043602Y001964D01*
X043654Y001993D01*
X043699Y002033D01*
X043735Y002081D01*
X043761Y002135D01*
X043647Y002135D01*
X043615Y002098D01*
X043577Y002070D01*
X043532Y002052D01*
X043485Y002043D01*
X043439Y002051D01*
X043395Y002069D01*
X043357Y002096D01*
X043326Y002131D01*
X043303Y002172D01*
X043290Y002217D01*
X043288Y002264D01*
X043291Y002310D01*
X043304Y002355D01*
X043326Y002396D01*
X043358Y002430D01*
X043396Y002457D01*
X043439Y002474D01*
X043485Y002481D01*
X043523Y002477D01*
X043559Y002465D01*
X043601Y002438D02*
X043737Y002438D01*
X043750Y002413D02*
X043627Y002413D01*
X043700Y002488D02*
X043278Y002488D01*
X043258Y002463D02*
X043411Y002463D01*
X043368Y002438D02*
X043239Y002438D01*
X043226Y002413D02*
X043342Y002413D01*
X043322Y002388D02*
X043213Y002388D01*
X043205Y002363D02*
X043308Y002363D01*
X043299Y002338D02*
X043198Y002338D01*
X043193Y002312D02*
X043291Y002312D01*
X043289Y002287D02*
X043190Y002287D01*
X043188Y002262D02*
X043288Y002262D01*
X043289Y002237D02*
X043190Y002237D01*
X043192Y002212D02*
X043292Y002212D01*
X043299Y002187D02*
X043197Y002187D01*
X043203Y002162D02*
X043309Y002162D01*
X043322Y002137D02*
X043211Y002137D01*
X043224Y002112D02*
X043343Y002112D01*
X043370Y002087D02*
X043236Y002087D01*
X043255Y002062D02*
X043412Y002062D01*
X043387Y001961D02*
X043595Y001961D01*
X043642Y001986D02*
X043338Y001986D01*
X043303Y002012D02*
X043674Y002012D01*
X043702Y002037D02*
X043275Y002037D01*
X043185Y001961D02*
X043029Y001961D01*
X043015Y001986D02*
X043163Y001986D01*
X043147Y002012D02*
X043005Y002012D01*
X042994Y002037D02*
X043131Y002037D01*
X043118Y002062D02*
X042984Y002062D01*
X042977Y002087D02*
X043108Y002087D01*
X043097Y002112D02*
X042972Y002112D01*
X042966Y002137D02*
X043091Y002137D01*
X043085Y002162D02*
X042961Y002162D01*
X042959Y002187D02*
X043080Y002187D01*
X043078Y002212D02*
X042958Y002212D01*
X042944Y002212D02*
X042395Y002212D01*
X042395Y002237D02*
X042944Y002237D01*
X042957Y002237D02*
X043078Y002237D01*
X043077Y002262D02*
X042956Y002262D01*
X042944Y002262D02*
X042395Y002262D01*
X042395Y002287D02*
X042944Y002287D01*
X042957Y002287D02*
X043078Y002287D01*
X043080Y002312D02*
X042958Y002312D01*
X042944Y002312D02*
X042395Y002312D01*
X042959Y002338D02*
X043082Y002338D01*
X043087Y002363D02*
X042961Y002363D01*
X042966Y002388D02*
X043094Y002388D01*
X043100Y002413D02*
X042971Y002413D01*
X042977Y002438D02*
X043111Y002438D01*
X043122Y002463D02*
X042984Y002463D01*
X042994Y002488D02*
X043135Y002488D01*
X043152Y002513D02*
X043005Y002513D01*
X043015Y002538D02*
X043168Y002538D01*
X043191Y002563D02*
X043030Y002563D01*
X043046Y002588D02*
X043215Y002588D01*
X043247Y002613D02*
X043062Y002613D01*
X043082Y002638D02*
X043281Y002638D01*
X043341Y002538D02*
X043638Y002538D01*
X043672Y002513D02*
X043306Y002513D01*
X043391Y002563D02*
X043591Y002563D01*
X043699Y002789D02*
X043277Y002789D01*
X043229Y002764D02*
X043747Y002764D01*
X043785Y002739D02*
X043190Y002739D01*
X043345Y002814D02*
X043636Y002814D01*
X043494Y002839D02*
X043483Y002839D01*
X043627Y002112D02*
X043750Y002112D01*
X043738Y002087D02*
X043599Y002087D01*
X043557Y002062D02*
X043721Y002062D01*
X043789Y001961D02*
X043944Y001961D01*
X043929Y001936D02*
X043765Y001936D01*
X043734Y001911D02*
X043914Y001911D01*
X043894Y001886D02*
X043700Y001886D01*
X043651Y001861D02*
X043873Y001861D01*
X043849Y001836D02*
X043582Y001836D01*
X043644Y001711D02*
X043338Y001711D01*
X043274Y001736D02*
X043704Y001736D01*
X043751Y001761D02*
X043225Y001761D01*
X043189Y001786D02*
X043789Y001786D01*
X043821Y001811D02*
X043155Y001811D01*
X043127Y001836D02*
X043389Y001836D01*
X043320Y001861D02*
X043104Y001861D01*
X043080Y001886D02*
X043272Y001886D01*
X043239Y001911D02*
X043061Y001911D01*
X043045Y001936D02*
X043209Y001936D01*
X043462Y001686D02*
X043522Y001686D01*
D40*
X023749Y021082D02*
X015926Y021082D01*
X015926Y024318D01*
X023749Y024318D01*
X023749Y021082D01*
D41*
X037525Y011511D02*
X037763Y011749D01*
X038109Y011467D01*
X038201Y011517D01*
X038297Y011557D01*
X038398Y011586D01*
X038443Y012031D01*
X038779Y012031D01*
X038824Y011586D01*
X038925Y011557D01*
X039021Y011517D01*
X039113Y011467D01*
X039459Y011749D01*
X039697Y011511D01*
X039414Y011165D01*
X039453Y011097D01*
X039486Y011026D01*
X039009Y010828D01*
X038971Y010899D01*
X038921Y010962D01*
X038859Y011015D01*
X038789Y011055D01*
X038713Y011081D01*
X038633Y011093D01*
X038552Y011090D01*
X038474Y011071D01*
X038400Y011038D01*
X038334Y010992D01*
X038277Y010935D01*
X038232Y010868D01*
X038200Y010793D01*
X038183Y010714D01*
X038181Y010634D01*
X038194Y010554D01*
X038222Y010478D01*
X038263Y010409D01*
X038317Y010348D01*
X038381Y010299D01*
X038453Y010262D01*
X038531Y010240D01*
X038611Y010232D01*
X038683Y010239D01*
X038753Y010257D01*
X038819Y010286D01*
X038879Y010326D01*
X038932Y010376D01*
X038976Y010434D01*
X039009Y010498D01*
X039486Y010301D01*
X039453Y010229D01*
X039414Y010161D01*
X039697Y009815D01*
X039459Y009577D01*
X039113Y009860D01*
X039021Y009809D01*
X038925Y009769D01*
X038824Y009740D01*
X038779Y009295D01*
X038443Y009295D01*
X038398Y009740D01*
X038297Y009769D01*
X038201Y009809D01*
X038109Y009860D01*
X037763Y009577D01*
X037525Y009815D01*
X037808Y010161D01*
X037757Y010253D01*
X037717Y010349D01*
X037688Y010450D01*
X037243Y010495D01*
X037243Y010831D01*
X037688Y010876D01*
X037717Y010977D01*
X037757Y011073D01*
X037808Y011165D01*
X037525Y011511D01*
X037545Y011487D02*
X038083Y011487D01*
X038147Y011487D02*
X039075Y011487D01*
X039138Y011487D02*
X039677Y011487D01*
X039663Y011545D02*
X039209Y011545D01*
X039280Y011602D02*
X039606Y011602D01*
X039548Y011660D02*
X039350Y011660D01*
X039421Y011717D02*
X039491Y011717D01*
X039630Y011430D02*
X037592Y011430D01*
X037639Y011372D02*
X039583Y011372D01*
X039536Y011315D02*
X037686Y011315D01*
X037733Y011257D02*
X039489Y011257D01*
X039442Y011199D02*
X037779Y011199D01*
X037795Y011142D02*
X039428Y011142D01*
X039459Y011084D02*
X038693Y011084D01*
X038838Y011027D02*
X039486Y011027D01*
X039350Y010969D02*
X038913Y010969D01*
X038961Y010912D02*
X039211Y010912D01*
X039072Y010854D02*
X038995Y010854D01*
X038984Y010451D02*
X039122Y010451D01*
X039261Y010394D02*
X038945Y010394D01*
X038890Y010336D02*
X039400Y010336D01*
X039476Y010279D02*
X038802Y010279D01*
X038421Y010279D02*
X037746Y010279D01*
X037723Y010336D02*
X038333Y010336D01*
X038277Y010394D02*
X037704Y010394D01*
X037675Y010451D02*
X038238Y010451D01*
X038211Y010509D02*
X037243Y010509D01*
X037243Y010566D02*
X038192Y010566D01*
X038183Y010624D02*
X037243Y010624D01*
X037243Y010681D02*
X038183Y010681D01*
X038189Y010739D02*
X037243Y010739D01*
X037243Y010797D02*
X038202Y010797D01*
X038226Y010854D02*
X037471Y010854D01*
X037698Y010912D02*
X038261Y010912D01*
X038311Y010969D02*
X037715Y010969D01*
X037738Y011027D02*
X038383Y011027D01*
X038530Y011084D02*
X037763Y011084D01*
X037558Y011545D02*
X038013Y011545D01*
X037942Y011602D02*
X037616Y011602D01*
X037674Y011660D02*
X037872Y011660D01*
X037801Y011717D02*
X037731Y011717D01*
X038268Y011545D02*
X038954Y011545D01*
X038822Y011602D02*
X038399Y011602D01*
X038405Y011660D02*
X038817Y011660D01*
X038811Y011717D02*
X038411Y011717D01*
X038417Y011775D02*
X038805Y011775D01*
X038799Y011833D02*
X038423Y011833D01*
X038429Y011890D02*
X038793Y011890D01*
X038787Y011948D02*
X038435Y011948D01*
X038440Y012005D02*
X038781Y012005D01*
X039448Y010221D02*
X037775Y010221D01*
X037806Y010163D02*
X039416Y010163D01*
X039459Y010106D02*
X037763Y010106D01*
X037716Y010048D02*
X039506Y010048D01*
X039553Y009991D02*
X037669Y009991D01*
X037622Y009933D02*
X039600Y009933D01*
X039647Y009876D02*
X037575Y009876D01*
X037528Y009818D02*
X038058Y009818D01*
X037987Y009761D02*
X037579Y009761D01*
X037637Y009703D02*
X037917Y009703D01*
X037846Y009645D02*
X037694Y009645D01*
X037752Y009588D02*
X037776Y009588D01*
X038184Y009818D02*
X039038Y009818D01*
X039164Y009818D02*
X039694Y009818D01*
X039643Y009761D02*
X039234Y009761D01*
X039305Y009703D02*
X039585Y009703D01*
X039527Y009645D02*
X039376Y009645D01*
X039446Y009588D02*
X039470Y009588D01*
X038895Y009761D02*
X038327Y009761D01*
X038402Y009703D02*
X038820Y009703D01*
X038814Y009645D02*
X038407Y009645D01*
X038413Y009588D02*
X038809Y009588D01*
X038803Y009530D02*
X038419Y009530D01*
X038425Y009473D02*
X038797Y009473D01*
X038791Y009415D02*
X038431Y009415D01*
X038437Y009358D02*
X038785Y009358D01*
X038779Y009300D02*
X038443Y009300D01*
M02*
