G75*
G70*
%OFA0B0*%
%FSLAX24Y24*%
%IPPOS*%
%LPD*%
%AMOC8*
5,1,8,0,0,1.08239X$1,22.5*
%
%ADD10C,0.1500*%
%ADD11C,0.1063*%
%ADD12OC8,0.0860*%
%ADD13C,0.0700*%
%ADD14C,0.1000*%
%ADD15OC8,0.1000*%
%ADD16R,0.0709X0.0630*%
%ADD17R,0.0630X0.0709*%
%ADD18R,0.2100X0.0760*%
%ADD19C,0.0520*%
%ADD20C,0.0660*%
%ADD21C,0.0740*%
%ADD22C,0.1266*%
%ADD23C,0.0945*%
%ADD24OC8,0.0945*%
%ADD25C,0.0860*%
%ADD26C,0.0709*%
%ADD27OC8,0.0760*%
%ADD28OC8,0.0700*%
%ADD29OC8,0.0591*%
%ADD30C,0.0591*%
%ADD31C,0.0709*%
%ADD32OC8,0.1240*%
%ADD33OC8,0.0750*%
%ADD34C,0.1000*%
%ADD35C,0.0760*%
%ADD36R,0.0860X0.0860*%
%ADD37C,0.0560*%
%ADD38C,0.0240*%
%ADD39C,0.0500*%
%ADD40C,0.0100*%
%ADD41C,0.0320*%
%ADD42C,0.0160*%
%ADD43R,0.0500X0.0500*%
%ADD44R,0.0396X0.0396*%
%ADD45C,0.0475*%
%ADD46C,0.0400*%
%ADD47C,0.0531*%
D10*
X015302Y009014D03*
X018255Y009014D03*
X019830Y023581D03*
X012546Y023581D03*
D11*
X006521Y023924D02*
X006521Y022861D01*
X004551Y022861D02*
X004551Y023924D01*
D12*
X001605Y022064D03*
X001605Y020064D03*
D13*
X003654Y019942D02*
X003654Y020642D01*
X005654Y020142D02*
X005654Y019442D01*
X051396Y005648D02*
X051396Y004948D01*
X052396Y004948D02*
X052396Y005648D01*
X053396Y005648D02*
X053396Y004948D01*
X054396Y004948D02*
X054396Y005648D01*
X055396Y005648D02*
X055396Y004948D01*
X056396Y004948D02*
X056396Y005648D01*
X057396Y005648D02*
X057396Y004948D01*
X058396Y004948D02*
X058396Y005648D01*
X059981Y005656D02*
X059981Y004956D01*
X060981Y004956D02*
X060981Y005656D01*
X061981Y005656D02*
X061981Y004956D01*
X062981Y004956D02*
X062981Y005656D01*
X063981Y005656D02*
X063981Y004956D01*
X064981Y004956D02*
X064981Y005656D01*
X065981Y005656D02*
X065981Y004956D01*
X066981Y004956D02*
X066981Y005656D01*
D14*
X007651Y019360D03*
D15*
X009651Y019360D03*
X033284Y013398D03*
X036983Y013292D03*
X038499Y012219D03*
X041707Y013375D03*
X043296Y012289D03*
X050576Y011253D03*
X050665Y008258D03*
X034661Y012150D03*
X044563Y016267D03*
X050552Y014504D03*
X051500Y020702D03*
X055344Y020751D03*
D16*
X062909Y011620D03*
X063901Y011571D03*
X063901Y010469D03*
X062909Y010518D03*
X067317Y010467D03*
X067317Y011569D03*
D17*
X057989Y011919D03*
X056887Y011919D03*
X063617Y017147D03*
X064719Y017147D03*
X064703Y018116D03*
X063601Y018116D03*
X063599Y019146D03*
X064702Y019146D03*
X064680Y020715D03*
X063578Y020715D03*
X063575Y021878D03*
X064678Y021878D03*
X064689Y023685D03*
X063587Y023685D03*
X063589Y024874D03*
X064691Y024874D03*
D18*
X063750Y009077D03*
X067550Y009077D03*
D19*
X066972Y007539D02*
X066972Y007019D01*
X065972Y007019D02*
X065972Y007539D01*
X064972Y007539D02*
X064972Y007019D01*
X063972Y007019D02*
X063972Y007539D01*
X062972Y007539D02*
X062972Y007019D01*
X061972Y007019D02*
X061972Y007539D01*
X060972Y007539D02*
X060972Y007019D01*
X059972Y007019D02*
X059972Y007539D01*
D20*
X050039Y005555D02*
X050039Y004895D01*
X049039Y004895D02*
X049039Y005555D01*
X048039Y005555D02*
X048039Y004895D01*
X029145Y009210D02*
X029145Y009870D01*
X028145Y009870D02*
X028145Y009210D01*
X027145Y009210D02*
X027145Y009870D01*
X014440Y005367D02*
X014440Y004707D01*
X013440Y004707D02*
X013440Y005367D01*
X012440Y005367D02*
X012440Y004707D01*
X027141Y015156D02*
X027141Y015816D01*
X028141Y015816D02*
X028141Y015156D01*
X029141Y015156D02*
X029141Y015816D01*
X029193Y021144D02*
X029193Y021804D01*
X028193Y021804D02*
X028193Y021144D01*
X027193Y021144D02*
X027193Y021804D01*
X079857Y016987D02*
X079857Y016327D01*
X080857Y016327D02*
X080857Y016987D01*
X081857Y016987D02*
X081857Y016327D01*
X081882Y005332D02*
X081882Y004672D01*
X080882Y004672D02*
X080882Y005332D01*
X079882Y005332D02*
X079882Y004672D01*
D21*
X008409Y008093D03*
X007475Y008093D03*
X006587Y008093D03*
X005653Y008093D03*
D22*
X004747Y007148D03*
X009314Y007148D03*
D23*
X033669Y017100D03*
X037115Y017102D03*
X040558Y017121D03*
D24*
X039115Y017102D03*
X042558Y017121D03*
X035669Y017100D03*
X035669Y020100D03*
X037115Y020102D03*
X039115Y020102D03*
X040558Y020121D03*
X042558Y020121D03*
X033669Y020100D03*
D25*
X034037Y015728D03*
X038097Y015819D03*
X041985Y015818D03*
X079898Y013643D03*
X080898Y013643D03*
X081069Y024912D03*
X080069Y024912D03*
D26*
X040985Y015818D03*
X037097Y015819D03*
X033037Y015728D03*
D27*
X034661Y013650D03*
X038499Y013719D03*
X043296Y013789D03*
X046193Y013428D03*
X046193Y012428D03*
X046193Y011428D03*
X043955Y010582D03*
X046200Y010313D03*
X043955Y009582D03*
X043955Y008582D03*
X046200Y008313D03*
X046200Y009313D03*
X049200Y009313D03*
X050665Y009758D03*
X052090Y010010D03*
X049200Y010313D03*
X052098Y011080D03*
X049193Y011428D03*
X052098Y012080D03*
X050576Y012753D03*
X049193Y012428D03*
X052098Y013080D03*
X049193Y013428D03*
X052093Y014143D03*
X052093Y015143D03*
X049183Y015507D03*
X050552Y016004D03*
X049183Y016507D03*
X052093Y016143D03*
X052095Y017224D03*
X052095Y018224D03*
X052095Y019224D03*
X055095Y019224D03*
X055095Y018224D03*
X055095Y017224D03*
X055093Y016143D03*
X055093Y015143D03*
X055093Y014143D03*
X055098Y013080D03*
X055098Y012080D03*
X055098Y011080D03*
X055090Y010010D03*
X055090Y009010D03*
X055090Y008010D03*
X052090Y008010D03*
X052090Y009010D03*
X049200Y008313D03*
X040955Y008582D03*
X040955Y009582D03*
X039100Y010088D03*
X040955Y010582D03*
X041707Y011875D03*
X036983Y011792D03*
X033284Y011898D03*
X033100Y010088D03*
X033081Y007802D03*
X039081Y007802D03*
X039070Y005540D03*
X033070Y005540D03*
X046183Y014507D03*
X046183Y015507D03*
X046183Y016507D03*
X044563Y017767D03*
X053000Y020702D03*
X053844Y020751D03*
X049183Y014507D03*
D28*
X043295Y014796D03*
X043295Y015796D03*
X039153Y015795D03*
X039153Y014795D03*
X036037Y015764D03*
X035037Y015764D03*
D29*
X035994Y014466D03*
X039896Y013925D03*
X044481Y014820D03*
D30*
X044481Y014120D03*
X039896Y013225D03*
X035294Y014466D03*
D31*
X049479Y018467D02*
X050188Y018467D01*
X050188Y019467D02*
X049479Y019467D01*
X049479Y020467D02*
X050188Y020467D01*
X047209Y020058D02*
X047209Y019349D01*
X046209Y019349D02*
X046209Y020058D01*
X045209Y020058D02*
X045209Y019349D01*
X049520Y022784D02*
X050228Y022784D01*
X051498Y022778D02*
X052206Y022778D01*
X053452Y022761D02*
X054161Y022761D01*
X054161Y023761D02*
X053452Y023761D01*
X052206Y023778D02*
X051498Y023778D01*
X050228Y023784D02*
X049520Y023784D01*
X049520Y024784D02*
X050228Y024784D01*
X051498Y024778D02*
X052206Y024778D01*
X053452Y024761D02*
X054161Y024761D01*
D32*
X056950Y024474D03*
X056906Y021463D03*
X056911Y018463D03*
X067711Y018463D03*
X069945Y020330D03*
X067706Y021463D03*
X067750Y024474D03*
X069945Y009530D03*
D33*
X055360Y022214D03*
X055360Y025214D03*
D34*
X047549Y023913D02*
X047549Y022913D01*
X045579Y022913D02*
X045579Y023913D01*
X043619Y023913D02*
X043619Y022913D01*
X041649Y022913D02*
X041649Y023913D01*
X039669Y023913D02*
X039669Y022913D01*
X037699Y022913D02*
X037699Y023913D01*
X035739Y023913D02*
X035739Y022913D01*
X033769Y022913D02*
X033769Y023913D01*
D35*
X074635Y017024D02*
X074635Y016264D01*
X075635Y016264D02*
X075635Y017024D01*
X076635Y017024D02*
X076635Y016264D01*
X077635Y016264D02*
X077635Y017024D01*
X078635Y017024D02*
X078635Y016264D01*
X046706Y005602D02*
X046706Y004842D01*
X045706Y004842D02*
X045706Y005602D01*
X044706Y005602D02*
X044706Y004842D01*
X043706Y004842D02*
X043706Y005602D01*
X042706Y005602D02*
X042706Y004842D01*
X074671Y004645D02*
X074671Y005405D01*
X075671Y005405D02*
X075671Y004645D01*
X076671Y004645D02*
X076671Y005405D01*
X077671Y005405D02*
X077671Y004645D01*
X078671Y004645D02*
X078671Y005405D01*
D36*
X081898Y013643D03*
X082069Y024912D03*
D37*
X040558Y021723D02*
X040558Y020121D01*
X037115Y020102D02*
X037115Y021723D01*
X033669Y021723D01*
X033669Y020100D01*
X033669Y021723D02*
X033669Y023313D01*
X033769Y023413D01*
X030197Y023413D01*
X028910Y024700D01*
X026621Y024700D01*
X023516Y021595D01*
X018916Y021595D01*
X016931Y023581D01*
X012546Y023581D01*
X009405Y020440D01*
X006947Y020440D01*
X006548Y020041D01*
X006548Y018737D01*
X005883Y018072D01*
X004126Y018072D01*
X003654Y018544D01*
X003654Y020292D01*
X001832Y020292D01*
X001605Y020064D01*
X005654Y019792D02*
X005654Y022526D01*
X006521Y023393D01*
X008277Y025148D01*
X018469Y025148D01*
X019830Y023788D01*
X019830Y023581D01*
X004551Y023393D02*
X003223Y022064D01*
X001605Y022064D01*
X005653Y011323D02*
X005653Y008093D01*
X005653Y005917D01*
X009551Y005917D01*
X009844Y006210D01*
X013406Y006210D01*
X013406Y005071D01*
X013440Y005037D01*
X013406Y006210D02*
X015451Y006210D01*
X018255Y009014D01*
X018829Y006181D02*
X017191Y006181D01*
X017182Y006190D01*
X018829Y006181D02*
X019454Y006181D01*
X005653Y005917D02*
X005649Y005913D01*
X037115Y021723D02*
X040558Y021723D01*
D38*
X045209Y019703D02*
X045209Y018848D01*
X045949Y018108D01*
X046581Y018108D01*
X047127Y017563D01*
X047127Y007059D01*
X047737Y006449D01*
X055700Y006449D01*
X056018Y006767D01*
X056018Y008725D01*
X056603Y009267D01*
X054195Y009480D02*
X054195Y007160D01*
X054042Y007006D01*
X054171Y007006D01*
X054042Y007006D02*
X048199Y007006D01*
X048139Y016799D01*
X048199Y016833D01*
X049253Y017643D02*
X049844Y017034D01*
X049844Y010503D01*
X050019Y010346D01*
X052090Y010346D01*
X052090Y010010D01*
X052098Y011080D02*
X052098Y011121D01*
X052106Y011129D01*
X050700Y011129D01*
X050576Y011253D01*
X047591Y010643D02*
X047591Y015639D01*
X047582Y015647D01*
X047526Y015647D01*
X046183Y016507D02*
X046183Y017184D01*
X044633Y018733D01*
X044430Y018937D01*
X044633Y018733D02*
X044633Y018733D01*
X046071Y018552D02*
X046071Y019566D01*
X046209Y019703D01*
X047925Y018472D02*
X048570Y019117D01*
X048570Y021405D01*
X052296Y021405D01*
X053000Y020702D01*
X053794Y020702D01*
X053844Y020751D01*
X053844Y021027D01*
X052825Y022046D01*
X052825Y023748D01*
X052838Y023761D01*
X051852Y023761D01*
X049874Y023761D01*
X049874Y023784D01*
X051852Y023761D02*
X051852Y023778D01*
X052838Y023761D02*
X053806Y023761D01*
X053906Y022861D02*
X059539Y022861D01*
X059547Y022868D01*
X059547Y023814D01*
X059539Y022861D02*
X062089Y022861D01*
X063556Y023655D02*
X063587Y023685D01*
X063566Y023705D01*
X064689Y024871D02*
X064691Y024874D01*
X058194Y025200D02*
X058116Y025200D01*
X057516Y025800D01*
X054268Y025800D01*
X054022Y025554D01*
X050644Y025554D01*
X049874Y024784D01*
X051837Y022763D02*
X051852Y022778D01*
X053806Y022761D02*
X053906Y022861D01*
X055344Y022198D02*
X055344Y020751D01*
X054788Y020024D02*
X054788Y019973D01*
X054383Y019568D01*
X054383Y011815D01*
X054181Y011614D01*
X055805Y011345D02*
X056018Y011132D01*
X056018Y011105D01*
X056587Y010591D01*
X055805Y011345D02*
X055805Y017357D01*
X056911Y018463D01*
X053788Y018163D02*
X053788Y016175D01*
X053063Y015450D01*
X053063Y013868D01*
X052093Y014143D02*
X050914Y014143D01*
X050552Y014504D01*
X050552Y016004D02*
X051099Y016550D01*
X051099Y019467D01*
X049834Y019467D01*
X048920Y019467D01*
X048570Y019117D01*
X047925Y018472D02*
X046151Y018472D01*
X046071Y018552D01*
X048199Y017643D02*
X049253Y017643D01*
X051459Y017243D02*
X052095Y017243D01*
X052095Y017224D01*
X051459Y017243D02*
X051459Y020535D01*
X051387Y020535D01*
X051387Y020702D01*
X051500Y020702D01*
X054788Y020024D02*
X057814Y020024D01*
X057814Y021463D01*
X057770Y021463D01*
X055360Y022214D02*
X055344Y022198D01*
X062049Y021199D02*
X062089Y021239D01*
X063573Y020710D02*
X063578Y020715D01*
X064680Y020715D02*
X064849Y020884D01*
X064702Y018117D02*
X064703Y018116D01*
X053788Y018163D02*
X053785Y018162D01*
X053783Y018160D01*
X053782Y018157D01*
X053134Y018631D02*
X053134Y016633D01*
X053125Y016631D01*
X042600Y014459D02*
X042600Y013247D01*
X042225Y012637D02*
X041066Y012637D01*
X040330Y011900D01*
X042225Y012637D02*
X042508Y012354D01*
X042508Y011369D01*
X043701Y011369D01*
X044132Y011800D01*
X044132Y012457D01*
X044413Y012738D01*
X045583Y012428D02*
X044511Y011356D01*
X045583Y012428D02*
X046193Y012428D01*
X042600Y014459D02*
X042100Y014960D01*
X039318Y014960D01*
X039153Y014795D01*
X030847Y011960D02*
X030502Y012305D01*
X024014Y012305D01*
X024029Y011560D02*
X030233Y011560D01*
X030233Y007394D01*
X031036Y007378D01*
X030695Y007935D02*
X030847Y008006D01*
X030847Y011960D01*
X040955Y009582D02*
X041617Y009582D01*
X041617Y008974D01*
X041786Y008805D01*
X041786Y007384D01*
X038856Y004790D02*
X038191Y005455D01*
X034129Y005455D01*
X033464Y004790D01*
X032475Y004790D01*
X031935Y005330D01*
X031935Y005676D01*
X038856Y004790D02*
X039163Y004761D01*
X050665Y008258D02*
X050914Y008010D01*
X052090Y008010D01*
X037190Y018937D02*
X037150Y018977D01*
D39*
X031849Y019041D03*
X029007Y019216D03*
X025118Y020403D03*
X025097Y015039D03*
X025646Y013024D03*
X024014Y012305D03*
X024029Y011566D03*
X030985Y013040D03*
X036610Y010731D03*
X036349Y009222D03*
X032196Y008193D03*
X030695Y007935D03*
X029605Y008239D03*
X028826Y007809D03*
X028155Y007838D03*
X031036Y007378D03*
X029132Y006541D03*
X031908Y005702D03*
X036166Y004185D03*
X040785Y004933D03*
X041501Y004896D03*
X043978Y006280D03*
X042764Y006973D03*
X041106Y007576D03*
X042199Y009305D03*
X047591Y010643D03*
X044511Y011356D03*
X042600Y013247D03*
X047582Y015647D03*
X048139Y016799D03*
X050397Y016856D03*
X050545Y017697D03*
X048199Y017643D03*
X045363Y016950D03*
X053125Y016631D03*
X056694Y016982D03*
X057060Y016448D03*
X057555Y015918D03*
X056275Y015236D03*
X056584Y014618D03*
X057453Y014227D03*
X058039Y014187D03*
X058919Y014132D03*
X056804Y013945D03*
X058009Y013378D03*
X058521Y012674D03*
X059921Y013141D03*
X060681Y013165D03*
X061636Y012957D03*
X062662Y012659D03*
X061474Y012022D03*
X060652Y011942D03*
X059981Y011885D03*
X058634Y011905D03*
X058547Y010955D03*
X057939Y010518D03*
X057168Y010591D03*
X056587Y010591D03*
X056111Y010077D03*
X054195Y009480D03*
X055982Y009275D03*
X056603Y009267D03*
X056978Y008577D03*
X056453Y008305D03*
X058174Y008642D03*
X059449Y008591D03*
X059275Y007726D03*
X058372Y007643D03*
X058879Y007152D03*
X059394Y006842D03*
X060467Y006644D03*
X061492Y006192D03*
X057815Y006744D03*
X056736Y006672D03*
X056861Y007265D03*
X056485Y007719D03*
X055326Y007270D03*
X053513Y007469D03*
X052859Y008080D03*
X045866Y007013D03*
X047401Y004666D03*
X052847Y004416D03*
X062497Y004385D03*
X067576Y006455D03*
X066916Y009801D03*
X064105Y009801D03*
X062180Y010373D03*
X060934Y010567D03*
X061732Y010759D03*
X061342Y011200D03*
X062136Y011466D03*
X059938Y010492D03*
X054181Y011614D03*
X053746Y012407D03*
X053063Y013868D03*
X053889Y015158D03*
X057222Y017473D03*
X058270Y017611D03*
X059964Y017607D03*
X059659Y018885D03*
X058402Y018901D03*
X057845Y019284D03*
X059624Y019673D03*
X062076Y018729D03*
X062721Y020710D03*
X061077Y020710D03*
X055735Y018786D03*
X053788Y018163D03*
X063566Y016258D03*
X064435Y015818D03*
X063541Y015523D03*
X064973Y014466D03*
X068120Y010687D03*
X061028Y023673D03*
X059547Y023814D03*
X062706Y023705D03*
X058194Y025200D03*
X011890Y012270D03*
X005642Y011333D03*
X003955Y011455D03*
X011354Y009312D03*
X012209Y009238D03*
X011354Y006987D03*
X012351Y006863D03*
X017182Y006190D03*
X019454Y006181D03*
X027548Y004112D03*
X003700Y004688D03*
X009035Y014814D03*
X008337Y018412D03*
D40*
X025646Y013024D02*
X030343Y013019D01*
X030343Y016423D01*
X030577Y016423D01*
X030577Y016413D01*
X041408Y016413D01*
X041569Y016574D01*
X042201Y016574D01*
X042717Y016057D01*
X043610Y016950D01*
X045363Y016950D01*
X050397Y016856D02*
X050397Y017549D01*
X050545Y017697D01*
X055735Y018786D02*
X056272Y019323D01*
X057233Y019323D01*
X058125Y018431D01*
X061782Y018474D01*
X062023Y018715D01*
X062076Y018729D01*
X059659Y018885D02*
X058548Y018885D01*
X058402Y018901D01*
X057845Y019284D02*
X058160Y019673D01*
X059624Y019673D01*
X059918Y017611D02*
X058270Y017611D01*
X057222Y017473D02*
X056419Y017473D01*
X056180Y017234D01*
X056180Y015331D01*
X056275Y015236D01*
X056694Y014728D02*
X056694Y016982D01*
X057060Y016448D02*
X057060Y014201D01*
X056804Y013945D01*
X057453Y014227D02*
X057453Y015816D01*
X057555Y015918D01*
X058039Y015628D02*
X058055Y015644D01*
X058055Y016184D01*
X058056Y016198D01*
X058061Y016212D01*
X058067Y016225D01*
X058077Y016236D01*
X058088Y016246D01*
X058101Y016252D01*
X058115Y016257D01*
X058129Y016258D01*
X063566Y016258D01*
X063180Y016029D02*
X060842Y016029D01*
X060611Y015798D01*
X060611Y013152D01*
X060681Y013165D01*
X059981Y013082D02*
X059981Y011885D01*
X060652Y011942D02*
X061636Y012895D01*
X061636Y012957D01*
X062662Y012659D02*
X062662Y011868D01*
X062909Y011620D01*
X062136Y011466D02*
X061971Y011631D01*
X061150Y011631D01*
X060926Y011407D01*
X060926Y011104D01*
X060549Y011104D01*
X059938Y010492D01*
X060934Y010567D02*
X060934Y008597D01*
X059449Y008591D01*
X058174Y008642D02*
X056943Y008642D01*
X056978Y008577D01*
X056573Y008185D02*
X056453Y008305D01*
X056573Y008185D02*
X058372Y008185D01*
X058372Y007643D01*
X058332Y007144D02*
X057807Y007669D01*
X056473Y007677D01*
X056470Y007681D01*
X056465Y007681D01*
X056485Y007719D01*
X056861Y007265D02*
X056931Y007195D01*
X057984Y007195D01*
X058535Y006644D01*
X058535Y006619D01*
X058688Y006436D01*
X060290Y006436D01*
X060467Y006644D01*
X060627Y006223D02*
X058286Y006223D01*
X058186Y006322D01*
X058069Y006322D01*
X057895Y006147D01*
X047446Y006166D01*
X046155Y007430D01*
X044120Y007430D01*
X043987Y007563D01*
X043987Y008550D01*
X043955Y008582D01*
X043955Y009582D02*
X043215Y009582D01*
X043215Y009863D01*
X041823Y011254D01*
X040706Y011254D01*
X040347Y010895D01*
X040347Y007378D01*
X039141Y006171D01*
X031027Y006171D01*
X029389Y007809D01*
X028826Y007809D01*
X028499Y008239D02*
X029605Y008239D01*
X028499Y008239D02*
X028155Y007838D01*
X029132Y006541D02*
X019189Y006541D01*
X018829Y006181D01*
X027548Y004112D02*
X027664Y003997D01*
X036024Y003997D01*
X036166Y004138D01*
X036166Y004185D01*
X040785Y004933D02*
X042764Y006973D01*
X042764Y006973D01*
X043215Y006842D02*
X043385Y007013D01*
X045866Y007013D01*
X046119Y006682D02*
X045706Y006268D01*
X045706Y005222D01*
X047401Y004666D02*
X047393Y005878D01*
X046589Y006682D01*
X046119Y006682D01*
X045680Y006294D02*
X043978Y006280D01*
X043706Y005930D02*
X043706Y005222D01*
X043706Y004338D01*
X043763Y004281D01*
X048971Y004281D01*
X049055Y004365D01*
X049055Y005209D01*
X049039Y005225D01*
X049039Y005402D01*
X049642Y006004D01*
X050690Y006004D01*
X051396Y005298D01*
X050710Y005153D02*
X050638Y005225D01*
X050039Y005225D01*
X050710Y005153D02*
X050710Y004127D01*
X041958Y004127D01*
X041501Y004896D01*
X043215Y006421D02*
X043706Y005930D01*
X043215Y006421D02*
X043215Y006842D01*
X043215Y009582D01*
X048476Y007612D02*
X048706Y007383D01*
X053309Y007383D01*
X053395Y007469D01*
X053513Y007469D01*
X052859Y008080D02*
X052829Y008080D01*
X052829Y010518D01*
X055637Y010536D01*
X055634Y010484D01*
X056012Y010106D01*
X056111Y010077D01*
X056002Y009654D02*
X055616Y010020D01*
X055616Y007574D01*
X055326Y007270D01*
X056736Y006672D02*
X057738Y006667D01*
X057815Y006744D01*
X058332Y007144D02*
X058879Y007152D01*
X059394Y006842D02*
X059394Y007726D01*
X059275Y007726D01*
X059675Y008029D02*
X059546Y008158D01*
X058591Y008158D01*
X058591Y010911D01*
X058547Y010955D01*
X058400Y011391D02*
X058215Y011391D01*
X058182Y011424D01*
X058123Y011364D01*
X058123Y011329D01*
X057944Y011150D01*
X057939Y010518D01*
X057581Y010864D02*
X057508Y010937D01*
X057508Y012674D01*
X058521Y012674D01*
X059921Y013141D02*
X059981Y013082D01*
X058919Y014132D02*
X058165Y013378D01*
X058009Y013378D01*
X057839Y013547D01*
X056746Y013547D01*
X056726Y013527D01*
X056726Y012080D01*
X056887Y011919D01*
X057989Y011919D02*
X057989Y011940D01*
X058598Y011940D01*
X058634Y011905D01*
X058496Y011487D02*
X058400Y011391D01*
X058496Y011487D02*
X060737Y011487D01*
X061271Y012022D01*
X061474Y012022D01*
X061342Y011200D02*
X061342Y009078D01*
X061509Y008940D01*
X063613Y008940D01*
X063750Y009077D01*
X063515Y009313D01*
X063515Y010032D01*
X063750Y010268D01*
X063750Y010318D01*
X063901Y010469D01*
X064599Y011028D02*
X065160Y010467D01*
X067317Y010467D01*
X067967Y009817D01*
X067967Y009032D01*
X067921Y009077D01*
X067550Y009077D01*
X066916Y009801D02*
X064165Y009801D01*
X064105Y009801D01*
X062909Y010518D02*
X062786Y010378D01*
X062180Y010373D01*
X061732Y010759D02*
X062017Y011044D01*
X064599Y011028D01*
X064973Y011569D02*
X063987Y011569D01*
X063954Y011603D01*
X063922Y011571D01*
X063901Y011571D01*
X064973Y011569D02*
X064973Y014466D01*
X063984Y014466D01*
X063984Y017147D01*
X063617Y017147D01*
X064719Y017147D02*
X064719Y015818D01*
X064435Y015818D01*
X063541Y015668D02*
X063180Y016029D01*
X063541Y015668D02*
X063541Y015523D01*
X058039Y015628D02*
X058039Y014187D01*
X056694Y014728D02*
X056584Y014618D01*
X053889Y015158D02*
X053746Y015038D01*
X053746Y012407D01*
X057581Y010864D02*
X057581Y010093D01*
X056930Y010086D01*
X056072Y009275D01*
X055982Y009275D01*
X056002Y009654D02*
X056231Y009654D01*
X057168Y010591D01*
X059675Y008029D02*
X060931Y008029D01*
X060972Y007988D01*
X060972Y007279D01*
X060954Y006580D02*
X060627Y006223D01*
X060954Y006580D02*
X067236Y006529D01*
X067443Y006322D01*
X067576Y006455D01*
X072315Y006874D02*
X072315Y014521D01*
X073325Y014521D01*
X073325Y013000D01*
X073401Y012817D01*
X073542Y012676D01*
X073726Y012600D01*
X079278Y012600D01*
X079462Y012676D01*
X079603Y012817D01*
X079663Y012961D01*
X079755Y012923D01*
X080041Y012923D01*
X080306Y013033D01*
X080497Y013224D01*
X080520Y013201D01*
X080594Y013147D01*
X080675Y013106D01*
X080762Y013078D01*
X080848Y013064D01*
X080848Y013593D01*
X080948Y013593D01*
X080948Y013064D01*
X081034Y013078D01*
X081121Y013106D01*
X081185Y013139D01*
X081222Y013049D01*
X081304Y012967D01*
X081410Y012923D01*
X082259Y012923D01*
X082260Y009221D01*
X081849Y009459D01*
X081849Y009459D01*
X081358Y009571D01*
X081358Y009571D01*
X080855Y009533D01*
X080386Y009349D01*
X079992Y009035D01*
X079709Y008619D01*
X079560Y008138D01*
X079560Y007634D01*
X079709Y007152D01*
X079992Y006736D01*
X080386Y006422D01*
X080386Y006422D01*
X080855Y006238D01*
X080855Y006238D01*
X081358Y006200D01*
X081849Y006313D01*
X082261Y006551D01*
X082262Y005829D01*
X082233Y005858D01*
X082005Y005952D01*
X081758Y005952D01*
X081530Y005858D01*
X081356Y005684D01*
X081305Y005559D01*
X081292Y005584D01*
X081248Y005645D01*
X081194Y005698D01*
X081133Y005743D01*
X081066Y005777D01*
X080994Y005801D01*
X080930Y005811D01*
X080930Y005051D01*
X080833Y005051D01*
X080833Y005811D01*
X080769Y005801D01*
X080697Y005777D01*
X080630Y005743D01*
X080569Y005698D01*
X080516Y005645D01*
X080471Y005584D01*
X080459Y005559D01*
X080407Y005684D01*
X080233Y005858D01*
X080005Y005952D01*
X079758Y005952D01*
X079530Y005858D01*
X079356Y005684D01*
X079318Y005592D01*
X079239Y005785D01*
X079050Y005973D01*
X078804Y006075D01*
X078537Y006075D01*
X078291Y005973D01*
X078103Y005785D01*
X078083Y005739D01*
X078075Y005751D01*
X078016Y005810D01*
X077948Y005859D01*
X077874Y005896D01*
X077795Y005922D01*
X077712Y005935D01*
X077699Y005935D01*
X077699Y005054D01*
X077642Y005054D01*
X077642Y005935D01*
X077629Y005935D01*
X077546Y005922D01*
X077467Y005896D01*
X077393Y005859D01*
X077325Y005810D01*
X077266Y005751D01*
X077258Y005739D01*
X077239Y005785D01*
X077050Y005973D01*
X076804Y006075D01*
X076537Y006075D01*
X076291Y005973D01*
X076171Y005853D01*
X076050Y005973D01*
X075804Y006075D01*
X075537Y006075D01*
X075291Y005973D01*
X075171Y005853D01*
X075050Y005973D01*
X074804Y006075D01*
X074537Y006075D01*
X074498Y006059D01*
X074385Y006295D01*
X074385Y006295D01*
X074385Y006295D01*
X074042Y006664D01*
X073606Y006916D01*
X073115Y007028D01*
X072612Y006991D01*
X072315Y006874D01*
X072315Y006928D02*
X072453Y006928D01*
X072315Y007027D02*
X073092Y007027D01*
X073122Y007027D02*
X079794Y007027D01*
X079727Y007125D02*
X072315Y007125D01*
X072315Y007224D02*
X079687Y007224D01*
X079709Y007152D02*
X079709Y007152D01*
X079656Y007322D02*
X072315Y007322D01*
X072315Y007421D02*
X079626Y007421D01*
X079595Y007519D02*
X072315Y007519D01*
X072315Y007618D02*
X079565Y007618D01*
X079560Y007716D02*
X072315Y007716D01*
X072315Y007815D02*
X079560Y007815D01*
X079560Y007913D02*
X072315Y007913D01*
X072315Y008012D02*
X079560Y008012D01*
X079560Y008110D02*
X072315Y008110D01*
X072315Y008209D02*
X079582Y008209D01*
X079612Y008307D02*
X072315Y008307D01*
X072315Y008406D02*
X079643Y008406D01*
X079673Y008504D02*
X072315Y008504D01*
X072315Y008603D02*
X079704Y008603D01*
X079709Y008619D02*
X079709Y008619D01*
X079765Y008701D02*
X072315Y008701D01*
X072315Y008800D02*
X079832Y008800D01*
X079899Y008898D02*
X072315Y008898D01*
X072315Y008997D02*
X079966Y008997D01*
X079992Y009035D02*
X079992Y009035D01*
X079992Y009035D01*
X080068Y009095D02*
X072315Y009095D01*
X072315Y009194D02*
X080191Y009194D01*
X080315Y009292D02*
X072315Y009292D01*
X072315Y009391D02*
X080492Y009391D01*
X080386Y009349D02*
X080386Y009349D01*
X080743Y009489D02*
X072315Y009489D01*
X072315Y009588D02*
X082260Y009588D01*
X082260Y009686D02*
X072315Y009686D01*
X072315Y009785D02*
X082260Y009785D01*
X082260Y009883D02*
X072315Y009883D01*
X072315Y009982D02*
X082260Y009982D01*
X082260Y010080D02*
X072315Y010080D01*
X072315Y010179D02*
X082260Y010179D01*
X082260Y010277D02*
X072315Y010277D01*
X072315Y010376D02*
X082260Y010376D01*
X082260Y010474D02*
X072315Y010474D01*
X072315Y010573D02*
X082260Y010573D01*
X082260Y010671D02*
X072315Y010671D01*
X072315Y010770D02*
X082260Y010770D01*
X082260Y010868D02*
X072315Y010868D01*
X072315Y010967D02*
X082260Y010967D01*
X082260Y011065D02*
X072315Y011065D01*
X072315Y011164D02*
X082260Y011164D01*
X082260Y011262D02*
X072315Y011262D01*
X072315Y011361D02*
X082260Y011361D01*
X082260Y011459D02*
X072315Y011459D01*
X072315Y011558D02*
X082260Y011558D01*
X082260Y011656D02*
X072315Y011656D01*
X072315Y011755D02*
X082259Y011755D01*
X082259Y011853D02*
X072315Y011853D01*
X072315Y011952D02*
X082259Y011952D01*
X082259Y012050D02*
X072315Y012050D01*
X072315Y012149D02*
X082259Y012149D01*
X082259Y012247D02*
X072315Y012247D01*
X072315Y012346D02*
X082259Y012346D01*
X082259Y012444D02*
X072315Y012444D01*
X072315Y012543D02*
X082259Y012543D01*
X082259Y012641D02*
X079378Y012641D01*
X079526Y012740D02*
X082259Y012740D01*
X082259Y012838D02*
X079612Y012838D01*
X079653Y012937D02*
X079722Y012937D01*
X080074Y012937D02*
X081378Y012937D01*
X081236Y013035D02*
X080308Y013035D01*
X080407Y013134D02*
X080620Y013134D01*
X080848Y013134D02*
X080948Y013134D01*
X080948Y013232D02*
X080848Y013232D01*
X080848Y013331D02*
X080948Y013331D01*
X080948Y013429D02*
X080848Y013429D01*
X080848Y013528D02*
X080948Y013528D01*
X080948Y013693D02*
X080848Y013693D01*
X080848Y014223D01*
X080762Y014209D01*
X080675Y014181D01*
X080594Y014139D01*
X080520Y014086D01*
X080497Y014063D01*
X080306Y014254D01*
X080041Y014363D01*
X079755Y014363D01*
X079679Y014332D01*
X079679Y014496D01*
X082258Y014496D01*
X082258Y014363D01*
X081410Y014363D01*
X081304Y014319D01*
X081222Y014238D01*
X081185Y014148D01*
X081121Y014181D01*
X081034Y014209D01*
X080948Y014223D01*
X080948Y013693D01*
X080948Y013725D02*
X080848Y013725D01*
X080848Y013823D02*
X080948Y013823D01*
X080948Y013922D02*
X080848Y013922D01*
X080848Y014020D02*
X080948Y014020D01*
X080948Y014119D02*
X080848Y014119D01*
X080848Y014217D02*
X080948Y014217D01*
X080982Y014217D02*
X081214Y014217D01*
X081300Y014316D02*
X080156Y014316D01*
X080342Y014217D02*
X080814Y014217D01*
X080566Y014119D02*
X080441Y014119D01*
X079679Y014414D02*
X082258Y014414D01*
X081187Y013134D02*
X081176Y013134D01*
X073626Y012641D02*
X072315Y012641D01*
X072315Y012740D02*
X073478Y012740D01*
X073392Y012838D02*
X072315Y012838D01*
X072315Y012937D02*
X073352Y012937D01*
X073325Y013035D02*
X072315Y013035D01*
X072315Y013134D02*
X073325Y013134D01*
X073325Y013232D02*
X072315Y013232D01*
X072315Y013331D02*
X073325Y013331D01*
X073325Y013429D02*
X072315Y013429D01*
X072315Y013528D02*
X073325Y013528D01*
X073325Y013626D02*
X072315Y013626D01*
X072315Y013725D02*
X073325Y013725D01*
X073325Y013823D02*
X072315Y013823D01*
X072315Y013922D02*
X073325Y013922D01*
X073325Y014020D02*
X072315Y014020D01*
X072315Y014119D02*
X073325Y014119D01*
X073325Y014217D02*
X072315Y014217D01*
X072315Y014316D02*
X073325Y014316D01*
X073325Y014414D02*
X072315Y014414D01*
X072315Y014513D02*
X073325Y014513D01*
X067984Y010902D02*
X067317Y011569D01*
X064973Y011569D01*
X067984Y010902D02*
X067984Y010823D01*
X068120Y010687D01*
X073554Y006928D02*
X079861Y006928D01*
X079929Y006830D02*
X073756Y006830D01*
X073926Y006731D02*
X079999Y006731D01*
X079992Y006736D02*
X079992Y006736D01*
X079992Y006736D01*
X080122Y006633D02*
X074071Y006633D01*
X074163Y006534D02*
X080246Y006534D01*
X080369Y006436D02*
X074254Y006436D01*
X074346Y006337D02*
X080603Y006337D01*
X080854Y006239D02*
X074412Y006239D01*
X074459Y006140D02*
X082262Y006140D01*
X082262Y006042D02*
X078885Y006042D01*
X079080Y005943D02*
X079736Y005943D01*
X079517Y005845D02*
X079179Y005845D01*
X079255Y005746D02*
X079419Y005746D01*
X079341Y005648D02*
X079295Y005648D01*
X080027Y005943D02*
X081736Y005943D01*
X081517Y005845D02*
X080246Y005845D01*
X080345Y005746D02*
X080637Y005746D01*
X080518Y005648D02*
X080422Y005648D01*
X080833Y005648D02*
X080930Y005648D01*
X080930Y005746D02*
X080833Y005746D01*
X080833Y005549D02*
X080930Y005549D01*
X080930Y005451D02*
X080833Y005451D01*
X080833Y005352D02*
X080930Y005352D01*
X080930Y005254D02*
X080833Y005254D01*
X080833Y005155D02*
X080930Y005155D01*
X080930Y005057D02*
X080833Y005057D01*
X081245Y005648D02*
X081341Y005648D01*
X081419Y005746D02*
X081127Y005746D01*
X082027Y005943D02*
X082262Y005943D01*
X082262Y005845D02*
X082246Y005845D01*
X082262Y006239D02*
X081525Y006239D01*
X081358Y006200D02*
X081358Y006200D01*
X081849Y006313D02*
X081849Y006313D01*
X081891Y006337D02*
X082262Y006337D01*
X082262Y006436D02*
X082062Y006436D01*
X082233Y006534D02*
X082261Y006534D01*
X078456Y006042D02*
X076885Y006042D01*
X077080Y005943D02*
X078261Y005943D01*
X078163Y005845D02*
X077967Y005845D01*
X078078Y005746D02*
X078087Y005746D01*
X077699Y005746D02*
X077642Y005746D01*
X077642Y005648D02*
X077699Y005648D01*
X077699Y005549D02*
X077642Y005549D01*
X077642Y005451D02*
X077699Y005451D01*
X077699Y005352D02*
X077642Y005352D01*
X077642Y005254D02*
X077699Y005254D01*
X077699Y005155D02*
X077642Y005155D01*
X077642Y005057D02*
X077699Y005057D01*
X077699Y005845D02*
X077642Y005845D01*
X077374Y005845D02*
X077179Y005845D01*
X077255Y005746D02*
X077263Y005746D01*
X076456Y006042D02*
X075885Y006042D01*
X076080Y005943D02*
X076261Y005943D01*
X075456Y006042D02*
X074885Y006042D01*
X075080Y005943D02*
X075261Y005943D01*
X082137Y009292D02*
X082260Y009292D01*
X082260Y009391D02*
X081967Y009391D01*
X081716Y009489D02*
X082260Y009489D01*
X080855Y009533D02*
X080855Y009533D01*
X062497Y004385D02*
X061794Y004343D01*
X061698Y004247D01*
X053153Y004247D01*
X052904Y004496D01*
X052847Y004416D01*
X054378Y004429D02*
X054378Y005298D01*
X054396Y005298D01*
X054378Y004429D02*
X061492Y004429D01*
X061492Y006192D01*
X049076Y005225D02*
X049039Y005225D01*
X045706Y006268D02*
X045705Y006276D01*
X045701Y006283D01*
X045695Y006289D01*
X045688Y006293D01*
X045680Y006294D01*
X048476Y007612D02*
X048476Y014507D01*
X049183Y014507D01*
X059918Y017611D02*
X059964Y017607D01*
X024029Y011566D02*
X024029Y011560D01*
X003955Y011455D02*
X003955Y004688D01*
X003700Y004688D01*
D41*
X011354Y006987D02*
X011354Y009312D01*
X012209Y009238D02*
X012351Y009097D01*
X012351Y006863D01*
X023235Y007805D02*
X023235Y019797D01*
X024912Y021474D01*
X027193Y021474D01*
X025118Y020403D02*
X025097Y015039D01*
X030985Y013040D02*
X031540Y012486D01*
X031540Y007055D01*
X032014Y006580D01*
X039093Y006580D01*
X039945Y007432D01*
X039945Y011515D01*
X040330Y011900D01*
X036983Y013292D02*
X035792Y013292D01*
X035599Y013099D01*
X035599Y010412D01*
X035117Y009930D01*
X033932Y009930D01*
X033070Y009068D01*
X033070Y007813D01*
X033081Y007802D01*
X032196Y008193D02*
X032196Y014466D01*
X035294Y014466D01*
X044481Y014117D02*
X044481Y014120D01*
X044481Y014117D02*
X045185Y014117D01*
X045185Y015507D01*
X046183Y015507D01*
X046193Y013428D02*
X045103Y013428D01*
X044413Y012738D01*
X044345Y012670D01*
X042199Y009305D02*
X042199Y007226D01*
X039388Y004415D01*
X038466Y004415D01*
X037955Y004925D01*
X034364Y004925D01*
X033871Y004432D01*
X030151Y004432D01*
X030038Y004546D01*
X030038Y006694D01*
X029433Y007299D01*
X023741Y007299D01*
X023235Y007805D01*
X011784Y010479D02*
X011784Y012163D01*
X011890Y012270D01*
X005653Y011323D02*
X005642Y011333D01*
X009035Y014814D02*
X009035Y017714D01*
X008337Y018412D01*
X037150Y018977D02*
X037185Y018977D01*
X056911Y018463D02*
X057258Y018116D01*
X063601Y018116D01*
X064702Y018117D02*
X064702Y019146D01*
X063599Y019146D02*
X062448Y019146D01*
X062049Y019545D01*
X062049Y021199D01*
X062049Y021405D01*
X062521Y021878D01*
X063575Y021878D01*
X064678Y021878D02*
X064678Y021056D01*
X064849Y020884D01*
X065428Y021463D01*
X067706Y021463D01*
X068058Y022884D02*
X069945Y020997D01*
X069945Y020330D01*
X070940Y021284D02*
X070940Y009835D01*
X070635Y009530D01*
X069945Y009530D01*
X067365Y018116D02*
X064703Y018116D01*
X067365Y018116D02*
X067711Y018463D01*
X063573Y020710D02*
X062721Y020710D01*
X062089Y021239D02*
X062089Y022861D01*
X062089Y024435D01*
X062527Y024874D01*
X063589Y024874D01*
X064689Y024871D02*
X064689Y023685D01*
X063566Y023705D02*
X062706Y023705D01*
X063556Y023655D02*
X063556Y023071D01*
X063744Y022884D01*
X068058Y022884D01*
X067750Y024474D02*
X070940Y021284D01*
X067750Y024474D02*
X067350Y024874D01*
X064691Y024874D01*
X061028Y023673D02*
X060227Y024474D01*
X056950Y024474D01*
X056906Y021463D02*
X057770Y021463D01*
X060324Y021463D01*
X061077Y020710D01*
X041106Y007576D02*
X039070Y005540D01*
D42*
X004183Y004365D02*
X004141Y004324D01*
X011910Y004318D01*
X011889Y004338D01*
X011790Y004577D01*
X011790Y005496D01*
X011889Y005735D01*
X012072Y005918D01*
X012311Y006017D01*
X012570Y006017D01*
X012809Y005918D01*
X012992Y005735D01*
X013023Y005659D01*
X013051Y005699D01*
X013108Y005756D01*
X013173Y005803D01*
X013245Y005839D01*
X013321Y005864D01*
X013400Y005877D01*
X013422Y005877D01*
X013422Y005055D01*
X013459Y005055D01*
X013459Y005877D01*
X013481Y005877D01*
X013560Y005864D01*
X013636Y005839D01*
X013708Y005803D01*
X013773Y005756D01*
X013829Y005699D01*
X013858Y005659D01*
X013889Y005735D01*
X014072Y005918D01*
X014311Y006017D01*
X014570Y006017D01*
X014809Y005918D01*
X014992Y005735D01*
X015090Y005496D01*
X015090Y004577D01*
X014992Y004338D01*
X014968Y004315D01*
X022890Y004308D01*
X020084Y006171D01*
X020054Y006171D01*
X023107Y006171D01*
X023107Y004308D01*
X022371Y004309D01*
X019999Y005928D01*
X020054Y006062D01*
X020054Y006171D01*
X020054Y006062D01*
X019963Y005841D01*
X019794Y005673D01*
X019573Y005581D01*
X017072Y005581D01*
X016851Y005673D01*
X016674Y005850D01*
X016582Y006070D01*
X016582Y006309D01*
X016674Y006530D01*
X016842Y006698D01*
X017063Y006790D01*
X017302Y006790D01*
X017322Y006781D01*
X018906Y006781D01*
X018749Y006781D01*
X016238Y008495D01*
X016299Y008601D01*
X016372Y008873D01*
X016372Y009155D01*
X016299Y009427D01*
X016158Y009671D01*
X015959Y009870D01*
X015715Y010011D01*
X015443Y010084D01*
X015161Y010084D01*
X014889Y010011D01*
X014645Y009870D01*
X014474Y009699D01*
X012264Y011207D01*
X012264Y011837D01*
X012374Y011947D01*
X012460Y012156D01*
X012460Y012383D01*
X012374Y012592D01*
X012213Y012753D01*
X012004Y012840D01*
X011777Y012840D01*
X011568Y012753D01*
X011407Y012592D01*
X011320Y012383D01*
X011320Y012298D01*
X011304Y012259D01*
X011304Y011863D01*
X001115Y018817D01*
X001116Y019089D01*
X003054Y019089D01*
X003054Y018425D01*
X003145Y018205D01*
X003786Y017564D01*
X004007Y017472D01*
X006002Y017472D01*
X006223Y017564D01*
X006888Y018229D01*
X007056Y018397D01*
X007767Y018397D01*
X007767Y018299D02*
X007767Y018526D01*
X007773Y018540D01*
X007487Y018540D01*
X007186Y018665D01*
X007148Y018703D01*
X007148Y018618D01*
X007056Y018397D01*
X007122Y018555D02*
X007451Y018555D01*
X007767Y018299D02*
X007854Y018089D01*
X008014Y017929D01*
X008223Y017842D01*
X008228Y017842D01*
X008555Y017515D01*
X008555Y015140D01*
X008551Y015137D01*
X008465Y014927D01*
X008465Y014701D01*
X008551Y014491D01*
X008712Y014331D01*
X008921Y014244D01*
X009148Y014244D01*
X009358Y014331D01*
X009518Y014491D01*
X009605Y014701D01*
X009605Y014927D01*
X009518Y015137D01*
X009515Y015140D01*
X009515Y017810D01*
X009442Y017986D01*
X008907Y018521D01*
X008907Y018526D01*
X008820Y018735D01*
X008660Y018895D01*
X008450Y018982D01*
X008382Y018982D01*
X008426Y019089D01*
X008971Y019089D01*
X008971Y019078D01*
X009369Y018680D01*
X009631Y018680D01*
X009631Y019089D01*
X009671Y019089D01*
X009671Y018680D01*
X009932Y018680D01*
X010331Y019078D01*
X010331Y019089D01*
X022755Y019089D01*
X022755Y007709D01*
X022828Y007533D01*
X022963Y007398D01*
X023107Y007254D01*
X023107Y006911D01*
X019115Y006911D01*
X018979Y006855D01*
X018906Y006781D01*
X018979Y006855D01*
X019026Y006874D01*
X016318Y008671D01*
X016299Y008601D01*
X016158Y008357D01*
X015959Y008158D01*
X015715Y008017D01*
X015443Y007944D01*
X015161Y007944D01*
X014889Y008017D01*
X014645Y008158D01*
X014446Y008357D01*
X014305Y008601D01*
X014232Y008873D01*
X014232Y009155D01*
X014305Y009427D01*
X014446Y009671D01*
X014592Y009817D01*
X012264Y011363D01*
X012264Y010777D01*
X012342Y010590D01*
X012342Y010368D01*
X012257Y010163D01*
X012100Y010007D01*
X011895Y009922D01*
X011673Y009922D01*
X011468Y010007D01*
X011312Y010163D01*
X011227Y010368D01*
X011227Y010590D01*
X011304Y010777D01*
X011304Y012000D01*
X001115Y018764D01*
X001107Y015036D01*
X002897Y015036D01*
X003092Y014955D01*
X003241Y014806D01*
X003322Y014611D01*
X003322Y009314D01*
X003241Y009120D01*
X003092Y008971D01*
X002897Y008890D01*
X001091Y008890D01*
X001091Y006733D01*
X001425Y006864D01*
X001425Y006864D01*
X001936Y006902D01*
X001936Y006902D01*
X002436Y006788D01*
X002436Y006788D01*
X002880Y006532D01*
X002880Y006532D01*
X003229Y006156D01*
X003229Y006156D01*
X003451Y005694D01*
X003521Y005231D01*
X003585Y005258D01*
X003585Y011019D01*
X003471Y011132D01*
X003385Y011341D01*
X003385Y011568D01*
X003471Y011778D01*
X003632Y011938D01*
X003841Y012025D01*
X004068Y012025D01*
X004278Y011938D01*
X004438Y011778D01*
X004525Y011568D01*
X004525Y011341D01*
X004438Y011132D01*
X004325Y011019D01*
X004325Y008004D01*
X004558Y008101D01*
X004937Y008101D01*
X005106Y008031D01*
X005103Y008049D01*
X005103Y008083D01*
X005643Y008083D01*
X005643Y008103D01*
X005643Y008643D01*
X005610Y008643D01*
X005524Y008629D01*
X005442Y008602D01*
X005365Y008563D01*
X005295Y008512D01*
X005233Y008451D01*
X005183Y008381D01*
X005143Y008304D01*
X005117Y008222D01*
X005103Y008136D01*
X005103Y008103D01*
X005643Y008103D01*
X005663Y008103D01*
X005663Y008643D01*
X005696Y008643D01*
X005782Y008629D01*
X005864Y008602D01*
X005941Y008563D01*
X006011Y008512D01*
X006021Y008502D01*
X006196Y008678D01*
X006450Y008783D01*
X006724Y008783D01*
X006978Y008678D01*
X007031Y008625D01*
X007084Y008678D01*
X007337Y008783D01*
X007612Y008783D01*
X007865Y008678D01*
X007942Y008601D01*
X008018Y008678D01*
X008272Y008783D01*
X008546Y008783D01*
X008800Y008678D01*
X008994Y008484D01*
X009099Y008230D01*
X009099Y008090D01*
X009125Y008101D01*
X009504Y008101D01*
X009854Y007956D01*
X010122Y007688D01*
X010267Y007337D01*
X010267Y006958D01*
X010122Y006608D01*
X009854Y006340D01*
X009504Y006195D01*
X009125Y006195D01*
X008775Y006340D01*
X008506Y006608D01*
X008476Y006682D01*
X008311Y006518D01*
X008055Y006412D01*
X007778Y006412D01*
X007522Y006518D01*
X007326Y006714D01*
X007220Y006970D01*
X007220Y007247D01*
X007292Y007421D01*
X007084Y007508D01*
X007031Y007561D01*
X006978Y007508D01*
X006769Y007421D01*
X006842Y007247D01*
X006842Y006970D01*
X006736Y006714D01*
X006540Y006518D01*
X006284Y006412D01*
X006007Y006412D01*
X005751Y006518D01*
X005586Y006682D01*
X005555Y006608D01*
X005287Y006340D01*
X004937Y006195D01*
X004558Y006195D01*
X004325Y006291D01*
X004325Y004615D01*
X004268Y004479D01*
X004202Y004413D01*
X004183Y004365D01*
X004239Y004449D02*
X011844Y004449D01*
X011790Y004607D02*
X004322Y004607D01*
X004325Y004766D02*
X011790Y004766D01*
X011790Y004924D02*
X004325Y004924D01*
X004325Y005083D02*
X011790Y005083D01*
X011790Y005241D02*
X004325Y005241D01*
X004325Y005400D02*
X011790Y005400D01*
X011816Y005558D02*
X004325Y005558D01*
X004325Y005717D02*
X011882Y005717D01*
X012030Y005875D02*
X004325Y005875D01*
X004325Y006034D02*
X016598Y006034D01*
X016582Y006192D02*
X004325Y006192D01*
X003585Y006192D02*
X003195Y006192D01*
X003288Y006034D02*
X003585Y006034D01*
X003585Y005875D02*
X003364Y005875D01*
X003440Y005717D02*
X003585Y005717D01*
X003585Y005558D02*
X003472Y005558D01*
X003495Y005400D02*
X003585Y005400D01*
X003545Y005241D02*
X003519Y005241D01*
X003585Y006351D02*
X003048Y006351D01*
X002901Y006509D02*
X003585Y006509D01*
X003585Y006668D02*
X002645Y006668D01*
X002270Y006826D02*
X003585Y006826D01*
X003585Y006985D02*
X001091Y006985D01*
X001091Y007143D02*
X003585Y007143D01*
X003585Y007302D02*
X001091Y007302D01*
X001091Y007460D02*
X003585Y007460D01*
X003585Y007619D02*
X001091Y007619D01*
X001091Y007777D02*
X003585Y007777D01*
X003585Y007936D02*
X001091Y007936D01*
X001091Y008094D02*
X003585Y008094D01*
X003585Y008253D02*
X001091Y008253D01*
X001091Y008411D02*
X003585Y008411D01*
X003585Y008570D02*
X001091Y008570D01*
X001091Y008728D02*
X003585Y008728D01*
X003585Y008887D02*
X001091Y008887D01*
X003167Y009045D02*
X003585Y009045D01*
X003585Y009204D02*
X003276Y009204D01*
X003322Y009362D02*
X003585Y009362D01*
X003585Y009521D02*
X003322Y009521D01*
X003322Y009679D02*
X003585Y009679D01*
X003585Y009838D02*
X003322Y009838D01*
X003322Y009996D02*
X003585Y009996D01*
X003585Y010155D02*
X003322Y010155D01*
X003322Y010313D02*
X003585Y010313D01*
X003585Y010472D02*
X003322Y010472D01*
X003322Y010630D02*
X003585Y010630D01*
X003585Y010789D02*
X003322Y010789D01*
X003322Y010947D02*
X003585Y010947D01*
X003498Y011106D02*
X003322Y011106D01*
X003322Y011264D02*
X003417Y011264D01*
X003385Y011423D02*
X003322Y011423D01*
X003322Y011581D02*
X003390Y011581D01*
X003322Y011740D02*
X003456Y011740D01*
X003322Y011898D02*
X003592Y011898D01*
X003322Y012057D02*
X011219Y012057D01*
X011304Y012057D02*
X011020Y012057D01*
X010980Y012215D02*
X003322Y012215D01*
X003322Y012374D02*
X010741Y012374D01*
X010788Y012215D02*
X011304Y012215D01*
X011320Y012374D02*
X010555Y012374D01*
X010502Y012532D02*
X003322Y012532D01*
X003322Y012691D02*
X010263Y012691D01*
X010323Y012532D02*
X011382Y012532D01*
X011506Y012691D02*
X010091Y012691D01*
X010025Y012849D02*
X003322Y012849D01*
X003322Y013008D02*
X009786Y013008D01*
X009626Y013008D02*
X022755Y013008D01*
X022755Y013166D02*
X009394Y013166D01*
X009547Y013166D02*
X003322Y013166D01*
X003322Y013325D02*
X009308Y013325D01*
X009162Y013325D02*
X022755Y013325D01*
X022755Y013483D02*
X008930Y013483D01*
X009070Y013483D02*
X003322Y013483D01*
X003322Y013642D02*
X008831Y013642D01*
X008698Y013642D02*
X022755Y013642D01*
X022755Y013800D02*
X008465Y013800D01*
X008592Y013800D02*
X003322Y013800D01*
X003322Y013959D02*
X008353Y013959D01*
X008233Y013959D02*
X022755Y013959D01*
X022755Y014117D02*
X008001Y014117D01*
X008115Y014117D02*
X003322Y014117D01*
X003322Y014276D02*
X007876Y014276D01*
X007769Y014276D02*
X008845Y014276D01*
X008608Y014434D02*
X007536Y014434D01*
X007637Y014434D02*
X003322Y014434D01*
X003322Y014593D02*
X007398Y014593D01*
X007304Y014593D02*
X008509Y014593D01*
X008465Y014751D02*
X007072Y014751D01*
X007160Y014751D02*
X003264Y014751D01*
X003137Y014910D02*
X006921Y014910D01*
X006840Y014910D02*
X008465Y014910D01*
X008523Y015068D02*
X006608Y015068D01*
X006682Y015068D02*
X001108Y015068D01*
X001108Y015227D02*
X006443Y015227D01*
X006375Y015227D02*
X008555Y015227D01*
X008555Y015385D02*
X006143Y015385D01*
X006205Y015385D02*
X001108Y015385D01*
X001109Y015544D02*
X005966Y015544D01*
X005911Y015544D02*
X008555Y015544D01*
X008555Y015702D02*
X005679Y015702D01*
X005727Y015702D02*
X001109Y015702D01*
X001109Y015861D02*
X005488Y015861D01*
X005446Y015861D02*
X008555Y015861D01*
X008555Y016019D02*
X005214Y016019D01*
X005250Y016019D02*
X001109Y016019D01*
X001110Y016178D02*
X005011Y016178D01*
X004982Y016178D02*
X008555Y016178D01*
X008555Y016336D02*
X004750Y016336D01*
X004772Y016336D02*
X001110Y016336D01*
X001110Y016495D02*
X004533Y016495D01*
X004518Y016495D02*
X008555Y016495D01*
X008555Y016653D02*
X004285Y016653D01*
X004295Y016653D02*
X001111Y016653D01*
X001111Y016812D02*
X004056Y016812D01*
X004053Y016812D02*
X008555Y016812D01*
X008555Y016970D02*
X003821Y016970D01*
X003817Y016970D02*
X001111Y016970D01*
X001112Y017129D02*
X003578Y017129D01*
X003589Y017129D02*
X008555Y017129D01*
X008555Y017287D02*
X003357Y017287D01*
X003340Y017287D02*
X001112Y017287D01*
X001112Y017446D02*
X003101Y017446D01*
X003124Y017446D02*
X008555Y017446D01*
X008466Y017604D02*
X006263Y017604D01*
X006422Y017763D02*
X008307Y017763D01*
X008032Y017921D02*
X006580Y017921D01*
X006739Y018080D02*
X007863Y018080D01*
X007792Y018238D02*
X006897Y018238D01*
X006888Y018229D02*
X006888Y018229D01*
X008683Y018872D02*
X009177Y018872D01*
X009335Y018714D02*
X008829Y018714D01*
X008894Y018555D02*
X022755Y018555D01*
X022755Y018397D02*
X009031Y018397D01*
X009189Y018238D02*
X022755Y018238D01*
X022755Y018080D02*
X009348Y018080D01*
X009468Y017921D02*
X022755Y017921D01*
X022755Y017763D02*
X009515Y017763D01*
X009515Y017604D02*
X022755Y017604D01*
X022755Y017446D02*
X009515Y017446D01*
X009515Y017287D02*
X022755Y017287D01*
X022755Y017129D02*
X009515Y017129D01*
X009515Y016970D02*
X022755Y016970D01*
X022755Y016812D02*
X009515Y016812D01*
X009515Y016653D02*
X022755Y016653D01*
X022755Y016495D02*
X009515Y016495D01*
X009515Y016336D02*
X022755Y016336D01*
X022755Y016178D02*
X009515Y016178D01*
X009515Y016019D02*
X022755Y016019D01*
X022755Y015861D02*
X009515Y015861D01*
X009515Y015702D02*
X022755Y015702D01*
X022755Y015544D02*
X009515Y015544D01*
X009515Y015385D02*
X022755Y015385D01*
X022755Y015227D02*
X009515Y015227D01*
X009546Y015068D02*
X022755Y015068D01*
X022755Y014910D02*
X009605Y014910D01*
X009605Y014751D02*
X022755Y014751D01*
X022755Y014593D02*
X009560Y014593D01*
X009461Y014434D02*
X022755Y014434D01*
X022755Y014276D02*
X009225Y014276D01*
X009859Y012849D02*
X022755Y012849D01*
X022755Y012691D02*
X012275Y012691D01*
X012399Y012532D02*
X022755Y012532D01*
X022755Y012374D02*
X012460Y012374D01*
X012460Y012215D02*
X022755Y012215D01*
X022755Y012057D02*
X012419Y012057D01*
X012325Y011898D02*
X022755Y011898D01*
X022755Y011740D02*
X012264Y011740D01*
X012264Y011581D02*
X022755Y011581D01*
X022755Y011423D02*
X012264Y011423D01*
X012264Y011264D02*
X022755Y011264D01*
X022755Y011106D02*
X012413Y011106D01*
X012264Y011106D02*
X012651Y011106D01*
X012645Y010947D02*
X022755Y010947D01*
X022755Y010789D02*
X012877Y010789D01*
X012890Y010947D02*
X012264Y010947D01*
X012264Y010789D02*
X013129Y010789D01*
X013110Y010630D02*
X022755Y010630D01*
X022755Y010472D02*
X013342Y010472D01*
X013367Y010630D02*
X012325Y010630D01*
X012342Y010472D02*
X013606Y010472D01*
X013574Y010313D02*
X022755Y010313D01*
X022755Y010155D02*
X013806Y010155D01*
X013845Y010313D02*
X012319Y010313D01*
X012248Y010155D02*
X014084Y010155D01*
X014039Y009996D02*
X014864Y009996D01*
X014613Y009838D02*
X014271Y009838D01*
X014322Y009996D02*
X012075Y009996D01*
X012096Y009808D02*
X011887Y009721D01*
X011818Y009653D01*
X011676Y009795D01*
X011467Y009882D01*
X011240Y009882D01*
X011031Y009795D01*
X010870Y009635D01*
X010784Y009425D01*
X010784Y009199D01*
X010870Y008989D01*
X010874Y008986D01*
X010874Y007314D01*
X010870Y007310D01*
X010784Y007101D01*
X010784Y006874D01*
X010870Y006665D01*
X011031Y006504D01*
X011240Y006417D01*
X011467Y006417D01*
X011676Y006504D01*
X011822Y006650D01*
X011868Y006540D01*
X012028Y006380D01*
X012238Y006293D01*
X012465Y006293D01*
X012674Y006380D01*
X012834Y006540D01*
X012921Y006749D01*
X012921Y006976D01*
X012834Y007186D01*
X012831Y007189D01*
X012831Y009192D01*
X012779Y009317D01*
X012779Y009352D01*
X012693Y009561D01*
X012532Y009721D01*
X012323Y009808D01*
X012096Y009808D01*
X011844Y009679D02*
X011792Y009679D01*
X011574Y009838D02*
X014561Y009838D01*
X014454Y009679D02*
X012574Y009679D01*
X012709Y009521D02*
X014359Y009521D01*
X014288Y009362D02*
X012775Y009362D01*
X012826Y009204D02*
X014245Y009204D01*
X014232Y009045D02*
X012831Y009045D01*
X012831Y008887D02*
X014232Y008887D01*
X014271Y008728D02*
X012831Y008728D01*
X012831Y008570D02*
X014323Y008570D01*
X014415Y008411D02*
X012831Y008411D01*
X012831Y008253D02*
X014550Y008253D01*
X014755Y008094D02*
X012831Y008094D01*
X012831Y007936D02*
X017426Y007936D01*
X017290Y007777D02*
X022755Y007777D01*
X022755Y007936D02*
X017057Y007936D01*
X017187Y008094D02*
X015849Y008094D01*
X016054Y008253D02*
X016949Y008253D01*
X016825Y008094D02*
X018112Y008094D01*
X018099Y008096D02*
X018197Y008085D01*
X018197Y008956D01*
X018313Y008956D01*
X018313Y009072D01*
X019184Y009072D01*
X019173Y009170D01*
X019150Y009272D01*
X019116Y009370D01*
X019070Y009465D01*
X019015Y009553D01*
X018949Y009635D01*
X018876Y009709D01*
X018794Y009774D01*
X018706Y009829D01*
X018611Y009875D01*
X018513Y009909D01*
X018411Y009932D01*
X018313Y009943D01*
X018313Y009072D01*
X018197Y009072D01*
X018197Y009943D01*
X018099Y009932D01*
X017997Y009909D01*
X017899Y009875D01*
X017804Y009829D01*
X017716Y009774D01*
X017634Y009709D01*
X017560Y009635D01*
X017495Y009553D01*
X017440Y009465D01*
X017394Y009370D01*
X017360Y009272D01*
X017337Y009170D01*
X017326Y009072D01*
X018197Y009072D01*
X018197Y008956D01*
X017326Y008956D01*
X017337Y008858D01*
X017360Y008756D01*
X017394Y008658D01*
X017440Y008563D01*
X017495Y008475D01*
X017560Y008393D01*
X017634Y008319D01*
X017716Y008254D01*
X017804Y008199D01*
X017899Y008153D01*
X017997Y008119D01*
X018099Y008096D01*
X018197Y008094D02*
X018313Y008094D01*
X018313Y008085D02*
X018411Y008096D01*
X018513Y008119D01*
X018611Y008153D01*
X018706Y008199D01*
X018794Y008254D01*
X018876Y008319D01*
X018949Y008393D01*
X019015Y008475D01*
X019070Y008563D01*
X019116Y008658D01*
X019150Y008756D01*
X019173Y008858D01*
X019184Y008956D01*
X018313Y008956D01*
X018313Y008085D01*
X018398Y008094D02*
X022755Y008094D01*
X022755Y008253D02*
X018791Y008253D01*
X018964Y008411D02*
X022755Y008411D01*
X022755Y008570D02*
X019073Y008570D01*
X019140Y008728D02*
X022755Y008728D01*
X022755Y008887D02*
X019177Y008887D01*
X019166Y009204D02*
X022755Y009204D01*
X022755Y009362D02*
X019118Y009362D01*
X019035Y009521D02*
X022755Y009521D01*
X022755Y009679D02*
X018905Y009679D01*
X018688Y009838D02*
X022755Y009838D01*
X022755Y009996D02*
X015741Y009996D01*
X015992Y009838D02*
X017822Y009838D01*
X017605Y009679D02*
X016150Y009679D01*
X016245Y009521D02*
X017475Y009521D01*
X017392Y009362D02*
X016317Y009362D01*
X016359Y009204D02*
X017344Y009204D01*
X017333Y008887D02*
X016372Y008887D01*
X016372Y009045D02*
X018197Y009045D01*
X018313Y009045D02*
X022755Y009045D01*
X024390Y009045D02*
X026509Y009045D01*
X026495Y009081D02*
X026594Y008842D01*
X026776Y008659D01*
X027015Y008560D01*
X027274Y008560D01*
X027513Y008659D01*
X027645Y008791D01*
X027776Y008659D01*
X028015Y008560D01*
X028274Y008560D01*
X028513Y008659D01*
X028645Y008791D01*
X028776Y008659D01*
X028898Y008609D01*
X028558Y008609D01*
X028544Y008614D01*
X028485Y008609D01*
X028426Y008609D01*
X028412Y008604D01*
X028397Y008602D01*
X028344Y008576D01*
X028290Y008553D01*
X028279Y008542D01*
X028266Y008536D01*
X028227Y008491D01*
X028185Y008449D01*
X028180Y008435D01*
X028156Y008408D01*
X028041Y008408D01*
X027832Y008321D01*
X027672Y008161D01*
X027585Y007951D01*
X027585Y007779D01*
X024390Y007779D01*
X024390Y011120D01*
X026495Y011120D01*
X026525Y011023D01*
X026814Y010600D01*
X026948Y010493D01*
X026776Y010421D01*
X026594Y010239D01*
X026495Y010000D01*
X026495Y009081D01*
X026495Y009204D02*
X024390Y009204D01*
X024390Y009362D02*
X026495Y009362D01*
X026495Y009521D02*
X024390Y009521D01*
X024390Y009679D02*
X026495Y009679D01*
X026495Y009838D02*
X024390Y009838D01*
X024390Y009996D02*
X026495Y009996D01*
X026559Y010155D02*
X024390Y010155D01*
X024390Y010313D02*
X026668Y010313D01*
X026898Y010472D02*
X024390Y010472D01*
X024390Y010630D02*
X026793Y010630D01*
X026814Y010600D02*
X026814Y010600D01*
X026685Y010789D02*
X024390Y010789D01*
X024390Y010947D02*
X026577Y010947D01*
X026499Y011106D02*
X024390Y011106D01*
X024390Y012745D02*
X024390Y019937D01*
X024054Y019937D01*
X024548Y020431D01*
X024548Y020290D01*
X024634Y020081D01*
X024636Y020079D01*
X024618Y015366D01*
X024614Y015362D01*
X024527Y015153D01*
X024527Y014926D01*
X024614Y014716D01*
X024774Y014556D01*
X024984Y014469D01*
X025210Y014469D01*
X025420Y014556D01*
X025580Y014716D01*
X025667Y014926D01*
X025667Y015153D01*
X025580Y015362D01*
X025578Y015364D01*
X025596Y020076D01*
X025601Y020081D01*
X025688Y020290D01*
X025688Y020517D01*
X025601Y020726D01*
X025440Y020887D01*
X025231Y020973D01*
X025090Y020973D01*
X025111Y020994D01*
X026552Y020994D01*
X026642Y020776D01*
X026825Y020593D01*
X027064Y020494D01*
X027323Y020494D01*
X027562Y020593D01*
X027673Y020705D01*
X027673Y019349D01*
X027209Y019167D01*
X026808Y018847D01*
X026808Y018847D01*
X026519Y018423D01*
X026368Y017933D01*
X026368Y017421D01*
X026519Y016931D01*
X026519Y016931D01*
X026808Y016507D01*
X026911Y016425D01*
X026773Y016367D01*
X026590Y016185D01*
X026491Y015946D01*
X026491Y015027D01*
X026590Y014788D01*
X026773Y014605D01*
X027012Y014506D01*
X027270Y014506D01*
X027509Y014605D01*
X027641Y014737D01*
X027773Y014605D01*
X028012Y014506D01*
X028270Y014506D01*
X028509Y014605D01*
X028641Y014737D01*
X028773Y014605D01*
X029012Y014506D01*
X029270Y014506D01*
X029509Y014605D01*
X029692Y014788D01*
X029791Y015027D01*
X029791Y015946D01*
X029692Y016185D01*
X029509Y016367D01*
X029270Y016466D01*
X029266Y016466D01*
X029490Y016708D01*
X029712Y017170D01*
X029722Y017233D01*
X031988Y017233D01*
X031988Y016783D01*
X030673Y016783D01*
X030651Y016793D01*
X030270Y016793D01*
X030134Y016736D01*
X030030Y016632D01*
X029973Y016496D01*
X029973Y013389D01*
X028616Y013391D01*
X028203Y013485D01*
X027692Y013447D01*
X027553Y013392D01*
X026083Y013394D01*
X025969Y013508D01*
X025760Y013594D01*
X025533Y013594D01*
X025323Y013508D01*
X025163Y013347D01*
X025076Y013138D01*
X025076Y012911D01*
X025145Y012745D01*
X024390Y012745D01*
X024390Y012849D02*
X025102Y012849D01*
X025076Y013008D02*
X024390Y013008D01*
X024390Y013166D02*
X025088Y013166D01*
X025154Y013325D02*
X024390Y013325D01*
X024390Y013483D02*
X025299Y013483D01*
X025994Y013483D02*
X028182Y013483D01*
X028203Y013485D02*
X028203Y013485D01*
X028210Y013483D02*
X029973Y013483D01*
X029973Y013642D02*
X024390Y013642D01*
X024390Y013800D02*
X029973Y013800D01*
X029973Y013959D02*
X024390Y013959D01*
X024390Y014117D02*
X029973Y014117D01*
X029973Y014276D02*
X024390Y014276D01*
X024390Y014434D02*
X029973Y014434D01*
X029973Y014593D02*
X029479Y014593D01*
X029655Y014751D02*
X029973Y014751D01*
X029973Y014910D02*
X029742Y014910D01*
X029791Y015068D02*
X029973Y015068D01*
X029973Y015227D02*
X029791Y015227D01*
X029791Y015385D02*
X029973Y015385D01*
X029973Y015544D02*
X029791Y015544D01*
X029791Y015702D02*
X029973Y015702D01*
X029973Y015861D02*
X029791Y015861D01*
X029761Y016019D02*
X029973Y016019D01*
X029973Y016178D02*
X029695Y016178D01*
X029540Y016336D02*
X029973Y016336D01*
X029973Y016495D02*
X029292Y016495D01*
X029439Y016653D02*
X030051Y016653D01*
X029540Y016812D02*
X031988Y016812D01*
X031988Y016970D02*
X029616Y016970D01*
X029692Y017129D02*
X031988Y017129D01*
X029712Y017170D02*
X029712Y017170D01*
X029490Y016708D02*
X029490Y016708D01*
X030713Y016043D02*
X031988Y016043D01*
X031988Y014899D01*
X031925Y014873D01*
X031790Y014738D01*
X031716Y014561D01*
X031716Y012988D01*
X031555Y013149D01*
X031555Y013154D01*
X031469Y013363D01*
X031308Y013524D01*
X031099Y013610D01*
X030872Y013610D01*
X030713Y013545D01*
X030713Y016043D01*
X030713Y016019D02*
X031988Y016019D01*
X031988Y015861D02*
X030713Y015861D01*
X030713Y015702D02*
X031988Y015702D01*
X031988Y015544D02*
X030713Y015544D01*
X030713Y015385D02*
X031988Y015385D01*
X031988Y015227D02*
X030713Y015227D01*
X030713Y015068D02*
X031988Y015068D01*
X031988Y014910D02*
X030713Y014910D01*
X030713Y014751D02*
X031803Y014751D01*
X031730Y014593D02*
X030713Y014593D01*
X030713Y014434D02*
X031716Y014434D01*
X031716Y014276D02*
X030713Y014276D01*
X030713Y014117D02*
X031716Y014117D01*
X031716Y013959D02*
X030713Y013959D01*
X030713Y013800D02*
X031716Y013800D01*
X031716Y013642D02*
X030713Y013642D01*
X031349Y013483D02*
X031716Y013483D01*
X031716Y013325D02*
X031485Y013325D01*
X031550Y013166D02*
X031716Y013166D01*
X031716Y013008D02*
X031697Y013008D01*
X027692Y013447D02*
X027692Y013447D01*
X027803Y014593D02*
X027479Y014593D01*
X026803Y014593D02*
X025457Y014593D01*
X025595Y014751D02*
X026627Y014751D01*
X026540Y014910D02*
X025660Y014910D01*
X025667Y015068D02*
X026491Y015068D01*
X026491Y015227D02*
X025636Y015227D01*
X025578Y015385D02*
X026491Y015385D01*
X026491Y015544D02*
X025579Y015544D01*
X025580Y015702D02*
X026491Y015702D01*
X026491Y015861D02*
X025580Y015861D01*
X025581Y016019D02*
X026522Y016019D01*
X026587Y016178D02*
X025581Y016178D01*
X025582Y016336D02*
X026742Y016336D01*
X026823Y016495D02*
X025583Y016495D01*
X025583Y016653D02*
X026708Y016653D01*
X026808Y016507D02*
X026808Y016507D01*
X026808Y016507D01*
X026600Y016812D02*
X025584Y016812D01*
X025584Y016970D02*
X026507Y016970D01*
X026458Y017129D02*
X025585Y017129D01*
X025586Y017287D02*
X026409Y017287D01*
X026368Y017446D02*
X025586Y017446D01*
X025587Y017604D02*
X026368Y017604D01*
X026368Y017763D02*
X025587Y017763D01*
X025588Y017921D02*
X026368Y017921D01*
X026413Y018080D02*
X025589Y018080D01*
X025589Y018238D02*
X026462Y018238D01*
X026511Y018397D02*
X025590Y018397D01*
X025590Y018555D02*
X026609Y018555D01*
X026519Y018423D02*
X026519Y018423D01*
X026717Y018714D02*
X025591Y018714D01*
X025592Y018872D02*
X026840Y018872D01*
X026808Y018847D02*
X026808Y018847D01*
X027038Y019031D02*
X025592Y019031D01*
X025593Y019189D02*
X027267Y019189D01*
X027209Y019167D02*
X027209Y019167D01*
X027670Y019348D02*
X025593Y019348D01*
X025594Y019506D02*
X027673Y019506D01*
X027673Y019665D02*
X025595Y019665D01*
X025595Y019823D02*
X027673Y019823D01*
X027673Y019982D02*
X025596Y019982D01*
X025625Y020140D02*
X027673Y020140D01*
X027673Y020299D02*
X025688Y020299D01*
X025688Y020457D02*
X027673Y020457D01*
X027673Y020616D02*
X027584Y020616D01*
X026802Y020616D02*
X025647Y020616D01*
X025553Y020774D02*
X026644Y020774D01*
X026577Y020933D02*
X025329Y020933D01*
X024548Y020299D02*
X024415Y020299D01*
X024257Y020140D02*
X024610Y020140D01*
X024636Y019982D02*
X024098Y019982D01*
X024390Y019823D02*
X024635Y019823D01*
X024635Y019665D02*
X024390Y019665D01*
X024390Y019506D02*
X024634Y019506D01*
X024633Y019348D02*
X024390Y019348D01*
X024390Y019189D02*
X024633Y019189D01*
X024632Y019031D02*
X024390Y019031D01*
X024390Y018872D02*
X024632Y018872D01*
X024631Y018714D02*
X024390Y018714D01*
X024390Y018555D02*
X024630Y018555D01*
X024630Y018397D02*
X024390Y018397D01*
X024390Y018238D02*
X024629Y018238D01*
X024629Y018080D02*
X024390Y018080D01*
X024390Y017921D02*
X024628Y017921D01*
X024627Y017763D02*
X024390Y017763D01*
X024390Y017604D02*
X024627Y017604D01*
X024626Y017446D02*
X024390Y017446D01*
X024390Y017287D02*
X024626Y017287D01*
X024625Y017129D02*
X024390Y017129D01*
X024390Y016970D02*
X024624Y016970D01*
X024624Y016812D02*
X024390Y016812D01*
X024390Y016653D02*
X024623Y016653D01*
X024623Y016495D02*
X024390Y016495D01*
X024390Y016336D02*
X024622Y016336D01*
X024621Y016178D02*
X024390Y016178D01*
X024390Y016019D02*
X024621Y016019D01*
X024620Y015861D02*
X024390Y015861D01*
X024390Y015702D02*
X024620Y015702D01*
X024619Y015544D02*
X024390Y015544D01*
X024390Y015385D02*
X024618Y015385D01*
X024558Y015227D02*
X024390Y015227D01*
X024390Y015068D02*
X024527Y015068D01*
X024534Y014910D02*
X024390Y014910D01*
X024390Y014751D02*
X024599Y014751D01*
X024737Y014593D02*
X024390Y014593D01*
X028479Y014593D02*
X028803Y014593D01*
X029649Y011120D02*
X029793Y011120D01*
X029793Y010003D01*
X029696Y010239D01*
X029513Y010421D01*
X029274Y010520D01*
X029235Y010520D01*
X029496Y010801D01*
X029649Y011120D01*
X029643Y011106D02*
X029793Y011106D01*
X029793Y010947D02*
X029566Y010947D01*
X029496Y010801D02*
X029496Y010801D01*
X029484Y010789D02*
X029793Y010789D01*
X029793Y010630D02*
X029337Y010630D01*
X029391Y010472D02*
X029793Y010472D01*
X029793Y010313D02*
X029621Y010313D01*
X029730Y010155D02*
X029793Y010155D01*
X029793Y009078D02*
X029793Y008778D01*
X029718Y008809D01*
X029663Y008809D01*
X029696Y008842D01*
X029793Y009078D01*
X029793Y009045D02*
X029780Y009045D01*
X029793Y008887D02*
X029714Y008887D01*
X028708Y008728D02*
X028582Y008728D01*
X028330Y008570D02*
X028297Y008570D01*
X028159Y008411D02*
X024390Y008411D01*
X024390Y008253D02*
X027764Y008253D01*
X027644Y008094D02*
X024390Y008094D01*
X024390Y007936D02*
X027585Y007936D01*
X027297Y008570D02*
X027993Y008570D01*
X027708Y008728D02*
X027582Y008728D01*
X026993Y008570D02*
X024390Y008570D01*
X024390Y008728D02*
X026708Y008728D01*
X026575Y008887D02*
X024390Y008887D01*
X022793Y007619D02*
X017522Y007619D01*
X017665Y007777D02*
X012831Y007777D01*
X012831Y007619D02*
X017904Y007619D01*
X017754Y007460D02*
X022901Y007460D01*
X023059Y007302D02*
X017986Y007302D01*
X018142Y007460D02*
X012831Y007460D01*
X012831Y007302D02*
X018381Y007302D01*
X018218Y007143D02*
X023107Y007143D01*
X023107Y006985D02*
X018451Y006985D01*
X018620Y007143D02*
X012852Y007143D01*
X012918Y006985D02*
X018859Y006985D01*
X018951Y006826D02*
X018683Y006826D01*
X018951Y006826D02*
X012921Y006826D01*
X012887Y006668D02*
X016812Y006668D01*
X016665Y006509D02*
X012804Y006509D01*
X012604Y006351D02*
X016600Y006351D01*
X016663Y005875D02*
X014851Y005875D01*
X014999Y005717D02*
X016807Y005717D01*
X015090Y005400D02*
X021246Y005400D01*
X021007Y005558D02*
X015065Y005558D01*
X015090Y005241D02*
X021485Y005241D01*
X021724Y005083D02*
X015090Y005083D01*
X015090Y004924D02*
X021962Y004924D01*
X022201Y004766D02*
X015090Y004766D01*
X015090Y004607D02*
X022440Y004607D01*
X022679Y004449D02*
X015037Y004449D01*
X013459Y005083D02*
X013422Y005083D01*
X013422Y005241D02*
X013459Y005241D01*
X013459Y005400D02*
X013422Y005400D01*
X013422Y005558D02*
X013459Y005558D01*
X013459Y005717D02*
X013422Y005717D01*
X013422Y005875D02*
X013459Y005875D01*
X013489Y005875D02*
X014030Y005875D01*
X013882Y005717D02*
X013811Y005717D01*
X013392Y005875D02*
X012851Y005875D01*
X012999Y005717D02*
X013069Y005717D01*
X012098Y006351D02*
X009865Y006351D01*
X010024Y006509D02*
X011026Y006509D01*
X010869Y006668D02*
X010147Y006668D01*
X010213Y006826D02*
X010803Y006826D01*
X010784Y006985D02*
X010267Y006985D01*
X010267Y007143D02*
X010801Y007143D01*
X010867Y007302D02*
X010267Y007302D01*
X010217Y007460D02*
X010874Y007460D01*
X010874Y007619D02*
X010151Y007619D01*
X010033Y007777D02*
X010874Y007777D01*
X010874Y007936D02*
X009874Y007936D01*
X009520Y008094D02*
X010874Y008094D01*
X010874Y008253D02*
X009089Y008253D01*
X009099Y008094D02*
X009109Y008094D01*
X009024Y008411D02*
X010874Y008411D01*
X010874Y008570D02*
X008908Y008570D01*
X008678Y008728D02*
X010874Y008728D01*
X010874Y008887D02*
X004325Y008887D01*
X004325Y009045D02*
X010847Y009045D01*
X010784Y009204D02*
X004325Y009204D01*
X004325Y009362D02*
X010784Y009362D01*
X010823Y009521D02*
X004325Y009521D01*
X004325Y009679D02*
X010915Y009679D01*
X011133Y009838D02*
X004325Y009838D01*
X004325Y009996D02*
X011493Y009996D01*
X011320Y010155D02*
X004325Y010155D01*
X004325Y010313D02*
X011249Y010313D01*
X011227Y010472D02*
X004325Y010472D01*
X004325Y010630D02*
X011243Y010630D01*
X011304Y010789D02*
X004325Y010789D01*
X004325Y010947D02*
X011304Y010947D01*
X011304Y011106D02*
X004412Y011106D01*
X004493Y011264D02*
X011304Y011264D01*
X011304Y011423D02*
X004525Y011423D01*
X004519Y011581D02*
X011304Y011581D01*
X011304Y011740D02*
X004454Y011740D01*
X004317Y011898D02*
X011304Y011898D01*
X011252Y011898D01*
X012264Y011264D02*
X012412Y011264D01*
X018197Y009838D02*
X018313Y009838D01*
X018313Y009679D02*
X018197Y009679D01*
X018197Y009521D02*
X018313Y009521D01*
X018313Y009362D02*
X018197Y009362D01*
X018197Y009204D02*
X018313Y009204D01*
X018313Y008887D02*
X018197Y008887D01*
X018197Y008728D02*
X018313Y008728D01*
X018313Y008570D02*
X018197Y008570D01*
X018197Y008411D02*
X018313Y008411D01*
X018313Y008253D02*
X018197Y008253D01*
X017718Y008253D02*
X016593Y008253D01*
X016710Y008411D02*
X016190Y008411D01*
X016361Y008411D02*
X017546Y008411D01*
X017437Y008570D02*
X016281Y008570D01*
X016471Y008570D01*
X016333Y008728D02*
X017370Y008728D01*
X011899Y006509D02*
X011681Y006509D01*
X008764Y006351D02*
X005298Y006351D01*
X005457Y006509D02*
X005772Y006509D01*
X005601Y006668D02*
X005580Y006668D01*
X006519Y006509D02*
X007543Y006509D01*
X007372Y006668D02*
X006689Y006668D01*
X006782Y006826D02*
X007280Y006826D01*
X007220Y006985D02*
X006842Y006985D01*
X006842Y007143D02*
X007220Y007143D01*
X007243Y007302D02*
X006819Y007302D01*
X006863Y007460D02*
X007199Y007460D01*
X005643Y008094D02*
X004953Y008094D01*
X005127Y008253D02*
X004325Y008253D01*
X004325Y008411D02*
X005205Y008411D01*
X005378Y008570D02*
X004325Y008570D01*
X004325Y008728D02*
X006318Y008728D01*
X006088Y008570D02*
X005928Y008570D01*
X005663Y008570D02*
X005643Y008570D01*
X005643Y008411D02*
X005663Y008411D01*
X005663Y008253D02*
X005643Y008253D01*
X004542Y008094D02*
X004325Y008094D01*
X006856Y008728D02*
X007206Y008728D01*
X007743Y008728D02*
X008140Y008728D01*
X008461Y006668D02*
X008482Y006668D01*
X008605Y006509D02*
X008290Y006509D01*
X001328Y006826D02*
X001091Y006826D01*
X019838Y005717D02*
X020769Y005717D01*
X020541Y005558D02*
X023107Y005558D01*
X023116Y005558D02*
X029718Y005558D01*
X029718Y005400D02*
X023116Y005400D01*
X023107Y005400D02*
X020773Y005400D01*
X021005Y005241D02*
X023107Y005241D01*
X023116Y005241D02*
X029718Y005241D01*
X029718Y005083D02*
X023116Y005083D01*
X023107Y005083D02*
X021237Y005083D01*
X021470Y004924D02*
X023107Y004924D01*
X023116Y004924D02*
X029718Y004924D01*
X029718Y004766D02*
X023116Y004766D01*
X023107Y004766D02*
X021702Y004766D01*
X021934Y004607D02*
X023107Y004607D01*
X023116Y004607D02*
X029718Y004607D01*
X029718Y004482D02*
X029718Y006562D01*
X029462Y006817D01*
X029436Y006817D01*
X029480Y006773D01*
X029542Y006623D01*
X029542Y006459D01*
X029480Y006309D01*
X029364Y006193D01*
X029214Y006131D01*
X029051Y006131D01*
X028900Y006193D01*
X028785Y006309D01*
X028775Y006331D01*
X023116Y006331D01*
X023116Y004308D01*
X027185Y004305D01*
X027201Y004344D01*
X027316Y004460D01*
X027467Y004522D01*
X027630Y004522D01*
X027781Y004460D01*
X027896Y004344D01*
X027912Y004304D01*
X029730Y004303D01*
X029730Y004452D01*
X029718Y004482D01*
X029730Y004449D02*
X027791Y004449D01*
X027305Y004449D02*
X023116Y004449D01*
X023107Y004449D02*
X022166Y004449D01*
X023107Y005717D02*
X020308Y005717D01*
X020530Y005875D02*
X019977Y005875D01*
X020076Y005875D02*
X023107Y005875D01*
X023116Y005875D02*
X029718Y005875D01*
X029718Y005717D02*
X023116Y005717D01*
X023116Y006034D02*
X029718Y006034D01*
X029718Y006192D02*
X029362Y006192D01*
X029497Y006351D02*
X029718Y006351D01*
X029718Y006509D02*
X029542Y006509D01*
X029523Y006668D02*
X029612Y006668D01*
X028903Y006192D02*
X023116Y006192D01*
X023107Y006034D02*
X020042Y006034D01*
X020291Y006034D01*
X030906Y006815D02*
X031138Y006583D01*
X031332Y006583D01*
X031268Y006648D01*
X031133Y006783D01*
X031122Y006808D01*
X030923Y006808D01*
X030906Y006815D01*
X031054Y006668D02*
X031248Y006668D01*
X031908Y005702D02*
X031935Y005676D01*
X039163Y004761D02*
X041786Y007384D01*
X056245Y011527D02*
X056245Y013804D01*
X056321Y013622D01*
X056481Y013461D01*
X056690Y013375D01*
X056917Y013375D01*
X057127Y013461D01*
X057287Y013622D01*
X057307Y013670D01*
X057340Y013657D01*
X057566Y013657D01*
X057706Y013714D01*
X057716Y013704D01*
X057926Y013617D01*
X058153Y013617D01*
X058362Y013704D01*
X058523Y013864D01*
X058609Y014074D01*
X058609Y014300D01*
X058523Y014510D01*
X058409Y014623D01*
X058409Y015533D01*
X058425Y015570D01*
X058425Y015888D01*
X060248Y015888D01*
X060241Y015872D01*
X060241Y013626D01*
X060035Y013711D01*
X059808Y013711D01*
X059598Y013625D01*
X059438Y013464D01*
X059351Y013255D01*
X059351Y013028D01*
X059438Y012819D01*
X059598Y012658D01*
X059611Y012653D01*
X059611Y012322D01*
X059498Y012208D01*
X059411Y011999D01*
X059411Y011857D01*
X059204Y011857D01*
X059204Y012018D01*
X059117Y012227D01*
X058999Y012346D01*
X059004Y012351D01*
X059091Y012560D01*
X059091Y012787D01*
X059004Y012997D01*
X058843Y013157D01*
X058634Y013244D01*
X058407Y013244D01*
X058198Y013157D01*
X058084Y013044D01*
X057434Y013044D01*
X057298Y012987D01*
X057194Y012883D01*
X057138Y012747D01*
X057138Y012454D01*
X056964Y012454D01*
X056964Y011997D01*
X056809Y011997D01*
X056809Y011842D01*
X056392Y011842D01*
X056392Y011541D01*
X056404Y011496D01*
X056428Y011454D01*
X056461Y011421D01*
X056502Y011397D01*
X056548Y011385D01*
X056809Y011385D01*
X056809Y011842D01*
X056964Y011842D01*
X056964Y011385D01*
X057138Y011385D01*
X057138Y011161D01*
X057054Y011161D01*
X056877Y011088D01*
X056701Y011161D01*
X056613Y011161D01*
X056405Y011349D01*
X056391Y011381D01*
X056267Y011505D01*
X056245Y011527D01*
X056245Y011581D02*
X056392Y011581D01*
X056392Y011740D02*
X056245Y011740D01*
X056245Y011898D02*
X056809Y011898D01*
X056809Y011997D02*
X056392Y011997D01*
X056392Y012297D01*
X056404Y012343D01*
X056428Y012384D01*
X056461Y012418D01*
X056502Y012441D01*
X056548Y012454D01*
X056809Y012454D01*
X056809Y011997D01*
X056809Y012057D02*
X056964Y012057D01*
X056964Y012215D02*
X056809Y012215D01*
X056809Y012374D02*
X056964Y012374D01*
X057138Y012532D02*
X056245Y012532D01*
X056245Y012374D02*
X056422Y012374D01*
X056392Y012215D02*
X056245Y012215D01*
X056245Y012057D02*
X056392Y012057D01*
X056809Y011740D02*
X056964Y011740D01*
X056964Y011581D02*
X056809Y011581D01*
X056809Y011423D02*
X056964Y011423D01*
X057138Y011264D02*
X056498Y011264D01*
X056459Y011423D02*
X056350Y011423D01*
X056833Y011106D02*
X056921Y011106D01*
X058961Y010563D02*
X059030Y010632D01*
X059117Y010842D01*
X059117Y011069D01*
X059097Y011117D01*
X060040Y011117D01*
X059985Y011062D01*
X059825Y011062D01*
X059615Y010976D01*
X059455Y010815D01*
X059368Y010606D01*
X059368Y010379D01*
X059455Y010170D01*
X059615Y010009D01*
X059825Y009922D01*
X060051Y009922D01*
X060261Y010009D01*
X060421Y010170D01*
X060508Y010379D01*
X060508Y010539D01*
X060702Y010734D01*
X060972Y010734D01*
X060972Y009133D01*
X060966Y009115D01*
X060972Y009060D01*
X060972Y009004D01*
X060979Y008987D01*
X060980Y008969D01*
X061007Y008920D01*
X061028Y008868D01*
X061041Y008855D01*
X061050Y008839D01*
X061093Y008804D01*
X061132Y008764D01*
X061149Y008757D01*
X061260Y008666D01*
X061300Y008626D01*
X061317Y008619D01*
X061331Y008608D01*
X061384Y008591D01*
X061436Y008570D01*
X061454Y008570D01*
X061472Y008565D01*
X061527Y008570D01*
X062406Y008570D01*
X062429Y008516D01*
X062519Y008426D01*
X062637Y008377D01*
X064864Y008377D01*
X064982Y008426D01*
X065072Y008516D01*
X065120Y008633D01*
X065120Y009521D01*
X066180Y009521D01*
X066180Y008633D01*
X066229Y008516D01*
X066319Y008426D01*
X066437Y008377D01*
X068664Y008377D01*
X068782Y008426D01*
X068872Y008516D01*
X068920Y008633D01*
X068920Y009521D01*
X069005Y009521D01*
X068920Y009521D02*
X068872Y009638D01*
X068782Y009728D01*
X068664Y009777D01*
X068337Y009777D01*
X068337Y009890D01*
X068281Y010026D01*
X068176Y010130D01*
X067991Y010316D01*
X067991Y010845D01*
X067942Y010963D01*
X067852Y011053D01*
X067753Y011094D01*
X067782Y011110D01*
X067815Y011144D01*
X067839Y011185D01*
X067851Y011231D01*
X067851Y011492D01*
X067394Y011492D01*
X067394Y011647D01*
X067239Y011647D01*
X067239Y012064D01*
X066939Y012064D01*
X066893Y012052D01*
X066852Y012028D01*
X066818Y011995D01*
X066795Y011954D01*
X066782Y011908D01*
X066782Y011647D01*
X067239Y011647D01*
X067239Y011492D01*
X066782Y011492D01*
X066782Y011231D01*
X066795Y011185D01*
X066818Y011144D01*
X066852Y011110D01*
X066880Y011094D01*
X066781Y011053D01*
X066691Y010963D01*
X066642Y010845D01*
X066642Y010837D01*
X065313Y010837D01*
X064861Y011289D01*
X064810Y011340D01*
X064809Y011341D01*
X064808Y011342D01*
X064741Y011369D01*
X064675Y011397D01*
X064673Y011397D01*
X064672Y011398D01*
X064600Y011398D01*
X064435Y011399D01*
X064435Y011494D01*
X063978Y011494D01*
X063978Y011649D01*
X063823Y011649D01*
X063823Y012066D01*
X063556Y012066D01*
X063535Y012117D01*
X063445Y012207D01*
X063327Y012255D01*
X063065Y012255D01*
X063145Y012336D01*
X063232Y012546D01*
X063232Y012772D01*
X063145Y012982D01*
X062985Y013142D01*
X062776Y013229D01*
X062549Y013229D01*
X062339Y013142D01*
X062179Y012982D01*
X062092Y012772D01*
X062092Y012546D01*
X062179Y012336D01*
X062292Y012223D01*
X062292Y012125D01*
X062284Y012117D01*
X062250Y012035D01*
X062249Y012036D01*
X062044Y012036D01*
X062044Y012135D01*
X061957Y012345D01*
X061797Y012505D01*
X061587Y012592D01*
X061360Y012592D01*
X061151Y012505D01*
X060991Y012345D01*
X060934Y012208D01*
X060583Y011857D01*
X060551Y011857D01*
X060551Y011999D01*
X060464Y012208D01*
X060351Y012322D01*
X060351Y012688D01*
X060358Y012681D01*
X060567Y012595D01*
X060794Y012595D01*
X061004Y012681D01*
X061164Y012842D01*
X061251Y013051D01*
X061251Y013278D01*
X061164Y013488D01*
X061004Y013648D01*
X060981Y013657D01*
X060981Y015645D01*
X060995Y015659D01*
X062980Y015659D01*
X062971Y015637D01*
X062971Y015410D01*
X063058Y015200D01*
X063218Y015040D01*
X063428Y014953D01*
X063655Y014953D01*
X063864Y015040D01*
X064024Y015200D01*
X064089Y015357D01*
X064113Y015334D01*
X064322Y015248D01*
X064549Y015248D01*
X064758Y015334D01*
X064919Y015495D01*
X064921Y015501D01*
X064929Y015504D01*
X065033Y015608D01*
X065089Y015744D01*
X065089Y016472D01*
X065098Y016472D01*
X065216Y016521D01*
X065306Y016611D01*
X065354Y016729D01*
X065354Y017564D01*
X065325Y017636D01*
X067208Y017636D01*
X067322Y017523D01*
X068100Y017523D01*
X068651Y018073D01*
X068651Y018852D01*
X068100Y019403D01*
X067322Y019403D01*
X066771Y018852D01*
X066771Y018596D01*
X065312Y018596D01*
X065297Y018633D01*
X065337Y018728D01*
X065337Y019564D01*
X065288Y019682D01*
X065198Y019772D01*
X065080Y019820D01*
X064323Y019820D01*
X064205Y019772D01*
X064151Y019717D01*
X064096Y019772D01*
X063978Y019820D01*
X063221Y019820D01*
X063103Y019772D01*
X063013Y019682D01*
X062990Y019626D01*
X062646Y019626D01*
X062529Y019744D01*
X062529Y020173D01*
X062608Y020140D01*
X062835Y020140D01*
X062982Y020201D01*
X062991Y020179D01*
X063081Y020089D01*
X063199Y020041D01*
X063956Y020041D01*
X064074Y020089D01*
X064129Y020144D01*
X064184Y020089D01*
X064301Y020041D01*
X065059Y020041D01*
X065176Y020089D01*
X065266Y020179D01*
X065315Y020297D01*
X065315Y020671D01*
X065627Y020983D01*
X066856Y020983D01*
X067316Y020523D01*
X068095Y020523D01*
X068646Y021074D01*
X068646Y021617D01*
X069274Y020989D01*
X069005Y020720D01*
X069005Y019941D01*
X069555Y019390D01*
X070334Y019390D01*
X070460Y019517D01*
X070460Y010344D01*
X070334Y010470D01*
X069555Y010470D01*
X069005Y009920D01*
X069005Y009141D01*
X069555Y008590D01*
X070334Y008590D01*
X070839Y009095D01*
X070907Y009123D01*
X070989Y009205D01*
X070982Y006705D01*
X070550Y006954D01*
X070550Y006954D01*
X070050Y007069D01*
X069539Y007030D01*
X069062Y006843D01*
X069062Y006843D01*
X068661Y006523D01*
X068372Y006100D01*
X068372Y006100D01*
X068221Y005610D01*
X068221Y005097D01*
X068372Y004607D01*
X068601Y004271D01*
X063067Y004275D01*
X063067Y004286D01*
X063115Y004286D01*
X063361Y004388D01*
X063481Y004509D01*
X063602Y004388D01*
X063848Y004286D01*
X064115Y004286D01*
X064361Y004388D01*
X064481Y004509D01*
X064602Y004388D01*
X064848Y004286D01*
X065115Y004286D01*
X065361Y004388D01*
X065481Y004509D01*
X065602Y004388D01*
X065848Y004286D01*
X066115Y004286D01*
X066361Y004388D01*
X066481Y004509D01*
X066602Y004388D01*
X066848Y004286D01*
X067115Y004286D01*
X067361Y004388D01*
X067549Y004577D01*
X067651Y004823D01*
X067651Y005789D01*
X067612Y005885D01*
X067689Y005885D01*
X067898Y005972D01*
X068059Y006132D01*
X068146Y006342D01*
X068146Y006568D01*
X068059Y006778D01*
X067898Y006938D01*
X067689Y007025D01*
X067552Y007025D01*
X067552Y007655D01*
X067464Y007868D01*
X067301Y008031D01*
X067088Y008119D01*
X066857Y008119D01*
X066644Y008031D01*
X066481Y007868D01*
X066472Y007848D01*
X066464Y007868D01*
X066301Y008031D01*
X066088Y008119D01*
X065857Y008119D01*
X065644Y008031D01*
X065481Y007868D01*
X065472Y007848D01*
X065464Y007868D01*
X065301Y008031D01*
X065088Y008119D01*
X064857Y008119D01*
X064644Y008031D01*
X064481Y007868D01*
X064472Y007848D01*
X064464Y007868D01*
X064301Y008031D01*
X064088Y008119D01*
X063857Y008119D01*
X063644Y008031D01*
X063481Y007868D01*
X063472Y007848D01*
X063464Y007868D01*
X063301Y008031D01*
X063088Y008119D01*
X062857Y008119D01*
X062644Y008031D01*
X062481Y007868D01*
X062472Y007848D01*
X062464Y007868D01*
X062301Y008031D01*
X062088Y008119D01*
X061857Y008119D01*
X061644Y008031D01*
X061481Y007868D01*
X061472Y007848D01*
X061464Y007868D01*
X061342Y007990D01*
X061342Y008061D01*
X061286Y008197D01*
X061245Y008239D01*
X061140Y008343D01*
X061004Y008399D01*
X059828Y008399D01*
X059755Y008472D01*
X059619Y008528D01*
X058961Y008528D01*
X058961Y010563D01*
X058961Y010472D02*
X059368Y010472D01*
X059378Y010630D02*
X059028Y010630D01*
X059095Y010789D02*
X059444Y010789D01*
X059587Y010947D02*
X059117Y010947D01*
X059102Y011106D02*
X060028Y011106D01*
X060599Y010630D02*
X060972Y010630D01*
X060972Y010472D02*
X060508Y010472D01*
X060481Y010313D02*
X060972Y010313D01*
X060972Y010155D02*
X060406Y010155D01*
X060230Y009996D02*
X060972Y009996D01*
X060972Y009838D02*
X058961Y009838D01*
X058961Y009996D02*
X059647Y009996D01*
X059470Y010155D02*
X058961Y010155D01*
X058961Y010313D02*
X059395Y010313D01*
X058961Y009679D02*
X060972Y009679D01*
X060972Y009521D02*
X058961Y009521D01*
X058961Y009362D02*
X060972Y009362D01*
X060972Y009204D02*
X058961Y009204D01*
X058961Y009045D02*
X060972Y009045D01*
X061020Y008887D02*
X058961Y008887D01*
X058961Y008728D02*
X061184Y008728D01*
X061455Y008570D02*
X058961Y008570D01*
X059816Y008411D02*
X062554Y008411D01*
X062407Y008570D02*
X061523Y008570D01*
X061230Y008253D02*
X070986Y008253D01*
X070987Y008411D02*
X068747Y008411D01*
X068894Y008570D02*
X070987Y008570D01*
X070987Y008728D02*
X070472Y008728D01*
X070630Y008887D02*
X070988Y008887D01*
X070988Y009045D02*
X070789Y009045D01*
X070987Y009204D02*
X070989Y009204D01*
X069417Y008728D02*
X068920Y008728D01*
X068920Y008887D02*
X069259Y008887D01*
X069100Y009045D02*
X068920Y009045D01*
X068920Y009204D02*
X069005Y009204D01*
X069005Y009362D02*
X068920Y009362D01*
X069005Y009679D02*
X068831Y009679D01*
X069005Y009838D02*
X068337Y009838D01*
X068293Y009996D02*
X069081Y009996D01*
X069240Y010155D02*
X068152Y010155D01*
X067994Y010313D02*
X069398Y010313D01*
X070460Y010472D02*
X067991Y010472D01*
X067991Y010630D02*
X070460Y010630D01*
X070460Y010789D02*
X067991Y010789D01*
X067949Y010947D02*
X070460Y010947D01*
X070460Y011106D02*
X067774Y011106D01*
X067851Y011264D02*
X070460Y011264D01*
X070460Y011423D02*
X067851Y011423D01*
X067851Y011647D02*
X067851Y011908D01*
X067839Y011954D01*
X067815Y011995D01*
X067782Y012028D01*
X067740Y012052D01*
X067695Y012064D01*
X067394Y012064D01*
X067394Y011647D01*
X067851Y011647D01*
X067851Y011740D02*
X070460Y011740D01*
X070460Y011898D02*
X067851Y011898D01*
X067723Y012057D02*
X070460Y012057D01*
X070460Y012215D02*
X063424Y012215D01*
X063161Y012374D02*
X070460Y012374D01*
X070460Y012532D02*
X063227Y012532D01*
X063232Y012691D02*
X070460Y012691D01*
X070460Y012849D02*
X063200Y012849D01*
X063120Y013008D02*
X070460Y013008D01*
X070460Y013166D02*
X062927Y013166D01*
X062397Y013166D02*
X061251Y013166D01*
X061233Y013008D02*
X062205Y013008D01*
X062124Y012849D02*
X061167Y012849D01*
X061013Y012691D02*
X062092Y012691D01*
X062098Y012532D02*
X061732Y012532D01*
X061928Y012374D02*
X062163Y012374D01*
X062292Y012215D02*
X062011Y012215D01*
X062044Y012057D02*
X062259Y012057D01*
X063823Y012057D02*
X063978Y012057D01*
X063978Y012066D02*
X063978Y011649D01*
X064435Y011649D01*
X064435Y011910D01*
X064423Y011956D01*
X064399Y011997D01*
X064366Y012030D01*
X064325Y012054D01*
X064279Y012066D01*
X063978Y012066D01*
X063978Y011898D02*
X063823Y011898D01*
X063823Y011740D02*
X063978Y011740D01*
X063978Y011581D02*
X067239Y011581D01*
X067394Y011581D02*
X070460Y011581D01*
X067394Y011740D02*
X067239Y011740D01*
X067239Y011898D02*
X067394Y011898D01*
X067394Y012057D02*
X067239Y012057D01*
X066911Y012057D02*
X064314Y012057D01*
X064435Y011898D02*
X066782Y011898D01*
X066782Y011740D02*
X064435Y011740D01*
X064435Y011423D02*
X066782Y011423D01*
X066782Y011264D02*
X064886Y011264D01*
X065044Y011106D02*
X066860Y011106D01*
X066685Y010947D02*
X065203Y010947D01*
X064632Y010472D02*
X064575Y010472D01*
X064575Y010528D02*
X064950Y010153D01*
X065086Y010097D01*
X066642Y010097D01*
X066642Y010088D01*
X066691Y009971D01*
X066781Y009881D01*
X066899Y009832D01*
X067428Y009832D01*
X067483Y009777D01*
X066437Y009777D01*
X066319Y009728D01*
X066229Y009638D01*
X066180Y009521D01*
X066180Y009362D02*
X065120Y009362D01*
X065120Y009204D02*
X066180Y009204D01*
X066180Y009045D02*
X065120Y009045D01*
X065120Y008887D02*
X066180Y008887D01*
X066180Y008728D02*
X065120Y008728D01*
X065094Y008570D02*
X066207Y008570D01*
X066354Y008411D02*
X064947Y008411D01*
X064797Y008094D02*
X064148Y008094D01*
X064396Y007936D02*
X064549Y007936D01*
X065148Y008094D02*
X065797Y008094D01*
X065549Y007936D02*
X065396Y007936D01*
X066148Y008094D02*
X066797Y008094D01*
X066549Y007936D02*
X066396Y007936D01*
X067148Y008094D02*
X070986Y008094D01*
X070985Y007936D02*
X067396Y007936D01*
X067502Y007777D02*
X070985Y007777D01*
X070985Y007619D02*
X067552Y007619D01*
X067552Y007460D02*
X070984Y007460D01*
X070984Y007302D02*
X067552Y007302D01*
X067552Y007143D02*
X070983Y007143D01*
X070983Y006985D02*
X070417Y006985D01*
X070050Y007069D02*
X070050Y007069D01*
X069539Y007030D02*
X069539Y007030D01*
X069423Y006985D02*
X067786Y006985D01*
X068010Y006826D02*
X069041Y006826D01*
X068842Y006668D02*
X068104Y006668D01*
X068146Y006509D02*
X068651Y006509D01*
X068661Y006523D02*
X068661Y006523D01*
X068543Y006351D02*
X068146Y006351D01*
X068084Y006192D02*
X068435Y006192D01*
X068352Y006034D02*
X067960Y006034D01*
X067616Y005875D02*
X068303Y005875D01*
X068254Y005717D02*
X067651Y005717D01*
X067651Y005558D02*
X068221Y005558D01*
X068221Y005400D02*
X067651Y005400D01*
X067651Y005241D02*
X068221Y005241D01*
X068225Y005083D02*
X067651Y005083D01*
X067651Y004924D02*
X068274Y004924D01*
X068323Y004766D02*
X067628Y004766D01*
X067562Y004607D02*
X068372Y004607D01*
X068372Y004607D01*
X068480Y004449D02*
X067421Y004449D01*
X067124Y004290D02*
X068588Y004290D01*
X066838Y004290D02*
X066124Y004290D01*
X065838Y004290D02*
X065124Y004290D01*
X064838Y004290D02*
X064124Y004290D01*
X063838Y004290D02*
X063124Y004290D01*
X063421Y004449D02*
X063541Y004449D01*
X064421Y004449D02*
X064541Y004449D01*
X065421Y004449D02*
X065541Y004449D01*
X066421Y004449D02*
X066541Y004449D01*
X059963Y005288D02*
X059451Y005288D01*
X059451Y004914D01*
X059464Y004832D01*
X059475Y004799D01*
X059060Y004799D01*
X059066Y004814D01*
X059066Y005781D01*
X059037Y005853D01*
X059488Y005853D01*
X059464Y005780D01*
X059451Y005698D01*
X059451Y005325D01*
X059963Y005325D01*
X059963Y005288D01*
X059451Y005241D02*
X059066Y005241D01*
X059066Y005083D02*
X059451Y005083D01*
X059451Y004924D02*
X059066Y004924D01*
X059066Y005400D02*
X059451Y005400D01*
X059451Y005558D02*
X059066Y005558D01*
X059066Y005717D02*
X059454Y005717D01*
X059433Y006806D02*
X059339Y006806D01*
X059362Y006829D01*
X059393Y006903D01*
X059433Y006806D01*
X059425Y006826D02*
X059360Y006826D01*
X059392Y007402D02*
X059362Y007475D01*
X059202Y007635D01*
X058993Y007722D01*
X058942Y007722D01*
X058942Y007756D01*
X058929Y007788D01*
X059393Y007788D01*
X059432Y007749D01*
X059392Y007655D01*
X059392Y007402D01*
X059392Y007460D02*
X059368Y007460D01*
X059392Y007619D02*
X059218Y007619D01*
X059404Y007777D02*
X058934Y007777D01*
X061329Y008094D02*
X061797Y008094D01*
X061549Y007936D02*
X061396Y007936D01*
X062148Y008094D02*
X062797Y008094D01*
X062549Y007936D02*
X062396Y007936D01*
X063148Y008094D02*
X063797Y008094D01*
X063549Y007936D02*
X063396Y007936D01*
X065120Y009521D02*
X065072Y009638D01*
X064982Y009728D01*
X064864Y009777D01*
X063885Y009777D01*
X063885Y009834D01*
X064319Y009834D01*
X064437Y009883D01*
X064527Y009973D01*
X064575Y010090D01*
X064575Y010528D01*
X064575Y010313D02*
X064790Y010313D01*
X064949Y010155D02*
X064575Y010155D01*
X064536Y009996D02*
X066680Y009996D01*
X066885Y009838D02*
X064328Y009838D01*
X065031Y009679D02*
X066270Y009679D01*
X060624Y011898D02*
X060551Y011898D01*
X060527Y012057D02*
X060783Y012057D01*
X060937Y012215D02*
X060457Y012215D01*
X060351Y012374D02*
X061019Y012374D01*
X061216Y012532D02*
X060351Y012532D01*
X059611Y012532D02*
X059079Y012532D01*
X059091Y012691D02*
X059566Y012691D01*
X059425Y012849D02*
X059065Y012849D01*
X058993Y013008D02*
X059360Y013008D01*
X059351Y013166D02*
X058821Y013166D01*
X059380Y013325D02*
X056245Y013325D01*
X056245Y013483D02*
X056459Y013483D01*
X056312Y013642D02*
X056245Y013642D01*
X056245Y013800D02*
X056247Y013800D01*
X057148Y013483D02*
X059457Y013483D01*
X059640Y013642D02*
X058212Y013642D01*
X058459Y013800D02*
X060241Y013800D01*
X060241Y013642D02*
X060203Y013642D01*
X060241Y013959D02*
X058562Y013959D01*
X058609Y014117D02*
X060241Y014117D01*
X060241Y014276D02*
X058609Y014276D01*
X058554Y014434D02*
X060241Y014434D01*
X060241Y014593D02*
X058440Y014593D01*
X058409Y014751D02*
X060241Y014751D01*
X060241Y014910D02*
X058409Y014910D01*
X058409Y015068D02*
X060241Y015068D01*
X060241Y015227D02*
X058409Y015227D01*
X058409Y015385D02*
X060241Y015385D01*
X060241Y015544D02*
X058414Y015544D01*
X058425Y015702D02*
X060241Y015702D01*
X060241Y015861D02*
X058425Y015861D01*
X057768Y016447D02*
X057669Y016488D01*
X057630Y016488D01*
X057630Y016562D01*
X057543Y016771D01*
X057389Y016925D01*
X057545Y016989D01*
X057706Y017150D01*
X057775Y017318D01*
X057787Y017288D01*
X057948Y017128D01*
X058157Y017041D01*
X058384Y017041D01*
X058593Y017128D01*
X058707Y017241D01*
X059523Y017241D01*
X059641Y017123D01*
X059851Y017037D01*
X060077Y017037D01*
X060287Y017123D01*
X060447Y017284D01*
X060534Y017493D01*
X060534Y017636D01*
X062991Y017636D01*
X063014Y017581D01*
X063104Y017491D01*
X063122Y017483D01*
X063122Y017224D01*
X063540Y017224D01*
X063540Y017069D01*
X063122Y017069D01*
X063122Y016768D01*
X063134Y016723D01*
X063158Y016682D01*
X063171Y016669D01*
X063130Y016628D01*
X058010Y016628D01*
X057804Y016509D01*
X057804Y016509D01*
X057804Y016509D01*
X057768Y016447D01*
X057796Y016495D02*
X057630Y016495D01*
X057592Y016653D02*
X063156Y016653D01*
X063122Y016812D02*
X057503Y016812D01*
X057499Y016970D02*
X063122Y016970D01*
X063122Y017287D02*
X060449Y017287D01*
X060514Y017446D02*
X063122Y017446D01*
X063004Y017604D02*
X060534Y017604D01*
X060292Y017129D02*
X063540Y017129D01*
X063695Y017129D02*
X064085Y017129D01*
X064085Y017069D02*
X063695Y017069D01*
X063695Y017224D01*
X064085Y017224D01*
X064085Y017069D01*
X065354Y017129D02*
X070460Y017129D01*
X070460Y017287D02*
X065354Y017287D01*
X065354Y017446D02*
X070460Y017446D01*
X070460Y017604D02*
X068182Y017604D01*
X068340Y017763D02*
X070460Y017763D01*
X070460Y017921D02*
X068499Y017921D01*
X068651Y018080D02*
X070460Y018080D01*
X070460Y018238D02*
X068651Y018238D01*
X068651Y018397D02*
X070460Y018397D01*
X070460Y018555D02*
X068651Y018555D01*
X068651Y018714D02*
X070460Y018714D01*
X070460Y018872D02*
X068631Y018872D01*
X068472Y019031D02*
X070460Y019031D01*
X070460Y019189D02*
X068314Y019189D01*
X068155Y019348D02*
X070460Y019348D01*
X070450Y019506D02*
X070460Y019506D01*
X069439Y019506D02*
X065337Y019506D01*
X065337Y019348D02*
X067267Y019348D01*
X067108Y019189D02*
X065337Y019189D01*
X065337Y019031D02*
X066950Y019031D01*
X066791Y018872D02*
X065337Y018872D01*
X065331Y018714D02*
X066771Y018714D01*
X065295Y019665D02*
X069281Y019665D01*
X069122Y019823D02*
X062529Y019823D01*
X062529Y019982D02*
X069005Y019982D01*
X069005Y020140D02*
X065227Y020140D01*
X065315Y020299D02*
X069005Y020299D01*
X069005Y020457D02*
X065315Y020457D01*
X065315Y020616D02*
X067223Y020616D01*
X067065Y020774D02*
X065418Y020774D01*
X065576Y020933D02*
X066906Y020933D01*
X068188Y020616D02*
X069005Y020616D01*
X069059Y020774D02*
X068346Y020774D01*
X068505Y020933D02*
X069218Y020933D01*
X069171Y021091D02*
X068646Y021091D01*
X068646Y021250D02*
X069013Y021250D01*
X068854Y021408D02*
X068646Y021408D01*
X068646Y021567D02*
X068696Y021567D01*
X067316Y022403D02*
X066856Y021943D01*
X065332Y021943D01*
X065313Y021935D01*
X065313Y022296D01*
X065268Y022404D01*
X067859Y022404D01*
X067860Y022403D01*
X067316Y022403D01*
X067273Y022359D02*
X065286Y022359D01*
X065313Y022201D02*
X067114Y022201D01*
X066956Y022042D02*
X065313Y022042D01*
X061609Y022042D02*
X057656Y022042D01*
X057755Y021943D02*
X057295Y022403D01*
X056516Y022403D01*
X056055Y021941D01*
X056055Y022421D01*
X061609Y022421D01*
X061609Y021598D01*
X061569Y021500D01*
X061569Y021013D01*
X061560Y021033D01*
X061400Y021193D01*
X061190Y021280D01*
X061186Y021280D01*
X060596Y021870D01*
X060420Y021943D01*
X057755Y021943D01*
X057497Y022201D02*
X061609Y022201D01*
X061609Y022359D02*
X057339Y022359D01*
X056473Y022359D02*
X056055Y022359D01*
X056055Y022201D02*
X056314Y022201D01*
X056156Y022042D02*
X056055Y022042D01*
X060562Y021884D02*
X061609Y021884D01*
X061609Y021725D02*
X060741Y021725D01*
X060899Y021567D02*
X061596Y021567D01*
X061569Y021408D02*
X061058Y021408D01*
X061263Y021250D02*
X061569Y021250D01*
X061569Y021091D02*
X061502Y021091D01*
X062529Y020140D02*
X062607Y020140D01*
X062835Y020140D02*
X063030Y020140D01*
X063006Y019665D02*
X062608Y019665D01*
X064125Y020140D02*
X064133Y020140D01*
X065338Y017604D02*
X067240Y017604D01*
X065354Y016970D02*
X070460Y016970D01*
X070460Y016812D02*
X065354Y016812D01*
X065323Y016653D02*
X070460Y016653D01*
X070460Y016495D02*
X065153Y016495D01*
X065089Y016336D02*
X070460Y016336D01*
X070460Y016178D02*
X065089Y016178D01*
X065089Y016019D02*
X070460Y016019D01*
X070460Y015861D02*
X065089Y015861D01*
X065072Y015702D02*
X070460Y015702D01*
X070460Y015544D02*
X064969Y015544D01*
X064809Y015385D02*
X070460Y015385D01*
X070460Y015227D02*
X064035Y015227D01*
X063892Y015068D02*
X070460Y015068D01*
X070460Y014910D02*
X060981Y014910D01*
X060981Y015068D02*
X063190Y015068D01*
X063047Y015227D02*
X060981Y015227D01*
X060981Y015385D02*
X062981Y015385D01*
X062971Y015544D02*
X060981Y015544D01*
X060981Y014751D02*
X070460Y014751D01*
X070460Y014593D02*
X060981Y014593D01*
X060981Y014434D02*
X070460Y014434D01*
X070460Y014276D02*
X060981Y014276D01*
X060981Y014117D02*
X070460Y014117D01*
X070460Y013959D02*
X060981Y013959D01*
X060981Y013800D02*
X070460Y013800D01*
X070460Y013642D02*
X061010Y013642D01*
X061166Y013483D02*
X070460Y013483D01*
X070460Y013325D02*
X061232Y013325D01*
X058220Y013166D02*
X056245Y013166D01*
X056245Y013008D02*
X057347Y013008D01*
X057180Y012849D02*
X056245Y012849D01*
X056245Y012691D02*
X057138Y012691D01*
X059013Y012374D02*
X059611Y012374D01*
X059505Y012215D02*
X059122Y012215D01*
X059188Y012057D02*
X059435Y012057D01*
X059411Y011898D02*
X059204Y011898D01*
X057866Y013642D02*
X057295Y013642D01*
X057685Y017129D02*
X057947Y017129D01*
X057788Y017287D02*
X057762Y017287D01*
X058594Y017129D02*
X059636Y017129D01*
X072323Y018112D02*
X072323Y025765D01*
X073398Y025765D01*
X073398Y024499D01*
X073479Y024304D01*
X073628Y024155D01*
X073823Y024074D01*
X074033Y024074D01*
X074038Y024077D01*
X079361Y024077D01*
X079556Y024157D01*
X079705Y024306D01*
X079747Y024407D01*
X079952Y024322D01*
X080187Y024322D01*
X080404Y024412D01*
X080563Y024572D01*
X080604Y024515D01*
X080672Y024447D01*
X080750Y024391D01*
X080835Y024347D01*
X080927Y024317D01*
X081021Y024302D01*
X081049Y024302D01*
X081049Y024892D01*
X081089Y024892D01*
X081089Y024302D01*
X081117Y024302D01*
X081212Y024317D01*
X081304Y024347D01*
X081389Y024391D01*
X081467Y024447D01*
X081479Y024460D01*
X081479Y024416D01*
X081573Y024322D01*
X082274Y024322D01*
X082274Y020217D01*
X082272Y020221D01*
X081945Y020548D01*
X081945Y020548D01*
X081532Y020758D01*
X081075Y020831D01*
X080617Y020758D01*
X080205Y020548D01*
X080205Y020548D01*
X079877Y020221D01*
X079877Y020221D01*
X079667Y019808D01*
X079595Y019351D01*
X079595Y019351D01*
X079667Y018893D01*
X079877Y018481D01*
X079877Y018481D01*
X080205Y018153D01*
X080617Y017943D01*
X080617Y017943D01*
X081075Y017871D01*
X081532Y017943D01*
X081945Y018153D01*
X082272Y018481D01*
X082274Y018485D01*
X082274Y017262D01*
X082273Y017265D01*
X082135Y017402D01*
X081955Y017477D01*
X081760Y017477D01*
X081580Y017402D01*
X081442Y017265D01*
X081367Y017085D01*
X081367Y016230D01*
X081442Y016050D01*
X081580Y015912D01*
X081760Y015837D01*
X081955Y015837D01*
X082135Y015912D01*
X082273Y016050D01*
X082274Y016053D01*
X082274Y015807D01*
X078942Y015807D01*
X079093Y015958D01*
X079175Y016156D01*
X079175Y017131D01*
X079093Y017330D01*
X078941Y017482D01*
X078743Y017564D01*
X078528Y017564D01*
X078330Y017482D01*
X078178Y017330D01*
X078146Y017254D01*
X078114Y017317D01*
X078063Y017389D01*
X078000Y017451D01*
X077929Y017503D01*
X077850Y017543D01*
X077767Y017570D01*
X077680Y017584D01*
X077635Y017584D01*
X077591Y017584D01*
X077504Y017570D01*
X077421Y017543D01*
X077342Y017503D01*
X077271Y017451D01*
X077208Y017389D01*
X077157Y017317D01*
X077124Y017254D01*
X077093Y017330D01*
X076941Y017482D01*
X076743Y017564D01*
X076528Y017564D01*
X076330Y017482D01*
X076178Y017330D01*
X076135Y017228D01*
X076093Y017330D01*
X075941Y017482D01*
X075743Y017564D01*
X075528Y017564D01*
X075330Y017482D01*
X075178Y017330D01*
X075135Y017228D01*
X075093Y017330D01*
X074941Y017482D01*
X074743Y017564D01*
X074528Y017564D01*
X074330Y017482D01*
X074301Y017453D01*
X074186Y017681D01*
X073858Y018008D01*
X073446Y018218D01*
X073446Y018218D01*
X072988Y018291D01*
X072531Y018218D01*
X072323Y018112D01*
X072323Y018238D02*
X072657Y018238D01*
X072531Y018218D02*
X072531Y018218D01*
X072323Y018397D02*
X079961Y018397D01*
X079839Y018555D02*
X072323Y018555D01*
X072323Y018714D02*
X079759Y018714D01*
X079678Y018872D02*
X072323Y018872D01*
X072323Y019031D02*
X079645Y019031D01*
X079667Y018893D02*
X079667Y018893D01*
X079620Y019189D02*
X072323Y019189D01*
X072323Y019348D02*
X079595Y019348D01*
X079619Y019506D02*
X072323Y019506D01*
X072323Y019665D02*
X079645Y019665D01*
X079667Y019808D02*
X079667Y019808D01*
X079675Y019823D02*
X072323Y019823D01*
X072323Y019982D02*
X079756Y019982D01*
X079836Y020140D02*
X072323Y020140D01*
X072323Y020299D02*
X079956Y020299D01*
X080114Y020457D02*
X072323Y020457D01*
X072323Y020616D02*
X080338Y020616D01*
X080617Y020758D02*
X080617Y020758D01*
X080718Y020774D02*
X072323Y020774D01*
X072323Y020933D02*
X082274Y020933D01*
X082274Y021091D02*
X072323Y021091D01*
X072323Y021250D02*
X082274Y021250D01*
X082274Y021408D02*
X072323Y021408D01*
X072323Y021567D02*
X082274Y021567D01*
X082274Y021725D02*
X072323Y021725D01*
X072323Y021884D02*
X082274Y021884D01*
X082274Y022042D02*
X072323Y022042D01*
X072323Y022201D02*
X082274Y022201D01*
X082274Y022359D02*
X072323Y022359D01*
X072323Y022518D02*
X082274Y022518D01*
X082274Y022676D02*
X072323Y022676D01*
X072323Y022835D02*
X082274Y022835D01*
X082274Y022993D02*
X072323Y022993D01*
X072323Y023152D02*
X082274Y023152D01*
X082274Y023310D02*
X072323Y023310D01*
X072323Y023469D02*
X082274Y023469D01*
X082274Y023627D02*
X072323Y023627D01*
X072323Y023786D02*
X082274Y023786D01*
X082274Y023944D02*
X072323Y023944D01*
X072323Y024103D02*
X073754Y024103D01*
X073522Y024261D02*
X072323Y024261D01*
X072323Y024420D02*
X073431Y024420D01*
X073398Y024578D02*
X072323Y024578D01*
X072323Y024737D02*
X073398Y024737D01*
X073398Y024895D02*
X072323Y024895D01*
X072323Y025054D02*
X073398Y025054D01*
X073398Y025212D02*
X072323Y025212D01*
X072323Y025371D02*
X073398Y025371D01*
X073398Y025529D02*
X072323Y025529D01*
X072323Y025688D02*
X073398Y025688D01*
X068807Y025809D02*
X068739Y025755D01*
X068739Y025755D01*
X068450Y025331D01*
X068396Y025157D01*
X068139Y025414D01*
X067360Y025414D01*
X067300Y025354D01*
X065300Y025354D01*
X065277Y025409D01*
X065187Y025499D01*
X065070Y025548D01*
X064313Y025548D01*
X064195Y025499D01*
X064140Y025444D01*
X064085Y025499D01*
X063967Y025548D01*
X063210Y025548D01*
X063093Y025499D01*
X063003Y025409D01*
X062980Y025354D01*
X062432Y025354D01*
X062255Y025281D01*
X061817Y024842D01*
X061682Y024707D01*
X061609Y024531D01*
X061609Y023301D01*
X061461Y023301D01*
X061511Y023350D01*
X061598Y023560D01*
X061598Y023787D01*
X061511Y023996D01*
X061350Y024156D01*
X061141Y024243D01*
X061136Y024243D01*
X060499Y024881D01*
X060322Y024954D01*
X058709Y024954D01*
X058764Y025086D01*
X058764Y025313D01*
X058677Y025523D01*
X058516Y025683D01*
X058307Y025770D01*
X058169Y025770D01*
X058121Y025818D01*
X068807Y025809D01*
X068693Y025688D02*
X058505Y025688D01*
X058670Y025529D02*
X063165Y025529D01*
X062987Y025371D02*
X058740Y025371D01*
X058764Y025212D02*
X062187Y025212D01*
X062029Y025054D02*
X058750Y025054D01*
X060464Y024895D02*
X061870Y024895D01*
X061712Y024737D02*
X060643Y024737D01*
X060801Y024578D02*
X061629Y024578D01*
X061609Y024420D02*
X060960Y024420D01*
X061118Y024261D02*
X061609Y024261D01*
X061609Y024103D02*
X061404Y024103D01*
X061532Y023944D02*
X061609Y023944D01*
X061598Y023786D02*
X061609Y023786D01*
X061598Y023627D02*
X061609Y023627D01*
X061609Y023469D02*
X061560Y023469D01*
X061609Y023310D02*
X061471Y023310D01*
X064013Y025529D02*
X064267Y025529D01*
X065115Y025529D02*
X068585Y025529D01*
X068477Y025371D02*
X068182Y025371D01*
X068341Y025212D02*
X068414Y025212D01*
X068450Y025331D02*
X068450Y025331D01*
X067317Y025371D02*
X065293Y025371D01*
X079425Y024103D02*
X082274Y024103D01*
X082274Y024261D02*
X079660Y024261D01*
X080411Y024420D02*
X080710Y024420D01*
X081049Y024420D02*
X081089Y024420D01*
X081089Y024578D02*
X081049Y024578D01*
X081049Y024737D02*
X081089Y024737D01*
X081089Y024932D02*
X081049Y024932D01*
X081049Y025522D01*
X081021Y025522D01*
X080927Y025507D01*
X080835Y025478D01*
X080750Y025434D01*
X080672Y025378D01*
X080604Y025310D01*
X080563Y025253D01*
X080404Y025413D01*
X080187Y025502D01*
X079952Y025502D01*
X079786Y025434D01*
X079786Y025721D01*
X082274Y025721D01*
X082274Y025502D01*
X081573Y025502D01*
X081479Y025409D01*
X081479Y025365D01*
X081467Y025378D01*
X081389Y025434D01*
X081304Y025478D01*
X081212Y025507D01*
X081117Y025522D01*
X081089Y025522D01*
X081089Y024932D01*
X081089Y025054D02*
X081049Y025054D01*
X081049Y025212D02*
X081089Y025212D01*
X081089Y025371D02*
X081049Y025371D01*
X080665Y025371D02*
X080445Y025371D01*
X079786Y025529D02*
X082274Y025529D01*
X082274Y025688D02*
X079786Y025688D01*
X081474Y025371D02*
X081479Y025371D01*
X081479Y024420D02*
X081429Y024420D01*
X081075Y020831D02*
X081075Y020831D01*
X081431Y020774D02*
X082274Y020774D01*
X082274Y020616D02*
X081812Y020616D01*
X082036Y020457D02*
X082274Y020457D01*
X082274Y020299D02*
X082194Y020299D01*
X082272Y020221D02*
X082272Y020221D01*
X081532Y020758D02*
X081532Y020758D01*
X082272Y018481D02*
X082272Y018481D01*
X082274Y018397D02*
X082188Y018397D01*
X082274Y018238D02*
X082030Y018238D01*
X081945Y018153D02*
X081945Y018153D01*
X081800Y018080D02*
X082274Y018080D01*
X082274Y017921D02*
X081394Y017921D01*
X081532Y017943D02*
X081532Y017943D01*
X081075Y017871D02*
X081075Y017871D01*
X080756Y017921D02*
X073945Y017921D01*
X073858Y018008D02*
X073858Y018008D01*
X073717Y018080D02*
X080349Y018080D01*
X080205Y018153D02*
X080205Y018153D01*
X080120Y018238D02*
X073320Y018238D01*
X072988Y018291D02*
X072988Y018291D01*
X074103Y017763D02*
X082274Y017763D01*
X082274Y017604D02*
X074224Y017604D01*
X074186Y017681D02*
X074186Y017681D01*
X074977Y017446D02*
X075294Y017446D01*
X075160Y017287D02*
X075111Y017287D01*
X075977Y017446D02*
X076294Y017446D01*
X076160Y017287D02*
X076111Y017287D01*
X076977Y017446D02*
X077265Y017446D01*
X077141Y017287D02*
X077111Y017287D01*
X077635Y017287D02*
X077635Y017287D01*
X077635Y017129D02*
X077635Y017129D01*
X077635Y016970D02*
X077635Y016970D01*
X077635Y016812D02*
X077635Y016812D01*
X077635Y016653D02*
X077635Y016653D01*
X077635Y016644D02*
X077635Y017584D01*
X077635Y016644D01*
X077635Y016644D01*
X078130Y017287D02*
X078160Y017287D01*
X078294Y017446D02*
X078005Y017446D01*
X077635Y017446D02*
X077635Y017446D01*
X078977Y017446D02*
X079684Y017446D01*
X079760Y017477D02*
X079580Y017402D01*
X079442Y017265D01*
X079367Y017085D01*
X079367Y016230D01*
X079442Y016050D01*
X079580Y015912D01*
X079760Y015837D01*
X079955Y015837D01*
X080135Y015912D01*
X080273Y016050D01*
X080347Y016230D01*
X080347Y017085D01*
X080273Y017265D01*
X080135Y017402D01*
X079955Y017477D01*
X079760Y017477D01*
X080030Y017446D02*
X080634Y017446D01*
X080662Y017460D02*
X080590Y017423D01*
X080525Y017376D01*
X080468Y017319D01*
X080421Y017254D01*
X080385Y017183D01*
X080360Y017107D01*
X080347Y017027D01*
X080347Y016676D01*
X080839Y016676D01*
X080839Y017497D01*
X080817Y017497D01*
X080738Y017485D01*
X080662Y017460D01*
X080839Y017446D02*
X080876Y017446D01*
X080876Y017497D02*
X080876Y016676D01*
X080839Y016676D01*
X080839Y016639D01*
X080347Y016639D01*
X080347Y016287D01*
X080360Y016208D01*
X080385Y016131D01*
X080421Y016060D01*
X080468Y015995D01*
X080525Y015938D01*
X080590Y015891D01*
X080662Y015854D01*
X080738Y015830D01*
X080817Y015817D01*
X080839Y015817D01*
X080839Y016639D01*
X080876Y016639D01*
X080876Y016676D01*
X081367Y016676D01*
X081367Y017027D01*
X081355Y017107D01*
X081330Y017183D01*
X081294Y017254D01*
X081246Y017319D01*
X081190Y017376D01*
X081125Y017423D01*
X081053Y017460D01*
X080977Y017485D01*
X080898Y017497D01*
X080876Y017497D01*
X080876Y017287D02*
X080839Y017287D01*
X080839Y017129D02*
X080876Y017129D01*
X080876Y016970D02*
X080839Y016970D01*
X080839Y016812D02*
X080876Y016812D01*
X080876Y016653D02*
X081367Y016653D01*
X081367Y016639D02*
X080876Y016639D01*
X080876Y015817D01*
X080898Y015817D01*
X080977Y015830D01*
X081053Y015854D01*
X081125Y015891D01*
X081190Y015938D01*
X081246Y015995D01*
X081294Y016060D01*
X081330Y016131D01*
X081355Y016208D01*
X081367Y016287D01*
X081367Y016639D01*
X081367Y016495D02*
X081367Y016495D01*
X081367Y016336D02*
X081367Y016336D01*
X081345Y016178D02*
X081389Y016178D01*
X081472Y016019D02*
X081264Y016019D01*
X081066Y015861D02*
X081703Y015861D01*
X082012Y015861D02*
X082274Y015861D01*
X082274Y016019D02*
X082243Y016019D01*
X080876Y016019D02*
X080839Y016019D01*
X080839Y015861D02*
X080876Y015861D01*
X080649Y015861D02*
X080012Y015861D01*
X080243Y016019D02*
X080451Y016019D01*
X080370Y016178D02*
X080326Y016178D01*
X080347Y016336D02*
X080347Y016336D01*
X080347Y016495D02*
X080347Y016495D01*
X080347Y016653D02*
X080839Y016653D01*
X080839Y016495D02*
X080876Y016495D01*
X080876Y016336D02*
X080839Y016336D01*
X080839Y016178D02*
X080876Y016178D01*
X079703Y015861D02*
X078996Y015861D01*
X079119Y016019D02*
X079472Y016019D01*
X079389Y016178D02*
X079175Y016178D01*
X079175Y016336D02*
X079367Y016336D01*
X079367Y016495D02*
X079175Y016495D01*
X079175Y016653D02*
X079367Y016653D01*
X079367Y016812D02*
X079175Y016812D01*
X079175Y016970D02*
X079367Y016970D01*
X079386Y017129D02*
X079175Y017129D01*
X079111Y017287D02*
X079465Y017287D01*
X080250Y017287D02*
X080445Y017287D01*
X080367Y017129D02*
X080329Y017129D01*
X080347Y016970D02*
X080347Y016970D01*
X080347Y016812D02*
X080347Y016812D01*
X081270Y017287D02*
X081465Y017287D01*
X081386Y017129D02*
X081348Y017129D01*
X081367Y016970D02*
X081367Y016970D01*
X081367Y016812D02*
X081367Y016812D01*
X082250Y017287D02*
X082274Y017287D01*
X082274Y017446D02*
X082030Y017446D01*
X081684Y017446D02*
X081081Y017446D01*
X070983Y006826D02*
X070772Y006826D01*
X031451Y018273D02*
X029669Y018273D01*
X029490Y018646D01*
X029490Y018646D01*
X029443Y018696D01*
X029723Y018696D01*
X029914Y018775D01*
X030060Y018922D01*
X030184Y019046D01*
X031279Y019065D01*
X031279Y018928D01*
X031329Y018807D01*
X031329Y018506D01*
X031409Y018315D01*
X031451Y018273D01*
X031375Y018397D02*
X029610Y018397D01*
X029534Y018555D02*
X031329Y018555D01*
X031329Y018714D02*
X029766Y018714D01*
X030011Y018872D02*
X031302Y018872D01*
X031279Y019031D02*
X030170Y019031D01*
X029404Y019736D02*
X029241Y019736D01*
X029121Y019786D01*
X028894Y019786D01*
X028713Y019711D01*
X028713Y020705D01*
X028825Y020593D01*
X029064Y020494D01*
X029323Y020494D01*
X029562Y020593D01*
X029744Y020776D01*
X029843Y021015D01*
X029843Y021933D01*
X029744Y022172D01*
X029562Y022355D01*
X029323Y022454D01*
X029278Y022454D01*
X029501Y022694D01*
X029501Y022694D01*
X029685Y023077D01*
X029689Y023074D01*
X029689Y023074D01*
X029857Y022905D01*
X030078Y022813D01*
X031988Y022813D01*
X031988Y020117D01*
X029961Y020082D01*
X029862Y020082D01*
X029858Y020080D01*
X029853Y020080D01*
X029762Y020041D01*
X029671Y020003D01*
X029667Y019999D01*
X029663Y019998D01*
X029594Y019926D01*
X029404Y019736D01*
X029491Y019823D02*
X028713Y019823D01*
X028713Y019982D02*
X029648Y019982D01*
X028713Y020140D02*
X031988Y020140D01*
X031988Y020299D02*
X028713Y020299D01*
X028713Y020457D02*
X031988Y020457D01*
X031988Y020616D02*
X029584Y020616D01*
X029743Y020774D02*
X031988Y020774D01*
X031988Y020933D02*
X029809Y020933D01*
X029843Y021091D02*
X031988Y021091D01*
X031988Y021250D02*
X029843Y021250D01*
X029843Y021408D02*
X031988Y021408D01*
X031988Y021567D02*
X029843Y021567D01*
X029843Y021725D02*
X031988Y021725D01*
X031988Y021884D02*
X029843Y021884D01*
X029798Y022042D02*
X031988Y022042D01*
X031988Y022201D02*
X029716Y022201D01*
X029552Y022359D02*
X031988Y022359D01*
X031988Y022518D02*
X029337Y022518D01*
X029484Y022676D02*
X031988Y022676D01*
X030026Y022835D02*
X029568Y022835D01*
X029644Y022993D02*
X029769Y022993D01*
X026935Y022401D02*
X026825Y022355D01*
X026642Y022172D01*
X026552Y021954D01*
X024816Y021954D01*
X024657Y021888D01*
X026379Y023610D01*
X026379Y023407D01*
X026530Y022917D01*
X026819Y022493D01*
X026935Y022401D01*
X026835Y022359D02*
X025128Y022359D01*
X024970Y022201D02*
X026671Y022201D01*
X026588Y022042D02*
X024811Y022042D01*
X023431Y022359D02*
X019001Y022359D01*
X019160Y022201D02*
X023272Y022201D01*
X023267Y022195D02*
X019165Y022195D01*
X017271Y024090D01*
X017050Y024181D01*
X013435Y024181D01*
X013403Y024238D01*
X013203Y024437D01*
X013011Y024548D01*
X018221Y024548D01*
X018821Y023949D01*
X018760Y023722D01*
X018760Y023440D01*
X018833Y023168D01*
X018974Y022924D01*
X019173Y022725D01*
X019417Y022584D01*
X019689Y022511D01*
X019971Y022511D01*
X020243Y022584D01*
X020487Y022725D01*
X020686Y022924D01*
X020827Y023168D01*
X020900Y023440D01*
X020900Y023722D01*
X020827Y023994D01*
X020686Y024238D01*
X020487Y024437D01*
X020243Y024578D01*
X019971Y024651D01*
X019815Y024651D01*
X018978Y025488D01*
X018978Y025488D01*
X018809Y025657D01*
X018589Y025748D01*
X008157Y025748D01*
X007937Y025657D01*
X007768Y025488D01*
X006948Y024669D01*
X006690Y024775D01*
X006351Y024775D01*
X006038Y024646D01*
X005799Y024406D01*
X005669Y024093D01*
X005669Y023390D01*
X005402Y023123D01*
X005402Y024093D01*
X005273Y024406D01*
X005033Y024646D01*
X004720Y024775D01*
X004381Y024775D01*
X004068Y024646D01*
X003829Y024406D01*
X003699Y024093D01*
X003699Y023390D01*
X002974Y022664D01*
X002065Y022664D01*
X001915Y022814D01*
X001294Y022814D01*
X001123Y022643D01*
X001124Y023126D01*
X001588Y022944D01*
X002099Y022906D01*
X002599Y023020D01*
X003043Y023276D01*
X003392Y023652D01*
X003392Y023652D01*
X003614Y024114D01*
X003614Y024114D01*
X003690Y024621D01*
X003614Y025128D01*
X003614Y025128D01*
X003392Y025590D01*
X003138Y025863D01*
X031988Y025839D01*
X031988Y024013D01*
X030446Y024013D01*
X029419Y025040D01*
X029250Y025209D01*
X029030Y025300D01*
X028551Y025300D01*
X028208Y025379D01*
X027697Y025340D01*
X027595Y025300D01*
X026501Y025300D01*
X026281Y025209D01*
X023267Y022195D01*
X023589Y022518D02*
X019996Y022518D01*
X019663Y022518D02*
X018843Y022518D01*
X018684Y022676D02*
X019257Y022676D01*
X019063Y022835D02*
X018526Y022835D01*
X018367Y022993D02*
X018934Y022993D01*
X018842Y023152D02*
X018209Y023152D01*
X018050Y023310D02*
X018795Y023310D01*
X018760Y023469D02*
X017892Y023469D01*
X017733Y023627D02*
X018760Y023627D01*
X018777Y023786D02*
X017575Y023786D01*
X017416Y023944D02*
X018819Y023944D01*
X018666Y024103D02*
X017239Y024103D01*
X018349Y024420D02*
X013221Y024420D01*
X013379Y024261D02*
X018508Y024261D01*
X019729Y024737D02*
X025808Y024737D01*
X025650Y024578D02*
X020242Y024578D01*
X020504Y024420D02*
X025491Y024420D01*
X025333Y024261D02*
X020663Y024261D01*
X020764Y024103D02*
X025174Y024103D01*
X025016Y023944D02*
X020840Y023944D01*
X020883Y023786D02*
X024857Y023786D01*
X024699Y023627D02*
X020900Y023627D01*
X020900Y023469D02*
X024540Y023469D01*
X024382Y023310D02*
X020865Y023310D01*
X020818Y023152D02*
X024223Y023152D01*
X024065Y022993D02*
X020726Y022993D01*
X020597Y022835D02*
X023906Y022835D01*
X023748Y022676D02*
X020403Y022676D01*
X017779Y021884D02*
X011698Y021884D01*
X011856Y022042D02*
X017621Y022042D01*
X017462Y022201D02*
X012015Y022201D01*
X012173Y022359D02*
X017304Y022359D01*
X017145Y022518D02*
X012713Y022518D01*
X012687Y022511D02*
X012959Y022584D01*
X013203Y022725D01*
X013403Y022924D01*
X013435Y022981D01*
X016682Y022981D01*
X018408Y021255D01*
X018577Y021087D01*
X018797Y020995D01*
X023635Y020995D01*
X023839Y021080D01*
X022828Y020069D01*
X022773Y019937D01*
X010233Y019937D01*
X009992Y020178D01*
X012342Y022528D01*
X012405Y022511D01*
X012687Y022511D01*
X012380Y022518D02*
X012332Y022518D01*
X013119Y022676D02*
X016987Y022676D01*
X016828Y022835D02*
X013313Y022835D01*
X011493Y023376D02*
X011476Y023440D01*
X011476Y023722D01*
X011549Y023994D01*
X011690Y024238D01*
X011889Y024437D01*
X012082Y024548D01*
X008525Y024548D01*
X007372Y023395D01*
X007372Y022692D01*
X007243Y022379D01*
X007003Y022139D01*
X006690Y022010D01*
X006351Y022010D01*
X006254Y022050D01*
X006254Y020595D01*
X006607Y020948D01*
X006828Y021040D01*
X009157Y021040D01*
X011493Y023376D01*
X011427Y023310D02*
X007372Y023310D01*
X007372Y023152D02*
X011269Y023152D01*
X011110Y022993D02*
X007372Y022993D01*
X007372Y022835D02*
X010952Y022835D01*
X010793Y022676D02*
X007366Y022676D01*
X007300Y022518D02*
X010635Y022518D01*
X010476Y022359D02*
X007223Y022359D01*
X007065Y022201D02*
X010318Y022201D01*
X010159Y022042D02*
X006769Y022042D01*
X006272Y022042D02*
X006254Y022042D01*
X006254Y021884D02*
X010001Y021884D01*
X009842Y021725D02*
X006254Y021725D01*
X006254Y021567D02*
X009684Y021567D01*
X009525Y021408D02*
X006254Y021408D01*
X006254Y021250D02*
X009367Y021250D01*
X009208Y021091D02*
X006254Y021091D01*
X006254Y020933D02*
X006591Y020933D01*
X006433Y020774D02*
X006254Y020774D01*
X006254Y020616D02*
X006274Y020616D01*
X005054Y020616D02*
X004324Y020616D01*
X004324Y020774D02*
X005054Y020774D01*
X005054Y020933D02*
X004259Y020933D01*
X004222Y021021D02*
X004034Y021210D01*
X003787Y021312D01*
X003521Y021312D01*
X003274Y021210D01*
X003086Y021021D01*
X003032Y020892D01*
X001713Y020892D01*
X001526Y020814D01*
X001294Y020814D01*
X001119Y020639D01*
X001121Y021488D01*
X001294Y021314D01*
X001915Y021314D01*
X002065Y021464D01*
X003342Y021464D01*
X003562Y021556D01*
X003731Y021724D01*
X004123Y022116D01*
X004381Y022010D01*
X004720Y022010D01*
X005033Y022139D01*
X005054Y022160D01*
X005054Y020444D01*
X004984Y020275D01*
X004984Y019937D01*
X004324Y019937D01*
X004324Y020775D01*
X004222Y021021D01*
X004152Y021091D02*
X005054Y021091D01*
X005054Y021250D02*
X003937Y021250D01*
X003574Y021567D02*
X005054Y021567D01*
X005054Y021725D02*
X003732Y021725D01*
X003891Y021884D02*
X005054Y021884D01*
X005054Y022042D02*
X004799Y022042D01*
X004302Y022042D02*
X004049Y022042D01*
X005054Y021408D02*
X002009Y021408D01*
X001200Y021408D02*
X001121Y021408D01*
X001120Y021250D02*
X003371Y021250D01*
X003156Y021091D02*
X001120Y021091D01*
X001120Y020933D02*
X003049Y020933D01*
X004324Y020457D02*
X005054Y020457D01*
X004994Y020299D02*
X004324Y020299D01*
X004324Y020140D02*
X004984Y020140D01*
X004984Y019982D02*
X004324Y019982D01*
X003054Y019031D02*
X001116Y019031D01*
X001115Y018872D02*
X003054Y018872D01*
X003054Y018714D02*
X001267Y018714D01*
X001191Y018714D02*
X001115Y018714D01*
X001115Y018555D02*
X001430Y018555D01*
X001499Y018555D02*
X003054Y018555D01*
X003066Y018397D02*
X001731Y018397D01*
X001668Y018397D02*
X001114Y018397D01*
X001114Y018238D02*
X001907Y018238D01*
X001963Y018238D02*
X003131Y018238D01*
X003270Y018080D02*
X002195Y018080D01*
X002146Y018080D02*
X001114Y018080D01*
X001113Y017921D02*
X002385Y017921D01*
X002428Y017921D02*
X003429Y017921D01*
X003587Y017763D02*
X002660Y017763D01*
X002623Y017763D02*
X001113Y017763D01*
X001113Y017604D02*
X002862Y017604D01*
X002892Y017604D02*
X003746Y017604D01*
X008402Y019031D02*
X009018Y019031D01*
X009631Y019031D02*
X009671Y019031D01*
X009671Y018872D02*
X009631Y018872D01*
X009631Y018714D02*
X009671Y018714D01*
X009966Y018714D02*
X022755Y018714D01*
X022755Y018872D02*
X010124Y018872D01*
X010283Y019031D02*
X022755Y019031D01*
X022792Y019982D02*
X010188Y019982D01*
X010030Y020140D02*
X022899Y020140D01*
X023058Y020299D02*
X010113Y020299D01*
X010271Y020457D02*
X023216Y020457D01*
X023375Y020616D02*
X010430Y020616D01*
X010588Y020774D02*
X023533Y020774D01*
X023692Y020933D02*
X010747Y020933D01*
X010905Y021091D02*
X018572Y021091D01*
X018413Y021250D02*
X011064Y021250D01*
X011222Y021408D02*
X018255Y021408D01*
X018408Y021255D02*
X018408Y021255D01*
X018096Y021567D02*
X011381Y021567D01*
X011539Y021725D02*
X017938Y021725D01*
X011476Y023469D02*
X007446Y023469D01*
X007604Y023627D02*
X011476Y023627D01*
X011493Y023786D02*
X007763Y023786D01*
X007921Y023944D02*
X011536Y023944D01*
X011612Y024103D02*
X008080Y024103D01*
X008238Y024261D02*
X011713Y024261D01*
X011872Y024420D02*
X008397Y024420D01*
X007175Y024895D02*
X003649Y024895D01*
X003673Y024737D02*
X004288Y024737D01*
X004001Y024578D02*
X003684Y024578D01*
X003660Y024420D02*
X003842Y024420D01*
X003769Y024261D02*
X003636Y024261D01*
X003609Y024103D02*
X003703Y024103D01*
X003699Y023944D02*
X003532Y023944D01*
X003456Y023786D02*
X003699Y023786D01*
X003699Y023627D02*
X003368Y023627D01*
X003221Y023469D02*
X003699Y023469D01*
X003620Y023310D02*
X003074Y023310D01*
X003043Y023276D02*
X003043Y023276D01*
X002827Y023152D02*
X003461Y023152D01*
X003303Y022993D02*
X002482Y022993D01*
X002599Y023020D02*
X002599Y023020D01*
X002099Y022906D02*
X002099Y022906D01*
X002053Y022676D02*
X002986Y022676D01*
X003144Y022835D02*
X001124Y022835D01*
X001124Y022993D02*
X001463Y022993D01*
X001588Y022944D02*
X001588Y022944D01*
X001156Y022676D02*
X001123Y022676D01*
X005402Y023152D02*
X005431Y023152D01*
X005402Y023310D02*
X005590Y023310D01*
X005669Y023469D02*
X005402Y023469D01*
X005402Y023627D02*
X005669Y023627D01*
X005669Y023786D02*
X005402Y023786D01*
X005402Y023944D02*
X005669Y023944D01*
X005673Y024103D02*
X005398Y024103D01*
X005333Y024261D02*
X005739Y024261D01*
X005812Y024420D02*
X005259Y024420D01*
X005101Y024578D02*
X005971Y024578D01*
X006258Y024737D02*
X004814Y024737D01*
X003625Y025054D02*
X007333Y025054D01*
X007492Y025212D02*
X003573Y025212D01*
X003497Y025371D02*
X007650Y025371D01*
X007809Y025529D02*
X003421Y025529D01*
X003392Y025590D02*
X003392Y025590D01*
X003301Y025688D02*
X008011Y025688D01*
X007016Y024737D02*
X006784Y024737D01*
X003154Y025846D02*
X023513Y025846D01*
X026125Y025054D02*
X019412Y025054D01*
X019254Y025212D02*
X026289Y025212D01*
X025967Y024895D02*
X019571Y024895D01*
X019095Y025371D02*
X028104Y025371D01*
X028208Y025379D02*
X028208Y025379D01*
X028242Y025371D02*
X031988Y025371D01*
X031988Y025529D02*
X018937Y025529D01*
X018735Y025688D02*
X031988Y025688D01*
X031988Y025212D02*
X029242Y025212D01*
X029405Y025054D02*
X031988Y025054D01*
X031988Y024895D02*
X029564Y024895D01*
X029722Y024737D02*
X031988Y024737D01*
X031988Y024578D02*
X029881Y024578D01*
X030039Y024420D02*
X031988Y024420D01*
X031988Y024261D02*
X030198Y024261D01*
X030356Y024103D02*
X031988Y024103D01*
X027697Y025340D02*
X027697Y025340D01*
X026379Y023469D02*
X026238Y023469D01*
X026079Y023310D02*
X026408Y023310D01*
X026457Y023152D02*
X025921Y023152D01*
X025762Y022993D02*
X026506Y022993D01*
X026530Y022917D02*
X026530Y022917D01*
X026586Y022835D02*
X025604Y022835D01*
X025445Y022676D02*
X026694Y022676D01*
X026802Y022518D02*
X025287Y022518D01*
X026819Y022493D02*
X026819Y022493D01*
X026819Y022493D01*
X028713Y020616D02*
X028802Y020616D01*
X001254Y020774D02*
X001119Y020774D01*
D43*
X001717Y018559D03*
X009814Y017673D03*
X017115Y016062D03*
X006322Y012347D03*
X013655Y010065D03*
X020921Y009364D03*
X014532Y006761D03*
X020217Y004887D03*
X022159Y005501D03*
X023482Y005821D03*
X027406Y005836D03*
X007772Y004954D03*
X006764Y006510D03*
X059180Y005569D03*
X070110Y007708D03*
X072378Y006893D03*
X074298Y007329D03*
X075992Y007155D03*
X078145Y007111D03*
X081901Y009684D03*
X075500Y009883D03*
X077643Y012079D03*
X080357Y012778D03*
X072691Y013822D03*
X069284Y012943D03*
X066278Y017518D03*
X072452Y018439D03*
X074363Y018644D03*
X075634Y020116D03*
X081768Y021059D03*
X077623Y023470D03*
X072683Y024896D03*
X066170Y022165D03*
X060546Y022208D03*
X061380Y025291D03*
X081831Y017935D03*
D44*
X063999Y014368D03*
D45*
X011784Y010479D03*
D46*
X033016Y017753D02*
X033669Y017100D01*
X033016Y017753D02*
X029273Y017753D01*
X028193Y018833D01*
X028193Y021474D01*
X029965Y019562D02*
X029619Y019216D01*
X029007Y019216D01*
X029965Y019562D02*
X032174Y019600D01*
X032759Y018977D01*
X037150Y018977D01*
X037190Y018937D02*
X044430Y018937D01*
X042558Y020121D02*
X043619Y021182D01*
X043619Y023413D01*
X045579Y023413D02*
X045579Y022326D01*
X046090Y021815D01*
X051516Y021815D01*
X051837Y022136D01*
X051837Y022763D01*
X037115Y017102D02*
X035798Y018418D01*
X032041Y018418D01*
X031849Y018610D01*
X031849Y019041D01*
X036610Y010731D02*
X036349Y010469D01*
X036349Y009222D01*
D47*
X053134Y018631D03*
M02*
