G75*
G70*
%OFA0B0*%
%FSLAX24Y24*%
%IPPOS*%
%LPD*%
%AMOC8*
5,1,8,0,0,1.08239X$1,22.5*
%
%ADD10C,0.1580*%
%ADD11C,0.1143*%
%ADD12OC8,0.0940*%
%ADD13C,0.0780*%
%ADD14C,0.1080*%
%ADD15OC8,0.1080*%
%ADD16R,0.0789X0.0710*%
%ADD17R,0.0710X0.0789*%
%ADD18R,0.2180X0.0840*%
%ADD19C,0.0600*%
%ADD20C,0.0740*%
%ADD21C,0.0820*%
%ADD22C,0.1346*%
%ADD23C,0.0513*%
%ADD24C,0.1025*%
%ADD25OC8,0.1025*%
%ADD26C,0.0940*%
%ADD27C,0.0789*%
%ADD28OC8,0.0840*%
%ADD29OC8,0.0780*%
%ADD30OC8,0.0671*%
%ADD31C,0.0671*%
%ADD32C,0.1380*%
%ADD33C,0.0789*%
%ADD34OC8,0.1320*%
%ADD35OC8,0.0830*%
%ADD36C,0.1080*%
%ADD37C,0.1182*%
%ADD38C,0.0840*%
%ADD39R,0.0940X0.0940*%
%ADD40C,0.0580*%
%ADD41R,0.0580X0.0580*%
%ADD42R,0.0476X0.0476*%
%ADD43C,0.0555*%
%ADD44C,0.0611*%
D10*
X015302Y009014D03*
X018255Y009014D03*
X019830Y023581D03*
X012546Y023581D03*
D11*
X006521Y023924D02*
X006521Y022861D01*
X004551Y022861D02*
X004551Y023924D01*
D12*
X001605Y022064D03*
X001605Y020064D03*
D13*
X003654Y019942D02*
X003654Y020642D01*
X005654Y020142D02*
X005654Y019442D01*
X051396Y005648D02*
X051396Y004948D01*
X052396Y004948D02*
X052396Y005648D01*
X053396Y005648D02*
X053396Y004948D01*
X054396Y004948D02*
X054396Y005648D01*
X055396Y005648D02*
X055396Y004948D01*
X056396Y004948D02*
X056396Y005648D01*
X057396Y005648D02*
X057396Y004948D01*
X058396Y004948D02*
X058396Y005648D01*
X059981Y005656D02*
X059981Y004956D01*
X060981Y004956D02*
X060981Y005656D01*
X061981Y005656D02*
X061981Y004956D01*
X062981Y004956D02*
X062981Y005656D01*
X063981Y005656D02*
X063981Y004956D01*
X064981Y004956D02*
X064981Y005656D01*
X065981Y005656D02*
X065981Y004956D01*
X066981Y004956D02*
X066981Y005656D01*
D14*
X007651Y019360D03*
D15*
X009651Y019360D03*
X033284Y013398D03*
X036983Y013292D03*
X038499Y012219D03*
X041707Y013375D03*
X043296Y012289D03*
X050576Y011253D03*
X050665Y008258D03*
X034661Y012150D03*
X044563Y016267D03*
X050552Y014504D03*
X051500Y020702D03*
X055344Y020751D03*
D16*
X062909Y011620D03*
X063901Y011571D03*
X063901Y010469D03*
X062909Y010518D03*
X067317Y010467D03*
X067317Y011569D03*
D17*
X057989Y011919D03*
X056887Y011919D03*
X063617Y017147D03*
X064719Y017147D03*
X064703Y018116D03*
X063601Y018116D03*
X063599Y019146D03*
X064702Y019146D03*
X064680Y020715D03*
X063578Y020715D03*
X063575Y021878D03*
X064678Y021878D03*
X064689Y023685D03*
X063587Y023685D03*
X063589Y024874D03*
X064691Y024874D03*
D18*
X063750Y009077D03*
X067550Y009077D03*
D19*
X066972Y007539D02*
X066972Y007019D01*
X065972Y007019D02*
X065972Y007539D01*
X064972Y007539D02*
X064972Y007019D01*
X063972Y007019D02*
X063972Y007539D01*
X062972Y007539D02*
X062972Y007019D01*
X061972Y007019D02*
X061972Y007539D01*
X060972Y007539D02*
X060972Y007019D01*
X059972Y007019D02*
X059972Y007539D01*
D20*
X050039Y005555D02*
X050039Y004895D01*
X049039Y004895D02*
X049039Y005555D01*
X048039Y005555D02*
X048039Y004895D01*
X029145Y009210D02*
X029145Y009870D01*
X028145Y009870D02*
X028145Y009210D01*
X027145Y009210D02*
X027145Y009870D01*
X014440Y005367D02*
X014440Y004707D01*
X013440Y004707D02*
X013440Y005367D01*
X012440Y005367D02*
X012440Y004707D01*
X027141Y015156D02*
X027141Y015816D01*
X028141Y015816D02*
X028141Y015156D01*
X029141Y015156D02*
X029141Y015816D01*
X029193Y021144D02*
X029193Y021804D01*
X028193Y021804D02*
X028193Y021144D01*
X027193Y021144D02*
X027193Y021804D01*
X079857Y016987D02*
X079857Y016327D01*
X080857Y016327D02*
X080857Y016987D01*
X081857Y016987D02*
X081857Y016327D01*
X081882Y005332D02*
X081882Y004672D01*
X080882Y004672D02*
X080882Y005332D01*
X079882Y005332D02*
X079882Y004672D01*
D21*
X008409Y008093D03*
X007475Y008093D03*
X006587Y008093D03*
X005653Y008093D03*
D22*
X004747Y007148D03*
X009314Y007148D03*
D23*
X007917Y007109D03*
X006145Y007109D03*
D24*
X033669Y017100D03*
X037115Y017102D03*
X040558Y017121D03*
D25*
X039115Y017102D03*
X042558Y017121D03*
X035669Y017100D03*
X035669Y020100D03*
X037115Y020102D03*
X039115Y020102D03*
X040558Y020121D03*
X042558Y020121D03*
X033669Y020100D03*
D26*
X034037Y015728D03*
X038097Y015819D03*
X041985Y015818D03*
X079898Y013643D03*
X080898Y013643D03*
X081069Y024912D03*
X080069Y024912D03*
D27*
X040985Y015818D03*
X037097Y015819D03*
X033037Y015728D03*
D28*
X034661Y013650D03*
X038499Y013719D03*
X043296Y013789D03*
X046193Y013428D03*
X046193Y012428D03*
X046193Y011428D03*
X043955Y010582D03*
X046200Y010313D03*
X043955Y009582D03*
X043955Y008582D03*
X046200Y008313D03*
X046200Y009313D03*
X049200Y009313D03*
X050665Y009758D03*
X052090Y010010D03*
X049200Y010313D03*
X052098Y011080D03*
X049193Y011428D03*
X052098Y012080D03*
X050576Y012753D03*
X049193Y012428D03*
X052098Y013080D03*
X049193Y013428D03*
X052093Y014143D03*
X052093Y015143D03*
X049183Y015507D03*
X050552Y016004D03*
X049183Y016507D03*
X052093Y016143D03*
X052095Y017224D03*
X052095Y018224D03*
X052095Y019224D03*
X055095Y019224D03*
X055095Y018224D03*
X055095Y017224D03*
X055093Y016143D03*
X055093Y015143D03*
X055093Y014143D03*
X055098Y013080D03*
X055098Y012080D03*
X055098Y011080D03*
X055090Y010010D03*
X055090Y009010D03*
X055090Y008010D03*
X052090Y008010D03*
X052090Y009010D03*
X049200Y008313D03*
X040955Y008582D03*
X040955Y009582D03*
X039100Y010088D03*
X040955Y010582D03*
X041707Y011875D03*
X036983Y011792D03*
X033284Y011898D03*
X033100Y010088D03*
X033081Y007802D03*
X039081Y007802D03*
X039070Y005540D03*
X033070Y005540D03*
X046183Y014507D03*
X046183Y015507D03*
X046183Y016507D03*
X044563Y017767D03*
X053000Y020702D03*
X053844Y020751D03*
X049183Y014507D03*
D29*
X043295Y014796D03*
X043295Y015796D03*
X039153Y015795D03*
X039153Y014795D03*
X036037Y015764D03*
X035037Y015764D03*
D30*
X035994Y014466D03*
X039896Y013925D03*
X044481Y014820D03*
D31*
X044481Y014120D03*
X039896Y013225D03*
X035294Y014466D03*
D32*
X028074Y011770D03*
X028069Y017677D03*
X028079Y023663D03*
D33*
X045209Y020058D02*
X045209Y019349D01*
X046209Y019349D02*
X046209Y020058D01*
X047209Y020058D02*
X047209Y019349D01*
X049479Y019467D02*
X050188Y019467D01*
X050188Y020467D02*
X049479Y020467D01*
X049479Y018467D02*
X050188Y018467D01*
X050228Y022784D02*
X049520Y022784D01*
X051498Y022778D02*
X052206Y022778D01*
X053452Y022761D02*
X054161Y022761D01*
X054161Y023761D02*
X053452Y023761D01*
X052206Y023778D02*
X051498Y023778D01*
X050228Y023784D02*
X049520Y023784D01*
X049520Y024784D02*
X050228Y024784D01*
X051498Y024778D02*
X052206Y024778D01*
X053452Y024761D02*
X054161Y024761D01*
D34*
X056950Y024474D03*
X056906Y021463D03*
X056911Y018463D03*
X067711Y018463D03*
X069945Y020330D03*
X067706Y021463D03*
X067750Y024474D03*
X069945Y009530D03*
D35*
X055360Y022214D03*
X055360Y025214D03*
D36*
X047549Y023913D02*
X047549Y022913D01*
X045579Y022913D02*
X045579Y023913D01*
X043619Y023913D02*
X043619Y022913D01*
X041649Y022913D02*
X041649Y023913D01*
X039669Y023913D02*
X039669Y022913D01*
X037699Y022913D02*
X037699Y023913D01*
X035739Y023913D02*
X035739Y022913D01*
X033769Y022913D02*
X033769Y023913D01*
D37*
X001970Y024621D03*
X001807Y005187D03*
X069922Y005353D03*
X072988Y005343D03*
X081231Y007886D03*
X072988Y016811D03*
X081075Y019351D03*
X070000Y024585D03*
D38*
X074635Y017024D02*
X074635Y016264D01*
X075635Y016264D02*
X075635Y017024D01*
X076635Y017024D02*
X076635Y016264D01*
X077635Y016264D02*
X077635Y017024D01*
X078635Y017024D02*
X078635Y016264D01*
X046706Y005602D02*
X046706Y004842D01*
X045706Y004842D02*
X045706Y005602D01*
X044706Y005602D02*
X044706Y004842D01*
X043706Y004842D02*
X043706Y005602D01*
X042706Y005602D02*
X042706Y004842D01*
X074671Y004645D02*
X074671Y005405D01*
X075671Y005405D02*
X075671Y004645D01*
X076671Y004645D02*
X076671Y005405D01*
X077671Y005405D02*
X077671Y004645D01*
X078671Y004645D02*
X078671Y005405D01*
D39*
X081898Y013643D03*
X082069Y024912D03*
D40*
X003700Y004688D03*
X011354Y006987D03*
X012351Y006863D03*
X017182Y006190D03*
X019454Y006181D03*
X027548Y004112D03*
X031908Y005702D03*
X029132Y006541D03*
X031036Y007378D03*
X030695Y007935D03*
X029605Y008239D03*
X028826Y007809D03*
X028155Y007838D03*
X032196Y008193D03*
X036349Y009222D03*
X036610Y010731D03*
X042199Y009305D03*
X041106Y007576D03*
X042764Y006973D03*
X043978Y006280D03*
X045866Y007013D03*
X041501Y004896D03*
X040785Y004933D03*
X036166Y004185D03*
X047401Y004666D03*
X052847Y004416D03*
X056736Y006672D03*
X057815Y006744D03*
X058879Y007152D03*
X059394Y006842D03*
X060467Y006644D03*
X061492Y006192D03*
X058372Y007643D03*
X059275Y007726D03*
X059449Y008591D03*
X058174Y008642D03*
X056978Y008577D03*
X056453Y008305D03*
X056485Y007719D03*
X056861Y007265D03*
X055326Y007270D03*
X053513Y007469D03*
X052859Y008080D03*
X055982Y009275D03*
X056603Y009267D03*
X056111Y010077D03*
X056587Y010591D03*
X057168Y010591D03*
X057939Y010518D03*
X058547Y010955D03*
X059938Y010492D03*
X060934Y010567D03*
X061732Y010759D03*
X061342Y011200D03*
X062136Y011466D03*
X060652Y011942D03*
X059981Y011885D03*
X058634Y011905D03*
X058521Y012674D03*
X059921Y013141D03*
X060681Y013165D03*
X061636Y012957D03*
X062662Y012659D03*
X061474Y012022D03*
X058009Y013378D03*
X056804Y013945D03*
X057453Y014227D03*
X058039Y014187D03*
X058919Y014132D03*
X056584Y014618D03*
X056275Y015236D03*
X057555Y015918D03*
X057060Y016448D03*
X056694Y016982D03*
X057222Y017473D03*
X058270Y017611D03*
X059964Y017607D03*
X059659Y018885D03*
X058402Y018901D03*
X057845Y019284D03*
X059624Y019673D03*
X062076Y018729D03*
X062721Y020710D03*
X061077Y020710D03*
X055735Y018786D03*
X053788Y018163D03*
X050545Y017697D03*
X048199Y017643D03*
X048139Y016799D03*
X050397Y016856D03*
X053125Y016631D03*
X053889Y015158D03*
X053063Y013868D03*
X053746Y012407D03*
X054181Y011614D03*
X054195Y009480D03*
X047591Y010643D03*
X044511Y011356D03*
X042600Y013247D03*
X047582Y015647D03*
X045363Y016950D03*
X031849Y019041D03*
X029007Y019216D03*
X025118Y020403D03*
X025097Y015039D03*
X025646Y013024D03*
X024014Y012305D03*
X024029Y011566D03*
X030985Y013040D03*
X011890Y012270D03*
X005642Y011333D03*
X003955Y011455D03*
X011354Y009312D03*
X012209Y009238D03*
X009035Y014814D03*
X008337Y018412D03*
X058194Y025200D03*
X059547Y023814D03*
X061028Y023673D03*
X062706Y023705D03*
X063566Y016258D03*
X064435Y015818D03*
X063541Y015523D03*
X064973Y014466D03*
X068120Y010687D03*
X066916Y009801D03*
X064105Y009801D03*
X062180Y010373D03*
X067576Y006455D03*
X062497Y004385D03*
D41*
X059180Y005569D03*
X070110Y007708D03*
X072378Y006893D03*
X074298Y007329D03*
X075992Y007155D03*
X078145Y007111D03*
X081901Y009684D03*
X075500Y009883D03*
X077643Y012079D03*
X080357Y012778D03*
X072691Y013822D03*
X069284Y012943D03*
X066278Y017518D03*
X072452Y018439D03*
X074363Y018644D03*
X075634Y020116D03*
X081768Y021059D03*
X077623Y023470D03*
X072683Y024896D03*
X066170Y022165D03*
X060546Y022208D03*
X061380Y025291D03*
X081831Y017935D03*
X027406Y005836D03*
X023482Y005821D03*
X022159Y005501D03*
X020217Y004887D03*
X014532Y006761D03*
X007772Y004954D03*
X006764Y006510D03*
X013655Y010065D03*
X020921Y009364D03*
X006322Y012347D03*
X017115Y016062D03*
X009814Y017673D03*
X001717Y018559D03*
D42*
X063999Y014368D03*
D43*
X011784Y010479D03*
D44*
X053134Y018631D03*
M02*
