%
M48
M72
T01C0.0236
T02C0.0315
T03C0.0320
T04C0.0354
T05C0.0360
T06C0.0394
T07C0.0400
T08C0.0433
T09C0.0440
T10C0.0470
T11C0.0520
T12C0.0551
T13C0.0866
T14C0.1102
T15C0.1300
%
T01
X63999Y14368
T02
X3700Y4688
X7772Y4954
X6764Y6510
X11354Y6987
X12351Y6863
X14532Y6761
X17182Y6190
X19454Y6181
X22159Y5501
X23482Y5821
X20217Y4887
X27406Y5836
X29132Y6541
X31036Y7378
X30695Y7935
X29605Y8239
X28826Y7809
X28155Y7838
X32196Y8193
X33081Y7802
X36349Y9222
X39100Y10088
X40955Y10582
X43955Y10582
X44511Y11356
X46193Y11428
X47591Y10643
X46200Y10313
X43955Y9582
X42199Y9305
X40955Y9582
X40955Y8582
X39081Y7802
X41106Y7576
X42764Y6973
X43978Y6280
X45866Y7013
X46200Y8313
X46200Y9313
X43955Y8582
X49200Y8313
X49200Y9313
X52090Y9010
X52090Y8010
X52859Y8080
X53513Y7469
X55090Y8010
X56453Y8305
X56978Y8577
X56603Y9267
X55982Y9275
X55090Y9010
X54195Y9480
X55090Y10010
X56111Y10077
X56587Y10591
X57168Y10591
X57939Y10518
X58547Y10955
X59938Y10492
X60934Y10567
X61732Y10759
X61342Y11200
X62136Y11466
X60652Y11942
X59981Y11885
X58634Y11905
X58521Y12674
X59921Y13141
X60681Y13165
X61636Y12957
X62662Y12659
X61474Y12022
X58009Y13378
X56804Y13945
X57453Y14227
X58039Y14187
X58919Y14132
X56584Y14618
X55093Y14143
X55093Y15143
X56275Y15236
X57555Y15918
X57060Y16448
X56694Y16982
X57222Y17473
X58270Y17611
X59964Y17607
X59659Y18885
X58402Y18901
X57845Y19284
X59624Y19673
X62076Y18729
X66278Y17518
X63566Y16258
X64435Y15818
X63541Y15523
X64973Y14466
X69284Y12943
X72691Y13822
X77643Y12079
X80357Y12778
X75500Y9883
X81901Y9684
X74298Y7329
X75992Y7155
X78145Y7111
X72378Y6893
X70110Y7708
X67576Y6455
X61492Y6192
X60467Y6644
X59394Y6842
X58879Y7152
X57815Y6744
X56736Y6672
X56861Y7265
X56485Y7719
X55326Y7270
X58372Y7643
X59275Y7726
X59449Y8591
X58174Y8642
X62180Y10373
X64105Y9801
X66916Y9801
X68120Y10687
X55098Y11080
X54181Y11614
X55098Y12080
X53746Y12407
X52098Y12080
X49193Y12428
X52098Y13080
X53063Y13868
X52093Y14143
X52093Y15143
X53889Y15158
X55093Y16143
X53125Y16631
X52093Y16143
X50397Y16856
X49183Y16507
X48139Y16799
X48199Y17643
X50545Y17697
X52095Y17224
X52095Y18224
X53788Y18163
X55095Y18224
X55735Y18786
X55095Y19224
X52095Y19224
X49834Y19467
X49834Y20467
X47209Y19703
X46209Y19703
X45209Y19703
X49834Y18467
X45363Y16950
X46183Y16507
X46183Y15507
X47582Y15647
X49183Y15507
X49183Y14507
X49193Y13428
X46193Y13428
X44481Y14120
X44481Y14820
X43295Y14796
X46183Y14507
X43295Y15796
X41985Y15818
X40985Y15818
X39153Y15795
X38097Y15819
X37097Y15819
X36037Y15764
X35037Y15764
X34037Y15728
X33037Y15728
X35294Y14466
X35994Y14466
X39153Y14795
X39896Y13925
X39896Y13225
X42600Y13247
X46193Y12428
X49193Y11428
X52098Y11080
X49200Y10313
X52090Y10010
X55098Y13080
X55095Y17224
X61077Y20710
X62721Y20710
X60546Y22208
X61028Y23673
X59547Y23814
X62706Y23705
X61380Y25291
X58194Y25200
X53806Y24761
X51852Y24778
X49874Y24784
X49874Y23784
X51852Y23778
X53806Y23761
X53806Y22761
X51852Y22778
X49874Y22784
X66170Y22165
X72683Y24896
X77623Y23470
X81768Y21059
X75634Y20116
X74363Y18644
X72452Y18439
X74635Y16644
X75635Y16644
X76635Y16644
X77635Y16644
X78635Y16644
X81831Y17935
X59180Y5569
X62497Y4385
X52847Y4416
X47401Y4666
X46706Y5222
X45706Y5222
X44706Y5222
X43706Y5222
X42706Y5222
X41501Y4896
X40785Y4933
X39070Y5540
X36166Y4185
X33070Y5540
X31908Y5702
X27548Y4112
X12209Y9238
X11354Y9312
X13655Y10065
X11784Y10479
X11890Y12270
X6322Y12347
X3955Y11455
X5642Y11333
X9035Y14814
X17115Y16062
X9814Y17673
X8337Y18412
X5654Y19792
X3654Y20292
X1717Y18559
X24014Y12305
X25646Y13024
X24029Y11566
X20921Y9364
X30985Y13040
X36610Y10731
X33100Y10088
X25097Y15039
X31849Y19041
X29007Y19216
X25118Y20403
X74671Y5025
X75671Y5025
X76671Y5025
X77671Y5025
X78671Y5025
T03
X66972Y7279
X65972Y7279
X64972Y7279
X63972Y7279
X62972Y7279
X61972Y7279
X60972Y7279
X59972Y7279
X42558Y17121
X40558Y17121
X39115Y17102
X37115Y17102
X35669Y17100
X33669Y17100
X33669Y20100
X35669Y20100
X37115Y20102
X39115Y20102
X40558Y20121
X42558Y20121
T04
X53134Y18631
T05
X53000Y20702
X53844Y20751
X55344Y20751
X51500Y20702
X55360Y22214
X55360Y25214
X44563Y17767
X44563Y16267
X50552Y16004
X50552Y14504
X50576Y12753
X50576Y11253
X50665Y9758
X50665Y8258
X41707Y11875
X43296Y12289
X41707Y13375
X43296Y13789
X38499Y13719
X36983Y13292
X34661Y13650
X33284Y13398
X34661Y12150
X33284Y11898
X36983Y11792
X38499Y12219
X8409Y8093
X7475Y8093
X6587Y8093
X5653Y8093
X1605Y20064
X1605Y22064
T06
X48039Y5225
X49039Y5225
X50039Y5225
X51396Y5298
X52396Y5298
X53396Y5298
X54396Y5298
X55396Y5298
X56396Y5298
X57396Y5298
X58396Y5298
X59981Y5306
X60981Y5306
X61981Y5306
X62981Y5306
X63981Y5306
X64981Y5306
X65981Y5306
X66981Y5306
X79882Y5002
X80882Y5002
X81882Y5002
X81857Y16657
X80857Y16657
X79857Y16657
X14440Y5037
X13440Y5037
X12440Y5037
T07
X9651Y19360
X7651Y19360
X79898Y13643
X80898Y13643
X81898Y13643
X82069Y24912
X81069Y24912
X80069Y24912
T08
X47549Y23413
X45579Y23413
X43619Y23413
X41649Y23413
X39669Y23413
X37699Y23413
X35739Y23413
X33769Y23413
X7917Y7109
X6145Y7109
T09
X27145Y9540
X28145Y9540
X29145Y9540
X29141Y15486
X28141Y15486
X27141Y15486
X27193Y21474
X28193Y21474
X29193Y21474
T10
X56906Y21463
X56911Y18463
X67711Y18463
X69945Y20330
X67706Y21463
X67750Y24474
X56950Y24474
X69945Y9530
T11
X6521Y23393
X4551Y23393
T12
X12546Y23581
X19830Y23581
X18255Y9014
X15302Y9014
T13
X9314Y7148
X4747Y7148
T14
X1807Y5187
X1970Y24621
X70000Y24585
X81075Y19351
X72988Y16811
X81231Y7886
X72988Y5343
X69922Y5353
T15
X28074Y11770
X28069Y17677
X28079Y23663
M30
