G75*
G70*
%OFA0B0*%
%FSLAX24Y24*%
%IPPOS*%
%LPD*%
%AMOC8*
5,1,8,0,0,1.08239X$1,22.5*
%
%ADD10C,0.0100*%
%ADD11C,0.0160*%
%ADD12C,0.0110*%
%ADD13C,0.0140*%
%ADD14C,0.0050*%
%ADD15C,0.0020*%
%ADD16C,0.0060*%
%ADD17C,0.0030*%
%ADD18C,0.0000*%
D10*
X000561Y003798D02*
X000561Y009420D01*
X002792Y009420D01*
X002792Y014506D01*
X000576Y014506D01*
X000601Y026396D01*
X000609Y026395D02*
X071561Y026337D01*
X071505Y003738D01*
X000610Y003797D01*
X000587Y003798D02*
X000561Y003798D01*
X071822Y015021D02*
X073825Y015021D01*
X073825Y013100D01*
X079179Y013100D01*
X079179Y014996D01*
X082805Y014996D01*
X082805Y015002D01*
X082795Y015277D02*
X072189Y015277D01*
X072203Y015270D02*
X072203Y015285D01*
X071797Y015285D01*
X071793Y015282D02*
X071793Y026288D01*
X072183Y026288D01*
X072181Y026295D02*
X073928Y026295D01*
X073928Y024604D01*
X073944Y024607D02*
X079256Y024607D01*
X079256Y026251D01*
X082799Y026251D01*
X082799Y026261D01*
X082804Y026248D02*
X082789Y026248D01*
X082804Y026248D02*
X082804Y015282D01*
D11*
X082788Y014979D02*
X082793Y003795D01*
X071785Y003795D01*
X071785Y015058D01*
X071778Y015060D02*
X071778Y015085D01*
D12*
X076267Y018307D02*
X076267Y018898D01*
X076464Y018898D02*
X076070Y018898D01*
X076715Y018799D02*
X076715Y018701D01*
X076813Y018602D01*
X077108Y018602D01*
X077359Y018602D02*
X077753Y018602D01*
X077753Y018307D02*
X077753Y018898D01*
X077359Y018898D02*
X077359Y018307D01*
X077108Y018307D02*
X076813Y018307D01*
X076715Y018406D01*
X076715Y018504D01*
X076813Y018602D01*
X076715Y018799D02*
X076813Y018898D01*
X077108Y018898D01*
X077108Y018307D01*
X077149Y019703D02*
X077149Y020293D01*
X076952Y020096D01*
X076756Y020293D01*
X076756Y019703D01*
X077400Y019703D02*
X077400Y020293D01*
X077400Y019998D02*
X077794Y019998D01*
X077794Y019703D02*
X077794Y020293D01*
X076505Y019998D02*
X076111Y019998D01*
X075860Y020096D02*
X075663Y020293D01*
X075663Y019703D01*
X075860Y019703D02*
X075466Y019703D01*
X075216Y019703D02*
X074822Y019703D01*
X075019Y019703D02*
X075019Y020293D01*
X075216Y020096D01*
X074976Y009019D02*
X074976Y008428D01*
X075173Y008428D02*
X074779Y008428D01*
X075424Y008428D02*
X075817Y008428D01*
X075620Y008428D02*
X075620Y009019D01*
X075817Y008822D01*
X076068Y008723D02*
X076462Y008723D01*
X076713Y008428D02*
X076713Y009019D01*
X076909Y008822D01*
X077106Y009019D01*
X077106Y008428D01*
X077357Y008428D02*
X077357Y009019D01*
X077357Y008723D02*
X077751Y008723D01*
X077751Y008428D02*
X077751Y009019D01*
X075173Y008822D02*
X074976Y009019D01*
X076051Y007436D02*
X076445Y007436D01*
X076248Y007436D02*
X076248Y006845D01*
X076696Y006944D02*
X076794Y006845D01*
X077089Y006845D01*
X077089Y007436D01*
X076794Y007436D01*
X076696Y007337D01*
X076696Y007239D01*
X076794Y007140D01*
X077089Y007140D01*
X077340Y007140D02*
X077734Y007140D01*
X077734Y006845D02*
X077734Y007436D01*
X077340Y007436D02*
X077340Y006845D01*
X076794Y007140D02*
X076696Y007042D01*
X076696Y006944D01*
X021866Y025185D02*
X021866Y025775D01*
X021866Y025480D02*
X021473Y025480D01*
X021222Y025480D02*
X020926Y025480D01*
X020828Y025381D01*
X020828Y025283D01*
X020926Y025185D01*
X021222Y025185D01*
X021222Y025775D01*
X020926Y025775D01*
X020828Y025677D01*
X020828Y025578D01*
X020926Y025480D01*
X020577Y025775D02*
X020183Y025775D01*
X020380Y025775D02*
X020380Y025185D01*
X021473Y025185D02*
X021473Y025775D01*
X019288Y025677D02*
X019288Y025578D01*
X019190Y025480D01*
X018993Y025480D01*
X018894Y025381D01*
X018894Y025283D01*
X018993Y025185D01*
X019190Y025185D01*
X019288Y025283D01*
X019288Y025381D01*
X019190Y025480D01*
X018993Y025480D02*
X018894Y025578D01*
X018894Y025677D01*
X018993Y025775D01*
X019190Y025775D01*
X019288Y025677D01*
X018643Y025480D02*
X018250Y025480D01*
X017999Y025185D02*
X017999Y025775D01*
X017802Y025578D01*
X017605Y025775D01*
X017605Y025185D01*
X017354Y025283D02*
X017354Y025480D01*
X017256Y025578D01*
X017059Y025578D01*
X016961Y025480D01*
X016961Y025283D01*
X017059Y025185D01*
X017256Y025185D01*
X017354Y025283D01*
X016710Y025283D02*
X016710Y025480D01*
X016611Y025578D01*
X016316Y025578D01*
X016316Y025775D02*
X016316Y025185D01*
X016611Y025185D01*
X016710Y025283D01*
X016065Y025283D02*
X015967Y025185D01*
X015672Y025185D01*
X015672Y025578D01*
X015421Y025775D02*
X015322Y025775D01*
X015322Y025185D01*
X015224Y025185D02*
X015421Y025185D01*
X014991Y025283D02*
X014991Y025480D01*
X014893Y025578D01*
X014696Y025578D01*
X014597Y025480D01*
X014597Y025381D01*
X014991Y025381D01*
X014991Y025283D02*
X014893Y025185D01*
X014696Y025185D01*
X013702Y025185D02*
X013407Y025185D01*
X013308Y025283D01*
X013308Y025381D01*
X013407Y025480D01*
X013702Y025480D01*
X013702Y025185D02*
X013702Y025775D01*
X013407Y025775D01*
X013308Y025677D01*
X013308Y025578D01*
X013407Y025480D01*
X013057Y025480D02*
X013057Y025283D01*
X012959Y025185D01*
X012762Y025185D01*
X012664Y025283D01*
X012664Y025480D01*
X012762Y025578D01*
X012959Y025578D01*
X013057Y025480D01*
X012413Y025283D02*
X012314Y025381D01*
X012019Y025381D01*
X012019Y025480D02*
X012019Y025185D01*
X012314Y025185D01*
X012413Y025283D01*
X012118Y025578D02*
X012019Y025480D01*
X012118Y025578D02*
X012314Y025578D01*
X011768Y025578D02*
X011768Y025185D01*
X011768Y025381D02*
X011571Y025578D01*
X011473Y025578D01*
X011231Y025480D02*
X011133Y025578D01*
X010837Y025578D01*
X010837Y025775D02*
X010837Y025185D01*
X011133Y025185D01*
X011231Y025283D01*
X011231Y025480D01*
X016065Y025578D02*
X016065Y025283D01*
X006555Y013107D02*
X006555Y012713D01*
X006555Y012910D02*
X007145Y012910D01*
X006949Y012713D01*
X006555Y012462D02*
X006555Y012068D01*
X006555Y012265D02*
X007145Y012265D01*
X006949Y012068D01*
X006850Y011817D02*
X006850Y011424D01*
X007145Y011173D02*
X006555Y011173D01*
X006555Y010779D02*
X007145Y010779D01*
X006949Y010976D01*
X007145Y011173D01*
X007145Y010528D02*
X006555Y010528D01*
X006850Y010528D02*
X006850Y010135D01*
X006555Y010135D02*
X007145Y010135D01*
D13*
X012340Y014223D02*
X012620Y014223D01*
X012713Y014316D01*
X012620Y014410D01*
X012340Y014410D01*
X012340Y014503D02*
X012340Y014223D01*
X012340Y014503D02*
X012433Y014597D01*
X012620Y014597D01*
X013050Y014597D02*
X013050Y014223D01*
X013143Y014223D02*
X012956Y014223D01*
X013050Y014597D02*
X013143Y014597D01*
X013050Y014783D02*
X013050Y014877D01*
X013414Y014783D02*
X013414Y014223D01*
X013694Y014223D01*
X013788Y014316D01*
X013788Y014503D01*
X013694Y014597D01*
X013414Y014597D01*
X014059Y014503D02*
X014059Y014223D01*
X014059Y014503D02*
X014152Y014597D01*
X014432Y014597D01*
X014432Y014223D01*
X014675Y014223D02*
X014862Y014223D01*
X014769Y014223D02*
X014769Y014783D01*
X014862Y014783D02*
X014675Y014783D01*
X015777Y014503D02*
X015777Y014223D01*
X015777Y014503D02*
X015871Y014597D01*
X016151Y014597D01*
X016151Y014223D01*
X016394Y014223D02*
X016581Y014223D01*
X016487Y014223D02*
X016487Y014783D01*
X016394Y014783D02*
X016581Y014783D01*
X017496Y014503D02*
X017496Y014410D01*
X017870Y014410D01*
X017870Y014503D02*
X017776Y014597D01*
X017590Y014597D01*
X017496Y014503D01*
X017590Y014223D02*
X017776Y014223D01*
X017870Y014316D01*
X017870Y014503D01*
X018141Y014597D02*
X018421Y014597D01*
X018514Y014503D01*
X018514Y014316D01*
X018421Y014223D01*
X018141Y014223D01*
X018141Y014783D01*
X018785Y014503D02*
X018785Y014223D01*
X019066Y014223D01*
X019159Y014316D01*
X019066Y014410D01*
X018785Y014410D01*
X018785Y014503D02*
X018879Y014597D01*
X019066Y014597D01*
X019430Y014783D02*
X019430Y014223D01*
X019804Y014223D02*
X019804Y014783D01*
X019617Y014597D01*
X019430Y014783D01*
D14*
X057477Y011496D02*
X057477Y011451D01*
X057657Y011271D01*
X057657Y011226D01*
X057772Y011271D02*
X057817Y011226D01*
X057907Y011226D01*
X057952Y011271D01*
X057952Y011451D01*
X057907Y011496D01*
X057817Y011496D01*
X057772Y011451D01*
X057657Y011496D02*
X057477Y011496D01*
X063208Y010936D02*
X063208Y010846D01*
X063253Y010801D01*
X063298Y010801D01*
X063343Y010846D01*
X063343Y010936D01*
X063298Y010981D01*
X063253Y010981D01*
X063208Y010936D01*
X063343Y010936D02*
X063388Y010981D01*
X063433Y010981D01*
X063478Y010936D01*
X063478Y010846D01*
X063433Y010801D01*
X063388Y010801D01*
X063343Y010846D01*
X063433Y010686D02*
X063478Y010641D01*
X063478Y010551D01*
X063433Y010506D01*
X063253Y010506D01*
X063208Y010551D01*
X063208Y010641D01*
X063253Y010686D01*
X063333Y011044D02*
X063603Y011044D01*
X063603Y011179D01*
X063558Y011224D01*
X063468Y011224D01*
X063423Y011179D01*
X063423Y011044D01*
X063423Y011134D02*
X063333Y011224D01*
X063378Y011338D02*
X063333Y011383D01*
X063333Y011474D01*
X063378Y011519D01*
X063423Y011519D01*
X063468Y011474D01*
X063468Y011338D01*
X063378Y011338D01*
X063468Y011338D02*
X063558Y011429D01*
X063603Y011519D01*
X066623Y010934D02*
X066623Y010844D01*
X066668Y010799D01*
X066758Y010844D02*
X066758Y010979D01*
X066668Y010979D02*
X066849Y010979D01*
X066894Y010934D01*
X066894Y010844D01*
X066849Y010799D01*
X066803Y010799D01*
X066758Y010844D01*
X066623Y010934D02*
X066668Y010979D01*
X066668Y010684D02*
X066623Y010639D01*
X066623Y010549D01*
X066668Y010504D01*
X066849Y010504D01*
X066894Y010549D01*
X066894Y010639D01*
X066849Y010684D01*
X064149Y017570D02*
X064059Y017570D01*
X064014Y017615D01*
X063899Y017615D02*
X063854Y017570D01*
X063764Y017570D01*
X063719Y017615D01*
X063719Y017660D01*
X063764Y017705D01*
X063899Y017705D01*
X063899Y017615D01*
X063899Y017705D02*
X063809Y017795D01*
X063719Y017840D01*
X064014Y017795D02*
X064059Y017840D01*
X064149Y017840D01*
X064194Y017795D01*
X064194Y017615D01*
X064149Y017570D01*
X064125Y018356D02*
X064125Y018716D01*
X064152Y018681D02*
X064197Y018726D01*
X064287Y018726D01*
X064332Y018771D01*
X064332Y018816D01*
X064287Y018861D01*
X064197Y018861D01*
X064152Y018816D01*
X064242Y018906D02*
X064242Y018546D01*
X064215Y018581D02*
X064215Y018626D01*
X064170Y018671D01*
X064080Y018671D01*
X064035Y018626D01*
X064080Y018536D02*
X064170Y018536D01*
X064215Y018581D01*
X064197Y018591D02*
X064152Y018636D01*
X064152Y018681D01*
X064197Y018591D02*
X064287Y018591D01*
X064332Y018636D01*
X064329Y018671D02*
X064329Y018446D01*
X064374Y018401D01*
X064464Y018401D01*
X064509Y018446D01*
X064509Y018671D01*
X064447Y018636D02*
X064447Y018861D01*
X064627Y018861D02*
X064627Y018636D01*
X064582Y018591D01*
X064492Y018591D01*
X064447Y018636D01*
X064215Y018446D02*
X064170Y018401D01*
X064080Y018401D01*
X064035Y018446D01*
X064035Y018491D01*
X064080Y018536D01*
X063920Y018536D02*
X063830Y018581D01*
X063785Y018581D01*
X063740Y018536D01*
X063740Y018446D01*
X063785Y018401D01*
X063875Y018401D01*
X063920Y018446D01*
X063920Y018536D02*
X063920Y018671D01*
X063740Y018671D01*
X063857Y018726D02*
X064037Y018726D01*
X063902Y018861D01*
X063902Y018591D01*
X064101Y021088D02*
X064101Y021448D01*
X064129Y021415D02*
X064174Y021460D01*
X064264Y021460D01*
X064309Y021415D01*
X064309Y021370D01*
X064264Y021325D01*
X064174Y021325D01*
X064129Y021280D01*
X064129Y021235D01*
X064174Y021190D01*
X064264Y021190D01*
X064309Y021235D01*
X064305Y021178D02*
X064305Y021403D01*
X064191Y021358D02*
X064146Y021403D01*
X064056Y021403D01*
X064011Y021358D01*
X064014Y021325D02*
X063879Y021325D01*
X063834Y021280D01*
X063834Y021235D01*
X063879Y021190D01*
X063969Y021190D01*
X064014Y021235D01*
X064014Y021325D01*
X063924Y021415D01*
X063834Y021460D01*
X063896Y021403D02*
X063716Y021403D01*
X063716Y021358D01*
X063896Y021178D01*
X063896Y021133D01*
X064011Y021178D02*
X064011Y021223D01*
X064056Y021268D01*
X064146Y021268D01*
X064191Y021313D01*
X064191Y021358D01*
X064219Y021505D02*
X064219Y021145D01*
X064191Y021178D02*
X064146Y021133D01*
X064056Y021133D01*
X064011Y021178D01*
X064305Y021178D02*
X064350Y021133D01*
X064440Y021133D01*
X064486Y021178D01*
X064486Y021403D01*
X064424Y021460D02*
X064424Y021235D01*
X064469Y021190D01*
X064559Y021190D01*
X064604Y021235D01*
X064604Y021460D01*
X064114Y024084D02*
X064114Y024444D01*
X064138Y024385D02*
X064183Y024430D01*
X064273Y024430D01*
X064318Y024385D01*
X064318Y024340D01*
X064273Y024295D01*
X064183Y024295D01*
X064138Y024250D01*
X064138Y024205D01*
X064183Y024160D01*
X064273Y024160D01*
X064318Y024205D01*
X064319Y024174D02*
X064319Y024399D01*
X064433Y024430D02*
X064433Y024205D01*
X064478Y024160D01*
X064568Y024160D01*
X064613Y024205D01*
X064613Y024430D01*
X064499Y024399D02*
X064499Y024174D01*
X064454Y024129D01*
X064364Y024129D01*
X064319Y024174D01*
X064228Y024115D02*
X064228Y024475D01*
X064159Y024399D02*
X064069Y024399D01*
X064024Y024354D01*
X064023Y024340D02*
X064023Y024385D01*
X063978Y024430D01*
X063888Y024430D01*
X063843Y024385D01*
X063843Y024340D01*
X063888Y024295D01*
X063978Y024295D01*
X064023Y024340D01*
X063978Y024295D02*
X064023Y024250D01*
X064023Y024205D01*
X063978Y024160D01*
X063888Y024160D01*
X063843Y024205D01*
X063843Y024250D01*
X063888Y024295D01*
X063910Y024309D02*
X063865Y024264D01*
X063730Y024264D01*
X063730Y024354D02*
X063775Y024399D01*
X063865Y024399D01*
X063910Y024354D01*
X063910Y024309D01*
X063910Y024174D02*
X063865Y024129D01*
X063775Y024129D01*
X063730Y024174D01*
X063730Y024354D01*
X064024Y024219D02*
X064069Y024264D01*
X064159Y024264D01*
X064204Y024309D01*
X064204Y024354D01*
X064159Y024399D01*
X064024Y024219D02*
X064024Y024174D01*
X064069Y024129D01*
X064159Y024129D01*
X064204Y024174D01*
D15*
X064300Y009877D02*
X067000Y009877D01*
X067000Y009577D02*
X064300Y009577D01*
X063639Y008627D02*
X063671Y008582D01*
X063707Y008540D01*
X063746Y008500D01*
X063787Y008463D01*
X063831Y008429D01*
X063878Y008398D01*
X063926Y008370D01*
X063976Y008346D01*
X064027Y008325D01*
X064080Y008308D01*
X064134Y008294D01*
X064189Y008285D01*
X064244Y008279D01*
X064300Y008277D01*
X067000Y008277D01*
X067000Y008577D02*
X064300Y008577D01*
X064262Y008578D01*
X064225Y008583D01*
X064188Y008590D01*
X064152Y008599D01*
X064116Y008612D01*
X064082Y008627D01*
X063639Y009527D02*
X063671Y009572D01*
X063707Y009614D01*
X063746Y009654D01*
X063788Y009691D01*
X063831Y009725D01*
X063878Y009756D01*
X063926Y009784D01*
X063976Y009808D01*
X064027Y009829D01*
X064080Y009846D01*
X064134Y009860D01*
X064189Y009869D01*
X064244Y009875D01*
X064300Y009877D01*
X064300Y009577D02*
X064262Y009576D01*
X064225Y009571D01*
X064188Y009564D01*
X064152Y009555D01*
X064116Y009542D01*
X064082Y009527D01*
X065250Y009077D02*
X065400Y009077D01*
X065900Y009077D02*
X066050Y009077D01*
X067000Y009877D02*
X067056Y009875D01*
X067111Y009869D01*
X067166Y009860D01*
X067220Y009846D01*
X067273Y009829D01*
X067324Y009808D01*
X067374Y009784D01*
X067422Y009756D01*
X067469Y009725D01*
X067513Y009691D01*
X067554Y009654D01*
X067593Y009614D01*
X067629Y009572D01*
X067661Y009527D01*
X067661Y008627D02*
X067629Y008582D01*
X067593Y008540D01*
X067554Y008500D01*
X067512Y008463D01*
X067469Y008429D01*
X067422Y008398D01*
X067374Y008370D01*
X067324Y008346D01*
X067273Y008325D01*
X067220Y008308D01*
X067166Y008294D01*
X067111Y008285D01*
X067056Y008279D01*
X067000Y008277D01*
X067000Y008577D02*
X067038Y008578D01*
X067075Y008583D01*
X067112Y008590D01*
X067148Y008599D01*
X067184Y008612D01*
X067218Y008627D01*
X067218Y009527D02*
X067184Y009542D01*
X067148Y009555D01*
X067112Y009564D01*
X067075Y009571D01*
X067038Y009576D01*
X067000Y009577D01*
D16*
X067900Y009527D02*
X067900Y009927D01*
X067898Y009944D01*
X067894Y009961D01*
X067887Y009977D01*
X067877Y009991D01*
X067864Y010004D01*
X067850Y010014D01*
X067834Y010021D01*
X067817Y010025D01*
X067800Y010027D01*
X063500Y010027D01*
X063483Y010025D01*
X063466Y010021D01*
X063450Y010014D01*
X063436Y010004D01*
X063423Y009991D01*
X063413Y009977D01*
X063406Y009961D01*
X063402Y009944D01*
X063400Y009927D01*
X063400Y009527D01*
X065400Y009327D02*
X065400Y009077D01*
X065400Y008827D01*
X065550Y008827D02*
X065550Y009327D01*
X065750Y009327D01*
X065750Y008827D01*
X065550Y008827D01*
X065900Y008827D02*
X065900Y009077D01*
X065900Y009327D01*
X067900Y008627D02*
X067900Y008227D01*
X067898Y008210D01*
X067894Y008193D01*
X067887Y008177D01*
X067877Y008163D01*
X067864Y008150D01*
X067850Y008140D01*
X067834Y008133D01*
X067817Y008129D01*
X067800Y008127D01*
X063500Y008127D01*
X063483Y008129D01*
X063466Y008133D01*
X063450Y008140D01*
X063436Y008150D01*
X063423Y008163D01*
X063413Y008177D01*
X063406Y008193D01*
X063402Y008210D01*
X063400Y008227D01*
X063400Y008627D01*
D17*
X065897Y009485D02*
X066091Y009485D01*
X065994Y009485D02*
X065994Y009775D01*
X066091Y009678D01*
X066192Y009727D02*
X066192Y009533D01*
X066240Y009485D01*
X066337Y009485D01*
X066385Y009533D01*
X066385Y009727D01*
X066337Y009775D01*
X066240Y009775D01*
X066192Y009727D01*
X066289Y009582D02*
X066192Y009485D01*
D18*
X069371Y005353D02*
X069373Y005400D01*
X069379Y005446D01*
X069389Y005492D01*
X069402Y005537D01*
X069420Y005580D01*
X069441Y005622D01*
X069465Y005662D01*
X069493Y005699D01*
X069524Y005734D01*
X069558Y005767D01*
X069594Y005796D01*
X069633Y005822D01*
X069674Y005845D01*
X069717Y005864D01*
X069761Y005880D01*
X069806Y005892D01*
X069852Y005900D01*
X069899Y005904D01*
X069945Y005904D01*
X069992Y005900D01*
X070038Y005892D01*
X070083Y005880D01*
X070127Y005864D01*
X070170Y005845D01*
X070211Y005822D01*
X070250Y005796D01*
X070286Y005767D01*
X070320Y005734D01*
X070351Y005699D01*
X070379Y005662D01*
X070403Y005622D01*
X070424Y005580D01*
X070442Y005537D01*
X070455Y005492D01*
X070465Y005446D01*
X070471Y005400D01*
X070473Y005353D01*
X070471Y005306D01*
X070465Y005260D01*
X070455Y005214D01*
X070442Y005169D01*
X070424Y005126D01*
X070403Y005084D01*
X070379Y005044D01*
X070351Y005007D01*
X070320Y004972D01*
X070286Y004939D01*
X070250Y004910D01*
X070211Y004884D01*
X070170Y004861D01*
X070127Y004842D01*
X070083Y004826D01*
X070038Y004814D01*
X069992Y004806D01*
X069945Y004802D01*
X069899Y004802D01*
X069852Y004806D01*
X069806Y004814D01*
X069761Y004826D01*
X069717Y004842D01*
X069674Y004861D01*
X069633Y004884D01*
X069594Y004910D01*
X069558Y004939D01*
X069524Y004972D01*
X069493Y005007D01*
X069465Y005044D01*
X069441Y005084D01*
X069420Y005126D01*
X069402Y005169D01*
X069389Y005214D01*
X069379Y005260D01*
X069373Y005306D01*
X069371Y005353D01*
X072437Y005343D02*
X072439Y005390D01*
X072445Y005436D01*
X072455Y005482D01*
X072468Y005527D01*
X072486Y005570D01*
X072507Y005612D01*
X072531Y005652D01*
X072559Y005689D01*
X072590Y005724D01*
X072624Y005757D01*
X072660Y005786D01*
X072699Y005812D01*
X072740Y005835D01*
X072783Y005854D01*
X072827Y005870D01*
X072872Y005882D01*
X072918Y005890D01*
X072965Y005894D01*
X073011Y005894D01*
X073058Y005890D01*
X073104Y005882D01*
X073149Y005870D01*
X073193Y005854D01*
X073236Y005835D01*
X073277Y005812D01*
X073316Y005786D01*
X073352Y005757D01*
X073386Y005724D01*
X073417Y005689D01*
X073445Y005652D01*
X073469Y005612D01*
X073490Y005570D01*
X073508Y005527D01*
X073521Y005482D01*
X073531Y005436D01*
X073537Y005390D01*
X073539Y005343D01*
X073537Y005296D01*
X073531Y005250D01*
X073521Y005204D01*
X073508Y005159D01*
X073490Y005116D01*
X073469Y005074D01*
X073445Y005034D01*
X073417Y004997D01*
X073386Y004962D01*
X073352Y004929D01*
X073316Y004900D01*
X073277Y004874D01*
X073236Y004851D01*
X073193Y004832D01*
X073149Y004816D01*
X073104Y004804D01*
X073058Y004796D01*
X073011Y004792D01*
X072965Y004792D01*
X072918Y004796D01*
X072872Y004804D01*
X072827Y004816D01*
X072783Y004832D01*
X072740Y004851D01*
X072699Y004874D01*
X072660Y004900D01*
X072624Y004929D01*
X072590Y004962D01*
X072559Y004997D01*
X072531Y005034D01*
X072507Y005074D01*
X072486Y005116D01*
X072468Y005159D01*
X072455Y005204D01*
X072445Y005250D01*
X072439Y005296D01*
X072437Y005343D01*
X080680Y007886D02*
X080682Y007933D01*
X080688Y007979D01*
X080698Y008025D01*
X080711Y008070D01*
X080729Y008113D01*
X080750Y008155D01*
X080774Y008195D01*
X080802Y008232D01*
X080833Y008267D01*
X080867Y008300D01*
X080903Y008329D01*
X080942Y008355D01*
X080983Y008378D01*
X081026Y008397D01*
X081070Y008413D01*
X081115Y008425D01*
X081161Y008433D01*
X081208Y008437D01*
X081254Y008437D01*
X081301Y008433D01*
X081347Y008425D01*
X081392Y008413D01*
X081436Y008397D01*
X081479Y008378D01*
X081520Y008355D01*
X081559Y008329D01*
X081595Y008300D01*
X081629Y008267D01*
X081660Y008232D01*
X081688Y008195D01*
X081712Y008155D01*
X081733Y008113D01*
X081751Y008070D01*
X081764Y008025D01*
X081774Y007979D01*
X081780Y007933D01*
X081782Y007886D01*
X081780Y007839D01*
X081774Y007793D01*
X081764Y007747D01*
X081751Y007702D01*
X081733Y007659D01*
X081712Y007617D01*
X081688Y007577D01*
X081660Y007540D01*
X081629Y007505D01*
X081595Y007472D01*
X081559Y007443D01*
X081520Y007417D01*
X081479Y007394D01*
X081436Y007375D01*
X081392Y007359D01*
X081347Y007347D01*
X081301Y007339D01*
X081254Y007335D01*
X081208Y007335D01*
X081161Y007339D01*
X081115Y007347D01*
X081070Y007359D01*
X081026Y007375D01*
X080983Y007394D01*
X080942Y007417D01*
X080903Y007443D01*
X080867Y007472D01*
X080833Y007505D01*
X080802Y007540D01*
X080774Y007577D01*
X080750Y007617D01*
X080729Y007659D01*
X080711Y007702D01*
X080698Y007747D01*
X080688Y007793D01*
X080682Y007839D01*
X080680Y007886D01*
X072437Y016811D02*
X072439Y016858D01*
X072445Y016904D01*
X072455Y016950D01*
X072468Y016995D01*
X072486Y017038D01*
X072507Y017080D01*
X072531Y017120D01*
X072559Y017157D01*
X072590Y017192D01*
X072624Y017225D01*
X072660Y017254D01*
X072699Y017280D01*
X072740Y017303D01*
X072783Y017322D01*
X072827Y017338D01*
X072872Y017350D01*
X072918Y017358D01*
X072965Y017362D01*
X073011Y017362D01*
X073058Y017358D01*
X073104Y017350D01*
X073149Y017338D01*
X073193Y017322D01*
X073236Y017303D01*
X073277Y017280D01*
X073316Y017254D01*
X073352Y017225D01*
X073386Y017192D01*
X073417Y017157D01*
X073445Y017120D01*
X073469Y017080D01*
X073490Y017038D01*
X073508Y016995D01*
X073521Y016950D01*
X073531Y016904D01*
X073537Y016858D01*
X073539Y016811D01*
X073537Y016764D01*
X073531Y016718D01*
X073521Y016672D01*
X073508Y016627D01*
X073490Y016584D01*
X073469Y016542D01*
X073445Y016502D01*
X073417Y016465D01*
X073386Y016430D01*
X073352Y016397D01*
X073316Y016368D01*
X073277Y016342D01*
X073236Y016319D01*
X073193Y016300D01*
X073149Y016284D01*
X073104Y016272D01*
X073058Y016264D01*
X073011Y016260D01*
X072965Y016260D01*
X072918Y016264D01*
X072872Y016272D01*
X072827Y016284D01*
X072783Y016300D01*
X072740Y016319D01*
X072699Y016342D01*
X072660Y016368D01*
X072624Y016397D01*
X072590Y016430D01*
X072559Y016465D01*
X072531Y016502D01*
X072507Y016542D01*
X072486Y016584D01*
X072468Y016627D01*
X072455Y016672D01*
X072445Y016718D01*
X072439Y016764D01*
X072437Y016811D01*
X080524Y019351D02*
X080526Y019398D01*
X080532Y019444D01*
X080542Y019490D01*
X080555Y019535D01*
X080573Y019578D01*
X080594Y019620D01*
X080618Y019660D01*
X080646Y019697D01*
X080677Y019732D01*
X080711Y019765D01*
X080747Y019794D01*
X080786Y019820D01*
X080827Y019843D01*
X080870Y019862D01*
X080914Y019878D01*
X080959Y019890D01*
X081005Y019898D01*
X081052Y019902D01*
X081098Y019902D01*
X081145Y019898D01*
X081191Y019890D01*
X081236Y019878D01*
X081280Y019862D01*
X081323Y019843D01*
X081364Y019820D01*
X081403Y019794D01*
X081439Y019765D01*
X081473Y019732D01*
X081504Y019697D01*
X081532Y019660D01*
X081556Y019620D01*
X081577Y019578D01*
X081595Y019535D01*
X081608Y019490D01*
X081618Y019444D01*
X081624Y019398D01*
X081626Y019351D01*
X081624Y019304D01*
X081618Y019258D01*
X081608Y019212D01*
X081595Y019167D01*
X081577Y019124D01*
X081556Y019082D01*
X081532Y019042D01*
X081504Y019005D01*
X081473Y018970D01*
X081439Y018937D01*
X081403Y018908D01*
X081364Y018882D01*
X081323Y018859D01*
X081280Y018840D01*
X081236Y018824D01*
X081191Y018812D01*
X081145Y018804D01*
X081098Y018800D01*
X081052Y018800D01*
X081005Y018804D01*
X080959Y018812D01*
X080914Y018824D01*
X080870Y018840D01*
X080827Y018859D01*
X080786Y018882D01*
X080747Y018908D01*
X080711Y018937D01*
X080677Y018970D01*
X080646Y019005D01*
X080618Y019042D01*
X080594Y019082D01*
X080573Y019124D01*
X080555Y019167D01*
X080542Y019212D01*
X080532Y019258D01*
X080526Y019304D01*
X080524Y019351D01*
X069449Y024585D02*
X069451Y024632D01*
X069457Y024678D01*
X069467Y024724D01*
X069480Y024769D01*
X069498Y024812D01*
X069519Y024854D01*
X069543Y024894D01*
X069571Y024931D01*
X069602Y024966D01*
X069636Y024999D01*
X069672Y025028D01*
X069711Y025054D01*
X069752Y025077D01*
X069795Y025096D01*
X069839Y025112D01*
X069884Y025124D01*
X069930Y025132D01*
X069977Y025136D01*
X070023Y025136D01*
X070070Y025132D01*
X070116Y025124D01*
X070161Y025112D01*
X070205Y025096D01*
X070248Y025077D01*
X070289Y025054D01*
X070328Y025028D01*
X070364Y024999D01*
X070398Y024966D01*
X070429Y024931D01*
X070457Y024894D01*
X070481Y024854D01*
X070502Y024812D01*
X070520Y024769D01*
X070533Y024724D01*
X070543Y024678D01*
X070549Y024632D01*
X070551Y024585D01*
X070549Y024538D01*
X070543Y024492D01*
X070533Y024446D01*
X070520Y024401D01*
X070502Y024358D01*
X070481Y024316D01*
X070457Y024276D01*
X070429Y024239D01*
X070398Y024204D01*
X070364Y024171D01*
X070328Y024142D01*
X070289Y024116D01*
X070248Y024093D01*
X070205Y024074D01*
X070161Y024058D01*
X070116Y024046D01*
X070070Y024038D01*
X070023Y024034D01*
X069977Y024034D01*
X069930Y024038D01*
X069884Y024046D01*
X069839Y024058D01*
X069795Y024074D01*
X069752Y024093D01*
X069711Y024116D01*
X069672Y024142D01*
X069636Y024171D01*
X069602Y024204D01*
X069571Y024239D01*
X069543Y024276D01*
X069519Y024316D01*
X069498Y024358D01*
X069480Y024401D01*
X069467Y024446D01*
X069457Y024492D01*
X069451Y024538D01*
X069449Y024585D01*
X027429Y023663D02*
X027431Y023713D01*
X027437Y023763D01*
X027447Y023813D01*
X027460Y023861D01*
X027477Y023909D01*
X027498Y023955D01*
X027522Y023999D01*
X027550Y024041D01*
X027581Y024081D01*
X027615Y024118D01*
X027652Y024153D01*
X027691Y024184D01*
X027732Y024213D01*
X027776Y024238D01*
X027822Y024260D01*
X027869Y024278D01*
X027917Y024292D01*
X027966Y024303D01*
X028016Y024310D01*
X028066Y024313D01*
X028117Y024312D01*
X028167Y024307D01*
X028217Y024298D01*
X028265Y024286D01*
X028313Y024269D01*
X028359Y024249D01*
X028404Y024226D01*
X028447Y024199D01*
X028487Y024169D01*
X028525Y024136D01*
X028560Y024100D01*
X028593Y024061D01*
X028622Y024020D01*
X028648Y023977D01*
X028671Y023932D01*
X028690Y023885D01*
X028705Y023837D01*
X028717Y023788D01*
X028725Y023738D01*
X028729Y023688D01*
X028729Y023638D01*
X028725Y023588D01*
X028717Y023538D01*
X028705Y023489D01*
X028690Y023441D01*
X028671Y023394D01*
X028648Y023349D01*
X028622Y023306D01*
X028593Y023265D01*
X028560Y023226D01*
X028525Y023190D01*
X028487Y023157D01*
X028447Y023127D01*
X028404Y023100D01*
X028359Y023077D01*
X028313Y023057D01*
X028265Y023040D01*
X028217Y023028D01*
X028167Y023019D01*
X028117Y023014D01*
X028066Y023013D01*
X028016Y023016D01*
X027966Y023023D01*
X027917Y023034D01*
X027869Y023048D01*
X027822Y023066D01*
X027776Y023088D01*
X027732Y023113D01*
X027691Y023142D01*
X027652Y023173D01*
X027615Y023208D01*
X027581Y023245D01*
X027550Y023285D01*
X027522Y023327D01*
X027498Y023371D01*
X027477Y023417D01*
X027460Y023465D01*
X027447Y023513D01*
X027437Y023563D01*
X027431Y023613D01*
X027429Y023663D01*
X027419Y017677D02*
X027421Y017727D01*
X027427Y017777D01*
X027437Y017827D01*
X027450Y017875D01*
X027467Y017923D01*
X027488Y017969D01*
X027512Y018013D01*
X027540Y018055D01*
X027571Y018095D01*
X027605Y018132D01*
X027642Y018167D01*
X027681Y018198D01*
X027722Y018227D01*
X027766Y018252D01*
X027812Y018274D01*
X027859Y018292D01*
X027907Y018306D01*
X027956Y018317D01*
X028006Y018324D01*
X028056Y018327D01*
X028107Y018326D01*
X028157Y018321D01*
X028207Y018312D01*
X028255Y018300D01*
X028303Y018283D01*
X028349Y018263D01*
X028394Y018240D01*
X028437Y018213D01*
X028477Y018183D01*
X028515Y018150D01*
X028550Y018114D01*
X028583Y018075D01*
X028612Y018034D01*
X028638Y017991D01*
X028661Y017946D01*
X028680Y017899D01*
X028695Y017851D01*
X028707Y017802D01*
X028715Y017752D01*
X028719Y017702D01*
X028719Y017652D01*
X028715Y017602D01*
X028707Y017552D01*
X028695Y017503D01*
X028680Y017455D01*
X028661Y017408D01*
X028638Y017363D01*
X028612Y017320D01*
X028583Y017279D01*
X028550Y017240D01*
X028515Y017204D01*
X028477Y017171D01*
X028437Y017141D01*
X028394Y017114D01*
X028349Y017091D01*
X028303Y017071D01*
X028255Y017054D01*
X028207Y017042D01*
X028157Y017033D01*
X028107Y017028D01*
X028056Y017027D01*
X028006Y017030D01*
X027956Y017037D01*
X027907Y017048D01*
X027859Y017062D01*
X027812Y017080D01*
X027766Y017102D01*
X027722Y017127D01*
X027681Y017156D01*
X027642Y017187D01*
X027605Y017222D01*
X027571Y017259D01*
X027540Y017299D01*
X027512Y017341D01*
X027488Y017385D01*
X027467Y017431D01*
X027450Y017479D01*
X027437Y017527D01*
X027427Y017577D01*
X027421Y017627D01*
X027419Y017677D01*
X027424Y011770D02*
X027426Y011820D01*
X027432Y011870D01*
X027442Y011920D01*
X027455Y011968D01*
X027472Y012016D01*
X027493Y012062D01*
X027517Y012106D01*
X027545Y012148D01*
X027576Y012188D01*
X027610Y012225D01*
X027647Y012260D01*
X027686Y012291D01*
X027727Y012320D01*
X027771Y012345D01*
X027817Y012367D01*
X027864Y012385D01*
X027912Y012399D01*
X027961Y012410D01*
X028011Y012417D01*
X028061Y012420D01*
X028112Y012419D01*
X028162Y012414D01*
X028212Y012405D01*
X028260Y012393D01*
X028308Y012376D01*
X028354Y012356D01*
X028399Y012333D01*
X028442Y012306D01*
X028482Y012276D01*
X028520Y012243D01*
X028555Y012207D01*
X028588Y012168D01*
X028617Y012127D01*
X028643Y012084D01*
X028666Y012039D01*
X028685Y011992D01*
X028700Y011944D01*
X028712Y011895D01*
X028720Y011845D01*
X028724Y011795D01*
X028724Y011745D01*
X028720Y011695D01*
X028712Y011645D01*
X028700Y011596D01*
X028685Y011548D01*
X028666Y011501D01*
X028643Y011456D01*
X028617Y011413D01*
X028588Y011372D01*
X028555Y011333D01*
X028520Y011297D01*
X028482Y011264D01*
X028442Y011234D01*
X028399Y011207D01*
X028354Y011184D01*
X028308Y011164D01*
X028260Y011147D01*
X028212Y011135D01*
X028162Y011126D01*
X028112Y011121D01*
X028061Y011120D01*
X028011Y011123D01*
X027961Y011130D01*
X027912Y011141D01*
X027864Y011155D01*
X027817Y011173D01*
X027771Y011195D01*
X027727Y011220D01*
X027686Y011249D01*
X027647Y011280D01*
X027610Y011315D01*
X027576Y011352D01*
X027545Y011392D01*
X027517Y011434D01*
X027493Y011478D01*
X027472Y011524D01*
X027455Y011572D01*
X027442Y011620D01*
X027432Y011670D01*
X027426Y011720D01*
X027424Y011770D01*
X007700Y007109D02*
X007702Y007138D01*
X007708Y007166D01*
X007717Y007194D01*
X007730Y007220D01*
X007747Y007243D01*
X007766Y007265D01*
X007788Y007284D01*
X007813Y007299D01*
X007839Y007312D01*
X007867Y007320D01*
X007895Y007325D01*
X007924Y007326D01*
X007953Y007323D01*
X007981Y007316D01*
X008008Y007306D01*
X008034Y007292D01*
X008057Y007275D01*
X008078Y007255D01*
X008096Y007232D01*
X008111Y007207D01*
X008122Y007180D01*
X008130Y007152D01*
X008134Y007123D01*
X008134Y007095D01*
X008130Y007066D01*
X008122Y007038D01*
X008111Y007011D01*
X008096Y006986D01*
X008078Y006963D01*
X008057Y006943D01*
X008034Y006926D01*
X008008Y006912D01*
X007981Y006902D01*
X007953Y006895D01*
X007924Y006892D01*
X007895Y006893D01*
X007867Y006898D01*
X007839Y006906D01*
X007813Y006919D01*
X007788Y006934D01*
X007766Y006953D01*
X007747Y006975D01*
X007730Y006998D01*
X007717Y007024D01*
X007708Y007052D01*
X007702Y007080D01*
X007700Y007109D01*
X005928Y007109D02*
X005930Y007138D01*
X005936Y007166D01*
X005945Y007194D01*
X005958Y007220D01*
X005975Y007243D01*
X005994Y007265D01*
X006016Y007284D01*
X006041Y007299D01*
X006067Y007312D01*
X006095Y007320D01*
X006123Y007325D01*
X006152Y007326D01*
X006181Y007323D01*
X006209Y007316D01*
X006236Y007306D01*
X006262Y007292D01*
X006285Y007275D01*
X006306Y007255D01*
X006324Y007232D01*
X006339Y007207D01*
X006350Y007180D01*
X006358Y007152D01*
X006362Y007123D01*
X006362Y007095D01*
X006358Y007066D01*
X006350Y007038D01*
X006339Y007011D01*
X006324Y006986D01*
X006306Y006963D01*
X006285Y006943D01*
X006262Y006926D01*
X006236Y006912D01*
X006209Y006902D01*
X006181Y006895D01*
X006152Y006892D01*
X006123Y006893D01*
X006095Y006898D01*
X006067Y006906D01*
X006041Y006919D01*
X006016Y006934D01*
X005994Y006953D01*
X005975Y006975D01*
X005958Y006998D01*
X005945Y007024D01*
X005936Y007052D01*
X005930Y007080D01*
X005928Y007109D01*
X001256Y005187D02*
X001258Y005234D01*
X001264Y005280D01*
X001274Y005326D01*
X001287Y005371D01*
X001305Y005414D01*
X001326Y005456D01*
X001350Y005496D01*
X001378Y005533D01*
X001409Y005568D01*
X001443Y005601D01*
X001479Y005630D01*
X001518Y005656D01*
X001559Y005679D01*
X001602Y005698D01*
X001646Y005714D01*
X001691Y005726D01*
X001737Y005734D01*
X001784Y005738D01*
X001830Y005738D01*
X001877Y005734D01*
X001923Y005726D01*
X001968Y005714D01*
X002012Y005698D01*
X002055Y005679D01*
X002096Y005656D01*
X002135Y005630D01*
X002171Y005601D01*
X002205Y005568D01*
X002236Y005533D01*
X002264Y005496D01*
X002288Y005456D01*
X002309Y005414D01*
X002327Y005371D01*
X002340Y005326D01*
X002350Y005280D01*
X002356Y005234D01*
X002358Y005187D01*
X002356Y005140D01*
X002350Y005094D01*
X002340Y005048D01*
X002327Y005003D01*
X002309Y004960D01*
X002288Y004918D01*
X002264Y004878D01*
X002236Y004841D01*
X002205Y004806D01*
X002171Y004773D01*
X002135Y004744D01*
X002096Y004718D01*
X002055Y004695D01*
X002012Y004676D01*
X001968Y004660D01*
X001923Y004648D01*
X001877Y004640D01*
X001830Y004636D01*
X001784Y004636D01*
X001737Y004640D01*
X001691Y004648D01*
X001646Y004660D01*
X001602Y004676D01*
X001559Y004695D01*
X001518Y004718D01*
X001479Y004744D01*
X001443Y004773D01*
X001409Y004806D01*
X001378Y004841D01*
X001350Y004878D01*
X001326Y004918D01*
X001305Y004960D01*
X001287Y005003D01*
X001274Y005048D01*
X001264Y005094D01*
X001258Y005140D01*
X001256Y005187D01*
X001419Y024621D02*
X001421Y024668D01*
X001427Y024714D01*
X001437Y024760D01*
X001450Y024805D01*
X001468Y024848D01*
X001489Y024890D01*
X001513Y024930D01*
X001541Y024967D01*
X001572Y025002D01*
X001606Y025035D01*
X001642Y025064D01*
X001681Y025090D01*
X001722Y025113D01*
X001765Y025132D01*
X001809Y025148D01*
X001854Y025160D01*
X001900Y025168D01*
X001947Y025172D01*
X001993Y025172D01*
X002040Y025168D01*
X002086Y025160D01*
X002131Y025148D01*
X002175Y025132D01*
X002218Y025113D01*
X002259Y025090D01*
X002298Y025064D01*
X002334Y025035D01*
X002368Y025002D01*
X002399Y024967D01*
X002427Y024930D01*
X002451Y024890D01*
X002472Y024848D01*
X002490Y024805D01*
X002503Y024760D01*
X002513Y024714D01*
X002519Y024668D01*
X002521Y024621D01*
X002519Y024574D01*
X002513Y024528D01*
X002503Y024482D01*
X002490Y024437D01*
X002472Y024394D01*
X002451Y024352D01*
X002427Y024312D01*
X002399Y024275D01*
X002368Y024240D01*
X002334Y024207D01*
X002298Y024178D01*
X002259Y024152D01*
X002218Y024129D01*
X002175Y024110D01*
X002131Y024094D01*
X002086Y024082D01*
X002040Y024074D01*
X001993Y024070D01*
X001947Y024070D01*
X001900Y024074D01*
X001854Y024082D01*
X001809Y024094D01*
X001765Y024110D01*
X001722Y024129D01*
X001681Y024152D01*
X001642Y024178D01*
X001606Y024207D01*
X001572Y024240D01*
X001541Y024275D01*
X001513Y024312D01*
X001489Y024352D01*
X001468Y024394D01*
X001450Y024437D01*
X001437Y024482D01*
X001427Y024528D01*
X001421Y024574D01*
X001419Y024621D01*
M02*
