G75*
G70*
%OFA0B0*%
%FSLAX24Y24*%
%IPPOS*%
%LPD*%
%AMOC8*
5,1,8,0,0,1.08239X$1,22.5*
%
%ADD10C,0.0100*%
%ADD11C,0.0130*%
%ADD12C,0.0050*%
%ADD13C,0.0060*%
%ADD14C,0.0030*%
%ADD15C,0.0080*%
%ADD16C,0.0020*%
%ADD17R,0.0492X0.0236*%
%ADD18C,0.0031*%
%ADD19C,0.0027*%
D10*
X002104Y000150D02*
X002104Y015551D01*
X002111Y015558D02*
X003267Y016714D01*
X003262Y016707D02*
X003275Y016720D01*
X022274Y016720D01*
X022284Y016713D02*
X023235Y015762D01*
X023235Y011317D01*
X025235Y009317D01*
X025235Y000168D01*
X025240Y000150D02*
X002104Y000150D01*
D11*
X016707Y009543D02*
X016829Y009421D01*
X017073Y009421D01*
X017194Y009543D01*
X017499Y009421D02*
X017499Y010151D01*
X017194Y010030D02*
X017194Y009908D01*
X017073Y009786D01*
X016829Y009786D01*
X016707Y009664D01*
X016707Y009543D01*
X016707Y010030D02*
X016829Y010151D01*
X017073Y010151D01*
X017194Y010030D01*
X017499Y009786D02*
X017986Y009786D01*
X018291Y009786D02*
X018291Y009543D01*
X018413Y009421D01*
X018656Y009421D01*
X018778Y009543D01*
X018778Y009786D01*
X018656Y009908D01*
X018413Y009908D01*
X018291Y009786D01*
X017986Y009421D02*
X017986Y010151D01*
X019083Y010030D02*
X019083Y009786D01*
X019205Y009664D01*
X019570Y009664D01*
X019326Y009664D02*
X019083Y009421D01*
X019570Y009421D02*
X019570Y010151D01*
X019205Y010151D01*
X019083Y010030D01*
D12*
X019261Y009184D02*
X019351Y009184D01*
X019396Y009139D01*
X019396Y008959D01*
X019351Y008914D01*
X019261Y008914D01*
X019216Y008959D01*
X019101Y008959D02*
X019056Y008914D01*
X018966Y008914D01*
X018921Y008959D01*
X018921Y009049D01*
X018966Y009094D01*
X019056Y009094D01*
X019101Y009049D01*
X019101Y008959D01*
X019216Y009139D02*
X019261Y009184D01*
X018807Y009094D02*
X018762Y009094D01*
X018717Y009049D01*
X018672Y009094D01*
X018626Y009049D01*
X018626Y008914D01*
X018717Y008914D02*
X018717Y009049D01*
X018807Y009094D02*
X018807Y008914D01*
X018786Y008633D02*
X018786Y006133D01*
X017786Y006133D01*
X017786Y008633D01*
X018786Y008633D01*
X019786Y008633D01*
X019786Y006133D01*
X018786Y006133D01*
X017786Y006133D02*
X016786Y006133D01*
X016786Y008633D01*
X017786Y008633D01*
X017779Y008914D02*
X017644Y008914D01*
X017644Y009049D01*
X017689Y009094D01*
X017779Y009094D01*
X017779Y009004D02*
X017644Y009004D01*
X017779Y009004D02*
X017824Y008959D01*
X017779Y008914D01*
X017931Y008914D02*
X018021Y008914D01*
X017976Y008914D02*
X017976Y009094D01*
X018021Y009094D01*
X017976Y009184D02*
X017976Y009229D01*
X018172Y009184D02*
X018172Y008914D01*
X018217Y008914D02*
X018127Y008914D01*
X018332Y008959D02*
X018377Y008914D01*
X018512Y008914D01*
X018512Y008823D02*
X018512Y009094D01*
X018377Y009094D01*
X018332Y009049D01*
X018332Y008959D01*
X018217Y009184D02*
X018172Y009184D01*
X017530Y009094D02*
X017530Y008914D01*
X017530Y009094D02*
X017395Y009094D01*
X017350Y009049D01*
X017350Y008914D01*
X017190Y008959D02*
X017145Y008914D01*
X017190Y008959D02*
X017190Y009139D01*
X017235Y009094D02*
X017145Y009094D01*
X016786Y008633D02*
X015786Y008633D01*
X015786Y006133D01*
X014786Y006133D01*
X014786Y008633D01*
X015786Y008633D01*
X014786Y008633D02*
X013786Y008633D01*
X013786Y006133D01*
X012786Y006133D01*
X012786Y008633D01*
X013786Y008633D01*
X012786Y008633D02*
X011786Y008633D01*
X011786Y006133D01*
X010786Y006133D01*
X010786Y008633D01*
X011786Y008633D01*
X010786Y008633D02*
X009786Y008633D01*
X009786Y006133D01*
X008786Y006133D01*
X008786Y008633D01*
X009786Y008633D01*
X008786Y008633D02*
X007786Y008633D01*
X007786Y006133D01*
X006786Y006133D01*
X006786Y008633D01*
X007786Y008633D01*
X006786Y008633D02*
X005786Y008633D01*
X005786Y006133D01*
X004786Y006133D01*
X004786Y008633D01*
X005786Y008633D01*
X004786Y008633D02*
X003786Y008633D01*
X003786Y006133D01*
X004786Y006133D01*
X005786Y006133D02*
X006786Y006133D01*
X007786Y006133D02*
X008786Y006133D01*
X009786Y006133D02*
X010786Y006133D01*
X011786Y006133D02*
X012786Y006133D01*
X013786Y006133D02*
X014786Y006133D01*
X015786Y006133D02*
X016786Y006133D01*
X019786Y006133D02*
X020786Y006133D01*
X020786Y008633D01*
X021786Y008633D01*
X021786Y006133D01*
X020786Y006133D01*
X021786Y006133D02*
X022786Y006133D01*
X022786Y008633D01*
X023786Y008633D01*
X023786Y006133D01*
X022786Y006133D01*
X023788Y007361D02*
X023795Y007367D01*
X023788Y007361D02*
X003777Y007361D01*
X012422Y004647D02*
X012422Y004557D01*
X012467Y004512D01*
X012512Y004512D01*
X012557Y004557D01*
X012557Y004647D01*
X012512Y004692D01*
X012467Y004692D01*
X012422Y004647D01*
X012557Y004647D02*
X012602Y004692D01*
X012647Y004692D01*
X012692Y004647D01*
X012692Y004557D01*
X012647Y004512D01*
X012602Y004512D01*
X012557Y004557D01*
X012647Y004397D02*
X012692Y004352D01*
X012692Y004262D01*
X012647Y004217D01*
X012467Y004217D01*
X012422Y004262D01*
X012422Y004352D01*
X012467Y004397D01*
X019786Y008633D02*
X020786Y008633D01*
X021786Y008633D02*
X022786Y008633D01*
X020140Y004737D02*
X019960Y004737D01*
X019915Y004692D01*
X019915Y004602D01*
X019960Y004557D01*
X020050Y004602D02*
X020050Y004737D01*
X020140Y004737D02*
X020185Y004692D01*
X020185Y004602D01*
X020140Y004557D01*
X020095Y004557D01*
X020050Y004602D01*
X019960Y004442D02*
X019915Y004397D01*
X019915Y004307D01*
X019960Y004262D01*
X020140Y004262D01*
X020185Y004307D01*
X020185Y004397D01*
X020140Y004442D01*
X007669Y015013D02*
X007623Y015013D01*
X007578Y015058D01*
X007578Y015283D01*
X007714Y015283D01*
X007759Y015238D01*
X007759Y015148D01*
X007714Y015103D01*
X007578Y015103D01*
X007464Y015103D02*
X007464Y015283D01*
X007329Y015283D01*
X007284Y015238D01*
X007284Y015103D01*
X007169Y015148D02*
X007169Y015238D01*
X007124Y015283D01*
X007034Y015283D01*
X006989Y015238D01*
X006989Y015193D01*
X007169Y015193D01*
X007169Y015148D02*
X007124Y015103D01*
X007034Y015103D01*
X006875Y015148D02*
X006875Y015238D01*
X006830Y015283D01*
X006694Y015283D01*
X006694Y015373D02*
X006694Y015103D01*
X006830Y015103D01*
X006875Y015148D01*
X006285Y015103D02*
X006285Y015373D01*
X006150Y015373D01*
X006105Y015328D01*
X006105Y015283D01*
X006150Y015238D01*
X006285Y015238D01*
X006150Y015238D02*
X006105Y015193D01*
X006105Y015148D01*
X006150Y015103D01*
X006285Y015103D01*
X005991Y015148D02*
X005991Y015283D01*
X005991Y015148D02*
X005946Y015103D01*
X005811Y015103D01*
X005811Y015058D02*
X005856Y015013D01*
X005901Y015013D01*
X005811Y015058D02*
X005811Y015283D01*
X007865Y015103D02*
X007955Y015103D01*
X007910Y015103D02*
X007910Y015283D01*
X007955Y015283D01*
X007910Y015373D02*
X007910Y015418D01*
X008070Y015283D02*
X008205Y015283D01*
X008250Y015238D01*
X008205Y015193D01*
X008115Y015193D01*
X008070Y015148D01*
X008115Y015103D01*
X008250Y015103D01*
X008364Y015193D02*
X008544Y015193D01*
X008544Y015148D02*
X008544Y015238D01*
X008499Y015283D01*
X008409Y015283D01*
X008364Y015238D01*
X008364Y015193D01*
X008409Y015103D02*
X008499Y015103D01*
X008544Y015148D01*
X008659Y015148D02*
X008659Y015328D01*
X008704Y015373D01*
X008839Y015373D01*
X008839Y015103D01*
X008704Y015103D01*
X008659Y015148D01*
D13*
X008582Y014701D02*
X008582Y014360D01*
X008441Y014417D02*
X008441Y014530D01*
X008384Y014587D01*
X008271Y014587D01*
X008214Y014530D01*
X008214Y014417D01*
X008271Y014360D01*
X008384Y014360D01*
X008441Y014417D01*
X008582Y014530D02*
X008809Y014530D01*
X008809Y014360D02*
X008809Y014701D01*
X008072Y014587D02*
X008072Y014360D01*
X007846Y014360D02*
X007846Y014530D01*
X007902Y014587D01*
X008072Y014587D01*
X007704Y014530D02*
X007704Y014417D01*
X007647Y014360D01*
X007534Y014360D01*
X007477Y014474D02*
X007704Y014474D01*
X007704Y014530D02*
X007647Y014587D01*
X007534Y014587D01*
X007477Y014530D01*
X007477Y014474D01*
X007336Y014417D02*
X007336Y014587D01*
X007336Y014417D02*
X007279Y014360D01*
X007109Y014360D01*
X007109Y014304D02*
X007166Y014247D01*
X007222Y014247D01*
X007109Y014304D02*
X007109Y014587D01*
X006599Y014530D02*
X006429Y014530D01*
X006372Y014474D01*
X006372Y014417D01*
X006429Y014360D01*
X006599Y014360D01*
X006599Y014701D01*
X006429Y014701D01*
X006372Y014644D01*
X006372Y014587D01*
X006429Y014530D01*
X006231Y014530D02*
X006174Y014587D01*
X006061Y014587D01*
X006004Y014530D01*
X006004Y014474D01*
X006231Y014474D01*
X006231Y014530D02*
X006231Y014417D01*
X006174Y014360D01*
X006061Y014360D01*
X005863Y014417D02*
X005863Y014530D01*
X005806Y014587D01*
X005692Y014587D01*
X005636Y014530D01*
X005636Y014474D01*
X005863Y014474D01*
X005863Y014417D02*
X005806Y014360D01*
X005692Y014360D01*
X005494Y014360D02*
X005324Y014360D01*
X005267Y014417D01*
X005324Y014474D01*
X005438Y014474D01*
X005494Y014530D01*
X005438Y014587D01*
X005267Y014587D01*
X005448Y010247D02*
X005448Y009987D01*
X005534Y009987D02*
X005361Y009987D01*
X005534Y010160D02*
X005448Y010247D01*
X005656Y010204D02*
X005699Y010247D01*
X005786Y010247D01*
X005829Y010204D01*
X005829Y010030D01*
X005786Y009987D01*
X005699Y009987D01*
X005656Y010030D01*
X005939Y009987D02*
X006025Y009987D01*
X005982Y009987D02*
X005982Y010247D01*
X006025Y010247D02*
X005939Y010247D01*
X014648Y005772D02*
X014648Y005372D01*
X014648Y005772D02*
X014650Y005789D01*
X014654Y005806D01*
X014661Y005822D01*
X014671Y005836D01*
X014684Y005849D01*
X014698Y005859D01*
X014714Y005866D01*
X014731Y005870D01*
X014748Y005872D01*
X019048Y005872D01*
X019065Y005870D01*
X019082Y005866D01*
X019098Y005859D01*
X019112Y005849D01*
X019125Y005836D01*
X019135Y005822D01*
X019142Y005806D01*
X019146Y005789D01*
X019148Y005772D01*
X019148Y005372D01*
X019148Y004472D02*
X019148Y004072D01*
X019146Y004055D01*
X019142Y004038D01*
X019135Y004022D01*
X019125Y004008D01*
X019112Y003995D01*
X019098Y003985D01*
X019082Y003978D01*
X019065Y003974D01*
X019048Y003972D01*
X014748Y003972D01*
X014731Y003974D01*
X014714Y003978D01*
X014698Y003985D01*
X014684Y003995D01*
X014671Y004008D01*
X014661Y004022D01*
X014654Y004038D01*
X014650Y004055D01*
X014648Y004072D01*
X014648Y004472D01*
X016648Y004672D02*
X016648Y004922D01*
X016648Y005172D01*
X016798Y005172D02*
X016998Y005172D01*
X016998Y004672D01*
X016798Y004672D01*
X016798Y005172D01*
X017148Y005172D02*
X017148Y004922D01*
X017148Y004672D01*
D14*
X017145Y005330D02*
X017338Y005330D01*
X017242Y005330D02*
X017242Y005620D01*
X017338Y005523D01*
X017440Y005572D02*
X017440Y005378D01*
X017488Y005330D01*
X017585Y005330D01*
X017633Y005378D01*
X017633Y005572D01*
X017585Y005620D01*
X017488Y005620D01*
X017440Y005572D01*
X017536Y005426D02*
X017440Y005330D01*
X017104Y006366D02*
X017065Y006365D01*
X016983Y006441D01*
X016982Y006480D01*
X017039Y006541D01*
X017161Y006427D01*
X017104Y006366D01*
X017188Y006497D02*
X017228Y006499D01*
X017265Y006539D01*
X017264Y006579D01*
X017204Y006596D02*
X017166Y006556D01*
X017168Y006516D01*
X017188Y006497D01*
X017204Y006596D02*
X017203Y006636D01*
X017183Y006655D01*
X017143Y006653D01*
X017105Y006613D01*
X017107Y006573D01*
X017353Y006592D02*
X017428Y006673D01*
X017435Y006762D02*
X017354Y006838D01*
X017353Y006878D01*
X017410Y006939D01*
X017532Y006825D01*
X017475Y006764D01*
X017435Y006762D01*
X017576Y006873D02*
X017614Y006913D01*
X017595Y006893D02*
X017473Y007007D01*
X017492Y007027D02*
X017454Y006986D01*
X017085Y007566D02*
X017046Y007564D01*
X017085Y007566D02*
X017123Y007606D01*
X017122Y007646D01*
X017040Y007722D01*
X017001Y007720D01*
X016963Y007680D01*
X016965Y007640D01*
X017088Y007773D02*
X017087Y007812D01*
X017125Y007853D01*
X017164Y007854D01*
X017184Y007835D01*
X017186Y007796D01*
X017148Y007755D01*
X017149Y007716D01*
X017170Y007697D01*
X017209Y007698D01*
X017247Y007739D01*
X017246Y007778D01*
X017334Y007791D02*
X017410Y007873D01*
X017417Y007962D02*
X017335Y008038D01*
X017334Y008077D01*
X017391Y008138D01*
X017513Y008024D01*
X017456Y007963D01*
X017417Y007962D01*
X017558Y008072D02*
X017596Y008113D01*
X017577Y008092D02*
X017454Y008206D01*
X017435Y008186D02*
X017473Y008227D01*
X018088Y007883D02*
X018145Y007944D01*
X018267Y007830D01*
X018210Y007769D01*
X018171Y007767D01*
X018089Y007843D01*
X018088Y007883D01*
X018193Y007995D02*
X018315Y007881D01*
X018269Y008076D01*
X018391Y007962D01*
X018418Y008033D02*
X018377Y008071D01*
X018415Y008111D01*
X018337Y008109D02*
X018335Y008148D01*
X018373Y008189D01*
X018413Y008190D01*
X018494Y008114D01*
X018495Y008075D01*
X018457Y008034D01*
X018418Y008033D01*
X018915Y007609D02*
X018953Y007649D01*
X018992Y007651D01*
X018915Y007609D02*
X018916Y007569D01*
X018936Y007550D01*
X019094Y007556D01*
X019018Y007474D01*
X019141Y007607D02*
X019217Y007688D01*
X019179Y007648D02*
X019057Y007762D01*
X019136Y007764D01*
X019163Y007834D02*
X019162Y007874D01*
X019200Y007914D01*
X019239Y007916D01*
X019321Y007840D01*
X019322Y007801D01*
X019284Y007760D01*
X019245Y007758D01*
X019163Y007834D01*
X019263Y007982D02*
X019301Y008023D01*
X019282Y008003D02*
X019404Y007889D01*
X019423Y007909D02*
X019385Y007869D01*
X019410Y008017D02*
X019449Y008019D01*
X019506Y008080D01*
X019547Y008042D02*
X019425Y008156D01*
X019368Y008095D01*
X019369Y008055D01*
X019410Y008017D01*
X019534Y008150D02*
X019572Y008191D01*
X019534Y008150D02*
X019574Y008112D01*
X019614Y008113D01*
X019652Y008154D01*
X019650Y008193D01*
X019569Y008269D01*
X019529Y008268D01*
X019491Y008227D01*
X019493Y008188D01*
X020057Y007923D02*
X020114Y007984D01*
X020237Y007870D01*
X020180Y007809D01*
X020140Y007808D01*
X020059Y007884D01*
X020057Y007923D01*
X020162Y008035D02*
X020284Y007921D01*
X020238Y008116D01*
X020360Y008003D01*
X020387Y008073D02*
X020347Y008111D01*
X020385Y008151D01*
X020387Y008073D02*
X020427Y008074D01*
X020465Y008115D01*
X020463Y008154D01*
X020382Y008230D01*
X020343Y008229D01*
X020305Y008188D01*
X020306Y008149D01*
X021040Y007736D02*
X021162Y007622D01*
X021200Y007663D02*
X021124Y007581D01*
X021056Y007549D02*
X021058Y007510D01*
X021020Y007469D01*
X020980Y007468D01*
X020960Y007487D01*
X020958Y007526D01*
X021015Y007587D01*
X021056Y007549D01*
X021015Y007587D02*
X020937Y007584D01*
X020878Y007563D01*
X021040Y007736D02*
X021119Y007739D01*
X021146Y007809D02*
X021227Y007733D01*
X021267Y007734D01*
X021305Y007775D01*
X021303Y007814D01*
X021222Y007890D01*
X021183Y007889D01*
X021145Y007848D01*
X021146Y007809D01*
X021246Y007957D02*
X021284Y007998D01*
X021265Y007977D02*
X021387Y007863D01*
X021368Y007843D02*
X021406Y007884D01*
X021393Y007992D02*
X021352Y008030D01*
X021351Y008069D01*
X021408Y008130D01*
X021530Y008016D01*
X021489Y008054D02*
X021432Y007993D01*
X021393Y007992D01*
X021516Y008124D02*
X021557Y008086D01*
X021596Y008088D01*
X021634Y008128D01*
X021633Y008168D01*
X021552Y008244D01*
X021512Y008242D01*
X021474Y008202D01*
X021476Y008162D01*
X021516Y008124D02*
X021554Y008165D01*
X022014Y007729D02*
X022052Y007770D01*
X022091Y007771D01*
X022139Y007822D02*
X022137Y007862D01*
X022175Y007902D01*
X022215Y007904D01*
X022296Y007828D01*
X022298Y007789D01*
X022260Y007748D01*
X022220Y007746D01*
X022139Y007822D01*
X022193Y007676D02*
X022036Y007671D01*
X022015Y007690D01*
X022014Y007729D01*
X021968Y007639D02*
X021928Y007637D01*
X021890Y007597D01*
X021892Y007557D01*
X022049Y007563D01*
X022050Y007523D01*
X022012Y007483D01*
X021973Y007481D01*
X021892Y007557D01*
X021968Y007639D02*
X022049Y007563D01*
X022117Y007595D02*
X022193Y007676D01*
X022361Y007857D02*
X022399Y007897D01*
X022380Y007877D02*
X022258Y007991D01*
X022277Y008011D02*
X022239Y007970D01*
X022345Y008043D02*
X022386Y008005D01*
X022425Y008007D01*
X022482Y008068D01*
X022523Y008030D02*
X022400Y008144D01*
X022343Y008083D01*
X022345Y008043D01*
X022468Y008176D02*
X022467Y008215D01*
X022505Y008256D01*
X022544Y008257D01*
X022626Y008181D01*
X022627Y008142D01*
X022589Y008101D01*
X022550Y008100D01*
X022509Y008138D01*
X022547Y008179D01*
X023061Y007743D02*
X023099Y007783D01*
X023138Y007785D01*
X023186Y007836D02*
X023267Y007760D01*
X023307Y007761D01*
X023345Y007802D01*
X023343Y007841D01*
X023262Y007917D01*
X023223Y007916D01*
X023185Y007875D01*
X023186Y007836D01*
X023240Y007690D02*
X023083Y007684D01*
X023062Y007703D01*
X023061Y007743D01*
X023035Y007633D02*
X022956Y007631D01*
X023079Y007517D01*
X023117Y007557D02*
X023041Y007476D01*
X023164Y007608D02*
X023240Y007690D01*
X023408Y007870D02*
X023446Y007911D01*
X023427Y007890D02*
X023305Y008004D01*
X023286Y007984D02*
X023324Y008025D01*
X023392Y008057D02*
X023433Y008019D01*
X023472Y008020D01*
X023529Y008081D01*
X023570Y008043D02*
X023448Y008157D01*
X023391Y008096D01*
X023392Y008057D01*
X023516Y008189D02*
X023514Y008229D01*
X023552Y008270D01*
X023592Y008271D01*
X023673Y008195D01*
X023674Y008156D01*
X023636Y008115D01*
X023597Y008114D01*
X023556Y008151D01*
X023594Y008192D01*
X022561Y007104D02*
X022642Y007028D01*
X022644Y006989D01*
X022606Y006948D01*
X022567Y006946D01*
X022526Y006984D01*
X022564Y007025D01*
X022561Y007104D02*
X022522Y007102D01*
X022484Y007062D01*
X022485Y007022D01*
X022417Y006990D02*
X022360Y006929D01*
X022362Y006890D01*
X022402Y006852D01*
X022442Y006853D01*
X022499Y006914D01*
X022539Y006876D02*
X022417Y006990D01*
X022293Y006858D02*
X022256Y006817D01*
X022275Y006837D02*
X022397Y006723D01*
X022378Y006703D02*
X022416Y006744D01*
X022313Y006674D02*
X022231Y006750D01*
X022192Y006749D01*
X022154Y006708D01*
X022156Y006669D01*
X022237Y006593D01*
X022276Y006594D01*
X022314Y006635D01*
X022313Y006674D01*
X022210Y006523D02*
X022052Y006517D01*
X022032Y006536D01*
X022031Y006576D01*
X022068Y006616D01*
X022108Y006618D01*
X022210Y006523D02*
X022134Y006441D01*
X022066Y006409D02*
X022025Y006447D01*
X021968Y006386D01*
X021969Y006347D01*
X021990Y006328D01*
X022029Y006329D01*
X022067Y006370D01*
X022066Y006409D01*
X022025Y006447D02*
X021946Y006444D01*
X021888Y006423D01*
X021464Y006720D02*
X021426Y006679D01*
X021445Y006699D02*
X021322Y006813D01*
X021303Y006793D02*
X021341Y006834D01*
X021409Y006866D02*
X021450Y006828D01*
X021489Y006829D01*
X021546Y006890D01*
X021587Y006852D02*
X021465Y006966D01*
X021408Y006905D01*
X021409Y006866D01*
X021533Y006998D02*
X021532Y007038D01*
X021570Y007078D01*
X021609Y007080D01*
X021690Y007004D01*
X021692Y006965D01*
X021654Y006924D01*
X021614Y006923D01*
X021574Y006960D01*
X021612Y007001D01*
X021361Y006650D02*
X021362Y006611D01*
X021324Y006570D01*
X021285Y006569D01*
X021203Y006645D01*
X021202Y006684D01*
X021240Y006725D01*
X021279Y006726D01*
X021361Y006650D01*
X021257Y006499D02*
X021182Y006417D01*
X021220Y006458D02*
X021097Y006572D01*
X021176Y006575D01*
X021052Y006442D02*
X021054Y006403D01*
X020997Y006342D01*
X020956Y006380D02*
X020955Y006419D01*
X020993Y006460D01*
X021032Y006461D01*
X021052Y006442D01*
X021114Y006385D02*
X021115Y006346D01*
X021077Y006305D01*
X021038Y006304D01*
X020956Y006380D01*
X020421Y006709D02*
X020383Y006668D01*
X020402Y006689D02*
X020280Y006803D01*
X020299Y006823D02*
X020261Y006782D01*
X020237Y006716D02*
X020318Y006640D01*
X020319Y006600D01*
X020281Y006560D01*
X020242Y006558D01*
X020161Y006634D01*
X020159Y006674D01*
X020197Y006714D01*
X020237Y006716D01*
X020133Y006564D02*
X020055Y006561D01*
X020177Y006447D01*
X020215Y006488D02*
X020139Y006407D01*
X020071Y006375D02*
X020072Y006335D01*
X020034Y006295D01*
X019995Y006293D01*
X019974Y006312D01*
X019973Y006352D01*
X019992Y006372D01*
X019973Y006352D02*
X019934Y006350D01*
X019913Y006369D01*
X019912Y006408D01*
X019950Y006449D01*
X019989Y006451D01*
X020367Y006855D02*
X020407Y006817D01*
X020447Y006819D01*
X020504Y006880D01*
X020544Y006842D02*
X020422Y006956D01*
X020365Y006895D01*
X020367Y006855D01*
X020490Y006988D02*
X020489Y007027D01*
X020527Y007068D01*
X020566Y007069D01*
X020648Y006993D01*
X020649Y006954D01*
X020611Y006913D01*
X020572Y006912D01*
X020531Y006950D01*
X020569Y006990D01*
X019582Y006901D02*
X019584Y006861D01*
X019546Y006820D01*
X019506Y006819D01*
X019466Y006857D01*
X019504Y006898D01*
X019501Y006976D02*
X019582Y006901D01*
X019501Y006976D02*
X019461Y006975D01*
X019423Y006934D01*
X019425Y006895D01*
X019357Y006863D02*
X019300Y006802D01*
X019301Y006762D01*
X019342Y006724D01*
X019381Y006726D01*
X019438Y006787D01*
X019479Y006749D02*
X019357Y006863D01*
X019233Y006730D02*
X019195Y006690D01*
X019214Y006710D02*
X019336Y006596D01*
X019355Y006616D02*
X019317Y006576D01*
X019253Y006547D02*
X019171Y006623D01*
X019132Y006622D01*
X019094Y006581D01*
X019095Y006542D01*
X019177Y006466D01*
X019216Y006467D01*
X019254Y006508D01*
X019253Y006547D01*
X019129Y006414D02*
X019130Y006375D01*
X019092Y006334D01*
X019053Y006333D01*
X019033Y006352D01*
X019031Y006391D01*
X019088Y006452D01*
X019129Y006414D01*
X019088Y006452D02*
X019010Y006450D01*
X018951Y006428D01*
X018538Y006767D02*
X018416Y006881D01*
X018359Y006820D01*
X018360Y006781D01*
X018401Y006743D01*
X018440Y006744D01*
X018497Y006805D01*
X018565Y006837D02*
X018524Y006875D01*
X018562Y006916D01*
X018484Y006913D02*
X018482Y006953D01*
X018520Y006993D01*
X018560Y006995D01*
X018641Y006919D01*
X018642Y006879D01*
X018604Y006839D01*
X018565Y006837D01*
X018414Y006635D02*
X018376Y006594D01*
X018395Y006614D02*
X018273Y006728D01*
X018292Y006748D02*
X018254Y006708D01*
X018230Y006641D02*
X018311Y006565D01*
X018313Y006526D01*
X018275Y006485D01*
X018235Y006484D01*
X018154Y006560D01*
X018153Y006599D01*
X018191Y006640D01*
X018230Y006641D01*
X018086Y006528D02*
X018010Y006446D01*
X018070Y006428D02*
X018071Y006389D01*
X018112Y006351D01*
X018151Y006353D01*
X018189Y006393D01*
X018188Y006433D01*
X018147Y006471D02*
X018089Y006449D01*
X018070Y006428D01*
X018147Y006471D02*
X018086Y006528D01*
X016456Y006855D02*
X016418Y006814D01*
X016379Y006813D01*
X016338Y006851D01*
X016376Y006891D01*
X016298Y006889D02*
X016296Y006928D01*
X016334Y006969D01*
X016374Y006970D01*
X016455Y006894D01*
X016456Y006855D01*
X016352Y006743D02*
X016230Y006856D01*
X016276Y006661D01*
X016154Y006775D01*
X016106Y006724D02*
X016049Y006663D01*
X016050Y006623D01*
X016132Y006548D01*
X016171Y006549D01*
X016228Y006610D01*
X016106Y006724D01*
X015772Y007069D02*
X015733Y007030D01*
X015693Y007030D01*
X015654Y007069D01*
X015693Y007108D01*
X015615Y007108D02*
X015615Y007148D01*
X015654Y007187D01*
X015693Y007187D01*
X015772Y007108D01*
X015772Y007069D01*
X015664Y006960D02*
X015545Y007079D01*
X015486Y007019D01*
X015486Y006980D01*
X015526Y006941D01*
X015565Y006941D01*
X015624Y007000D01*
X015457Y006911D02*
X015378Y006911D01*
X015496Y006793D01*
X015535Y006832D02*
X015457Y006754D01*
X015407Y006704D02*
X015328Y006625D01*
X015368Y006665D02*
X015250Y006783D01*
X015328Y006783D01*
X015279Y006576D02*
X015082Y006615D01*
X015052Y006546D02*
X015131Y006467D01*
X015131Y006428D01*
X015092Y006389D01*
X015052Y006389D01*
X014983Y006359D02*
X014826Y006359D01*
X014905Y006438D02*
X015023Y006320D01*
X014944Y006359D02*
X014944Y006241D01*
X014974Y006467D02*
X014974Y006507D01*
X015013Y006546D01*
X015052Y006546D01*
X014672Y006908D02*
X014632Y006908D01*
X014593Y006948D01*
X014632Y006987D01*
X014554Y006987D02*
X014554Y007026D01*
X014593Y007066D01*
X014632Y007066D01*
X014711Y006987D01*
X014711Y006948D01*
X014672Y006908D01*
X014603Y006839D02*
X014485Y006957D01*
X014426Y006898D01*
X014426Y006859D01*
X014465Y006819D01*
X014504Y006819D01*
X014563Y006878D01*
X014455Y006731D02*
X014455Y006691D01*
X014415Y006652D01*
X014376Y006652D01*
X014297Y006731D01*
X014297Y006770D01*
X014337Y006809D01*
X014376Y006809D01*
X014396Y006790D01*
X014396Y006750D01*
X014337Y006691D01*
X014346Y006583D02*
X014150Y006622D01*
X014100Y006573D02*
X014100Y006494D01*
X014021Y006494D01*
X014139Y006376D01*
X014090Y006326D02*
X014051Y006287D01*
X014070Y006307D02*
X013952Y006425D01*
X013972Y006444D02*
X013933Y006405D01*
X014100Y006573D02*
X014218Y006455D01*
X013719Y007005D02*
X013680Y007005D01*
X013640Y007045D01*
X013680Y007084D01*
X013758Y007084D02*
X013758Y007045D01*
X013719Y007005D01*
X013758Y007084D02*
X013680Y007163D01*
X013640Y007163D01*
X013601Y007123D01*
X013601Y007084D01*
X013532Y007054D02*
X013473Y006995D01*
X013473Y006956D01*
X013512Y006917D01*
X013551Y006917D01*
X013611Y006976D01*
X013650Y006936D02*
X013532Y007054D01*
X013443Y006887D02*
X013364Y006887D01*
X013482Y006769D01*
X013522Y006808D02*
X013443Y006729D01*
X013374Y006700D02*
X013295Y006778D01*
X013256Y006778D01*
X013216Y006739D01*
X013216Y006700D01*
X013374Y006700D01*
X013374Y006660D01*
X013335Y006621D01*
X013295Y006621D01*
X013216Y006700D01*
X013265Y006552D02*
X013069Y006591D01*
X013019Y006542D02*
X013019Y006463D01*
X012940Y006463D01*
X013058Y006345D01*
X012989Y006315D02*
X012989Y006276D01*
X012950Y006236D01*
X012911Y006236D01*
X012832Y006315D01*
X012832Y006354D01*
X012871Y006394D01*
X012911Y006394D01*
X012989Y006315D01*
X013137Y006424D02*
X013019Y006542D01*
X012489Y006772D02*
X012489Y006812D01*
X012489Y006772D02*
X012449Y006733D01*
X012410Y006733D01*
X012390Y006753D01*
X012390Y006792D01*
X012410Y006812D01*
X012390Y006792D02*
X012351Y006792D01*
X012331Y006812D01*
X012331Y006851D01*
X012370Y006890D01*
X012410Y006890D01*
X012360Y006684D02*
X012341Y006664D01*
X012360Y006644D01*
X012380Y006664D01*
X012360Y006684D01*
X012296Y006619D02*
X012296Y006580D01*
X012257Y006541D01*
X012218Y006541D01*
X012198Y006560D01*
X012198Y006600D01*
X012218Y006619D01*
X012198Y006600D02*
X012158Y006600D01*
X012139Y006619D01*
X012139Y006659D01*
X012178Y006698D01*
X012218Y006698D01*
X012070Y006590D02*
X012148Y006511D01*
X012148Y006432D01*
X012070Y006432D01*
X011991Y006511D01*
X011649Y006885D02*
X011609Y006846D01*
X011570Y006846D01*
X011531Y006885D01*
X011570Y006925D01*
X011570Y007004D02*
X011649Y006925D01*
X011649Y006885D01*
X011570Y007004D02*
X011531Y007004D01*
X011491Y006964D01*
X011491Y006925D01*
X011422Y006895D02*
X011363Y006836D01*
X011363Y006797D01*
X011402Y006757D01*
X011442Y006757D01*
X011501Y006816D01*
X011540Y006777D02*
X011422Y006895D01*
X011294Y006767D02*
X011255Y006728D01*
X011274Y006747D02*
X011392Y006629D01*
X011373Y006609D02*
X011412Y006649D01*
X011307Y006583D02*
X011307Y006544D01*
X011268Y006504D01*
X011228Y006504D01*
X011149Y006583D01*
X011149Y006622D01*
X011189Y006662D01*
X011228Y006662D01*
X011307Y006583D01*
X011198Y006435D02*
X011041Y006435D01*
X011021Y006455D01*
X011021Y006494D01*
X011061Y006534D01*
X011100Y006534D01*
X011198Y006435D02*
X011120Y006356D01*
X011070Y006307D02*
X010992Y006228D01*
X011070Y006307D02*
X010913Y006307D01*
X010893Y006327D01*
X010893Y006366D01*
X010933Y006405D01*
X010972Y006405D01*
X010437Y006637D02*
X010398Y006598D01*
X010418Y006618D02*
X010300Y006736D01*
X010319Y006756D02*
X010280Y006716D01*
X010253Y006650D02*
X010332Y006572D01*
X010332Y006532D01*
X010293Y006493D01*
X010253Y006493D01*
X010175Y006572D01*
X010175Y006611D01*
X010214Y006650D01*
X010253Y006650D01*
X010125Y006522D02*
X010086Y006522D01*
X010047Y006483D01*
X010047Y006444D01*
X010066Y006424D01*
X010224Y006424D01*
X010145Y006345D01*
X010095Y006296D02*
X010076Y006315D01*
X009918Y006315D01*
X009899Y006335D01*
X009977Y006414D01*
X010388Y006785D02*
X010428Y006746D01*
X010467Y006746D01*
X010526Y006805D01*
X010565Y006766D02*
X010447Y006884D01*
X010388Y006825D01*
X010388Y006785D01*
X010516Y006913D02*
X010516Y006953D01*
X010556Y006992D01*
X010595Y006992D01*
X010674Y006913D01*
X010674Y006874D01*
X010635Y006835D01*
X010595Y006835D01*
X010556Y006874D01*
X010595Y006913D01*
X010973Y007496D02*
X011012Y007497D01*
X011050Y007538D01*
X011048Y007577D01*
X011117Y007609D02*
X011192Y007691D01*
X011035Y007685D01*
X011015Y007704D01*
X011013Y007743D01*
X011051Y007784D01*
X011091Y007785D01*
X011138Y007837D02*
X011137Y007876D01*
X011175Y007917D01*
X011214Y007918D01*
X011296Y007842D01*
X011297Y007803D01*
X011259Y007762D01*
X011220Y007761D01*
X011138Y007837D01*
X011238Y007985D02*
X011276Y008025D01*
X011257Y008005D02*
X011380Y007891D01*
X011398Y007911D02*
X011361Y007871D01*
X011385Y008020D02*
X011424Y008021D01*
X011481Y008082D01*
X011522Y008044D02*
X011400Y008158D01*
X011343Y008097D01*
X011344Y008058D01*
X011385Y008020D01*
X011509Y008152D02*
X011547Y008193D01*
X011509Y008152D02*
X011549Y008114D01*
X011589Y008116D01*
X011627Y008156D01*
X011625Y008196D01*
X011544Y008272D01*
X011505Y008270D01*
X011467Y008229D01*
X011468Y008190D01*
X012018Y007731D02*
X012056Y007772D01*
X012095Y007773D01*
X012143Y007824D02*
X012224Y007748D01*
X012263Y007750D01*
X012301Y007790D01*
X012300Y007830D01*
X012219Y007906D01*
X012179Y007904D01*
X012141Y007863D01*
X012143Y007824D01*
X012197Y007678D02*
X012039Y007673D01*
X012019Y007692D01*
X012018Y007731D01*
X012012Y007602D02*
X011936Y007521D01*
X011894Y007598D02*
X012016Y007484D01*
X012012Y007602D02*
X011894Y007598D01*
X012121Y007597D02*
X012197Y007678D01*
X012365Y007858D02*
X012403Y007899D01*
X012384Y007879D02*
X012262Y007993D01*
X012281Y008013D02*
X012243Y007972D01*
X012349Y008045D02*
X012389Y008007D01*
X012429Y008008D01*
X012486Y008070D01*
X012526Y008032D02*
X012404Y008145D01*
X012347Y008084D01*
X012349Y008045D01*
X012472Y008178D02*
X012471Y008217D01*
X012509Y008258D01*
X012548Y008259D01*
X012630Y008183D01*
X012631Y008144D01*
X012593Y008103D01*
X012554Y008102D01*
X012513Y008140D01*
X012551Y008180D01*
X013053Y007816D02*
X013110Y007877D01*
X013232Y007763D01*
X013175Y007702D01*
X013136Y007700D01*
X013055Y007776D01*
X013053Y007816D01*
X013158Y007928D02*
X013280Y007814D01*
X013234Y008009D01*
X013356Y007895D01*
X013383Y007966D02*
X013343Y008004D01*
X013381Y008044D01*
X013459Y008047D02*
X013378Y008123D01*
X013339Y008122D01*
X013301Y008081D01*
X013302Y008042D01*
X013383Y007966D02*
X013423Y007967D01*
X013461Y008008D01*
X013459Y008047D01*
X013908Y007564D02*
X013984Y007645D01*
X014045Y007588D01*
X013987Y007567D01*
X013968Y007546D01*
X013970Y007507D01*
X014010Y007469D01*
X014050Y007470D01*
X014088Y007511D01*
X014086Y007550D01*
X014154Y007582D02*
X014230Y007664D01*
X014073Y007658D01*
X014052Y007677D01*
X014051Y007717D01*
X014089Y007757D01*
X014128Y007759D01*
X014176Y007810D02*
X014175Y007849D01*
X014213Y007890D01*
X014252Y007891D01*
X014333Y007815D01*
X014335Y007776D01*
X014297Y007735D01*
X014257Y007734D01*
X014176Y007810D01*
X014276Y007958D02*
X014314Y007999D01*
X014295Y007978D02*
X014417Y007864D01*
X014398Y007844D02*
X014436Y007885D01*
X014423Y007993D02*
X014382Y008031D01*
X014381Y008070D01*
X014438Y008131D01*
X014560Y008017D01*
X014519Y008055D02*
X014462Y007994D01*
X014423Y007993D01*
X014546Y008125D02*
X014587Y008087D01*
X014626Y008089D01*
X014664Y008130D01*
X014663Y008169D01*
X014582Y008245D01*
X014542Y008243D01*
X014504Y008203D01*
X014506Y008163D01*
X014546Y008125D02*
X014584Y008166D01*
X015059Y007820D02*
X015061Y007781D01*
X015142Y007705D01*
X015181Y007706D01*
X015219Y007747D01*
X015218Y007786D01*
X015136Y007862D01*
X015097Y007861D01*
X015059Y007820D01*
X015013Y007730D02*
X015033Y007711D01*
X015035Y007671D01*
X014997Y007630D01*
X014998Y007591D01*
X015018Y007572D01*
X015058Y007574D01*
X015096Y007614D01*
X015094Y007654D01*
X015074Y007673D01*
X015035Y007671D01*
X014997Y007630D02*
X014957Y007629D01*
X014937Y007648D01*
X014936Y007687D01*
X014973Y007728D01*
X015013Y007730D01*
X015161Y007929D02*
X015198Y007969D01*
X015180Y007949D02*
X015302Y007835D01*
X015283Y007815D02*
X015321Y007856D01*
X015307Y007964D02*
X015347Y007965D01*
X015404Y008026D01*
X015444Y007988D02*
X015322Y008102D01*
X015265Y008041D01*
X015267Y008002D01*
X015307Y007964D01*
X015431Y008096D02*
X015469Y008137D01*
X015431Y008096D02*
X015472Y008058D01*
X015511Y008060D01*
X015549Y008100D01*
X015547Y008140D01*
X015466Y008216D01*
X015427Y008214D01*
X015389Y008173D01*
X015390Y008134D01*
X015956Y007663D02*
X015976Y007644D01*
X016134Y007649D01*
X016154Y007630D01*
X016181Y007700D02*
X016100Y007776D01*
X016099Y007816D01*
X016137Y007856D01*
X016176Y007858D01*
X016257Y007782D01*
X016259Y007742D01*
X016221Y007702D01*
X016181Y007700D01*
X016032Y007744D02*
X015956Y007663D01*
X016200Y007924D02*
X016238Y007965D01*
X016219Y007945D02*
X016341Y007831D01*
X016360Y007851D02*
X016322Y007810D01*
X016347Y007959D02*
X016386Y007961D01*
X016443Y008022D01*
X016484Y007984D02*
X016362Y008098D01*
X016305Y008036D01*
X016306Y007997D01*
X016347Y007959D01*
X016470Y008092D02*
X016508Y008132D01*
X016470Y008092D02*
X016511Y008054D01*
X016550Y008055D01*
X016588Y008096D01*
X016587Y008135D01*
X016506Y008211D01*
X016466Y008210D01*
X016428Y008169D01*
X016430Y008130D01*
X010967Y007653D02*
X010928Y007652D01*
X010890Y007611D01*
X010891Y007571D01*
X010912Y007552D01*
X010951Y007554D01*
X010952Y007515D01*
X010973Y007496D01*
X010951Y007554D02*
X010970Y007574D01*
X010378Y007869D02*
X010255Y007982D01*
X010302Y007787D01*
X010180Y007901D01*
X010132Y007850D02*
X010075Y007789D01*
X010076Y007749D01*
X010158Y007674D01*
X010197Y007675D01*
X010254Y007736D01*
X010132Y007850D01*
X010324Y008015D02*
X010322Y008054D01*
X010360Y008095D01*
X010399Y008096D01*
X010481Y008020D01*
X010482Y007981D01*
X010444Y007940D01*
X010405Y007939D01*
X010364Y007977D01*
X010402Y008017D01*
X009639Y008130D02*
X009601Y008090D01*
X009562Y008088D01*
X009521Y008126D01*
X009559Y008167D01*
X009638Y008170D02*
X009639Y008130D01*
X009638Y008170D02*
X009556Y008246D01*
X009517Y008244D01*
X009479Y008204D01*
X009480Y008164D01*
X009412Y008132D02*
X009355Y008071D01*
X009357Y008032D01*
X009397Y007994D01*
X009437Y007995D01*
X009494Y008056D01*
X009534Y008018D02*
X009412Y008132D01*
X009289Y008000D02*
X009251Y007959D01*
X009270Y007979D02*
X009392Y007865D01*
X009373Y007845D02*
X009411Y007886D01*
X009308Y007816D02*
X009309Y007777D01*
X009271Y007736D01*
X009232Y007735D01*
X009151Y007811D01*
X009149Y007850D01*
X009187Y007891D01*
X009227Y007892D01*
X009308Y007816D01*
X009205Y007665D02*
X009129Y007583D01*
X009167Y007624D02*
X009045Y007738D01*
X009123Y007741D01*
X009000Y007608D02*
X009001Y007569D01*
X008963Y007528D01*
X008965Y007489D01*
X008985Y007470D01*
X009024Y007471D01*
X009062Y007512D01*
X009061Y007551D01*
X009040Y007570D01*
X009001Y007569D01*
X009000Y007608D02*
X008979Y007627D01*
X008940Y007626D01*
X008902Y007585D01*
X008903Y007546D01*
X008924Y007527D01*
X008963Y007528D01*
X008526Y008010D02*
X008450Y007928D01*
X008488Y007969D02*
X008366Y008083D01*
X008445Y008086D01*
X008472Y008156D02*
X008513Y008118D01*
X008552Y008119D01*
X008609Y008180D01*
X008650Y008142D02*
X008527Y008256D01*
X008471Y008195D01*
X008472Y008156D01*
X008596Y008288D02*
X008594Y008328D01*
X008632Y008369D01*
X008671Y008370D01*
X008753Y008294D01*
X008754Y008255D01*
X008716Y008214D01*
X008677Y008213D01*
X008636Y008251D01*
X008674Y008291D01*
X008341Y007934D02*
X008283Y007913D01*
X008264Y007892D01*
X008265Y007853D01*
X008306Y007815D01*
X008345Y007816D01*
X008383Y007857D01*
X008382Y007896D01*
X008341Y007934D02*
X008280Y007991D01*
X008204Y007910D01*
X008279Y007745D02*
X008081Y007777D01*
X008033Y007726D02*
X007976Y007665D01*
X007977Y007626D01*
X008018Y007588D01*
X008057Y007589D01*
X008114Y007650D01*
X008076Y007609D02*
X008079Y007531D01*
X008032Y007480D02*
X007833Y007512D01*
X007909Y007594D02*
X007956Y007398D01*
X008155Y007612D02*
X008033Y007726D01*
X007520Y008049D02*
X007444Y007968D01*
X007482Y008009D02*
X007360Y008123D01*
X007439Y008125D01*
X007507Y008157D02*
X007546Y008159D01*
X007603Y008220D01*
X007644Y008182D02*
X007522Y008296D01*
X007465Y008235D01*
X007466Y008195D01*
X007507Y008157D01*
X007631Y008290D02*
X007671Y008252D01*
X007711Y008253D01*
X007749Y008294D01*
X007747Y008333D01*
X007666Y008409D01*
X007626Y008408D01*
X007589Y008367D01*
X007590Y008328D01*
X007631Y008290D02*
X007669Y008331D01*
X007336Y007974D02*
X007260Y007892D01*
X007340Y007856D02*
X007218Y007970D01*
X007336Y007974D01*
X007273Y007784D02*
X007075Y007817D01*
X007027Y007766D02*
X006951Y007684D01*
X006989Y007725D02*
X007112Y007611D01*
X007026Y007519D02*
X006828Y007552D01*
X006904Y007633D02*
X006950Y007438D01*
X006652Y007204D02*
X006730Y007125D01*
X006730Y007086D01*
X006691Y007046D01*
X006652Y007046D01*
X006612Y007086D01*
X006652Y007125D01*
X006652Y007204D02*
X006612Y007204D01*
X006573Y007164D01*
X006573Y007125D01*
X006504Y007095D02*
X006445Y007036D01*
X006445Y006997D01*
X006484Y006957D01*
X006523Y006957D01*
X006582Y007016D01*
X006622Y006977D02*
X006504Y007095D01*
X006395Y006947D02*
X006356Y006947D01*
X006317Y006908D01*
X006317Y006869D01*
X006336Y006849D01*
X006376Y006849D01*
X006376Y006810D01*
X006395Y006790D01*
X006435Y006790D01*
X006474Y006829D01*
X006474Y006869D01*
X006395Y006869D02*
X006376Y006849D01*
X006365Y006721D02*
X006169Y006760D01*
X006139Y006691D02*
X006159Y006671D01*
X006159Y006632D01*
X006119Y006593D01*
X006119Y006553D01*
X006139Y006534D01*
X006178Y006534D01*
X006218Y006573D01*
X006218Y006612D01*
X006139Y006691D02*
X006100Y006691D01*
X006060Y006652D01*
X006060Y006612D01*
X006011Y006563D02*
X006089Y006484D01*
X006089Y006445D01*
X006050Y006405D01*
X006011Y006405D01*
X005981Y006336D02*
X005902Y006258D01*
X005981Y006336D02*
X005863Y006454D01*
X005932Y006484D02*
X005932Y006523D01*
X005971Y006563D01*
X006011Y006563D01*
X005514Y006840D02*
X005356Y006834D01*
X005336Y006853D01*
X005335Y006893D01*
X005372Y006933D01*
X005412Y006935D01*
X005460Y006986D02*
X005500Y006948D01*
X005540Y006949D01*
X005597Y007010D01*
X005637Y006972D02*
X005515Y007086D01*
X005458Y007025D01*
X005460Y006986D01*
X005514Y006840D02*
X005438Y006758D01*
X005390Y006707D02*
X005192Y006740D01*
X005165Y006670D02*
X005185Y006651D01*
X005186Y006611D01*
X005148Y006571D01*
X005150Y006531D01*
X005170Y006512D01*
X005209Y006514D01*
X005247Y006554D01*
X005246Y006594D01*
X005165Y006670D02*
X005125Y006668D01*
X005087Y006628D01*
X005089Y006588D01*
X005021Y006556D02*
X004964Y006495D01*
X004965Y006456D01*
X005046Y006380D01*
X005086Y006381D01*
X005143Y006442D01*
X005021Y006556D01*
X004938Y006386D02*
X004859Y006383D01*
X004862Y006304D01*
X004943Y006228D01*
X004882Y006285D02*
X004958Y006367D01*
X004938Y006386D02*
X005019Y006310D01*
X004422Y006696D02*
X004421Y006736D01*
X004422Y006696D02*
X004384Y006656D01*
X004345Y006654D01*
X004325Y006673D01*
X004323Y006713D01*
X004342Y006733D01*
X004323Y006713D02*
X004284Y006711D01*
X004264Y006730D01*
X004262Y006770D01*
X004300Y006810D01*
X004340Y006812D01*
X004464Y006782D02*
X004484Y006763D01*
X004503Y006783D01*
X004483Y006802D01*
X004464Y006782D01*
X004531Y006853D02*
X004570Y006855D01*
X004608Y006895D01*
X004606Y006935D01*
X004528Y006932D02*
X004509Y006911D01*
X004510Y006872D01*
X004531Y006853D01*
X004509Y006911D02*
X004469Y006910D01*
X004449Y006929D01*
X004448Y006968D01*
X004486Y007009D01*
X004525Y007011D01*
X004196Y006698D02*
X004277Y006622D01*
X004280Y006543D01*
X004201Y006541D01*
X004120Y006617D01*
X003631Y006943D02*
X003575Y006998D01*
X003631Y007054D01*
X003464Y007054D01*
X003492Y007124D02*
X003464Y007152D01*
X003464Y007207D01*
X003492Y007235D01*
X003492Y007305D02*
X003464Y007333D01*
X003464Y007389D01*
X003492Y007416D01*
X003631Y007416D01*
X003631Y007305D02*
X003492Y007305D01*
X003603Y007235D02*
X003631Y007207D01*
X003631Y007152D01*
X003603Y007124D01*
X003492Y007124D01*
X003464Y006943D02*
X003631Y006943D01*
X003436Y007486D02*
X003436Y007598D01*
X003464Y007668D02*
X003631Y007668D01*
X003631Y007751D01*
X003603Y007779D01*
X003547Y007779D01*
X003519Y007751D01*
X003519Y007668D01*
X003464Y007849D02*
X003464Y007905D01*
X003464Y007877D02*
X003575Y007877D01*
X003575Y007849D01*
X003631Y007877D02*
X003659Y007877D01*
X004200Y007890D02*
X004282Y007814D01*
X004360Y007817D01*
X004357Y007896D01*
X004276Y007972D01*
X004324Y008023D02*
X004400Y008104D01*
X004461Y008047D01*
X004402Y008025D01*
X004383Y008005D01*
X004385Y007966D01*
X004426Y007928D01*
X004465Y007929D01*
X004503Y007970D01*
X004501Y008009D01*
X005093Y007873D02*
X005175Y007797D01*
X005253Y007800D01*
X005250Y007878D01*
X005169Y007954D01*
X005217Y008005D02*
X005293Y008087D01*
X005354Y008030D01*
X005295Y008008D01*
X005276Y007988D01*
X005278Y007948D01*
X005319Y007910D01*
X005358Y007912D01*
X005396Y007953D01*
X005394Y007992D01*
X006036Y007788D02*
X006037Y007748D01*
X006118Y007673D01*
X006158Y007674D01*
X006215Y007735D01*
X006093Y007849D01*
X006036Y007788D01*
X006140Y007900D02*
X006262Y007786D01*
X006216Y007981D01*
X006338Y007868D01*
X006366Y007938D02*
X006325Y007976D01*
X006363Y008016D01*
X006366Y007938D02*
X006405Y007939D01*
X006443Y007980D01*
X006442Y008019D01*
X006360Y008095D01*
X006321Y008094D01*
X006283Y008053D01*
X006284Y008014D01*
X005659Y007200D02*
X005740Y007124D01*
X005742Y007085D01*
X005704Y007044D01*
X005665Y007043D01*
X005624Y007081D01*
X005662Y007121D01*
X005583Y007118D02*
X005582Y007158D01*
X005620Y007199D01*
X005659Y007200D01*
X006957Y006545D02*
X007075Y006545D01*
X006997Y006466D01*
X007075Y006427D02*
X006957Y006545D01*
X007085Y006634D02*
X007164Y006555D01*
X007204Y006555D01*
X007243Y006595D01*
X007243Y006634D01*
X007164Y006713D01*
X007125Y006713D01*
X007085Y006673D01*
X007085Y006634D01*
X007191Y006778D02*
X007230Y006818D01*
X007210Y006798D02*
X007328Y006680D01*
X007309Y006660D02*
X007348Y006700D01*
X007338Y006808D02*
X007378Y006808D01*
X007437Y006867D01*
X007476Y006828D02*
X007358Y006946D01*
X007299Y006887D01*
X007299Y006848D01*
X007338Y006808D01*
X007467Y006936D02*
X007506Y006976D01*
X007467Y006936D02*
X007506Y006897D01*
X007545Y006897D01*
X007585Y006936D01*
X007585Y006976D01*
X007506Y007054D01*
X007467Y007054D01*
X007427Y007015D01*
X007427Y006976D01*
X008075Y006676D02*
X008134Y006735D01*
X008252Y006617D01*
X008193Y006558D01*
X008154Y006558D01*
X008075Y006637D01*
X008075Y006676D01*
X008183Y006785D02*
X008302Y006667D01*
X008262Y006864D01*
X008380Y006745D01*
X008410Y006815D02*
X008371Y006854D01*
X008410Y006893D01*
X008410Y006815D02*
X008449Y006815D01*
X008489Y006854D01*
X008489Y006893D01*
X008410Y006972D01*
X008371Y006972D01*
X008331Y006933D01*
X008331Y006893D01*
X008889Y006364D02*
X008968Y006443D01*
X008889Y006364D02*
X008909Y006344D01*
X009066Y006344D01*
X009086Y006325D01*
X009135Y006374D02*
X009214Y006453D01*
X009175Y006413D02*
X009056Y006531D01*
X009135Y006531D01*
X009165Y006601D02*
X009244Y006522D01*
X009283Y006522D01*
X009322Y006561D01*
X009322Y006601D01*
X009244Y006679D01*
X009204Y006679D01*
X009165Y006640D01*
X009165Y006601D01*
X009270Y006745D02*
X009309Y006784D01*
X009290Y006765D02*
X009408Y006647D01*
X009428Y006666D02*
X009388Y006627D01*
X009418Y006775D02*
X009457Y006775D01*
X009516Y006834D01*
X009556Y006794D02*
X009438Y006913D01*
X009379Y006854D01*
X009379Y006814D01*
X009418Y006775D01*
X009546Y006903D02*
X009585Y006942D01*
X009546Y006903D02*
X009585Y006864D01*
X009625Y006864D01*
X009664Y006903D01*
X009664Y006942D01*
X009585Y007021D01*
X009546Y007021D01*
X009507Y006982D01*
X009507Y006942D01*
X023143Y006729D02*
X023200Y006790D01*
X023322Y006676D01*
X023265Y006615D01*
X023226Y006613D01*
X023145Y006689D01*
X023143Y006729D01*
X023248Y006841D02*
X023370Y006727D01*
X023324Y006922D01*
X023446Y006808D01*
X023473Y006878D02*
X023433Y006916D01*
X023471Y006957D01*
X023549Y006960D02*
X023551Y006920D01*
X023513Y006880D01*
X023473Y006878D01*
X023392Y006954D02*
X023391Y006994D01*
X023428Y007034D01*
X023468Y007036D01*
X023549Y006960D01*
D15*
X007385Y009402D02*
X004805Y009402D01*
X004805Y010702D01*
X007385Y010702D01*
X007385Y009402D01*
D16*
X015548Y005722D02*
X018248Y005722D01*
X018248Y005422D02*
X015548Y005422D01*
X014887Y004472D02*
X014919Y004427D01*
X014955Y004385D01*
X014994Y004345D01*
X015035Y004308D01*
X015079Y004274D01*
X015126Y004243D01*
X015174Y004215D01*
X015224Y004191D01*
X015275Y004170D01*
X015328Y004153D01*
X015382Y004139D01*
X015437Y004130D01*
X015492Y004124D01*
X015548Y004122D01*
X018248Y004122D01*
X018248Y004422D02*
X015548Y004422D01*
X015510Y004423D01*
X015473Y004428D01*
X015436Y004435D01*
X015400Y004444D01*
X015364Y004457D01*
X015330Y004472D01*
X014887Y005372D02*
X014919Y005417D01*
X014955Y005459D01*
X014994Y005499D01*
X015036Y005536D01*
X015079Y005570D01*
X015126Y005601D01*
X015174Y005629D01*
X015224Y005653D01*
X015275Y005674D01*
X015328Y005691D01*
X015382Y005705D01*
X015437Y005714D01*
X015492Y005720D01*
X015548Y005722D01*
X015548Y005422D02*
X015510Y005421D01*
X015473Y005416D01*
X015436Y005409D01*
X015400Y005400D01*
X015364Y005387D01*
X015330Y005372D01*
X016498Y004922D02*
X016648Y004922D01*
X017148Y004922D02*
X017298Y004922D01*
X018248Y005722D02*
X018304Y005720D01*
X018359Y005714D01*
X018414Y005705D01*
X018468Y005691D01*
X018521Y005674D01*
X018572Y005653D01*
X018622Y005629D01*
X018670Y005601D01*
X018717Y005570D01*
X018761Y005536D01*
X018802Y005499D01*
X018841Y005459D01*
X018877Y005417D01*
X018909Y005372D01*
X018909Y004472D02*
X018877Y004427D01*
X018841Y004385D01*
X018802Y004345D01*
X018760Y004308D01*
X018717Y004274D01*
X018670Y004243D01*
X018622Y004215D01*
X018572Y004191D01*
X018521Y004170D01*
X018468Y004153D01*
X018414Y004139D01*
X018359Y004130D01*
X018304Y004124D01*
X018248Y004122D01*
X018248Y004422D02*
X018286Y004423D01*
X018323Y004428D01*
X018360Y004435D01*
X018396Y004444D01*
X018432Y004457D01*
X018466Y004472D01*
X018466Y005372D02*
X018432Y005387D01*
X018396Y005400D01*
X018360Y005409D01*
X018323Y005416D01*
X018286Y005421D01*
X018248Y005422D01*
D17*
X016522Y011343D03*
D18*
X016766Y011339D02*
X016972Y011339D01*
X016973Y011343D02*
X016962Y011216D01*
X016931Y011092D01*
X016880Y010975D01*
X016810Y010868D01*
X016724Y010773D01*
X016624Y010694D01*
X016512Y010633D01*
X016391Y010591D01*
X016266Y010569D01*
X016138Y010568D01*
X016138Y010780D01*
X016238Y010778D01*
X016337Y010793D01*
X016432Y010826D01*
X016519Y010874D01*
X016597Y010938D01*
X016662Y011014D01*
X016713Y011100D01*
X016748Y011194D01*
X016766Y011293D01*
X016766Y011393D01*
X016748Y011492D01*
X016713Y011586D01*
X016662Y011672D01*
X016597Y011749D01*
X016519Y011812D01*
X016432Y011861D01*
X016337Y011893D01*
X016238Y011909D01*
X016138Y011906D01*
X016138Y012119D01*
X016266Y012118D01*
X016391Y012096D01*
X016512Y012053D01*
X016624Y011992D01*
X016724Y011913D01*
X016810Y011819D01*
X016880Y011711D01*
X016931Y011594D01*
X016962Y011471D01*
X016973Y011343D01*
X016971Y011369D02*
X016766Y011369D01*
X016765Y011399D02*
X016968Y011399D01*
X016966Y011429D02*
X016759Y011429D01*
X016754Y011459D02*
X016963Y011459D01*
X016958Y011489D02*
X016749Y011489D01*
X016738Y011519D02*
X016950Y011519D01*
X016943Y011549D02*
X016727Y011549D01*
X016716Y011579D02*
X016935Y011579D01*
X016925Y011609D02*
X016700Y011609D01*
X016682Y011639D02*
X016912Y011639D01*
X016899Y011669D02*
X016665Y011669D01*
X016640Y011699D02*
X016886Y011699D01*
X016869Y011729D02*
X016614Y011729D01*
X016585Y011759D02*
X016849Y011759D01*
X016830Y011789D02*
X016548Y011789D01*
X016508Y011819D02*
X016810Y011819D01*
X016783Y011849D02*
X016454Y011849D01*
X016380Y011879D02*
X016756Y011879D01*
X016728Y011909D02*
X016238Y011909D01*
X016237Y011909D02*
X016138Y011909D01*
X016138Y011939D02*
X016692Y011939D01*
X016654Y011969D02*
X016138Y011969D01*
X016138Y011999D02*
X016612Y011999D01*
X016557Y012029D02*
X016138Y012029D01*
X016138Y012059D02*
X016497Y012059D01*
X016412Y012089D02*
X016138Y012089D01*
X016138Y012119D02*
X016169Y012119D01*
X016766Y011309D02*
X016970Y011309D01*
X016967Y011279D02*
X016763Y011279D01*
X016758Y011249D02*
X016965Y011249D01*
X016962Y011219D02*
X016752Y011219D01*
X016746Y011189D02*
X016955Y011189D01*
X016948Y011159D02*
X016735Y011159D01*
X016724Y011129D02*
X016940Y011129D01*
X016933Y011099D02*
X016712Y011099D01*
X016694Y011069D02*
X016921Y011069D01*
X016908Y011039D02*
X016677Y011039D01*
X016658Y011009D02*
X016895Y011009D01*
X016882Y010979D02*
X016632Y010979D01*
X016606Y010949D02*
X016863Y010949D01*
X016843Y010919D02*
X016574Y010919D01*
X016537Y010889D02*
X016824Y010889D01*
X016802Y010859D02*
X016491Y010859D01*
X016437Y010829D02*
X016775Y010829D01*
X016747Y010799D02*
X016353Y010799D01*
X016138Y010769D02*
X016718Y010769D01*
X016680Y010739D02*
X016138Y010739D01*
X016138Y010709D02*
X016642Y010709D01*
X016595Y010679D02*
X016138Y010679D01*
X016138Y010649D02*
X016540Y010649D01*
X016471Y010619D02*
X016138Y010619D01*
X016138Y010589D02*
X016380Y010589D01*
X017468Y010589D02*
X017711Y010589D01*
X017722Y010591D02*
X017596Y010569D01*
X017468Y010568D01*
X017468Y010780D01*
X017569Y010778D01*
X017668Y010793D01*
X017763Y010826D01*
X017850Y010874D01*
X017928Y010938D01*
X017993Y011014D01*
X018044Y011100D01*
X018079Y011194D01*
X018096Y011293D01*
X018096Y011393D01*
X018079Y011492D01*
X018044Y011586D01*
X017993Y011672D01*
X017928Y011749D01*
X017850Y011812D01*
X017763Y011861D01*
X017668Y011893D01*
X017569Y011909D01*
X018059Y011909D01*
X018055Y011913D02*
X018141Y011819D01*
X018211Y011711D01*
X018262Y011594D01*
X018293Y011471D01*
X018303Y011343D01*
X018293Y011216D01*
X018262Y011092D01*
X018211Y010975D01*
X018141Y010868D01*
X018055Y010773D01*
X017955Y010694D01*
X017843Y010633D01*
X017722Y010591D01*
X017802Y010619D02*
X017468Y010619D01*
X017468Y010649D02*
X017871Y010649D01*
X017926Y010679D02*
X017468Y010679D01*
X017468Y010709D02*
X017973Y010709D01*
X018011Y010739D02*
X017468Y010739D01*
X017468Y010769D02*
X018049Y010769D01*
X018078Y010799D02*
X017684Y010799D01*
X017768Y010829D02*
X018105Y010829D01*
X018133Y010859D02*
X017822Y010859D01*
X017868Y010889D02*
X018155Y010889D01*
X018174Y010919D02*
X017904Y010919D01*
X017937Y010949D02*
X018194Y010949D01*
X018212Y010979D02*
X017963Y010979D01*
X017988Y011009D02*
X018225Y011009D01*
X018238Y011039D02*
X018008Y011039D01*
X018025Y011069D02*
X018252Y011069D01*
X018263Y011099D02*
X018043Y011099D01*
X018054Y011129D02*
X018271Y011129D01*
X018278Y011159D02*
X018065Y011159D01*
X018076Y011189D02*
X018286Y011189D01*
X018293Y011219D02*
X018083Y011219D01*
X018088Y011249D02*
X018296Y011249D01*
X018298Y011279D02*
X018094Y011279D01*
X018096Y011309D02*
X018301Y011309D01*
X018303Y011339D02*
X018096Y011339D01*
X018096Y011369D02*
X018301Y011369D01*
X018299Y011399D02*
X018095Y011399D01*
X018090Y011429D02*
X018296Y011429D01*
X018294Y011459D02*
X018085Y011459D01*
X018079Y011489D02*
X018288Y011489D01*
X018281Y011519D02*
X018069Y011519D01*
X018058Y011549D02*
X018273Y011549D01*
X018266Y011579D02*
X018047Y011579D01*
X018031Y011609D02*
X018255Y011609D01*
X018242Y011639D02*
X018013Y011639D01*
X017995Y011669D02*
X018229Y011669D01*
X018216Y011699D02*
X017971Y011699D01*
X017945Y011729D02*
X018200Y011729D01*
X018180Y011759D02*
X017916Y011759D01*
X017879Y011789D02*
X018161Y011789D01*
X018141Y011819D02*
X017838Y011819D01*
X017784Y011849D02*
X018114Y011849D01*
X018086Y011879D02*
X017711Y011879D01*
X017569Y011909D02*
X017468Y011906D01*
X017468Y012119D01*
X017596Y012118D01*
X017722Y012096D01*
X017843Y012053D01*
X017955Y011992D01*
X018055Y011913D01*
X018022Y011939D02*
X017468Y011939D01*
X017468Y011969D02*
X017984Y011969D01*
X017943Y011999D02*
X017468Y011999D01*
X017468Y012029D02*
X017888Y012029D01*
X017828Y012059D02*
X017468Y012059D01*
X017468Y012089D02*
X017742Y012089D01*
X017500Y012119D02*
X017468Y012119D01*
X017468Y011909D02*
X017568Y011909D01*
D19*
X019223Y011577D02*
X019226Y011577D01*
X019267Y011652D01*
X019319Y011720D01*
X019381Y011778D01*
X019452Y011825D01*
X019529Y011861D01*
X019612Y011883D01*
X019696Y011892D01*
X019793Y011880D01*
X019887Y011851D01*
X019973Y011807D01*
X020051Y011748D01*
X020117Y011676D01*
X020169Y011593D01*
X020205Y011503D01*
X020225Y011407D01*
X020228Y011310D01*
X020224Y011213D01*
X020203Y011118D01*
X020165Y011029D01*
X020113Y010947D01*
X020047Y010876D01*
X019969Y010818D01*
X019883Y010774D01*
X019790Y010745D01*
X019694Y010734D01*
X019611Y010743D01*
X019530Y010765D01*
X019454Y010800D01*
X019384Y010845D01*
X019322Y010900D01*
X019269Y010965D01*
X019226Y011037D01*
X019373Y011037D01*
X019424Y010983D01*
X019484Y010939D01*
X019550Y010905D01*
X019620Y010882D01*
X019694Y010872D01*
X019769Y010880D01*
X019841Y010901D01*
X019909Y010935D01*
X019969Y010981D01*
X020020Y011036D01*
X020061Y011100D01*
X020090Y011169D01*
X020105Y011243D01*
X020108Y011319D01*
X020103Y011392D01*
X020085Y011463D01*
X020056Y011531D01*
X020015Y011592D01*
X019964Y011645D01*
X019905Y011689D01*
X019840Y011723D01*
X019769Y011744D01*
X019696Y011753D01*
X019633Y011748D01*
X019571Y011732D01*
X019513Y011706D01*
X019459Y011671D01*
X019413Y011628D01*
X019373Y011577D01*
X019223Y011577D01*
X019230Y011584D02*
X019379Y011584D01*
X019398Y011609D02*
X019244Y011609D01*
X019257Y011634D02*
X019420Y011634D01*
X019447Y011659D02*
X019272Y011659D01*
X019292Y011685D02*
X019480Y011685D01*
X019521Y011710D02*
X019311Y011710D01*
X019335Y011735D02*
X019582Y011735D01*
X019640Y011631D02*
X019699Y011639D01*
X019759Y011628D01*
X019816Y011607D01*
X019867Y011575D01*
X019912Y011534D01*
X019480Y011534D01*
X019487Y011543D02*
X019532Y011582D01*
X019584Y011612D01*
X019640Y011631D01*
X019666Y011634D02*
X019725Y011634D01*
X019809Y011609D02*
X019580Y011609D01*
X019536Y011584D02*
X019853Y011584D01*
X019885Y011559D02*
X019506Y011559D01*
X019487Y011543D02*
X019450Y011495D01*
X019423Y011442D01*
X019541Y011442D01*
X019564Y011472D01*
X019592Y011498D01*
X019625Y011517D01*
X019662Y011529D01*
X019699Y011533D01*
X019745Y011526D01*
X019789Y011509D01*
X019827Y011482D01*
X019858Y011448D01*
X019881Y011407D01*
X019894Y011362D01*
X019896Y011316D01*
X019894Y011269D01*
X019881Y011224D01*
X019859Y011183D01*
X019970Y011183D01*
X019976Y011194D02*
X019949Y011140D01*
X019913Y011092D01*
X019868Y011051D01*
X019816Y011020D01*
X019759Y010999D01*
X019699Y010990D01*
X019640Y010997D01*
X019583Y011016D01*
X019531Y011045D01*
X019486Y011085D01*
X019449Y011132D01*
X019423Y011186D01*
X019538Y011186D01*
X019569Y011150D01*
X019608Y011122D01*
X019652Y011103D01*
X019699Y011095D01*
X019746Y011103D01*
X019789Y011121D01*
X019828Y011148D01*
X019859Y011183D01*
X019873Y011208D02*
X019980Y011208D01*
X019976Y011194D02*
X019992Y011252D01*
X019996Y011313D01*
X019991Y011373D01*
X019975Y011432D01*
X019949Y011486D01*
X019912Y011534D01*
X019931Y011509D02*
X019788Y011509D01*
X019825Y011484D02*
X019949Y011484D01*
X019962Y011459D02*
X019848Y011459D01*
X019866Y011434D02*
X019974Y011434D01*
X019982Y011409D02*
X019880Y011409D01*
X019888Y011384D02*
X019988Y011384D01*
X019992Y011359D02*
X019894Y011359D01*
X019895Y011333D02*
X019994Y011333D01*
X019996Y011308D02*
X019896Y011308D01*
X019895Y011283D02*
X019994Y011283D01*
X019992Y011258D02*
X019891Y011258D01*
X019884Y011233D02*
X019986Y011233D01*
X019958Y011158D02*
X019837Y011158D01*
X019807Y011133D02*
X019944Y011133D01*
X019925Y011108D02*
X019758Y011108D01*
X019782Y011007D02*
X019607Y011007D01*
X019553Y011033D02*
X019837Y011033D01*
X019875Y011058D02*
X019517Y011058D01*
X019488Y011083D02*
X019903Y011083D01*
X019994Y011007D02*
X020152Y011007D01*
X020167Y011033D02*
X020017Y011033D01*
X020034Y011058D02*
X020177Y011058D01*
X020188Y011083D02*
X020050Y011083D01*
X020064Y011108D02*
X020198Y011108D01*
X020206Y011133D02*
X020075Y011133D01*
X020085Y011158D02*
X020212Y011158D01*
X020217Y011183D02*
X020093Y011183D01*
X020098Y011208D02*
X020223Y011208D01*
X020225Y011233D02*
X020103Y011233D01*
X020106Y011258D02*
X020226Y011258D01*
X020240Y011258D02*
X020789Y011258D01*
X020789Y011233D02*
X020631Y011233D01*
X020631Y011251D02*
X020631Y010731D01*
X020789Y010731D01*
X020789Y011868D01*
X020258Y011868D01*
X020258Y011715D01*
X020628Y011715D01*
X020628Y011377D01*
X020240Y011377D01*
X020240Y011251D01*
X020631Y011251D01*
X020631Y011208D02*
X020789Y011208D01*
X020789Y011183D02*
X020631Y011183D01*
X020631Y011158D02*
X020789Y011158D01*
X020789Y011133D02*
X020631Y011133D01*
X020631Y011108D02*
X020789Y011108D01*
X020789Y011083D02*
X020631Y011083D01*
X020631Y011058D02*
X020789Y011058D01*
X020789Y011033D02*
X020631Y011033D01*
X020631Y011007D02*
X020789Y011007D01*
X020789Y010982D02*
X020631Y010982D01*
X020631Y010957D02*
X020789Y010957D01*
X020789Y010932D02*
X020631Y010932D01*
X020631Y010907D02*
X020789Y010907D01*
X020789Y010882D02*
X020631Y010882D01*
X020631Y010857D02*
X020789Y010857D01*
X020789Y010832D02*
X020631Y010832D01*
X020631Y010807D02*
X020789Y010807D01*
X020789Y010782D02*
X020631Y010782D01*
X020631Y010757D02*
X020789Y010757D01*
X020789Y010732D02*
X020631Y010732D01*
X020135Y010982D02*
X019971Y010982D01*
X019938Y010957D02*
X020119Y010957D01*
X020099Y010932D02*
X019902Y010932D01*
X019852Y010907D02*
X020076Y010907D01*
X020052Y010882D02*
X019775Y010882D01*
X019827Y010757D02*
X019562Y010757D01*
X019494Y010782D02*
X019899Y010782D01*
X019948Y010807D02*
X019443Y010807D01*
X019404Y010832D02*
X019988Y010832D01*
X020021Y010857D02*
X019370Y010857D01*
X019342Y010882D02*
X019622Y010882D01*
X019545Y010907D02*
X019316Y010907D01*
X019296Y010932D02*
X019496Y010932D01*
X019459Y010957D02*
X019275Y010957D01*
X019258Y010982D02*
X019425Y010982D01*
X019401Y011007D02*
X019244Y011007D01*
X019229Y011033D02*
X019377Y011033D01*
X019468Y011108D02*
X019642Y011108D01*
X019593Y011133D02*
X019449Y011133D01*
X019437Y011158D02*
X019563Y011158D01*
X019541Y011183D02*
X019425Y011183D01*
X019432Y011459D02*
X019553Y011459D01*
X019577Y011484D02*
X019444Y011484D01*
X019461Y011509D02*
X019612Y011509D01*
X019801Y011735D02*
X020062Y011735D01*
X020085Y011710D02*
X019866Y011710D01*
X019912Y011685D02*
X020108Y011685D01*
X020127Y011659D02*
X019946Y011659D01*
X019975Y011634D02*
X020143Y011634D01*
X020158Y011609D02*
X019999Y011609D01*
X020020Y011584D02*
X020172Y011584D01*
X020182Y011559D02*
X020037Y011559D01*
X020053Y011534D02*
X020193Y011534D01*
X020203Y011509D02*
X020065Y011509D01*
X020076Y011484D02*
X020209Y011484D01*
X020214Y011459D02*
X020086Y011459D01*
X020092Y011434D02*
X020220Y011434D01*
X020225Y011409D02*
X020099Y011409D01*
X020103Y011384D02*
X020226Y011384D01*
X020227Y011359D02*
X020105Y011359D01*
X020107Y011333D02*
X020228Y011333D01*
X020240Y011333D02*
X020789Y011333D01*
X020789Y011308D02*
X020240Y011308D01*
X020228Y011308D02*
X020107Y011308D01*
X020107Y011283D02*
X020227Y011283D01*
X020240Y011283D02*
X020789Y011283D01*
X020789Y011359D02*
X020240Y011359D01*
X020258Y011735D02*
X020789Y011735D01*
X020789Y011760D02*
X020258Y011760D01*
X020258Y011785D02*
X020789Y011785D01*
X020789Y011810D02*
X020258Y011810D01*
X020258Y011835D02*
X020789Y011835D01*
X020789Y011860D02*
X020258Y011860D01*
X020035Y011760D02*
X019361Y011760D01*
X019391Y011785D02*
X020002Y011785D01*
X019967Y011810D02*
X019429Y011810D01*
X019473Y011835D02*
X019918Y011835D01*
X019858Y011860D02*
X019528Y011860D01*
X019633Y011885D02*
X019750Y011885D01*
X020628Y011710D02*
X020789Y011710D01*
X020789Y011685D02*
X020628Y011685D01*
X020628Y011659D02*
X020789Y011659D01*
X020789Y011634D02*
X020628Y011634D01*
X020628Y011609D02*
X020789Y011609D01*
X020789Y011584D02*
X020628Y011584D01*
X020628Y011559D02*
X020789Y011559D01*
X020789Y011534D02*
X020628Y011534D01*
X020628Y011509D02*
X020789Y011509D01*
X020789Y011484D02*
X020628Y011484D01*
X020628Y011459D02*
X020789Y011459D01*
X020789Y011434D02*
X020628Y011434D01*
X020628Y011409D02*
X020789Y011409D01*
X020789Y011384D02*
X020628Y011384D01*
M02*
