G75*
G70*
%OFA0B0*%
%FSLAX24Y24*%
%IPPOS*%
%LPD*%
%AMOC8*
5,1,8,0,0,1.08239X$1,22.5*
%
%ADD10OC8,0.0740*%
%ADD11R,0.0480X0.0880*%
%ADD12R,0.1417X0.0866*%
%ADD13C,0.0660*%
%ADD14C,0.0560*%
%ADD15C,0.0600*%
%ADD16R,0.0709X0.0630*%
%ADD17R,0.2100X0.0760*%
%ADD18C,0.0070*%
%ADD19C,0.0100*%
%ADD20C,0.0160*%
%ADD21C,0.0320*%
%ADD22C,0.0240*%
%ADD23C,0.0120*%
%ADD24C,0.0560*%
%ADD25C,0.0400*%
D10*
X004146Y001467D03*
X005146Y001467D03*
X006146Y001467D03*
X007146Y001467D03*
X008146Y001467D03*
X009146Y001467D03*
X010146Y001467D03*
X011146Y001467D03*
X012146Y001467D03*
X013146Y001467D03*
X014146Y001467D03*
X015146Y001467D03*
X016146Y001467D03*
X017146Y001467D03*
X018146Y001467D03*
X019146Y001467D03*
X020146Y001467D03*
X021146Y001467D03*
X022146Y001467D03*
X023146Y001467D03*
X023146Y002467D03*
X022146Y002467D03*
X021146Y002467D03*
X020146Y002467D03*
X019146Y002467D03*
X018146Y002467D03*
X017146Y002467D03*
X016146Y002467D03*
X015146Y002467D03*
X014146Y002467D03*
X013146Y002467D03*
X012146Y002467D03*
X011146Y002467D03*
X010146Y002467D03*
X009146Y002467D03*
X008146Y002467D03*
X007146Y002467D03*
X006146Y002467D03*
X005146Y002467D03*
X004146Y002467D03*
D11*
X005185Y011272D03*
X006095Y011272D03*
X007005Y011272D03*
D12*
X006095Y008832D03*
D13*
X012515Y008384D02*
X013175Y008384D01*
X013175Y009384D02*
X012515Y009384D01*
X012515Y010384D02*
X013175Y010384D01*
X013175Y011384D02*
X012515Y011384D01*
X014214Y014942D02*
X014214Y015602D01*
X015214Y015602D02*
X015214Y014942D01*
X016214Y014942D02*
X016214Y015602D01*
X017214Y015602D02*
X017214Y014942D01*
X018214Y014942D02*
X018214Y015602D01*
X019214Y015602D02*
X019214Y014942D01*
X020214Y014942D02*
X020214Y015602D01*
X021214Y015602D02*
X021214Y014942D01*
X013175Y007384D02*
X012515Y007384D01*
X012515Y006384D02*
X013175Y006384D01*
D14*
X014216Y012810D02*
X014216Y013370D01*
X015216Y013370D02*
X015216Y012810D01*
X016216Y012810D02*
X016216Y013370D01*
X017216Y013370D02*
X017216Y012810D01*
X018216Y012810D02*
X018216Y013370D01*
X019216Y013370D02*
X019216Y012810D01*
X020216Y012810D02*
X020216Y013370D01*
X021216Y013370D02*
X021216Y012810D01*
D15*
X010122Y010945D02*
X010122Y010345D01*
X008342Y010345D02*
X008342Y010945D01*
X008342Y008385D02*
X008342Y007785D01*
X010122Y007785D02*
X010122Y008385D01*
D16*
X013115Y005282D03*
X013115Y004180D03*
X020609Y004225D03*
X020609Y005327D03*
D17*
X018798Y004922D03*
X014998Y004922D03*
D18*
X014648Y003104D02*
X014648Y001965D01*
X013651Y001962D02*
X013651Y003032D01*
X011649Y003125D02*
X011649Y002099D01*
X010660Y001956D02*
X010660Y002934D01*
X009640Y001961D02*
X008245Y001961D01*
X008146Y001861D01*
X008245Y001961D02*
X006607Y001961D01*
X005639Y001978D02*
X005639Y004180D01*
D19*
X002604Y000650D02*
X002604Y015344D01*
X003480Y016220D01*
X014085Y016220D01*
X013863Y016128D01*
X013688Y015953D01*
X013594Y015725D01*
X013594Y014819D01*
X013688Y014591D01*
X013806Y014473D01*
X013806Y013767D01*
X013733Y013693D01*
X013646Y013484D01*
X013646Y012697D01*
X013733Y012488D01*
X013893Y012327D01*
X014103Y012240D01*
X014329Y012240D01*
X014539Y012327D01*
X014699Y012488D01*
X014716Y012528D01*
X014733Y012488D01*
X014893Y012327D01*
X015103Y012240D01*
X015329Y012240D01*
X015539Y012327D01*
X015699Y012488D01*
X015716Y012528D01*
X015733Y012488D01*
X015893Y012327D01*
X016103Y012240D01*
X016329Y012240D01*
X016539Y012327D01*
X016699Y012488D01*
X016716Y012528D01*
X016733Y012488D01*
X016893Y012327D01*
X017103Y012240D01*
X017329Y012240D01*
X017539Y012327D01*
X017699Y012488D01*
X017716Y012528D01*
X017733Y012488D01*
X017893Y012327D01*
X018103Y012240D01*
X018329Y012240D01*
X018539Y012327D01*
X018699Y012488D01*
X018716Y012528D01*
X018733Y012488D01*
X018893Y012327D01*
X019103Y012240D01*
X019329Y012240D01*
X019539Y012327D01*
X019699Y012488D01*
X019716Y012528D01*
X019733Y012488D01*
X019893Y012327D01*
X020103Y012240D01*
X020329Y012240D01*
X020539Y012327D01*
X020699Y012488D01*
X020716Y012528D01*
X020733Y012488D01*
X020893Y012327D01*
X021103Y012240D01*
X021329Y012240D01*
X021539Y012327D01*
X021699Y012488D01*
X021786Y012697D01*
X021786Y013484D01*
X021699Y013693D01*
X021539Y013854D01*
X021329Y013940D01*
X021103Y013940D01*
X020893Y013854D01*
X020733Y013693D01*
X020716Y013653D01*
X020699Y013693D01*
X020626Y013767D01*
X020626Y014477D01*
X020740Y014591D01*
X020791Y014715D01*
X020803Y014691D01*
X020848Y014629D01*
X020901Y014576D01*
X020962Y014532D01*
X021030Y014497D01*
X021102Y014474D01*
X021176Y014462D01*
X021185Y014462D01*
X021185Y015243D01*
X021243Y015243D01*
X021243Y014462D01*
X021252Y014462D01*
X021326Y014474D01*
X021398Y014497D01*
X021466Y014532D01*
X021527Y014576D01*
X021580Y014629D01*
X021625Y014691D01*
X021659Y014758D01*
X021682Y014830D01*
X021694Y014904D01*
X021694Y015243D01*
X021243Y015243D01*
X021243Y015301D01*
X021694Y015301D01*
X021694Y015640D01*
X021682Y015715D01*
X021659Y015786D01*
X021625Y015854D01*
X021580Y015915D01*
X021527Y015968D01*
X021466Y016013D01*
X021398Y016047D01*
X021326Y016070D01*
X021252Y016082D01*
X021243Y016082D01*
X021243Y015301D01*
X021185Y015301D01*
X021185Y016082D01*
X021176Y016082D01*
X021102Y016070D01*
X021030Y016047D01*
X020962Y016013D01*
X020901Y015968D01*
X020848Y015915D01*
X020803Y015854D01*
X020791Y015829D01*
X020740Y015953D01*
X020565Y016128D01*
X020343Y016220D01*
X022070Y016220D01*
X022735Y015555D01*
X022735Y011218D01*
X022811Y011034D01*
X022952Y010893D01*
X024735Y009110D01*
X024735Y000650D01*
X012270Y000650D01*
X012338Y000718D01*
X012434Y000814D01*
X012439Y000827D01*
X012646Y001033D01*
X012872Y000807D01*
X013419Y000807D01*
X013646Y001033D01*
X013872Y000807D01*
X014419Y000807D01*
X014646Y001033D01*
X014872Y000807D01*
X015419Y000807D01*
X015745Y001132D01*
X015930Y000947D01*
X016096Y000947D01*
X016096Y001417D01*
X016196Y001417D01*
X016486Y001417D01*
X016486Y001517D01*
X016196Y001517D01*
X016196Y001417D01*
X016196Y000947D01*
X016361Y000947D01*
X016547Y001132D01*
X016872Y000807D01*
X017419Y000807D01*
X017646Y001033D01*
X017872Y000807D01*
X018419Y000807D01*
X018646Y001033D01*
X018872Y000807D01*
X019419Y000807D01*
X019646Y001033D01*
X019872Y000807D01*
X020419Y000807D01*
X020646Y001033D01*
X020872Y000807D01*
X021419Y000807D01*
X021646Y001033D01*
X021872Y000807D01*
X022419Y000807D01*
X022745Y001132D01*
X022930Y000947D01*
X023096Y000947D01*
X023096Y001417D01*
X023196Y001417D01*
X023196Y001517D01*
X023666Y001517D01*
X023666Y001682D01*
X023480Y001868D01*
X023806Y002193D01*
X023806Y002740D01*
X023419Y003127D01*
X022872Y003127D01*
X022646Y002900D01*
X022419Y003127D01*
X021872Y003127D01*
X021646Y002900D01*
X021419Y003127D01*
X020872Y003127D01*
X020547Y002801D01*
X020361Y002987D01*
X020196Y002987D01*
X020196Y002517D01*
X020486Y002517D01*
X020486Y002417D01*
X020196Y002417D01*
X020196Y002517D01*
X020096Y002517D01*
X020096Y002987D01*
X019930Y002987D01*
X019745Y002801D01*
X019419Y003127D01*
X018872Y003127D01*
X018547Y002801D01*
X018361Y002987D01*
X018196Y002987D01*
X018196Y002517D01*
X018486Y002517D01*
X018486Y002417D01*
X018196Y002417D01*
X018196Y002517D01*
X018096Y002517D01*
X018096Y002987D01*
X017930Y002987D01*
X017745Y002801D01*
X017419Y003127D01*
X016872Y003127D01*
X016646Y002900D01*
X016419Y003127D01*
X015872Y003127D01*
X015646Y002900D01*
X015419Y003127D01*
X014988Y003127D01*
X014988Y003172D01*
X014936Y003297D01*
X014490Y003743D01*
X014487Y003745D01*
X014534Y003765D01*
X014672Y003902D01*
X015021Y004252D01*
X016106Y004252D01*
X016212Y004296D01*
X016294Y004378D01*
X016338Y004484D01*
X017458Y004484D01*
X017502Y004378D01*
X017584Y004296D01*
X017690Y004252D01*
X018775Y004252D01*
X019080Y003947D01*
X019218Y003809D01*
X019398Y003735D01*
X020019Y003735D01*
X020090Y003664D01*
X020197Y003620D01*
X021021Y003620D01*
X021127Y003664D01*
X021209Y003746D01*
X021253Y003852D01*
X021253Y004597D01*
X021209Y004704D01*
X021127Y004786D01*
X021021Y004830D01*
X020197Y004830D01*
X020138Y004806D01*
X020138Y004916D01*
X020162Y004892D01*
X020196Y004872D01*
X020234Y004862D01*
X020559Y004862D01*
X020559Y005277D01*
X020659Y005277D01*
X020659Y005377D01*
X021113Y005377D01*
X021113Y005662D01*
X021103Y005700D01*
X021083Y005734D01*
X021055Y005762D01*
X021021Y005782D01*
X020983Y005792D01*
X020659Y005792D01*
X020659Y005377D01*
X020559Y005377D01*
X020559Y005792D01*
X020234Y005792D01*
X020196Y005782D01*
X020162Y005762D01*
X020134Y005734D01*
X020114Y005700D01*
X020104Y005662D01*
X020104Y005441D01*
X020094Y005466D01*
X020012Y005548D01*
X019906Y005592D01*
X017690Y005592D01*
X017584Y005548D01*
X017531Y005495D01*
X017501Y005525D01*
X017335Y005593D01*
X017156Y005593D01*
X016991Y005525D01*
X016864Y005398D01*
X016796Y005233D01*
X016796Y005054D01*
X016864Y004888D01*
X016991Y004762D01*
X017156Y004693D01*
X017215Y004693D01*
X017274Y004634D01*
X017399Y004582D01*
X017458Y004582D01*
X017458Y004484D01*
X017499Y004386D02*
X016297Y004386D01*
X016338Y004484D02*
X016338Y005360D01*
X016294Y005466D01*
X016212Y005548D01*
X016106Y005592D01*
X015509Y005592D01*
X015560Y005717D01*
X015560Y005896D01*
X015492Y006061D01*
X015365Y006188D01*
X015200Y006256D01*
X015021Y006256D01*
X014855Y006188D01*
X014729Y006061D01*
X014660Y005896D01*
X014660Y005767D01*
X014658Y005762D01*
X014658Y005592D01*
X013890Y005592D01*
X013784Y005548D01*
X013702Y005466D01*
X013658Y005360D01*
X013658Y004716D01*
X013634Y004741D01*
X013527Y004785D01*
X012703Y004785D01*
X012597Y004741D01*
X012515Y004659D01*
X012471Y004553D01*
X012471Y004221D01*
X012449Y004244D01*
X012449Y005472D01*
X012397Y005597D01*
X011962Y006032D01*
X011962Y006099D01*
X011990Y006033D01*
X012164Y005858D01*
X012392Y005764D01*
X013298Y005764D01*
X013526Y005858D01*
X013701Y006033D01*
X013795Y006261D01*
X013795Y006507D01*
X013701Y006735D01*
X013552Y006884D01*
X013701Y007033D01*
X013795Y007261D01*
X013795Y007507D01*
X013701Y007735D01*
X013552Y007884D01*
X013701Y008033D01*
X013775Y008211D01*
X014061Y007925D01*
X014061Y007866D01*
X014130Y007700D01*
X014256Y007574D01*
X014422Y007505D01*
X014601Y007505D01*
X014766Y007574D01*
X014893Y007700D01*
X014961Y007866D01*
X014961Y008045D01*
X014893Y008210D01*
X014766Y008337D01*
X014601Y008405D01*
X014542Y008405D01*
X013862Y009085D01*
X013767Y009181D01*
X013763Y009182D01*
X013795Y009261D01*
X013795Y009507D01*
X013701Y009735D01*
X013552Y009884D01*
X013701Y010033D01*
X013795Y010261D01*
X013795Y010507D01*
X013701Y010735D01*
X013526Y010910D01*
X013402Y010961D01*
X013427Y010973D01*
X013488Y011018D01*
X013541Y011071D01*
X013586Y011132D01*
X013620Y011200D01*
X013643Y011272D01*
X013655Y011346D01*
X013655Y011355D01*
X012874Y011355D01*
X012874Y011413D01*
X012816Y011413D01*
X012816Y011355D01*
X012035Y011355D01*
X012035Y011346D01*
X012047Y011272D01*
X012070Y011200D01*
X012105Y011132D01*
X012149Y011071D01*
X012202Y011018D01*
X012264Y010973D01*
X012288Y010961D01*
X012164Y010910D01*
X011990Y010735D01*
X011895Y010507D01*
X011895Y010261D01*
X011990Y010033D01*
X012138Y009884D01*
X011990Y009735D01*
X011895Y009507D01*
X011895Y009261D01*
X011907Y009233D01*
X009574Y009233D01*
X009449Y009181D01*
X009073Y008804D01*
X008977Y008709D01*
X008926Y008584D01*
X008926Y008518D01*
X008842Y008719D01*
X008676Y008885D01*
X008459Y008975D01*
X008225Y008975D01*
X008008Y008885D01*
X007960Y008838D01*
X007960Y009892D01*
X008008Y009845D01*
X008225Y009755D01*
X008459Y009755D01*
X008676Y009845D01*
X008842Y010011D01*
X008932Y010228D01*
X008932Y011062D01*
X008842Y011279D01*
X008676Y011445D01*
X008612Y011472D01*
X009852Y011472D01*
X009788Y011445D01*
X009622Y011279D01*
X009532Y011062D01*
X009532Y010228D01*
X009622Y010011D01*
X009788Y009845D01*
X010005Y009755D01*
X010239Y009755D01*
X010456Y009845D01*
X010622Y010011D01*
X010712Y010228D01*
X010712Y011062D01*
X010622Y011279D01*
X010456Y011445D01*
X010431Y011456D01*
X010538Y011501D01*
X010665Y011627D01*
X010733Y011792D01*
X010733Y011972D01*
X010665Y012137D01*
X010538Y012263D01*
X010373Y012332D01*
X010194Y012332D01*
X010097Y012292D01*
X007533Y012292D01*
X007383Y012230D01*
X007267Y012114D01*
X007155Y012002D01*
X006707Y012002D01*
X006600Y011958D01*
X006550Y011907D01*
X006499Y011958D01*
X006392Y012002D01*
X005797Y012002D01*
X005690Y011958D01*
X005609Y011876D01*
X005565Y011770D01*
X005565Y011769D01*
X005564Y011770D01*
X005545Y011804D01*
X005517Y011832D01*
X005483Y011852D01*
X005444Y011862D01*
X005235Y011862D01*
X005235Y011322D01*
X005135Y011322D01*
X005135Y011862D01*
X004925Y011862D01*
X004887Y011852D01*
X004853Y011832D01*
X004825Y011804D01*
X004805Y011770D01*
X004795Y011732D01*
X004795Y011322D01*
X005135Y011322D01*
X005135Y011222D01*
X005235Y011222D01*
X005235Y010682D01*
X005444Y010682D01*
X005483Y010692D01*
X005517Y010712D01*
X005545Y010740D01*
X005564Y010774D01*
X005565Y010775D01*
X005565Y010774D01*
X005609Y010668D01*
X005690Y010586D01*
X005725Y010572D01*
X005725Y009555D01*
X005328Y009555D01*
X005222Y009511D01*
X005140Y009429D01*
X005096Y009323D01*
X005096Y009202D01*
X003965Y009202D01*
X003965Y009203D01*
X003838Y009329D01*
X003673Y009398D01*
X003494Y009398D01*
X003328Y009329D01*
X003202Y009203D01*
X003133Y009037D01*
X003133Y009021D01*
X002773Y008660D01*
X002716Y008524D01*
X002716Y001585D01*
X002773Y001449D01*
X002877Y001345D01*
X003068Y001153D01*
X003204Y001097D01*
X003582Y001097D01*
X003872Y000807D01*
X004325Y000807D01*
X004481Y000650D01*
X002604Y000650D01*
X002604Y000741D02*
X004390Y000741D01*
X004779Y000833D02*
X011972Y000833D01*
X012146Y001006D01*
X012146Y001467D01*
X011792Y001956D02*
X011649Y002099D01*
X011792Y001956D02*
X012656Y001956D01*
X013146Y001467D01*
X013550Y000938D02*
X013741Y000938D01*
X013839Y000840D02*
X013452Y000840D01*
X012839Y000840D02*
X012452Y000840D01*
X012361Y000741D02*
X024735Y000741D01*
X024735Y000840D02*
X022452Y000840D01*
X022550Y000938D02*
X024735Y000938D01*
X024735Y001037D02*
X023451Y001037D01*
X023361Y000947D02*
X023666Y001251D01*
X023666Y001417D01*
X023196Y001417D01*
X023196Y000947D01*
X023361Y000947D01*
X023196Y001037D02*
X023096Y001037D01*
X023096Y001135D02*
X023196Y001135D01*
X023196Y001234D02*
X023096Y001234D01*
X023096Y001332D02*
X023196Y001332D01*
X023196Y001431D02*
X024735Y001431D01*
X024735Y001529D02*
X023666Y001529D01*
X023666Y001628D02*
X024735Y001628D01*
X024735Y001726D02*
X023622Y001726D01*
X023523Y001825D02*
X024735Y001825D01*
X024735Y001923D02*
X023535Y001923D01*
X023634Y002022D02*
X024735Y002022D01*
X024735Y002120D02*
X023732Y002120D01*
X023806Y002219D02*
X024735Y002219D01*
X024735Y002317D02*
X023806Y002317D01*
X023806Y002416D02*
X024735Y002416D01*
X024735Y002514D02*
X023806Y002514D01*
X023806Y002613D02*
X024735Y002613D01*
X024735Y002711D02*
X023806Y002711D01*
X023736Y002810D02*
X024735Y002810D01*
X024735Y002908D02*
X023638Y002908D01*
X023539Y003007D02*
X024735Y003007D01*
X024735Y003105D02*
X023441Y003105D01*
X022851Y003105D02*
X022441Y003105D01*
X022539Y003007D02*
X022752Y003007D01*
X022654Y002908D02*
X022638Y002908D01*
X021851Y003105D02*
X021441Y003105D01*
X021539Y003007D02*
X021752Y003007D01*
X021654Y002908D02*
X021638Y002908D01*
X020851Y003105D02*
X019441Y003105D01*
X019539Y003007D02*
X020752Y003007D01*
X020654Y002908D02*
X020440Y002908D01*
X020538Y002810D02*
X020555Y002810D01*
X020196Y002810D02*
X020096Y002810D01*
X020096Y002908D02*
X020196Y002908D01*
X020196Y002711D02*
X020096Y002711D01*
X020096Y002613D02*
X020196Y002613D01*
X020196Y002514D02*
X020486Y002514D01*
X020196Y002417D02*
X020196Y002127D01*
X020096Y002127D01*
X020096Y002417D01*
X020196Y002417D01*
X020196Y002416D02*
X020096Y002416D01*
X020096Y002417D02*
X019806Y002417D01*
X019806Y002517D01*
X020096Y002517D01*
X020096Y002417D01*
X020096Y002514D02*
X019806Y002514D01*
X019753Y002810D02*
X019736Y002810D01*
X019638Y002908D02*
X019852Y002908D01*
X020096Y002317D02*
X020196Y002317D01*
X020196Y002219D02*
X020096Y002219D01*
X018851Y003105D02*
X017441Y003105D01*
X017539Y003007D02*
X018752Y003007D01*
X018654Y002908D02*
X018440Y002908D01*
X018538Y002810D02*
X018555Y002810D01*
X018486Y002514D02*
X018196Y002514D01*
X018196Y002417D02*
X018196Y002127D01*
X018096Y002127D01*
X018096Y002417D01*
X018196Y002417D01*
X018196Y002416D02*
X018096Y002416D01*
X018096Y002417D02*
X017806Y002417D01*
X017806Y002517D01*
X018096Y002517D01*
X018096Y002417D01*
X018096Y002514D02*
X017806Y002514D01*
X018096Y002613D02*
X018196Y002613D01*
X018196Y002711D02*
X018096Y002711D01*
X018096Y002810D02*
X018196Y002810D01*
X018196Y002908D02*
X018096Y002908D01*
X017852Y002908D02*
X017638Y002908D01*
X017736Y002810D02*
X017753Y002810D01*
X018096Y002317D02*
X018196Y002317D01*
X018196Y002219D02*
X018096Y002219D01*
X016851Y003105D02*
X016441Y003105D01*
X016539Y003007D02*
X016752Y003007D01*
X016654Y002908D02*
X016638Y002908D01*
X015851Y003105D02*
X015441Y003105D01*
X015539Y003007D02*
X015752Y003007D01*
X015654Y002908D02*
X015638Y002908D01*
X014975Y003204D02*
X024735Y003204D01*
X024735Y003302D02*
X014931Y003302D01*
X014832Y003401D02*
X024735Y003401D01*
X024735Y003499D02*
X014734Y003499D01*
X014635Y003598D02*
X024735Y003598D01*
X024735Y003696D02*
X021159Y003696D01*
X021229Y003795D02*
X024735Y003795D01*
X024735Y003893D02*
X021253Y003893D01*
X021253Y003992D02*
X024735Y003992D01*
X024735Y004090D02*
X021253Y004090D01*
X021253Y004189D02*
X024735Y004189D01*
X024735Y004287D02*
X021253Y004287D01*
X021253Y004386D02*
X024735Y004386D01*
X024735Y004484D02*
X021253Y004484D01*
X021253Y004583D02*
X024735Y004583D01*
X024735Y004681D02*
X021218Y004681D01*
X021133Y004780D02*
X024735Y004780D01*
X024735Y004878D02*
X021031Y004878D01*
X021021Y004872D02*
X021055Y004892D01*
X021083Y004920D01*
X021103Y004954D01*
X021113Y004992D01*
X021113Y005277D01*
X020659Y005277D01*
X020659Y004862D01*
X020983Y004862D01*
X021021Y004872D01*
X021109Y004977D02*
X024735Y004977D01*
X024735Y005075D02*
X021113Y005075D01*
X021113Y005174D02*
X024735Y005174D01*
X024735Y005272D02*
X021113Y005272D01*
X021113Y005469D02*
X024735Y005469D01*
X024735Y005371D02*
X020659Y005371D01*
X020659Y005469D02*
X020559Y005469D01*
X020559Y005568D02*
X020659Y005568D01*
X020659Y005666D02*
X020559Y005666D01*
X020559Y005765D02*
X020659Y005765D01*
X020805Y005970D02*
X020805Y005486D01*
X020659Y005272D02*
X020559Y005272D01*
X020559Y005174D02*
X020659Y005174D01*
X020659Y005075D02*
X020559Y005075D01*
X020559Y004977D02*
X020659Y004977D01*
X020659Y004878D02*
X020559Y004878D01*
X020187Y004878D02*
X020138Y004878D01*
X020104Y005469D02*
X020091Y005469D01*
X020104Y005568D02*
X019965Y005568D01*
X020105Y005666D02*
X015539Y005666D01*
X015560Y005765D02*
X020166Y005765D01*
X020497Y006278D02*
X020805Y005970D01*
X021051Y005765D02*
X024735Y005765D01*
X024735Y005863D02*
X015560Y005863D01*
X015533Y005962D02*
X024735Y005962D01*
X024735Y006060D02*
X015492Y006060D01*
X015395Y006159D02*
X024735Y006159D01*
X024735Y006257D02*
X013794Y006257D01*
X013795Y006356D02*
X024735Y006356D01*
X024735Y006454D02*
X013795Y006454D01*
X013776Y006553D02*
X024735Y006553D01*
X024735Y006651D02*
X013736Y006651D01*
X013686Y006750D02*
X024735Y006750D01*
X024735Y006848D02*
X013588Y006848D01*
X013615Y006947D02*
X024735Y006947D01*
X024735Y007045D02*
X013706Y007045D01*
X013747Y007144D02*
X024735Y007144D01*
X024735Y007242D02*
X013787Y007242D01*
X013795Y007341D02*
X024735Y007341D01*
X024735Y007439D02*
X013795Y007439D01*
X013783Y007538D02*
X014344Y007538D01*
X014194Y007636D02*
X013742Y007636D01*
X013701Y007735D02*
X014116Y007735D01*
X014075Y007833D02*
X013603Y007833D01*
X013600Y007932D02*
X014054Y007932D01*
X013956Y008030D02*
X013698Y008030D01*
X013740Y008129D02*
X013857Y008129D01*
X014511Y007955D02*
X013574Y008893D01*
X009642Y008893D01*
X009266Y008516D01*
X009266Y005274D01*
X009561Y004979D01*
X010102Y004979D01*
X010275Y004805D01*
X010275Y003318D01*
X010660Y002934D01*
X010196Y002917D02*
X010083Y003030D01*
X009987Y003126D01*
X009935Y003251D01*
X009935Y004639D01*
X009910Y004639D01*
X009922Y004610D01*
X009922Y004431D01*
X009854Y004266D01*
X009727Y004139D01*
X009562Y004071D01*
X009383Y004071D01*
X009217Y004139D01*
X009176Y004181D01*
X008973Y004181D01*
X009002Y004152D01*
X009070Y003987D01*
X009070Y003808D01*
X009002Y003643D01*
X008875Y003516D01*
X008710Y003448D01*
X008531Y003448D01*
X008365Y003516D01*
X008334Y003548D01*
X007522Y003548D01*
X007474Y003499D01*
X008406Y003499D01*
X008419Y003127D02*
X007872Y003127D01*
X007646Y002900D01*
X007419Y003127D01*
X006872Y003127D01*
X006547Y002801D01*
X006361Y002987D01*
X006196Y002987D01*
X006196Y002517D01*
X006486Y002517D01*
X006486Y002417D01*
X006196Y002417D01*
X006196Y002517D01*
X006096Y002517D01*
X006096Y002987D01*
X005964Y002987D01*
X005964Y004025D01*
X006120Y004181D01*
X006883Y004181D01*
X006837Y004135D01*
X006769Y003970D01*
X006769Y003791D01*
X006837Y003626D01*
X006964Y003499D01*
X007129Y003430D01*
X007308Y003430D01*
X007474Y003499D01*
X007441Y003105D02*
X007851Y003105D01*
X007752Y003007D02*
X007539Y003007D01*
X007638Y002908D02*
X007654Y002908D01*
X008419Y003127D02*
X008646Y002900D01*
X008872Y003127D01*
X009419Y003127D01*
X009745Y002801D01*
X009930Y002987D01*
X010096Y002987D01*
X010096Y002517D01*
X010196Y002517D01*
X010335Y002517D01*
X010335Y002417D01*
X010196Y002417D01*
X010196Y002517D01*
X010196Y002917D01*
X010196Y002908D02*
X010096Y002908D01*
X010096Y002810D02*
X010196Y002810D01*
X010196Y002711D02*
X010096Y002711D01*
X010096Y002613D02*
X010196Y002613D01*
X010196Y002514D02*
X010335Y002514D01*
X010196Y002417D02*
X010196Y002127D01*
X010096Y002127D01*
X010096Y002417D01*
X010196Y002417D01*
X010196Y002416D02*
X010096Y002416D01*
X010096Y002417D02*
X009806Y002417D01*
X009806Y002517D01*
X010096Y002517D01*
X010096Y002417D01*
X010146Y002467D02*
X009640Y001961D01*
X009623Y001923D02*
X009669Y001923D01*
X009646Y001900D02*
X009811Y002066D01*
X009745Y002132D01*
X009579Y001967D01*
X009646Y001900D01*
X009634Y002022D02*
X009767Y002022D01*
X009757Y002120D02*
X009732Y002120D01*
X010096Y002219D02*
X010196Y002219D01*
X010196Y002317D02*
X010096Y002317D01*
X010096Y002514D02*
X009806Y002514D01*
X009753Y002810D02*
X009736Y002810D01*
X009638Y002908D02*
X009852Y002908D01*
X010008Y003105D02*
X009441Y003105D01*
X009539Y003007D02*
X010106Y003007D01*
X009955Y003204D02*
X005964Y003204D01*
X005964Y003302D02*
X009935Y003302D01*
X009935Y003401D02*
X005964Y003401D01*
X005964Y003499D02*
X006964Y003499D01*
X006865Y003598D02*
X005964Y003598D01*
X005964Y003696D02*
X006808Y003696D01*
X006769Y003795D02*
X005964Y003795D01*
X005964Y003893D02*
X006769Y003893D01*
X006778Y003992D02*
X005964Y003992D01*
X006029Y004090D02*
X006819Y004090D01*
X005979Y004521D02*
X005639Y004180D01*
X005979Y004521D02*
X009472Y004521D01*
X009776Y004189D02*
X009935Y004189D01*
X009935Y004287D02*
X009862Y004287D01*
X009903Y004386D02*
X009935Y004386D01*
X009922Y004484D02*
X009935Y004484D01*
X009922Y004583D02*
X009935Y004583D01*
X009935Y004090D02*
X009608Y004090D01*
X009336Y004090D02*
X009027Y004090D01*
X009068Y003992D02*
X009935Y003992D01*
X009935Y003893D02*
X009070Y003893D01*
X009065Y003795D02*
X009935Y003795D01*
X009935Y003696D02*
X009024Y003696D01*
X008956Y003598D02*
X009935Y003598D01*
X009935Y003499D02*
X008834Y003499D01*
X008851Y003105D02*
X008441Y003105D01*
X008539Y003007D02*
X008752Y003007D01*
X008654Y002908D02*
X008638Y002908D01*
X008146Y001861D02*
X008146Y001467D01*
X008196Y001431D02*
X008486Y001431D01*
X008486Y001417D02*
X008196Y001417D01*
X008196Y001517D01*
X008486Y001517D01*
X008486Y001417D01*
X008196Y001417D02*
X008196Y001173D01*
X008096Y001173D01*
X008096Y001417D01*
X008196Y001417D01*
X008196Y001332D02*
X008096Y001332D01*
X008096Y001417D02*
X007806Y001417D01*
X007806Y001517D01*
X008096Y001517D01*
X008096Y001807D01*
X008196Y001807D01*
X008196Y001517D01*
X008096Y001517D01*
X008096Y001417D01*
X008096Y001431D02*
X007806Y001431D01*
X008096Y001529D02*
X008196Y001529D01*
X008196Y001628D02*
X008096Y001628D01*
X008096Y001726D02*
X008196Y001726D01*
X008196Y001234D02*
X008096Y001234D01*
X006712Y001967D02*
X006646Y001900D01*
X006480Y002066D01*
X006547Y002132D01*
X006712Y001967D01*
X006669Y001923D02*
X006623Y001923D01*
X006607Y001961D02*
X006146Y002422D01*
X006146Y002467D01*
X006196Y002514D02*
X006486Y002514D01*
X006196Y002417D02*
X006196Y002127D01*
X006096Y002127D01*
X006096Y002417D01*
X006196Y002417D01*
X006196Y002416D02*
X006096Y002416D01*
X006096Y002417D02*
X005964Y002417D01*
X005964Y002517D01*
X006096Y002517D01*
X006096Y002417D01*
X006096Y002514D02*
X005964Y002514D01*
X006096Y002613D02*
X006196Y002613D01*
X006196Y002711D02*
X006096Y002711D01*
X006096Y002810D02*
X006196Y002810D01*
X006196Y002908D02*
X006096Y002908D01*
X005964Y003007D02*
X006752Y003007D01*
X006851Y003105D02*
X005964Y003105D01*
X006440Y002908D02*
X006654Y002908D01*
X006555Y002810D02*
X006538Y002810D01*
X006196Y002317D02*
X006096Y002317D01*
X006096Y002219D02*
X006196Y002219D01*
X006534Y002120D02*
X006559Y002120D01*
X006524Y002022D02*
X006657Y002022D01*
X006146Y001471D02*
X006146Y001467D01*
X006146Y001471D02*
X005639Y001978D01*
X005146Y001467D02*
X004629Y001983D01*
X003674Y001983D01*
X003372Y002285D01*
X003372Y005421D01*
X003658Y005707D01*
X005514Y005707D01*
X003898Y006651D02*
X003080Y006651D01*
X003080Y006553D02*
X003799Y006553D01*
X003701Y006454D02*
X003080Y006454D01*
X003080Y006356D02*
X003602Y006356D01*
X003504Y006257D02*
X003080Y006257D01*
X003080Y006159D02*
X003405Y006159D01*
X003307Y006060D02*
X003080Y006060D01*
X003080Y005962D02*
X003208Y005962D01*
X003110Y005863D02*
X003080Y005863D01*
X003080Y005837D02*
X003080Y008437D01*
X003552Y008910D01*
X005236Y008910D01*
X005236Y008882D01*
X006045Y008882D01*
X006045Y008798D01*
X006029Y008782D01*
X005236Y008782D01*
X005236Y008379D01*
X005246Y008341D01*
X005266Y008307D01*
X005294Y008279D01*
X005328Y008259D01*
X005366Y008249D01*
X005496Y008249D01*
X003080Y005833D01*
X003080Y005837D01*
X002716Y005863D02*
X002604Y005863D01*
X002604Y005765D02*
X002716Y005765D01*
X002716Y005666D02*
X002604Y005666D01*
X002604Y005568D02*
X002716Y005568D01*
X002716Y005469D02*
X002604Y005469D01*
X002604Y005371D02*
X002716Y005371D01*
X002716Y005272D02*
X002604Y005272D01*
X002604Y005174D02*
X002716Y005174D01*
X002716Y005075D02*
X002604Y005075D01*
X002604Y004977D02*
X002716Y004977D01*
X002716Y004878D02*
X002604Y004878D01*
X002604Y004780D02*
X002716Y004780D01*
X002716Y004681D02*
X002604Y004681D01*
X002604Y004583D02*
X002716Y004583D01*
X002716Y004484D02*
X002604Y004484D01*
X002604Y004386D02*
X002716Y004386D01*
X002716Y004287D02*
X002604Y004287D01*
X002604Y004189D02*
X002716Y004189D01*
X002716Y004090D02*
X002604Y004090D01*
X002604Y003992D02*
X002716Y003992D01*
X002716Y003893D02*
X002604Y003893D01*
X002604Y003795D02*
X002716Y003795D01*
X002716Y003696D02*
X002604Y003696D01*
X002604Y003598D02*
X002716Y003598D01*
X002716Y003499D02*
X002604Y003499D01*
X002604Y003401D02*
X002716Y003401D01*
X002716Y003302D02*
X002604Y003302D01*
X002604Y003204D02*
X002716Y003204D01*
X002716Y003105D02*
X002604Y003105D01*
X002604Y003007D02*
X002716Y003007D01*
X002716Y002908D02*
X002604Y002908D01*
X002604Y002810D02*
X002716Y002810D01*
X002716Y002711D02*
X002604Y002711D01*
X002604Y002613D02*
X002716Y002613D01*
X002716Y002514D02*
X002604Y002514D01*
X002604Y002416D02*
X002716Y002416D01*
X002716Y002317D02*
X002604Y002317D01*
X002604Y002219D02*
X002716Y002219D01*
X002716Y002120D02*
X002604Y002120D01*
X002604Y002022D02*
X002716Y002022D01*
X002716Y001923D02*
X002604Y001923D01*
X002604Y001825D02*
X002716Y001825D01*
X002716Y001726D02*
X002604Y001726D01*
X002604Y001628D02*
X002716Y001628D01*
X002739Y001529D02*
X002604Y001529D01*
X002604Y001431D02*
X002791Y001431D01*
X002889Y001332D02*
X002604Y001332D01*
X002604Y001234D02*
X002988Y001234D01*
X003112Y001135D02*
X002604Y001135D01*
X002604Y001037D02*
X003642Y001037D01*
X003741Y000938D02*
X002604Y000938D01*
X002604Y000840D02*
X003839Y000840D01*
X004146Y001467D02*
X004779Y000833D01*
X010660Y001956D02*
X011146Y001470D01*
X011146Y001467D01*
X012550Y000938D02*
X012741Y000938D01*
X013651Y001962D02*
X014146Y001467D01*
X014550Y000938D02*
X014741Y000938D01*
X014839Y000840D02*
X014452Y000840D01*
X015146Y001467D02*
X014648Y001965D01*
X015806Y001517D02*
X016096Y001517D01*
X016096Y001807D01*
X016196Y001807D01*
X016196Y001517D01*
X016096Y001517D01*
X016096Y001417D01*
X015806Y001417D01*
X015806Y001517D01*
X015806Y001431D02*
X016096Y001431D01*
X016096Y001529D02*
X016196Y001529D01*
X016196Y001431D02*
X016486Y001431D01*
X016196Y001332D02*
X016096Y001332D01*
X016096Y001234D02*
X016196Y001234D01*
X016196Y001135D02*
X016096Y001135D01*
X016096Y001037D02*
X016196Y001037D01*
X016451Y001037D02*
X016642Y001037D01*
X016741Y000938D02*
X015550Y000938D01*
X015452Y000840D02*
X016839Y000840D01*
X017452Y000840D02*
X017839Y000840D01*
X017741Y000938D02*
X017550Y000938D01*
X018452Y000840D02*
X018839Y000840D01*
X018741Y000938D02*
X018550Y000938D01*
X019452Y000840D02*
X019839Y000840D01*
X019741Y000938D02*
X019550Y000938D01*
X020452Y000840D02*
X020839Y000840D01*
X020741Y000938D02*
X020550Y000938D01*
X021452Y000840D02*
X021839Y000840D01*
X021741Y000938D02*
X021550Y000938D01*
X022649Y001037D02*
X022840Y001037D01*
X022806Y001417D02*
X023096Y001417D01*
X023096Y001517D01*
X023096Y001807D01*
X023196Y001807D01*
X023196Y001517D01*
X023096Y001517D01*
X022806Y001517D01*
X022806Y001417D01*
X022806Y001431D02*
X023096Y001431D01*
X023096Y001529D02*
X023196Y001529D01*
X023196Y001628D02*
X023096Y001628D01*
X023096Y001726D02*
X023196Y001726D01*
X023666Y001332D02*
X024735Y001332D01*
X024735Y001234D02*
X023648Y001234D01*
X023549Y001135D02*
X024735Y001135D01*
X020058Y003696D02*
X014537Y003696D01*
X014564Y003795D02*
X019254Y003795D01*
X019134Y003893D02*
X014662Y003893D01*
X014761Y003992D02*
X019036Y003992D01*
X018937Y004090D02*
X014859Y004090D01*
X014958Y004189D02*
X018839Y004189D01*
X018798Y004922D02*
X017467Y004922D01*
X017246Y005143D01*
X016828Y004977D02*
X016338Y004977D01*
X016338Y005075D02*
X016796Y005075D01*
X016796Y005174D02*
X016338Y005174D01*
X016338Y005272D02*
X016812Y005272D01*
X016853Y005371D02*
X016334Y005371D01*
X016291Y005469D02*
X016935Y005469D01*
X017094Y005568D02*
X016165Y005568D01*
X015110Y005806D02*
X014998Y005694D01*
X014998Y004922D01*
X014658Y005666D02*
X013603Y005666D01*
X013609Y005655D02*
X013590Y005689D01*
X013562Y005717D01*
X013527Y005737D01*
X013489Y005747D01*
X013165Y005747D01*
X013165Y005332D01*
X013620Y005332D01*
X013620Y005617D01*
X013609Y005655D01*
X013620Y005568D02*
X013832Y005568D01*
X013705Y005469D02*
X013620Y005469D01*
X013620Y005371D02*
X013663Y005371D01*
X013658Y005272D02*
X013165Y005272D01*
X013165Y005232D02*
X013165Y005332D01*
X013065Y005332D01*
X013065Y005232D01*
X013165Y005232D01*
X013165Y004817D01*
X013489Y004817D01*
X013527Y004828D01*
X013562Y004847D01*
X013590Y004875D01*
X013609Y004910D01*
X013620Y004948D01*
X013620Y005232D01*
X013165Y005232D01*
X013165Y005174D02*
X013065Y005174D01*
X013065Y005232D02*
X013065Y004817D01*
X012741Y004817D01*
X012703Y004828D01*
X012669Y004847D01*
X012641Y004875D01*
X012621Y004910D01*
X012611Y004948D01*
X012611Y005232D01*
X013065Y005232D01*
X013065Y005272D02*
X012449Y005272D01*
X012449Y005174D02*
X012611Y005174D01*
X012611Y005075D02*
X012449Y005075D01*
X012449Y004977D02*
X012611Y004977D01*
X012639Y004878D02*
X012449Y004878D01*
X012449Y004780D02*
X012690Y004780D01*
X012537Y004681D02*
X012449Y004681D01*
X012449Y004583D02*
X012483Y004583D01*
X012471Y004484D02*
X012449Y004484D01*
X012449Y004386D02*
X012471Y004386D01*
X012471Y004287D02*
X012449Y004287D01*
X012109Y004103D02*
X012109Y005405D01*
X011622Y005891D01*
X011622Y006725D01*
X010991Y006973D02*
X011402Y007384D01*
X012845Y007384D01*
X012845Y008384D02*
X010887Y008384D01*
X010670Y008167D01*
X010670Y004104D01*
X011649Y003125D01*
X012146Y003183D02*
X011147Y004182D01*
X011147Y005063D01*
X011175Y005164D01*
X011717Y005348D02*
X010991Y006073D01*
X010991Y006973D01*
X010330Y006947D02*
X009606Y006947D01*
X009606Y007045D02*
X010330Y007045D01*
X010330Y007144D02*
X009606Y007144D01*
X009606Y007242D02*
X010330Y007242D01*
X010330Y007341D02*
X010191Y007341D01*
X010172Y007341D02*
X010072Y007341D01*
X010072Y007337D02*
X010072Y008035D01*
X010172Y008035D01*
X010172Y007337D01*
X010227Y007346D01*
X010295Y007368D01*
X010330Y007386D01*
X010330Y005231D01*
X010294Y005267D01*
X010169Y005319D01*
X009702Y005319D01*
X009606Y005415D01*
X009606Y008375D01*
X009676Y008446D01*
X009672Y008421D01*
X009672Y008135D01*
X010072Y008135D01*
X010072Y008035D01*
X009672Y008035D01*
X009672Y007750D01*
X009683Y007680D01*
X009705Y007612D01*
X009737Y007549D01*
X009779Y007492D01*
X009829Y007442D01*
X009886Y007400D01*
X009949Y007368D01*
X010017Y007346D01*
X010072Y007337D01*
X010052Y007341D02*
X009606Y007341D01*
X009606Y007439D02*
X009833Y007439D01*
X009746Y007538D02*
X009606Y007538D01*
X009606Y007636D02*
X009697Y007636D01*
X009674Y007735D02*
X009606Y007735D01*
X009606Y007833D02*
X009672Y007833D01*
X009672Y007932D02*
X009606Y007932D01*
X009606Y008030D02*
X009672Y008030D01*
X009606Y008129D02*
X010072Y008129D01*
X010072Y008030D02*
X010172Y008030D01*
X010172Y007932D02*
X010072Y007932D01*
X010072Y007833D02*
X010172Y007833D01*
X010172Y007735D02*
X010072Y007735D01*
X010072Y007636D02*
X010172Y007636D01*
X010172Y007538D02*
X010072Y007538D01*
X010072Y007439D02*
X010172Y007439D01*
X010330Y006848D02*
X009606Y006848D01*
X009606Y006750D02*
X010330Y006750D01*
X010330Y006651D02*
X009606Y006651D01*
X009606Y006553D02*
X010330Y006553D01*
X010330Y006454D02*
X009606Y006454D01*
X009606Y006356D02*
X010330Y006356D01*
X010330Y006257D02*
X009606Y006257D01*
X009606Y006159D02*
X010330Y006159D01*
X010330Y006060D02*
X009606Y006060D01*
X009606Y005962D02*
X010330Y005962D01*
X010330Y005863D02*
X009606Y005863D01*
X009606Y005765D02*
X010330Y005765D01*
X010330Y005666D02*
X009606Y005666D01*
X009606Y005568D02*
X010330Y005568D01*
X010330Y005469D02*
X009606Y005469D01*
X009650Y005371D02*
X010330Y005371D01*
X010330Y005272D02*
X010283Y005272D01*
X011717Y005348D02*
X011717Y004049D01*
X012470Y003295D01*
X013388Y003295D01*
X013651Y003032D01*
X013196Y002955D02*
X013196Y002517D01*
X013326Y002517D01*
X013326Y002417D01*
X013196Y002417D01*
X013196Y002517D01*
X013096Y002517D01*
X013096Y002955D01*
X013196Y002955D01*
X013196Y002908D02*
X013096Y002908D01*
X013096Y002810D02*
X013196Y002810D01*
X013196Y002711D02*
X013096Y002711D01*
X013096Y002613D02*
X013196Y002613D01*
X013196Y002514D02*
X013326Y002514D01*
X013196Y002417D02*
X013196Y002127D01*
X013096Y002127D01*
X013096Y002417D01*
X013196Y002417D01*
X013196Y002416D02*
X013096Y002416D01*
X013096Y002417D02*
X012806Y002417D01*
X012806Y002517D01*
X013096Y002517D01*
X013096Y002417D01*
X013096Y002514D02*
X012806Y002514D01*
X013096Y002317D02*
X013196Y002317D01*
X013196Y002219D02*
X013096Y002219D01*
X012146Y002467D02*
X012146Y003183D01*
X012661Y003550D02*
X012109Y004103D01*
X012661Y003550D02*
X014201Y003550D01*
X014648Y003104D01*
X016191Y004287D02*
X017606Y004287D01*
X017398Y004583D02*
X016338Y004583D01*
X016338Y004681D02*
X017227Y004681D01*
X016973Y004780D02*
X016338Y004780D01*
X016338Y004878D02*
X016875Y004878D01*
X017397Y005568D02*
X017632Y005568D01*
X014826Y006159D02*
X013753Y006159D01*
X013712Y006060D02*
X014728Y006060D01*
X014688Y005962D02*
X013630Y005962D01*
X013531Y005863D02*
X014660Y005863D01*
X014659Y005765D02*
X013300Y005765D01*
X013165Y005666D02*
X013065Y005666D01*
X013065Y005747D02*
X012741Y005747D01*
X012703Y005737D01*
X012669Y005717D01*
X012641Y005689D01*
X012621Y005655D01*
X012611Y005617D01*
X012611Y005332D01*
X013065Y005332D01*
X013065Y005747D01*
X012627Y005666D02*
X012328Y005666D01*
X012391Y005765D02*
X012230Y005765D01*
X012159Y005863D02*
X012131Y005863D01*
X012061Y005962D02*
X012033Y005962D01*
X011978Y006060D02*
X011962Y006060D01*
X012409Y005568D02*
X012611Y005568D01*
X012611Y005469D02*
X012449Y005469D01*
X012449Y005371D02*
X012611Y005371D01*
X013065Y005371D02*
X013165Y005371D01*
X013099Y005310D02*
X014068Y006278D01*
X020497Y006278D01*
X021112Y005666D02*
X024735Y005666D01*
X024735Y005568D02*
X021113Y005568D01*
X024735Y007538D02*
X014678Y007538D01*
X014828Y007636D02*
X024735Y007636D01*
X024735Y007735D02*
X014907Y007735D01*
X014948Y007833D02*
X024735Y007833D01*
X024735Y007932D02*
X014961Y007932D01*
X014961Y008030D02*
X024735Y008030D01*
X024735Y008129D02*
X014927Y008129D01*
X014876Y008227D02*
X024735Y008227D01*
X024735Y008326D02*
X014777Y008326D01*
X014523Y008424D02*
X024735Y008424D01*
X024735Y008523D02*
X014425Y008523D01*
X014326Y008621D02*
X024735Y008621D01*
X024735Y008720D02*
X014228Y008720D01*
X014129Y008818D02*
X024735Y008818D01*
X024735Y008917D02*
X014031Y008917D01*
X013932Y009015D02*
X024735Y009015D01*
X024732Y009114D02*
X013834Y009114D01*
X013775Y009212D02*
X024633Y009212D01*
X024535Y009311D02*
X013795Y009311D01*
X013795Y009409D02*
X024436Y009409D01*
X024338Y009508D02*
X013795Y009508D01*
X013754Y009606D02*
X024239Y009606D01*
X024141Y009705D02*
X013713Y009705D01*
X013633Y009803D02*
X024042Y009803D01*
X023944Y009902D02*
X013570Y009902D01*
X013668Y010000D02*
X023845Y010000D01*
X023747Y010099D02*
X013728Y010099D01*
X013769Y010197D02*
X023648Y010197D01*
X023550Y010296D02*
X013795Y010296D01*
X013795Y010394D02*
X023451Y010394D01*
X023353Y010493D02*
X013795Y010493D01*
X013760Y010591D02*
X023254Y010591D01*
X023156Y010690D02*
X013720Y010690D01*
X013648Y010788D02*
X023057Y010788D01*
X022959Y010887D02*
X013549Y010887D01*
X013443Y010985D02*
X022860Y010985D01*
X022791Y011084D02*
X013550Y011084D01*
X013611Y011182D02*
X022750Y011182D01*
X022735Y011281D02*
X013645Y011281D01*
X013655Y011413D02*
X013655Y011422D01*
X013643Y011496D01*
X013620Y011568D01*
X013586Y011636D01*
X013541Y011697D01*
X013488Y011750D01*
X013427Y011795D01*
X013359Y011829D01*
X013288Y011852D01*
X013213Y011864D01*
X012874Y011864D01*
X012874Y011413D01*
X013655Y011413D01*
X013646Y011478D02*
X022735Y011478D01*
X022735Y011576D02*
X013616Y011576D01*
X013557Y011675D02*
X022735Y011675D01*
X022735Y011773D02*
X013456Y011773D01*
X012874Y011773D02*
X012816Y011773D01*
X012816Y011864D02*
X012477Y011864D01*
X012403Y011852D01*
X012331Y011829D01*
X012264Y011795D01*
X012202Y011750D01*
X012149Y011697D01*
X012105Y011636D01*
X012070Y011568D01*
X012047Y011496D01*
X012035Y011422D01*
X012035Y011413D01*
X012816Y011413D01*
X012816Y011864D01*
X012816Y011675D02*
X012874Y011675D01*
X012874Y011576D02*
X012816Y011576D01*
X012816Y011478D02*
X012874Y011478D01*
X012874Y011379D02*
X022735Y011379D01*
X022735Y011872D02*
X010733Y011872D01*
X010733Y011970D02*
X022735Y011970D01*
X022735Y012069D02*
X010693Y012069D01*
X010635Y012167D02*
X022735Y012167D01*
X022735Y012266D02*
X021390Y012266D01*
X021576Y012364D02*
X022735Y012364D01*
X022735Y012463D02*
X021674Y012463D01*
X021730Y012561D02*
X022735Y012561D01*
X022735Y012660D02*
X021770Y012660D01*
X021786Y012758D02*
X022735Y012758D01*
X022735Y012857D02*
X021786Y012857D01*
X021786Y012955D02*
X022735Y012955D01*
X022735Y013054D02*
X021786Y013054D01*
X021786Y013152D02*
X022735Y013152D01*
X022735Y013251D02*
X021786Y013251D01*
X021786Y013349D02*
X022735Y013349D01*
X022735Y013448D02*
X021786Y013448D01*
X021760Y013546D02*
X022735Y013546D01*
X022735Y013645D02*
X021719Y013645D01*
X021650Y013743D02*
X022735Y013743D01*
X022735Y013842D02*
X021551Y013842D01*
X021330Y013940D02*
X022735Y013940D01*
X022735Y014039D02*
X020626Y014039D01*
X020626Y014137D02*
X022735Y014137D01*
X022735Y014236D02*
X020626Y014236D01*
X020626Y014334D02*
X022735Y014334D01*
X022735Y014433D02*
X020626Y014433D01*
X020680Y014531D02*
X020964Y014531D01*
X020848Y014630D02*
X020756Y014630D01*
X021185Y014630D02*
X021243Y014630D01*
X021243Y014728D02*
X021185Y014728D01*
X021185Y014827D02*
X021243Y014827D01*
X021243Y014925D02*
X021185Y014925D01*
X021185Y015024D02*
X021243Y015024D01*
X021243Y015122D02*
X021185Y015122D01*
X021185Y015221D02*
X021243Y015221D01*
X021243Y015319D02*
X021185Y015319D01*
X021185Y015418D02*
X021243Y015418D01*
X021243Y015516D02*
X021185Y015516D01*
X021185Y015615D02*
X021243Y015615D01*
X021243Y015713D02*
X021185Y015713D01*
X021185Y015812D02*
X021243Y015812D01*
X021243Y015910D02*
X021185Y015910D01*
X021185Y016009D02*
X021243Y016009D01*
X021471Y016009D02*
X022281Y016009D01*
X022183Y016107D02*
X020586Y016107D01*
X020684Y016009D02*
X020957Y016009D01*
X020844Y015910D02*
X020758Y015910D01*
X020377Y016206D02*
X022084Y016206D01*
X022380Y015910D02*
X021584Y015910D01*
X021646Y015812D02*
X022478Y015812D01*
X022577Y015713D02*
X021682Y015713D01*
X021694Y015615D02*
X022675Y015615D01*
X022735Y015516D02*
X021694Y015516D01*
X021694Y015418D02*
X022735Y015418D01*
X022735Y015319D02*
X021694Y015319D01*
X021694Y015221D02*
X022735Y015221D01*
X022735Y015122D02*
X021694Y015122D01*
X021694Y015024D02*
X022735Y015024D01*
X022735Y014925D02*
X021694Y014925D01*
X021681Y014827D02*
X022735Y014827D01*
X022735Y014728D02*
X021644Y014728D01*
X021580Y014630D02*
X022735Y014630D01*
X022735Y014531D02*
X021464Y014531D01*
X021243Y014531D02*
X021185Y014531D01*
X021102Y013940D02*
X020626Y013940D01*
X020626Y013842D02*
X020881Y013842D01*
X020782Y013743D02*
X020650Y013743D01*
X020674Y012463D02*
X020758Y012463D01*
X020856Y012364D02*
X020576Y012364D01*
X020390Y012266D02*
X021042Y012266D01*
X020042Y012266D02*
X019390Y012266D01*
X019576Y012364D02*
X019856Y012364D01*
X019758Y012463D02*
X019674Y012463D01*
X019042Y012266D02*
X018390Y012266D01*
X018576Y012364D02*
X018856Y012364D01*
X018758Y012463D02*
X018674Y012463D01*
X018042Y012266D02*
X017390Y012266D01*
X017576Y012364D02*
X017856Y012364D01*
X017758Y012463D02*
X017674Y012463D01*
X017042Y012266D02*
X016390Y012266D01*
X016576Y012364D02*
X016856Y012364D01*
X016758Y012463D02*
X016674Y012463D01*
X016042Y012266D02*
X015390Y012266D01*
X015576Y012364D02*
X015856Y012364D01*
X015758Y012463D02*
X015674Y012463D01*
X015042Y012266D02*
X014390Y012266D01*
X014576Y012364D02*
X014856Y012364D01*
X014758Y012463D02*
X014674Y012463D01*
X014042Y012266D02*
X010533Y012266D01*
X010725Y011773D02*
X012234Y011773D01*
X012133Y011675D02*
X010685Y011675D01*
X010614Y011576D02*
X012074Y011576D01*
X012044Y011478D02*
X010483Y011478D01*
X010522Y011379D02*
X012816Y011379D01*
X012248Y010985D02*
X010712Y010985D01*
X010712Y010887D02*
X012141Y010887D01*
X012042Y010788D02*
X010712Y010788D01*
X010712Y010690D02*
X011971Y010690D01*
X011930Y010591D02*
X010712Y010591D01*
X010712Y010493D02*
X011895Y010493D01*
X011895Y010394D02*
X010712Y010394D01*
X010712Y010296D02*
X011895Y010296D01*
X011922Y010197D02*
X010699Y010197D01*
X010658Y010099D02*
X011962Y010099D01*
X012022Y010000D02*
X010611Y010000D01*
X010513Y009902D02*
X012121Y009902D01*
X012057Y009803D02*
X010355Y009803D01*
X009889Y009803D02*
X008575Y009803D01*
X008733Y009902D02*
X009731Y009902D01*
X009633Y010000D02*
X008831Y010000D01*
X008878Y010099D02*
X009585Y010099D01*
X009545Y010197D02*
X008919Y010197D01*
X008932Y010296D02*
X009532Y010296D01*
X009532Y010394D02*
X008932Y010394D01*
X008932Y010493D02*
X009532Y010493D01*
X009532Y010591D02*
X008932Y010591D01*
X008932Y010690D02*
X009532Y010690D01*
X009532Y010788D02*
X008932Y010788D01*
X008932Y010887D02*
X009532Y010887D01*
X009532Y010985D02*
X008932Y010985D01*
X008923Y011084D02*
X009541Y011084D01*
X009581Y011182D02*
X008882Y011182D01*
X008841Y011281D02*
X009623Y011281D01*
X009721Y011379D02*
X008742Y011379D01*
X007469Y012266D02*
X002604Y012266D01*
X002604Y012364D02*
X013856Y012364D01*
X013758Y012463D02*
X002604Y012463D01*
X002604Y012561D02*
X013702Y012561D01*
X013662Y012660D02*
X002604Y012660D01*
X002604Y012758D02*
X013646Y012758D01*
X013646Y012857D02*
X002604Y012857D01*
X002604Y012955D02*
X013646Y012955D01*
X013646Y013054D02*
X002604Y013054D01*
X002604Y013152D02*
X013646Y013152D01*
X013646Y013251D02*
X002604Y013251D01*
X002604Y013349D02*
X013646Y013349D01*
X013646Y013448D02*
X002604Y013448D01*
X002604Y013546D02*
X013672Y013546D01*
X013713Y013645D02*
X002604Y013645D01*
X002604Y013743D02*
X013782Y013743D01*
X013806Y013842D02*
X002604Y013842D01*
X002604Y013940D02*
X013806Y013940D01*
X013806Y014039D02*
X002604Y014039D01*
X002604Y014137D02*
X013806Y014137D01*
X013806Y014236D02*
X002604Y014236D01*
X002604Y014334D02*
X013806Y014334D01*
X013806Y014433D02*
X002604Y014433D01*
X002604Y014531D02*
X013748Y014531D01*
X013672Y014630D02*
X002604Y014630D01*
X002604Y014728D02*
X013632Y014728D01*
X013594Y014827D02*
X002604Y014827D01*
X002604Y014925D02*
X013594Y014925D01*
X013594Y015024D02*
X002604Y015024D01*
X002604Y015122D02*
X013594Y015122D01*
X013594Y015221D02*
X002604Y015221D01*
X002604Y015319D02*
X013594Y015319D01*
X013594Y015418D02*
X002677Y015418D01*
X002776Y015516D02*
X013594Y015516D01*
X013594Y015615D02*
X002874Y015615D01*
X002973Y015713D02*
X013594Y015713D01*
X013630Y015812D02*
X003071Y015812D01*
X003170Y015910D02*
X013670Y015910D01*
X013744Y016009D02*
X003268Y016009D01*
X003367Y016107D02*
X013842Y016107D01*
X014051Y016206D02*
X003465Y016206D01*
X002604Y012167D02*
X007320Y012167D01*
X007267Y012114D02*
X007267Y012114D01*
X007221Y012069D02*
X002604Y012069D01*
X002604Y011970D02*
X005720Y011970D01*
X005607Y011872D02*
X002604Y011872D01*
X002604Y011773D02*
X004807Y011773D01*
X004795Y011675D02*
X002604Y011675D01*
X002604Y011576D02*
X004795Y011576D01*
X004795Y011478D02*
X002604Y011478D01*
X002604Y011379D02*
X004795Y011379D01*
X004795Y011222D02*
X004795Y010812D01*
X004805Y010774D01*
X004825Y010740D01*
X004853Y010712D01*
X004887Y010692D01*
X004925Y010682D01*
X005135Y010682D01*
X005135Y011222D01*
X004795Y011222D01*
X004795Y011182D02*
X002604Y011182D01*
X002604Y011084D02*
X004795Y011084D01*
X004795Y010985D02*
X002604Y010985D01*
X002604Y010887D02*
X004795Y010887D01*
X004801Y010788D02*
X002604Y010788D01*
X002604Y010690D02*
X004897Y010690D01*
X005135Y010690D02*
X005235Y010690D01*
X005235Y010788D02*
X005135Y010788D01*
X005135Y010887D02*
X005235Y010887D01*
X005235Y010985D02*
X005135Y010985D01*
X005135Y011084D02*
X005235Y011084D01*
X005235Y011182D02*
X005135Y011182D01*
X005135Y011281D02*
X002604Y011281D01*
X002604Y010591D02*
X005686Y010591D01*
X005725Y010493D02*
X002604Y010493D01*
X002604Y010394D02*
X005725Y010394D01*
X005725Y010296D02*
X002604Y010296D01*
X002604Y010197D02*
X005725Y010197D01*
X005725Y010099D02*
X002604Y010099D01*
X002604Y010000D02*
X005725Y010000D01*
X005725Y009902D02*
X002604Y009902D01*
X002604Y009803D02*
X005725Y009803D01*
X005725Y009705D02*
X002604Y009705D01*
X002604Y009606D02*
X005725Y009606D01*
X005218Y009508D02*
X002604Y009508D01*
X002604Y009409D02*
X005132Y009409D01*
X005096Y009311D02*
X003857Y009311D01*
X003955Y009212D02*
X005096Y009212D01*
X005236Y008720D02*
X003362Y008720D01*
X003461Y008818D02*
X006045Y008818D01*
X005236Y008621D02*
X003264Y008621D01*
X003165Y008523D02*
X005236Y008523D01*
X005236Y008424D02*
X003080Y008424D01*
X003080Y008326D02*
X005255Y008326D01*
X005375Y008129D02*
X003080Y008129D01*
X003080Y008227D02*
X005474Y008227D01*
X005277Y008030D02*
X003080Y008030D01*
X003080Y007932D02*
X005178Y007932D01*
X005080Y007833D02*
X003080Y007833D01*
X003080Y007735D02*
X004981Y007735D01*
X004883Y007636D02*
X003080Y007636D01*
X003080Y007538D02*
X004784Y007538D01*
X004686Y007439D02*
X003080Y007439D01*
X003080Y007341D02*
X004587Y007341D01*
X004489Y007242D02*
X003080Y007242D01*
X003080Y007144D02*
X004390Y007144D01*
X004292Y007045D02*
X003080Y007045D01*
X003080Y006947D02*
X004193Y006947D01*
X004095Y006848D02*
X003080Y006848D01*
X003080Y006750D02*
X003996Y006750D01*
X002716Y006750D02*
X002604Y006750D01*
X002604Y006848D02*
X002716Y006848D01*
X002716Y006947D02*
X002604Y006947D01*
X002604Y007045D02*
X002716Y007045D01*
X002716Y007144D02*
X002604Y007144D01*
X002604Y007242D02*
X002716Y007242D01*
X002716Y007341D02*
X002604Y007341D01*
X002604Y007439D02*
X002716Y007439D01*
X002716Y007538D02*
X002604Y007538D01*
X002604Y007636D02*
X002716Y007636D01*
X002716Y007735D02*
X002604Y007735D01*
X002604Y007833D02*
X002716Y007833D01*
X002716Y007932D02*
X002604Y007932D01*
X002604Y008030D02*
X002716Y008030D01*
X002716Y008129D02*
X002604Y008129D01*
X002604Y008227D02*
X002716Y008227D01*
X002716Y008326D02*
X002604Y008326D01*
X002604Y008424D02*
X002716Y008424D01*
X002716Y008523D02*
X002604Y008523D01*
X002604Y008621D02*
X002756Y008621D01*
X002832Y008720D02*
X002604Y008720D01*
X002604Y008818D02*
X002930Y008818D01*
X003029Y008917D02*
X002604Y008917D01*
X002604Y009015D02*
X003127Y009015D01*
X003165Y009114D02*
X002604Y009114D01*
X002604Y009212D02*
X003211Y009212D01*
X003310Y009311D02*
X002604Y009311D01*
X005473Y010690D02*
X005600Y010690D01*
X005235Y011379D02*
X005135Y011379D01*
X005135Y011478D02*
X005235Y011478D01*
X005235Y011576D02*
X005135Y011576D01*
X005135Y011675D02*
X005235Y011675D01*
X005235Y011773D02*
X005135Y011773D01*
X005563Y011773D02*
X005566Y011773D01*
X006470Y011970D02*
X006630Y011970D01*
X007960Y009803D02*
X008109Y009803D01*
X007960Y009705D02*
X011977Y009705D01*
X011936Y009606D02*
X007960Y009606D01*
X007960Y009508D02*
X011895Y009508D01*
X011895Y009409D02*
X007960Y009409D01*
X007960Y009311D02*
X011895Y009311D01*
X009673Y008424D02*
X009654Y008424D01*
X009672Y008326D02*
X009606Y008326D01*
X009606Y008227D02*
X009672Y008227D01*
X008926Y008523D02*
X008924Y008523D01*
X008941Y008621D02*
X008883Y008621D01*
X008842Y008720D02*
X008988Y008720D01*
X009087Y008818D02*
X008743Y008818D01*
X008601Y008917D02*
X009185Y008917D01*
X009284Y009015D02*
X007960Y009015D01*
X007960Y008917D02*
X008083Y008917D01*
X007960Y009114D02*
X009382Y009114D01*
X009525Y009212D02*
X007960Y009212D01*
X010703Y011084D02*
X012140Y011084D01*
X012079Y011182D02*
X010662Y011182D01*
X010621Y011281D02*
X012046Y011281D01*
X013065Y005568D02*
X013165Y005568D01*
X013165Y005469D02*
X013065Y005469D01*
X013099Y005310D02*
X013115Y005293D01*
X013115Y005282D01*
X013065Y005075D02*
X013165Y005075D01*
X013165Y004977D02*
X013065Y004977D01*
X013065Y004878D02*
X013165Y004878D01*
X013540Y004780D02*
X013658Y004780D01*
X013658Y004878D02*
X013591Y004878D01*
X013620Y004977D02*
X013658Y004977D01*
X013658Y005075D02*
X013620Y005075D01*
X013620Y005174D02*
X013658Y005174D01*
X016096Y001726D02*
X016196Y001726D01*
X016196Y001628D02*
X016096Y001628D01*
X015840Y001037D02*
X015649Y001037D01*
X002716Y005962D02*
X002604Y005962D01*
X002604Y006060D02*
X002716Y006060D01*
X002716Y006159D02*
X002604Y006159D01*
X002604Y006257D02*
X002716Y006257D01*
X002716Y006356D02*
X002604Y006356D01*
X002604Y006454D02*
X002716Y006454D01*
X002716Y006553D02*
X002604Y006553D01*
X002604Y006651D02*
X002716Y006651D01*
D20*
X003086Y008451D02*
X003583Y008948D01*
X003699Y008832D01*
X006095Y008832D01*
X006095Y011272D01*
X005185Y011272D02*
X003790Y011272D01*
X003597Y011078D01*
X003597Y009927D01*
X003086Y008451D02*
X003086Y001658D01*
X003278Y001467D01*
X004146Y001467D01*
X020609Y005327D02*
X020767Y005486D01*
X020805Y005486D01*
X022017Y005486D01*
D21*
X022017Y005486D03*
X017246Y005143D03*
X015110Y005806D03*
X014511Y007955D03*
X011175Y005164D03*
X009472Y004521D03*
X008620Y003898D03*
X007219Y003880D03*
X005514Y005707D03*
X007068Y006348D03*
X003583Y008948D03*
X003597Y009927D03*
X010283Y011882D03*
D22*
X007615Y011882D01*
X007141Y011409D01*
X007141Y011065D01*
X007550Y010656D01*
X007550Y006831D01*
X007074Y006355D01*
X007068Y006348D01*
X005146Y004426D01*
X005146Y002467D01*
X007005Y011272D02*
X007141Y011409D01*
X014216Y013090D02*
X014216Y015270D01*
X014214Y015272D01*
X015214Y015272D02*
X015216Y015270D01*
X015216Y013090D01*
X016216Y013090D02*
X016216Y015270D01*
X016214Y015272D01*
X017214Y015272D02*
X017216Y015270D01*
X017216Y013090D01*
X018216Y013090D02*
X018216Y015270D01*
X018214Y015272D01*
X019214Y015272D02*
X019216Y015270D01*
X019216Y013090D01*
X020216Y013090D02*
X020216Y015270D01*
X020214Y015272D01*
X021214Y015272D02*
X021865Y015272D01*
X022207Y014930D01*
X022207Y005676D01*
X022017Y005486D01*
X022025Y005494D01*
X023709Y005494D01*
X024154Y005049D01*
X024154Y001616D01*
X024005Y001467D01*
X023146Y001467D01*
D23*
X008620Y003898D02*
X007236Y003898D01*
X007219Y003880D01*
D24*
X011622Y006725D03*
D25*
X014256Y004180D02*
X014998Y004922D01*
X014256Y004180D02*
X013115Y004180D01*
X018798Y004922D02*
X019495Y004225D01*
X020609Y004225D01*
M02*
