%
M48
M72
T01C0.0118
T02C0.0236
T03C0.0315
T04C0.0400
%
T01
X7219Y3880
X8620Y3898
X9472Y4521
X11175Y5164
X15110Y5806
X17246Y5143
X14511Y7955
X10283Y11882
X3597Y9927
X3583Y8948
X7068Y6348
X5514Y5707
X22017Y5486
T02
X11622Y6725
T03
X12845Y6384
X12845Y7384
X12845Y8384
X12845Y9384
X12845Y10384
X12845Y11384
X14216Y13090
X15216Y13090
X16216Y13090
X17216Y13090
X18216Y13090
X19216Y13090
X20216Y13090
X21216Y13090
X21214Y15272
X20214Y15272
X19214Y15272
X18214Y15272
X17214Y15272
X16214Y15272
X15214Y15272
X14214Y15272
T04
X4146Y1467
X5146Y1467
X6146Y1467
X7146Y1467
X8146Y1467
X9146Y1467
X10146Y1467
X11146Y1467
X12146Y1467
X13146Y1467
X14146Y1467
X15146Y1467
X16146Y1467
X17146Y1467
X18146Y1467
X19146Y1467
X20146Y1467
X21146Y1467
X22146Y1467
X23146Y1467
X23146Y2467
X22146Y2467
X21146Y2467
X20146Y2467
X19146Y2467
X18146Y2467
X17146Y2467
X16146Y2467
X15146Y2467
X14146Y2467
X13146Y2467
X12146Y2467
X11146Y2467
X10146Y2467
X9146Y2467
X8146Y2467
X7146Y2467
X6146Y2467
X5146Y2467
X4146Y2467
X8342Y8085
X10122Y8085
X10122Y10645
X8342Y10645
M30
