G75*
G70*
%OFA0B0*%
%FSLAX24Y24*%
%IPPOS*%
%LPD*%
%AMOC8*
5,1,8,0,0,1.08239X$1,22.5*
%
%ADD10OC8,0.0820*%
%ADD11R,0.0440X0.0780*%
%ADD12R,0.0671X0.0277*%
%ADD13R,0.0277X0.0671*%
%ADD14R,0.0789X0.0710*%
%ADD15R,0.0631X0.0552*%
%ADD16R,0.0710X0.0789*%
%ADD17R,0.0710X0.0631*%
%ADD18R,0.0631X0.0710*%
%ADD19C,0.0740*%
%ADD20C,0.0640*%
%ADD21C,0.0680*%
%ADD22C,0.0400*%
%ADD23C,0.0640*%
D10*
X004146Y001467D03*
X005146Y001467D03*
X006146Y001467D03*
X007146Y001467D03*
X008146Y001467D03*
X009146Y001467D03*
X010146Y001467D03*
X011146Y001467D03*
X012146Y001467D03*
X013146Y001467D03*
X014146Y001467D03*
X015146Y001467D03*
X016146Y001467D03*
X017146Y001467D03*
X018146Y001467D03*
X019146Y001467D03*
X020146Y001467D03*
X021146Y001467D03*
X022146Y001467D03*
X023146Y001467D03*
X023146Y002467D03*
X022146Y002467D03*
X021146Y002467D03*
X020146Y002467D03*
X019146Y002467D03*
X018146Y002467D03*
X017146Y002467D03*
X016146Y002467D03*
X015146Y002467D03*
X014146Y002467D03*
X013146Y002467D03*
X012146Y002467D03*
X011146Y002467D03*
X010146Y002467D03*
X009146Y002467D03*
X008146Y002467D03*
X007146Y002467D03*
X006146Y002467D03*
X005146Y002467D03*
X004146Y002467D03*
D11*
X004062Y007432D03*
X003471Y007432D03*
X002881Y007432D03*
X004653Y007432D03*
X005243Y007432D03*
X005834Y007432D03*
X006424Y007432D03*
X007015Y007432D03*
X007015Y012675D03*
X006424Y012675D03*
X005834Y012675D03*
X005243Y012675D03*
X004653Y012675D03*
X004062Y012675D03*
X003471Y012675D03*
X002881Y012675D03*
D12*
X015693Y010102D03*
X015693Y009787D03*
X015693Y009472D03*
X015693Y009157D03*
X015693Y008842D03*
X015693Y008527D03*
X015693Y008212D03*
X015693Y007897D03*
X015693Y007582D03*
X015693Y007267D03*
X015693Y006952D03*
X020260Y006952D03*
X020260Y007267D03*
X020260Y007582D03*
X020260Y007897D03*
X020260Y008212D03*
X020260Y008527D03*
X020260Y008842D03*
X020260Y009157D03*
X020260Y009472D03*
X020260Y009787D03*
X020260Y010102D03*
D13*
X019552Y010810D03*
X019237Y010810D03*
X018922Y010810D03*
X018607Y010810D03*
X018292Y010810D03*
X017977Y010810D03*
X017662Y010810D03*
X017347Y010810D03*
X017032Y010810D03*
X016717Y010810D03*
X016402Y010810D03*
X016402Y006243D03*
X016717Y006243D03*
X017032Y006243D03*
X017347Y006243D03*
X017662Y006243D03*
X017977Y006243D03*
X018292Y006243D03*
X018607Y006243D03*
X018922Y006243D03*
X019237Y006243D03*
X019552Y006243D03*
D14*
X014314Y009710D03*
X014314Y010813D03*
X012608Y012896D03*
X012608Y013998D03*
X010990Y014001D03*
X010990Y012899D03*
X003466Y014148D03*
X003466Y015250D03*
X003474Y006115D03*
X004644Y006085D03*
X004644Y004983D03*
X003474Y005013D03*
D15*
X005238Y014062D03*
X005238Y015243D03*
D16*
X006965Y013961D03*
X008067Y013961D03*
X008671Y006814D03*
X009774Y006814D03*
X009798Y005715D03*
X008696Y005715D03*
D17*
X009571Y012893D03*
X009571Y013996D03*
D18*
X008075Y015247D03*
X006973Y015247D03*
D19*
X012515Y011384D02*
X013175Y011384D01*
X013175Y010384D02*
X012515Y010384D01*
X012515Y009384D02*
X013175Y009384D01*
X013175Y008384D02*
X012515Y008384D01*
X012515Y007384D02*
X013175Y007384D01*
X013175Y006384D02*
X012515Y006384D01*
X014214Y014942D02*
X014214Y015602D01*
X015214Y015602D02*
X015214Y014942D01*
X016214Y014942D02*
X016214Y015602D01*
X017214Y015602D02*
X017214Y014942D01*
X018214Y014942D02*
X018214Y015602D01*
X019214Y015602D02*
X019214Y014942D01*
X020214Y014942D02*
X020214Y015602D01*
X021214Y015602D02*
X021214Y014942D01*
D20*
X021216Y013370D02*
X021216Y012810D01*
X020216Y012810D02*
X020216Y013370D01*
X019216Y013370D02*
X019216Y012810D01*
X018216Y012810D02*
X018216Y013370D01*
X017216Y013370D02*
X017216Y012810D01*
X016216Y012810D02*
X016216Y013370D01*
X015216Y013370D02*
X015216Y012810D01*
X014216Y012810D02*
X014216Y013370D01*
D21*
X010122Y010945D02*
X010122Y010345D01*
X008342Y010345D02*
X008342Y010945D01*
X008342Y008385D02*
X008342Y007785D01*
X010122Y007785D02*
X010122Y008385D01*
D22*
X007068Y006348D03*
X005514Y005707D03*
X007219Y003880D03*
X008620Y003898D03*
X009472Y004521D03*
X011175Y005164D03*
X015110Y005806D03*
X017246Y005143D03*
X014511Y007955D03*
X010283Y011882D03*
X003597Y009927D03*
X003583Y008948D03*
X022017Y005486D03*
D23*
X011622Y006725D03*
M02*
