  0
SECTION
  2
HEADER
  9
$ACADVER
  1
AC1009
  9
$FILLMODE
 70
1
  9
$EXTMIN
 10
-0.1524
 20
-1.8835
 30
0.0000
  9
$EXTMAX
 10
181.0214
 20
102.8254
 30
0.0000
  0
ENDSEC
  0
SECTION
  2
TABLES
  0
TABLE
  2
LTYPE
 70
1
  0
LTYPE
  2
CONTINUOUS
 70
64
  3
Solid line
 72
65
 73
0
 40
0
  0
ENDTAB
  0
TABLE
  2
LAYER
 70
255
  0
LAYER
  2
31
 70
64
 62
253
  6
CONTINUOUS
  0
LAYER
  2
32
 70
64
 62
253
  6
CONTINUOUS
  0
ENDTAB
  0
ENDSEC
  0
SECTION
  2
BLOCKS
  0
BLOCK
  8
0
  2
RECT
 70
64
 10
0.0000
 20
0.0000
 30
0.0000
  3
RECT
  0
SOLID
  8
0
 10
-0.5000
 20
-0.5000
 30
0.0000
 11
0.5000
 21
-0.5000
 31
0.0000
 12
-0.5000
 22
0.5000
 32
0.0000
 13
0.5000
 23
0.5000
 33
0.0000
  0
ENDBLK
  8
0
  0
BLOCK
  8
0
  2
PIE
 70
64
 10
0.0000
 20
0.0000
 30
0.0000
  3
PIE
  0
POLYLINE
  8
0
 66
1
 10
0.0000
 20
0.0000
 30
0.0000
 40
0.5000
 41
0.5000
 70
0
  0
VERTEX
  8
0
 10
0.0000
 20
-0.2500
 30
0.0000
 42
1.0000
  0
VERTEX
  8
0
 10
0.0000
 20
0.2500
 30
0.0000
 42
1.0000
  0
VERTEX
  8
0
 10
0.0000
 20
-0.2500
 30
0.0000
  0
SEQEND
  8
0
  0
ENDBLK
  8
0
  0
BLOCK
  8
0
  2
OCTAGONP
 70
64
 10
0.0000
 20
0.0000
 30
0.0000
  3
OCTAGONP
  0
POLYLINE
  8
0
 66
1
 10
0.0000
 20
0.0000
 30
0.0000
 40
0.5000
 41
0.5000
 70
0
  0
VERTEX
  8
0
 10
-0.2500
 20
-0.1036
 30
0.0000
  0
VERTEX
  8
0
 10
-0.2500
 20
0.1036
 30
0.0000
  0
VERTEX
  8
0
 10
-0.1036
 20
0.2500
 30
0.0000
  0
VERTEX
  8
0
 10
0.1036
 20
0.2500
 30
0.0000
  0
VERTEX
  8
0
 10
0.2500
 20
0.1036
 30
0.0000
  0
VERTEX
  8
0
 10
0.2500
 20
-0.1036
 30
0.0000
  0
VERTEX
  8
0
 10
0.1036
 20
-0.2500
 30
0.0000
  0
VERTEX
  8
0
 10
-0.1036
 20
-0.2500
 30
0.0000
  0
VERTEX
  8
0
 10
-0.2500
 20
-0.1036
 30
0.0000
  0
VERTEX
  8
0
 10
-0.2500
 20
0.1036
 30
0.0000
  0
SEQEND
  8
0
  0
ENDBLK
  8
0
  0
BLOCK
  8
0
  2
SQUAREP
 70
64
 10
0.0000
 20
0.0000
 30
0.0000
  3
SQUAREP
  0
SOLID
  8
0
 10
-0.5000
 20
-0.5000
 30
0.0000
 11
0.5000
 21
-0.5000
 31
0.0000
 12
-0.5000
 22
0.5000
 32
0.0000
 13
0.5000
 23
0.5000
 33
0.0000
  0
ENDBLK
  8
0
  0
BLOCK
  8
0
  2
ROUNDP
 70
64
 10
0.0000
 20
0.0000
 30
0.0000
  3
ROUNDP
  0
POLYLINE
  8
0
 66
1
 10
0.0000
 20
0.0000
 30
0.0000
 40
0.5000
 41
0.5000
 70
0
  0
VERTEX
  8
0
 10
0.0000
 20
-0.2500
 30
0.0000
 42
1.0000
  0
VERTEX
  8
0
 10
0.0000
 20
0.2500
 30
0.0000
 42
1.0000
  0
VERTEX
  8
0
 10
0.0000
 20
-0.2500
 30
0.0000
  0
SEQEND
  8
0
  0
ENDBLK
  8
0
  0
BLOCK
  8
0
  2
ANNULUSP
 70
64
 10
0.0000
 20
0.0000
 30
0.0000
  3
ANNULUSP
  0
POLYLINE
  8
0
 66
1
 10
0.0000
 20
0.0000
 30
0.0000
 40
0.5000
 41
0.5000
 70
0
  0
VERTEX
  8
0
 10
0.0000
 20
-0.2500
 30
0.0000
 42
1.0000
  0
VERTEX
  8
0
 10
0.0000
 20
0.2500
 30
0.0000
 42
1.0000
  0
VERTEX
  8
0
 10
0.0000
 20
-0.2500
 30
0.0000
  0
SEQEND
  8
0
  0
ENDBLK
  8
0
  0
BLOCK
  8
0
  2
THERMALP
 70
64
 10
0.0000
 20
0.0000
 30
0.0000
  3
THERMALP
  0
POLYLINE
  8
0
 66
1
 10
0.0000
 20
0.0000
 30
0.0000
 40
0.1000
 41
0.1000
 70
0
  0
VERTEX
  8
0
 10
-0.2379
 20
0.4500
 30
0.0000
  0
VERTEX
  8
0
 10
0.2379
 20
0.4500
 30
0.0000
  0
SEQEND
  8
0
  0
POLYLINE
  8
0
 66
1
 10
0.0000
 20
0.0000
 30
0.0000
 40
0.0500
 41
0.0500
 70
0
  0
VERTEX
  8
0
 10
0.2379
 20
0.4250
 30
0.0000
 42
1.0000
  0
VERTEX
  8
0
 10
0.2379
 20
0.4750
 30
0.0000
  0
SEQEND
  8
0
  0
POLYLINE
  8
0
 66
1
 10
0.0000
 20
0.0000
 30
0.0000
 40
0.0500
 41
0.0500
 70
0
  0
VERTEX
  8
0
 10
-0.2379
 20
0.4750
 30
0.0000
 42
1.0000
  0
VERTEX
  8
0
 10
-0.2379
 20
0.4250
 30
0.0000
  0
SEQEND
  8
0
  0
POLYLINE
  8
0
 66
1
 10
0.0000
 20
0.0000
 30
0.0000
 40
0.1000
 41
0.1000
 70
0
  0
VERTEX
  8
0
 10
0.4500
 20
0.2379
 30
0.0000
  0
VERTEX
  8
0
 10
0.4500
 20
-0.2379
 30
0.0000
  0
SEQEND
  8
0
  0
POLYLINE
  8
0
 66
1
 10
0.0000
 20
0.0000
 30
0.0000
 40
0.0500
 41
0.0500
 70
0
  0
VERTEX
  8
0
 10
0.4250
 20
-0.2379
 30
0.0000
 42
1.0000
  0
VERTEX
  8
0
 10
0.4750
 20
-0.2379
 30
0.0000
  0
SEQEND
  8
0
  0
POLYLINE
  8
0
 66
1
 10
0.0000
 20
0.0000
 30
0.0000
 40
0.0500
 41
0.0500
 70
0
  0
VERTEX
  8
0
 10
0.4750
 20
0.2379
 30
0.0000
 42
1.0000
  0
VERTEX
  8
0
 10
0.4250
 20
0.2379
 30
0.0000
  0
SEQEND
  8
0
  0
POLYLINE
  8
0
 66
1
 10
0.0000
 20
0.0000
 30
0.0000
 40
0.1000
 41
0.1000
 70
0
  0
VERTEX
  8
0
 10
0.2379
 20
-0.4500
 30
0.0000
  0
VERTEX
  8
0
 10
-0.2379
 20
-0.4500
 30
0.0000
  0
SEQEND
  8
0
  0
POLYLINE
  8
0
 66
1
 10
0.0000
 20
0.0000
 30
0.0000
 40
0.0500
 41
0.0500
 70
0
  0
VERTEX
  8
0
 10
-0.2379
 20
-0.4250
 30
0.0000
 42
1.0000
  0
VERTEX
  8
0
 10
-0.2379
 20
-0.4750
 30
0.0000
  0
SEQEND
  8
0
  0
POLYLINE
  8
0
 66
1
 10
0.0000
 20
0.0000
 30
0.0000
 40
0.0500
 41
0.0500
 70
0
  0
VERTEX
  8
0
 10
0.2379
 20
-0.4750
 30
0.0000
 42
1.0000
  0
VERTEX
  8
0
 10
0.2379
 20
-0.4250
 30
0.0000
  0
SEQEND
  8
0
  0
POLYLINE
  8
0
 66
1
 10
0.0000
 20
0.0000
 30
0.0000
 40
0.1000
 41
0.1000
 70
0
  0
VERTEX
  8
0
 10
-0.4500
 20
-0.2379
 30
0.0000
  0
VERTEX
  8
0
 10
-0.4500
 20
0.2379
 30
0.0000
  0
SEQEND
  8
0
  0
POLYLINE
  8
0
 66
1
 10
0.0000
 20
0.0000
 30
0.0000
 40
0.0500
 41
0.0500
 70
0
  0
VERTEX
  8
0
 10
-0.4250
 20
0.2379
 30
0.0000
 42
1.0000
  0
VERTEX
  8
0
 10
-0.4750
 20
0.2379
 30
0.0000
  0
SEQEND
  8
0
  0
POLYLINE
  8
0
 66
1
 10
0.0000
 20
0.0000
 30
0.0000
 40
0.0500
 41
0.0500
 70
0
  0
VERTEX
  8
0
 10
-0.4750
 20
-0.2379
 30
0.0000
 42
1.0000
  0
VERTEX
  8
0
 10
-0.4250
 20
-0.2379
 30
0.0000
  0
SEQEND
  8
0
  0
ENDBLK
  8
0
  0
BLOCK
  8
0
  2
OCTAGONV
 70
64
 10
0.0000
 20
0.0000
 30
0.0000
  3
OCTAGONV
  0
POLYLINE
  8
0
 66
1
 10
0.0000
 20
0.0000
 30
0.0000
 40
0.5000
 41
0.5000
 70
0
  0
VERTEX
  8
0
 10
-0.2500
 20
-0.1036
 30
0.0000
  0
VERTEX
  8
0
 10
-0.2500
 20
0.1036
 30
0.0000
  0
VERTEX
  8
0
 10
-0.1036
 20
0.2500
 30
0.0000
  0
VERTEX
  8
0
 10
0.1036
 20
0.2500
 30
0.0000
  0
VERTEX
  8
0
 10
0.2500
 20
0.1036
 30
0.0000
  0
VERTEX
  8
0
 10
0.2500
 20
-0.1036
 30
0.0000
  0
VERTEX
  8
0
 10
0.1036
 20
-0.2500
 30
0.0000
  0
VERTEX
  8
0
 10
-0.1036
 20
-0.2500
 30
0.0000
  0
VERTEX
  8
0
 10
-0.2500
 20
-0.1036
 30
0.0000
  0
VERTEX
  8
0
 10
-0.2500
 20
0.1036
 30
0.0000
  0
SEQEND
  8
0
  0
ENDBLK
  8
0
  0
BLOCK
  8
0
  2
SQUAREV
 70
64
 10
0.0000
 20
0.0000
 30
0.0000
  3
SQUAREV
  0
SOLID
  8
0
 10
-0.5000
 20
-0.5000
 30
0.0000
 11
0.5000
 21
-0.5000
 31
0.0000
 12
-0.5000
 22
0.5000
 32
0.0000
 13
0.5000
 23
0.5000
 33
0.0000
  0
ENDBLK
  8
0
  0
BLOCK
  8
0
  2
ROUNDV
 70
64
 10
0.0000
 20
0.0000
 30
0.0000
  3
ROUNDV
  0
POLYLINE
  8
0
 66
1
 10
0.0000
 20
0.0000
 30
0.0000
 40
0.5000
 41
0.5000
 70
0
  0
VERTEX
  8
0
 10
0.0000
 20
-0.2500
 30
0.0000
 42
1.0000
  0
VERTEX
  8
0
 10
0.0000
 20
0.2500
 30
0.0000
 42
1.0000
  0
VERTEX
  8
0
 10
0.0000
 20
-0.2500
 30
0.0000
  0
SEQEND
  8
0
  0
ENDBLK
  8
0
  0
BLOCK
  8
0
  2
ANNULUSV
 70
64
 10
0.0000
 20
0.0000
 30
0.0000
  3
ANNULUSV
  0
POLYLINE
  8
0
 66
1
 10
0.0000
 20
0.0000
 30
0.0000
 40
0.5000
 41
0.5000
 70
0
  0
VERTEX
  8
0
 10
0.0000
 20
-0.2500
 30
0.0000
 42
1.0000
  0
VERTEX
  8
0
 10
0.0000
 20
0.2500
 30
0.0000
 42
1.0000
  0
VERTEX
  8
0
 10
0.0000
 20
-0.2500
 30
0.0000
  0
SEQEND
  8
0
  0
ENDBLK
  8
0
  0
BLOCK
  8
0
  2
THERMALV
 70
64
 10
0.0000
 20
0.0000
 30
0.0000
  3
THERMALV
  0
POLYLINE
  8
0
 66
1
 10
0.0000
 20
0.0000
 30
0.0000
 40
0.1000
 41
0.1000
 70
0
  0
VERTEX
  8
0
 10
-0.2379
 20
0.4500
 30
0.0000
  0
VERTEX
  8
0
 10
0.2379
 20
0.4500
 30
0.0000
  0
SEQEND
  8
0
  0
POLYLINE
  8
0
 66
1
 10
0.0000
 20
0.0000
 30
0.0000
 40
0.0500
 41
0.0500
 70
0
  0
VERTEX
  8
0
 10
0.2379
 20
0.4250
 30
0.0000
 42
1.0000
  0
VERTEX
  8
0
 10
0.2379
 20
0.4750
 30
0.0000
  0
SEQEND
  8
0
  0
POLYLINE
  8
0
 66
1
 10
0.0000
 20
0.0000
 30
0.0000
 40
0.0500
 41
0.0500
 70
0
  0
VERTEX
  8
0
 10
-0.2379
 20
0.4750
 30
0.0000
 42
1.0000
  0
VERTEX
  8
0
 10
-0.2379
 20
0.4250
 30
0.0000
  0
SEQEND
  8
0
  0
POLYLINE
  8
0
 66
1
 10
0.0000
 20
0.0000
 30
0.0000
 40
0.1000
 41
0.1000
 70
0
  0
VERTEX
  8
0
 10
0.4500
 20
0.2379
 30
0.0000
  0
VERTEX
  8
0
 10
0.4500
 20
-0.2379
 30
0.0000
  0
SEQEND
  8
0
  0
POLYLINE
  8
0
 66
1
 10
0.0000
 20
0.0000
 30
0.0000
 40
0.0500
 41
0.0500
 70
0
  0
VERTEX
  8
0
 10
0.4250
 20
-0.2379
 30
0.0000
 42
1.0000
  0
VERTEX
  8
0
 10
0.4750
 20
-0.2379
 30
0.0000
  0
SEQEND
  8
0
  0
POLYLINE
  8
0
 66
1
 10
0.0000
 20
0.0000
 30
0.0000
 40
0.0500
 41
0.0500
 70
0
  0
VERTEX
  8
0
 10
0.4750
 20
0.2379
 30
0.0000
 42
1.0000
  0
VERTEX
  8
0
 10
0.4250
 20
0.2379
 30
0.0000
  0
SEQEND
  8
0
  0
POLYLINE
  8
0
 66
1
 10
0.0000
 20
0.0000
 30
0.0000
 40
0.1000
 41
0.1000
 70
0
  0
VERTEX
  8
0
 10
0.2379
 20
-0.4500
 30
0.0000
  0
VERTEX
  8
0
 10
-0.2379
 20
-0.4500
 30
0.0000
  0
SEQEND
  8
0
  0
POLYLINE
  8
0
 66
1
 10
0.0000
 20
0.0000
 30
0.0000
 40
0.0500
 41
0.0500
 70
0
  0
VERTEX
  8
0
 10
-0.2379
 20
-0.4250
 30
0.0000
 42
1.0000
  0
VERTEX
  8
0
 10
-0.2379
 20
-0.4750
 30
0.0000
  0
SEQEND
  8
0
  0
POLYLINE
  8
0
 66
1
 10
0.0000
 20
0.0000
 30
0.0000
 40
0.0500
 41
0.0500
 70
0
  0
VERTEX
  8
0
 10
0.2379
 20
-0.4750
 30
0.0000
 42
1.0000
  0
VERTEX
  8
0
 10
0.2379
 20
-0.4250
 30
0.0000
  0
SEQEND
  8
0
  0
POLYLINE
  8
0
 66
1
 10
0.0000
 20
0.0000
 30
0.0000
 40
0.1000
 41
0.1000
 70
0
  0
VERTEX
  8
0
 10
-0.4500
 20
-0.2379
 30
0.0000
  0
VERTEX
  8
0
 10
-0.4500
 20
0.2379
 30
0.0000
  0
SEQEND
  8
0
  0
POLYLINE
  8
0
 66
1
 10
0.0000
 20
0.0000
 30
0.0000
 40
0.0500
 41
0.0500
 70
0
  0
VERTEX
  8
0
 10
-0.4250
 20
0.2379
 30
0.0000
 42
1.0000
  0
VERTEX
  8
0
 10
-0.4750
 20
0.2379
 30
0.0000
  0
SEQEND
  8
0
  0
POLYLINE
  8
0
 66
1
 10
0.0000
 20
0.0000
 30
0.0000
 40
0.0500
 41
0.0500
 70
0
  0
VERTEX
  8
0
 10
-0.4750
 20
-0.2379
 30
0.0000
 42
1.0000
  0
VERTEX
  8
0
 10
-0.4250
 20
-0.2379
 30
0.0000
  0
SEQEND
  8
0
  0
ENDBLK
  8
0
  0
BLOCK
  8
0
  2
LONGP100
 70
64
 10
0.0000
 20
0.0000
 30
0.0000
  3
LONGP100
  0
POLYLINE
  8
0
 66
1
 10
0.0000
 20
0.0000
 30
0.0000
 40
1.0000
 41
1.0000
 70
0
  0
VERTEX
  8
0
 10
-0.5000
 20
0.0000
 30
0.0000
  0
VERTEX
  8
0
 10
0.5000
 20
0.0000
 30
0.0000
  0
SEQEND
  8
0
  0
POLYLINE
  8
0
 66
1
 10
0.0000
 20
0.0000
 30
0.0000
 40
0.5000
 41
0.5000
 70
0
  0
VERTEX
  8
0
 10
0.5000
 20
-0.2500
 30
0.0000
 42
1.0000
  0
VERTEX
  8
0
 10
0.5000
 20
0.2500
 30
0.0000
  0
SEQEND
  8
0
  0
POLYLINE
  8
0
 66
1
 10
0.0000
 20
0.0000
 30
0.0000
 40
0.5000
 41
0.5000
 70
0
  0
VERTEX
  8
0
 10
-0.5000
 20
0.2500
 30
0.0000
 42
1.0000
  0
VERTEX
  8
0
 10
-0.5000
 20
-0.2500
 30
0.0000
  0
SEQEND
  8
0
  0
ENDBLK
  8
0
  0
BLOCK
  8
0
  2
OFFSETP100
 70
64
 10
0.0000
 20
0.0000
 30
0.0000
  3
OFFSETP100
  0
POLYLINE
  8
0
 66
1
 10
0.0000
 20
0.0000
 30
0.0000
 40
1.0000
 41
1.0000
 70
0
  0
VERTEX
  8
0
 10
0.0000
 20
0.0000
 30
0.0000
  0
VERTEX
  8
0
 10
1.0000
 20
0.0000
 30
0.0000
  0
SEQEND
  8
0
  0
POLYLINE
  8
0
 66
1
 10
0.0000
 20
0.0000
 30
0.0000
 40
0.5000
 41
0.5000
 70
0
  0
VERTEX
  8
0
 10
1.0000
 20
-0.2500
 30
0.0000
 42
1.0000
  0
VERTEX
  8
0
 10
1.0000
 20
0.2500
 30
0.0000
  0
SEQEND
  8
0
  0
POLYLINE
  8
0
 66
1
 10
0.0000
 20
0.0000
 30
0.0000
 40
0.5000
 41
0.5000
 70
0
  0
VERTEX
  8
0
 10
0.0000
 20
0.2500
 30
0.0000
 42
1.0000
  0
VERTEX
  8
0
 10
0.0000
 20
-0.2500
 30
0.0000
  0
SEQEND
  8
0
  0
ENDBLK
  8
0
  0
ENDSEC
  0
SECTION
  2
ENTITIES
  0
INSERT
  8
32
  2
RECT
 10
69.5119
 20
51.1691
 30
0.0000
 41
1.5000
 42
0.5000
 43
1.0000
 50
270.0000
  0
INSERT
  8
32
  2
RECT
 10
70.3119
 20
51.1691
 30
0.0000
 41
1.5000
 42
0.5000
 43
1.0000
 50
270.0000
  0
INSERT
  8
32
  2
RECT
 10
71.1119
 20
51.1691
 30
0.0000
 41
1.5000
 42
0.5000
 43
1.0000
 50
270.0000
  0
INSERT
  8
32
  2
RECT
 10
71.9119
 20
51.1691
 30
0.0000
 41
1.5000
 42
0.5000
 43
1.0000
 50
270.0000
  0
INSERT
  8
32
  2
RECT
 10
72.7119
 20
51.1691
 30
0.0000
 41
1.5000
 42
0.5000
 43
1.0000
 50
270.0000
  0
INSERT
  8
32
  2
RECT
 10
73.5119
 20
51.1691
 30
0.0000
 41
1.5000
 42
0.5000
 43
1.0000
 50
270.0000
  0
INSERT
  8
32
  2
RECT
 10
74.3119
 20
51.1691
 30
0.0000
 41
1.5000
 42
0.5000
 43
1.0000
 50
270.0000
  0
INSERT
  8
32
  2
RECT
 10
75.1119
 20
51.1691
 30
0.0000
 41
1.5000
 42
0.5000
 43
1.0000
 50
270.0000
  0
INSERT
  8
32
  2
RECT
 10
75.9119
 20
51.1691
 30
0.0000
 41
1.5000
 42
0.5000
 43
1.0000
 50
270.0000
  0
INSERT
  8
32
  2
RECT
 10
76.7119
 20
51.1691
 30
0.0000
 41
1.5000
 42
0.5000
 43
1.0000
 50
270.0000
  0
INSERT
  8
32
  2
RECT
 10
77.5119
 20
51.1691
 30
0.0000
 41
1.5000
 42
0.5000
 43
1.0000
 50
270.0000
  0
INSERT
  8
32
  2
RECT
 10
79.3119
 20
49.3691
 30
0.0000
 41
0.5000
 42
1.5000
 43
1.0000
 50
270.0000
  0
INSERT
  8
32
  2
RECT
 10
79.3119
 20
48.5691
 30
0.0000
 41
0.5000
 42
1.5000
 43
1.0000
 50
270.0000
  0
INSERT
  8
32
  2
RECT
 10
79.3119
 20
47.7691
 30
0.0000
 41
0.5000
 42
1.5000
 43
1.0000
 50
270.0000
  0
INSERT
  8
32
  2
RECT
 10
79.3119
 20
46.9691
 30
0.0000
 41
0.5000
 42
1.5000
 43
1.0000
 50
270.0000
  0
INSERT
  8
32
  2
RECT
 10
79.3119
 20
46.1691
 30
0.0000
 41
0.5000
 42
1.5000
 43
1.0000
 50
270.0000
  0
INSERT
  8
32
  2
RECT
 10
79.3119
 20
45.3691
 30
0.0000
 41
0.5000
 42
1.5000
 43
1.0000
 50
270.0000
  0
INSERT
  8
32
  2
RECT
 10
79.3119
 20
44.5691
 30
0.0000
 41
0.5000
 42
1.5000
 43
1.0000
 50
270.0000
  0
INSERT
  8
32
  2
RECT
 10
79.3119
 20
43.7691
 30
0.0000
 41
0.5000
 42
1.5000
 43
1.0000
 50
270.0000
  0
INSERT
  8
32
  2
RECT
 10
79.3119
 20
42.9691
 30
0.0000
 41
0.5000
 42
1.5000
 43
1.0000
 50
270.0000
  0
INSERT
  8
32
  2
RECT
 10
79.3119
 20
42.1691
 30
0.0000
 41
0.5000
 42
1.5000
 43
1.0000
 50
270.0000
  0
INSERT
  8
32
  2
RECT
 10
79.3119
 20
41.3691
 30
0.0000
 41
0.5000
 42
1.5000
 43
1.0000
 50
270.0000
  0
INSERT
  8
32
  2
RECT
 10
77.5119
 20
39.5691
 30
0.0000
 41
1.5000
 42
0.5000
 43
1.0000
 50
270.0000
  0
INSERT
  8
32
  2
RECT
 10
76.7119
 20
39.5691
 30
0.0000
 41
1.5000
 42
0.5000
 43
1.0000
 50
270.0000
  0
INSERT
  8
32
  2
RECT
 10
75.9119
 20
39.5691
 30
0.0000
 41
1.5000
 42
0.5000
 43
1.0000
 50
270.0000
  0
INSERT
  8
32
  2
RECT
 10
75.1119
 20
39.5691
 30
0.0000
 41
1.5000
 42
0.5000
 43
1.0000
 50
270.0000
  0
INSERT
  8
32
  2
RECT
 10
74.3119
 20
39.5691
 30
0.0000
 41
1.5000
 42
0.5000
 43
1.0000
 50
270.0000
  0
INSERT
  8
32
  2
RECT
 10
73.5119
 20
39.5691
 30
0.0000
 41
1.5000
 42
0.5000
 43
1.0000
 50
270.0000
  0
INSERT
  8
32
  2
RECT
 10
72.7119
 20
39.5691
 30
0.0000
 41
1.5000
 42
0.5000
 43
1.0000
 50
270.0000
  0
INSERT
  8
32
  2
RECT
 10
71.9119
 20
39.5691
 30
0.0000
 41
1.5000
 42
0.5000
 43
1.0000
 50
270.0000
  0
INSERT
  8
32
  2
RECT
 10
71.1119
 20
39.5691
 30
0.0000
 41
1.5000
 42
0.5000
 43
1.0000
 50
270.0000
  0
INSERT
  8
32
  2
RECT
 10
70.3119
 20
39.5691
 30
0.0000
 41
1.5000
 42
0.5000
 43
1.0000
 50
270.0000
  0
INSERT
  8
32
  2
RECT
 10
69.5119
 20
39.5691
 30
0.0000
 41
1.5000
 42
0.5000
 43
1.0000
 50
270.0000
  0
INSERT
  8
32
  2
RECT
 10
67.7119
 20
41.3691
 30
0.0000
 41
0.5000
 42
1.5000
 43
1.0000
 50
270.0000
  0
INSERT
  8
32
  2
RECT
 10
67.7119
 20
42.1691
 30
0.0000
 41
0.5000
 42
1.5000
 43
1.0000
 50
270.0000
  0
INSERT
  8
32
  2
RECT
 10
67.7119
 20
42.9691
 30
0.0000
 41
0.5000
 42
1.5000
 43
1.0000
 50
270.0000
  0
INSERT
  8
32
  2
RECT
 10
67.7119
 20
43.7691
 30
0.0000
 41
0.5000
 42
1.5000
 43
1.0000
 50
270.0000
  0
INSERT
  8
32
  2
RECT
 10
67.7119
 20
44.5691
 30
0.0000
 41
0.5000
 42
1.5000
 43
1.0000
 50
270.0000
  0
INSERT
  8
32
  2
RECT
 10
67.7119
 20
45.3691
 30
0.0000
 41
0.5000
 42
1.5000
 43
1.0000
 50
270.0000
  0
INSERT
  8
32
  2
RECT
 10
67.7119
 20
46.1691
 30
0.0000
 41
0.5000
 42
1.5000
 43
1.0000
 50
270.0000
  0
INSERT
  8
32
  2
RECT
 10
67.7119
 20
46.9691
 30
0.0000
 41
0.5000
 42
1.5000
 43
1.0000
 50
270.0000
  0
INSERT
  8
32
  2
RECT
 10
67.7119
 20
47.7691
 30
0.0000
 41
0.5000
 42
1.5000
 43
1.0000
 50
270.0000
  0
INSERT
  8
32
  2
RECT
 10
67.7119
 20
48.5691
 30
0.0000
 41
0.5000
 42
1.5000
 43
1.0000
 50
270.0000
  0
INSERT
  8
32
  2
RECT
 10
67.7119
 20
49.3691
 30
0.0000
 41
0.5000
 42
1.5000
 43
1.0000
 50
270.0000
  0
INSERT
  8
32
  2
RECT
 10
2.7526
 20
82.1124
 30
0.0000
 41
1.6000
 42
1.8000
 43
1.0000
 50
270.0000
  0
INSERT
  8
32
  2
RECT
 10
2.7526
 20
79.3124
 30
0.0000
 41
1.6000
 42
1.8000
 43
1.0000
 50
270.0000
  0
INSERT
  8
32
  2
RECT
 10
53.1731
 20
25.2696
 30
0.0000
 41
1.6000
 42
1.4000
 43
1.0000
 50
0.0000
  0
INSERT
  8
32
  2
RECT
 10
53.1731
 20
22.4696
 30
0.0000
 41
1.6000
 42
1.4000
 43
1.0000
 50
0.0000
  0
INSERT
  8
32
  2
RECT
 10
65.6152
 20
25.1562
 30
0.0000
 41
1.6000
 42
1.4000
 43
1.0000
 50
0.0000
  0
INSERT
  8
32
  2
RECT
 10
65.6152
 20
22.3563
 30
0.0000
 41
1.6000
 42
1.4000
 43
1.0000
 50
0.0000
  0
INSERT
  8
32
  2
RECT
 10
61.9004
 20
48.0978
 30
0.0000
 41
1.6000
 42
1.8000
 43
1.0000
 50
90.0000
  0
INSERT
  8
32
  2
RECT
 10
61.9004
 20
50.8978
 30
0.0000
 41
1.6000
 42
1.8000
 43
1.0000
 50
90.0000
  0
INSERT
  8
32
  2
RECT
 10
60.9627
 20
55.4639
 30
0.0000
 41
1.6000
 42
1.8000
 43
1.0000
 50
0.0000
  0
INSERT
  8
32
  2
RECT
 10
63.7627
 20
55.4639
 30
0.0000
 41
1.6000
 42
1.8000
 43
1.0000
 50
0.0000
  0
INSERT
  8
32
  2
RECT
 10
97.1412
 20
58.2145
 30
0.0000
 41
1.6000
 42
1.8000
 43
1.0000
 50
270.0000
  0
INSERT
  8
32
  2
RECT
 10
97.1412
 20
55.4145
 30
0.0000
 41
1.6000
 42
1.8000
 43
1.0000
 50
270.0000
  0
INSERT
  8
32
  2
RECT
 10
100.8360
 20
36.5721
 30
0.0000
 41
1.6000
 42
1.8000
 43
1.0000
 50
180.0000
  0
INSERT
  8
32
  2
RECT
 10
98.0360
 20
36.5721
 30
0.0000
 41
1.6000
 42
1.8000
 43
1.0000
 50
180.0000
  0
INSERT
  8
32
  2
RECT
 10
30.4003
 20
75.8680
 30
0.0000
 41
1.6000
 42
1.8000
 43
1.0000
 50
0.0000
  0
INSERT
  8
32
  2
RECT
 10
33.2003
 20
75.8680
 30
0.0000
 41
1.6000
 42
1.8000
 43
1.0000
 50
0.0000
  0
INSERT
  8
32
  2
RECT
 10
15.5741
 20
90.6654
 30
0.0000
 41
1.6000
 42
1.8000
 43
1.0000
 50
0.0000
  0
INSERT
  8
32
  2
RECT
 10
18.3741
 20
90.6654
 30
0.0000
 41
1.6000
 42
1.8000
 43
1.0000
 50
0.0000
  0
INSERT
  8
32
  2
RECT
 10
84.8580
 20
36.9815
 30
0.0000
 41
1.6000
 42
1.8000
 43
1.0000
 50
180.0000
  0
INSERT
  8
32
  2
RECT
 10
82.0580
 20
36.9815
 30
0.0000
 41
1.6000
 42
1.8000
 43
1.0000
 50
180.0000
  0
INSERT
  8
32
  2
RECT
 10
7.3628
 20
78.9484
 30
0.0000
 41
2.5400
 42
2.5400
 43
1.0000
 50
90.0000
  0
INSERT
  8
32
  2
RECT
 10
7.3628
 20
83.0184
 30
0.0000
 41
2.5400
 42
2.5400
 43
1.0000
 50
270.0000
  0
INSERT
  8
32
  2
RECT
 10
34.6340
 20
79.3086
 30
0.0000
 41
2.5400
 42
2.5400
 43
1.0000
 50
90.0000
  0
INSERT
  8
32
  2
RECT
 10
34.6340
 20
83.3786
 30
0.0000
 41
2.5400
 42
2.5400
 43
1.0000
 50
270.0000
  0
INSERT
  8
32
  2
RECT
 10
62.1151
 20
21.6369
 30
0.0000
 41
1.2192
 42
2.2352
 43
1.0000
 50
180.0000
  0
INSERT
  8
32
  2
RECT
 10
59.8038
 20
21.6369
 30
0.0000
 41
1.2192
 42
2.2352
 43
1.0000
 50
180.0000
  0
INSERT
  8
32
  2
RECT
 10
57.4924
 20
21.6369
 30
0.0000
 41
1.2192
 42
2.2352
 43
1.0000
 50
180.0000
  0
INSERT
  8
32
  2
RECT
 10
59.8038
 20
27.8347
 30
0.0000
 41
3.6000
 42
2.2000
 43
1.0000
 50
180.0000
  0
INSERT
  8
32
  2
RECT
 10
27.5415
 20
19.6831
 30
0.0000
 41
0.6000
 42
1.8000
 43
1.0000
 50
180.0000
  0
INSERT
  8
32
  2
RECT
 10
26.2715
 20
19.6831
 30
0.0000
 41
0.6000
 42
1.8000
 43
1.0000
 50
180.0000
  0
INSERT
  8
32
  2
RECT
 10
25.0015
 20
19.6831
 30
0.0000
 41
0.6000
 42
1.8000
 43
1.0000
 50
180.0000
  0
INSERT
  8
32
  2
RECT
 10
23.7315
 20
19.6831
 30
0.0000
 41
0.6000
 42
1.8000
 43
1.0000
 50
180.0000
  0
INSERT
  8
32
  2
RECT
 10
22.4615
 20
19.6831
 30
0.0000
 41
0.6000
 42
1.8000
 43
1.0000
 50
180.0000
  0
INSERT
  8
32
  2
RECT
 10
21.1915
 20
19.6831
 30
0.0000
 41
0.6000
 42
1.8000
 43
1.0000
 50
180.0000
  0
INSERT
  8
32
  2
RECT
 10
19.9215
 20
19.6831
 30
0.0000
 41
0.6000
 42
1.8000
 43
1.0000
 50
180.0000
  0
INSERT
  8
32
  2
RECT
 10
18.6515
 20
19.6831
 30
0.0000
 41
0.6000
 42
1.8000
 43
1.0000
 50
180.0000
  0
INSERT
  8
32
  2
RECT
 10
17.3815
 20
19.6831
 30
0.0000
 41
0.6000
 42
1.8000
 43
1.0000
 50
180.0000
  0
INSERT
  8
32
  2
RECT
 10
17.3815
 20
28.6331
 30
0.0000
 41
0.6000
 42
1.8000
 43
1.0000
 50
0.0000
  0
INSERT
  8
32
  2
RECT
 10
18.6515
 20
28.6581
 30
0.0000
 41
0.6000
 42
1.8000
 43
1.0000
 50
180.0000
  0
INSERT
  8
32
  2
RECT
 10
19.9215
 20
28.6581
 30
0.0000
 41
0.6000
 42
1.8000
 43
1.0000
 50
180.0000
  0
INSERT
  8
32
  2
RECT
 10
21.1915
 20
28.6581
 30
0.0000
 41
0.6000
 42
1.8000
 43
1.0000
 50
180.0000
  0
INSERT
  8
32
  2
RECT
 10
22.4615
 20
28.6581
 30
0.0000
 41
0.6000
 42
1.8000
 43
1.0000
 50
180.0000
  0
INSERT
  8
32
  2
RECT
 10
23.7315
 20
28.6581
 30
0.0000
 41
0.6000
 42
1.8000
 43
1.0000
 50
180.0000
  0
INSERT
  8
32
  2
RECT
 10
25.0015
 20
28.6581
 30
0.0000
 41
0.6000
 42
1.8000
 43
1.0000
 50
180.0000
  0
INSERT
  8
32
  2
RECT
 10
26.2715
 20
28.6581
 30
0.0000
 41
0.6000
 42
1.8000
 43
1.0000
 50
180.0000
  0
INSERT
  8
32
  2
RECT
 10
27.5415
 20
28.6581
 30
0.0000
 41
0.6000
 42
1.8000
 43
1.0000
 50
180.0000
  0
INSERT
  8
32
  2
RECT
 10
74.6034
 20
18.4097
 30
0.0000
 41
1.5000
 42
1.5000
 43
1.0000
 50
0.0000
  0
INSERT
  8
32
  2
RECT
 10
71.1034
 20
18.4097
 30
0.0000
 41
1.5000
 42
1.5000
 43
1.0000
 50
0.0000
  0
INSERT
  8
32
  2
RECT
 10
98.6603
 20
41.0453
 30
0.0000
 41
5.3340
 42
1.9304
 43
1.0000
 50
90.0000
  0
INSERT
  8
32
  2
RECT
 10
98.6603
 20
50.6973
 30
0.0000
 41
5.3340
 42
1.9304
 43
1.0000
 50
90.0000
  0
INSERT
  8
32
  2
RECT
 10
10.7267
 20
25.6099
 30
0.0000
 41
0.8000
 42
0.9000
 43
1.0000
 50
270.0000
  0
INSERT
  8
32
  2
RECT
 10
10.7267
 20
23.7099
 30
0.0000
 41
0.8000
 42
0.9000
 43
1.0000
 50
270.0000
  0
INSERT
  8
32
  2
RECT
 10
8.6267
 20
24.6599
 30
0.0000
 41
0.8000
 42
0.9000
 43
1.0000
 50
270.0000
  0
INSERT
  8
32
  2
RECT
 10
3.1470
 20
75.1144
 30
0.0000
 41
1.6000
 42
1.8000
 43
1.0000
 50
0.0000
  0
INSERT
  8
32
  2
RECT
 10
5.9470
 20
75.1144
 30
0.0000
 41
1.6000
 42
1.8000
 43
1.0000
 50
0.0000
  0
INSERT
  8
32
  2
RECT
 10
74.4821
 20
15.7993
 30
0.0000
 41
1.6000
 42
1.8000
 43
1.0000
 50
180.0000
  0
INSERT
  8
32
  2
RECT
 10
71.6821
 20
15.7993
 30
0.0000
 41
1.6000
 42
1.8000
 43
1.0000
 50
180.0000
  0
INSERT
  8
32
  2
RECT
 10
47.2548
 20
8.5858
 30
0.0000
 41
1.6000
 42
1.8000
 43
1.0000
 50
0.0000
  0
INSERT
  8
32
  2
RECT
 10
50.0548
 20
8.5858
 30
0.0000
 41
1.6000
 42
1.8000
 43
1.0000
 50
0.0000
  0
INSERT
  8
32
  2
RECT
 10
47.2511
 20
11.5944
 30
0.0000
 41
1.6000
 42
1.8000
 43
1.0000
 50
0.0000
  0
INSERT
  8
32
  2
RECT
 10
50.0511
 20
11.5944
 30
0.0000
 41
1.6000
 42
1.8000
 43
1.0000
 50
0.0000
  0
INSERT
  8
32
  2
RECT
 10
84.3621
 20
57.0573
 30
0.0000
 41
1.6000
 42
1.8000
 43
1.0000
 50
270.0000
  0
INSERT
  8
32
  2
RECT
 10
84.3621
 20
54.2573
 30
0.0000
 41
1.6000
 42
1.8000
 43
1.0000
 50
270.0000
  0
INSERT
  8
32
  2
RECT
 10
40.8034
 20
29.4223
 30
0.0000
 41
1.6000
 42
1.8000
 43
1.0000
 50
0.0000
  0
INSERT
  8
32
  2
RECT
 10
43.6034
 20
29.4223
 30
0.0000
 41
1.6000
 42
1.8000
 43
1.0000
 50
0.0000
  0
INSERT
  8
32
  2
RECT
 10
40.7800
 20
32.6459
 30
0.0000
 41
1.6000
 42
1.8000
 43
1.0000
 50
0.0000
  0
INSERT
  8
32
  2
RECT
 10
43.5800
 20
32.6459
 30
0.0000
 41
1.6000
 42
1.8000
 43
1.0000
 50
0.0000
  0
INSERT
  8
32
  2
RECT
 10
139.9691
 20
60.2766
 30
0.0000
 41
1.6000
 42
1.8000
 43
1.0000
 50
270.0000
  0
INSERT
  8
32
  2
RECT
 10
139.9691
 20
57.4766
 30
0.0000
 41
1.6000
 42
1.8000
 43
1.0000
 50
270.0000
  0
INSERT
  8
32
  2
RECT
 10
33.3185
 20
71.6267
 30
0.0000
 41
1.6000
 42
1.8000
 43
1.0000
 50
180.0000
  0
INSERT
  8
32
  2
RECT
 10
30.5185
 20
71.6267
 30
0.0000
 41
1.6000
 42
1.8000
 43
1.0000
 50
180.0000
  0
INSERT
  8
32
  2
RECT
 10
14.0798
 20
25.9650
 30
0.0000
 41
1.6000
 42
1.8000
 43
1.0000
 50
270.0000
  0
INSERT
  8
32
  2
RECT
 10
14.0798
 20
23.1650
 30
0.0000
 41
1.6000
 42
1.8000
 43
1.0000
 50
270.0000
  0
INSERT
  8
32
  2
RECT
 10
8.9937
 20
28.6353
 30
0.0000
 41
1.6000
 42
1.8000
 43
1.0000
 50
0.0000
  0
INSERT
  8
32
  2
RECT
 10
11.7937
 20
28.6353
 30
0.0000
 41
1.6000
 42
1.8000
 43
1.0000
 50
0.0000
  0
INSERT
  8
32
  2
RECT
 10
31.1661
 20
33.5423
 30
0.0000
 41
1.6000
 42
1.8000
 43
1.0000
 50
180.0000
  0
INSERT
  8
32
  2
RECT
 10
28.3661
 20
33.5423
 30
0.0000
 41
1.6000
 42
1.8000
 43
1.0000
 50
180.0000
  0
INSERT
  8
32
  2
RECT
 10
140.2226
 20
43.5007
 30
0.0000
 41
1.6000
 42
1.8000
 43
1.0000
 50
270.0000
  0
INSERT
  8
32
  2
RECT
 10
140.2226
 20
40.7007
 30
0.0000
 41
1.6000
 42
1.8000
 43
1.0000
 50
270.0000
  0
INSERT
  8
32
  2
RECT
 10
140.6467
 20
24.8292
 30
0.0000
 41
1.6000
 42
1.8000
 43
1.0000
 50
270.0000
  0
INSERT
  8
32
  2
RECT
 10
140.6467
 20
22.0292
 30
0.0000
 41
1.6000
 42
1.8000
 43
1.0000
 50
270.0000
  0
INSERT
  8
32
  2
RECT
 10
140.5532
 20
6.3383
 30
0.0000
 41
1.6000
 42
1.8000
 43
1.0000
 50
270.0000
  0
INSERT
  8
32
  2
RECT
 10
140.5532
 20
3.5383
 30
0.0000
 41
1.6000
 42
1.8000
 43
1.0000
 50
270.0000
  0
INSERT
  8
32
  2
RECT
 10
70.4693
 20
71.4944
 30
0.0000
 41
1.6000
 42
1.8000
 43
1.0000
 50
0.0000
  0
INSERT
  8
32
  2
RECT
 10
73.2693
 20
71.4944
 30
0.0000
 41
1.6000
 42
1.8000
 43
1.0000
 50
0.0000
  0
INSERT
  8
32
  2
RECT
 10
70.5763
 20
78.9219
 30
0.0000
 41
1.6000
 42
1.8000
 43
1.0000
 50
0.0000
  0
INSERT
  8
32
  2
RECT
 10
73.3763
 20
78.9219
 30
0.0000
 41
1.6000
 42
1.8000
 43
1.0000
 50
0.0000
  0
INSERT
  8
32
  2
RECT
 10
70.5167
 20
87.7753
 30
0.0000
 41
1.6000
 42
1.8000
 43
1.0000
 50
0.0000
  0
INSERT
  8
32
  2
RECT
 10
73.3167
 20
87.7753
 30
0.0000
 41
1.6000
 42
1.8000
 43
1.0000
 50
0.0000
  0
INSERT
  8
32
  2
RECT
 10
70.5355
 20
96.8827
 30
0.0000
 41
1.6000
 42
1.8000
 43
1.0000
 50
0.0000
  0
INSERT
  8
32
  2
RECT
 10
73.3355
 20
96.8827
 30
0.0000
 41
1.6000
 42
1.8000
 43
1.0000
 50
0.0000
  0
INSERT
  8
32
  2
RECT
 10
32.8479
 20
3.4677
 30
0.0000
 41
1.0922
 42
2.0066
 43
1.0000
 50
180.0000
  0
INSERT
  8
32
  2
RECT
 10
30.3079
 20
3.4677
 30
0.0000
 41
1.0922
 42
2.0066
 43
1.0000
 50
180.0000
  0
INSERT
  8
32
  2
RECT
 10
27.7679
 20
3.4677
 30
0.0000
 41
1.0922
 42
2.0066
 43
1.0000
 50
180.0000
  0
INSERT
  8
32
  2
RECT
 10
25.2279
 20
3.4677
 30
0.0000
 41
1.0922
 42
2.0066
 43
1.0000
 50
180.0000
  0
INSERT
  8
32
  2
RECT
 10
22.6879
 20
3.4677
 30
0.0000
 41
1.0922
 42
2.0066
 43
1.0000
 50
180.0000
  0
INSERT
  8
32
  2
RECT
 10
20.1479
 20
3.4677
 30
0.0000
 41
1.0922
 42
2.0066
 43
1.0000
 50
180.0000
  0
INSERT
  8
32
  2
RECT
 10
17.6079
 20
3.4677
 30
0.0000
 41
1.0922
 42
2.0066
 43
1.0000
 50
180.0000
  0
INSERT
  8
32
  2
RECT
 10
15.0679
 20
3.4677
 30
0.0000
 41
1.0922
 42
2.0066
 43
1.0000
 50
180.0000
  0
INSERT
  8
32
  2
RECT
 10
15.0679
 20
12.4593
 30
0.0000
 41
1.0922
 42
2.0066
 43
1.0000
 50
180.0000
  0
INSERT
  8
32
  2
RECT
 10
17.6079
 20
12.4593
 30
0.0000
 41
1.0922
 42
2.0066
 43
1.0000
 50
180.0000
  0
INSERT
  8
32
  2
RECT
 10
20.1479
 20
12.4593
 30
0.0000
 41
1.0922
 42
2.0066
 43
1.0000
 50
180.0000
  0
INSERT
  8
32
  2
RECT
 10
22.6879
 20
12.4593
 30
0.0000
 41
1.0922
 42
2.0066
 43
1.0000
 50
180.0000
  0
INSERT
  8
32
  2
RECT
 10
25.2279
 20
12.4593
 30
0.0000
 41
1.0922
 42
2.0066
 43
1.0000
 50
180.0000
  0
INSERT
  8
32
  2
RECT
 10
27.7679
 20
12.4593
 30
0.0000
 41
1.0922
 42
2.0066
 43
1.0000
 50
180.0000
  0
INSERT
  8
32
  2
RECT
 10
30.3079
 20
12.4593
 30
0.0000
 41
1.0922
 42
2.0066
 43
1.0000
 50
180.0000
  0
INSERT
  8
32
  2
RECT
 10
32.8479
 20
12.4593
 30
0.0000
 41
1.0922
 42
2.0066
 43
1.0000
 50
180.0000
  0
INSERT
  8
32
  2
RECT
 10
43.6076
 20
20.1245
 30
0.0000
 41
0.6096
 42
2.2098
 43
1.0000
 50
180.0000
  0
INSERT
  8
32
  2
RECT
 10
42.3376
 20
20.1245
 30
0.0000
 41
0.6096
 42
2.2098
 43
1.0000
 50
180.0000
  0
INSERT
  8
32
  2
RECT
 10
41.0676
 20
20.1245
 30
0.0000
 41
0.6096
 42
2.2098
 43
1.0000
 50
180.0000
  0
INSERT
  8
32
  2
RECT
 10
39.7976
 20
20.1245
 30
0.0000
 41
0.6096
 42
2.2098
 43
1.0000
 50
180.0000
  0
INSERT
  8
32
  2
RECT
 10
39.7976
 20
25.3569
 30
0.0000
 41
0.6096
 42
2.2098
 43
1.0000
 50
180.0000
  0
INSERT
  8
32
  2
RECT
 10
41.0676
 20
25.3569
 30
0.0000
 41
0.6096
 42
2.2098
 43
1.0000
 50
180.0000
  0
INSERT
  8
32
  2
RECT
 10
42.3376
 20
25.3569
 30
0.0000
 41
0.6096
 42
2.2098
 43
1.0000
 50
180.0000
  0
INSERT
  8
32
  2
RECT
 10
43.6076
 20
25.3569
 30
0.0000
 41
0.6096
 42
2.2098
 43
1.0000
 50
180.0000
  0
INSERT
  8
32
  2
RECT
 10
67.4909
 20
12.9369
 30
0.0000
 41
1.7780
 42
0.9144
 43
1.0000
 50
0.0000
  0
INSERT
  8
32
  2
RECT
 10
54.1749
 20
12.9369
 30
0.0000
 41
1.7780
 42
0.9144
 43
1.0000
 50
0.0000
  0
INSERT
  8
32
  2
RECT
 10
54.1749
 20
14.4369
 30
0.0000
 41
1.7780
 42
0.9144
 43
1.0000
 50
0.0000
  0
INSERT
  8
32
  2
RECT
 10
67.4909
 20
15.9369
 30
0.0000
 41
1.7780
 42
0.9144
 43
1.0000
 50
0.0000
  0
INSERT
  8
32
  2
RECT
 10
54.1749
 20
15.9369
 30
0.0000
 41
1.7780
 42
0.9144
 43
1.0000
 50
0.0000
  0
INSERT
  8
32
  2
RECT
 10
54.1749
 20
17.4369
 30
0.0000
 41
1.7780
 42
0.9144
 43
1.0000
 50
0.0000
  0
INSERT
  8
32
  2
RECT
 10
67.4909
 20
6.9369
 30
0.0000
 41
1.7780
 42
0.9144
 43
1.0000
 50
0.0000
  0
INSERT
  8
32
  2
RECT
 10
67.4909
 20
8.4369
 30
0.0000
 41
1.7780
 42
0.9144
 43
1.0000
 50
0.0000
  0
INSERT
  8
32
  2
RECT
 10
67.4909
 20
9.9369
 30
0.0000
 41
1.7780
 42
0.9144
 43
1.0000
 50
0.0000
  0
INSERT
  8
32
  2
RECT
 10
67.4909
 20
11.4369
 30
0.0000
 41
1.7780
 42
0.9144
 43
1.0000
 50
0.0000
  0
INSERT
  8
32
  2
RECT
 10
67.4909
 20
14.4369
 30
0.0000
 41
1.7780
 42
0.9144
 43
1.0000
 50
0.0000
  0
INSERT
  8
32
  2
RECT
 10
54.1749
 20
9.9369
 30
0.0000
 41
1.7780
 42
0.9144
 43
1.0000
 50
0.0000
  0
INSERT
  8
32
  2
RECT
 10
54.1749
 20
6.9369
 30
0.0000
 41
1.7780
 42
0.9144
 43
1.0000
 50
0.0000
  0
INSERT
  8
32
  2
RECT
 10
54.1749
 20
11.4369
 30
0.0000
 41
1.7780
 42
0.9144
 43
1.0000
 50
0.0000
  0
INSERT
  8
32
  2
RECT
 10
54.1749
 20
8.4369
 30
0.0000
 41
1.7780
 42
0.9144
 43
1.0000
 50
0.0000
  0
INSERT
  8
32
  2
RECT
 10
67.4909
 20
17.4369
 30
0.0000
 41
1.7780
 42
0.9144
 43
1.0000
 50
0.0000
  0
INSERT
  8
32
  2
RECT
 10
123.0371
 20
72.5694
 30
0.0000
 41
1.6000
 42
1.8000
 43
1.0000
 50
180.0000
  0
INSERT
  8
32
  2
RECT
 10
120.2371
 20
72.5694
 30
0.0000
 41
1.6000
 42
1.8000
 43
1.0000
 50
180.0000
  0
INSERT
  8
32
  2
RECT
 10
143.7320
 20
78.1345
 30
0.0000
 41
1.6000
 42
1.8000
 43
1.0000
 50
180.0000
  0
INSERT
  8
32
  2
RECT
 10
140.9320
 20
78.1345
 30
0.0000
 41
1.6000
 42
1.8000
 43
1.0000
 50
180.0000
  0
INSERT
  8
32
  2
RECT
 10
123.0062
 20
80.6668
 30
0.0000
 41
1.6000
 42
1.8000
 43
1.0000
 50
180.0000
  0
INSERT
  8
32
  2
RECT
 10
120.2062
 20
80.6668
 30
0.0000
 41
1.6000
 42
1.8000
 43
1.0000
 50
180.0000
  0
INSERT
  8
32
  2
RECT
 10
143.7637
 20
85.9699
 30
0.0000
 41
1.6000
 42
1.8000
 43
1.0000
 50
180.0000
  0
INSERT
  8
32
  2
RECT
 10
140.9637
 20
85.9699
 30
0.0000
 41
1.6000
 42
1.8000
 43
1.0000
 50
180.0000
  0
INSERT
  8
32
  2
RECT
 10
123.3161
 20
96.0523
 30
0.0000
 41
1.6000
 42
1.8000
 43
1.0000
 50
180.0000
  0
INSERT
  8
32
  2
RECT
 10
120.5161
 20
96.0523
 30
0.0000
 41
1.6000
 42
1.8000
 43
1.0000
 50
180.0000
  0
INSERT
  8
32
  2
RECT
 10
143.4683
 20
95.2872
 30
0.0000
 41
1.6000
 42
1.8000
 43
1.0000
 50
180.0000
  0
INSERT
  8
32
  2
RECT
 10
140.6683
 20
95.2872
 30
0.0000
 41
1.6000
 42
1.8000
 43
1.0000
 50
180.0000
  0
ENDSEC
  0
EOF
