G75*
G70*
%OFA0B0*%
%FSLAX24Y24*%
%IPPOS*%
%LPD*%
%AMOC8*
5,1,8,0,0,1.08239X$1,22.5*
%
%ADD10C,0.0100*%
%ADD11C,0.0060*%
%ADD12C,0.0040*%
%ADD13C,0.0030*%
%ADD14C,0.0080*%
%ADD15C,0.0050*%
%ADD16C,0.0000*%
%ADD17C,0.0020*%
D10*
X002104Y000150D02*
X002104Y015551D01*
X002111Y015558D02*
X003267Y016714D01*
X003262Y016707D02*
X003275Y016720D01*
X022274Y016720D01*
X022284Y016713D02*
X023235Y015762D01*
X023235Y011317D01*
X025235Y009317D01*
X025235Y000168D01*
X025240Y000150D02*
X002104Y000150D01*
X016291Y010102D02*
X016293Y010122D01*
X016298Y010142D01*
X016308Y010160D01*
X016320Y010177D01*
X016335Y010191D01*
X016353Y010201D01*
X016372Y010209D01*
X016392Y010213D01*
X016412Y010213D01*
X016432Y010209D01*
X016451Y010201D01*
X016469Y010191D01*
X016484Y010177D01*
X016496Y010160D01*
X016506Y010142D01*
X016511Y010122D01*
X016513Y010102D01*
X016511Y010082D01*
X016506Y010062D01*
X016496Y010044D01*
X016484Y010027D01*
X016469Y010013D01*
X016451Y010003D01*
X016432Y009995D01*
X016412Y009991D01*
X016392Y009991D01*
X016372Y009995D01*
X016353Y010003D01*
X016335Y010013D01*
X016320Y010027D01*
X016308Y010044D01*
X016298Y010062D01*
X016293Y010082D01*
X016291Y010102D01*
X013714Y014022D02*
X013714Y014772D01*
X021714Y014772D01*
X021714Y014022D01*
X013714Y014022D01*
X013714Y014772D02*
X013714Y016522D01*
X021714Y016522D01*
X021714Y014772D01*
D11*
X021516Y013490D02*
X013916Y013490D01*
X013890Y013488D01*
X013864Y013483D01*
X013839Y013475D01*
X013816Y013463D01*
X013794Y013449D01*
X013775Y013431D01*
X013757Y013412D01*
X013743Y013390D01*
X013731Y013367D01*
X013723Y013342D01*
X013718Y013316D01*
X013716Y013290D01*
X013716Y012890D01*
X013718Y012864D01*
X013723Y012838D01*
X013731Y012813D01*
X013743Y012790D01*
X013757Y012768D01*
X013775Y012749D01*
X013794Y012731D01*
X013816Y012717D01*
X013839Y012705D01*
X013864Y012697D01*
X013890Y012692D01*
X013916Y012690D01*
X021516Y012690D01*
X021566Y012740D02*
X020866Y012740D01*
X020866Y013440D01*
X021566Y013440D01*
X021566Y012740D01*
X021516Y012690D02*
X021542Y012692D01*
X021568Y012697D01*
X021593Y012705D01*
X021616Y012717D01*
X021638Y012731D01*
X021657Y012749D01*
X021675Y012768D01*
X021689Y012790D01*
X021701Y012813D01*
X021709Y012838D01*
X021714Y012864D01*
X021716Y012890D01*
X021716Y013290D01*
X021714Y013316D01*
X021709Y013342D01*
X021701Y013367D01*
X021689Y013390D01*
X021675Y013412D01*
X021657Y013431D01*
X021638Y013449D01*
X021616Y013463D01*
X021593Y013475D01*
X021568Y013483D01*
X021542Y013488D01*
X021516Y013490D01*
X018899Y014170D02*
X018899Y014340D01*
X018842Y014397D01*
X018729Y014397D01*
X018672Y014340D01*
X018531Y014397D02*
X018360Y014397D01*
X018304Y014340D01*
X018304Y014227D01*
X018360Y014170D01*
X018531Y014170D01*
X018672Y014170D02*
X018672Y014511D01*
X018162Y014397D02*
X018162Y014170D01*
X017992Y014170D01*
X017935Y014227D01*
X017935Y014397D01*
X017794Y014340D02*
X017737Y014397D01*
X017624Y014397D01*
X017567Y014340D01*
X017567Y014227D01*
X017624Y014170D01*
X017737Y014170D01*
X017794Y014227D01*
X017794Y014340D01*
X017426Y014511D02*
X017199Y014511D01*
X017312Y014511D02*
X017312Y014170D01*
X017057Y014170D02*
X016944Y014284D01*
X017057Y014227D02*
X017001Y014170D01*
X016887Y014170D01*
X016830Y014227D01*
X016830Y014454D01*
X016887Y014511D01*
X017001Y014511D01*
X017057Y014454D01*
X017057Y014227D01*
X013345Y011634D02*
X013095Y011884D01*
X012595Y011884D01*
X012345Y011634D01*
X012345Y011134D01*
X012595Y010884D01*
X012345Y010634D01*
X012345Y010134D01*
X012595Y009884D01*
X013095Y009884D01*
X013345Y010134D01*
X013345Y010634D01*
X013095Y010884D01*
X012595Y010884D01*
X013095Y010884D02*
X013345Y011134D01*
X013345Y011634D01*
X011775Y011350D02*
X011548Y011350D01*
X011639Y010566D02*
X011639Y010340D01*
X011526Y010453D02*
X011753Y010453D01*
X012345Y009634D02*
X012595Y009884D01*
X012345Y009634D02*
X012345Y009134D01*
X012595Y008884D01*
X012345Y008634D01*
X012345Y008134D01*
X012595Y007884D01*
X012345Y007634D01*
X012345Y007134D01*
X012595Y006884D01*
X012345Y006634D01*
X012345Y006134D01*
X012595Y005884D01*
X013095Y005884D01*
X013345Y006134D01*
X013345Y006634D01*
X013095Y006884D01*
X012595Y006884D01*
X013095Y006884D02*
X013345Y007134D01*
X013345Y007634D01*
X013095Y007884D01*
X012595Y007884D01*
X013095Y007884D02*
X013345Y008134D01*
X013345Y008634D01*
X013095Y008884D01*
X012595Y008884D01*
X013095Y008884D02*
X013345Y009134D01*
X013345Y009634D01*
X013095Y009884D01*
X010432Y009815D02*
X010432Y008865D01*
X010432Y008515D01*
X009632Y008165D02*
X009532Y008165D01*
X009532Y008065D01*
X008932Y008065D01*
X008932Y008165D01*
X008832Y008165D01*
X008032Y008515D02*
X008032Y008865D01*
X008032Y009865D01*
X008032Y010215D01*
X008832Y010565D02*
X008932Y010565D01*
X008932Y010665D01*
X009532Y010665D01*
X009532Y010565D01*
X009632Y010565D01*
X010432Y010215D02*
X010432Y009815D01*
X009132Y009365D02*
X009134Y009385D01*
X009140Y009403D01*
X009149Y009421D01*
X009161Y009436D01*
X009176Y009448D01*
X009194Y009457D01*
X009212Y009463D01*
X009232Y009465D01*
X009252Y009463D01*
X009270Y009457D01*
X009288Y009448D01*
X009303Y009436D01*
X009315Y009421D01*
X009324Y009403D01*
X009330Y009385D01*
X009332Y009365D01*
X009330Y009345D01*
X009324Y009327D01*
X009315Y009309D01*
X009303Y009294D01*
X009288Y009282D01*
X009270Y009273D01*
X009252Y009267D01*
X009232Y009265D01*
X009212Y009267D01*
X009194Y009273D01*
X009176Y009282D01*
X009161Y009294D01*
X009149Y009309D01*
X009140Y009327D01*
X009134Y009345D01*
X009132Y009365D01*
X008532Y009365D02*
X008534Y009417D01*
X008540Y009469D01*
X008550Y009521D01*
X008563Y009571D01*
X008580Y009621D01*
X008601Y009669D01*
X008626Y009715D01*
X008654Y009759D01*
X008685Y009801D01*
X008719Y009841D01*
X008756Y009878D01*
X008796Y009912D01*
X008838Y009943D01*
X008882Y009971D01*
X008928Y009996D01*
X008976Y010017D01*
X009026Y010034D01*
X009076Y010047D01*
X009128Y010057D01*
X009180Y010063D01*
X009232Y010065D01*
X009284Y010063D01*
X009336Y010057D01*
X009388Y010047D01*
X009438Y010034D01*
X009488Y010017D01*
X009536Y009996D01*
X009582Y009971D01*
X009626Y009943D01*
X009668Y009912D01*
X009708Y009878D01*
X009745Y009841D01*
X009779Y009801D01*
X009810Y009759D01*
X009838Y009715D01*
X009863Y009669D01*
X009884Y009621D01*
X009901Y009571D01*
X009914Y009521D01*
X009924Y009469D01*
X009930Y009417D01*
X009932Y009365D01*
X009930Y009313D01*
X009924Y009261D01*
X009914Y009209D01*
X009901Y009159D01*
X009884Y009109D01*
X009863Y009061D01*
X009838Y009015D01*
X009810Y008971D01*
X009779Y008929D01*
X009745Y008889D01*
X009708Y008852D01*
X009668Y008818D01*
X009626Y008787D01*
X009582Y008759D01*
X009536Y008734D01*
X009488Y008713D01*
X009438Y008696D01*
X009388Y008683D01*
X009336Y008673D01*
X009284Y008667D01*
X009232Y008665D01*
X009180Y008667D01*
X009128Y008673D01*
X009076Y008683D01*
X009026Y008696D01*
X008976Y008713D01*
X008928Y008734D01*
X008882Y008759D01*
X008838Y008787D01*
X008796Y008818D01*
X008756Y008852D01*
X008719Y008889D01*
X008685Y008929D01*
X008654Y008971D01*
X008626Y009015D01*
X008601Y009061D01*
X008580Y009109D01*
X008563Y009159D01*
X008550Y009209D01*
X008540Y009261D01*
X008534Y009313D01*
X008532Y009365D01*
X019043Y007338D02*
X019390Y007338D01*
X019347Y007295D02*
X019347Y007382D01*
X019304Y007425D01*
X019260Y007425D01*
X019217Y007382D01*
X019217Y007295D01*
X019173Y007251D01*
X019130Y007251D01*
X019087Y007295D01*
X019087Y007382D01*
X019130Y007425D01*
X019130Y007546D02*
X019087Y007589D01*
X019087Y007676D01*
X019130Y007720D01*
X019173Y007720D01*
X019347Y007546D01*
X019347Y007720D01*
X019347Y007295D02*
X019304Y007251D01*
X019304Y007130D02*
X019087Y007130D01*
X019087Y006957D02*
X019304Y006957D01*
X019347Y007000D01*
X019347Y007087D01*
X019304Y007130D01*
D12*
X012120Y007302D02*
X012087Y007268D01*
X012020Y007268D01*
X011987Y007302D01*
X011899Y007302D02*
X011899Y007435D01*
X011866Y007469D01*
X011766Y007469D01*
X011766Y007268D01*
X011866Y007268D01*
X011899Y007302D01*
X011987Y007435D02*
X012020Y007469D01*
X012087Y007469D01*
X012120Y007435D01*
X012120Y007402D01*
X012087Y007368D01*
X012120Y007335D01*
X012120Y007302D01*
X012087Y007368D02*
X012054Y007368D01*
X011678Y007469D02*
X011545Y007469D01*
X011545Y007268D01*
X011457Y007268D02*
X011391Y007335D01*
X011424Y007335D02*
X011324Y007335D01*
X011324Y007268D02*
X011324Y007469D01*
X011424Y007469D01*
X011457Y007435D01*
X011457Y007368D01*
X011424Y007335D01*
X011545Y007368D02*
X011612Y007368D01*
X011236Y007469D02*
X011103Y007268D01*
X011015Y007302D02*
X011015Y007435D01*
X010982Y007469D01*
X010915Y007469D01*
X010882Y007435D01*
X010882Y007302D01*
X010915Y007268D01*
X010982Y007268D01*
X011015Y007302D01*
X010794Y007302D02*
X010761Y007268D01*
X010694Y007268D01*
X010661Y007302D01*
X010694Y007368D02*
X010761Y007368D01*
X010794Y007335D01*
X010794Y007302D01*
X010694Y007368D02*
X010661Y007402D01*
X010661Y007435D01*
X010694Y007469D01*
X010761Y007469D01*
X010794Y007435D01*
X010580Y007469D02*
X010514Y007469D01*
X010547Y007469D02*
X010547Y007268D01*
X010514Y007268D02*
X010580Y007268D01*
X010426Y007268D02*
X010426Y007469D01*
X010359Y007402D01*
X010293Y007469D01*
X010293Y007268D01*
X011374Y006414D02*
X012037Y006414D01*
X011970Y006334D02*
X011836Y006334D01*
X011903Y006334D02*
X011903Y006134D01*
X011749Y006168D02*
X011715Y006134D01*
X011649Y006134D01*
X011615Y006168D01*
X011649Y006234D02*
X011715Y006234D01*
X011749Y006201D01*
X011749Y006168D01*
X011649Y006234D02*
X011615Y006268D01*
X011615Y006301D01*
X011649Y006334D01*
X011715Y006334D01*
X011749Y006301D01*
X011528Y006301D02*
X011528Y006234D01*
X011495Y006201D01*
X011394Y006201D01*
X011394Y006134D02*
X011394Y006334D01*
X011495Y006334D01*
X011528Y006301D01*
X011461Y006201D02*
X011528Y006134D01*
X011521Y009284D02*
X011454Y009351D01*
X011487Y009351D02*
X011387Y009351D01*
X011387Y009284D02*
X011387Y009484D01*
X011487Y009484D01*
X011521Y009451D01*
X011521Y009384D01*
X011487Y009351D01*
X011608Y009384D02*
X011675Y009384D01*
X011608Y009284D02*
X011608Y009484D01*
X011742Y009484D01*
X011829Y009484D02*
X011929Y009484D01*
X011963Y009451D01*
X011963Y009318D01*
X011929Y009284D01*
X011829Y009284D01*
X011829Y009484D01*
X012050Y009418D02*
X012117Y009484D01*
X012117Y009284D01*
X012183Y009284D02*
X012050Y009284D01*
X011300Y009484D02*
X011166Y009284D01*
X011079Y009284D02*
X010978Y009384D01*
X010945Y009351D02*
X011079Y009484D01*
X010945Y009484D02*
X010945Y009284D01*
X010858Y009318D02*
X010824Y009284D01*
X010757Y009284D01*
X010724Y009318D01*
X010724Y009451D01*
X010757Y009484D01*
X010824Y009484D01*
X010858Y009451D01*
X010637Y009451D02*
X010603Y009484D01*
X010536Y009484D01*
X010503Y009451D01*
X010503Y009418D01*
X010536Y009384D01*
X010603Y009384D01*
X010637Y009351D01*
X010637Y009318D01*
X010603Y009284D01*
X010536Y009284D01*
X010503Y009318D01*
X006008Y014139D02*
X005808Y014139D01*
X005808Y014239D01*
X005841Y014272D01*
X005874Y014272D01*
X005908Y014239D01*
X005908Y014139D01*
X006008Y014139D02*
X006008Y014239D01*
X005975Y014272D01*
X005941Y014272D01*
X005908Y014239D01*
X005808Y014360D02*
X006008Y014360D01*
X006008Y014493D01*
X006008Y014581D02*
X005808Y014581D01*
X005808Y014714D01*
X005808Y014802D02*
X005808Y014902D01*
X005841Y014935D01*
X005975Y014935D01*
X006008Y014902D01*
X006008Y014802D01*
X005808Y014802D01*
X005908Y014648D02*
X005908Y014581D01*
X006008Y014581D02*
X006008Y014714D01*
D13*
X001892Y011803D02*
X001707Y011803D01*
X001645Y011741D01*
X001645Y011556D01*
X001892Y011556D01*
X001768Y011434D02*
X001768Y011187D01*
X001707Y011187D02*
X001645Y011249D01*
X001645Y011373D01*
X001707Y011434D01*
X001768Y011434D01*
X001892Y011373D02*
X001892Y011249D01*
X001830Y011187D01*
X001707Y011187D01*
X001645Y011066D02*
X001645Y010881D01*
X001707Y010819D01*
X001768Y010881D01*
X001768Y011004D01*
X001830Y011066D01*
X001892Y011004D01*
X001892Y010819D01*
X001892Y010697D02*
X001768Y010512D01*
X001645Y010697D01*
X001522Y010512D02*
X001892Y010512D01*
X001892Y010390D02*
X001892Y010267D01*
X001892Y010328D02*
X001645Y010328D01*
X001645Y010267D01*
X001645Y010145D02*
X001645Y010083D01*
X001768Y009960D01*
X001645Y009960D02*
X001892Y009960D01*
X001892Y009838D02*
X001892Y009653D01*
X001830Y009591D01*
X001707Y009591D01*
X001645Y009653D01*
X001645Y009838D01*
X001522Y009838D02*
X001892Y009838D01*
X001892Y009470D02*
X001707Y009470D01*
X001645Y009408D01*
X001645Y009223D01*
X001892Y009223D01*
X001768Y009102D02*
X001768Y008855D01*
X001707Y008855D02*
X001645Y008916D01*
X001645Y009040D01*
X001707Y009102D01*
X001768Y009102D01*
X001892Y009040D02*
X001892Y008916D01*
X001830Y008855D01*
X001707Y008855D01*
X001707Y008733D02*
X001707Y008486D01*
X001830Y008364D02*
X001892Y008364D01*
X001892Y008302D01*
X001830Y008302D01*
X001830Y008364D01*
X001892Y008486D02*
X001522Y008486D01*
X001522Y008733D02*
X001892Y008733D01*
X001830Y008181D02*
X001768Y008181D01*
X001707Y008119D01*
X001707Y007996D01*
X001645Y007934D01*
X001583Y007934D01*
X001522Y007996D01*
X001522Y008119D01*
X001583Y008181D01*
X001830Y008181D02*
X001892Y008119D01*
X001892Y007996D01*
X001830Y007934D01*
X000992Y008234D02*
X000622Y008234D01*
X000807Y008234D02*
X000807Y008481D01*
X000622Y008481D02*
X000992Y008481D01*
X000992Y008602D02*
X000622Y008602D01*
X000745Y008726D01*
X000622Y008849D01*
X000992Y008849D01*
X000807Y008971D02*
X000807Y009217D01*
X000745Y009339D02*
X000622Y009462D01*
X000992Y009462D01*
X000992Y009339D02*
X000992Y009586D01*
X000992Y009707D02*
X000992Y009954D01*
X000992Y009831D02*
X000622Y009831D01*
X000745Y009707D01*
X000745Y010444D02*
X000992Y010567D01*
X000745Y010691D01*
X000683Y010812D02*
X000622Y010874D01*
X000622Y010997D01*
X000683Y011059D01*
X000930Y010812D01*
X000992Y010874D01*
X000992Y010997D01*
X000930Y011059D01*
X000683Y011059D01*
X000683Y010812D02*
X000930Y010812D01*
X000930Y011180D02*
X000930Y011242D01*
X000992Y011242D01*
X000992Y011180D01*
X000930Y011180D01*
X000992Y011365D02*
X000992Y011611D01*
X000992Y011488D02*
X000622Y011488D01*
X000745Y011365D01*
X001460Y010328D02*
X001522Y010328D01*
X010572Y008447D02*
X010628Y008392D01*
X010683Y008447D01*
X010683Y008280D01*
X010753Y008308D02*
X010781Y008280D01*
X010837Y008280D01*
X010865Y008308D01*
X010865Y008420D01*
X010837Y008447D01*
X010781Y008447D01*
X010753Y008420D01*
X010753Y008308D01*
X010935Y008308D02*
X010962Y008280D01*
X011018Y008280D01*
X011046Y008308D01*
X011046Y008336D01*
X011018Y008364D01*
X010962Y008364D01*
X010935Y008392D01*
X010935Y008420D01*
X010962Y008447D01*
X011018Y008447D01*
X011046Y008420D01*
X011116Y008447D02*
X011172Y008447D01*
X011144Y008447D02*
X011144Y008280D01*
X011116Y008280D02*
X011172Y008280D01*
X011237Y008280D02*
X011348Y008447D01*
X011418Y008447D02*
X011502Y008447D01*
X011529Y008420D01*
X011529Y008364D01*
X011502Y008336D01*
X011418Y008336D01*
X011418Y008280D02*
X011418Y008447D01*
X011474Y008336D02*
X011529Y008280D01*
X011599Y008280D02*
X011599Y008447D01*
X011711Y008447D01*
X011781Y008447D02*
X011864Y008447D01*
X011892Y008420D01*
X011892Y008308D01*
X011864Y008280D01*
X011781Y008280D01*
X011781Y008447D01*
X011655Y008364D02*
X011599Y008364D01*
X011962Y008420D02*
X011990Y008447D01*
X012045Y008447D01*
X012073Y008420D01*
X012073Y008392D01*
X011962Y008280D01*
X012073Y008280D01*
X010572Y008280D02*
X010572Y008447D01*
D14*
X016087Y006794D02*
X016087Y010259D01*
X016245Y010417D01*
X019709Y010417D01*
X019867Y010259D01*
X019867Y006794D01*
X019709Y006637D01*
X016245Y006637D01*
X016087Y006794D01*
X021955Y012334D02*
X021955Y012544D01*
X022025Y012614D01*
X022165Y012614D01*
X022235Y012544D01*
X022235Y012334D01*
X022235Y012474D02*
X022375Y012614D01*
X022375Y012794D02*
X021955Y012794D01*
X022375Y013075D01*
X021955Y013075D01*
X022095Y013255D02*
X021955Y013395D01*
X022375Y013395D01*
X022375Y013255D02*
X022375Y013535D01*
X021133Y013218D02*
X021133Y012908D01*
X021236Y012908D02*
X021029Y012908D01*
X021029Y013115D02*
X021133Y013218D01*
X021955Y012334D02*
X022375Y012334D01*
X021470Y016010D02*
X021256Y016010D01*
X021470Y016224D01*
X021470Y016277D01*
X021416Y016331D01*
X021310Y016331D01*
X021256Y016277D01*
X021101Y016331D02*
X021101Y016010D01*
X020888Y016331D01*
X020888Y016010D01*
X020733Y016064D02*
X020680Y016010D01*
X020573Y016010D01*
X020520Y016064D01*
X020520Y016277D01*
X020573Y016331D01*
X020680Y016331D01*
X020733Y016277D01*
X010043Y014429D02*
X010043Y013838D01*
X010043Y014429D02*
X009098Y014429D01*
X009098Y013838D01*
X009098Y013051D02*
X009098Y012618D01*
X009256Y012460D01*
X009886Y012460D01*
X010043Y012618D01*
X010043Y013051D01*
X008351Y014774D02*
X007918Y014774D01*
X008351Y014774D02*
X008508Y014932D01*
X008508Y015562D01*
X008351Y015719D01*
X007918Y015719D01*
X007130Y015719D02*
X006540Y015719D01*
X006540Y014774D01*
X007130Y014774D01*
X005632Y015047D02*
X005632Y015598D01*
X004844Y015598D01*
X004844Y015047D01*
X005002Y014771D02*
X005238Y014535D01*
X005474Y014771D01*
X005002Y014771D01*
X004962Y014535D02*
X005238Y014535D01*
X005514Y014535D01*
X005632Y014259D02*
X005632Y013708D01*
X004844Y013708D01*
X004844Y014259D01*
X002169Y003738D02*
X025122Y003738D01*
X025122Y000195D01*
X002169Y000195D01*
X002169Y003699D01*
X003896Y000874D02*
X004396Y000874D01*
X012779Y000786D02*
X012779Y000195D01*
X012779Y000786D02*
X014512Y000786D01*
X014512Y000195D01*
D15*
X009163Y005022D02*
X009163Y005292D01*
X009028Y005157D01*
X009208Y005157D01*
X008913Y005157D02*
X008913Y005247D01*
X008868Y005292D01*
X008733Y005292D01*
X008733Y005022D01*
X008733Y005112D02*
X008868Y005112D01*
X008913Y005157D01*
X008823Y005112D02*
X008913Y005022D01*
X009162Y007275D02*
X009252Y007275D01*
X009297Y007320D01*
X009411Y007275D02*
X009592Y007455D01*
X009592Y007500D01*
X009547Y007545D01*
X009457Y007545D01*
X009411Y007500D01*
X009297Y007500D02*
X009252Y007545D01*
X009162Y007545D01*
X009117Y007500D01*
X009117Y007320D01*
X009162Y007275D01*
X009411Y007275D02*
X009592Y007275D01*
X007408Y007396D02*
X000125Y007396D01*
X000125Y012711D01*
X007408Y012711D01*
X007408Y007396D01*
X004221Y005983D02*
X004221Y005803D01*
X004040Y005983D01*
X003995Y005983D01*
X003950Y005938D01*
X003950Y005848D01*
X003995Y005803D01*
X003995Y005688D02*
X004085Y005688D01*
X004131Y005643D01*
X004131Y005508D01*
X004221Y005508D02*
X003950Y005508D01*
X003950Y005643D01*
X003995Y005688D01*
X004131Y005598D02*
X004221Y005688D01*
X003050Y005719D02*
X002960Y005629D01*
X002960Y005674D02*
X002960Y005538D01*
X003050Y005538D02*
X002780Y005538D01*
X002780Y005674D01*
X002825Y005719D01*
X002915Y005719D01*
X002960Y005674D01*
X002870Y005833D02*
X002780Y005923D01*
X003050Y005923D01*
X003050Y005833D02*
X003050Y006013D01*
X008557Y011340D02*
X008557Y011610D01*
X008692Y011610D01*
X008737Y011565D01*
X008737Y011475D01*
X008692Y011430D01*
X008557Y011430D01*
X008647Y011430D02*
X008737Y011340D01*
X008852Y011385D02*
X008897Y011340D01*
X008987Y011340D01*
X009032Y011385D01*
X009032Y011430D01*
X008987Y011475D01*
X008897Y011475D01*
X008852Y011520D01*
X008852Y011565D01*
X008897Y011610D01*
X008987Y011610D01*
X009032Y011565D01*
X009146Y011610D02*
X009326Y011610D01*
X009236Y011610D02*
X009236Y011340D01*
X009171Y013294D02*
X009971Y013294D01*
X010259Y013390D02*
X010304Y013345D01*
X010484Y013345D01*
X010529Y013390D01*
X010529Y013480D01*
X010484Y013525D01*
X010484Y013639D02*
X010529Y013639D01*
X010484Y013639D02*
X010304Y013819D01*
X010259Y013819D01*
X010259Y013639D01*
X010304Y013525D02*
X010259Y013480D01*
X010259Y013390D01*
X010184Y013880D02*
X010364Y013880D01*
X010410Y013925D01*
X010410Y014015D01*
X010364Y014060D01*
X010274Y014175D02*
X010274Y014355D01*
X010139Y014310D02*
X010274Y014175D01*
X010184Y014060D02*
X010139Y014015D01*
X010139Y013925D01*
X010184Y013880D01*
X010139Y014310D02*
X010410Y014310D01*
X011877Y013771D02*
X011922Y013816D01*
X011967Y013816D01*
X012012Y013771D01*
X012057Y013816D01*
X012102Y013816D01*
X012147Y013771D01*
X012147Y013681D01*
X012102Y013636D01*
X012102Y013522D02*
X012147Y013477D01*
X012147Y013386D01*
X012102Y013341D01*
X011922Y013341D01*
X011877Y013386D01*
X011877Y013477D01*
X011922Y013522D01*
X011922Y013636D02*
X011877Y013681D01*
X011877Y013771D01*
X012012Y013771D02*
X012012Y013726D01*
X012430Y012399D02*
X012520Y012399D01*
X012475Y012399D02*
X012475Y012174D01*
X012430Y012129D01*
X012385Y012129D01*
X012340Y012174D01*
X012635Y012129D02*
X012635Y012399D01*
X012770Y012399D01*
X012815Y012354D01*
X012815Y012264D01*
X012770Y012219D01*
X012635Y012219D01*
X012929Y012129D02*
X013110Y012309D01*
X013110Y012354D01*
X013065Y012399D01*
X012975Y012399D01*
X012929Y012354D01*
X012929Y012129D02*
X013110Y012129D01*
X014774Y010303D02*
X014819Y010213D01*
X014909Y010123D01*
X014909Y010258D01*
X014954Y010303D01*
X014999Y010303D01*
X015045Y010258D01*
X015045Y010168D01*
X014999Y010123D01*
X014909Y010123D01*
X014819Y010008D02*
X014774Y009963D01*
X014774Y009873D01*
X014819Y009828D01*
X014999Y009828D01*
X015045Y009873D01*
X015045Y009963D01*
X014999Y010008D01*
X007557Y013231D02*
X007377Y013231D01*
X007467Y013231D02*
X007467Y013501D01*
X007377Y013411D01*
X007263Y013456D02*
X007218Y013501D01*
X007128Y013501D01*
X007083Y013456D01*
X007083Y013276D01*
X007128Y013231D01*
X007218Y013231D01*
X007263Y013276D01*
X007674Y014847D02*
X007674Y015647D01*
X007024Y015860D02*
X006979Y015815D01*
X006889Y015815D01*
X006844Y015860D01*
X006844Y015950D02*
X006934Y015995D01*
X006979Y015995D01*
X007024Y015950D01*
X007024Y015860D01*
X006844Y015950D02*
X006844Y016086D01*
X007024Y016086D01*
X006729Y016041D02*
X006684Y016086D01*
X006594Y016086D01*
X006549Y016041D01*
X006549Y015860D01*
X006594Y015815D01*
X006684Y015815D01*
X006729Y015860D01*
X003042Y015103D02*
X003042Y015013D01*
X002997Y014968D01*
X003042Y014854D02*
X002952Y014764D01*
X002952Y014809D02*
X002952Y014673D01*
X003042Y014673D02*
X002772Y014673D01*
X002772Y014809D01*
X002817Y014854D01*
X002907Y014854D01*
X002952Y014809D01*
X002817Y014968D02*
X002772Y015013D01*
X002772Y015103D01*
X002817Y015148D01*
X002862Y015148D01*
X002907Y015103D01*
X002952Y015148D01*
X002997Y015148D01*
X003042Y015103D01*
X002907Y015103D02*
X002907Y015058D01*
D16*
X005823Y012046D02*
X005840Y012046D01*
X005857Y012029D01*
X005857Y011979D01*
X005907Y011979D02*
X005907Y012029D01*
X005890Y012046D01*
X005874Y012046D01*
X005857Y012029D01*
X005823Y012046D02*
X005807Y012029D01*
X005807Y011979D01*
X005907Y011979D01*
X005907Y011921D02*
X005807Y011921D01*
X005807Y011954D02*
X005807Y011887D01*
X005807Y011862D02*
X005807Y011795D01*
X005907Y011795D01*
X005907Y011862D01*
X005857Y011829D02*
X005857Y011795D01*
X005874Y011770D02*
X005890Y011770D01*
X005907Y011753D01*
X005907Y011720D01*
X005890Y011703D01*
X005907Y011678D02*
X005907Y011611D01*
X005807Y011611D01*
X005807Y011678D01*
X005823Y011703D02*
X005840Y011703D01*
X005857Y011720D01*
X005857Y011753D01*
X005874Y011770D01*
X005823Y011770D02*
X005807Y011753D01*
X005807Y011720D01*
X005823Y011703D01*
X005857Y011644D02*
X005857Y011611D01*
X005857Y011586D02*
X005874Y011569D01*
X005874Y011519D01*
X005907Y011519D02*
X005807Y011519D01*
X005807Y011569D01*
X005823Y011586D01*
X005857Y011586D01*
X005874Y011552D02*
X005907Y011586D01*
X006407Y011586D02*
X006507Y011586D01*
X006407Y011519D01*
X006507Y011519D01*
X006490Y011611D02*
X006507Y011628D01*
X006507Y011661D01*
X006490Y011678D01*
X006490Y011703D02*
X006507Y011720D01*
X006507Y011753D01*
X006490Y011770D01*
X006474Y011770D01*
X006457Y011753D01*
X006457Y011736D01*
X006457Y011753D02*
X006440Y011770D01*
X006423Y011770D01*
X006407Y011753D01*
X006407Y011720D01*
X006423Y011703D01*
X006423Y011678D02*
X006407Y011661D01*
X006407Y011628D01*
X006423Y011611D01*
X006490Y011611D01*
X006907Y011628D02*
X006907Y011661D01*
X006923Y011678D01*
X006923Y011703D02*
X006990Y011703D01*
X007007Y011720D01*
X007007Y011753D01*
X006990Y011770D01*
X006923Y011770D02*
X006907Y011753D01*
X006907Y011720D01*
X006923Y011703D01*
X006990Y011678D02*
X007007Y011661D01*
X007007Y011628D01*
X006990Y011611D01*
X006923Y011611D01*
X006907Y011628D01*
X006907Y011586D02*
X006974Y011586D01*
X007007Y011552D01*
X006974Y011519D01*
X006907Y011519D01*
X005307Y011536D02*
X005307Y011569D01*
X005290Y011586D01*
X005257Y011586D01*
X005257Y011552D01*
X005290Y011519D02*
X005307Y011536D01*
X005290Y011519D02*
X005223Y011519D01*
X005207Y011536D01*
X005207Y011569D01*
X005223Y011586D01*
X005207Y011611D02*
X005307Y011678D01*
X005207Y011678D01*
X005207Y011703D02*
X005207Y011753D01*
X005223Y011770D01*
X005290Y011770D01*
X005307Y011753D01*
X005307Y011703D01*
X005207Y011703D01*
X005207Y011611D02*
X005307Y011611D01*
X004707Y011611D02*
X004707Y011644D01*
X004707Y011628D02*
X004607Y011628D01*
X004607Y011644D02*
X004607Y011611D01*
X004623Y011586D02*
X004657Y011586D01*
X004674Y011569D01*
X004674Y011519D01*
X004707Y011519D02*
X004607Y011519D01*
X004607Y011569D01*
X004623Y011586D01*
X004623Y011672D02*
X004690Y011672D01*
X004707Y011689D01*
X004707Y011722D01*
X004690Y011739D01*
X004623Y011739D01*
X004607Y011722D01*
X004607Y011689D01*
X004623Y011672D01*
X004623Y011764D02*
X004607Y011781D01*
X004607Y011814D01*
X004623Y011831D01*
X004640Y011831D01*
X004657Y011814D01*
X004674Y011831D01*
X004690Y011831D01*
X004707Y011814D01*
X004707Y011781D01*
X004690Y011764D01*
X004657Y011798D02*
X004657Y011814D01*
X004107Y011831D02*
X004107Y011764D01*
X004040Y011831D01*
X004023Y011831D01*
X004007Y011814D01*
X004007Y011781D01*
X004023Y011764D01*
X004023Y011739D02*
X004007Y011722D01*
X004007Y011689D01*
X004023Y011672D01*
X004090Y011672D01*
X004107Y011689D01*
X004107Y011722D01*
X004090Y011739D01*
X004023Y011739D01*
X004007Y011644D02*
X004007Y011611D01*
X004007Y011628D02*
X004107Y011628D01*
X004107Y011644D02*
X004107Y011611D01*
X004074Y011569D02*
X004074Y011519D01*
X004107Y011519D02*
X004007Y011519D01*
X004007Y011569D01*
X004023Y011586D01*
X004057Y011586D01*
X004074Y011569D01*
X003507Y011611D02*
X003507Y011644D01*
X003507Y011628D02*
X003407Y011628D01*
X003407Y011644D02*
X003407Y011611D01*
X003423Y011586D02*
X003457Y011586D01*
X003474Y011569D01*
X003474Y011519D01*
X003507Y011519D02*
X003407Y011519D01*
X003407Y011569D01*
X003423Y011586D01*
X003423Y011672D02*
X003490Y011672D01*
X003507Y011689D01*
X003507Y011722D01*
X003490Y011739D01*
X003423Y011739D01*
X003407Y011722D01*
X003407Y011689D01*
X003423Y011672D01*
X003440Y011764D02*
X003407Y011798D01*
X003507Y011798D01*
X003507Y011831D02*
X003507Y011764D01*
X002907Y011781D02*
X002890Y011764D01*
X002823Y011831D01*
X002890Y011831D01*
X002907Y011814D01*
X002907Y011781D01*
X002890Y011764D02*
X002823Y011764D01*
X002807Y011781D01*
X002807Y011814D01*
X002823Y011831D01*
X002823Y011739D02*
X002807Y011722D01*
X002807Y011689D01*
X002823Y011672D01*
X002890Y011672D01*
X002907Y011689D01*
X002907Y011722D01*
X002890Y011739D01*
X002823Y011739D01*
X002807Y011644D02*
X002807Y011611D01*
X002807Y011628D02*
X002907Y011628D01*
X002907Y011644D02*
X002907Y011611D01*
X002874Y011569D02*
X002874Y011519D01*
X002907Y011519D02*
X002807Y011519D01*
X002807Y011569D01*
X002823Y011586D01*
X002857Y011586D01*
X002874Y011569D01*
X002874Y008730D02*
X002890Y008730D01*
X002907Y008713D01*
X002907Y008680D01*
X002890Y008663D01*
X002857Y008680D02*
X002857Y008713D01*
X002874Y008730D01*
X002823Y008730D02*
X002807Y008713D01*
X002807Y008680D01*
X002823Y008663D01*
X002840Y008663D01*
X002857Y008680D01*
X002807Y008638D02*
X002807Y008571D01*
X002823Y008546D02*
X002857Y008546D01*
X002874Y008529D01*
X002874Y008479D01*
X002907Y008479D02*
X002807Y008479D01*
X002807Y008529D01*
X002823Y008546D01*
X002874Y008513D02*
X002907Y008546D01*
X002907Y008605D02*
X002807Y008605D01*
X002924Y008454D02*
X002924Y008387D01*
X002907Y008329D02*
X002807Y008329D01*
X002807Y008362D02*
X002807Y008295D01*
X002823Y008270D02*
X002857Y008270D01*
X002874Y008253D01*
X002874Y008203D01*
X002857Y008178D02*
X002857Y008111D01*
X002840Y008111D02*
X002807Y008144D01*
X002840Y008178D01*
X002907Y008178D01*
X002907Y008203D02*
X002807Y008203D01*
X002807Y008253D01*
X002823Y008270D01*
X002874Y008236D02*
X002907Y008270D01*
X002907Y008111D02*
X002840Y008111D01*
X002807Y008086D02*
X002890Y008086D01*
X002907Y008069D01*
X002907Y008036D01*
X002890Y008019D01*
X002807Y008019D01*
X003407Y008019D02*
X003490Y008019D01*
X003507Y008036D01*
X003507Y008069D01*
X003490Y008086D01*
X003407Y008086D01*
X003440Y008111D02*
X003407Y008144D01*
X003440Y008178D01*
X003507Y008178D01*
X003507Y008203D02*
X003407Y008203D01*
X003407Y008253D01*
X003423Y008270D01*
X003457Y008270D01*
X003474Y008253D01*
X003474Y008203D01*
X003457Y008178D02*
X003457Y008111D01*
X003440Y008111D02*
X003507Y008111D01*
X003474Y008236D02*
X003507Y008270D01*
X003507Y008329D02*
X003407Y008329D01*
X003407Y008362D02*
X003407Y008295D01*
X003524Y008387D02*
X003524Y008454D01*
X003507Y008513D02*
X003407Y008513D01*
X003407Y008546D02*
X003407Y008479D01*
X003407Y008571D02*
X003507Y008638D01*
X003507Y008571D02*
X003407Y008638D01*
X004007Y008638D02*
X004007Y008571D01*
X004023Y008546D02*
X004007Y008529D01*
X004007Y008496D01*
X004023Y008479D01*
X004090Y008479D01*
X004107Y008496D01*
X004107Y008529D01*
X004090Y008546D01*
X004107Y008605D02*
X004007Y008605D01*
X004023Y008663D02*
X004040Y008663D01*
X004057Y008680D01*
X004057Y008713D01*
X004074Y008730D01*
X004090Y008730D01*
X004107Y008713D01*
X004107Y008680D01*
X004090Y008663D01*
X004023Y008663D02*
X004007Y008680D01*
X004007Y008713D01*
X004023Y008730D01*
X004124Y008454D02*
X004124Y008387D01*
X004107Y008329D02*
X004007Y008329D01*
X004007Y008362D02*
X004007Y008295D01*
X004023Y008270D02*
X004057Y008270D01*
X004074Y008253D01*
X004074Y008203D01*
X004057Y008178D02*
X004057Y008111D01*
X004040Y008111D02*
X004007Y008144D01*
X004040Y008178D01*
X004107Y008178D01*
X004107Y008203D02*
X004007Y008203D01*
X004007Y008253D01*
X004023Y008270D01*
X004074Y008236D02*
X004107Y008270D01*
X004107Y008111D02*
X004040Y008111D01*
X004007Y008086D02*
X004090Y008086D01*
X004107Y008069D01*
X004107Y008036D01*
X004090Y008019D01*
X004007Y008019D01*
X004607Y008019D02*
X004690Y008019D01*
X004707Y008036D01*
X004707Y008069D01*
X004690Y008086D01*
X004607Y008086D01*
X004640Y008111D02*
X004607Y008144D01*
X004640Y008178D01*
X004707Y008178D01*
X004707Y008203D02*
X004607Y008203D01*
X004607Y008253D01*
X004623Y008270D01*
X004657Y008270D01*
X004674Y008253D01*
X004674Y008203D01*
X004657Y008178D02*
X004657Y008111D01*
X004640Y008111D02*
X004707Y008111D01*
X004674Y008236D02*
X004707Y008270D01*
X004707Y008329D02*
X004607Y008329D01*
X004607Y008362D02*
X004607Y008295D01*
X004724Y008387D02*
X004724Y008454D01*
X004707Y008479D02*
X004607Y008479D01*
X004607Y008529D01*
X004623Y008546D01*
X004657Y008546D01*
X004674Y008529D01*
X004674Y008479D01*
X004674Y008513D02*
X004707Y008546D01*
X004707Y008571D02*
X004607Y008638D01*
X004607Y008571D02*
X004707Y008638D01*
X005307Y008270D02*
X005307Y008203D01*
X005290Y008178D02*
X005307Y008161D01*
X005307Y008128D01*
X005290Y008111D01*
X005223Y008111D01*
X005207Y008128D01*
X005207Y008161D01*
X005223Y008178D01*
X005240Y008203D02*
X005207Y008236D01*
X005307Y008236D01*
X005307Y008086D02*
X005207Y008086D01*
X005207Y008019D02*
X005307Y008086D01*
X005307Y008019D02*
X005207Y008019D01*
X005807Y008019D02*
X005907Y008086D01*
X005807Y008086D01*
X005823Y008111D02*
X005890Y008111D01*
X005907Y008128D01*
X005907Y008161D01*
X005890Y008178D01*
X005907Y008203D02*
X005840Y008270D01*
X005823Y008270D01*
X005807Y008253D01*
X005807Y008220D01*
X005823Y008203D01*
X005823Y008178D02*
X005807Y008161D01*
X005807Y008128D01*
X005823Y008111D01*
X005807Y008019D02*
X005907Y008019D01*
X005907Y008203D02*
X005907Y008270D01*
X006407Y008236D02*
X006507Y008236D01*
X006507Y008203D02*
X006507Y008270D01*
X006440Y008203D02*
X006407Y008236D01*
X006407Y008178D02*
X006474Y008178D01*
X006507Y008144D01*
X006474Y008111D01*
X006407Y008111D01*
X006407Y008086D02*
X006507Y008086D01*
X006407Y008019D01*
X006507Y008019D01*
X006907Y008019D02*
X007007Y008086D01*
X006907Y008086D01*
X006907Y008111D02*
X006974Y008111D01*
X007007Y008144D01*
X006974Y008178D01*
X006907Y008178D01*
X006923Y008203D02*
X006907Y008220D01*
X006907Y008253D01*
X006923Y008270D01*
X006940Y008270D01*
X007007Y008203D01*
X007007Y008270D01*
X007007Y008019D02*
X006907Y008019D01*
D17*
X008032Y008865D02*
X008132Y008865D01*
X008132Y009865D01*
X008032Y009865D01*
X010332Y009815D02*
X010332Y008865D01*
X010432Y008865D01*
X010432Y009815D02*
X010332Y009815D01*
M02*
